<svg width="853" height="488" viewBox="0 0 853 488" fill="none" xmlns="http://www.w3.org/2000/svg">
<path d="M796.055 326.024C780.996 303.148 765.425 279.731 743.25 263.937C721.075 248.143 690.483 241.452 666.704 254.615C656.133 260.467 647.78 269.643 638.216 277.075C592.4 312.673 523.15 302.127 478.07 265.571C463.11 253.44 449.938 238.748 433.16 229.394C397.555 209.544 353.803 217.443 313.683 211.073C293.896 207.932 273.387 200.224 261.89 183.554C247.333 162.448 251.141 133.396 241.071 109.74C228.041 79.1328 195.094 63.5256 164.87 50.5621C128.804 35.0932 92.7364 19.6243 56.6699 4.15447C52.3819 2.31493 48.0024 0.452814 43.3633 0.0742449C27.6865 -1.20512 15.7618 14.2746 9.9461 29.131C-5.75026 69.2286 0.122314 114.33 7.26575 156.87C15.1673 203.924 24.329 250.749 33.4906 297.566C40.0582 331.128 46.6249 364.689 53.1924 398.251C55.296 409 57.5293 420.074 63.593 429.135C74.5818 445.557 95.3225 451.598 114.545 455.141C156.653 462.901 199.89 464.302 242.397 459.282C301.174 452.341 358.604 433.227 417.775 432.842C465.436 432.531 512.254 444.397 558.592 455.734C624.178 471.778 690.621 486.99 758.078 487.426C781.524 487.578 790.924 479.902 809.918 469.123C824.483 460.857 844.807 460.19 851.188 442.187C863.141 408.462 812.675 351.273 796.055 326.024Z" fill="#D6EAD8"/>
</svg>
