<svg width="932" height="314" viewBox="0 0 932 314" fill="none" xmlns="http://www.w3.org/2000/svg">
<path d="M611.008 106.881C589.448 115.667 568.254 126.383 551.106 142.32C522.445 168.959 507.822 207.324 486.904 240.598C465.986 273.871 432.424 304.96 393.776 301.275C365.584 298.587 342.178 278.006 314.873 270.375C243.718 250.491 174.182 321.726 100.95 312.522C91.3193 311.312 81.1653 308.245 75.1964 300.46C71.1113 295.132 69.5283 288.265 68.6783 281.563C65.1453 253.701 72.8973 224.532 89.7484 202.279C96.1053 193.885 104.018 185.713 105.266 175.192C107.819 153.665 82.2933 140.605 61.1603 137.823C40.0283 135.041 14.7263 133.553 4.01233 114.81C-4.96667 99.1021 2.10938 77.9148 15.4874 65.8777C28.8654 53.8395 46.8914 48.9093 64.3423 45.0546C227.735 8.95948 397.814 34.9947 564.534 22.1333C646.112 15.8405 727.076 0.205109 808.892 0.00159035C845.26 -0.0889756 907.462 3.56725 926.861 42.3C943.159 74.8427 910.096 80.4344 884.822 81.3298C841.998 82.8461 799.738 72.9968 756.69 74.9872C706.845 77.292 657.34 87.9981 611.008 106.881Z" fill="#D6EAD8"/>
</svg>
