<svg width="682" height="688" viewBox="0 0 682 688" fill="none" xmlns="http://www.w3.org/2000/svg">
<path d="M677.251 487.781C660.664 422.384 605.55 370.547 541.694 348.747C524.361 342.83 505.076 338.029 493.83 323.574C478.968 304.468 484.364 277.338 482.609 253.196C480.747 227.586 468.846 201.833 447.422 187.674C423.854 172.1 393.66 172.657 365.527 170.1C341.566 167.922 317.846 163.092 294.941 155.727C288.997 153.816 282.975 151.66 278.138 147.712C257.56 130.915 268.239 92.0962 246.584 76.7115C236.012 69.2016 221.234 70.3902 210.212 63.5565C200.284 57.4005 195.201 45.9598 187.765 36.9515C174.45 20.825 153.784 12.8161 133.577 7.42269C108.809 0.812407 82.5849 -2.84871 57.5662 2.74128C32.5475 8.33127 11.4734 6.75689 1.96788 30.5616C-3.3472 48.4889 2.35071 69.2105 16.0853 81.9023C34.992 99.3738 66.4654 101.955 79.616 124.086C91.3441 143.821 82.503 168.87 83.6992 191.796C84.66 210.191 92.6415 228.133 105.663 241.164C122.089 257.603 145.252 265.702 162.5 281.276C190.238 306.32 198.432 346.759 197.334 384.11C196.236 421.462 187.491 458.395 188.091 495.757C188.44 517.469 191.972 539.127 198.54 559.826C205.286 581.089 215.55 601.764 231.762 617.088C243.424 628.111 257.703 635.952 272.169 642.902C353.238 681.859 445.951 696.182 534.998 683.505C559.897 679.96 584.866 674.225 606.935 662.17C666.151 629.826 693.84 553.179 677.251 487.781Z" fill="#D6EAD8"/>
</svg>
