<svg width="69" height="112" viewBox="0 0 69 112" fill="none" xmlns="http://www.w3.org/2000/svg">
<g clip-path="url(#clip0_98_1598)">
<path d="M59.918 1.30148C59.918 1.30148 20.3941 0.831782 16.0935 1.00728C11.7927 1.18418 4.58717 0.894681 2.77157 3.20428C0.955868 5.51388 0.149169 9.44068 0.360569 9.63608C0.572569 9.83218 2.19707 89.3519 2.19707 89.3519L2.74967 104.407L3.30057 108.277C3.30057 108.277 22.0997 106.445 27.875 106.7C33.6502 106.955 46.4358 107.572 50.8459 108.082C55.256 108.591 67.923 110.43 67.923 110.43L66.566 77.4059L65.26 56.6363L63.707 37.4425L61.198 14.5257L59.918 1.30148Z" fill="#F7F5DC"/>
<path d="M0.83647 7.11817C0.25177 3.86017 6.24377 3.02708 12.1292 5.13448C18.0138 7.24248 19.5819 10.8987 19.8709 17.9357C20.1598 24.9728 3.31797 108.691 3.31797 108.691L6.46617 78.896L15.4217 12.7536L12.2081 14.4969C12.2081 14.4969 5.15727 12.8814 5.14397 12.5662C5.13077 12.251 1.55147 9.34127 1.53847 8.99547C1.52467 8.65027 0.83647 7.11817 0.83647 7.11817Z" fill="#E2DEBC"/>
<path d="M6.5089 6.20661C8.074 6.39831 9.6147 6.80291 11.033 7.50141C12.2935 8.12251 13.739 8.83161 14.6197 9.96451C15.328 10.8755 15.4998 12.1277 14.6136 12.9788C13.8999 13.6641 12.8261 13.9137 11.8681 13.9719C9.3312 14.1253 6.6626 12.7977 4.7192 11.2673C2.9912 9.90651 0.394295 7.40851 1.7529 5.01601C2.7603 3.24231 5.2025 2.47981 7.0779 2.14031C8.4728 1.88811 9.90999 1.84361 11.3225 1.76901C13.0234 1.67911 14.7267 1.62661 16.4299 1.59831C23.2304 1.48571 30.039 1.63281 36.8401 1.68561C44.5455 1.74481 52.249 1.80371 59.954 1.86851C59.752 1.69221 59.552 1.51521 59.35 1.33891C61.057 15.5993 62.508 29.8911 63.698 44.2036C64.881 58.4341 65.804 72.686 66.466 86.95C66.839 94.995 67.13 103.043 67.34 111.093C67.36 111.868 68.56 111.788 68.54 111.015C68.165 96.657 67.527 82.306 66.624 67.9727C65.725 53.7224 64.573 39.4852 63.145 25.2782C62.34 17.2657 61.453 9.26091 60.484 1.26571C60.445 0.943708 60.202 0.737308 59.879 0.736108C52.258 0.683808 44.6362 0.628009 37.0146 0.570809C29.4685 0.514509 21.9063 0.313609 14.362 0.533309C12.4523 0.589209 10.5417 0.679908 8.6371 0.831908C7.3982 0.931208 6.1679 1.14411 4.9855 1.53271C2.9891 2.18911 0.681895 3.50151 0.319695 5.77931C-0.130205 8.60411 2.53839 11.1097 4.63169 12.5754C6.79769 14.0924 9.616 15.3681 12.3208 15.012C13.5041 14.8559 14.7812 14.4229 15.5581 13.4655C16.374 12.4589 16.4133 11.087 15.7869 9.97171C14.9689 8.51381 13.2941 7.54731 11.7683 7.00701C10.0754 6.40661 8.3213 6.04521 6.5247 5.97771C6.3937 5.97051 6.379 6.19101 6.5089 6.20661Z" fill="#253529"/>
<path d="M67.36 110.421C66.668 109.766 65.73 109.648 64.818 109.472C63.789 109.272 62.758 109.098 61.724 108.934C59.615 108.599 57.502 108.294 55.384 108.026C51.187 107.495 46.9754 107.087 42.7556 106.799C34.3422 106.225 25.8971 106.132 17.4745 106.53C12.7259 106.755 7.98537 107.137 3.26167 107.67C2.48527 107.758 2.56097 108.974 3.34177 108.885C11.6684 107.938 20.0469 107.465 28.4266 107.478C36.8347 107.491 45.2407 107.987 53.591 108.97C55.951 109.248 58.309 109.561 60.66 109.912C61.816 110.084 62.968 110.274 64.125 110.443C65.186 110.597 66.327 110.926 67.345 110.499C67.376 110.486 67.386 110.446 67.36 110.421Z" fill="#253529"/>
<path d="M15.6903 11.1055C14.1238 17.2304 13.312 23.5816 12.3782 29.8263C11.4409 36.0991 10.5357 42.3773 9.66498 48.6591C7.92258 61.2248 6.33088 73.81 4.86968 86.4121C4.46178 89.9311 4.06528 93.4501 3.67718 96.9701C3.47798 98.7721 3.28228 100.573 3.08948 102.375C2.89978 104.14 2.66018 105.905 2.60328 107.68C2.58588 108.234 3.47368 108.281 3.56838 107.746C4.12798 104.598 4.31018 101.356 4.65698 98.1771C4.99678 95.0651 5.34578 91.9541 5.70308 88.8441C6.42668 82.5421 7.18458 76.2461 7.97548 69.9526C9.55818 57.3655 11.2601 44.7933 13.0984 32.2418C13.6121 28.7366 14.1231 25.231 14.6453 21.7268C15.1678 18.2148 15.6715 14.6642 15.908 11.12C15.9146 10.9932 15.7194 10.993 15.6903 11.1055Z" fill="#253529"/>
<path d="M-0.0292425 6.22671C0.0259575 9.59861 0.39586 12.9729 0.59496 16.3394C0.79016 19.6291 0.969759 22.9183 1.09556 26.21C1.35166 32.9229 1.46326 39.6406 1.49496 46.3583C1.55926 59.7652 1.33516 73.1745 1.59616 86.5801C1.66826 90.2901 1.77696 93.9981 1.93776 97.7041C2.10156 101.478 2.18936 105.306 2.66266 109.056C2.74006 109.672 3.64536 109.62 3.62906 108.993C3.53856 105.618 3.22156 102.243 3.06606 98.8691C2.91416 95.5751 2.80526 92.2791 2.72836 88.9831C2.57096 82.2621 2.54216 75.5381 2.54666 68.8152C2.55726 55.4148 2.72706 42.0059 2.24156 28.6111C2.10736 24.9079 1.92986 21.2042 1.67236 17.5069C1.40956 13.7441 1.18396 9.90041 0.470258 6.19301C0.409658 5.88541 -0.0349425 5.89671 -0.0292425 6.22671Z" fill="#253529"/>
<path d="M6.48875 6.22974C6.35355 6.48434 6.12305 6.61154 5.98475 6.86864C5.85965 7.09884 5.76165 7.35234 5.67305 7.59854C5.48515 8.12084 5.36045 8.66114 5.25725 9.20614C5.15405 9.75124 5.07665 10.3016 5.02595 10.854C4.97415 11.4098 4.88055 12.0323 4.96655 12.5861C5.04125 13.065 5.79415 13.1992 5.87725 12.6495C5.95575 12.1249 5.91345 11.5751 5.95265 11.0455C5.99255 10.5104 6.05935 9.97714 6.14905 9.44894C6.23805 8.91994 6.35905 8.39774 6.46195 7.87184C6.51245 7.61094 6.56625 7.34624 6.59925 7.08244C6.63395 6.80594 6.53945 6.53614 6.59855 6.26844C6.61345 6.20124 6.51955 6.17164 6.48875 6.22974Z" fill="#253529"/>
<path d="M51.667 13.8021C49.9741 12.2403 47.6703 12.2455 45.5639 12.8076C44.2213 13.1661 42.9276 13.6918 41.5761 14.0193C40.9793 14.164 40.3173 14.3063 39.6971 14.2678C38.961 14.222 38.5687 13.7923 38.0695 13.3115C36.3557 11.6609 33.8426 12.0731 31.7564 12.6221C30.4822 12.9578 29.1251 13.3644 27.7953 13.143C26.5589 12.9376 25.6688 11.9246 24.3949 11.8371C22.9782 11.7402 21.7508 12.545 20.4596 12.9876C19.718 13.2425 18.9404 13.3568 18.1567 13.3328C17.7684 13.3205 17.398 13.2563 17.0163 13.1921C16.6233 13.1265 16.2205 13.1509 15.8322 13.0702C15.4584 12.9934 15.3151 13.495 15.6221 13.6781C16.205 14.0255 16.6365 14.284 17.3253 14.3781C17.9454 14.4622 18.5826 14.4786 19.2043 14.4082C20.5149 14.2595 21.6227 13.6706 22.843 13.2298C23.4282 13.018 24.0598 12.8513 24.6793 13.0093C25.3152 13.1724 25.8348 13.6208 26.4254 13.89C27.57 14.4125 28.8404 14.3913 30.0545 14.1656C32.1505 13.7775 34.8965 12.4153 36.9129 13.7496C37.3664 14.0494 37.6922 14.4978 38.1337 14.8132C38.5909 15.1405 39.1153 15.2775 39.6712 15.3C40.9481 15.3523 42.2632 14.9063 43.4566 14.5042C45.9162 13.6762 49.1012 12.4275 51.525 14.0124C51.652 14.0966 51.771 13.8971 51.667 13.8021Z" fill="#253529"/>
<path d="M14.5699 22.9544C15.1301 22.6354 15.734 22.2913 16.3756 22.17C17.0573 22.0415 17.7198 22.2599 18.3522 22.4966C19.4074 22.891 20.6031 23.3635 21.7135 22.879C22.1741 22.678 22.5017 22.3271 22.8515 21.9804C23.2362 21.6003 23.5199 21.4747 24.0186 21.7203C24.6979 22.0548 25.6446 22.8375 26.3089 22.0399C26.4917 21.8205 26.398 21.4247 26.0878 21.3809C25.6502 21.3182 25.3169 21.2202 24.93 20.9978C24.533 20.7707 24.1337 20.539 23.6688 20.5014C22.4581 20.404 22.1242 21.6705 21.1206 21.9796C19.9027 22.3551 18.619 21.4076 17.4386 21.2334C16.0867 21.0342 15.1802 21.706 14.2895 22.6328C14.1101 22.8191 14.3675 23.0687 14.5699 22.9544Z" fill="#253529"/>
<path d="M31.1679 22.2539C32.0246 21.769 33.1911 22.453 33.967 22.7669C34.8461 23.1221 35.6755 23.1739 36.5528 22.7807C36.9877 22.5857 37.384 22.2954 37.8258 22.1191C38.3697 21.9015 38.7488 22.249 39.2664 22.3494C40.193 22.5296 41.0534 22.0672 41.8488 21.6566C42.2586 21.4457 42.6895 21.2196 43.1553 21.1653C43.7028 21.1006 43.8983 21.3602 44.331 21.6382C44.7267 21.893 45.1547 21.8896 45.6136 21.895C46.1893 21.9023 46.7654 21.9053 47.3414 21.9097C48.4931 21.92 49.6449 21.9302 50.7974 21.9399C51.8498 21.949 53.1098 22.1546 54.0948 21.7605C54.3778 21.6464 54.4608 21.1907 54.1398 21.0564C53.1088 20.6252 51.8318 20.8152 50.7232 20.8082C49.4893 20.7997 48.2553 20.7913 47.0214 20.7829C46.466 20.7789 45.8374 20.8648 45.294 20.7718C44.8279 20.692 44.5374 20.3086 44.086 20.1516C43.2394 19.856 42.3373 20.1621 41.5772 20.5529C41.1234 20.7854 40.6883 21.0616 40.1978 21.2111C39.5376 21.4128 39.1307 21.0654 38.5118 20.9601C37.5711 20.8009 36.8308 21.5399 36.0201 21.8674C34.338 22.5468 32.2768 20.1137 30.9244 21.9732C30.7972 22.1469 30.9777 22.3612 31.1679 22.2539Z" fill="#253529"/>
<path d="M13.3161 31.5065C13.7077 31.0881 14.0858 30.6637 14.4845 30.2511C14.337 30.2797 14.1886 30.3088 14.0409 30.3388C15.0209 30.9753 16.1384 31.2934 17.3007 31.3499C18.616 31.4141 19.9234 30.8132 21.1902 31.2875C21.6694 31.4673 22.0892 31.5298 22.583 31.3536C22.8337 31.2639 23.0465 31.1124 23.3255 31.1601C23.5956 31.2061 23.8466 31.4149 24.0885 31.5322C24.7931 31.8748 25.8173 31.8969 26.0221 30.9612C26.0847 30.6719 25.7144 30.3796 25.4633 30.5862C24.8816 31.0664 23.873 30.0949 23.2269 30.0931C22.7966 30.0919 22.4766 30.3761 22.0741 30.4319C21.6274 30.4943 21.0842 30.1312 20.6351 30.0814C19.6372 29.9692 18.6623 30.3674 17.6669 30.4002C16.5228 30.4372 15.4096 30.1361 14.3713 29.6754C14.1877 29.5939 13.9683 29.6556 13.8753 29.8406C13.6185 30.3493 13.3437 30.8416 13.0782 31.3456C13.0004 31.4948 13.2059 31.6239 13.3161 31.5065Z" fill="#253529"/>
<path d="M29.7084 31.3507C29.7416 31.3135 29.7739 31.277 29.8071 31.2398C29.8228 31.2225 29.8385 31.2052 29.8536 31.1872C29.8926 31.1429 29.9283 31.1025 29.9549 31.0438C29.9707 30.9973 29.9871 30.9516 30.0029 30.9051C30.0025 30.9029 30.0034 30.9009 30.0038 30.8981C30.0219 30.822 30.0206 30.747 29.9991 30.6738C29.9978 30.6444 29.9913 30.6165 29.9805 30.5895C29.9863 30.685 29.9936 30.7807 29.9994 30.8762C30.011 30.8406 30.0218 30.8056 30.0334 30.77C30.0359 30.7617 30.0391 30.7529 30.0416 30.7446C30.0468 30.7253 30.0512 30.6333 30.0511 30.6119C30.0508 30.6083 30.0505 30.6047 30.0503 30.6011C30.0494 30.5853 30.0491 30.5703 30.0489 30.5553C30.0475 30.4981 30.0318 30.447 30.0036 30.3993C29.9835 30.349 29.9524 30.3073 29.9104 30.2728C29.8814 30.2535 29.8519 30.2335 29.8229 30.2141C29.7565 30.1809 29.6863 30.1671 29.6124 30.1714C29.5974 30.1716 29.5822 30.1733 29.5672 30.1736C29.5636 30.1738 29.56 30.1741 29.5558 30.1736C29.5536 30.174 29.5522 30.1738 29.55 30.1743C29.5083 30.1826 29.4681 30.1911 29.4264 30.1994C29.4167 30.2032 29.407 30.2069 29.3972 30.2107C29.3627 30.2249 29.3273 30.2397 29.2926 30.2553C29.3881 30.2495 29.4838 30.2422 29.5793 30.2364C29.5264 30.2205 29.4705 30.2171 29.4148 30.2236C29.3893 30.2283 29.363 30.2335 29.3373 30.2396C29.2628 30.248 29.1939 30.275 29.1319 30.3207C29.0958 30.3526 29.0598 30.3844 29.0229 30.4168C29.0206 30.4187 29.0196 30.4207 29.0172 30.4225C29.0131 30.427 29.0082 30.4321 29.0041 30.4366C28.9876 30.4544 28.9697 30.4722 28.9532 30.49C28.9188 30.5256 28.885 30.562 28.852 30.5978C28.8002 30.6533 28.7645 30.7166 28.7461 30.7891C28.7145 30.8592 28.7038 30.9334 28.7112 31.0113C28.7127 31.0899 28.7344 31.1617 28.7739 31.2273C28.8009 31.2962 28.8449 31.3545 28.9038 31.4024C28.9439 31.4295 28.9839 31.4567 29.0254 31.484C29.118 31.5298 29.2146 31.5497 29.3181 31.5427C29.3685 31.5326 29.4175 31.5224 29.468 31.5123C29.5624 31.4806 29.6427 31.4258 29.7084 31.3507Z" fill="#253529"/>
<path d="M32.929 31.0393C32.9529 31.0358 32.9774 31.0332 33.0014 31.0298C33.0535 31.0235 33.107 31.0174 33.1569 31.0001C33.2565 30.967 33.2988 30.9252 33.3743 30.8577C33.3902 30.8441 33.4048 30.8302 33.4208 30.8165C33.5252 30.7227 33.5694 30.5743 33.5488 30.437C33.5216 30.5177 33.4944 30.5984 33.4672 30.6791C33.5094 30.6209 33.5532 30.5666 33.5654 30.4926C33.5741 30.4402 33.5799 30.3875 33.5616 30.3346C33.545 30.2855 33.5119 30.2478 33.4732 30.2159C33.4164 30.1689 33.3556 30.1477 33.2843 30.131C33.3539 30.1782 33.4237 30.224 33.4933 30.2712C33.4692 30.2304 33.4388 30.1945 33.4028 30.1629C33.3595 30.1219 33.3095 30.0949 33.253 30.0793C33.1976 30.0553 33.1396 30.0459 33.0783 30.0517C33.0727 30.051 33.0669 30.0517 33.0619 30.0518C33.0377 30.0516 33.0128 30.0507 32.9892 30.0513C32.9429 30.0519 32.8839 30.0673 32.8394 30.0817C32.7859 30.0992 32.7495 30.1224 32.7081 30.1507C32.6864 30.1651 32.6644 30.1809 32.6427 30.1953C32.6131 30.2208 32.5834 30.2477 32.5538 30.2733C32.5112 30.3178 32.4833 30.3699 32.4681 30.4286C32.4499 30.4655 32.4414 30.505 32.4447 30.5468C32.4348 30.609 32.4421 30.6704 32.4653 30.7296C32.4952 30.8039 32.539 30.87 32.5969 30.925C32.6415 30.9676 32.6928 30.9962 32.7508 31.0105C32.8053 31.0366 32.8655 31.0456 32.929 31.0393Z" fill="#253529"/>
<path d="M36.7114 30.7363C36.838 30.7329 36.9647 30.7281 37.0913 30.7247C37.1563 30.7236 37.2156 30.7054 37.2696 30.6722C37.3266 30.6494 37.3752 30.6142 37.4149 30.5643C37.4578 30.5183 37.4871 30.4664 37.5024 30.4063C37.5282 30.3483 37.5374 30.2867 37.5312 30.2218C37.5179 30.1004 37.4694 29.9761 37.3716 29.8975C37.2732 29.8182 37.1583 29.7746 37.0291 29.7812C36.9022 29.7874 36.7759 29.7944 36.6504 29.8008C36.5861 29.8027 36.5269 29.8195 36.4729 29.8527C36.4159 29.8755 36.3687 29.9109 36.3291 29.9594C36.2863 30.0053 36.257 30.0573 36.2424 30.1167C36.2166 30.1748 36.2077 30.2349 36.2138 30.2998C36.2265 30.4204 36.2752 30.5434 36.3724 30.6211C36.4708 30.7004 36.5827 30.7401 36.7114 30.7363Z" fill="#253529"/>
<path d="M41.2563 30.5543C42.036 30.5308 42.7956 30.281 43.574 30.2053C44.3958 30.1251 45.1865 30.1842 45.9822 30.4029C46.3233 30.4962 46.6609 30.5947 47.0157 30.6178C47.3437 30.6389 47.6391 30.5334 47.9605 30.5166C48.335 30.4965 48.5648 30.7384 48.911 30.8138C49.2509 30.8877 49.5834 30.8103 49.8958 30.6777C50.6035 30.3758 51.1849 29.9911 51.9669 29.8823C52.6859 29.7815 53.3569 29.8904 54.0519 30.0765C55.0569 30.3449 56.2959 30.6625 56.9079 29.5797C57.0869 29.2636 56.6829 28.9607 56.4029 29.1366C55.4139 29.7568 54.0319 28.9452 52.9889 28.8659C52.3349 28.816 51.6739 28.8865 51.0439 29.0734C50.4575 29.248 49.5739 29.9818 48.9953 29.816C48.7249 29.7387 48.5198 29.584 48.2267 29.5573C47.9012 29.5279 47.6092 29.646 47.29 29.6737C46.6055 29.7334 45.9003 29.3899 45.2093 29.3533C43.9131 29.2843 42.2912 29.6485 41.1731 30.3137C41.0547 30.383 41.1318 30.5587 41.2563 30.5543Z" fill="#253529"/>
<path d="M16.4267 37.5621C17.4584 37.8595 18.3836 37.8699 19.3947 37.4663C19.8695 37.277 20.2725 36.9954 20.6913 36.7065C20.8989 36.5629 21.1113 36.4028 21.3519 36.3196C21.7156 36.1927 21.8326 36.4083 21.9915 36.704C22.4258 37.5152 23.2333 37.9185 24.1428 37.9397C25.2961 37.9665 26.2983 37.2811 27.1957 36.6367C26.9275 36.5475 26.6593 36.4583 26.3912 36.3691C26.6069 37.1045 27.228 37.5514 27.9537 37.7257C28.7997 37.9293 29.6148 37.6629 30.4228 37.4313C30.9779 37.272 31.48 37.1717 32.0593 37.2521C32.5854 37.3244 33.1 37.4893 33.6189 37.5964C34.7541 37.8297 35.9094 37.9487 37.0635 38.042C38.9663 38.1954 40.9032 38.3717 42.8091 38.1643C43.679 38.0694 44.5518 37.9001 45.361 37.561C46.1018 37.2511 46.9766 36.7471 47.3557 36.0128C47.4639 35.8033 47.2485 35.5832 47.0358 35.6485C46.2755 35.8811 45.5888 36.3339 44.8228 36.5836C44.0807 36.8248 43.3177 36.9823 42.5416 37.0625C40.8348 37.2393 39.1108 37.104 37.4055 36.9731C36.4491 36.8996 35.4924 36.8112 34.5461 36.6564C33.5999 36.5015 32.654 36.1564 31.6913 36.1335C30.833 36.113 30.0585 36.4592 29.238 36.6487C28.5953 36.7962 27.6279 36.782 27.402 36.019C27.307 35.6964 26.8663 35.5514 26.5975 35.7515C25.7688 36.3653 24.7283 37.1793 23.6274 36.8433C22.7653 36.58 22.7406 35.468 21.8184 35.3262C20.9802 35.1963 20.294 35.9021 19.7118 36.385C18.8402 37.1082 17.5877 37.5272 16.4524 37.4484C16.3762 37.4418 16.3517 37.5406 16.4267 37.5621Z" fill="#253529"/>
<path d="M11.8522 46.423C12.5662 46.4974 13.3497 46.3241 14.0645 46.2611C14.8413 46.193 15.615 46.0982 16.3851 45.9744C17.8994 45.7308 19.4383 45.3462 20.9745 45.297C22.4113 45.2503 23.6286 46.0178 25.0331 46.1039C26.2932 46.1819 27.4961 45.6355 28.3167 44.6886C27.9933 44.579 27.6714 44.4695 27.3488 44.3593C27.4425 45.5861 28.3487 46.5497 29.5057 46.8991C30.0681 47.0686 30.6994 47.0807 31.2564 46.8782C31.5617 46.7675 31.8184 46.5844 32.0845 46.4054C32.1631 46.3532 32.4661 46.0897 32.5797 46.1218C32.7552 46.1715 32.7921 46.4861 32.8551 46.6259C33.4354 47.91 34.9603 47.7632 36.0702 47.3399C37.8827 46.649 39.5147 45.6918 41.1849 44.7265C41.4477 44.5741 41.2275 44.1753 40.9522 44.2627C40.1737 44.5094 39.3732 44.6935 38.6111 44.9807C37.8062 45.2847 37.0254 45.6359 36.2399 45.9844C35.72 46.215 35.1551 46.492 34.5723 46.4853C33.8443 46.4775 33.9332 45.9093 33.5808 45.4347C33.2582 45.0003 32.7062 44.867 32.2033 45.0363C31.6675 45.2172 31.2877 45.7063 30.7439 45.8491C29.7302 46.1141 28.5424 45.339 28.4537 44.2882C28.4142 43.8186 27.8031 43.5881 27.4851 43.9595C26.5866 45.0114 25.343 45.2284 24.0526 44.8623C23.4264 44.6841 22.8166 44.4438 22.1689 44.352C21.4883 44.2554 20.7975 44.2808 20.1176 44.3659C18.7226 44.5397 17.336 44.84 15.9621 45.1304C15.2454 45.2823 14.5221 45.4696 13.8245 45.6965C13.1781 45.9078 12.4357 46.0314 11.8393 46.3608C11.8142 46.3741 11.8234 46.4201 11.8522 46.423Z" fill="#253529"/>
<path d="M52.212 36.5698C52.318 36.3835 52.481 36.0554 52.689 35.964C52.874 35.8824 53.07 35.9782 53.21 36.0884C53.654 36.4362 54.125 36.7046 54.682 36.827C55.22 36.9451 55.788 36.9243 56.318 36.7755C56.588 36.6988 56.848 36.5803 57.09 36.4395C57.423 36.2447 57.581 36.0093 57.605 35.6232C57.62 35.3693 57.353 35.2317 57.144 35.2191C57.194 35.2205 57.178 35.2191 57.098 35.2147C57.026 35.2036 56.954 35.211 56.884 35.2386C56.813 35.2575 56.751 35.2811 56.685 35.3163C56.556 35.3849 56.44 35.4766 56.31 35.5436C56.141 35.6302 55.877 35.7125 55.699 35.7472C55.231 35.839 54.73 35.804 54.294 35.6042C54.057 35.4953 53.856 35.3183 53.612 35.2265C53.337 35.1236 52.972 35.068 52.706 35.2328C52.507 35.3569 52.379 35.5995 52.254 35.7905C52.115 36.0025 52.023 36.2362 51.943 36.4748C51.886 36.638 52.135 36.7041 52.212 36.5698Z" fill="#253529"/>
<path d="M43.5298 45.8028C44.3441 46.0894 45.1873 46.0367 46.0402 45.9868C46.5477 45.957 46.8691 45.8718 47.2887 46.1802C47.5373 46.3631 47.7095 46.5471 48.0271 46.6118C48.6225 46.7341 49.1383 46.3826 49.5911 46.0445C49.8498 45.851 50.1191 45.6011 50.4503 45.5513C50.7633 45.5043 51.0959 45.6243 51.3899 45.7161C51.9659 45.8957 52.5329 46.1349 53.1489 46.0681C53.4199 46.038 53.6879 45.9439 53.9149 45.7914C54.1839 45.6099 54.3479 45.2698 54.6129 45.1056C54.9589 44.8895 55.5579 45.1676 55.9509 45.214C56.3589 45.2622 56.7729 45.277 57.1819 45.2491C57.8479 45.2035 58.8239 45.1418 59.1149 44.4329C59.1849 44.2606 59.1359 44.0671 58.9629 43.9771C58.3189 43.6406 57.4769 44.0596 56.7819 44.0695C56.0029 44.0809 55.1299 43.6502 54.3719 43.8924C53.7899 44.0783 53.5279 44.8721 52.9289 44.9125C52.3379 44.9525 51.7229 44.5669 51.1509 44.4546C50.5697 44.3413 50.0183 44.4026 49.5029 44.7058C49.2106 44.8773 48.9604 45.106 48.6876 45.3042C48.2925 45.5911 48.2423 45.5364 47.8618 45.2457C47.2881 44.8076 46.6534 44.897 45.9751 44.9759C45.1267 45.0756 44.2693 45.1671 43.5174 45.5946C43.4423 45.6365 43.4459 45.7731 43.5298 45.8028Z" fill="#253529"/>
<path d="M9.72614 57.1348C10.5349 56.7251 11.0212 55.8239 11.9645 55.6378C12.3349 55.5652 12.782 55.609 13.0899 55.8471C13.4135 56.0971 13.4851 56.5444 13.8051 56.8111C14.384 57.2933 15.1904 57.1249 15.8003 56.8015C16.1903 56.5945 16.4936 56.2954 16.8505 56.0408C17.3717 55.6685 17.6982 55.5427 18.2032 55.9822C18.8749 56.5658 19.5823 56.7264 20.4635 56.6379C21.5684 56.5276 22.6706 56.3357 23.7708 56.1834C24.2806 56.1125 24.8378 55.9593 25.3515 55.9944C25.8398 56.0277 26.2901 56.273 26.7825 56.3182C27.6519 56.3986 28.4908 56.158 29.212 55.6747C28.9587 55.6259 28.7048 55.5762 28.4515 55.5274C28.9269 56.3523 29.6438 57.2338 30.7074 57.072C31.1986 56.9967 31.5899 56.6886 31.9729 56.396C32.1778 56.2392 32.4153 56.0444 32.6865 56.0235C32.9131 56.007 33.1239 56.0876 33.3596 56.0665C33.4958 56.0543 33.6601 55.9431 33.6739 55.793C33.7716 54.7114 32.4407 54.834 31.7886 55.1928C31.3854 55.4138 30.9443 55.9935 30.4621 55.9973C29.9329 56.0008 29.585 55.3024 29.3602 54.9122C29.2121 54.6549 28.8316 54.6087 28.5997 54.7649C28.1594 55.0604 27.6831 55.2331 27.1483 55.2409C26.6408 55.2479 26.2168 55.0316 25.7294 54.9457C24.7066 54.7656 23.4924 55.123 22.4769 55.2653C21.906 55.3456 21.3353 55.4294 20.7636 55.5054C20.3411 55.5615 19.8513 55.6598 19.4374 55.5167C19.0091 55.3683 18.7695 54.9428 18.367 54.7428C18.0195 54.5696 17.6167 54.5483 17.2444 54.6478C16.3633 54.8831 15.8597 55.7407 15.0163 56.0114C14.4163 56.2042 14.3666 55.7818 14.0684 55.3917C13.8596 55.1183 13.5718 54.9126 13.2569 54.7813C11.7706 54.1647 9.78884 55.2684 9.27884 56.7403C9.17344 57.0413 9.44084 57.2793 9.72614 57.1348Z" fill="#253529"/>
<path d="M36.7201 55.9493C36.9926 56.2543 37.1775 56.6273 37.466 56.93C37.6373 57.1096 37.9419 57.0501 38.0962 56.8885C38.7115 56.2429 39.8084 56.2755 40.6288 56.1317C41.619 55.9585 42.6398 55.6652 43.6413 55.5896C44.0254 55.5608 44.3151 55.7916 44.6931 55.8004C45.1351 55.8102 45.5814 55.5924 46.0058 55.493C46.2745 55.4298 48.6229 55.0405 48.6638 55.4026C48.7139 55.845 49.1427 56.0056 49.5111 55.818C50.1682 55.482 50.8253 55.1459 51.4829 54.8107C51.2019 54.6729 50.9217 54.5352 50.6403 54.398C50.6767 55.3083 51.4689 55.9235 52.3399 55.9812C53.4209 56.0539 54.2459 55.2265 54.9129 54.4834C54.6019 54.3774 54.2899 54.2714 53.9779 54.1654C54.1229 55.1462 54.9849 55.5613 55.9089 55.5687C56.3999 55.5725 56.8509 55.4216 57.3189 55.2935C57.6109 55.2132 57.9269 55.1231 58.2339 55.1372C58.5079 55.1495 58.7569 55.2784 59.0279 55.3215C59.3169 55.3677 59.6349 55.0854 59.5029 54.7802C59.1319 53.9221 58.0919 54.0171 57.3239 54.1967C56.8959 54.2963 55.1669 54.9449 55.0439 54.0965C54.9799 53.6466 54.4349 53.4174 54.1089 53.7785C53.7379 54.1902 53.3289 54.6869 52.7799 54.859C52.3579 54.9916 51.7379 54.8491 51.7199 54.3265C51.7039 53.8755 51.2209 53.7389 50.877 53.9138C50.2187 54.2483 49.5603 54.5828 48.9014 54.9164C49.1841 55.0551 49.4661 55.1931 49.7487 55.3318C49.6289 54.2457 48.4454 54.1766 47.5748 54.1973C46.9615 54.2117 46.3535 54.2981 45.7553 54.4312C45.462 54.4971 45.1219 54.664 44.8238 54.688C44.5604 54.7092 44.3079 54.5457 44.0518 54.508C43.4524 54.4179 42.7704 54.6568 42.1869 54.7697C41.5449 54.8938 40.9004 55.0098 40.2595 55.1433C39.2958 55.3441 38.0723 55.4631 37.4253 56.2992C37.6035 56.2645 37.7825 56.2292 37.9601 56.1937C37.6024 56.0057 37.2035 55.9358 36.8461 55.7627C36.7218 55.7023 36.6383 55.8572 36.7201 55.9493Z" fill="#253529"/>
<path d="M35.3364 74.7531C35.0904 75.1581 34.8452 75.5631 34.6071 75.9731C34.4717 76.2071 34.8073 76.4001 34.9811 76.2251C36.7608 74.4241 38.2011 72.2611 39.6461 70.1916C41.0797 68.1385 42.4577 66.0463 43.7821 63.921C43.9695 63.6195 43.6619 63.3102 43.3713 63.303C41.4832 63.2547 40.0855 64.6681 39.0933 66.1209C37.8473 67.9446 36.8417 69.9715 35.8429 71.9373C33.7084 76.1391 31.8899 80.4911 30.3721 84.9521C30.2233 85.3891 30.8485 85.7801 31.196 85.5031C36.0131 81.6701 37.7431 75.1781 42.7071 71.5156C42.429 71.329 42.1515 71.1431 41.8727 70.9571C41.4117 73.9274 40.9304 76.8941 40.4555 79.8611C40.3629 80.4411 41.0564 80.7871 41.4623 80.3631C43.4404 78.2981 45.0594 75.9381 46.6695 73.5853C46.3291 73.4699 45.9894 73.354 45.649 73.2387C45.7851 74.0801 45.9207 74.9211 46.0539 75.7641C46.1359 76.2811 46.6971 76.4721 47.0765 76.1111C48.8655 74.4071 50.8766 72.9555 53.0448 71.774C54.1038 71.1961 55.2018 70.6908 56.3278 70.2567C57.5058 69.8028 58.7088 69.4481 59.8508 68.9099C60.1978 68.7466 60.1298 68.2143 59.7128 68.227C57.1918 68.3018 54.6488 69.5455 52.4638 70.7271C50.1724 71.9665 48.0753 73.5361 46.1988 75.3411C46.5393 75.4561 46.8804 75.5721 47.2208 75.6871C47.0838 74.8461 46.9476 74.0051 46.8128 73.1635C46.7433 72.7286 46.1093 72.3564 45.7923 72.8169C44.1765 75.1691 42.5429 77.5101 40.5871 79.5961C40.9232 79.7621 41.2586 79.9301 41.5947 80.0971C42.0377 77.1231 42.4758 74.1471 42.9334 71.1762C43.0016 70.7344 42.4996 70.3216 42.099 70.6178C37.1147 74.3011 35.4041 80.7851 30.5951 84.6161C30.87 84.8001 31.1442 84.9841 31.419 85.1681C32.8043 81.0031 34.4685 76.9321 36.4001 72.9912C37.3381 71.0777 38.3225 69.175 39.4054 67.3387C40.2785 65.8582 41.5191 64.1172 43.4283 64.1568C43.2909 63.9507 43.155 63.7448 43.0176 63.5388C41.6796 65.7101 40.286 67.8474 38.8306 69.9427C37.4343 71.9542 35.8723 73.8765 34.6077 75.9741C34.7498 76.0231 34.8918 76.0731 35.0325 76.1211C35.1646 75.6761 35.2862 75.2281 35.4095 74.7781C35.4215 74.7341 35.358 74.7171 35.3364 74.7531Z" fill="#253529"/>
</g>
<defs>
<clipPath id="clip0_98_1598">
<rect width="69" height="112" fill="white"/>
</clipPath>
</defs>
</svg>
