<svg width="111" height="173" viewBox="0 0 111 173" fill="none" xmlns="http://www.w3.org/2000/svg">
<g clip-path="url(#clip0_98_848)">
<path d="M108.024 27.6738C106.713 23.5502 107.509 18.7921 107.544 17.5384C107.581 16.2846 108.933 14.6406 108.933 14.6406L99.0926 14.2359C99.0926 14.2359 15.5732 11.8987 13.5694 11.84C11.5647 11.781 6.73303 12.2363 5.88541 13.5485C5.03642 14.8612 3.41545 17.5808 3.34205 20.2211C3.26855 22.8613 6.51059 25.1539 8.03824 25.1984C9.566 25.243 16.0787 24.6074 16.0787 24.6074L35.8255 25.4753L66.8392 26.6857L84.592 27.2067C84.592 27.2067 100.716 27.9207 101.575 27.9459C102.434 27.9707 108.024 27.6738 108.024 27.6738Z" fill="#E2DEBC"/>
<path d="M105.17 171.943L108.512 74.4928C108.512 74.4928 111.283 27.9007 110.202 27.8908C109.122 27.8803 72.2858 26.6264 72.2858 26.6264C72.2858 26.6264 11.9473 25.216 10.805 25.1824C9.66273 25.1487 4.70075 23.446 4.70075 23.446L0.991946 110.286L0.30957 167.803L36.7707 169.274L98.1177 172.209C98.1177 172.209 107.346 172.007 105.17 171.943Z" fill="#6AA378"/>
<path d="M84.7475 116.857L84.4137 105.299C84.4137 105.299 49.1349 103.504 47.1149 103.726C45.0948 103.947 22.7122 105.028 22.7057 105.248C22.6994 105.468 21.6626 115.2 21.6626 115.2L51.7952 117.104L84.7475 116.857Z" fill="#23685B"/>
<path d="M83.9225 95.537L86.0327 54.2597L85.2226 49.0593C85.2226 49.0593 77.4325 47.5474 74.7591 47.469C72.0866 47.3906 41.7625 45.5214 39.6628 45.4596C37.563 45.3979 27.1505 45.3858 26.2679 46.2404C25.3839 47.0956 25.3839 47.0956 25.3839 47.0956L24.0986 93.034L53.7763 94.65L83.9225 95.537Z" fill="#F49425"/>
<path d="M28.7167 19.5912L28.7699 1.14709L25.1562 5.78369C25.1562 5.78369 21.5199 -0.653209 21.4831 0.654591C21.4463 1.96239 20.2914 5.89759 20.2914 5.89759L19.998 19.5022C19.998 19.5022 29.7507 19.6212 28.7167 19.5912Z" fill="#F49425"/>
<path d="M108.984 27.9938C106.938 26.92 104.649 26.8204 102.377 26.6995C100.04 26.5752 97.7038 26.4503 95.3651 26.3535C90.6214 26.1582 85.8776 26.0336 81.131 25.9091C71.7392 25.662 62.3454 25.4442 52.9555 25.1281C43.5073 24.81 34.0616 24.5194 24.6083 24.3928C19.9248 24.3302 15.2054 24.1755 10.5244 24.3878C8.60029 24.4746 6.87888 24.9837 5.60656 26.5488C4.11238 28.3882 4.43868 31.0374 4.42922 33.2683C4.40813 38.646 4.30145 44.0235 4.22551 49.4001C4.14772 54.8744 4.00336 60.4127 4.88563 65.8348C5.06279 66.9231 6.79415 66.9025 7.00176 65.8441C7.8816 61.3578 8.04968 56.7102 8.13011 52.1472C8.21347 47.4324 8.29624 42.7163 8.37969 38.0015C8.42098 35.6846 8.48071 33.3685 8.5507 31.0531C8.56407 30.6144 8.58418 30.1826 8.63513 29.7467C8.63982 29.7057 8.87105 29.1325 8.62283 29.3825C9.00633 28.9958 10.3393 29.0673 10.8438 29.0582C15.4229 28.9689 20.0105 29.0198 24.5895 29.0631C42.7089 29.2316 60.8305 29.5805 78.9475 29.9235C84.0114 30.0196 89.0753 30.1381 94.1392 30.1585C96.7199 30.1687 99.2997 30.1583 101.879 30.1385C104.306 30.1197 106.745 30.1723 108.979 29.1279C109.41 28.9255 109.389 28.2062 108.984 27.9938Z" fill="#CCE2CF"/>
<path d="M104.211 170.846C104.655 168.114 99.7802 167.795 98.0379 167.566C94.9056 167.155 91.6651 167.456 88.5143 167.488C81.7159 167.556 74.9136 167.313 68.125 166.95C54.4414 166.219 40.77 165.167 27.097 164.267C19.4048 163.762 11.7119 163.255 4.01965 162.749C1.22914 162.565 1.21948 167.022 4.00178 167.202C17.6054 168.084 31.2098 168.965 44.8134 169.847C58.2198 170.716 71.6584 171.692 85.1 171.533C88.69 171.49 92.2673 171.229 95.8554 171.15C97.5781 171.112 99.2892 171.058 100.991 171.387C101.75 171.535 103.993 172.19 104.211 170.846Z" fill="#CCE2CF"/>
<path d="M3.72285 165.971C4.56813 161.837 5.41966 157.61 5.80307 153.385C6.18969 149.119 6.13151 144.834 6.13649 140.556C6.14674 131.808 6.11092 123.06 6.08066 114.311C6.07236 111.923 6.14821 109.515 6.00248 107.131C5.92693 105.893 5.88662 104.644 5.71024 103.416C5.52918 102.155 4.99536 100.964 4.70342 99.721C4.51552 98.924 3.30177 98.903 3.1168 99.714C2.88518 100.725 2.49583 101.679 2.25347 102.683C2.00408 103.713 1.98778 104.819 1.92882 105.877C1.80388 108.106 1.81462 110.328 1.81999 112.562C1.8315 116.936 1.84224 121.309 1.85376 125.684C1.87543 134.346 2.17606 143.038 1.99393 151.698C1.94503 154.036 1.70911 156.337 1.43629 158.656C1.29486 159.86 1.22312 161.084 1.20887 162.297C1.19296 163.67 1.39754 164.704 1.87241 165.963C2.1788 166.779 3.50831 167.017 3.72285 165.971Z" fill="#CCE2CF"/>
<path d="M105.303 171.944C105.857 167.267 105.992 162.541 106.208 157.837C106.424 153.135 106.635 148.433 106.843 143.729C107.259 134.325 107.616 124.919 107.974 115.513C108.688 96.798 109.355 78.083 110.038 59.3669C110.231 54.0879 110.424 48.8093 110.617 43.5307C110.712 40.9395 110.806 38.3479 110.901 35.7566C110.999 33.0788 111.244 30.365 111.023 27.694C110.972 27.074 109.984 26.8091 109.871 27.5292C109.506 29.8657 109.512 32.2352 109.425 34.5986C109.341 36.902 109.257 39.2054 109.173 41.5091C109.002 46.212 108.83 50.9148 108.658 55.6176C108.315 65.0233 107.972 74.4293 107.628 83.834C106.941 102.645 106.244 121.455 105.663 140.268C105.5 145.547 105.351 150.826 105.209 156.105C105.066 161.376 104.798 166.672 105.037 171.942C105.044 172.122 105.282 172.116 105.303 171.944Z" fill="#253529"/>
<path d="M0.498689 167.858C0.920354 165.577 0.83768 163.262 0.869793 160.945C0.901808 158.658 0.930212 156.371 0.962227 154.084C1.0286 149.415 1.09751 144.745 1.17316 140.077C1.32455 130.736 1.49146 121.397 1.71449 112.057C2.16085 93.3731 2.77705 74.6918 3.55254 56.0175C3.98826 45.5329 4.53145 35.0539 5.02964 24.5723C5.08127 23.4895 3.45415 23.4908 3.39207 24.5652C2.3057 43.2246 1.57911 61.9159 0.991706 80.5981C0.405181 99.2721 -0.0189238 117.956 -0.16924 136.64C-0.21082 141.881 -0.240004 147.123 -0.237661 152.364C-0.2361 154.937 -0.235514 157.51 -0.220385 160.083C-0.206036 162.675 -0.346984 165.303 0.117238 167.856C0.152084 168.05 0.463355 168.052 0.498689 167.858Z" fill="#253529"/>
<path d="M106.189 171.713C105.77 171.757 105.351 171.813 104.932 171.776C104.531 171.742 104.186 171.654 103.785 171.676C102.902 171.728 102.015 171.712 101.132 171.722C99.5115 171.741 97.8922 171.666 96.2738 171.587C92.8673 171.419 89.4618 171.248 86.0563 171.079C79.1554 170.736 72.2536 170.419 65.3517 170.096C51.5488 169.452 37.7464 168.814 23.9426 168.185C16.1486 167.83 8.35314 167.476 0.559068 167.121C-0.269524 167.083 -0.273425 168.404 0.55419 168.441C14.4379 169.071 28.3228 169.7 42.2065 170.33C56.0077 170.956 69.8114 171.584 83.6161 172.153C87.5135 172.313 91.411 172.474 95.3085 172.634C97.1699 172.711 99.0322 172.8 100.896 172.772C101.83 172.758 102.741 172.667 103.667 172.545C104.528 172.432 105.359 172.031 106.199 171.788C106.239 171.778 106.233 171.709 106.189 171.713Z" fill="#253529"/>
<path d="M28.6414 12.8978C39.2303 13.11 49.8193 13.3609 60.4068 13.6379C71.0939 13.9173 81.78 14.2229 92.4641 14.5429C98.4963 14.7226 104.528 14.9077 110.56 15.0946C111.16 15.1129 111.189 14.1134 110.588 14.0947C99.9126 13.7642 89.2372 13.4401 78.5599 13.1358C67.8992 12.8313 57.2375 12.5461 46.5756 12.2925C40.6071 12.1503 34.6387 12.0189 28.6692 11.8988C28.0692 11.8868 28.0401 12.8863 28.6414 12.8978Z" fill="#253529"/>
<path d="M110.216 27.3916C101.066 27.3123 91.9188 27.0951 82.7729 26.8026C73.5392 26.5077 64.3075 26.1379 55.0758 25.7582C45.9221 25.3825 36.7688 24.9961 27.6139 24.6646C25.3608 24.5828 23.1081 24.5054 20.8553 24.4312C18.7954 24.3635 16.6838 24.156 14.6255 24.2783C11.6927 24.4529 8.07993 25.6253 5.52124 23.5569C2.50106 21.1164 4.07528 16.788 6.05593 14.233C6.31957 13.8937 6.60107 13.5679 6.89682 13.2573C7.28559 12.848 7.7586 12.6844 8.28344 12.5163C9.23355 12.2121 10.2222 12.0491 11.2148 11.9881C13.1773 11.8681 15.1424 12.0872 17.0909 12.3179C18.063 12.433 19.0357 12.5525 20.0105 12.6408C20.6086 12.6949 20.6355 11.6956 20.0386 11.6409C16.0748 11.2818 11.8699 10.2855 7.96943 11.5748C7.57685 11.7044 7.09047 11.8393 6.73987 12.0698C6.37267 12.311 6.05632 12.742 5.7717 13.0762C5.18508 13.7658 4.65643 14.5132 4.21534 15.3086C3.39105 16.7945 2.79701 18.5295 2.90408 20.2602C3.00735 21.9337 3.78548 23.4453 5.09596 24.4589C6.40078 25.4683 8.07631 25.7533 9.67386 25.7362C11.281 25.7186 12.8591 25.3988 14.4583 25.2872C16.5603 25.1401 18.724 25.3616 20.8285 25.4305C30.3209 25.7414 39.8109 26.1294 49.3008 26.5206C58.8912 26.9166 68.4812 27.3158 78.0741 27.6465C87.5898 27.9748 97.1076 28.2358 106.628 28.3532C107.816 28.3683 109.004 28.3801 110.191 28.3907C110.788 28.3963 110.818 27.3967 110.216 27.3916Z" fill="#253529"/>
<path d="M109.639 14.8803C109.617 14.5395 109.466 14.2751 109.103 14.262C108.642 14.2445 108.331 14.6548 108.089 14.9984C107.315 16.1011 106.962 17.4974 106.763 18.8211C106.537 20.3256 106.545 21.8664 106.713 23.3769C106.802 24.1763 106.922 24.9729 107.064 25.7638C107.191 26.4743 107.212 27.4377 107.783 27.935C107.947 28.0767 108.241 28.0939 108.352 27.8621C108.592 27.3576 108.488 26.9006 108.382 26.3689C108.261 25.7526 108.148 25.1351 108.05 24.5141C107.863 23.3181 107.733 22.1049 107.725 20.892C107.719 19.8144 107.802 18.7235 108.032 17.6698C108.145 17.1542 108.297 16.6521 108.486 16.1606C108.518 16.0787 109.122 14.6901 109.268 14.9811C109.357 15.157 109.65 15.0808 109.639 14.8803Z" fill="#253529"/>
<path d="M34.1159 20.3226C30.9405 19.8841 27.7737 19.4703 24.573 19.2775C21.3868 19.0851 18.207 19.261 15.0274 19.0647C14.7313 19.0468 14.6803 19.5052 14.9564 19.5858C16.4091 20.013 18.0601 19.7248 19.5484 19.6813C21.1793 19.6334 22.8215 19.6283 24.4513 19.6987C27.6761 19.8377 30.8984 20.133 34.115 20.4014C34.1657 20.4051 34.1635 20.3294 34.1159 20.3226Z" fill="#253529"/>
<path d="M28.3146 0.679872C28.1477 3.81977 28.2801 6.96367 28.2834 10.1067C28.2849 11.638 28.2811 13.1693 28.2597 14.7003C28.2397 16.1569 28.3997 17.7787 28.0498 19.1872C27.9724 19.4973 28.2469 19.802 28.5585 19.7135C29.14 19.5472 29.1929 18.9709 29.211 18.4292C29.2394 17.561 29.254 16.6906 29.2617 15.8218C29.2766 14.1257 29.2613 12.4264 29.2124 10.7302C29.116 7.36488 29.0071 3.98297 28.4105 0.665872C28.4008 0.607572 28.3174 0.624272 28.3146 0.679872Z" fill="#253529"/>
<path d="M28.3482 0.653641C27.581 1.10384 27.2387 2.18474 26.774 2.91744C26.2018 3.81904 25.5372 4.65154 24.7943 5.41084C25.0624 5.44774 25.3301 5.48344 25.5983 5.52044C24.5756 3.61214 23.316 1.85554 21.8489 0.28134C21.6256 0.0415403 21.1931 0.0872415 21.0369 0.384741C19.6362 3.05954 19.6965 6.39794 19.5501 9.35324C19.3833 12.7326 19.3596 16.1175 19.4673 19.5C19.49 20.1967 20.5498 20.2047 20.5264 19.5046C20.4188 16.2879 20.4316 13.0678 20.5729 9.85274C20.64 8.31714 20.7274 6.77984 20.8629 5.24834C20.9952 3.75624 21.2296 2.25894 21.9263 0.92334C21.6555 0.95814 21.3847 0.99284 21.1143 1.02674C22.5259 2.53654 23.7259 4.21434 24.7103 6.04564C24.8698 6.34194 25.2848 6.39114 25.5143 6.15524C26.2928 5.35634 26.9919 4.48164 27.5733 3.52154C28.0389 2.75284 28.7749 1.66574 28.5029 0.718041C28.4848 0.651141 28.4087 0.617241 28.3482 0.653641Z" fill="#253529"/>
<path d="M99.1082 158.497C99.1053 158.485 99.1024 158.473 99.1004 158.462C99.0565 158.27 98.8838 158.166 98.7051 158.151C98.5841 158.137 98.5734 158.138 98.671 158.154C98.5899 158.106 98.5021 158.081 98.4084 158.08C98.262 158.066 98.1127 158.093 97.9672 158.115C97.7369 158.148 97.5133 158.21 97.2927 158.281C96.8027 158.441 96.3264 158.656 95.8882 158.931C94.9863 159.497 94.2181 160.26 93.6207 161.152C93.0488 162.005 92.6505 163.001 92.5041 164.026C92.4251 164.57 92.3421 165.168 92.5666 165.686C92.8086 166.244 93.5456 166.639 94.0141 166.081C94.3694 165.656 94.0346 165.042 93.4909 165.151C93.5251 165.147 93.5593 165.142 93.5924 165.138C93.6803 165.192 93.7691 165.245 93.857 165.298C93.6247 165.111 93.7027 164.741 93.7262 164.457C93.7584 164.077 93.8433 163.701 93.9565 163.337C94.1781 162.62 94.5451 161.934 95.0146 161.355C95.5046 160.751 96.0863 160.239 96.7549 159.853C97.0858 159.662 97.4245 159.492 97.7857 159.37C97.9584 159.31 98.1331 159.26 98.3088 159.207C98.4162 159.175 98.5246 159.147 98.6251 159.092C98.6817 159.07 98.7305 159.037 98.7735 158.99C98.6866 159.021 98.6993 159.017 98.8115 158.978C98.995 158.917 99.1024 158.767 99.1161 158.573C99.118 158.548 99.1161 158.522 99.1082 158.497Z" fill="#253529"/>
<path d="M98.7933 158.222C99.2549 156.389 99.3604 154.491 99.499 152.606C99.6366 150.714 99.7615 148.821 99.8738 146.927C100.1 143.098 100.278 139.268 100.417 135.435C100.695 127.846 100.843 120.253 100.967 112.661C101.215 97.4749 101.137 82.2879 101.751 67.1087C102.098 58.5342 102.716 49.9915 103.542 41.4528C103.628 40.5643 102.29 40.5739 102.193 41.4468C100.537 56.5149 100.164 71.7454 99.9646 86.8949C99.7664 102.082 99.8894 117.277 99.459 132.46C99.3379 136.747 99.1661 141.033 98.9377 145.316C98.8235 147.457 98.6957 149.597 98.5492 151.736C98.4038 153.867 98.1481 156.017 98.3062 158.15C98.3267 158.425 98.7191 158.515 98.7933 158.222Z" fill="#253529"/>
<path d="M102.436 40.3584C102.367 40.861 101.226 39.9694 101.075 39.8237C100.487 39.2621 99.9918 38.5968 99.6004 37.8796C98.8136 36.4395 98.4613 34.807 98.5764 33.1629C98.6009 32.8237 98.2563 32.4436 97.9156 32.4802C87.6434 33.5603 77.2297 33.6523 66.9535 32.5564C64.3581 32.2794 61.7745 31.9 59.1791 31.6316C56.61 31.3658 54.0351 31.2741 51.4545 31.2617C46.1909 31.2345 40.9254 31.3027 35.6618 31.3289C32.7434 31.3434 29.8238 31.3584 26.9054 31.3729C25.4053 31.3808 23.9054 31.3877 22.4053 31.3956C20.9055 31.4025 19.394 31.3396 17.9055 31.5275C17.0522 31.6351 17.0309 32.8024 17.9002 32.9021C19.2326 33.0568 20.5736 32.9966 21.9136 32.9896C23.2111 32.982 24.5086 32.9744 25.8057 32.9678C28.4411 32.9534 31.076 32.9377 33.7114 32.9234C38.9387 32.8937 44.1655 32.8565 49.3937 32.8357C52.0137 32.8248 54.6364 32.8399 57.2523 33.0061C59.8184 33.1692 62.3689 33.5155 64.9252 33.7912C70.0848 34.3493 75.2697 34.6751 80.4585 34.7204C86.2886 34.7722 92.1158 34.4755 97.9127 33.8407C97.6921 33.6127 97.4725 33.3847 97.2519 33.158C97.0967 35.5052 97.8708 37.8141 99.3437 39.612C99.9313 40.3283 100.777 41.2566 101.719 41.422C102.349 41.5325 103.247 41.1627 102.99 40.3622C102.908 40.1154 102.479 40.0479 102.436 40.3584Z" fill="#253529"/>
<path d="M17.4928 31.6546C17.4999 31.6017 17.5295 31.5726 17.5814 31.565C17.5203 31.5017 17.4598 31.4396 17.3987 31.3763C17.1688 31.6922 17.1703 32.1923 17.0323 32.559C16.8913 32.931 16.6645 33.2866 16.4262 33.6026C15.9338 34.255 15.28 34.7964 14.5241 35.0949C13.7196 35.412 12.9643 35.3427 12.1241 35.3164C11.2447 35.2888 10.153 35.4288 9.97201 36.4859C9.90417 36.883 10.2991 37.3191 10.6914 37.0578C11.3459 36.6214 12.1011 36.7024 12.8884 36.7274C13.8233 36.7573 14.7448 36.519 15.5662 36.0609C16.3742 35.6105 17.0954 34.938 17.5824 34.1369C17.8195 33.7478 17.9936 33.3117 18.1228 32.8731C18.2517 32.4355 18.4308 31.8281 18.1608 31.4214C18.0099 31.1947 17.6435 31.0736 17.4412 31.3233C17.3369 31.4528 17.1962 31.6323 17.4044 31.7465C17.4592 31.7763 17.5263 31.7136 17.4928 31.6546Z" fill="#253529"/>
<path d="M10.3509 36.3743C10.0034 38.2159 9.95645 40.0664 9.86802 41.936C9.78203 43.7649 9.69701 45.5941 9.62654 47.4237C9.48022 51.2069 9.3426 54.9892 9.23113 58.7742C9.01073 66.2586 8.81805 73.7442 8.6529 81.2291C8.32308 96.2421 8.10395 111.257 8.00352 126.274C7.9469 134.676 7.91967 143.079 7.92982 151.482C7.93051 152.286 9.14962 152.292 9.14865 151.487C9.13479 136.511 9.23669 121.536 9.44977 106.562C9.66187 91.5871 9.987 76.6154 10.4235 61.6471C10.5447 57.4893 10.6669 53.3319 10.7832 49.1733C10.8419 47.0942 10.8979 45.0163 10.9469 42.9377C10.9979 40.7721 11.1375 38.6069 10.8964 36.4518C10.8644 36.1634 10.416 36.0296 10.3509 36.3743Z" fill="#253529"/>
<path d="M13.193 162.723C15.5031 161.888 15.3388 158.537 14.5327 156.644C13.4776 154.167 11.0561 152.68 8.70153 151.734C7.90622 151.415 7.55649 152.728 8.3436 153.043C10.304 153.831 12.349 155.037 13.3537 157.016C13.7976 157.892 13.972 158.9 13.8866 159.88C13.8457 160.351 13.7186 160.832 13.5623 161.276C13.4058 161.718 13.2611 162.176 13.0813 162.608C13.0542 162.672 13.1316 162.745 13.193 162.723Z" fill="#253529"/>
<path d="M93.174 165.831C92.6654 165.571 92.1647 165.289 91.62 165.113C90.9866 164.908 90.2994 164.813 89.6474 164.688C88.4 164.449 87.1467 164.249 85.8885 164.081C83.3361 163.742 80.7661 163.563 78.1931 163.541C75.5655 163.518 72.9418 163.667 70.3162 163.756C67.7491 163.843 65.1801 163.843 62.612 163.769C52.2549 163.466 41.9686 162.063 31.6247 161.537C25.88 161.244 19.979 161.08 14.2643 161.875C13.6809 161.956 13.8104 162.976 14.4 162.935C16.9548 162.757 19.4984 162.542 22.0604 162.487C24.6172 162.431 27.1752 162.468 29.7309 162.567C34.8622 162.765 39.9801 163.211 45.0953 163.658C50.2165 164.106 55.3403 164.558 60.4783 164.762C63.0405 164.864 65.6066 164.905 68.1718 164.856C70.7564 164.806 73.3391 164.641 75.9238 164.576C78.7778 164.505 81.6299 164.601 84.4713 164.889C85.9656 165.041 87.4542 165.246 88.9349 165.504C89.6386 165.627 90.3375 165.768 91.0383 165.901C91.7343 166.033 92.4214 166.017 93.1261 166.021C93.2179 166.02 93.2647 165.877 93.174 165.831Z" fill="#253529"/>
<path d="M60.004 139.649C57.8908 140.4 55.8128 141.316 53.764 142.236C51.7288 143.15 49.711 144.179 47.563 144.794C43.899 145.843 38.7507 145.521 36.1954 142.21C35.0825 140.767 34.9444 138.895 35.8904 137.326C36.8467 135.74 38.5356 134.764 40.3005 134.464C42.4896 134.094 44.7092 134.592 46.8319 135.122C48.9477 135.65 51.0599 136.225 53.1071 136.992C55.191 137.774 57.15 138.802 58.9879 140.078C60.7312 141.288 62.3642 142.651 64.046 143.945C67.2856 146.439 70.9663 148.779 75.1322 148.978C78.7427 149.151 82.362 147.432 84.1287 144.116C84.8979 142.672 85.2385 141 84.9164 139.375C84.5816 137.689 83.5245 136.264 82.2029 135.245C79.02 132.792 74.7028 132.837 71.0132 133.833C66.7604 134.983 62.822 137.236 58.8884 139.196C57.842 139.717 56.8015 140.239 55.7757 140.804C55.1978 141.122 55.6995 141.948 56.2764 141.69C60.4374 139.822 64.3886 137.437 68.6482 135.796C72.3914 134.353 76.896 133.437 80.5934 135.517C82.1151 136.372 83.4143 137.728 83.8232 139.5C84.2098 141.178 83.6719 142.91 82.7339 144.295C80.4138 147.72 76.0907 148.463 72.3738 147.37C68.2382 146.154 64.94 143.207 61.5706 140.61C59.8801 139.307 58.1329 138.079 56.2247 137.133C54.2881 136.174 52.2471 135.458 50.1787 134.861C46.4263 133.777 41.8436 132.273 38.0823 134.066C35.1047 135.485 33.1113 139.139 35.0781 142.238C37.1052 145.434 41.4646 146.458 44.9456 146.165C47.0333 145.989 48.9929 145.28 50.8983 144.421C52.9665 143.489 54.9811 142.44 56.9977 141.399C58.0265 140.868 59.0484 140.342 60.045 139.748C60.0948 139.719 60.0626 139.628 60.004 139.649Z" fill="#253529"/>
<path d="M46.4877 139.252C44.3747 140.003 42.2968 140.919 40.2477 141.839C38.2122 142.753 36.1947 143.782 34.0467 144.397C30.3826 145.446 25.2344 145.124 22.679 141.813C21.5662 140.37 21.4281 138.498 22.3741 136.929C23.3304 135.343 25.0193 134.367 26.7842 134.068C28.9733 133.697 31.1929 134.195 33.3155 134.725C35.4315 135.253 37.5436 135.828 39.5905 136.595C41.6749 137.377 43.6339 138.405 45.4713 139.681C47.2135 140.891 48.8475 142.254 50.5301 143.548C53.7705 146.042 57.4503 148.382 61.6152 148.581C65.2267 148.754 68.846 147.035 70.6127 143.719C71.3818 142.275 71.7225 140.603 71.3994 138.978C71.0656 137.292 70.0085 135.868 68.6869 134.848C65.5039 132.395 61.1867 132.44 57.4971 133.437C53.2444 134.586 49.3054 136.839 45.3724 138.799C44.3262 139.32 43.2848 139.842 42.2589 140.407C41.6818 140.725 42.1836 141.551 42.7597 141.293C46.9216 139.425 50.8722 137.04 55.1311 135.399C58.8744 133.956 63.379 133.04 67.0783 135.119C68.6 135.974 69.8992 137.33 70.3082 139.102C70.6947 140.78 70.1569 142.512 69.2179 143.897C66.8977 147.322 62.5747 148.065 58.8578 146.972C54.7222 145.756 51.4242 142.809 48.0548 140.213C46.3639 138.91 44.6172 137.681 42.7085 136.735C40.7725 135.776 38.7311 135.061 36.6628 134.463C32.9104 133.379 28.3277 131.875 24.5664 133.668C21.5878 135.087 19.5953 138.741 21.5621 141.841C23.5892 145.036 27.9486 146.06 31.4297 145.767C33.5173 145.591 35.477 144.882 37.3824 144.023C39.4504 143.091 41.4651 142.042 43.4816 141.002C44.5106 140.47 45.5328 139.944 46.5295 139.351C46.5788 139.322 46.5457 139.231 46.4877 139.252Z" fill="#253529"/>
<path d="M84.8282 116.395C84.9024 114.904 85.1054 113.433 85.2138 111.946C85.3163 110.51 85.2899 109.056 85.3163 107.618C85.3339 106.659 85.5017 105.425 84.4603 104.96C83.982 104.745 83.4188 104.757 82.9054 104.718C82.1401 104.661 81.3729 104.606 80.6077 104.553C74.9611 104.161 69.3057 103.881 63.6484 103.713C52.2117 103.372 40.7624 103.487 29.3355 104.057C27.7612 104.135 26.1863 104.221 24.6123 104.318C23.4249 104.392 22.284 104.625 21.9662 105.975C21.8092 106.644 21.8047 107.363 21.7464 108.044C21.6768 108.854 21.6074 109.664 21.5387 110.475C21.4015 112.095 21.2646 113.715 21.1274 115.336C21.1041 115.61 21.3626 115.811 21.6023 115.827C30.147 116.385 38.7006 116.843 47.2586 117.109C55.8573 117.377 64.4614 117.478 73.0636 117.415C75.4579 117.397 77.8513 117.367 80.2456 117.325C81.7946 117.298 84.1284 117.598 84.8497 115.79C85.1142 115.125 84.062 114.83 83.8004 115.488C83.5496 116.118 82.5872 116.154 82.0328 116.175C80.9932 116.215 79.9508 116.217 78.9113 116.234C76.842 116.267 74.7727 116.292 72.7024 116.307C68.5639 116.338 64.4243 116.331 60.2858 116.286C52.0487 116.199 43.8137 115.98 35.5837 115.624C30.9216 115.422 26.2622 115.164 21.6052 114.847C21.7639 115.01 21.9215 115.174 22.0801 115.337C22.3131 112.664 22.5461 109.991 22.7751 107.317C22.8182 106.811 22.781 106.07 23.1551 105.677C23.5731 105.24 24.4259 105.319 24.9694 105.287C26.3009 105.207 27.6336 105.133 28.9656 105.066C34.2955 104.796 39.6301 104.626 44.9659 104.554C55.6387 104.411 66.315 104.665 76.9699 105.313C78.4232 105.401 79.8747 105.498 81.3271 105.601C82.0796 105.654 82.839 105.685 83.5886 105.768C83.9234 105.805 84.1987 105.85 84.3285 106.205C84.4232 106.464 84.3685 106.849 84.3685 107.117C84.3666 108.641 84.3422 110.168 84.3851 111.692C84.431 113.261 84.6408 114.82 84.6896 116.392C84.6936 116.485 84.8243 116.486 84.8282 116.395Z" fill="#253529"/>
<path d="M83.0793 93.026C82.9231 93.323 83.0519 93.656 83.3721 93.77C83.8562 93.942 84.1295 93.466 84.2164 93.059C84.3872 92.266 84.3774 91.391 84.4399 90.584C84.516 89.589 84.5893 88.593 84.6634 87.597C84.9358 83.863 85.1808 80.127 85.4004 76.3893C85.8445 68.8315 86.2632 61.2669 86.5063 53.6983C86.5697 51.7068 86.4721 48.663 84.4116 47.6569C83.8572 47.3866 83.2628 47.3866 82.6605 47.3491C81.6874 47.289 80.7142 47.2248 79.7411 47.1682C77.9558 47.0653 76.1706 46.9697 74.3863 46.8703C67.0033 46.4592 59.6212 46.0481 52.2382 45.637C48.5869 45.4338 44.937 45.2332 41.2853 45.0373C37.7691 44.848 34.214 44.5238 30.6965 44.8367C29.092 44.9795 27.4886 45.252 25.9554 45.7658C25.3701 45.9617 24.7885 46.1847 24.521 46.7962C24.1969 47.5355 24.324 48.6204 24.2912 49.4131C24.1373 53.1463 23.9844 56.8799 23.8521 60.6141C23.5856 68.1661 23.3955 75.7211 23.2821 83.277C23.2536 85.145 23.2295 87.013 23.2102 88.882C23.1972 90.151 22.9148 91.972 24.1453 92.784C24.6705 93.131 25.3035 93.198 25.9102 93.254C26.8763 93.343 27.8452 93.416 28.8124 93.494C30.6261 93.64 32.441 93.781 34.2564 93.914C48.8974 94.988 63.5675 95.634 78.2438 95.839C79.9226 95.863 81.6825 95.728 83.3496 95.93C84.0641 96.017 84.0631 94.868 83.3545 94.782C81.7264 94.584 80.0095 94.723 78.3697 94.704C76.6313 94.684 74.8919 94.657 73.1545 94.625C69.7588 94.562 66.363 94.474 62.9692 94.364C56.0986 94.141 49.2317 93.824 42.3706 93.405C38.9401 93.195 35.5109 92.963 32.0836 92.706C30.3496 92.575 28.6166 92.439 26.8828 92.297C26.2322 92.244 25.401 92.304 24.8054 91.981C24.1115 91.605 24.2003 90.695 24.2055 90.008C24.2533 82.95 24.3877 75.8921 24.5798 68.8363C24.6746 65.3497 24.7857 61.8641 24.9127 58.3782C24.978 56.5937 25.0472 54.8096 25.1205 53.0261C25.1565 52.1544 25.1983 51.2839 25.2392 50.4131C25.282 49.5119 25.2593 48.5704 25.3728 47.6753C25.4346 47.1849 25.5465 47.0209 26.0088 46.8499C26.3594 46.721 26.7241 46.6212 27.0836 46.5246C27.8765 46.3122 28.6828 46.1509 29.4942 46.0377C31.0824 45.8149 32.6931 45.7708 34.2937 45.7935C37.6776 45.8414 41.0648 46.111 44.4441 46.2983C51.2987 46.6782 58.1552 47.0364 65.0101 47.4037C68.4576 47.5888 71.9061 47.773 75.3546 47.9581C77.0579 48.0497 78.7611 48.1488 80.4653 48.2277C81.2765 48.2651 82.0876 48.3038 82.8997 48.3425C83.5048 48.3706 84.0114 48.4063 84.4682 48.8534C85.2491 49.6181 85.4863 50.9055 85.5751 51.9604C85.6981 53.4408 85.5605 54.9573 85.5136 56.44C85.4053 59.9321 85.3116 63.4245 85.1827 66.916C84.9211 73.9812 84.478 81.043 83.9899 88.095C83.9333 88.925 83.8738 89.755 83.8143 90.584C83.7537 91.424 83.8445 92.536 83.5039 93.285C83.6386 92.993 83.2325 92.733 83.0793 93.026Z" fill="#253529"/>
</g>
<defs>
<clipPath id="clip0_98_848">
<rect width="111" height="173" fill="white"/>
</clipPath>
</defs>
</svg>
