<svg width="112" height="169" viewBox="0 0 112 169" fill="none" xmlns="http://www.w3.org/2000/svg">
<g clip-path="url(#clip0_98_1019)">
<path d="M108.15 24.0329C106.648 19.9644 107.28 15.1776 107.268 13.9239C107.256 12.6702 108.577 10.9738 108.577 10.9738L98.487 10.9587C98.487 10.9587 12.8944 11.9274 10.8405 11.9477C8.7867 11.9681 3.8569 12.6137 3.0396 13.9591C2.2211 15.3038 0.666804 18.0863 0.693704 20.7271C0.719604 23.3681 4.128 25.5308 5.6925 25.5151C7.2581 25.4992 13.9014 24.6067 13.9014 24.6067L34.1505 24.6922L65.9481 24.6746L84.143 24.4936C84.143 24.4936 100.677 24.5687 101.558 24.5604C102.438 24.551 108.15 24.0329 108.15 24.0329Z" fill="#E2DEBC"/>
<path d="M110.799 168.307L110.458 70.7978C110.458 70.7978 111.494 24.1305 110.389 24.1631C109.283 24.1958 71.5232 24.3996 71.5232 24.3996C71.5232 24.3996 9.69761 25.3773 8.52641 25.3889C7.35531 25.4004 2.20951 23.896 2.20951 23.896L1.76611 110.818L3.28821 168.318L40.6738 168.345L103.59 168.852C103.59 168.852 113.03 168.286 110.799 168.307Z" fill="#23685B"/>
<path d="M87.7642 114.07L86.9762 102.534C86.9762 102.534 50.7903 102.137 48.7306 102.438C46.6718 102.739 23.7982 104.705 23.801 104.925C23.8029 105.145 23.1177 114.911 23.1177 114.911L54.0393 115.622L87.7642 114.07Z" fill="#6AA378"/>
<path d="M86.0972 92.7991L86.6632 51.4695L85.6332 46.3059C85.6332 46.3059 77.6002 45.1034 74.8602 45.1305C72.1212 45.1574 41.0045 44.4901 38.8519 44.5115C36.6992 44.533 26.0404 44.9322 25.1683 45.8223C24.2969 46.7112 24.2969 46.7112 24.2969 46.7112L24.7555 92.6661L55.1993 93.1081L86.0972 92.7991Z" fill="#6AA378"/>
<path d="M26.6473 19.0941L25.9898 0.661178L22.4691 5.43758C22.4691 5.43758 18.4976 -0.849922 18.511 0.457778C18.5243 1.76538 17.4932 5.74348 17.4932 5.74348L17.7186 19.3503C17.7186 19.3503 27.7073 19.0832 26.6473 19.0941Z" fill="#F49425"/>
<path d="M109.146 24.3143C107.011 23.3219 104.662 23.3127 102.332 23.2831C99.9351 23.2514 97.5381 23.2184 95.1401 23.2152C90.2761 23.2078 85.4141 23.2715 80.5501 23.3335C70.9261 23.4584 61.3005 23.6112 51.6756 23.6678C41.9906 23.7247 32.31 23.8073 22.6277 24.0546C17.8303 24.1774 12.9926 24.2094 8.20845 24.6072C6.24255 24.7707 4.49925 25.3464 3.25775 26.9608C1.79935 28.8583 2.23535 31.4917 2.31265 33.7216C2.49925 39.0961 2.59745 44.4736 2.72715 49.8497C2.85865 55.3234 2.92525 60.8628 4.03785 66.246C4.26135 67.3261 6.03345 67.2377 6.20505 66.1714C6.93205 61.654 6.92555 57.003 6.83125 52.4408C6.73475 47.7257 6.63735 43.0109 6.54075 38.2949C6.49335 35.9781 6.46535 33.6613 6.44755 31.3445C6.44425 30.906 6.44825 30.4731 6.48295 30.0359C6.48675 29.9953 6.70085 29.4135 6.45655 29.6727C6.83475 29.2713 8.20125 29.2907 8.71705 29.2611C13.401 28.9903 18.0999 28.8605 22.7899 28.7223C41.3454 28.1741 59.912 27.8055 78.4721 27.431C83.6601 27.3261 88.8481 27.2448 94.034 27.0648C96.676 26.9733 99.316 26.8607 101.956 26.7389C104.439 26.6243 106.939 26.5796 109.185 25.448C109.618 25.2282 109.568 24.5114 109.146 24.3143Z" fill="#CCE2CF"/>
<path d="M109.775 167.25C110.124 164.502 105.121 164.376 103.329 164.217C100.106 163.93 96.8012 164.359 93.5772 164.515C86.6202 164.852 79.6472 164.878 72.6842 164.784C58.6478 164.596 44.6102 164.085 30.5778 163.727C22.6826 163.525 14.7886 163.324 6.89334 163.123C4.02964 163.05 4.19114 167.503 7.04724 167.574C21.0079 167.916 34.9687 168.258 48.9295 168.601C62.688 168.938 76.4842 169.383 90.2382 168.691C93.9112 168.507 97.5642 168.104 101.233 167.883C102.996 167.777 104.746 167.656 106.501 167.917C107.282 168.034 109.604 168.601 109.775 167.25Z" fill="#CCE2CF"/>
<path d="M6.71287 166.353C7.41837 162.189 8.12767 157.931 8.35647 153.695C8.58817 149.418 8.36237 145.138 8.20217 140.863C7.87447 132.121 7.50027 123.381 7.13097 114.64C7.03027 112.254 7.01487 109.845 6.77307 107.468C6.64747 106.235 6.55787 104.988 6.33087 103.767C6.09707 102.515 5.50367 101.345 5.15707 100.115C4.93477 99.3261 3.69047 99.3531 3.53247 100.171C3.33477 101.19 2.97237 102.159 2.76287 103.171C2.54687 104.211 2.57347 105.316 2.55337 106.375C2.51187 108.608 2.60837 110.827 2.70047 113.059C2.88057 117.429 3.06157 121.799 3.24167 126.17C3.59937 134.825 4.24167 143.499 4.38997 152.159C4.42947 154.497 4.27717 156.806 4.08777 159.133C3.98977 160.342 3.96367 161.568 3.99617 162.781C4.03317 164.153 4.28187 165.178 4.81637 166.418C5.16427 167.222 6.53467 167.407 6.71287 166.353Z" fill="#CCE2CF"/>
<path d="M110.935 168.303C111.321 163.607 111.278 158.88 111.317 154.17C111.357 149.463 111.391 144.755 111.422 140.048C111.485 130.635 111.486 121.221 111.491 111.808C111.499 93.0791 111.458 74.3507 111.436 55.6224C111.429 50.3404 111.423 45.058 111.416 39.776C111.413 37.1823 111.41 34.5898 111.407 31.9961C111.404 29.3167 111.55 26.595 111.222 23.9341C111.145 23.3167 110.123 23.091 110.037 23.8148C109.754 26.1645 109.85 28.5313 109.854 30.8961C109.857 33.2007 109.86 35.5063 109.862 37.8111C109.868 42.5174 109.873 47.2237 109.879 51.929C109.891 61.3416 109.902 70.7532 109.914 80.1656C109.938 98.9881 109.95 117.812 110.081 136.635C110.118 141.916 110.17 147.197 110.227 152.478C110.284 157.751 110.215 163.053 110.663 168.31C110.678 168.492 110.922 168.475 110.935 168.303Z" fill="#253529"/>
<path d="M3.48574 168.366C3.82974 166.07 3.65504 163.76 3.59864 161.444C3.54314 159.158 3.48384 156.872 3.42844 154.585C3.31504 149.917 3.20584 145.248 3.10274 140.579C2.89694 131.24 2.70654 121.9 2.57414 112.56C2.30974 93.8709 2.21844 75.1791 2.29194 56.4891C2.33354 45.9951 2.48374 35.503 2.58964 25.0089C2.60024 23.9251 0.934744 23.9904 0.912244 25.0664C0.520844 43.7551 0.498643 62.4609 0.619443 81.1524C0.739743 99.8359 1.02704 118.522 1.59494 137.198C1.75444 142.437 1.92694 147.675 2.13304 152.913C2.23434 155.484 2.33444 158.054 2.44794 160.625C2.56324 163.215 2.51964 165.846 3.09314 168.379C3.13734 168.572 3.45594 168.562 3.48574 168.366Z" fill="#253529"/>
<path d="M111.834 168.037C111.407 168.098 110.981 168.171 110.55 168.151C110.138 168.132 109.781 168.057 109.371 168.097C108.47 168.183 107.561 168.202 106.657 168.247C104.999 168.33 103.338 168.319 101.679 168.303C98.1862 168.27 94.6931 168.234 91.2001 168.2C84.1221 168.131 77.0441 168.086 69.966 168.038C55.8109 167.94 41.6552 167.848 27.5005 167.767C19.5068 167.72 11.5143 167.675 3.52055 167.628C2.67075 167.623 2.71835 168.943 3.56595 168.948C17.8041 169.027 32.0422 169.108 46.2803 169.187C60.4346 169.267 74.5891 169.348 88.7431 169.371C92.7391 169.377 96.7361 169.383 100.732 169.39C102.64 169.392 104.55 169.409 106.457 169.307C107.412 169.255 108.343 169.128 109.285 168.97C110.162 168.823 110.998 168.39 111.848 168.114C111.887 168.101 111.878 168.031 111.834 168.037Z" fill="#253529"/>
<path d="M26.312 12.4084C37.1609 12.2015 48.0106 12.0333 58.8596 11.8907C69.8105 11.7474 80.762 11.6296 91.714 11.5269C97.896 11.4687 104.079 11.4145 110.26 11.3626C110.875 11.3574 110.867 10.3572 110.251 10.3626C99.3091 10.4551 88.367 10.5536 77.425 10.6715C66.4993 10.7892 55.5734 10.9252 44.6481 11.0938C38.5324 11.1882 32.4167 11.2928 26.3015 11.4096C25.687 11.4209 25.6957 12.421 26.312 12.4084Z" fill="#253529"/>
<path d="M110.383 23.6641C101.013 23.9467 91.6388 24.0911 82.2648 24.161C72.7998 24.2314 63.3341 24.2274 53.8694 24.214C44.4843 24.2004 35.0991 24.1766 25.713 24.2072C23.4031 24.2143 21.094 24.2254 18.7848 24.2406C16.6735 24.2545 14.5038 24.1304 12.4014 24.3345C9.40479 24.6253 5.75289 25.9399 3.05249 23.9743C-0.133111 21.6549 1.31029 17.2674 3.24019 14.6357C3.49639 14.2862 3.77279 13.95 4.06319 13.6271C4.44479 13.2026 4.92369 13.0203 5.45459 12.8324C6.41609 12.4906 7.42109 12.2889 8.43489 12.1885C10.4395 11.9904 12.4597 12.1323 14.4628 12.2859C15.4634 12.3629 16.4627 12.4433 17.4639 12.4936C18.078 12.5243 18.0673 11.5246 17.4542 11.4937C13.382 11.2921 9.03909 10.4614 5.09539 11.9051C4.69849 12.0498 4.20569 12.2044 3.85489 12.4478C3.48809 12.7028 3.18099 13.1466 2.90329 13.4913C2.32929 14.204 1.81669 14.9714 1.39629 15.7839C0.609589 17.3017 0.06879 19.0585 0.24549 20.7837C0.41649 22.4518 1.27159 23.9318 2.65199 24.893C4.02639 25.8493 5.75309 26.0685 7.38799 25.9882C9.03189 25.907 10.6358 25.5257 12.2692 25.3496C14.4152 25.1191 16.6394 25.2554 18.7957 25.2413C28.5252 25.1772 38.2553 25.1896 47.986 25.2049C57.8188 25.2204 67.6525 25.2399 77.4848 25.1911C87.2398 25.1423 96.9928 25.0262 106.744 24.7676C107.96 24.7355 109.178 24.701 110.394 24.6639C111.008 24.6455 110.999 23.6454 110.383 23.6641Z" fill="#253529"/>
<path d="M109.31 11.1854C109.275 10.8464 109.109 10.5878 108.737 10.5884C108.265 10.5894 107.962 11.011 107.729 11.3638C106.979 12.4959 106.672 13.906 106.518 15.2361C106.343 16.7483 106.413 18.2883 106.644 19.7909C106.766 20.5866 106.919 21.377 107.095 22.1627C107.253 22.8683 107.311 23.8297 107.916 24.3035C108.089 24.4391 108.391 24.4446 108.495 24.2085C108.722 23.6947 108.597 23.2426 108.469 22.7156C108.322 22.1048 108.181 21.4917 108.057 20.876C107.818 19.6877 107.639 18.4809 107.584 17.2697C107.535 16.1932 107.579 15.0995 107.774 14.0386C107.87 13.5181 108.006 13.0119 108.18 12.512C108.208 12.4285 108.774 11.0178 108.934 11.3022C109.032 11.4729 109.33 11.3855 109.31 11.1854Z" fill="#253529"/>
<path d="M32.204 19.6113C28.937 19.2985 25.6783 19.0106 22.3941 18.9444C19.1252 18.8782 15.8766 19.1795 12.614 19.109C12.3093 19.1028 12.2761 19.5622 12.5614 19.6326C14.0651 20.0024 15.7442 19.6483 17.2661 19.5455C18.9331 19.4329 20.6151 19.3632 22.2863 19.3693C25.5928 19.3807 28.9032 19.5486 32.207 19.6893C32.2574 19.6911 32.2519 19.6156 32.204 19.6113Z" fill="#253529"/>
<path d="M25.5052 0.212469C25.4561 3.35727 25.7125 6.49267 25.8371 9.63297C25.8976 11.1627 25.9532 12.6934 25.9906 14.2249C26.0267 15.681 26.253 17.2957 25.9489 18.7173C25.8822 19.0305 26.1751 19.324 26.4901 19.2228C27.08 19.0338 27.1109 18.4554 27.1086 17.9136C27.1048 17.0452 27.0854 16.1749 27.06 15.3059C27.0098 13.6096 26.928 11.9138 26.8131 10.2207C26.5849 6.86187 26.343 3.48647 25.604 0.195969C25.5918 0.137269 25.506 0.157169 25.5052 0.212469Z" fill="#253529"/>
<path d="M25.5387 0.18492C24.7704 0.66532 24.4624 1.75882 24.0146 2.50862C23.463 3.43222 22.815 4.29002 22.0843 5.07922C22.3605 5.10562 22.6354 5.13112 22.9113 5.15652C21.7912 3.29042 20.4338 1.58492 18.8709 0.0703212C18.633 -0.160079 18.1924 -0.0981791 18.0443 0.206321C16.7137 2.93522 16.9037 6.26722 16.8692 9.22712C16.8288 12.6102 16.9346 15.9944 17.1763 19.3688C17.2259 20.0643 18.3115 20.0297 18.2604 19.3315C18.0264 16.1219 17.9151 12.9032 17.9357 9.68472C17.9451 8.14762 17.9755 6.60822 18.0548 5.07302C18.1329 3.57682 18.3144 2.07142 18.9771 0.709022C18.7015 0.754022 18.4261 0.800121 18.1505 0.845121C19.6537 2.29862 20.9472 3.92752 22.0262 5.71842C22.2007 6.00792 22.6273 6.04082 22.8532 5.79572C23.6195 4.96652 24.3013 4.06492 24.8591 3.08282C25.3055 2.29652 26.0173 1.18032 25.7023 0.244922C25.6791 0.177222 25.6002 0.14662 25.5387 0.18492Z" fill="#253529"/>
<path d="M104.075 155.112C104.072 155.1 104.068 155.088 104.066 155.077C104.013 154.887 103.832 154.789 103.649 154.781C103.525 154.772 103.514 154.774 103.615 154.787C103.529 154.741 103.439 154.72 103.344 154.723C103.193 154.714 103.042 154.748 102.893 154.775C102.659 154.818 102.432 154.887 102.208 154.968C101.713 155.147 101.234 155.381 100.796 155.674C99.8939 156.275 99.1379 157.068 98.5599 157.983C98.0079 158.858 97.6389 159.869 97.5269 160.899C97.4679 161.446 97.4059 162.047 97.6559 162.556C97.9249 163.103 98.6939 163.469 99.1519 162.893C99.4999 162.454 99.1329 161.854 98.5809 161.985C98.6159 161.98 98.6499 161.974 98.6849 161.969C98.7769 162.019 98.8699 162.068 98.9619 162.118C98.7169 161.94 98.7809 161.568 98.7949 161.282C98.8129 160.9 98.8869 160.522 98.9879 160.154C99.1869 159.43 99.5359 158.729 99.9949 158.132C100.474 157.51 101.048 156.975 101.717 156.563C102.049 156.358 102.39 156.176 102.754 156.039C102.929 155.973 103.107 155.915 103.283 155.855C103.392 155.818 103.503 155.786 103.603 155.727C103.66 155.703 103.71 155.668 103.751 155.618C103.663 155.653 103.676 155.649 103.79 155.606C103.975 155.538 104.079 155.384 104.085 155.189C104.087 155.162 104.084 155.136 104.075 155.112Z" fill="#253529"/>
<path d="M103.741 154.849C104.144 152.998 104.178 151.098 104.246 149.209C104.314 147.314 104.369 145.417 104.411 143.521C104.495 139.686 104.528 135.85 104.524 132.015C104.514 124.421 104.373 116.829 104.206 109.237C103.874 94.053 103.207 78.8803 103.25 63.6888C103.274 55.1073 103.577 46.5467 104.093 37.9815C104.147 37.0899 102.777 37.153 102.712 38.0296C101.598 53.1526 101.804 68.3864 102.186 83.533C102.568 98.716 103.282 113.895 103.427 129.084C103.469 133.372 103.459 137.662 103.391 141.951C103.357 144.094 103.308 146.238 103.241 148.381C103.174 150.517 102.997 152.676 103.241 154.801C103.271 155.07 103.677 155.145 103.741 154.849Z" fill="#253529"/>
<path d="M102.919 36.9293C102.868 37.4343 101.667 36.5881 101.506 36.4488C100.882 35.9117 100.35 35.2653 99.9201 34.5641C99.0591 33.1569 98.6351 31.5393 98.6911 29.8915C98.7031 29.5509 98.3351 29.1862 97.9871 29.2349C87.5121 30.7204 76.8551 31.2235 66.293 30.5353C63.6258 30.3614 60.9657 30.0839 58.2982 29.9182C55.6585 29.7539 53.0176 29.7655 50.3753 29.854C44.9855 30.0355 39.598 30.3115 34.2101 30.5468C31.2222 30.6775 28.2351 30.807 25.2469 30.9368C23.7114 31.0036 22.1759 31.0705 20.6414 31.1371C19.1068 31.2038 17.5566 31.2001 16.0391 31.4471C15.1698 31.5889 15.1925 32.7547 16.0867 32.8211C17.457 32.9224 18.8269 32.8103 20.1981 32.749C21.526 32.6906 22.8537 32.6312 24.1816 32.5728C26.8787 32.4535 29.5759 32.3342 32.2732 32.2158C37.623 31.9793 42.9733 31.7355 48.324 31.508C51.0059 31.3939 53.6919 31.3045 56.3759 31.3677C59.0095 31.4291 61.6342 31.6741 64.2618 31.8491C69.5658 32.2032 74.8861 32.3231 80.1991 32.1637C86.1701 31.9841 92.1241 31.4585 98.0341 30.5948C97.8001 30.376 97.5651 30.1571 97.3311 29.9382C97.2621 32.2894 98.1441 34.5666 99.7201 36.3042C100.349 36.9967 101.252 37.8907 102.222 38.0189C102.871 38.1046 103.777 37.6999 103.483 36.9092C103.394 36.6673 102.951 36.6172 102.919 36.9293Z" fill="#253529"/>
<path d="M15.623 31.5928C15.6283 31.5396 15.6567 31.5092 15.71 31.5001C15.6454 31.44 15.5806 31.3789 15.516 31.3188C15.2923 31.6431 15.3135 32.1432 15.1867 32.5159C15.0568 32.8932 14.8373 33.2575 14.6065 33.5822C14.1281 34.2536 13.4789 34.8206 12.7167 35.1485C11.9048 35.498 11.1295 35.458 10.2678 35.4644C9.36624 35.471 8.25424 35.6541 8.10964 36.7178C8.05584 37.1171 8.47734 37.5382 8.86804 37.2609C9.52154 36.7982 10.2972 36.8494 11.1038 36.8432C12.0624 36.836 12.996 36.5612 13.8196 36.0714C14.6293 35.5886 15.3418 34.8889 15.8099 34.0695C16.0375 33.6709 16.1989 33.2288 16.3141 32.7851C16.4294 32.3424 16.5897 31.7279 16.2973 31.3331C16.134 31.1127 15.7543 31.0058 15.5566 31.2634C15.4546 31.3969 15.3173 31.5817 15.5354 31.6876C15.5933 31.7154 15.6595 31.6505 15.623 31.5928Z" fill="#253529"/>
<path d="M8.49309 36.5921C8.20829 38.4458 8.2314 40.2968 8.2139 42.1685C8.1961 43.9995 8.1803 45.83 8.1789 47.6616C8.1762 51.4473 8.18049 55.2328 8.21269 59.0194C8.27569 66.5073 8.36799 73.9941 8.48779 81.4803C8.72919 96.4951 9.08539 111.508 9.56259 126.518C9.82909 134.916 10.126 143.314 10.4605 151.71C10.4927 152.513 11.7405 152.473 11.7089 151.667C11.1167 136.704 10.643 121.735 10.2822 106.764C9.92129 91.7931 9.67519 76.8191 9.54439 61.8444C9.50829 57.6848 9.47229 53.5262 9.43099 49.3666C9.41049 47.2872 9.38799 45.2083 9.35729 43.1291C9.32589 40.9631 9.38589 38.7945 9.05559 36.6498C9.01089 36.3609 8.54629 36.2439 8.49309 36.5921Z" fill="#253529"/>
<path d="M16.2826 162.733C18.615 161.807 18.3178 158.466 17.4186 156.606C16.2428 154.172 13.7059 152.782 11.2593 151.93C10.4334 151.642 10.1257 152.968 10.9439 153.253C12.9809 153.962 15.1215 155.087 16.226 157.025C16.7145 157.882 16.9318 158.883 16.8818 159.866C16.8582 160.338 16.747 160.825 16.6033 161.273C16.4605 161.722 16.3291 162.185 16.1627 162.623C16.1383 162.688 16.2214 162.758 16.2826 162.733Z" fill="#253529"/>
<path d="M98.2832 162.674C97.7532 162.434 97.2292 162.172 96.6642 162.018C96.0072 161.838 95.3002 161.77 94.6282 161.671C93.3432 161.482 92.0512 161.331 90.7572 161.214C88.1322 160.976 85.4932 160.9 82.8582 160.979C80.1672 161.06 77.4872 161.312 74.8032 161.505C72.1772 161.693 69.5479 161.795 66.9152 161.821C56.3009 161.928 45.716 160.933 35.1063 160.817C29.2139 160.752 23.1664 160.821 17.3463 161.842C16.7521 161.946 16.9239 162.959 17.5264 162.895C20.1353 162.617 22.7306 162.302 25.3514 162.144C27.967 161.987 30.5869 161.923 33.2071 161.92C38.4682 161.916 43.7245 162.158 48.9781 162.402C54.238 162.647 59.5008 162.896 64.7681 162.897C67.3961 162.897 70.0242 162.837 72.6482 162.685C75.2932 162.532 77.9292 162.266 80.5732 162.099C83.4922 161.914 86.4162 161.898 89.3352 162.073C90.8712 162.166 92.4032 162.311 93.9282 162.511C94.6532 162.606 95.3742 162.719 96.0972 162.824C96.8152 162.927 97.5172 162.885 98.2382 162.861C98.3352 162.863 98.3772 162.717 98.2832 162.674Z" fill="#253529"/>
<path d="M63.3138 137.824C61.1798 138.658 59.0872 139.656 57.0254 140.656C54.9768 141.649 52.9509 142.758 50.7767 143.457C47.0658 144.65 41.7834 144.532 39.0392 141.325C37.844 139.928 37.6299 138.062 38.5392 136.457C39.4564 134.835 41.1476 133.792 42.9431 133.423C45.1695 132.965 47.4621 133.376 49.6546 133.822C51.8417 134.266 54.0261 134.756 56.1513 135.443C58.3159 136.142 60.3598 137.091 62.2908 138.293C64.1211 139.433 65.8469 140.729 67.6189 141.958C71.0321 144.321 74.8891 146.513 79.1611 146.548C82.8651 146.578 86.5031 144.717 88.1851 141.333C88.9171 139.86 89.2011 138.176 88.8081 136.565C88.4001 134.892 87.2631 133.512 85.8711 132.546C82.5181 130.221 78.1011 130.436 74.3611 131.578C70.0521 132.895 66.106 135.302 62.1555 137.416C61.104 137.979 60.0586 138.541 59.0302 139.146C58.4515 139.487 58.9978 140.293 59.5768 140.012C63.766 137.98 67.717 135.441 72.0151 133.633C75.7921 132.044 80.3671 130.949 84.2341 132.881C85.8251 133.676 87.2081 134.979 87.6951 136.733C88.1561 138.395 87.6721 140.147 86.7651 141.567C84.5221 145.081 80.1241 145.995 76.2771 145.05C71.9971 143.998 68.5062 141.185 64.9572 138.723C63.1755 137.488 61.3405 136.33 59.3498 135.46C57.33 134.578 55.2128 133.944 53.0732 133.429C49.1896 132.494 44.4404 131.172 40.6591 133.112C37.665 134.649 35.7664 138.379 37.8991 141.397C40.0985 144.51 44.5998 145.361 48.1526 144.931C50.2837 144.673 52.262 143.886 54.1791 142.952C56.2596 141.94 58.2814 140.812 60.306 139.692C61.3393 139.121 62.3643 138.553 63.3618 137.922C63.4104 137.891 63.3732 137.8 63.3138 137.824Z" fill="#253529"/>
<path d="M49.461 137.962C47.327 138.795 45.2344 139.794 43.1726 140.794C41.124 141.787 39.0981 142.896 36.9239 143.595C33.213 144.788 27.9306 144.67 25.1864 141.462C23.9912 140.065 23.7771 138.2 24.6864 136.594C25.6046 134.973 27.2948 133.93 29.0903 133.561C31.3167 133.103 33.6094 133.514 35.8018 133.959C37.989 134.404 40.1735 134.894 42.2986 135.58C44.4631 136.28 46.507 137.228 48.438 138.431C50.2684 139.571 51.9944 140.868 53.7661 142.095C57.1795 144.459 61.0363 146.651 65.3087 146.686C69.0123 146.716 72.6511 144.854 74.3321 141.471C75.0641 139.999 75.3481 138.315 74.9551 136.703C74.5471 135.031 73.4101 133.649 72.0181 132.683C68.6655 130.358 64.247 130.573 60.5082 131.716C56.1989 133.033 52.2532 135.44 48.3028 137.554C47.2513 138.117 46.2049 138.679 45.1774 139.284C44.5987 139.625 45.1448 140.43 45.7238 140.149C49.913 138.117 53.864 135.578 58.162 133.77C61.9387 132.181 66.5137 131.086 70.3811 133.017C71.9731 133.812 73.3541 135.114 73.8421 136.869C74.3021 138.531 73.8191 140.283 72.9121 141.704C70.6691 145.218 66.2712 146.132 62.4244 145.187C58.1438 144.135 54.6531 141.321 51.1042 138.86C49.3225 137.625 47.4875 136.467 45.4968 135.597C43.477 134.714 41.3598 134.081 39.2202 133.566C35.3368 132.631 30.5874 131.309 26.8051 133.249C23.8111 134.786 21.9124 138.516 24.0452 141.534C26.2445 144.647 30.746 145.499 34.2987 145.068C36.4298 144.81 38.408 144.023 40.3251 143.089C42.4056 142.076 44.4274 140.948 46.452 139.829C47.4854 139.258 48.5104 138.69 49.5078 138.059C49.5576 138.028 49.5206 137.939 49.461 137.962Z" fill="#253529"/>
<path d="M87.8302 113.606C87.8482 112.113 88.0002 110.635 88.0522 109.144C88.1022 107.706 88.0192 106.255 87.9902 104.816C87.9702 103.857 88.0952 102.617 87.0112 102.194C86.5122 101.999 85.9362 102.032 85.4102 102.014C84.6232 101.987 83.8372 101.962 83.0512 101.939C77.2542 101.771 71.4552 101.715 65.6569 101.771C53.9355 101.883 42.2188 102.45 30.5423 103.472C28.9332 103.612 27.3248 103.761 25.7166 103.92C24.5037 104.04 23.3442 104.319 23.0714 105.68C22.9358 106.355 22.9593 107.072 22.9258 107.756C22.8862 108.568 22.8456 109.381 22.8072 110.193C22.7292 111.818 22.6522 113.443 22.5742 115.068C22.561 115.343 22.8334 115.534 23.0798 115.54C31.8489 115.759 40.6229 115.879 49.3947 115.807C58.2082 115.734 67.0199 115.495 75.8242 115.092C78.2742 114.98 80.7242 114.855 83.1732 114.719C84.7572 114.631 87.1582 114.838 87.8262 113.002C88.0722 112.327 86.9822 112.074 86.7402 112.742C86.5082 113.382 85.5252 113.456 84.9582 113.499C83.8952 113.58 82.8292 113.623 81.7652 113.681C79.6482 113.797 77.5312 113.903 75.4122 114C71.1762 114.194 66.9384 114.35 62.7001 114.47C54.2641 114.709 45.8255 114.816 37.3865 114.785C32.6049 114.767 27.8261 114.694 23.0462 114.562C23.2146 114.719 23.3833 114.877 23.5518 115.034C23.6872 112.353 23.8214 109.672 23.9536 106.991C23.9782 106.485 23.9111 105.745 24.2801 105.338C24.6912 104.884 25.5671 104.931 26.1227 104.876C27.4832 104.744 28.8439 104.617 30.206 104.498C35.6523 104.017 41.1067 103.636 46.5675 103.353C57.4878 102.788 68.4284 102.619 79.3602 102.846C80.8512 102.877 82.3422 102.915 83.8322 102.962C84.6042 102.985 85.3842 102.985 86.1552 103.04C86.4992 103.064 86.7822 103.097 86.9282 103.447C87.0352 103.702 86.9942 104.089 87.0032 104.356C87.0612 105.88 87.0942 107.407 87.1982 108.928C87.3042 110.494 87.5802 112.044 87.6902 113.612C87.6952 113.701 87.8292 113.697 87.8302 113.606Z" fill="#253529"/>
<path d="M85.1371 90.323C84.9871 90.626 85.1321 90.954 85.4661 91.055C85.9661 91.207 86.2291 90.722 86.3031 90.311C86.4471 89.512 86.4041 88.639 86.4361 87.83C86.4761 86.832 86.5131 85.835 86.5491 84.837C86.6831 81.094 86.7901 77.351 86.8711 73.6072C87.0341 66.0366 87.1691 58.4616 87.1251 50.8891C87.1141 48.8968 86.8961 45.8585 84.7471 44.9355C84.1701 44.6868 83.5621 44.711 82.9441 44.6974C81.9451 44.6753 80.9471 44.6498 79.9471 44.6318C78.1161 44.5997 76.2851 44.5749 74.4541 44.5459C66.8801 44.4275 59.3056 44.3092 51.7319 44.1899C47.9865 44.1307 44.2409 44.0757 40.496 44.0237C36.8884 43.9737 33.2377 43.7907 29.6474 44.2417C28.01 44.4472 26.3804 44.7838 24.8296 45.3574C24.2378 45.5764 23.6515 45.8218 23.4008 46.4438C23.0974 47.1953 23.2696 48.2748 23.267 49.068C23.2531 52.805 23.2412 56.5416 23.2496 60.278C23.2688 67.8352 23.3664 75.3915 23.5414 82.947C23.5845 84.815 23.6325 86.683 23.6845 88.55C23.7204 89.818 23.5015 91.65 24.7926 92.412C25.3434 92.738 25.9945 92.779 26.6182 92.812C27.6113 92.863 28.6052 92.898 29.598 92.938C31.4611 93.012 33.324 93.08 35.1865 93.142C50.2165 93.636 65.2595 93.701 80.2921 93.325C82.0131 93.282 83.8081 93.078 85.5231 93.215C86.2591 93.273 86.2131 92.124 85.4841 92.067C83.8101 91.933 82.0571 92.139 80.3781 92.185C78.5981 92.233 76.8171 92.275 75.0361 92.313C71.5571 92.383 68.078 92.431 64.599 92.454C57.5576 92.503 50.5149 92.457 43.4748 92.311C39.9543 92.238 36.4349 92.141 32.9156 92.019C31.1359 91.958 29.3558 91.89 27.5756 91.817C26.907 91.789 26.0581 91.882 25.4373 91.583C24.7134 91.235 24.7679 90.323 24.7465 89.635C24.5232 82.579 24.3882 75.5213 24.3126 68.464C24.2752 64.9767 24.254 61.489 24.2502 58.0008C24.248 56.2159 24.2506 54.43 24.2564 52.6445C24.2591 51.7727 24.2688 50.9005 24.2775 50.0284C24.287 49.1256 24.2268 48.1872 24.3085 47.2878C24.3533 46.7954 24.4612 46.6269 24.9276 46.4381C25.2819 46.295 25.6515 46.1814 26.0156 46.071C26.8189 45.8274 27.6378 45.6348 28.4644 45.4885C30.0822 45.2034 31.7286 45.0951 33.3686 45.0545C36.8356 44.9682 40.3129 45.1035 43.7794 45.1573C50.8115 45.2656 57.8443 45.3524 64.877 45.4484C68.4138 45.4967 71.9511 45.5451 75.4881 45.5932C77.2361 45.6171 78.9841 45.6491 80.7321 45.6607C81.5641 45.6664 82.3961 45.6733 83.2281 45.6792C83.8491 45.6839 84.3691 45.6985 84.8541 46.1277C85.6821 46.8604 85.9761 48.1385 86.1071 49.1877C86.2911 50.6622 86.2071 52.1829 86.2171 53.6659C86.2411 57.1593 86.2811 60.6533 86.2831 64.1468C86.2891 71.2165 86.1071 78.2906 85.8811 85.357C85.8551 86.189 85.8261 87.02 85.7971 87.852C85.7671 88.693 85.9041 89.802 85.5841 90.563C85.7081 90.268 85.2831 90.025 85.1371 90.323Z" fill="#253529"/>
</g>
<defs>
<clipPath id="clip0_98_1019">
<rect width="112" height="169" fill="white"/>
</clipPath>
</defs>
</svg>
