<svg width="112" height="162" viewBox="0 0 112 162" fill="none" xmlns="http://www.w3.org/2000/svg">
<g clip-path="url(#clip0_98_1315)">
<path d="M108.617 160.901C108.647 159.313 111.338 16.5754 111.338 16.5754C111.338 16.5754 59.5339 15.8298 56.5344 16.3651C53.5337 16.9011 12.0578 15.049 12.0578 15.049L2.84374 13.8652L1.12744 158.754L108.617 160.901Z" fill="#23685B"/>
<path d="M97.1312 107.108L97.9412 27.0213C97.9412 27.0213 47.5737 26.2988 46.9218 26.2925C46.2698 26.2861 14.7346 23.8752 15.2439 24.3943C15.7532 24.9133 18.4387 105.278 18.4387 105.278L97.1312 107.108Z" fill="#96CCC4"/>
<path d="M97.5411 40.3507C97.5331 41.1537 77.4081 55.6904 74.0341 53.9601C70.6601 52.2298 67.7111 47.2433 64.0467 48.3802C60.3823 49.5172 52.4483 58.4368 49.2051 58.405C45.9621 58.3722 38.4981 55.9489 35.4091 53.5694C32.3201 51.1898 26.8928 46.1784 26.5011 46.1742C26.1094 46.1701 16.6327 54.2926 16.6327 54.2926L15.2427 24.395C15.2427 24.395 51.3592 25.9468 52.5316 26.0895C53.7043 26.2313 78.7441 26.7477 78.7441 26.7477L98.5501 27.5985L97.5411 40.3507Z" fill="#6AA378"/>
<path d="M95.7971 90.5731C89.1111 91.6141 85.0501 91.4601 83.1141 89.4841C81.1771 87.5081 80.8361 84.4211 80.8361 84.4211C80.8361 84.4211 77.0091 86.3091 75.1031 84.3641C73.1961 82.4181 70.5381 77.659 70.5381 77.659L96.6021 76.7019L95.7971 90.5731Z" fill="#96CCC4"/>
<path d="M33.0502 75.8198C38.1367 75.8713 43.2106 74.7942 41.5067 70.384C39.8028 65.9738 35.9154 63.4029 33.1598 65.032C30.4042 66.6612 28.3723 66.1509 28.968 69.2882C29.5629 72.4242 30.4098 75.7933 33.0502 75.8198Z" fill="#FFC33E"/>
<path d="M97.4759 148.292C97.4809 147.764 98.0449 136.708 98.0449 136.708C98.0449 136.708 42.6362 133.995 39.3125 133.765C35.9888 133.536 15.4097 133.302 15.4097 133.302L17.2163 147.87L97.4759 148.292Z" fill="#6AA378"/>
<path d="M108.867 16.5502C107.832 13.9627 108.949 8.5242 108.949 8.5242L55.9907 8.30941C55.9907 8.30941 6.07039 7.241 5.66359 7.6392C5.25679 8.0375 2.64199 9.19461 2.63069 10.2247C2.62049 11.255 1.59229 14.3232 1.59229 14.3232L21.622 16.0122L74.7292 16.6992L108.867 16.5502Z" fill="#E2DEBC"/>
<path d="M84.8539 13.057C84.5979 12.326 84.2729 0.349342 83.8669 1.26124C83.4609 2.17194 80.2319 4.35764 80.0339 4.25264C79.8369 4.14764 76.3909 1.13574 76.3909 1.13574L75.9829 12.968L84.8539 13.057Z" fill="#6AA378"/>
<path d="M107.356 105.668C109.414 100.574 109.555 94.6521 109.854 89.2071C110.162 83.5901 110.205 77.969 110.101 72.3458C109.999 66.7745 109.559 61.2158 109.497 55.6433C109.435 50.0429 109.715 44.4517 109.89 38.856C110.092 32.3888 110.295 25.9218 110.497 19.4537C110.536 18.2315 109.318 16.9787 108.07 17.0943C101.537 17.6984 95.0982 16.1056 88.5832 15.9761C81.8942 15.8431 75.2622 16.9255 68.5912 17.2126C61.842 17.5029 55.0625 16.8722 48.3292 16.485C41.5543 16.0957 34.7793 15.7064 28.0044 15.317C20.3209 14.8757 12.6366 14.4332 4.95311 13.9919C3.87991 13.9307 2.85951 14.8454 2.59851 15.8398C1.94461 18.3265 1.72831 20.8607 1.48821 23.4158C1.25641 25.8843 1.18461 28.2609 1.62291 30.7042C1.81831 31.7942 3.28701 31.5152 3.58751 30.676C4.38061 28.4571 4.83861 26.1761 5.41151 23.8898C5.98601 21.5967 6.78141 19.3722 7.37901 17.0859C6.59411 17.7018 5.80921 18.3178 5.02431 18.9338C18.6564 19.6969 32.2893 20.4613 45.9214 21.2245C52.6734 21.6029 59.4641 22.2137 66.2303 22.1308C72.8432 22.0498 79.3942 20.9689 86.0032 20.8065C93.4082 20.6244 100.746 22.5791 108.14 21.8834C107.331 21.0966 106.523 20.31 105.713 19.5241C105.378 30.7522 104.807 42.0058 105.008 53.2413C105.208 64.4569 106.654 75.5853 106.547 86.8161C106.517 89.9071 106.41 92.9971 106.293 96.0861C106.172 99.2861 105.943 102.381 106.412 105.556C106.492 106.1 107.148 106.185 107.356 105.668Z" fill="#CCE2CF"/>
<path d="M106.947 157.979C103.974 157.188 100.675 157.362 97.6142 157.2C94.4542 157.034 91.2952 156.862 88.1362 156.689C81.8212 156.343 75.5021 156.082 69.1861 155.761C56.5444 155.117 43.9202 154.326 31.2961 153.39C27.8065 153.131 24.3194 152.851 20.8291 152.6C17.201 152.339 13.5038 152.008 9.87525 152.388C8.00795 152.584 7.41035 155.356 9.45855 155.847C12.5433 156.587 15.7452 156.771 18.9013 156.97C22.1367 157.173 25.378 157.303 28.6166 157.452C34.9278 157.742 41.2404 158.018 47.5526 158.291C60.2687 158.843 72.9782 159.56 85.6942 160.129C89.1842 160.285 92.6762 160.388 96.1662 160.503C99.7042 160.62 103.489 161.137 106.983 160.508C108.312 160.272 108.114 158.289 106.947 157.979Z" fill="#CCE2CF"/>
<path d="M106.945 154.106C107.06 153.68 107.333 153.5 107.413 153.02C107.516 152.397 107.576 151.764 107.597 151.133C107.639 149.856 107.575 148.559 107.52 147.281C107.403 144.544 107.418 141.793 107.53 139.055C107.746 133.747 108.774 128.418 107.932 123.133C107.81 122.359 106.795 122.601 106.577 123.153C104.551 128.293 104.459 134.114 104.35 139.585C104.295 142.328 104.343 145.076 104.638 147.805C104.779 149.108 104.979 150.458 105.39 151.702C105.563 152.225 105.763 152.732 106.017 153.222C106.295 153.76 106.533 153.69 106.838 154.121C106.868 154.162 106.932 154.157 106.945 154.106Z" fill="#CCE2CF"/>
<path d="M108.753 160.899C109.234 156.213 109.285 151.485 109.419 146.778C109.553 142.072 109.682 137.366 109.808 132.661C110.061 123.251 110.251 113.84 110.444 104.427C110.828 85.7029 111.164 66.977 111.517 48.2521C111.616 42.9704 111.716 37.6887 111.816 32.4082C111.864 29.8155 111.914 27.2231 111.962 24.6304C112.013 21.9506 112.213 19.233 111.939 16.5668C111.875 15.9478 110.857 15.7016 110.756 16.4236C110.426 18.7674 110.476 21.1353 110.431 23.5C110.387 25.8043 110.344 28.1087 110.3 30.414C110.211 35.1189 110.123 39.8241 110.035 44.5303C109.857 53.9404 109.68 63.3515 109.502 72.7616C109.148 91.5819 108.782 110.401 108.535 129.223C108.466 134.504 108.412 139.785 108.363 145.066C108.314 150.339 108.138 155.639 108.481 160.903C108.492 161.082 108.736 161.071 108.753 160.899Z" fill="#253529"/>
<path d="M1.32395 158.804C1.71395 156.515 1.58535 154.202 1.57605 151.885C1.56655 149.599 1.55325 147.311 1.54365 145.024C1.52515 140.354 1.50854 135.685 1.50014 131.015C1.48204 121.674 1.47935 112.332 1.53445 102.99C1.64535 84.3 1.93015 65.6105 2.37895 46.9251C2.63085 36.4338 2.99185 25.9471 3.30925 15.4577C3.34205 14.3743 1.67555 14.4059 1.63105 15.4823C0.864845 34.1594 0.466547 52.8615 0.211547 71.5511C-0.0436531 90.233 -0.131256 108.921 0.0617438 127.604C0.115644 132.846 0.183147 138.087 0.283847 143.327C0.333047 145.9 0.381646 148.472 0.444446 151.044C0.507546 153.635 0.411847 156.265 0.934047 158.809C0.972347 159.002 1.29075 158.999 1.32395 158.804Z" fill="#253529"/>
<path d="M109.657 160.652C109.23 160.704 108.802 160.768 108.372 160.74C107.961 160.714 107.605 160.632 107.194 160.662C106.291 160.73 105.382 160.732 104.478 160.759C102.818 160.809 101.158 160.765 99.5001 160.715C96.0071 160.611 92.5161 160.506 89.0251 160.401C81.9501 160.189 74.8741 160.003 67.7991 159.812C53.6488 159.429 39.4981 159.054 25.3471 158.688C17.3566 158.481 9.36508 158.274 1.37448 158.067C0.525383 158.045 0.545582 159.366 1.39378 159.387C15.6274 159.752 29.8608 160.119 44.0952 160.485C58.2447 160.849 72.3951 161.215 86.5461 161.521C90.5411 161.608 94.5371 161.694 98.5311 161.781C100.439 161.822 102.349 161.876 104.257 161.813C105.213 161.781 106.146 161.673 107.091 161.534C107.969 161.404 108.815 160.988 109.67 160.729C109.709 160.716 109.702 160.646 109.657 160.652Z" fill="#253529"/>
<path d="M84.5378 8.85567C93.4158 9.26077 102.297 9.34907 111.18 9.04607C111.793 9.02527 111.805 8.02537 111.19 8.04567C102.307 8.34857 93.4258 8.26027 84.5478 7.85527C83.9328 7.82827 83.9228 8.82777 84.5378 8.85567Z" fill="#253529"/>
<path d="M111.107 16.3074C98.4009 15.8851 85.6869 16.0514 72.9779 16.2223C60.3148 16.392 47.6452 16.5613 34.9851 16.1278C28.677 15.9119 22.3736 15.5456 16.0893 14.9584C12.8954 14.6596 9.70631 14.3043 6.52671 13.8823C5.79131 13.7849 5.05501 13.6833 4.32031 13.5789C3.95221 13.526 3.58501 13.4733 3.21711 13.4195C3.06691 13.3974 2.63691 13.4311 2.51491 13.2964C2.36261 13.1264 2.54161 12.6867 2.59891 12.5113C2.76411 12.0032 3.01591 11.524 3.26361 11.053C3.51661 10.5731 3.78411 10.1009 4.04251 9.62427C4.32651 9.09847 4.68021 8.81377 5.23131 8.58057C6.22081 8.16007 7.34321 8.13566 8.40211 8.17986C9.37111 8.22116 10.3308 8.35706 11.2963 8.42846C12.6414 8.52776 14.0076 8.47667 15.3552 8.48387C21.5915 8.51687 27.8276 8.47657 34.0637 8.43227C46.5814 8.34257 59.1033 8.22817 71.6179 8.61797C73.1489 8.66587 74.6799 8.72197 76.2099 8.78517C76.8239 8.81097 76.8349 7.81077 76.2199 7.78477C63.315 7.24767 50.3958 7.31427 37.4837 7.40637C31.0286 7.45267 24.5738 7.50616 18.1182 7.49256C15.4489 7.48676 12.757 7.57947 10.0983 7.31247C8.11121 7.11337 5.72661 6.87987 4.01421 8.13807C3.19101 8.74237 2.74661 9.94656 2.29171 10.842C1.91841 11.5763 1.38431 12.5375 1.54571 13.3963C1.73481 14.396 2.76951 14.3558 3.57401 14.4735C5.20601 14.7116 6.84041 14.9317 8.47701 15.1349C14.9126 15.9331 21.3798 16.4691 27.8557 16.8177C40.8699 17.517 53.9081 17.4606 66.936 17.3016C80.0489 17.1421 93.1639 16.8802 106.276 17.1743C107.884 17.2103 109.491 17.2546 111.098 17.3081C111.711 17.3285 111.721 16.3281 111.107 16.3074Z" fill="#253529"/>
<path d="M110.233 8.72997C110.184 8.23427 109.663 8.11728 109.249 8.26838C108.689 8.47278 108.255 9.05578 107.969 9.55128C107.267 10.7692 107.139 12.2011 107.339 13.5696C107.452 14.343 107.672 15.0927 107.925 15.8303C108.037 16.1528 108.125 16.5904 108.374 16.8371C108.59 17.052 108.934 17.1565 109.172 16.9264C109.437 16.67 109.368 16.2827 109.265 15.9725C109.135 15.5791 108.986 15.1925 108.864 14.7962C108.642 14.0664 108.46 13.3116 108.416 12.5471C108.375 11.8297 108.458 11.1052 108.695 10.4245C108.761 10.2358 109.614 8.57297 109.888 8.87857C110.001 9.00497 110.251 8.90237 110.233 8.72997Z" fill="#253529"/>
<path d="M90.157 12.8699C88.15 13.1463 86.054 12.7922 84.061 12.5473C82.04 12.2986 79.997 12.2732 77.963 12.3004C73.775 12.3581 69.619 12.8401 65.4257 12.6409C65.1904 12.6295 65.2079 12.9761 65.4307 12.9999C69.638 13.4656 73.877 13.2804 78.1 13.2211C80.177 13.1922 82.239 13.2906 84.311 13.4292C86.323 13.5645 88.229 13.6277 90.187 13.0681C90.293 13.039 90.273 12.8547 90.157 12.8699Z" fill="#253529"/>
<path d="M84.917 12.6499C84.871 11.6921 84.66 10.7395 84.537 9.78944C84.414 8.83194 84.305 7.87074 84.265 6.90614C84.225 5.93874 84.276 4.97224 84.277 4.00644C84.277 3.03844 84.266 2.07314 84.301 1.10474C84.314 0.753338 83.793 0.513638 83.562 0.810438C83.001 1.53004 82.401 2.21494 81.762 2.86414C81.466 3.16334 81.078 3.67344 80.689 3.83274C80.174 4.04224 79.761 3.54404 79.495 3.15794C78.721 2.03874 78.073 0.26144 76.381 0.48564C76.139 0.51784 75.936 0.675238 75.939 0.941038C75.978 4.79564 75.973 8.65054 76.008 12.5051C76.014 13.1685 77.047 13.1547 77.038 12.4907C76.984 8.63634 76.888 4.78294 76.836 0.92824C76.689 1.08014 76.542 1.23194 76.394 1.38344C77.477 1.23904 77.995 2.38604 78.447 3.16294C78.817 3.79864 79.306 4.51874 80.05 4.74514C80.908 5.00594 81.542 4.32754 82.102 3.78114C82.856 3.04514 83.543 2.24994 84.18 1.41034C83.933 1.31254 83.687 1.21384 83.44 1.11604C83.418 2.08064 83.401 3.05344 83.454 4.01704C83.508 5.02234 83.678 6.02354 83.806 7.02234C84.043 8.87404 84.156 10.9012 84.802 12.6654C84.823 12.7265 84.92 12.7198 84.917 12.6499Z" fill="#253529"/>
<path d="M97.7479 148.363C98.3719 144.645 98.3589 140.793 98.5619 137.032C98.5729 136.825 98.3849 136.569 98.1729 136.537C87.6089 134.919 76.9279 134.259 66.2557 133.852C55.5102 133.441 44.7581 133.177 34.0084 132.886C27.9145 132.721 21.8191 132.569 15.7244 132.465C15.5047 132.461 15.2294 132.647 15.1959 132.88C14.8593 135.207 14.7357 137.556 14.8667 139.905C14.9948 142.195 15.2195 144.677 16.1094 146.807C16.2629 147.174 16.9289 147.169 16.8741 146.692C16.6201 144.451 16.0984 142.267 15.9683 140.005C15.8368 137.72 15.9366 135.425 16.2681 133.159C16.0923 133.298 15.9155 133.436 15.7396 133.575C26.4813 133.774 37.2198 134.084 47.9583 134.391C58.6191 134.694 69.2899 134.913 79.9309 135.654C85.9429 136.074 91.9459 136.672 97.9099 137.544C97.7809 137.379 97.6509 137.213 97.5209 137.049C97.3459 140.775 96.9469 144.573 97.1919 148.298C97.2149 148.594 97.6929 148.691 97.7479 148.363Z" fill="#253529"/>
<path d="M97.489 147.624C96.864 147.573 96.261 147.414 95.639 147.36C94.943 147.301 94.242 147.291 93.544 147.276C92.273 147.25 91 147.253 89.728 147.25C87.116 147.242 84.505 147.237 81.893 147.236C76.697 147.236 71.501 147.232 66.3053 147.236C55.8721 147.242 45.44 147.26 35.0075 147.271C32.0566 147.275 29.1052 147.28 26.1543 147.27C24.6998 147.266 23.2446 147.261 21.7901 147.257C20.3523 147.252 18.8331 147.074 17.4492 147.493C17.0689 147.608 17.0906 148.144 17.46 148.253C18.7027 148.626 20.0192 148.485 21.3085 148.478C22.5969 148.47 23.8852 148.463 25.1736 148.455C27.7925 148.44 30.4109 148.431 33.0291 148.427C38.2242 148.419 43.4205 148.411 48.6156 148.403C59.0483 148.386 69.481 148.366 79.914 148.337C82.862 148.329 85.81 148.32 88.758 148.303C90.194 148.295 91.631 148.303 93.066 148.272C93.805 148.256 94.543 148.24 95.281 148.195C96.028 148.15 96.747 147.966 97.493 147.903C97.675 147.89 97.669 147.639 97.489 147.624Z" fill="#253529"/>
<path d="M96.9628 107.995C97.0478 107.282 97.1718 106.565 97.2468 105.853C97.3098 105.247 97.2788 104.616 97.2928 104.006C97.3238 102.678 97.3148 101.349 97.3238 100.021C97.3408 97.3639 97.3178 94.7079 97.3028 92.0509C97.2738 86.7389 97.2338 81.426 97.1908 76.1139C97.1078 65.6388 96.8028 55.137 97.2708 44.6687C97.5318 38.8081 98.0808 32.9594 99.1438 27.1878C99.2158 26.7947 98.9628 26.4377 98.5498 26.4301C87.6248 26.2163 76.7008 26.0037 65.7767 25.7898C60.334 25.6832 54.8912 25.5724 49.4485 25.5193C44.0766 25.4674 38.708 25.5422 33.3373 25.5597C27.4646 25.5774 21.5874 25.3281 15.8829 23.82C15.5164 23.7232 15.1136 24.0193 15.1325 24.4096C15.6581 35.2335 15.9936 46.0676 16.2966 56.8997C16.5975 67.6911 16.8331 78.4837 17.0073 89.2789C17.1055 95.3819 17.1822 101.485 17.236 107.588C17.2432 108.388 18.4844 108.37 18.4775 107.57C18.3818 96.7329 18.2147 85.8979 17.9701 75.0624C17.7275 64.269 17.407 53.4779 17.0167 42.6899C16.796 36.5901 16.5501 30.4922 16.3316 24.3919C16.0815 24.5881 15.8312 24.7853 15.5811 24.9815C20.617 26.3811 25.8902 26.7123 31.0942 26.7634C36.4751 26.8165 41.8558 26.6768 47.2372 26.7114C58.1304 26.7824 69.0238 27.0627 79.9158 27.2755C86.1328 27.3966 92.3498 27.5186 98.5678 27.6397C98.3698 27.3872 98.1718 27.1344 97.9738 26.8819C96.0788 37.1716 95.8038 47.6583 95.8378 58.0944C95.8728 68.7131 96.0218 79.3335 96.1608 89.9519C96.1998 92.9389 96.2128 95.9289 96.2878 98.9149C96.3258 100.408 96.3288 101.904 96.3908 103.397C96.4208 104.141 96.4258 104.895 96.4848 105.637C96.5468 106.419 96.7158 107.217 96.8238 107.997C96.8348 108.088 96.9518 108.085 96.9628 107.995Z" fill="#253529"/>
<path d="M97.1638 106.985C95.9538 106.637 94.7968 106.451 93.5388 106.372C92.2588 106.291 90.9788 106.231 89.6978 106.177C87.1288 106.072 84.5578 106.008 81.9868 105.929C76.8358 105.772 71.6868 105.619 66.5353 105.488C56.318 105.229 46.0988 105.01 35.8784 104.89C32.9706 104.857 30.0619 104.832 27.1539 104.816C24.2561 104.8 21.3224 104.668 18.4292 104.845C17.7581 104.886 17.7791 105.845 18.4446 105.883C21.0101 106.032 23.6031 105.931 26.173 105.943C28.749 105.956 31.3252 105.975 33.9006 106.002C39.0106 106.054 44.1201 106.133 49.2301 106.231C59.4491 106.426 69.6658 106.703 79.8848 106.959C82.7478 107.031 85.6108 107.107 88.4728 107.176C91.3528 107.245 94.2658 107.524 97.1318 107.239C97.2738 107.224 97.3088 107.026 97.1638 106.985Z" fill="#253529"/>
<path d="M96.1862 40.2333C95.8912 40.3676 95.5542 40.4648 95.2892 40.6479C95.0042 40.8446 94.7542 41.1182 94.4842 41.3362C93.8872 41.8178 93.2972 42.3043 92.7092 42.7973C91.6022 43.7244 90.4692 44.6193 89.3112 45.4821C86.9862 47.2168 84.5642 48.8263 82.0692 50.3051C79.7482 51.6801 76.9452 53.5602 74.1112 53.1802C71.6892 52.855 70.1442 50.6759 68.2982 49.3125C66.2305 47.7841 63.7908 47.5646 61.4311 48.563C59.0093 49.587 57.1697 51.4359 55.3734 53.2936C53.698 55.0259 51.8928 56.8947 49.5292 57.6323C46.6672 58.5246 43.6336 57.3207 41.0223 56.1759C35.5029 53.7545 30.5792 50.1131 26.6287 45.5648C26.5048 45.4214 26.2414 45.3576 26.0651 45.4238C22.4143 46.8033 19.1039 49.6492 17.6569 53.3291C17.4349 53.8952 18.351 54.2428 18.6331 53.7248C20.3939 50.4883 22.8903 47.8676 26.3883 46.5345C26.2001 46.4874 26.0119 46.4403 25.8244 46.3944C29.4345 50.5278 33.8619 53.9441 38.7852 56.371C41.3113 57.6171 44.1111 58.8863 46.9584 59.0459C49.6265 59.1967 51.9249 57.9861 53.8915 56.2844C55.9069 54.5403 57.5265 52.3591 59.7126 50.8102C61.9048 49.2576 64.637 48.3195 67.1002 49.8375C69.0742 51.0537 70.4402 53.0952 72.6572 53.9455C75.4062 54.9998 78.3072 53.6957 80.7072 52.3672C83.6382 50.7459 86.4572 48.9254 89.1492 46.932C90.4412 45.9748 91.7052 44.9798 92.9392 43.9493C93.5652 43.4258 94.2032 42.9071 94.7822 42.3301C95.0972 42.0153 95.4212 41.7098 95.7382 41.3962C96.0242 41.1122 96.1642 40.7535 96.3532 40.3977C96.4152 40.2823 96.2912 40.1853 96.1862 40.2333Z" fill="#253529"/>
<path d="M37.1091 75.1701C39.8174 75.8815 42.071 73.2424 42.0846 70.6739C42.0998 67.8265 39.8095 65.4231 37.2191 64.5784C34.3694 63.6492 31.1453 64.5138 29.4124 67.0162C27.7423 69.4281 28.1796 72.6051 30.272 74.6086C31.4589 75.7445 32.9937 76.3674 34.6259 76.4685C35.4673 76.5212 36.3234 76.4199 37.1386 76.2104C37.5616 76.1018 37.9678 75.957 38.3668 75.7795C38.8124 75.5806 39.0768 75.2818 39.4287 74.9545C39.7244 74.679 39.4026 74.1686 39.0276 74.2872C38.7356 74.3791 38.4283 74.4002 38.1409 74.4942C37.8479 74.59 37.5658 74.7246 37.2716 74.8211C36.672 75.0175 36.0552 75.1468 35.4251 75.1809C34.2294 75.2468 33.0316 74.9998 32.0043 74.3718C30.0997 73.2079 29.0497 70.9147 29.8369 68.7603C31.6471 63.8054 39.2835 64.6493 40.75 69.4196C41.5012 71.8649 39.7292 74.5812 37.1465 74.8517C36.975 74.8737 36.9253 75.1221 37.1091 75.1701Z" fill="#253529"/>
<path d="M95.4089 76.498C93.3279 76.427 91.2689 76.373 89.1859 76.4303C87.1129 76.4871 85.0399 76.5665 82.9669 76.6376C78.8209 76.7799 74.6759 76.9379 70.5309 77.0982C70.1869 77.1112 69.8729 77.4624 70.0009 77.816C70.8659 80.2043 71.8229 82.7639 73.9539 84.3139C74.9329 85.0259 76.1219 85.5039 77.3429 85.5169C77.8809 85.5219 78.4049 85.4219 78.9139 85.2569C79.3099 85.1289 80.1869 84.6849 80.5809 84.9699C80.9339 85.2249 80.8129 86.3049 80.8979 86.7359C81.0079 87.2899 81.2189 87.8249 81.4899 88.3199C82.0329 89.3099 82.8629 90.1209 83.7919 90.7489C86.0939 92.2999 88.9189 92.4039 91.5799 91.9819C92.4449 91.8449 93.2989 91.6549 94.1489 91.4459C94.7379 91.3009 95.6639 91.2389 96.1099 90.7829C96.4699 90.4139 96.4299 89.7849 95.9149 89.5799C95.4969 89.4129 94.9059 89.6759 94.9789 90.1899C95.0709 90.8359 95.9959 90.8629 96.0169 90.1749C96.0169 90.1519 96.0179 90.1269 96.0189 90.1039C95.9339 90.2569 95.8499 90.4089 95.7649 90.5619C95.5979 90.4979 95.4299 90.4349 95.2619 90.3709C95.2779 90.2269 95.2949 90.0819 95.3119 89.9379C95.2509 90.0659 94.6409 90.1459 94.5239 90.1749C94.2159 90.2549 93.9079 90.3319 93.5979 90.4069C92.9789 90.5579 92.3569 90.6959 91.7299 90.8079C90.4679 91.0349 89.1699 91.1459 87.8909 91.0189C85.9319 90.8239 83.9329 89.8919 82.7799 88.2479C82.2019 87.4229 81.9659 86.5619 81.9129 85.5689C81.8649 84.6879 81.4759 83.8969 80.5189 83.7879C79.5839 83.6819 78.7709 84.2369 77.8719 84.3589C76.8589 84.4979 75.8379 84.1739 74.9779 83.6509C72.8109 82.3309 71.8969 79.7652 71.0749 77.5023C70.8989 77.7416 70.7209 77.9808 70.5449 78.2202C74.6899 78.057 78.8359 77.8929 82.9809 77.7111C85.0539 77.6203 87.1269 77.5388 89.1989 77.4334C91.2859 77.3276 93.3399 77.1134 95.4129 76.8805C95.6559 76.8536 95.6579 76.5067 95.4089 76.498Z" fill="#253529"/>
</g>
<defs>
<clipPath id="clip0_98_1315">
<rect width="112" height="162" fill="white"/>
</clipPath>
</defs>
</svg>
