<svg width="115" height="173" viewBox="0 0 115 173" fill="none" xmlns="http://www.w3.org/2000/svg">
<g clip-path="url(#clip0_98_1342)">
<path d="M3.40079 145.54C4.72689 149.67 3.88929 154.424 3.84809 155.678C3.80689 156.931 2.41309 158.569 2.41309 158.569L12.4938 159.017C12.4938 159.017 98.0478 161.725 100.102 161.793C102.155 161.861 107.107 161.427 107.981 160.119C108.856 158.811 110.529 156.097 110.616 153.458C110.703 150.817 107.391 148.511 105.827 148.459C104.262 148.408 97.5868 149.015 97.5868 149.015L77.3608 148.059L45.5918 146.712L27.4056 146.112C27.4056 146.112 10.8905 145.326 10.0095 145.297C9.12978 145.268 3.40079 145.54 3.40079 145.54Z" fill="#E2DEBC"/>
<path d="M6.95178 1.28449L3.10468 98.7191C3.10468 98.7191 0.0643808 145.298 1.17048 145.313C2.27648 145.329 40.0109 146.746 40.0109 146.746C40.0109 146.746 101.822 148.425 102.992 148.463C104.162 148.501 109.238 150.226 109.238 150.226L113.415 63.4041L114.364 5.89109L77.014 4.25839L14.178 1.05029C14.178 1.05029 4.72148 1.21069 6.95178 1.28449Z" fill="#F49425"/>
<path d="M84.6169 153.975L84.4829 172.418L88.2059 167.798C88.2059 167.798 91.9029 174.25 91.9459 172.943C91.9899 171.636 93.1909 167.706 93.1909 167.706L93.5499 154.102C93.5499 154.102 83.5569 153.94 84.6169 153.975Z" fill="#F49425"/>
<path d="M19.2687 7.30029C19.4847 9.94469 16.3605 13.6512 13.9837 14.4739L8.75244 131.537C8.75244 131.537 12.6853 133.864 13.4394 135.716C14.1939 137.568 14.0529 139.858 14.0529 139.858L34.3387 139.113L68.6788 140.573L95.4188 140.999C95.4188 140.999 96.9388 138.439 98.6638 137.582C100.389 136.726 103.239 136.945 103.239 136.945L104.486 104.429L105.558 56.1671L105.918 20.4305C105.918 20.4305 102.487 20.7739 101.217 17.7466C99.9458 14.7193 100.466 10.8196 100.466 10.8196C100.466 10.8196 94.1148 11.8076 88.1358 11.4201C82.1558 11.0326 68.4258 9.86199 63.9938 9.71539C59.5608 9.56919 50.0468 9.20179 49.3348 9.04189C48.6218 8.88209 35.3398 8.96579 35.3398 8.96579L19.2687 7.30029Z" fill="#96CCC4"/>
<path d="M23.7007 110.067C25.672 99.2191 29.9824 93.7831 34.6127 94.5391C39.243 95.2961 40.924 99.7231 40.924 99.7231C40.924 99.7231 41.5979 81.2791 49.694 77.1741C57.791 73.0701 62.53 73.8131 66.098 76.4111C69.666 79.0091 72.963 87.862 72.963 87.862L73.938 91.939C73.938 91.939 75.707 87.2251 78.833 87.6921C81.957 88.1591 82.252 91.4281 83.991 92.9551C85.73 94.4821 87.143 95.85 87.336 96.566C87.53 97.282 87.116 97.845 87.444 97.855C87.771 97.866 91.432 97.676 92.287 99.431C93.143 101.186 93.774 107.345 93.741 108.353C93.708 109.362 92.874 111.315 92.874 111.315C92.874 111.315 55.741 110.472 55.17 110.454C54.6 110.435 39.5839 110.447 38.6787 110.417C37.7735 110.387 29.6516 110.564 29.1316 111.051C28.6117 111.536 23.7007 110.067 23.7007 110.067Z" fill="#6AA378"/>
<path d="M87.4311 41.0051C87.3461 43.6035 83.9851 45.2317 81.3861 45.1464C78.7881 45.0612 76.7511 42.8847 76.8381 40.2868C76.9241 37.6894 79.1001 35.6517 81.6971 35.7383C84.2951 35.8226 87.5171 38.4064 87.4311 41.0051Z" fill="#F49425"/>
<path d="M30.7866 64.3261C30.7866 64.3261 45.379 65.7611 46.224 65.7881C47.068 65.8171 61.399 65.4921 61.399 65.4921L61.73 65.1401C61.73 65.1401 58.282 61.1602 55.544 61.0697C52.807 60.9797 50.652 62.4747 50.657 62.3275C50.662 62.1813 52.246 57.1928 49.311 55.6764C46.375 54.1601 42.5063 56.5079 41.2796 58.4357C37.062 57.6211 32.4123 60.0363 30.7866 64.3261Z" fill="#CCDDD9"/>
<path d="M91.0942 75.037C90.5272 71.767 89.9342 70.415 88.2242 70.358C86.5132 70.302 86.2722 71.676 86.2722 71.676C86.2722 71.676 83.3542 69.345 80.7272 70.498C78.1002 71.651 77.9952 73.961 79.5832 75.656C79.9742 75.669 90.9402 75.55 90.9402 75.55L91.0942 75.037Z" fill="#CCDDD9"/>
<path d="M27.1281 121.355L26.2417 121.522L26.4558 128.377L50.4209 130.314C50.4209 130.314 70.4129 131.951 73.4469 131.758C76.4809 131.565 89.0199 131.261 89.0329 130.871C89.0459 130.48 88.7039 123.029 88.7039 123.029L82.2299 123.468L48.5649 121.322L27.1281 121.355Z" fill="#23685B"/>
<path d="M6.82422 1.03431C6.23622 5.70891 6.07682 10.4335 5.83592 15.1371C5.59432 19.8388 5.35812 24.5404 5.12502 29.2418C4.65752 38.644 4.25171 48.0484 3.84371 57.4528C3.03101 76.1639 2.26702 94.8769 1.48512 113.589C1.26492 118.866 1.04412 124.145 0.823817 129.422C0.715717 132.012 0.607717 134.603 0.499117 137.195C0.387517 139.873 0.124315 142.585 0.338015 145.257C0.387815 145.877 1.39891 146.147 1.51761 145.427C1.90181 143.091 1.90552 140.722 2.00512 138.36C2.10172 136.057 2.19692 133.754 2.29352 131.451C2.48942 126.749 2.68632 122.047 2.88262 117.346C3.27542 107.941 3.66771 98.5379 4.06051 89.1339C4.84591 70.3269 5.64121 51.5202 6.31941 32.7086C6.51021 27.4307 6.68471 22.1531 6.85441 16.8743C7.02411 11.6031 7.32081 6.30891 7.09881 1.03731C7.08931 0.85691 6.84552 0.862712 6.82422 1.03431Z" fill="#253529"/>
<path d="M114.178 5.58649C113.736 7.86619 113.811 10.1812 113.768 12.4973C113.725 14.7839 113.686 17.0712 113.643 19.3568C113.556 24.0253 113.465 28.6953 113.366 33.364C113.171 42.7031 112.96 52.0431 112.691 61.3804C112.153 80.064 111.44 98.741 110.564 117.412C110.072 127.895 109.47 138.37 108.915 148.849C108.857 149.932 110.524 149.938 110.593 148.863C111.786 130.209 112.611 111.521 113.294 92.842C113.977 74.17 114.492 55.4888 114.726 36.806C114.793 31.5651 114.845 26.3237 114.864 21.082C114.873 18.509 114.884 15.9366 114.88 13.3637C114.875 10.7714 115.032 8.14419 114.568 5.58869C114.534 5.39589 114.215 5.39209 114.178 5.58649Z" fill="#253529"/>
<path d="M5.91505 1.26075C6.34415 1.21845 6.77264 1.16445 7.20304 1.20295C7.61294 1.23915 7.96734 1.32895 8.37794 1.30745C9.28244 1.26085 10.1905 1.27995 11.0963 1.27295C12.7559 1.26085 14.415 1.34335 16.072 1.43105C19.5607 1.61445 23.0493 1.80015 26.5371 1.98395C33.605 2.35725 40.6755 2.70565 47.744 3.05795C61.883 3.76355 76.02 4.46285 90.16 5.15285C98.143 5.54215 106.128 5.93205 114.111 6.32145C114.961 6.36305 114.969 5.04285 114.122 5.00135C99.9 4.31035 85.679 3.61895 71.458 2.92755C57.321 2.24005 43.182 1.55095 29.0419 0.920954C25.05 0.742654 21.0575 0.565654 17.0656 0.387354C15.1592 0.302354 13.2506 0.204152 11.3417 0.224352C10.3859 0.233852 9.45104 0.321452 8.50244 0.438552C7.62124 0.548052 6.76615 0.944852 5.90585 1.18435C5.86475 1.19505 5.87005 1.26445 5.91505 1.26075Z" fill="#253529"/>
<path d="M84.673 160.419C73.826 160.16 62.979 159.862 52.133 159.538C41.1855 159.211 30.2393 158.858 19.2936 158.491C13.1141 158.283 6.93585 158.071 0.757252 157.858C0.142352 157.838 0.108149 158.837 0.724449 158.858C11.6604 159.236 22.596 159.608 33.5329 159.959C44.4537 160.311 55.3749 160.644 66.2969 160.945C72.4119 161.113 78.5259 161.272 84.6399 161.419C85.2549 161.433 85.289 160.434 84.673 160.419Z" fill="#253529"/>
<path d="M1.16304 145.564C10.5363 145.683 19.9075 145.943 29.2757 146.275C38.7355 146.611 48.1921 147.021 57.6471 147.442C67.0241 147.859 76.3991 148.286 85.7771 148.658C88.0841 148.749 90.3931 148.838 92.7011 148.921C94.8111 148.998 96.9731 149.216 99.0831 149.102C102.088 148.941 105.795 147.785 108.408 149.863C111.491 152.317 109.86 156.638 107.818 159.185C107.547 159.524 107.257 159.847 106.953 160.157C106.553 160.565 106.067 160.726 105.529 160.891C104.554 161.191 103.541 161.35 102.523 161.406C100.512 161.518 98.5001 161.29 96.5051 161.05C95.5091 160.93 94.5141 160.807 93.5151 160.714C92.9031 160.657 92.8701 161.657 93.4821 161.713C97.5421 162.09 101.845 163.106 105.847 161.834C106.249 161.706 106.748 161.573 107.109 161.344C107.487 161.105 107.812 160.675 108.105 160.343C108.709 159.656 109.253 158.911 109.71 158.118C110.561 156.635 111.177 154.902 111.074 153.171C110.975 151.497 110.185 149.982 108.846 148.964C107.514 147.949 105.799 147.656 104.162 147.666C102.516 147.677 100.896 147.989 99.2581 148.094C97.1041 148.232 94.8891 148 92.7331 147.922C83.0091 147.569 73.2881 147.139 63.5681 146.705C53.7441 146.267 43.921 145.824 34.0944 145.451C24.3469 145.081 14.5971 144.778 4.84434 144.617C3.62784 144.597 2.41124 144.579 1.19454 144.564C0.580939 144.557 0.546837 145.556 1.16304 145.564Z" fill="#253529"/>
<path d="M1.70002 158.077C1.71952 158.418 1.87402 158.682 2.24592 158.698C2.71702 158.717 3.03912 158.309 3.28682 157.966C4.08372 156.867 4.45162 155.472 4.66232 154.15C4.90112 152.646 4.89772 151.105 4.73202 149.594C4.64442 148.793 4.52522 147.997 4.38382 147.205C4.25672 146.494 4.23962 145.531 3.65562 145.031C3.48852 144.888 3.18682 144.87 3.07232 145.101C2.82382 145.604 2.93012 146.062 3.03412 146.594C3.15532 147.211 3.27022 147.829 3.36702 148.45C3.55372 149.647 3.68142 150.861 3.68472 152.073C3.68702 153.151 3.59702 154.242 3.35602 155.293C3.23832 155.809 3.07962 156.309 2.88432 156.8C2.85152 156.882 2.22702 158.268 2.07782 157.977C1.98902 157.801 1.68872 157.876 1.70002 158.077Z" fill="#253529"/>
<path d="M79.0971 152.97C82.3481 153.424 85.5911 153.85 88.8691 154.058C92.1321 154.265 95.3911 154.103 98.6471 154.314C98.9501 154.334 99.0041 153.875 98.7221 153.792C97.2351 153.357 95.5431 153.639 94.0181 153.676C92.3471 153.717 90.6651 153.715 88.9951 153.638C85.6921 153.484 82.3911 153.175 79.0971 152.892C79.0461 152.888 79.0481 152.964 79.0971 152.97Z" fill="#253529"/>
<path d="M84.9548 172.639C85.1398 169.5 85.0178 166.355 85.0278 163.212C85.0328 161.681 85.0438 160.15 85.0718 158.619C85.0978 157.162 84.9418 155.539 85.3058 154.132C85.3858 153.821 85.1058 153.516 84.7868 153.603C84.1898 153.767 84.1328 154.343 84.1118 154.885C84.0788 155.754 84.0608 156.623 84.0488 157.492C84.0268 159.188 84.0338 160.887 84.0768 162.583C84.1608 165.949 84.2578 169.332 84.8548 172.651C84.8658 172.711 84.9518 172.694 84.9548 172.639Z" fill="#253529"/>
<path d="M84.9211 172.665C85.7091 172.218 86.0641 171.138 86.5431 170.409C87.1331 169.509 87.8171 168.68 88.5821 167.923C88.3081 167.885 88.0331 167.848 87.7591 167.81C88.7981 169.723 90.0811 171.485 91.5781 173.064C91.8051 173.305 92.2481 173.261 92.4101 172.965C93.8571 170.296 93.8101 166.958 93.9721 164.003C94.1581 160.624 94.1981 157.239 94.1011 153.857C94.0811 153.16 92.9962 153.147 93.0162 153.848C93.1132 157.065 93.0851 160.285 92.9271 163.499C92.8511 165.035 92.7551 166.572 92.6101 168.102C92.4681 169.593 92.2212 171.089 91.5012 172.422C91.7792 172.388 92.0551 172.355 92.3331 172.322C90.8941 170.806 89.6721 169.123 88.6711 167.287C88.5101 166.991 88.0842 166.939 87.8482 167.174C87.0472 167.969 86.3271 168.841 85.7271 169.798C85.2471 170.564 84.4881 171.649 84.7621 172.597C84.7801 172.667 84.8591 172.701 84.9211 172.665Z" fill="#253529"/>
<path d="M13.1112 14.5082C13.114 14.5201 13.1168 14.5319 13.1196 14.5437C13.1633 14.7358 13.3415 14.8399 13.5232 14.8569C13.6464 14.8714 13.6581 14.8709 13.5588 14.8539C13.6412 14.9029 13.7309 14.9281 13.8268 14.9291C13.9777 14.945 14.1306 14.9166 14.2794 14.8964C14.5151 14.8637 14.7449 14.8041 14.972 14.7327C15.4741 14.5752 15.9629 14.3625 16.4132 14.0889C17.3392 13.5279 18.1293 12.767 18.7455 11.8784C19.3344 11.0283 19.7479 10.0338 19.9025 9.00919C19.9853 8.46479 20.0733 7.86819 19.8447 7.34929C19.5991 6.78969 18.8465 6.39189 18.3641 6.94789C17.9971 7.37079 18.3381 7.98689 18.8951 7.87999C18.8599 7.88399 18.826 7.88839 18.7907 7.89239C18.7011 7.83889 18.6101 7.78489 18.5204 7.73139C18.7576 7.91929 18.677 8.28819 18.651 8.57239C18.6163 8.95239 18.5277 9.32789 18.4103 9.69169C18.1803 10.4074 17.8009 11.0926 17.3171 11.6687C16.8124 12.2698 16.2151 12.7796 15.5281 13.1633C15.1882 13.3536 14.84 13.5214 14.469 13.6424C14.2916 13.7006 14.1121 13.7509 13.933 13.8022C13.8229 13.8343 13.7108 13.8619 13.6081 13.9169C13.5498 13.9381 13.4987 13.9715 13.4553 14.0179C13.5443 13.9871 13.5306 13.9906 13.4155 14.0291C13.2273 14.0897 13.1165 14.2392 13.1027 14.4337C13.102 14.4578 13.1039 14.4831 13.1112 14.5082Z" fill="#253529"/>
<path d="M13.4342 14.7839C12.9522 16.615 12.8364 18.5126 12.6869 20.3972C12.537 22.2885 12.4015 24.1803 12.2784 26.0734C12.0289 29.9011 11.8308 33.7321 11.6712 37.5644C11.3552 45.1516 11.1699 52.7425 11.01 60.3347C10.6903 75.519 10.7038 90.707 10.0086 105.883C9.61586 114.455 8.94616 122.996 8.06256 131.53C7.97026 132.419 9.34216 132.414 9.44446 131.542C11.2064 116.481 11.6551 101.252 11.9245 86.103C12.1937 70.917 12.1336 55.7217 12.641 40.5399C12.7837 36.2538 12.9785 31.9676 13.2307 27.6866C13.3564 25.5463 13.4976 23.407 13.6567 21.2689C13.8149 19.1388 14.086 16.9884 13.9337 14.8552C13.9123 14.5844 13.5114 14.4923 13.4342 14.7839Z" fill="#253529"/>
<path d="M9.1898 132.631C9.2631 132.128 10.4257 133.025 10.5814 133.171C11.1822 133.735 11.6859 134.403 12.0845 135.123C12.8841 136.566 13.238 138.2 13.1122 139.844C13.0865 140.183 13.4372 140.564 13.786 140.529C24.3148 139.495 34.9845 139.45 45.5078 140.592C48.1648 140.88 50.8108 141.271 53.4678 141.551C56.0988 141.828 58.7378 141.931 61.3808 141.956C66.7738 142.007 72.1688 141.962 77.5618 141.959C80.5518 141.957 83.5418 141.956 86.5328 141.954C88.0698 141.953 89.6068 141.953 91.1438 141.952C92.6798 141.951 94.2288 142.021 95.7558 141.84C96.6308 141.736 96.6568 140.569 95.7678 140.465C94.4028 140.305 93.0288 140.358 91.6568 140.36C90.3278 140.362 88.9988 140.363 87.6688 140.366C84.9688 140.369 82.2698 140.372 79.5698 140.375C74.2148 140.382 68.8588 140.395 63.5038 140.393C60.8198 140.393 58.1328 140.365 55.4528 140.188C52.8238 140.014 50.2128 139.656 47.5948 139.369C42.3114 138.787 37.0014 138.439 31.6858 138.371C25.7137 138.293 19.741 138.563 13.8 139.172C14.025 139.401 14.2491 139.63 14.4738 139.858C14.6445 137.512 13.8605 135.2 12.3597 133.396C11.7607 132.676 10.898 131.745 9.9335 131.576C9.2885 131.463 8.3669 131.828 8.6265 132.63C8.7045 132.872 9.1445 132.941 9.1898 132.631Z" fill="#253529"/>
<path d="M96.1768 141.712C96.1698 141.765 96.1388 141.794 96.0858 141.801C96.1478 141.864 96.2108 141.927 96.2718 141.991C96.5088 141.677 96.5088 141.176 96.6528 140.809C96.7978 140.438 97.0338 140.084 97.2778 139.77C97.7848 139.119 98.4578 138.58 99.2328 138.285C100.059 137.971 100.832 138.044 101.693 138.074C102.594 138.106 103.713 137.972 103.902 136.914C103.973 136.518 103.57 136.079 103.167 136.339C102.495 136.773 101.722 136.688 100.915 136.66C99.9578 136.626 99.0118 136.86 98.1698 137.314C97.3398 137.761 96.5978 138.43 96.0948 139.229C95.8498 139.618 95.6698 140.052 95.5358 140.491C95.4018 140.928 95.2148 141.535 95.4898 141.943C95.6428 142.17 96.0188 142.293 96.2268 142.045C96.3348 141.916 96.4788 141.737 96.2658 141.622C96.2108 141.591 96.1418 141.653 96.1768 141.712Z" fill="#253529"/>
<path d="M103.513 137.024C103.877 135.184 103.934 133.334 104.033 131.464C104.129 129.636 104.224 127.808 104.304 125.978C104.47 122.196 104.627 118.414 104.758 114.629C105.017 107.146 105.247 99.6611 105.448 92.1771C105.851 77.1651 106.14 62.1513 106.308 47.1348C106.402 38.7328 106.467 30.3293 106.493 21.9268C106.495 21.1224 105.247 21.1103 105.243 21.9164C105.193 36.8915 105.023 51.8666 104.74 66.8391C104.457 81.8121 104.06 96.7831 103.548 111.749C103.405 115.906 103.262 120.063 103.125 124.221C103.056 126.3 102.99 128.378 102.931 130.456C102.87 132.621 102.716 134.785 102.954 136.942C102.987 137.233 103.446 137.369 103.513 137.024Z" fill="#253529"/>
<path d="M101.15 10.6646C98.7799 11.4891 98.9339 14.8416 99.7519 16.7376C100.823 19.2196 103.297 20.717 105.705 21.6739C106.518 21.9964 106.882 20.6863 106.077 20.3661C104.072 19.5696 101.981 18.354 100.962 16.3711C100.51 15.4945 100.336 14.4843 100.428 13.5053C100.473 13.0354 100.604 12.5542 100.767 12.1106C100.929 11.6696 101.079 11.2117 101.265 10.7812C101.292 10.7158 101.213 10.6428 101.15 10.6646Z" fill="#253529"/>
<path d="M19.2232 7.20152C19.7432 7.46372 20.255 7.74782 20.8123 7.92602C21.461 8.13322 22.1639 8.23192 22.8327 8.36012C24.1086 8.60452 25.3924 8.81082 26.6803 8.98292C29.2933 9.33312 31.926 9.52332 34.5623 9.55692C37.2542 9.59102 39.9435 9.45372 42.6333 9.37702C45.2641 9.30222 47.8961 9.31262 50.5261 9.39872C61.1361 9.74782 71.6691 11.1963 82.2631 11.7686C88.1481 12.0865 94.1931 12.2763 100.05 11.507C100.649 11.4284 100.52 10.4087 99.9161 10.4465C97.2971 10.6127 94.6911 10.816 92.0651 10.8602C89.4451 10.9044 86.8251 10.8566 84.2071 10.7468C78.9511 10.5252 73.7101 10.0577 68.4721 9.58682C63.2271 9.11552 57.9801 8.64172 52.7171 8.41432C50.0921 8.30132 47.4631 8.24852 44.8352 8.28722C42.1859 8.32632 39.5409 8.47862 36.8921 8.53162C33.9681 8.59052 31.0464 8.48152 28.1365 8.18102C26.6061 8.02292 25.0814 7.81132 23.5658 7.54612C22.8458 7.41982 22.1303 7.27542 21.4131 7.14042C20.7005 7.00562 19.9968 7.01892 19.2748 7.01172C19.1794 7.01162 19.1309 7.15452 19.2232 7.20152Z" fill="#253529"/>
<path d="M22.6065 110.111C24.3279 111.2 26.5296 111.4 28.5236 111.461C30.7064 111.528 32.8965 111.248 35.0688 111.075C39.7472 110.702 44.4342 110.687 49.1238 110.797C58.5798 111.018 68.0358 111.341 77.4908 111.616C80.1068 111.692 82.7218 111.768 85.3378 111.843C86.6658 111.882 87.9948 111.92 89.3238 111.959C90.6338 111.997 91.9918 112.17 93.2738 111.873C93.5958 111.799 93.5818 111.329 93.2798 111.24C92.1988 110.922 91.0758 110.979 89.9558 110.946C88.7938 110.913 87.6308 110.879 86.4688 110.845C84.1018 110.777 81.7348 110.708 79.3688 110.639C74.6768 110.503 69.9848 110.367 65.2928 110.23C60.6478 110.095 56.0038 109.954 51.3588 109.829C46.7078 109.702 42.0483 109.622 37.4007 109.902C34.9365 110.051 32.4887 110.397 30.0228 110.524C28.8113 110.586 27.5896 110.618 26.3793 110.525C25.1276 110.429 23.9079 110.168 22.6729 109.962C22.5833 109.948 22.5235 110.058 22.6065 110.111Z" fill="#253529"/>
<path d="M23.8456 110.058C24.3803 107.866 24.8607 105.662 25.4134 103.475C25.8961 101.567 26.4959 99.609 27.7262 98.038C29.9068 95.257 33.8406 93.842 37.1077 95.552C38.7909 96.433 40.0794 97.925 40.4954 99.798C40.6338 100.42 41.5738 100.277 41.5879 99.659C41.7672 91.627 43.5025 82.22 50.6241 77.366C53.5851 75.347 57.2781 74.168 60.8761 74.671C64.5131 75.179 67.4421 77.525 69.3071 80.609C71.4881 84.217 72.4031 88.45 73.1961 92.541C73.3131 93.148 74.1241 93.036 74.3081 92.55C74.8931 90.997 75.8291 89.348 77.4031 88.623C78.8121 87.973 80.6501 88.211 81.4621 89.638C81.8741 90.361 82.0731 91.182 82.4521 91.924C82.8251 92.656 83.3871 93.245 84.0201 93.76C85.1861 94.709 87.3411 95.968 86.7151 97.786C86.5521 98.258 87.1601 98.767 87.5871 98.469C88.5701 97.783 89.8581 98.041 90.7271 98.804C91.6791 99.64 92.1641 100.884 92.5171 102.068C93.3231 104.778 93.3621 107.653 92.6981 110.396C92.4971 111.223 93.7821 111.585 93.9671 110.758C94.6991 107.479 94.5461 103.928 93.3461 100.773C92.8411 99.445 92.0731 98.096 90.7871 97.386C89.6161 96.74 88.1181 96.644 86.9921 97.432C87.2831 97.66 87.5741 97.887 87.8651 98.115C88.3961 96.572 87.4581 95.036 86.3081 94.053C85.6991 93.533 85.0251 93.095 84.4371 92.553C83.8041 91.97 83.4371 91.298 83.1291 90.503C82.5701 89.064 81.8961 87.788 80.3311 87.293C78.9861 86.867 77.4361 87.135 76.2711 87.912C74.7421 88.928 73.8241 90.552 73.1991 92.236C73.5691 92.239 73.9401 92.243 74.3111 92.245C72.8871 85.09 70.5511 75.953 62.4521 73.834C58.7091 72.855 54.6771 73.714 51.3511 75.579C47.6911 77.632 45.0071 80.926 43.3193 84.735C41.246 89.414 40.5849 94.573 40.4802 99.65C40.8445 99.604 41.2083 99.558 41.5727 99.512C40.7461 95.823 36.9418 93.355 33.2432 93.78C29.0718 94.259 26.0565 97.616 25.0771 101.549C24.3909 104.307 24.0189 107.173 23.5623 109.977C23.5299 110.161 23.7984 110.248 23.8456 110.058Z" fill="#253529"/>
<path d="M55.9798 86.6949C56.7568 86.4869 56.3768 89.0799 56.3658 89.3879C56.3318 90.3769 56.3258 91.3679 56.3118 92.3589C56.2838 94.3799 56.2428 96.4009 56.2148 98.4219C56.1878 100.402 56.1528 102.383 56.1118 104.362C56.0908 105.352 56.0678 106.342 56.0458 107.332C56.0248 108.211 55.7988 109.337 56.1458 110.155C56.3788 109.978 56.6128 109.801 56.8468 109.623C56.8078 109.562 56.7688 109.502 56.7298 109.443C56.5928 109.152 56.0818 109.279 56.1098 109.605C56.1078 109.674 56.1058 109.744 56.1038 109.814C55.9898 110.28 56.6818 110.635 56.9108 110.162C57.1378 109.695 57.0948 109.212 57.1068 108.702C57.1198 108.125 57.1338 107.548 57.1448 106.97C57.1688 105.815 57.1888 104.66 57.2068 103.506C57.2428 101.237 57.2798 98.9679 57.2808 96.6999C57.2828 94.4309 57.3078 92.1599 57.2508 89.8919C57.2378 89.3969 57.3428 85.6649 55.9168 86.5459C55.8398 86.5919 55.8878 86.7189 55.9798 86.6949Z" fill="#253529"/>
<path d="M51.2539 93.0969C51.7829 94.6329 52.6099 96.0629 53.3919 97.4789C53.7799 98.1829 54.1829 98.8789 54.5789 99.5779C54.7909 99.9499 54.9909 100.332 55.2139 100.697C55.3169 100.864 55.4259 101.056 55.5829 101.181C55.7309 101.3 55.9039 101.334 56.0729 101.415C56.1969 101.474 56.3279 101.405 56.3389 101.266C56.3529 101.08 56.4089 100.91 56.3819 100.724C56.3529 100.527 56.2399 100.334 56.1459 100.162C55.9419 99.7859 55.7109 99.4229 55.4929 99.0549C55.0849 98.3629 54.6819 97.6669 54.2649 96.9789C53.4249 95.5949 52.5989 94.1649 51.5299 92.9399C51.4229 92.8189 51.1999 92.9439 51.2539 93.0969Z" fill="#253529"/>
<path d="M64.0701 88.839C63.8801 88.929 63.6731 88.934 63.4821 89.031C63.2651 89.142 63.0361 89.252 62.8311 89.382C62.4201 89.643 62.0171 89.926 61.6391 90.233C60.8891 90.843 60.2021 91.547 59.5541 92.263C58.9041 92.98 58.2971 93.737 57.7361 94.525C57.4491 94.93 57.1731 95.344 56.9121 95.765C56.8021 95.941 56.6331 96.148 56.5861 96.354C56.5571 96.48 56.5691 96.595 56.6141 96.715C56.6281 96.747 56.6411 96.78 56.6541 96.812C56.7411 96.911 56.7391 96.922 56.6461 96.843C56.6181 97.061 56.8981 97.113 57.0321 97.007C57.0661 96.98 57.1001 96.952 57.1341 96.926C57.0441 96.949 56.9541 96.972 56.8641 96.995C57.3551 97.087 57.5401 96.712 57.7601 96.349C58.0051 95.944 58.2641 95.547 58.5331 95.157C59.0741 94.376 59.6641 93.631 60.2991 92.923C60.9191 92.232 61.5861 91.598 62.2691 90.97C62.6171 90.649 62.9521 90.319 63.2991 89.997C63.4631 89.845 63.6041 89.672 63.7691 89.518C63.9381 89.359 64.0251 89.151 64.1901 88.993C64.2721 88.912 64.1671 88.792 64.0701 88.839Z" fill="#253529"/>
<path d="M34.3128 102.814C34.2378 103.113 34.1043 103.402 34.0192 103.698C33.9367 103.982 33.9108 104.311 33.8818 104.606C33.8188 105.237 33.784 105.875 33.7523 106.507C33.7213 107.129 33.6987 107.752 33.7264 108.374C33.7404 108.683 33.7596 108.988 33.8733 109.279C33.9779 109.547 34.1341 109.792 34.2489 110.056C34.3317 110.245 34.6437 110.151 34.6348 109.954C34.6208 109.645 34.693 109.349 34.7164 109.043C34.7397 108.734 34.6938 108.425 34.6812 108.116C34.6577 107.538 34.6729 106.959 34.6929 106.382C34.7128 105.793 34.7324 105.201 34.7284 104.613C34.7263 104.321 34.7232 103.991 34.6656 103.704C34.6064 103.407 34.5023 103.113 34.4557 102.816C34.444 102.741 34.329 102.746 34.3128 102.814Z" fill="#253529"/>
<path d="M31.268 103.83C31.5063 104.155 31.776 104.454 32.0138 104.78C32.2541 105.11 32.497 105.441 32.7274 105.778C32.8414 105.944 32.9201 106.129 33.0253 106.299C33.1309 106.471 33.2328 106.644 33.3319 106.818C33.4359 107.001 33.5399 107.19 33.655 107.366C33.7071 107.446 33.7646 107.524 33.82 107.601C33.9213 107.742 34.0153 107.798 34.1743 107.854C34.3421 107.913 34.551 107.79 34.5918 107.621C34.6281 107.473 34.6339 107.352 34.5737 107.206C34.5327 107.108 34.4927 107.008 34.4434 106.914C34.3469 106.727 34.224 106.546 34.1008 106.376C33.9683 106.192 33.8288 106.012 33.6872 105.835C33.5552 105.67 33.3949 105.534 33.2566 105.375C32.983 105.061 32.698 104.77 32.3802 104.501C32.0599 104.229 31.7311 103.944 31.3679 103.73C31.311 103.695 31.2224 103.768 31.268 103.83Z" fill="#253529"/>
<path d="M36.8076 104.55C36.7446 104.601 36.6885 104.602 36.6268 104.641C36.5529 104.687 36.5047 104.771 36.4405 104.827C36.2853 104.964 36.1591 105.123 36.0071 105.265C35.7233 105.529 35.4789 105.849 35.2227 106.143C34.6908 106.754 34.149 107.388 33.7036 108.067C33.44 108.467 34.0565 108.969 34.3733 108.592C34.8966 107.968 35.352 107.273 35.7871 106.586C35.995 106.257 36.2395 105.93 36.4093 105.58C36.5007 105.392 36.6193 105.225 36.7042 105.034C36.74 104.954 36.8064 104.885 36.8326 104.8C36.8552 104.73 36.8428 104.662 36.8733 104.587C36.8893 104.548 36.8342 104.528 36.8076 104.55Z" fill="#253529"/>
<path d="M70.3109 110.078C69.9639 109.804 69.6919 109.165 69.4899 108.781C69.2789 108.377 69.1459 107.95 69.0639 107.503C68.8529 106.356 69.1279 105.21 69.5359 104.138C69.8949 103.197 70.3299 102.095 71.0799 101.392C71.6519 100.856 72.7879 100.533 73.2819 101.351C73.6429 101.948 74.5849 101.411 74.2219 100.811C73.6959 99.9389 73.3639 98.9719 73.2979 97.9519C73.2659 97.4499 73.2859 96.9379 73.3799 96.4439C73.4049 96.3129 73.7659 95.0809 74.0259 95.4749C74.1389 95.2059 74.2509 94.9359 74.3629 94.6669C74.0299 94.7709 73.7709 94.5539 73.6299 94.2539C73.4639 93.9029 73.5519 93.5579 73.7509 93.2419C74.1129 92.6649 74.9469 92.4529 75.1259 91.7799C75.1769 91.5899 75.0679 91.3719 74.8709 91.3209C74.2479 91.1619 73.6919 91.6689 73.2759 92.0809C72.8329 92.5199 72.4579 93.1139 72.4269 93.7539C72.3709 94.9179 73.4379 96.1139 74.6469 95.7339C74.9659 95.6339 75.1899 95.2359 74.9839 94.9259C74.6149 94.3699 73.9219 94.1669 73.3099 94.4819C72.6269 94.8349 72.4009 95.6459 72.2889 96.3479C72.0119 98.0849 72.3709 99.8489 73.2819 101.351C73.5959 101.17 73.9099 100.991 74.2219 100.811C73.6289 99.8359 72.3979 99.5639 71.3609 99.9519C70.0599 100.439 69.4059 101.814 68.8929 103.004C68.2989 104.38 67.8359 105.877 68.0539 107.392C68.1429 108.008 68.3639 108.604 68.7029 109.127C68.8599 109.369 69.0259 109.56 69.2559 109.737C69.6099 110.008 69.8329 109.999 70.2289 110.182C70.2919 110.21 70.3759 110.128 70.3109 110.078Z" fill="#253529"/>
<path d="M75.9711 110.823C76.6001 110.495 76.0372 109.857 75.7312 109.527C75.1872 108.939 75.2961 108.148 75.5551 107.448C76.1921 105.735 77.6392 104.221 79.1252 103.209C78.8692 103.139 78.6122 103.07 78.3562 103C78.8002 103.827 79.0441 104.712 79.0791 105.65C79.1041 106.336 79.9632 106.394 80.2092 105.812C80.6752 104.718 82.0232 104.072 83.1602 104.419C83.7132 104.587 84.1912 104.983 84.4962 105.469C84.8332 106.007 84.7831 106.624 85.0341 107.185C85.1971 107.552 85.7941 107.535 85.9711 107.193C86.3741 106.41 85.9432 105.413 85.4752 104.743C84.9682 104.018 84.2192 103.443 83.3492 103.235C81.5732 102.812 79.7842 103.85 79.1002 105.497C79.4772 105.551 79.8541 105.605 80.2301 105.659C80.1771 104.52 79.8801 103.44 79.3311 102.439C79.1941 102.189 78.8112 102.059 78.5632 102.23C76.9232 103.367 75.4882 104.926 74.6772 106.767C74.3542 107.502 74.1432 108.368 74.3482 109.166C74.4502 109.564 74.6651 109.905 74.9951 110.15C75.1451 110.262 75.8801 110.567 75.8551 110.733C75.8471 110.799 75.9061 110.857 75.9711 110.823Z" fill="#253529"/>
<path d="M83.5132 109.181C83.9382 108.65 84.5552 108.132 85.2532 108.058C85.9412 107.985 86.5822 107.823 87.2682 108.022C87.8762 108.2 88.4142 108.599 88.7812 109.114C88.9682 109.376 89.1142 109.663 89.2102 109.97C89.2662 110.151 89.3022 110.332 89.3422 110.515C89.3972 110.773 89.5322 110.858 89.6942 111.02C89.9062 111.231 90.1922 111.151 90.3572 110.94C90.1292 111.232 90.5022 110.796 90.5172 110.77C90.6122 110.611 90.6102 110.455 90.5862 110.28C90.5552 110.063 90.5082 109.851 90.4322 109.645C90.2672 109.189 90.0282 108.777 89.7262 108.397C89.1772 107.707 88.3832 107.167 87.5222 106.957C86.7012 106.757 85.5922 106.759 84.9172 107.338C84.6892 107.534 84.2952 107.833 84.0222 108.112C83.7422 108.397 83.5382 108.738 83.3832 109.104C83.3542 109.174 83.4652 109.24 83.5132 109.181Z" fill="#253529"/>
<path d="M81.338 99.9829C81.254 99.7399 81.238 99.5259 81.3 99.2779C81.329 99.1619 81.3629 99.0989 81.4239 98.9979C81.4939 98.8819 81.523 98.7419 81.584 98.6199C81.804 98.1719 82.166 97.7919 82.488 97.4149C82.642 97.2359 82.791 97.0349 82.987 96.9619C82.943 96.9779 82.96 96.9659 83.014 96.9629C83.004 96.9639 82.9669 96.9819 82.9579 96.9689C82.9609 96.9739 82.914 96.9499 82.916 96.9509C82.92 96.9499 82.986 97.0009 82.955 96.9749C82.962 96.9809 82.983 97.0069 82.991 97.0179C83.035 97.0759 83.0729 97.1419 83.1109 97.2039C83.4059 97.6759 83.607 98.1119 83.763 98.6139C83.811 98.7719 83.853 98.9299 83.884 99.0929C83.898 99.1679 83.912 99.2439 83.923 99.3199C83.928 99.3529 83.9329 99.3859 83.9369 99.4189C83.9519 99.5269 83.931 99.3399 83.94 99.4479C83.953 99.6009 83.963 99.7519 83.979 99.9039C83.991 100.013 83.988 100.134 84.016 100.239C84.032 100.298 84.065 100.364 84.095 100.418C84.109 100.443 84.1329 100.522 84.1239 100.476C84.1719 100.707 84.416 100.877 84.643 100.879C84.86 100.881 85.135 100.716 85.17 100.485C85.186 100.378 85.174 100.419 85.166 100.452C85.183 100.382 85.238 100.322 85.255 100.249C85.282 100.136 85.279 100.028 85.27 99.9139C85.254 99.7029 85.222 99.4969 85.175 99.2909C85.101 98.9589 85.0079 98.6319 84.8999 98.3109C84.6799 97.6569 84.375 97.0149 83.964 96.4589C83.713 96.1179 83.3789 95.8459 82.9299 95.8749C82.5349 95.9009 82.196 96.1409 81.938 96.4269C81.707 96.6829 81.505 96.9669 81.326 97.2619C81.149 97.5539 81.0299 97.8479 80.9109 98.1659C80.8509 98.3259 80.8019 98.4889 80.7709 98.6569C80.7389 98.8359 80.787 99.0039 80.808 99.1819C80.846 99.4969 81 99.8179 81.192 100.067C81.247 100.133 81.366 100.062 81.338 99.9829Z" fill="#253529"/>
<path d="M77.3262 95.9471C77.3362 95.8301 77.3422 95.7141 77.3552 95.5981C77.3712 95.4601 77.4232 95.327 77.4442 95.19C77.4622 95.077 77.4762 94.9721 77.5182 94.8671C77.5622 94.7561 77.5512 94.6281 77.5792 94.5141C77.5952 94.4511 77.6392 94.392 77.6582 94.329C77.6812 94.254 77.6842 94.171 77.6952 94.094C77.7022 94.04 77.7092 93.986 77.7172 93.933C77.7292 93.845 77.7082 93.982 77.7222 93.907C77.7272 93.878 77.7332 93.8491 77.7392 93.8201C77.7612 93.7261 77.7892 93.633 77.8252 93.545C77.7852 93.641 77.8962 93.458 77.8402 93.525C77.7972 93.575 77.8342 93.532 77.8442 93.524C77.8522 93.516 77.8582 93.5091 77.8662 93.5031C77.8982 93.4771 77.8972 93.476 77.8652 93.502C77.8572 93.533 77.8262 93.523 77.8662 93.506C77.8792 93.501 77.8942 93.493 77.9052 93.486C77.9542 93.453 77.8132 93.505 77.8712 93.502C77.8842 93.501 77.9032 93.4941 77.9142 93.4901C77.9942 93.4641 77.8182 93.4891 77.9042 93.4901C77.9132 93.4911 78.0272 93.496 78.0292 93.493C78.0252 93.499 77.9022 93.4661 77.9942 93.4881C78.0102 93.4921 78.0262 93.495 78.0412 93.499C78.0792 93.508 78.1172 93.519 78.1532 93.532C78.1682 93.538 78.1852 93.546 78.2012 93.55C78.2582 93.565 78.1552 93.5341 78.1602 93.5331C78.1802 93.5251 78.2642 93.5871 78.2812 93.5981C78.3122 93.6151 78.3402 93.6361 78.3692 93.6541C78.4412 93.7011 78.3062 93.5921 78.3892 93.6711C78.4182 93.6981 78.4482 93.725 78.4752 93.754C78.4872 93.766 78.4972 93.7791 78.5082 93.7921C78.5682 93.8581 78.5142 93.7841 78.5042 93.7851C78.5282 93.7821 78.6342 93.988 78.6472 94.009C78.6962 94.092 78.7432 94.176 78.7892 94.261C79.0342 94.707 79.2842 95.194 79.7912 95.381C80.1702 95.523 80.5412 95.0301 80.3262 94.6971C80.2832 94.6301 80.2322 94.565 80.1802 94.504C80.1742 94.496 80.1332 94.443 80.1702 94.493C80.2092 94.545 80.1602 94.4771 80.1512 94.4641C80.1072 94.3981 80.0622 94.335 80.0132 94.274C80.0922 94.372 79.9872 94.2331 79.9662 94.2011C79.8502 94.0231 79.7522 93.834 79.6482 93.649C79.4262 93.261 79.1472 92.895 78.7362 92.698C78.3232 92.499 77.8262 92.414 77.4082 92.652C77.1702 92.786 77.0102 93.01 76.9192 93.265C76.8312 93.515 76.8792 93.802 76.9002 94.06C76.9062 94.145 76.9062 94.2401 76.9292 94.3221C76.9492 94.3911 76.9822 94.4471 76.9922 94.5181C77.0042 94.5981 77.0072 94.68 77.0162 94.761C77.0242 94.838 77.0602 94.9 77.0682 94.976C77.0832 95.134 77.1032 95.287 77.1322 95.442C77.1612 95.609 77.1582 95.7771 77.1632 95.9451C77.1652 96.0521 77.3172 96.0511 77.3262 95.9471Z" fill="#253529"/>
<path d="M30.7251 64.593C33.2098 65.167 35.7359 65.362 38.271 65.612C40.8737 65.868 43.4773 66.131 46.086 66.314C51.289 66.679 56.525 66.776 61.711 66.132C62.039 66.091 62.322 65.836 62.222 65.473C61.654 63.419 59.999 61.8952 58.029 61.1775C55.608 60.2946 52.909 60.7776 50.579 61.703C50.772 61.9592 50.967 62.216 51.16 62.4722C52.608 59.9971 51.677 56.4276 49.102 55.0764C46.23 53.5692 42.7767 55.2189 41.0925 57.7259C40.7593 58.2214 40.0021 59.2755 40.5482 59.8455C41.0252 60.3438 41.7182 59.8166 41.4655 59.2221C41.4193 59.1146 41.2711 59.038 41.1592 59.0426C41.1376 59.043 41.1165 59.0443 41.094 59.045C40.7516 59.0586 40.6461 59.4791 40.919 59.6694C40.937 59.6813 40.9545 59.6946 40.9725 59.7065C40.9192 59.5717 40.8658 59.4368 40.8121 59.301C40.8556 59.26 40.8991 59.219 40.944 59.1785C41.0555 59.1935 41.1664 59.2098 41.2779 59.2249C41.2558 59.2135 41.2333 59.2013 41.2103 59.1904C41.2804 59.2824 41.3495 59.3749 41.4196 59.4669C41.4556 59.5657 41.4275 59.3617 41.457 59.2691C41.5117 59.0997 41.6077 58.9357 41.693 58.7796C41.862 58.469 42.0564 58.1673 42.2761 57.8897C42.7081 57.3429 43.2383 56.8591 43.8232 56.4803C44.9768 55.7327 46.409 55.3214 47.77 55.6767C50.37 56.3555 51.597 59.6569 50.267 61.9373C50.059 62.2932 50.404 62.8827 50.847 62.7064C52.905 61.8863 55.224 61.399 57.398 62.0629C59.165 62.603 60.71 63.925 61.21 65.741C61.38 65.521 61.55 65.302 61.721 65.082C56.574 65.715 51.381 65.614 46.218 65.251C43.65 65.069 41.0875 64.842 38.5243 64.605C35.9451 64.367 33.3802 64.067 30.7882 64.162C30.5509 64.173 30.4752 64.535 30.7251 64.593Z" fill="#253529"/>
<path d="M30.6868 64.4969C31.2418 64.5149 31.5661 63.8379 31.867 63.4639C32.3149 62.9085 32.784 62.3722 33.2847 61.865C34.2387 60.8975 35.2868 59.9838 36.5292 59.4093C37.7787 58.8308 39.2985 58.6301 40.6132 59.1066C41.7087 59.5025 42.7165 60.4027 42.631 61.6488C42.6025 62.0642 43.107 62.3308 43.449 62.1276C43.8022 61.9176 43.8965 61.6384 43.9611 61.2469C44.0188 60.8908 43.6132 60.7151 43.3925 61.0007C43.3313 61.0795 43.1254 61.0954 43.0379 61.1246C43.2663 61.302 43.4961 61.48 43.7245 61.6574C43.7776 60.285 42.8806 59.1604 41.7187 58.5234C40.3271 57.7604 38.6124 57.711 37.116 58.1817C35.6167 58.6535 34.3021 59.6118 33.2011 60.7147C32.6033 61.3137 32.0516 61.9605 31.5347 62.6307C31.1884 63.0799 30.3801 63.8649 30.6708 64.4879C30.6732 64.4929 30.6801 64.4969 30.6868 64.4969Z" fill="#253529"/>
<path d="M82.1012 35.7991C79.7352 35.2031 77.1962 36.6946 76.5492 39.0427C75.9412 41.2545 76.9872 43.7532 78.8482 45.035C80.9072 46.4547 83.8022 46.1491 85.8022 44.7796C86.8352 44.0729 87.8602 43.0007 88.1532 41.7465C88.4632 40.4234 87.9302 38.9694 87.1442 37.9069C85.5942 35.8103 82.5152 34.4583 80.0022 35.5301C79.4402 35.7702 79.8632 36.5396 80.3822 36.454C82.3162 36.1361 84.2342 36.5209 85.6772 37.9196C86.4042 38.6251 86.9512 39.5408 87.1162 40.5507C87.3122 41.7565 86.5452 42.7996 85.6752 43.5485C84.1802 44.8363 81.9162 45.3591 80.0672 44.5657C78.3562 43.8317 77.2842 41.9497 77.3052 40.1193C77.3322 37.5677 79.6202 35.7759 82.0892 35.8745C82.1332 35.8775 82.1442 35.8101 82.1012 35.7991Z" fill="#253529"/>
<path d="M80.4459 49.266C80.4299 49.3707 80.3539 49.4445 80.3379 49.5599C80.3219 49.6718 80.3369 49.802 80.3329 49.9155C80.3229 50.195 80.3239 50.4658 80.3519 50.7446C80.4079 51.2983 80.4759 51.8509 80.5389 52.4037C80.6009 52.9618 80.6739 53.518 80.7489 54.0743C80.7849 54.3411 80.8029 54.6394 80.9109 54.8868C81.0079 55.1066 81.0679 55.3504 81.2319 55.5298C81.3279 55.6348 81.5209 55.6126 81.5879 55.4867C81.7029 55.2747 81.7049 55.0203 81.7459 54.7841C81.7909 54.5177 81.7369 54.2192 81.7079 53.9519C81.6469 53.3939 81.5819 52.8366 81.5089 52.2795C81.4359 51.7278 81.3689 51.1757 81.2919 50.6246C81.2529 50.3482 81.1889 50.0831 81.1109 49.8166C81.0789 49.7056 81.0669 49.5793 81.0219 49.4736C80.9769 49.3689 80.8869 49.3132 80.8469 49.2173C80.7759 49.0508 80.4749 49.0868 80.4459 49.266Z" fill="#253529"/>
<path d="M86.0489 49.006C86.2219 49.787 86.3569 50.5741 86.5229 51.3565C86.6029 51.7329 86.6929 52.1051 86.7869 52.4788C86.8379 52.6799 86.8899 52.8792 86.9499 53.0773C87.0139 53.2859 87.0929 53.4395 87.2229 53.6148C87.3599 53.801 87.6169 53.7347 87.6449 53.5035C87.6729 53.2826 87.6649 53.1145 87.6179 52.898C87.5729 52.6956 87.5209 52.4962 87.4669 52.2968C87.3649 51.9261 87.2599 51.557 87.1449 51.1899C86.9059 50.4268 86.6369 49.6757 86.4049 48.9109C86.3339 48.6857 85.9969 48.7749 86.0489 49.006Z" fill="#253529"/>
<path d="M90.563 46.2725C90.697 46.7023 90.794 47.1408 90.942 47.5647C91.092 47.9992 91.306 48.4181 91.529 48.8202C91.743 49.2064 91.975 49.5818 92.229 49.9437C92.371 50.1468 92.519 50.3189 92.694 50.4927C92.854 50.6531 93.047 50.8761 93.292 50.8664C93.413 50.8614 93.53 50.7861 93.561 50.6645C93.619 50.4429 93.495 50.2479 93.387 50.061C93.271 49.8611 93.167 49.6726 93.033 49.483C92.775 49.1235 92.527 48.757 92.291 48.3832C92.061 48.021 91.85 47.6453 91.616 47.2873C91.364 46.9048 91.109 46.5432 90.908 46.13C90.813 45.9409 90.5 46.0702 90.563 46.2725Z" fill="#253529"/>
<path d="M75.0849 47.489C74.3099 48.2178 73.4159 48.8163 72.5349 49.4081C72.0989 49.7005 71.6489 49.975 71.1879 50.224C70.9509 50.3516 70.7019 50.4624 70.4689 50.5971C70.2639 50.7157 69.9879 50.9452 69.9279 51.1841C69.8999 51.2956 69.9409 51.4486 70.0539 51.5031C70.5779 51.7553 71.2189 51.2986 71.6499 51.0319C72.1289 50.7356 72.5879 50.4107 73.0309 50.0623C73.9089 49.3708 74.5919 48.5144 75.2499 47.6192C75.3219 47.5186 75.1699 47.409 75.0849 47.489Z" fill="#253529"/>
<path d="M71.9382 43.0021C71.6832 43.0668 71.4312 43.1392 71.1752 43.2083C70.9212 43.277 70.6492 43.2858 70.3882 43.3303C69.9022 43.4128 69.4202 43.5434 68.9342 43.6326C68.4482 43.7217 67.9652 43.8344 67.4782 43.9248C67.2342 43.9705 66.9912 44.0131 66.7462 44.0506C66.6122 44.0712 66.4582 44.0731 66.3262 44.1119C66.1942 44.1501 66.0662 44.2286 65.9392 44.2829C65.6392 44.4122 65.6992 44.9617 66.0292 45.0122C66.1642 45.0334 66.3122 45.0777 66.4482 45.08C66.5922 45.0815 66.7512 45.0387 66.8942 45.0168C67.1382 44.9784 67.3812 44.9359 67.6252 44.8902C68.1382 44.792 68.6702 44.6737 69.1662 44.5049C69.6512 44.3391 70.1772 44.1629 70.6332 43.9293C70.8512 43.8173 71.0472 43.6721 71.2622 43.5591C71.5112 43.4287 71.7622 43.3123 72.0052 43.1684C72.0942 43.1156 72.0382 42.9765 71.9382 43.0021Z" fill="#253529"/>
<path d="M71.3171 37.5813C71.0731 37.6013 70.8191 37.5917 70.5761 37.5558C70.3371 37.5206 70.0941 37.5349 69.8521 37.5215C69.3561 37.4953 68.8611 37.3907 68.3721 37.3009C67.9641 37.2258 67.5551 37.1448 67.1941 36.9353C66.9861 36.8152 66.6771 36.5993 66.6511 36.3434C66.6351 36.1958 66.4921 36.0814 66.3471 36.165C65.8981 36.4247 65.9181 37.0163 66.2041 37.3885C66.5471 37.8335 67.0701 38.0404 67.6021 38.1542C67.9161 38.2212 68.2351 38.276 68.5531 38.3007C68.8681 38.3257 69.1631 38.3085 69.4751 38.2813C69.7961 38.2533 70.1251 38.2398 70.4401 38.1715C70.7531 38.1041 71.0471 37.9474 71.3521 37.8498C71.4891 37.8061 71.4781 37.5678 71.3171 37.5813Z" fill="#253529"/>
<path d="M75.528 32.3321C75.397 32.2212 75.2721 32.1035 75.1541 31.9783C75.0291 31.8454 74.8651 31.696 74.7851 31.5302C74.6231 31.2012 74.405 30.8981 74.241 30.5645C74.087 30.2517 73.9591 29.9358 73.8691 29.5981C73.7731 29.2381 73.7401 28.8747 73.6751 28.5095C73.6341 28.2868 73.582 27.6939 73.239 27.7554C73.075 27.7852 72.998 27.9791 72.936 28.1167C72.86 28.2909 72.849 28.521 72.845 28.7112C72.833 29.4589 73.1581 30.2631 73.5371 30.8924C73.966 31.6058 74.661 32.1329 75.409 32.4829C75.501 32.528 75.619 32.4099 75.528 32.3321Z" fill="#253529"/>
<path d="M81.674 29.9485C81.596 29.7847 81.519 29.6187 81.493 29.4377C81.471 29.2852 81.478 29.174 81.454 29.0353C81.399 28.7147 81.265 28.4096 81.227 28.083C81.15 27.4406 81.105 26.8177 81.117 26.1695C81.124 25.862 81.098 25.3359 80.674 25.3176C80.231 25.2985 80.146 25.8374 80.129 26.1612C80.094 26.8254 80.191 27.5906 80.439 28.2099C80.572 28.5424 80.692 28.8824 80.866 29.1975C80.933 29.318 81.044 29.432 81.142 29.5309C81.292 29.6825 81.411 29.8536 81.538 30.0269C81.597 30.1066 81.717 30.041 81.674 29.9485Z" fill="#253529"/>
<path d="M79.4499 76.2489C81.3899 76.3739 83.3079 76.2179 85.2499 76.1439C87.1899 76.0689 89.1309 76.0769 91.0709 76.1559C91.3239 76.1669 91.6199 75.9169 91.5889 75.6459C91.3689 73.7279 91.2679 71.3839 89.4339 70.2499C87.9909 69.3549 85.9679 70.0529 85.7489 71.8259C86.0179 71.6759 86.2859 71.5239 86.5539 71.3739C84.7219 70.1989 82.2439 69.1059 80.1149 70.1639C78.4129 71.0089 77.3219 73.7019 78.6729 75.2939C78.9879 75.6659 79.5649 75.2739 79.4589 74.8449C79.2709 74.0729 79.0759 73.4039 79.3429 72.6139C79.6099 71.8239 80.2219 71.2259 81.0169 70.9769C82.7139 70.4439 84.6069 71.4099 86.0089 72.2899C86.3809 72.5229 86.7699 72.2169 86.8129 71.8359C86.8769 71.2849 87.4539 70.9129 87.9739 70.8779C88.5569 70.8389 89.0909 71.2029 89.4569 71.6249C90.3809 72.6949 90.4059 74.3069 90.5609 75.6389C90.7339 75.4689 90.9069 75.2989 91.0789 75.1289C89.0999 75.0509 87.1189 75.0479 85.1399 75.1319C83.1889 75.2129 81.2799 75.3689 79.4119 75.9499C79.2459 76.0009 79.2769 76.2379 79.4499 76.2489Z" fill="#253529"/>
<path d="M25.2904 122.756C25.6849 122.282 26.0773 121.807 26.4824 121.343C26.3529 121.288 26.2239 121.233 26.0944 121.178C25.7934 123.57 25.6995 125.961 25.5978 128.368C25.5865 128.626 25.8173 128.842 26.0675 128.847C35.7473 129.001 45.3011 130.483 54.9221 131.395C64.5731 132.31 74.2931 132.479 83.9691 131.888C85.2471 131.81 86.5441 131.764 87.8141 131.605C88.8111 131.481 89.5482 130.965 89.7252 129.935C89.9232 128.778 89.7822 127.499 89.6662 126.34C89.5372 125.053 89.3152 123.778 89.0072 122.523C88.9302 122.213 88.5912 122.116 88.3282 122.24C86.6362 123.039 84.7192 123.055 82.8862 122.942C80.9772 122.825 79.0711 122.628 77.1631 122.48C73.1201 122.166 69.0732 121.9 65.0222 121.684C57.0042 121.257 48.9771 121.025 40.9492 120.986C36.3974 120.965 31.8448 120.996 27.2936 121.1C26.6221 121.115 26.6102 122.162 27.2849 122.147C43.6714 121.772 60.0662 122.176 76.4122 123.408C78.6382 123.575 80.8652 123.814 83.0952 123.934C85.0552 124.038 86.9952 123.903 88.7892 123.045C88.5632 122.951 88.3362 122.856 88.1102 122.762C88.6462 124.888 88.9672 127.134 88.8522 129.332C88.8222 129.911 88.7012 130.434 88.0802 130.605C87.5592 130.748 86.9802 130.735 86.4452 130.775C85.2942 130.861 84.1411 130.936 82.9861 130.999C78.3731 131.255 73.7501 131.34 69.1301 131.252C64.5111 131.164 59.8962 130.905 55.2962 130.475C50.7092 130.047 46.1371 129.466 41.5584 128.964C36.4187 128.4 31.2489 127.906 26.0731 127.899C26.2298 128.057 26.3859 128.218 26.5429 128.377C26.6089 125.973 26.6825 123.585 26.5477 121.183C26.5353 120.965 26.2442 120.86 26.1235 121.064C25.8071 121.597 25.475 122.121 25.1469 122.647C25.0974 122.731 25.2241 122.836 25.2904 122.756Z" fill="#253529"/>
</g>
<defs>
<clipPath id="clip0_98_1342">
<rect width="115" height="173" fill="white"/>
</clipPath>
</defs>
</svg>
