<svg width="201" height="157" viewBox="0 0 201 157" fill="none" xmlns="http://www.w3.org/2000/svg">
<g clip-path="url(#clip0_98_1252)">
<path d="M12.8236 11.4067L6.4329 13.2727L1.6515 49.883L1.0063 94.264L0.570801 143.109L0.650902 145.385C0.650902 145.385 25.5902 147.357 26.0792 147.371C26.5682 147.385 46.3785 148.039 46.7201 147.712C47.0617 147.384 86.2732 150.285 86.2732 150.285C86.2732 150.285 88.8322 154.207 92.3452 155.232C95.8582 156.258 103.207 156.706 106.293 153.627C109.378 150.548 110.583 148.562 110.583 148.562C110.583 148.562 134.05 150.917 144.103 151.043C154.157 151.17 164.2 151.756 165.002 150.987C165.804 150.219 190.82 148.917 191.984 148.942C193.148 148.967 199.866 148.437 199.866 148.437L195.925 78.829L192.838 28.2401L191.99 14.8467L188.274 15.3531L12.8236 11.4067Z" fill="#F49425"/>
<path d="M9.68471 12.3806L5.96631 140.698C5.96631 140.698 54.7549 140.951 71.6389 144.447C88.5239 147.942 99.0899 150.127 99.0899 150.127C99.0899 150.127 109.152 144.474 131.383 144.953C153.616 145.432 187.723 142.841 189.874 142.887C192.025 142.933 194.606 132.161 194.624 131.313C194.643 130.466 193.489 79.026 193.489 79.026L190.004 15.1199L10.4927 12.3997L9.68471 12.3806Z" fill="#EAD3A4"/>
<path d="M99.3199 6.98721C88.4509 3.18951 67.8499 -0.125585 59.4029 -0.307685C50.9553 -0.489685 36.9592 1.04972 32.3956 1.81022C27.8315 2.57172 13.7562 5.70602 13.7562 5.70602L10.7176 69.485L8.74418 112.122L7.77588 138.437C7.77588 138.437 45.7825 136.516 61.3779 139.332C76.9729 142.147 88.8229 143.185 89.7269 143.596C90.6309 144.007 98.7789 146.654 98.7789 146.654C98.7789 146.654 120.128 141.942 125.823 141.784C131.518 141.626 150.188 140.985 150.188 140.985C150.188 140.985 170.152 140.85 171.587 140.88C173.022 140.912 185.254 140.943 187.312 140.017C189.37 139.091 191.898 136.797 191.898 136.797L192.022 131.04L189.74 27.3858L187.164 10.9423L185.505 8.12451C185.505 8.12451 160.964 2.64162 143.508 2.26502C126.053 1.89062 107.961 5.25741 99.3199 6.98721Z" fill="#F7F5DC"/>
<path d="M7.84668 136.553C14.7819 131.234 27.2995 129.303 33.2838 128.6C39.268 127.897 54.4739 129.856 68.9919 134.213C83.5099 138.57 96.4109 141.914 96.4109 141.914L99.8249 142.455C99.8249 142.455 116.05 136.076 123.594 134.086C131.139 132.096 140.682 131.193 140.682 131.193C140.682 131.193 158.896 130.542 161.896 130.607C164.895 130.671 191.421 133.547 191.421 133.547C191.421 133.547 193.339 134.966 192.819 135.465C192.298 135.964 190.725 139.92 187.884 140.055C185.043 140.19 178.194 140.188 178.194 140.188L142.957 140.723L125.255 141.814L100.191 146.426L97.5319 146.369L88.6319 143.183L74.6639 140.533L59.3029 138.92L41.1114 138.528L18.7969 138.741L10.8839 139.027L7.90078 138.832L7.84668 136.553Z" fill="#E2DEBC"/>
<path d="M75.7738 21.9614L73.4788 22.0592L75.0598 55.0859L73.1528 90.3269C73.1528 90.3269 92.7308 89.9559 92.8748 88.8919C93.0178 87.8289 93.6988 50.6609 93.7238 49.4869C93.7488 48.3129 91.9158 23.4128 91.6618 23.6562C91.4088 23.9001 75.7738 21.9614 75.7738 21.9614Z" fill="#6AA378"/>
<path d="M23.1631 97.673L22.6147 123.102C22.6147 123.102 26.6599 121.885 35.0061 122.064C43.3523 122.244 57.3848 124.184 62.8528 125.049C68.3218 125.914 74.6729 127.877 77.2719 128.325C79.8719 128.772 87.6148 132.674 87.6378 131.624C87.6608 130.575 87.8749 120.635 88.0309 113.443C88.1859 106.251 86.7168 101.783 86.7168 101.783C86.7168 101.783 61.1068 95.5 54.9328 95.427C48.7596 95.355 38.4591 95.072 36.1118 95.022C33.7637 94.971 23.1631 97.673 23.1631 97.673Z" fill="#23685B"/>
<path d="M158.441 78.269C147.438 78.032 140.471 88.005 139.781 92.784C139.091 97.563 140.478 109.527 146.612 113.624C152.746 117.72 157.484 120.367 165.541 118.78C173.599 117.192 180.231 114.204 181.208 107.18C182.186 100.156 180.809 92.918 176.566 88.489C172.324 84.059 170.032 78.519 158.441 78.269Z" fill="#F49425"/>
<path d="M125.044 18.4396C112.43 15.6731 108.062 31.5321 113.486 40.1291C118.911 48.7271 125.145 49.8341 130.724 44.4921C136.302 39.1481 138.253 37.3309 136.209 31.1904C134.164 25.0494 131.535 19.8636 125.044 18.4396Z" fill="#E2DEBC"/>
<path d="M7.47198 137.052C12.5592 133.885 18.0531 131.49 23.9247 130.239C29.9512 128.955 36.1542 128.733 42.2825 129.267C49.1978 129.87 56.0059 131.373 62.7109 133.126C69.5239 134.906 76.2829 136.896 83.0619 138.803C86.4659 139.76 89.8679 140.718 93.2719 141.676C94.9739 142.155 96.6759 142.633 98.3779 143.112C99.2159 143.348 99.4369 143.299 100.232 142.95C101.174 142.538 102.119 142.133 103.068 141.737C108.971 139.273 115.01 137.122 121.176 135.415C131.928 132.438 142.996 130.952 154.15 130.914C165.121 130.876 176.032 132.138 186.88 133.668C188.326 133.871 189.769 134.089 191.213 134.306C192.338 134.475 192.559 132.903 191.417 132.755C179.681 131.239 167.902 129.732 156.052 129.632C144.204 129.533 132.412 131.008 120.987 134.163C113.436 136.248 106.091 139.006 98.9309 142.172C99.0899 142.151 99.2499 142.13 99.4099 142.108C92.8359 140.262 86.2629 138.417 79.6899 136.57C73.2859 134.772 66.8919 132.913 60.4309 131.33C48.6088 128.433 36.1655 126.631 24.1094 129.2C18.0539 130.49 12.0649 132.797 7.30998 136.843C7.19528 136.942 7.34498 137.13 7.47198 137.052Z" fill="#253529"/>
<path d="M100.294 142.686C100.661 138.272 100.582 133.838 100.578 129.413C100.575 124.989 100.584 120.564 100.566 116.141C100.529 107.293 100.501 98.445 100.448 89.597C100.344 71.901 100.239 54.206 100.134 36.5093C100.105 31.5439 100.076 26.5785 100.046 21.6118C100.031 19.1741 100.017 16.7367 100.002 14.299C99.9869 11.8268 100.136 9.3139 99.7249 6.8747C99.6569 6.4739 98.9749 6.4726 98.9119 6.8776C98.5699 9.064 98.7029 11.2804 98.7159 13.4914C98.7279 15.6577 98.7409 17.8253 98.7529 19.9916C98.7779 24.4159 98.8039 28.8402 98.8289 33.2631C98.8799 42.112 98.9299 50.959 98.9809 59.807C99.0829 77.503 99.1869 95.199 99.3199 112.896C99.3569 117.861 99.4149 122.827 99.4689 127.793C99.5229 132.757 99.4559 137.742 99.9259 142.689C99.9489 142.922 100.275 142.922 100.294 142.686Z" fill="#253529"/>
<path d="M7.98325 136.007C8.68735 127.531 8.97825 119.013 9.38025 110.518C9.78185 102.022 10.1843 93.526 10.5868 85.03C11.3864 68.125 12.1825 51.22 12.9781 34.3139C13.2019 29.5461 13.427 24.7777 13.6508 20.0099C13.8747 15.2509 14.2545 10.4688 14.265 5.70515C14.2665 5.04095 13.3093 5.06824 13.2507 5.70804C12.8616 9.93744 12.791 14.2094 12.5913 18.4519C12.3912 22.6998 12.1911 26.9478 11.9901 31.1952C11.5899 39.691 11.1883 48.187 10.788 56.683C9.99055 73.588 9.20075 90.494 8.40785 107.399C7.96155 116.928 7.36466 126.469 7.25786 136.008C7.25156 136.483 7.94455 136.466 7.98325 136.007Z" fill="#253529"/>
<path d="M13.9663 5.99247C19.5368 4.92857 25.0294 3.53547 30.6345 2.64077C36.2503 1.74457 41.9222 1.18587 47.6045 0.953472C58.938 0.490472 70.324 1.33227 81.46 3.48827C84.54 4.08487 87.6 4.78177 90.634 5.57907C92.187 5.98747 93.735 6.42268 95.275 6.88308C96.007 7.10248 96.739 7.32818 97.468 7.56018C97.83 7.67508 98.206 7.77647 98.561 7.91247C98.649 7.94637 98.794 8.04447 98.884 8.06047C98.939 8.09157 98.991 8.12588 99.042 8.16288C99.207 7.56038 99.352 7.59408 99.478 8.26448C99.878 7.70308 98.95 7.17057 98.552 7.72697C97.966 8.55017 99.238 9.21078 99.899 8.75708C100.292 8.48698 100.369 7.96378 100.196 7.54078C99.971 6.98878 99.46 6.74487 98.931 6.55537C95.988 5.50517 92.916 4.71358 89.888 3.94928C83.892 2.43598 77.802 1.31907 71.662 0.584274C59.297 -0.896426 46.7551 -0.769128 34.4207 0.949772C30.9367 1.43567 27.468 2.04127 24.0318 2.79487C20.5733 3.55337 17.187 4.41247 13.8875 5.70617C13.7098 5.77667 13.7762 6.02907 13.9663 5.99247Z" fill="#253529"/>
<path d="M100.134 8.01657C102.858 7.88087 105.558 7.01247 108.223 6.46557C110.967 5.90257 113.725 5.40426 116.494 4.97516C122.054 4.11316 127.656 3.55516 133.275 3.25866C144.478 2.66736 155.748 3.20197 166.839 4.89247C173.076 5.84267 179.228 7.17937 185.314 8.83207C185.167 8.47497 185.021 8.11707 184.874 7.75997C184.685 8.07837 184.226 8.05216 183.962 7.85476C183.526 7.52956 182.996 8.15276 183.248 8.57296C183.917 9.68986 185.494 9.57556 186.136 8.49366C186.377 8.08796 186.149 7.54447 185.697 7.42157C174.762 4.45297 163.473 2.67037 152.165 2.01317C140.922 1.36017 129.63 1.86396 118.489 3.50776C115.335 3.97296 112.194 4.52746 109.074 5.18586C107.552 5.50706 106.035 5.84927 104.523 6.21367C102.988 6.58427 101.457 6.97616 100.043 7.68886C99.889 7.76756 99.963 8.02477 100.134 8.01657Z" fill="#253529"/>
<path d="M186.113 8.36996C186.331 9.23106 186.48 10.1074 186.684 10.9701C186.905 11.9059 187.166 12.8323 187.369 13.7728C187.766 15.6078 188.03 17.4749 188.219 19.3414C188.608 23.1708 188.671 27.0284 188.791 30.8729C189.049 39.1051 189.303 47.3361 189.521 55.5681C189.959 72.035 190.266 88.5051 190.445 104.975C190.495 109.634 190.534 114.293 190.563 118.951C190.577 121.281 190.588 123.61 190.597 125.939C190.605 128.24 190.473 130.569 190.828 132.845C190.922 133.45 191.955 133.445 192.047 132.841C192.359 130.802 192.252 128.743 192.245 126.682C192.238 124.603 192.228 122.523 192.216 120.443C192.192 116.284 192.158 112.123 192.116 107.964C192.032 99.6451 191.911 91.326 191.755 83.008C191.443 66.374 190.981 49.735 190.295 33.1113C190.115 28.7443 190.021 24.3556 189.577 20.0058C189.367 17.9491 189.063 15.9069 188.574 13.8958C188.328 12.8868 188.047 11.8918 187.673 10.9219C187.317 9.99695 186.781 9.14286 186.249 8.31026C186.203 8.24236 186.091 8.28696 186.113 8.36996Z" fill="#253529"/>
<path d="M6.91522 13.8165C8.49842 13.254 10.0967 12.7177 11.7663 12.4829C12.1659 12.427 12.568 12.389 12.9703 12.3643C13.2018 12.3501 13.4583 12.3714 13.6352 12.1927C13.7572 12.0697 13.8325 11.8851 13.8387 11.7124C13.8617 11.0131 12.8941 10.6017 12.535 11.24C12.3868 11.5037 12.6328 11.7845 12.9112 11.7263C12.7051 11.4961 12.6375 11.4521 12.7085 11.5944C12.7205 11.6337 12.7397 11.6697 12.7652 11.702C12.8637 11.7922 12.7488 11.6441 12.806 11.5562C12.9575 11.4687 13.1091 11.3811 13.2601 11.2944C10.9712 11.4149 8.59202 11.9041 6.59972 13.0749C6.21492 13.3015 6.47072 13.974 6.91522 13.8165Z" fill="#253529"/>
<path d="M6.33832 13.2178C5.92932 14.1209 5.64492 14.9622 5.41472 15.9277C5.15502 17.0134 4.94682 18.1074 4.74302 19.2036C4.35122 21.3114 3.99613 23.426 3.67333 25.545C3.03223 29.7576 2.52332 33.9867 2.12012 38.2289C1.31452 46.7079 0.896122 55.2189 0.660222 63.7309C0.177222 81.0779 0.233422 98.4439 0.106022 115.796C0.0706224 120.728 0.0338221 125.66 -0.00167791 130.592C-0.0195779 133.058 -0.0384763 135.524 -0.0559763 137.989C-0.0739763 140.453 -0.169178 142.927 -0.0203776 145.387C0.0323224 146.255 1.25802 146.243 1.32262 145.383C1.48722 143.187 1.44182 140.979 1.45652 138.778C1.47162 136.576 1.48532 134.374 1.50042 132.172C1.52932 127.769 1.55823 123.365 1.58703 118.962C1.64443 110.243 1.70132 101.525 1.75872 92.8049C1.87122 75.7219 1.77402 58.6049 3.12222 41.5619C3.49382 36.8578 3.98102 32.1612 4.58682 27.4812C4.90002 25.0639 5.25582 22.6529 5.64882 20.2477C6.02842 17.9316 6.57282 15.6222 6.54242 13.2714C6.53992 13.1712 6.38502 13.1148 6.33832 13.2178Z" fill="#253529"/>
<path d="M0.392341 145.944C8.51324 147.253 16.7728 147.689 24.9862 147.952C33.2444 148.216 41.5083 148.236 49.7691 148.372C58.0141 148.507 66.2641 148.757 74.4811 149.485C76.5801 149.671 78.6761 149.887 80.7671 150.141C81.7911 150.265 82.8141 150.398 83.8351 150.542C84.3411 150.614 84.8471 150.69 85.3531 150.763C85.9181 150.844 85.9681 150.93 86.3141 151.37C88.2121 153.787 90.8891 155.555 93.8301 156.432C100.567 158.441 107.949 155.108 111.111 148.871C110.936 148.972 110.76 149.074 110.585 149.174C132.955 151.885 155.572 152.485 178.054 150.941C184.394 150.506 190.721 149.896 197.03 149.124C197.798 149.029 197.804 147.81 197.026 147.905C174.658 150.644 152.044 151.275 129.56 149.751C123.219 149.321 116.891 148.719 110.583 147.953C110.385 147.929 110.143 148.086 110.057 148.256C107.134 154.021 100.395 157.11 94.1541 155.248C92.6551 154.8 91.2371 154.098 89.9661 153.186C89.3331 152.732 88.7421 152.219 88.1971 151.663C87.6741 151.13 87.2691 150.307 86.7071 149.85C86.1871 149.427 85.0031 149.477 84.3501 149.384C83.4101 149.25 82.4691 149.125 81.5281 149.007C79.5641 148.76 77.5951 148.547 75.6251 148.361C59.6221 146.856 43.5301 147.222 27.481 146.797C18.4641 146.558 9.48974 145.953 0.520339 144.999C-0.0160611 144.943 -0.141759 145.858 0.392341 145.944Z" fill="#253529"/>
<path d="M188.087 15.119C189.394 15.2529 190.674 15.3356 191.989 15.3199C191.832 15.1633 191.674 15.0068 191.517 14.8502C191.583 19.2119 191.973 23.5842 192.225 27.9389C192.479 32.3029 192.752 36.6649 193.014 41.0281C193.532 49.6661 194.04 58.3041 194.556 66.9421C195.593 84.3071 196.598 101.675 197.569 119.044C198.117 128.842 198.655 138.641 199.182 148.441C199.349 148.221 199.514 148.001 199.681 147.78C198.71 148.011 197.832 148.287 196.91 148.668C196.474 148.848 196.468 149.617 197.035 149.573C198.077 149.495 199.031 149.339 200.048 149.097C200.326 149.031 200.563 148.726 200.547 148.437C199.602 131.065 198.624 113.696 197.613 96.3281C196.602 78.9591 195.561 61.5931 194.457 44.2301C194.146 39.3331 193.834 34.4358 193.515 29.5385C193.196 24.6493 193.006 19.7169 192.458 14.8473C192.432 14.6132 192.261 14.3513 191.986 14.3776C190.659 14.5034 189.372 14.7205 188.069 14.9967C187.996 15.0114 188.022 15.1131 188.087 15.119Z" fill="#253529"/>
<path d="M7.52692 136.55C7.50712 137.295 7.49752 138.038 7.54612 138.782C7.55972 138.992 7.71002 139.15 7.92472 139.158C11.0671 139.286 14.2267 139.225 17.3719 139.246C20.5207 139.267 23.6694 139.274 26.8189 139.281C32.9418 139.295 39.065 139.291 45.1878 139.344C56.7341 139.445 68.3631 139.783 79.7441 141.897C86.1081 143.079 92.3821 144.825 98.3471 147.355C98.5721 147.449 98.9021 147.482 99.0781 147.258C100.173 145.865 100.821 144.233 100.861 142.452C100.879 141.691 99.7421 141.712 99.6901 142.456C99.5901 143.886 99.1091 145.272 98.2231 146.407C98.4661 146.375 98.7101 146.342 98.9541 146.311C88.2531 141.812 76.7521 139.802 65.2261 138.948C53.2811 138.062 41.2724 138.318 29.3042 138.32C25.7826 138.321 22.2601 138.314 18.7387 138.33C15.1381 138.347 11.5222 138.265 7.92432 138.404C8.04612 138.497 8.16752 138.588 8.28922 138.681C8.18352 137.947 8.02292 137.227 7.85072 136.506C7.80482 136.322 7.53162 136.369 7.52692 136.55Z" fill="#253529"/>
<path d="M98.9561 147.185C100.56 147.073 102.08 146.558 103.635 146.164C105.197 145.768 106.761 145.373 108.332 145.014C111.518 144.285 114.733 143.68 117.97 143.221C124.429 142.303 130.954 141.937 137.471 141.744C150.765 141.35 164.073 141.27 177.371 141.032C179.281 140.997 181.192 140.959 183.103 140.922C184.706 140.891 186.33 140.846 187.89 140.438C190.468 139.765 193.121 137.548 192.758 134.621C192.676 133.963 191.631 133.965 191.72 134.625C192.108 137.533 189.24 139.192 186.762 139.571C185.312 139.792 183.814 139.748 182.351 139.769C180.69 139.793 179.028 139.816 177.367 139.844C170.846 139.949 164.325 140.053 157.804 140.161C151.351 140.269 144.894 140.36 138.442 140.549C132.075 140.736 125.704 141.077 119.384 141.902C115.89 142.359 112.419 142.969 108.978 143.733C107.248 144.117 105.52 144.525 103.813 145C102.121 145.47 100.365 145.857 98.8311 146.726C98.6261 146.842 98.7091 147.201 98.9561 147.185Z" fill="#253529"/>
<path d="M23.133 16.8713C24.7509 16.4591 26.316 15.9134 27.8825 15.3395C29 14.9298 30.5849 14.3592 31.6027 15.2686C31.8214 15.4639 32.1224 15.4645 32.3411 15.2662C33.123 14.5588 33.9036 13.8519 34.6855 13.1446C34.4363 13.1447 34.1877 13.1461 33.9381 13.1471C34.8399 13.8723 35.7403 14.5979 36.6442 15.3208C36.8622 15.4945 37.1888 15.5499 37.4005 15.3181C37.9594 14.7058 38.5182 14.0935 39.0771 13.4812C38.7976 13.4455 38.5186 13.411 38.2387 13.3762C39.4931 15.1622 41.7738 15.3357 43.7816 15.352C45.8262 15.3685 48.1608 15.209 49.5889 13.5471C49.3394 13.5481 49.0898 13.5492 48.8398 13.5488C50.821 15.7337 53.8212 14.2546 56.0242 13.3685C56.6842 13.103 57.2962 12.8493 58.0022 12.972C58.5992 13.0757 59.2002 13.0609 59.7952 12.9496C61.0392 12.7161 62.1032 12.0046 62.8632 11.005C62.5432 10.9643 62.2232 10.9232 61.9042 10.8825C62.1622 12.4221 63.7472 13.0994 65.1312 13.3106C66.5702 13.531 68.7332 13.1588 69.6242 14.6162C69.7632 14.8428 70.1022 14.9642 70.3382 14.801C71.7892 13.7927 73.4622 13.2806 75.2302 13.3225C75.1082 13.272 74.9852 13.2224 74.8622 13.1715C75.5962 13.7518 76.2512 14.3692 77.1432 14.6795C77.9692 14.9663 78.8252 15.1436 79.6942 15.2376C81.4932 15.4317 83.3272 15.1803 85.0162 14.5343C84.8012 14.4133 84.5862 14.2923 84.3712 14.1712C84.5352 15.19 85.2252 15.9395 86.2692 15.9939C86.5862 16.0105 86.6292 15.603 86.4152 15.448C85.9042 15.0785 85.4802 14.5166 85.3792 13.8902C85.3372 13.6286 84.9772 13.4337 84.7352 13.5272C83.4622 14.0151 82.1312 14.2728 80.7662 14.2591C80.0572 14.2514 79.3532 14.177 78.6602 14.026C78.0382 13.8903 77.2932 13.7417 76.7712 13.3647C76.3322 13.0467 75.8302 12.4159 75.2962 12.294C74.7242 12.164 73.9782 12.3182 73.4102 12.4149C72.1162 12.6352 70.8872 13.1566 69.8112 13.903C70.0492 13.9643 70.2872 14.0265 70.5242 14.0873C69.6882 12.7192 68.0712 12.4717 66.5942 12.3827C65.3062 12.305 63.1862 12.225 62.9162 10.6005C62.8322 10.0983 62.1942 10.1655 61.9572 10.4781C61.2892 11.3563 60.2172 11.9086 59.1212 11.984C58.5942 12.0203 58.1242 11.8297 57.6172 11.8134C57.0512 11.7961 56.3622 12.1084 55.8432 12.3128C54.0312 13.0246 51.2687 14.6526 49.5886 12.7975C49.4065 12.5956 49.0196 12.591 48.8395 12.7992C47.6373 14.1974 45.6795 14.2932 43.9607 14.2883C42.3559 14.2844 40.1897 14.3011 39.1606 12.8336C38.9729 12.5656 38.5701 12.4565 38.3222 12.7285C37.7624 13.3403 37.204 13.9517 36.6442 14.5636C36.896 14.5625 37.1487 14.5619 37.4004 14.5609C36.4969 13.8371 35.5904 13.1174 34.6856 12.3963C34.4541 12.2115 34.1685 12.1883 33.9382 12.3989C33.1595 13.1089 32.3817 13.8193 31.6029 14.5293C31.8489 14.5288 32.0949 14.5283 32.3413 14.5269C31.17 13.4894 29.6006 13.685 28.2138 14.1362C26.401 14.725 24.619 15.5044 22.9193 16.3638C22.6316 16.5097 22.836 16.9471 23.133 16.8713Z" fill="#253529"/>
<path d="M22.7304 24.1708C24.05 23.8715 25.3079 23.4156 26.5502 22.8819C26.3625 22.8585 26.1753 22.8342 25.9876 22.8108C26.9839 23.8744 28.829 23.8117 29.7352 22.6588C29.4619 22.5004 29.1882 22.3429 28.9159 22.185C28.8003 22.9672 29.2814 23.5101 30.0247 23.7146C30.3944 23.8165 30.7822 23.8237 31.158 23.7507C31.6386 23.6563 32.258 23.3358 32.7517 23.489C33.2019 23.6289 33.3615 24.1879 33.8488 24.3292C34.276 24.4523 34.709 24.3003 35.092 24.1162C35.6143 23.8652 36.0583 23.6174 36.6605 23.6388C37.2475 23.6595 37.7555 23.8908 38.202 24.2624C38.6968 24.6741 39.3902 24.0094 38.918 23.5419C38.3011 22.933 37.4324 22.5997 36.5671 22.605C36.1565 22.6078 35.7437 22.684 35.3625 22.8345C35.0077 22.9744 34.4314 23.4715 34.05 23.2839C33.893 23.2065 33.7625 22.9374 33.6212 22.8209C33.4858 22.7084 33.3435 22.6192 33.1774 22.5585C32.8131 22.4248 32.43 22.4376 32.0532 22.4991C31.6349 22.5682 31.23 22.7538 30.8097 22.7997C30.6158 22.8211 29.813 22.7822 29.8602 22.4427C29.9164 22.032 29.3812 21.5272 29.0409 21.9689C28.4572 22.7259 27.3324 22.8396 26.6413 22.1523C26.4861 21.998 26.2655 21.9897 26.0787 22.0813C24.8938 22.6639 23.7629 23.3184 22.7029 24.1062C22.6723 24.1303 22.6903 24.1802 22.7304 24.1708Z" fill="#253529"/>
<path d="M45.3783 22.4014C45.7735 22.5879 46.0381 22.771 46.4801 22.8268C46.9092 22.8819 47.3255 22.8786 47.7551 22.8183C48.6267 22.695 49.4532 22.3762 50.1839 21.8841C49.9227 21.6849 49.6611 21.4843 49.3999 21.2851C49.0955 22.2179 49.7483 23.279 50.7314 23.4044C51.7001 23.5272 52.3641 22.7148 52.9993 22.1217C53.3798 21.7664 53.5238 21.6753 53.9198 22.0466C54.3528 22.4541 54.7768 22.6734 55.3798 22.7127C56.0838 22.7593 56.8158 22.6447 57.5178 22.5957C58.3468 22.5372 59.1768 22.4791 60.0058 22.4206C59.8638 22.3627 59.7218 22.3039 59.5788 22.2456C60.6348 23.1801 62.2258 23.6735 63.5938 23.1608C64.3098 22.8929 64.0338 21.8512 63.2728 22.0096C62.6398 22.141 62.0458 22.1835 61.4218 21.9727C61.0718 21.8549 60.7928 21.6649 60.4978 21.4522C60.1828 21.2272 60.0278 21.2141 59.6288 21.2459C58.7998 21.3098 57.9708 21.3736 57.1408 21.4375C56.4938 21.4877 55.4488 21.7655 54.8768 21.3565C54.4278 21.035 54.1708 20.6121 53.5538 20.6123C53.1258 20.6122 52.7549 20.8333 52.4377 21.0994C52.0691 21.4094 51.7779 21.8094 51.3929 22.0982C51.2164 22.2303 51.0202 22.3595 50.7937 22.2994C50.4711 22.2127 50.3374 21.8564 50.4267 21.5652C50.5571 21.1415 50.0265 20.6957 49.6427 20.9661C49.0366 21.392 48.3848 21.6967 47.6538 21.8373C47.3008 21.9048 46.9375 21.9384 46.578 21.946C46.2243 21.9531 45.8325 22.0273 45.4839 22.0079C45.2803 21.9968 45.1903 22.3122 45.3783 22.4014Z" fill="#253529"/>
<path d="M22.9004 35.7757C23.1282 35.7552 23.3387 35.7797 23.5533 35.695C23.7706 35.6094 23.9802 35.4366 24.1815 35.3154C24.7052 34.9996 25.2262 34.678 25.7463 34.3537C26.751 33.7279 27.7465 33.0866 28.7461 32.4528C28.5601 32.4536 28.374 32.4543 28.1884 32.4542C28.3985 32.6075 28.4166 33.0643 28.4895 33.2965C28.5767 33.5746 28.6924 33.8489 28.9001 34.0599C29.5244 34.6969 30.4852 34.3878 31.2471 34.2522C32.3027 34.0637 33.3574 33.8703 34.4125 33.676C35.4279 33.4902 36.5204 33.1595 37.5568 33.1774C38.5011 33.1927 39.1233 33.8342 39.9532 34.1764C40.7134 34.4904 41.4859 34.4178 42.2305 34.0937C43.0445 33.7388 45.4018 31.808 46.0757 33.3175C46.3005 33.8203 46.9835 33.5909 47.1363 33.1759C47.4223 32.3976 48.2373 31.9332 49.0368 31.8737C49.4269 31.8442 49.8234 31.9046 50.1721 32.0886C50.6211 32.3246 50.8918 32.7831 51.2902 33.0868C52.1762 33.7643 53.277 33.4876 54.176 32.9851C54.687 32.6998 55.185 32.268 55.771 32.1461C56.006 32.0969 56.235 32.0868 56.438 32.2321C56.54 32.3061 56.808 32.5888 56.688 32.7387C56.346 33.166 56.653 33.8853 57.259 33.7121C58.8 33.2722 60.348 32.8595 61.915 32.5239C62.355 32.4296 64.742 31.7798 64.812 32.749C64.841 33.1423 65.309 33.5409 65.694 33.2521C66.278 32.8122 66.94 32.5248 67.675 32.4624C68.351 32.4052 69.032 32.5286 69.712 32.5C69.955 32.4901 70.055 32.2153 69.902 32.0394C68.719 30.6806 66.36 31.2965 65.101 32.2435C65.395 32.4106 65.689 32.5782 65.983 32.7466C65.877 31.2863 64.29 30.9597 63.075 31.1173C61.008 31.3847 58.946 32.017 56.947 32.5886C57.137 32.9134 57.327 33.2382 57.518 33.5621C58.346 32.5282 57.504 31.0926 56.261 30.9585C55.47 30.8735 54.742 31.2743 54.091 31.6721C53.415 32.0871 52.551 32.6889 51.8396 32.0274C51.3605 31.581 50.9973 31.1432 50.3658 30.9052C49.8255 30.7015 49.2365 30.6643 48.6691 30.7521C47.456 30.9397 46.4437 31.714 46.0183 32.8704C46.3716 32.8231 46.7257 32.7762 47.0789 32.7288C46.4656 31.3578 44.649 31.4855 43.5139 32.0434C42.7675 32.41 42.0812 33.0671 41.2384 33.209C40.3006 33.368 39.5856 32.5468 38.7686 32.2331C37.8464 31.8794 36.8707 32.0544 35.9289 32.226C34.8341 32.4266 33.7384 32.6289 32.6436 32.8295C32.0758 32.9338 31.5086 33.0395 30.9413 33.1474C30.574 33.2168 29.851 33.5102 29.6137 33.1247C29.4552 32.8675 29.4464 32.4897 29.327 32.2093C29.1966 31.9035 29.0153 31.6908 28.7452 31.4984C28.5933 31.3901 28.3398 31.4015 28.1875 31.4998C27.1947 32.1447 26.1961 32.7833 25.2083 33.4362C24.7315 33.7515 24.2547 34.069 23.7815 34.3905C23.5587 34.5424 23.2616 34.6848 23.0718 34.8739C22.9011 35.0444 22.8271 35.2219 22.7056 35.4353C22.6249 35.5739 22.7248 35.7915 22.9004 35.7757Z" fill="#253529"/>
<path d="M73.3082 22.0602C73.3012 24.2907 73.5582 26.4869 73.7732 28.7055C73.9902 30.9231 74.1582 33.1454 74.2842 35.369C74.5332 39.7809 74.6262 44.2009 74.5912 48.6199C74.5202 57.5329 73.9822 66.4309 73.2412 75.3119C72.8212 80.3429 72.3422 85.3669 71.8612 90.3929C71.8312 90.7069 72.1732 91.0429 72.4832 91.0119C79.2542 90.3619 86.0482 89.9759 92.8482 89.8609C93.2022 89.8549 93.4362 89.5799 93.4632 89.2419C94.1292 80.7779 94.4822 72.2899 94.5192 63.7999C94.5582 55.2679 94.2792 46.7349 93.6792 38.2249C93.3422 33.4378 92.9022 28.6577 92.3652 23.8889C92.3292 23.5669 92.1112 23.2666 91.7502 23.2778C89.0962 23.3612 86.4402 23.2488 83.8042 22.9313C81.1392 22.6101 78.5342 21.9787 75.8982 21.498C75.2852 21.3859 75.0682 22.2055 75.6452 22.4249C78.1832 23.3893 80.8832 23.8254 83.5722 24.1504C86.2862 24.4791 89.0222 24.5893 91.7542 24.5027C91.5492 24.2988 91.3442 24.0945 91.1392 23.8915C92.0922 32.3288 92.7342 40.7999 93.0562 49.2849C93.3812 57.8099 93.3862 66.3469 93.0682 74.8729C92.8902 79.6689 92.6082 84.4609 92.2302 89.2449C92.4342 89.0379 92.6392 88.8319 92.8442 88.6259C86.0432 88.7369 79.2492 89.1169 72.4792 89.7679C72.6862 89.9749 72.8942 90.1809 73.1012 90.3879C73.9542 81.4699 74.8032 72.5499 75.3222 63.6049C75.8392 54.6879 76.0282 45.7419 75.5092 36.8204C75.3652 34.3524 75.1712 31.8862 74.9182 29.4265C74.6612 26.92 74.3792 24.4266 73.6442 22.0113C73.5892 21.829 73.3092 21.8629 73.3082 22.0602Z" fill="#253529"/>
<path d="M25.0014 44.4399C25.0742 43.6699 25.1315 42.9959 25.7545 42.4439C26.2784 41.9789 27.1386 41.9119 27.7739 42.1719C28.3854 42.4209 28.722 43.0479 29.2861 43.3749C29.8092 43.6779 30.4195 43.6209 30.8621 43.2039C31.2099 42.8779 31.3747 42.2939 31.9387 42.4239C32.4149 42.5329 32.8355 42.8679 33.2695 43.0799C33.7075 43.2929 34.1742 43.4699 34.6698 43.3999C34.935 43.3619 35.1656 43.2629 35.3826 43.1069C35.5055 43.0189 35.6134 42.9149 35.7291 42.8189C35.7888 42.7629 35.8536 42.7119 35.9242 42.6699C36.031 42.6989 36.0596 42.6629 36.012 42.5619C35.8898 42.9139 36.388 43.1859 36.6323 42.9209C37.1038 42.4109 36.6707 41.6369 36.0223 41.5709C35.2468 41.4919 34.9293 42.4859 34.1866 42.3049C33.0511 42.0289 31.8743 40.6669 30.7228 41.7589C30.506 41.9649 30.2662 42.5569 29.9325 42.5499C29.5912 42.5429 29.1869 41.9519 28.9454 41.7489C28.3643 41.2609 27.5823 40.9969 26.8232 41.1099C26.0423 41.2279 25.313 41.7189 24.9435 42.4249C24.6317 43.0179 24.4782 43.8919 24.8623 44.4769C24.9059 44.5419 24.9941 44.5119 25.0014 44.4399Z" fill="#253529"/>
<path d="M43.0423 42.141C43.6016 43.163 45.1395 43.271 46.1221 42.873C46.5914 42.683 47.1967 42.138 47.7304 42.27C48.0053 42.339 48.2577 42.631 48.5069 42.761C48.7296 42.877 48.9813 42.952 49.2344 42.948C49.649 42.942 50.0088 42.728 50.3054 42.454C50.6215 42.162 50.876 41.65 51.2606 41.447C51.7683 41.178 52.2107 41.741 52.587 42.035C53.064 42.408 53.575 42.729 54.128 42.976C55.12 43.419 56.274 43.658 57.314 43.241C57.828 43.035 58.171 42.693 58.56 42.318C58.717 42.166 58.844 42.005 59.063 42.091C59.255 42.167 59.422 42.502 59.548 42.663C60.169 43.462 61.055 43.804 61.951 43.194C62.368 42.911 62.679 42.508 63.051 42.174C63.589 41.691 64.14 41.681 64.806 41.896C66.025 42.292 67.01 43.05 68.355 42.913C69.318 42.815 70.407 42.202 70.164 41.086C70.079 40.692 69.529 40.663 69.336 40.981C68.179 42.887 65.748 40.677 64.204 40.566C63.067 40.483 62.384 41.184 61.632 41.913C61.353 42.184 61.079 42.486 60.716 42.207C60.366 41.939 60.187 41.482 59.842 41.198C58.96 40.477 58.163 41.084 57.496 41.733C56.693 42.515 55.593 42.37 54.635 41.954C54.141 41.74 53.668 41.452 53.244 41.12C52.81 40.78 52.4066 40.386 51.8485 40.267C50.9164 40.069 50.3392 40.758 49.7903 41.384C49.3906 41.84 49.2213 41.937 48.6872 41.571C48.1973 41.237 47.704 41.076 47.1141 41.233C46.4947 41.397 46.0038 41.854 45.3835 42.016C44.6424 42.209 44.0252 41.935 43.3094 41.791C43.1072 41.749 42.9386 41.952 43.0423 42.141Z" fill="#253529"/>
<path d="M20.4451 57.4229C22.0935 57.3309 22.8515 55.8919 23.9944 54.9459C25.6357 53.5859 26.7985 55.7799 28.2018 56.4049C29.9553 57.1849 31.1539 55.7109 32.2997 54.6309C32.8892 54.0739 33.5359 53.6769 34.3296 54.1009C35.1691 54.5489 35.7676 55.3439 36.7072 55.6229C37.6913 55.9159 38.6476 55.5239 39.5014 55.0489C40.3001 54.6039 41.2112 53.8509 42.1696 54.2099C42.0514 53.9219 41.9342 53.6349 41.816 53.3469C41.443 54.1059 41.6841 54.8629 42.3352 55.3789C43.0311 55.9309 43.894 56.0289 44.7223 55.7469C45.6477 55.4329 46.5442 54.6639 47.5679 54.7769C48.4975 54.8789 49.2648 55.5749 49.4921 56.4679C49.5605 56.7389 49.8122 56.8919 50.0749 56.9089C51.5945 57.0129 52.5985 55.7359 53.835 55.0979C54.565 54.7209 54.79 55.1509 55.228 55.7189C55.776 56.4299 56.567 56.6299 57.387 56.2719C58.208 55.9119 58.804 55.1889 59.764 55.4709C60.758 55.7629 61.54 55.9709 62.54 55.5619C63.459 55.1859 64.299 54.5179 65.34 54.8059C66.308 55.0739 67.099 55.7719 68.059 56.0659C69.521 56.5129 72.141 55.4739 71.193 53.6029C70.922 53.0689 70.224 53.4779 70.303 53.9819C70.4 54.6079 69.496 54.9079 69.025 54.9449C68.152 55.0139 67.358 54.3609 66.61 53.9979C65.825 53.6159 65.013 53.3819 64.139 53.5599C63.267 53.7379 62.562 54.3499 61.705 54.5529C60.799 54.7669 59.979 54.0789 59.06 54.1559C58.28 54.2219 57.703 54.7429 57.036 55.0849C56.672 55.2699 56.456 55.2939 56.18 54.9609C55.907 54.6329 55.735 54.2789 55.374 54.0279C54.9 53.6969 54.335 53.6329 53.785 53.7999C52.4882 54.1969 51.4985 55.7969 50.0694 55.7039C50.2639 55.8499 50.4578 55.9979 50.6522 56.1449C50.2552 54.6049 48.7483 53.4709 47.1462 53.5829C46.2108 53.6479 45.4538 54.1779 44.612 54.5239C44.2046 54.6919 43.811 54.8109 43.386 54.6419C43.1399 54.5449 42.6711 54.2619 42.8289 53.9379C43.0064 53.5749 42.8472 53.2139 42.4753 53.0749C40.5684 52.3689 39.3292 54.3739 37.5871 54.5629C36.6258 54.6669 35.9045 53.7559 35.1745 53.2749C34.418 52.7749 33.5323 52.6049 32.6877 52.9809C31.9298 53.3189 31.375 53.9689 30.8036 54.5469C30.2787 55.0779 29.6315 55.7139 28.818 55.4759C27.9838 55.2309 27.379 54.4209 26.6769 53.9469C25.9838 53.4789 25.1403 53.2789 24.3381 53.5769C23.5115 53.8849 22.9342 54.6129 22.4127 55.2899C21.8639 56.0029 21.3273 56.9239 20.4051 57.1629C20.2659 57.1989 20.2931 57.4319 20.4451 57.4229Z" fill="#253529"/>
<path d="M22.9231 65.4411C24.0417 64.2061 25.3177 62.3791 27.2077 62.5721C28.9486 62.7481 28.7492 64.7121 29.9541 65.5501C31.3104 66.4931 32.3612 65.1181 33.1441 64.1751C33.6996 63.5061 34.2977 63.1601 35.1882 63.1991C36.0804 63.2401 36.9277 63.5761 37.7671 63.8501C39.2875 64.3481 41.2892 64.6101 42.4415 63.2371C42.1126 63.1021 41.7837 62.9661 41.4548 62.8311C41.583 63.9311 42.4088 64.5051 43.4422 64.7261C44.7652 65.0101 46.1534 64.9271 47.4917 65.1401C49.9483 65.5331 53.33 65.8031 54.627 63.0991C54.294 63.1001 53.962 63.1011 53.629 63.1021C54.368 64.1561 55.552 64.4121 56.763 64.5531C58.386 64.7421 59.96 65.0241 61.509 65.5611C62.971 66.0671 64.421 66.9711 66.013 66.9401C67.192 66.9181 68.489 66.3641 68.827 65.1541C68.984 64.5971 68.263 64.3821 67.956 64.7891C66.285 67.0091 63.23 64.8801 61.264 64.2631C60.035 63.8791 58.774 63.6241 57.496 63.4751C56.556 63.3661 55.232 63.3801 54.626 62.5151C54.398 62.1901 53.832 62.0951 53.628 62.5181C52.5848 64.6951 49.7434 64.3351 47.7962 64.0241C46.6945 63.8481 45.6098 63.7991 44.5019 63.7131C43.9267 63.6681 42.7048 63.5831 42.6109 62.8271C42.5573 62.3931 41.9798 61.9891 41.6238 62.4211C40.5498 63.7271 38.5994 62.9301 37.2768 62.5211C35.7271 62.0431 33.9433 61.7891 32.7054 63.0711C32.2306 63.5631 31.8981 64.2591 31.3337 64.6581C30.6291 65.1591 30.1886 64.3631 29.9159 63.8151C29.601 63.1811 29.3089 62.5381 28.7125 62.1181C28.1301 61.7081 27.3887 61.5611 26.6868 61.6261C24.6432 61.8131 23.4369 63.5131 22.6583 65.2381C22.5864 65.4001 22.7853 65.5941 22.9231 65.4411Z" fill="#253529"/>
<path d="M22.0723 78.962C22.731 77.279 23.8279 75.945 25.1475 74.73C24.898 74.699 24.6486 74.668 24.3982 74.636C25.3273 76.085 27.0872 76.882 28.792 76.636C30.5348 76.386 31.9406 75.083 32.4681 73.428C32.0996 73.429 31.7311 73.43 31.3626 73.431C31.6637 74.516 32.6144 75.108 33.6856 75.268C34.9691 75.459 36.0832 75.029 37.2786 74.624C37.9933 74.382 38.7723 74.131 39.5325 74.28C40.2362 74.418 40.8332 74.894 41.466 75.205C41.9921 75.463 42.5647 75.669 43.1587 75.56C43.7854 75.447 44.19 75.038 44.5833 74.572C44.9611 74.124 45.263 73.926 45.8139 74.236C46.3477 74.535 46.7962 74.965 47.3541 75.226C48.8261 75.915 50.1142 74.879 51.5868 74.867C52.3493 74.861 53.1091 75.002 53.8681 75.064C54.7661 75.138 55.6661 75.169 56.5671 75.176C58.3301 75.19 60.0931 75.127 61.8551 75.086C64.5431 75.023 68.0551 75.098 69.5851 72.454C69.8141 72.06 69.2771 71.643 68.9531 71.969C67.2011 73.726 64.5391 73.805 62.2211 73.859C59.0381 73.934 55.8611 74.07 52.6886 73.726C51.9716 73.647 51.2722 73.613 50.5606 73.764C49.8926 73.906 49.2365 74.26 48.5447 74.272C47.4099 74.292 46.6897 73.052 45.5896 72.863C45.1236 72.783 44.6678 72.893 44.2812 73.162C43.8388 73.47 43.576 74.125 43.0733 74.322C42.547 74.529 41.9283 74.082 41.4895 73.834C40.9381 73.523 40.3778 73.207 39.7468 73.091C38.1975 72.809 36.8225 73.636 35.3765 74.021C34.4302 74.273 32.798 74.294 32.4652 73.126C32.306 72.57 31.5258 72.595 31.3596 73.129C30.9716 74.38 29.8776 75.375 28.569 75.576C27.2207 75.783 25.9549 75.098 25.1426 74.059C24.9893 73.862 24.6255 73.887 24.4691 74.06C23.2283 75.437 22.4026 77.143 21.8283 78.899C21.78 79.051 22.0145 79.108 22.0723 78.962Z" fill="#253529"/>
<path d="M21.212 85.124C21.8768 84.865 22.7645 84.931 23.4511 85.099C24.2014 85.282 24.616 85.85 25.288 86.148C26.5479 86.709 27.3598 85.365 27.6979 84.361C27.3718 84.362 27.0454 84.363 26.7193 84.364C27.0644 85.5 28.221 85.865 29.2913 85.992C30.1315 86.091 30.9809 86.137 31.8243 86.207C32.6636 86.275 33.5788 86.49 34.3761 86.154C34.6196 86.051 34.7 85.73 34.4496 85.575C33.897 85.234 33.3182 85.222 32.6844 85.178C31.9441 85.127 31.2033 85.078 30.463 85.027C29.6668 84.972 28.0068 85.068 27.6962 84.09C27.5427 83.605 26.8724 83.614 26.7176 84.093C26.5711 84.547 26.2533 85.48 25.6229 85.224C25.3844 85.127 25.1908 84.896 24.9794 84.75C24.7423 84.586 24.4896 84.461 24.2205 84.358C23.0563 83.912 22.082 84.173 21.1105 84.886C21.0059 84.967 21.0651 85.181 21.212 85.124Z" fill="#253529"/>
<path d="M44.3847 84.4941C44.3631 84.7991 44.4644 85.1331 44.673 85.3541C44.6404 85.2741 44.6073 85.1961 44.5746 85.1171C44.5622 85.4421 44.8668 85.6071 45.1417 85.6731C45.2902 85.7081 45.4723 85.6771 45.5774 85.5561C45.9496 85.1291 46.3133 84.6941 46.6787 84.2601C46.4448 84.2611 46.2122 84.2621 45.9783 84.2631C46.4534 84.7451 47.1198 84.9931 47.7956 84.9521C48.1496 84.9311 48.4742 84.8421 48.7867 84.6721C48.9289 84.5951 49.0839 84.4961 49.1971 84.3791C49.2634 84.3121 49.3229 84.2261 49.3662 84.1411C49.42 84.0371 49.4108 83.9331 49.4467 83.8271C49.5416 83.5491 49.1995 83.3201 48.9636 83.4581C48.932 83.4771 48.9001 83.4941 48.8672 83.5121C48.9287 83.4951 48.9915 83.4781 49.0531 83.4611C48.8822 83.4561 48.7357 83.5121 48.5872 83.5941C48.537 83.6221 48.4895 83.6551 48.4393 83.6831C48.4424 83.6811 48.3005 83.7531 48.3544 83.7301C48.2484 83.7761 48.1347 83.8041 48.0219 83.8301C47.9077 83.8571 47.8157 83.8751 47.7625 83.8791C47.5043 83.8981 47.3919 83.8871 47.155 83.8181C46.9845 83.7691 46.8086 83.6801 46.6767 83.5601C46.4164 83.3251 46.0975 83.4041 45.8996 83.6631C45.5554 84.1131 45.2097 84.5601 44.8718 85.0161C45.0002 84.9411 45.1296 84.8671 45.2584 84.7921C45.0683 84.7871 44.9244 84.7201 44.7396 84.8281C44.8523 84.8271 44.9645 84.8271 45.0772 84.8261C44.8628 84.7301 44.7487 84.6901 44.6839 84.4531C44.6368 84.2801 44.3967 84.3281 44.3847 84.4941Z" fill="#253529"/>
<path d="M57.5598 85.366C58.6758 85.393 59.8178 84.665 60.7028 84.054C60.4778 83.996 60.2548 83.9381 60.0298 83.8801C60.7978 85.4951 62.8268 85.763 64.1528 84.687C64.4068 84.482 64.5858 84.3151 64.9298 84.3541C65.2178 84.3881 65.4918 84.519 65.7818 84.562C66.3028 84.638 66.8018 84.513 67.2918 84.345C67.7378 84.192 68.1958 83.9671 68.6798 84.0031C69.1478 84.0391 69.2828 84.2671 69.5508 84.6041C69.8428 84.9701 70.3178 84.6161 70.3628 84.2641C70.4668 83.4441 69.4948 82.99 68.8218 82.922C67.7648 82.814 66.8168 83.649 65.7868 83.427C65.2628 83.314 64.7968 83.1201 64.2618 83.3071C63.8158 83.4621 63.5398 83.844 63.1478 84.077C62.3768 84.535 61.2798 84.1531 60.8778 83.3821C60.7648 83.1651 60.4108 83.054 60.2058 83.208C59.3298 83.861 58.2268 84.34 57.4518 85.107C57.3548 85.202 57.4298 85.363 57.5598 85.366Z" fill="#253529"/>
<path d="M23.42 98.1431C23.1601 106.462 22.8113 114.767 22.0792 123.061C22.0407 123.492 22.5591 123.693 22.8881 123.522C26.5453 121.618 30.9038 122.231 34.8489 122.542C39.1771 122.883 43.5054 123.233 47.8266 123.665C56.4671 124.527 65.0961 125.711 73.5381 127.783C78.2521 128.94 82.8941 130.378 87.4071 132.164C87.7801 132.312 88.0791 131.942 88.1131 131.623C89.1541 121.827 88.8421 111.926 87.2191 102.211C87.1891 102.025 86.9981 101.861 86.8231 101.817C78.4051 99.6791 69.9551 97.5901 61.3751 96.1981C52.9953 94.8381 44.3678 94.0611 35.8889 94.8571C31.4489 95.2741 27.0685 96.2201 23.0242 98.1431C22.2755 98.4981 22.9319 99.6071 23.6771 99.2541C30.9385 95.8211 39.3519 95.5691 47.2365 95.9091C55.7651 96.2781 64.2191 97.6961 72.5441 99.5371C77.2261 100.571 81.8771 101.732 86.5241 102.91C86.3921 102.778 86.2591 102.647 86.1271 102.516C87.7371 112.126 88.0181 121.938 86.9941 131.627C87.2291 131.447 87.4641 131.266 87.6991 131.086C79.4811 127.84 70.8581 125.776 62.1471 124.379C53.4481 122.984 44.6631 122.222 35.885 121.535C31.4087 121.185 26.4948 120.429 22.3419 122.598C22.612 122.751 22.8807 122.905 23.1508 123.059C23.8706 114.779 24.3679 106.454 24.3476 98.1421C24.348 97.5401 23.4393 97.5451 23.42 98.1431Z" fill="#253529"/>
<path d="M154.603 79.8541C150.446 79.8471 146.341 81.2261 143.366 84.2111C140.14 87.4471 138.959 92.2551 139.012 96.7111C139.117 105.582 144.318 113.836 152.401 117.551C156.333 119.357 160.762 120.127 165.065 119.576C167.62 119.249 170.138 118.539 172.551 117.645C174.588 116.889 176.587 115.916 178.19 114.422C181.578 111.264 182.085 106.197 181.791 101.821C181.505 97.5691 180.279 93.3521 178.068 89.6971C175.676 85.7421 172.223 82.8781 168.131 80.7941C166.993 80.2141 165.83 79.6841 164.663 79.1651C163.534 78.6631 162.396 78.1181 161.18 77.8641C159.879 77.5941 158.599 77.7481 157.302 77.9571C155.956 78.1731 154.611 78.3931 153.266 78.6121C151.878 78.8371 150.504 79.0811 149.136 79.4021C148.581 79.5321 148.69 80.4731 149.275 80.4141C151.834 80.1611 154.363 79.6741 156.896 79.2431C158.165 79.0271 159.469 78.7471 160.757 78.9801C161.993 79.2021 163.148 79.7481 164.287 80.2561C168.365 82.0751 172.291 84.1481 175.194 87.6311C177.75 90.6991 179.392 94.4741 180.177 98.3721C180.577 100.355 180.743 102.381 180.69 104.402C180.631 106.567 180.351 108.818 179.417 110.797C177.488 114.882 172.959 116.481 168.893 117.611C164.604 118.804 160.227 118.951 155.935 117.688C151.995 116.53 148.375 114.302 145.639 111.23C142.905 108.158 141.113 104.293 140.395 100.254C139.643 96.0271 140.027 91.2281 142.154 87.4341C144.139 83.8941 147.726 81.5861 151.578 80.5381C152.569 80.2681 153.576 80.1241 154.601 80.0781C154.75 80.0741 154.75 79.8541 154.603 79.8541Z" fill="#253529"/>
<path d="M120.724 19.1384C118.187 19.7192 115.989 20.8365 114.24 22.7918C112.544 24.6879 111.386 27.1039 111.034 29.6258C110.601 32.7332 111.374 35.9965 112.36 38.9331C113.284 41.6841 114.717 44.3191 117.071 46.0971C119.522 47.9491 122.468 48.2971 125.396 47.5011C128.131 46.7581 130.831 45.3781 132.996 43.5471C135.169 41.7101 136.71 39.2301 137.127 36.3932C137.547 33.5387 136.947 30.6366 135.832 28.0041C134.589 25.0707 132.699 22.1831 130.195 20.1762C127.667 18.1504 123.944 16.8424 120.854 18.3646C120.228 18.673 120.675 19.6439 121.323 19.4698C124.08 18.7304 126.764 19.296 129.043 21.0129C131.103 22.5645 132.693 24.7852 133.902 27.0396C136.35 31.6039 137.113 37.3939 133.396 41.5171C131.741 43.3511 129.575 44.6661 127.321 45.6351C124.636 46.7901 121.621 47.4341 118.91 46.0061C116.539 44.7571 114.927 42.5001 113.91 40.0731C112.797 37.4153 111.993 34.3647 111.956 31.476C111.921 28.7929 112.84 26.1873 114.472 24.062C116.04 22.0188 118.302 20.1307 120.786 19.3636C120.93 19.3199 120.87 19.105 120.724 19.1384Z" fill="#253529"/>
<path d="M142.421 20.278C142.639 19.5331 143.15 18.9035 143.767 18.4435C143.659 18.4434 143.551 18.4446 143.444 18.4445C143.852 18.6917 143.985 19.4147 144.162 19.83C144.342 20.252 144.562 20.6892 144.999 20.8918C145.596 21.1686 146.147 20.8436 146.608 20.4663C147.433 19.7911 148.235 19.0866 149.056 18.4061C148.751 18.2812 148.447 18.1558 148.142 18.0308C148.064 19.8198 150.117 20.5307 151.598 20.3276C152.696 20.1775 153.666 19.5637 154.74 19.3151C155.924 19.0415 156.771 19.6541 157.834 20.0407C158.329 20.2212 158.844 20.295 159.37 20.2502C159.984 20.1986 160.634 19.9766 161.251 20.0896C162.237 20.2699 162.835 21.265 163.882 21.3915C164.767 21.4983 165.587 21.1098 166.366 20.7402C166.758 20.5537 167.151 20.3543 167.574 20.2485C168.119 20.1123 168.48 20.2665 168.972 20.5025C169.879 20.9378 170.724 20.8371 171.541 20.2599C172.271 19.7432 172.9 18.9513 173.829 18.8183C173.586 18.681 173.341 18.5433 173.098 18.406C173.332 19.5685 174.367 20.3136 175.47 20.5817C176.152 20.7476 176.849 20.7183 177.54 20.6398C177.934 20.5952 178.325 20.5318 178.718 20.4884C178.953 20.4625 179.189 20.4402 179.425 20.4317C179.504 20.43 179.582 20.4282 179.662 20.4277C179.97 20.4954 180.182 20.3437 180.296 19.9725C180.138 19.8012 179.82 19.8853 179.769 20.1139C179.645 20.6668 180.379 20.9067 180.737 20.5347C180.996 20.2647 180.93 19.8446 180.703 19.5806C180.414 19.2449 179.945 19.2358 179.541 19.2426C178.083 19.267 174.696 20.3426 174.242 18.0869C174.172 17.7442 173.808 17.6315 173.51 17.6747C172.775 17.7809 172.183 18.228 171.623 18.6865C171.116 19.1014 170.501 19.7724 169.783 19.5632C169.325 19.431 168.949 19.1248 168.469 19.0394C168.09 18.9717 167.705 19.0024 167.331 19.0897C166.507 19.2819 165.795 19.7698 165.007 20.0537C164.678 20.1719 164.316 20.2775 163.963 20.2148C163.478 20.1281 163.091 19.7621 162.701 19.4901C161.856 18.9025 161.036 18.8285 160.035 18.9748C159.492 19.0543 158.965 19.146 158.426 18.992C157.907 18.8435 157.433 18.5684 156.936 18.3647C156.013 17.9859 155.088 17.9766 154.135 18.2619C153.128 18.563 152.137 19.2141 151.064 19.223C150.322 19.2282 149.213 18.9339 149.211 18.0269C149.21 17.5425 148.635 17.3509 148.298 17.6516C147.686 18.1974 147.068 18.7339 146.452 19.2739C146.255 19.4461 145.734 20.0847 145.438 20.0156C145.289 19.9806 145.208 19.7968 145.141 19.6741C144.729 18.9216 144.566 18.1863 143.687 17.859C143.586 17.8212 143.447 17.8648 143.376 17.9425C142.759 18.6176 142.478 19.3636 142.331 20.254C142.321 20.3118 142.404 20.3377 142.421 20.278Z" fill="#253529"/>
<path d="M143.317 29.5761C144.336 29.7355 145.341 29.6196 146.313 29.2755C146.787 29.1078 147.25 28.9027 147.689 28.6594C148.168 28.3959 148.666 27.9266 149.216 27.8336C149.914 27.7149 149.87 28.2561 150.013 28.7505C150.12 29.1183 150.35 29.4323 150.654 29.6601C151.278 30.1277 152.142 30.2163 152.878 30.0006C153.896 29.7025 154.619 28.8987 155.543 28.4295C155.955 28.2205 156.478 28.0509 156.939 28.1786C157.416 28.3092 157.669 28.81 158.027 29.1141C159.5 30.3619 161.583 29.94 163.32 29.6723C164.715 29.4577 166.124 29.3296 167.535 29.278C169.004 29.2248 170.458 29.3355 171.924 29.3558C172.556 29.3648 172.732 28.3109 172.074 28.2199C169.635 27.8805 167.049 28.0356 164.612 28.3246C163.518 28.4541 162.433 28.6916 161.333 28.7778C160.39 28.8519 159.352 28.8188 158.634 28.1184C157.949 27.4499 157.43 26.9181 156.388 27.0121C155.37 27.1045 154.585 27.6804 153.776 28.2498C153.119 28.7121 152.039 29.3968 151.262 28.7503C150.904 28.4516 151.007 27.9182 150.791 27.5297C150.597 27.1795 150.244 26.9433 149.861 26.8461C148.759 26.5686 147.895 27.4441 147.018 27.9428C145.876 28.5916 144.586 28.9066 143.315 29.1915C143.131 29.2324 143.12 29.5452 143.317 29.5761Z" fill="#253529"/>
<path d="M144.551 35.7185C143.867 35.6738 143.518 36.3997 143.789 36.966C143.862 37.1194 144.075 37.1505 144.211 37.0756C145.998 36.0882 147.921 35.4508 149.984 35.7353C151.016 35.8776 151.883 36.279 152.809 36.7226C153.721 37.1605 154.517 37.1367 155.42 36.7008C155.769 36.5323 156.099 36.3094 156.467 36.1845C157.021 35.9967 157.399 36.2774 157.876 36.5301C158.632 36.9313 159.432 37.0274 160.274 36.9106C161.154 36.7894 161.987 36.4826 162.842 36.2521C163.592 36.0496 164.435 35.8635 165.166 36.2296C165.632 36.4632 165.995 36.8528 166.486 37.0463C167.015 37.2542 167.545 37.2074 168.053 36.9571C168.643 36.6656 169.181 36.2267 169.724 35.8579C170.305 35.4623 170.887 35.0666 171.468 34.6709C171.178 34.3821 170.887 34.093 170.596 33.8038C170.177 34.6685 170.06 35.5244 170.208 36.4714C170.276 36.908 170.816 37.0093 171.143 36.8491C172.687 36.0907 174.23 35.3332 175.774 34.5748C175.461 34.3359 175.149 34.0962 174.835 33.8569C174.324 35.4042 175.682 36.8871 177.173 37.1025C177.993 37.2208 178.83 36.9663 179.54 36.5643C180.265 36.155 181.048 35.5949 181.262 34.7638C181.337 34.4713 181.068 34.2015 180.776 34.2795C179.694 34.5676 179.056 35.6471 177.885 35.8284C176.977 35.9687 175.721 35.2374 176.066 34.1919C176.253 33.6236 175.592 33.2454 175.126 33.4738C173.583 34.2326 172.041 34.992 170.498 35.7517C170.809 35.8775 171.122 36.0037 171.433 36.1294C171.341 35.5468 171.439 34.9692 171.694 34.4418C171.947 33.9179 171.391 33.1879 170.823 33.5748C169.802 34.2706 168.8 35.0095 167.753 35.6661C167.202 36.0118 166.924 35.9026 166.418 35.5429C166.041 35.2752 165.67 35.0316 165.221 34.9002C163.532 34.4049 161.888 35.3862 160.261 35.6804C159.859 35.7529 159.434 35.7823 159.033 35.6929C158.561 35.5881 158.175 35.2848 157.735 35.0987C156.888 34.7401 156.11 34.9891 155.338 35.4065C154.986 35.596 154.611 35.8659 154.204 35.9161C153.622 35.987 153.08 35.5857 152.574 35.3619C151.711 34.9803 150.804 34.7508 149.865 34.6656C147.743 34.4725 145.362 35.0399 143.835 36.5915C143.98 36.5907 144.126 36.5906 144.272 36.5903C144.101 36.2796 144.195 36.0691 144.551 35.96C144.704 35.9417 144.71 35.7292 144.551 35.7185Z" fill="#253529"/>
<path d="M177.158 29.1101C177.389 28.7117 177.876 28.3735 178.352 28.514C178.584 28.582 178.817 28.6344 179.04 28.7316C179.291 28.8411 179.53 28.9762 179.78 29.0879C180.266 29.3042 180.766 29.4239 181.297 29.3003C181.783 29.1866 182.298 28.8141 182.377 28.2899C182.486 27.5713 181.545 27.3019 181.284 27.9922C181.321 27.8966 181.171 28.1585 181.244 28.0674C181.166 28.1649 181.301 28.0462 181.193 28.1127C181.182 28.1195 181.059 28.1808 181.112 28.1588C181.166 28.1358 181.031 28.1825 181.017 28.1858C180.969 28.1984 180.92 28.2079 180.872 28.2156C180.817 28.2242 180.911 28.2165 180.815 28.2189C180.754 28.2205 180.695 28.2216 180.634 28.2187C180.571 28.2158 180.536 28.2077 180.414 28.1742C180.289 28.1389 180.166 28.0938 180.045 28.0468C179.79 27.9486 179.542 27.8369 179.277 27.7647C178.74 27.6174 178.259 27.718 177.808 28.0348C177.441 28.2934 177.149 28.6142 176.981 29.0347C176.938 29.1399 177.105 29.2042 177.158 29.1101Z" fill="#253529"/>
<path d="M138.97 47.52C140.533 47.535 141.981 46.829 143.381 46.183C143.136 46.044 142.892 45.904 142.648 45.764C142.616 47.055 143.991 47.506 145.069 47.336C145.743 47.231 146.245 46.894 146.755 46.456C147.366 45.933 147.984 45.199 148.836 45.116C148.682 44.85 148.528 44.584 148.374 44.318C147.728 45.722 149.09 47.071 150.498 46.999C151.385 46.954 152.167 46.527 152.952 46.151C153.851 45.719 154.807 45.444 155.583 46.229C156.11 46.762 156.581 47.311 157.357 47.445C158.219 47.595 159.045 47.218 159.792 46.83C160.418 46.505 161.114 46.088 161.854 46.217C162.619 46.35 162.49 47.226 162.754 47.788C163.154 48.639 164.055 48.741 164.841 48.363C165.878 47.865 166.85 47.159 167.832 46.559C167.568 46.49 167.303 46.422 167.039 46.353C168.071 48.532 170.991 46.965 172.529 46.424C175.253 45.466 178.152 45.391 180.942 46.095C180.809 45.863 180.677 45.63 180.544 45.398C180.402 45.776 180.093 46.071 179.798 46.337C179.6 46.516 179.817 46.789 180.039 46.748C180.618 46.64 181.055 46.328 181.494 45.948C181.826 45.662 181.628 45.107 181.24 44.999C178.783 44.32 176.146 44.299 173.668 44.886C172.533 45.155 171.506 45.65 170.407 46.017C169.686 46.258 168.457 46.646 168.038 45.766C167.905 45.486 167.493 45.407 167.244 45.56C166.738 45.87 166.232 46.18 165.727 46.49C165.265 46.773 164.728 47.243 164.203 47.391C163.679 47.539 163.705 46.954 163.607 46.578C163.517 46.238 163.382 45.902 163.134 45.643C161.938 44.394 160.16 45.393 158.935 45.991C158.478 46.214 157.91 46.468 157.395 46.294C156.994 46.16 156.724 45.779 156.44 45.489C155.817 44.85 155.09 44.503 154.186 44.593C153.207 44.691 152.397 45.223 151.52 45.612C151.068 45.813 150.503 46.022 150.007 45.873C149.623 45.758 149.089 45.304 149.294 44.854C149.442 44.528 149.273 44.01 148.832 44.055C147.565 44.185 146.801 45.07 145.872 45.837C145.469 46.169 145.044 46.373 144.513 46.363C144.11 46.355 143.618 46.241 143.62 45.763C143.621 45.372 143.209 45.188 142.887 45.345C141.558 45.993 140.119 46.408 138.891 47.231C138.764 47.315 138.81 47.519 138.97 47.52Z" fill="#253529"/>
<path d="M144.365 64.361C144.39 64.362 144.391 64.322 144.365 64.322C144.34 64.321 144.34 64.36 144.365 64.361Z" fill="#253529"/>
<path d="M146.251 61.3451C145.973 61.6991 145.676 62.0801 145.331 62.3681C145.161 62.5111 145.001 62.6771 144.835 62.8241C144.658 62.9811 144.5 63.1621 144.326 63.3241C143.657 63.9471 142.922 64.4911 142.188 65.0341C141.978 65.1901 141.873 65.4561 142.016 65.6991C142.146 65.9191 142.458 66.0131 142.681 65.8711C143.509 65.3401 144.231 64.6541 144.864 63.9091C145.176 63.5411 145.468 63.1581 145.702 62.7371C145.939 62.3131 146.169 61.8831 146.381 61.4441C146.418 61.3661 146.312 61.2671 146.251 61.3451Z" fill="#253529"/>
<path d="M143.12 62.7719C143.15 62.6339 143.169 62.4939 143.233 62.3679C143.296 62.2469 143.36 62.1509 143.406 62.0189C143.23 62.0669 143.053 62.1139 142.877 62.1609C143.066 62.3199 143.141 62.4539 143.32 62.6219C143.398 62.6969 143.468 62.7769 143.54 62.8569C143.636 62.9659 143.494 62.7879 143.579 62.9059C143.616 62.9559 143.651 63.0069 143.686 63.0579C143.928 63.4209 144.126 63.8139 144.317 64.2069C144.512 64.6099 144.701 65.0159 144.935 65.3979C145.065 65.6099 145.208 65.8429 145.39 66.0129C145.64 66.2489 145.983 66.3179 146.29 66.1449C146.72 65.9039 146.506 65.2669 146.045 65.2509C145.941 65.2469 146.008 65.2439 146.07 65.2699C146.167 65.3109 146.255 65.4499 146.148 65.3039C146.135 65.2859 145.998 65.1079 146.059 65.1889C146.029 65.1499 146.001 65.1109 145.973 65.0699C145.85 64.8959 145.739 64.7129 145.635 64.5269C145.424 64.1509 145.242 63.7599 145.041 63.3779C144.834 62.9859 144.603 62.6139 144.307 62.2829C144.162 62.1209 143.993 61.9509 143.808 61.8359C143.631 61.7249 143.405 61.6719 143.185 61.6279C142.932 61.5779 142.756 61.7759 142.797 62.0199C142.817 62.1419 142.874 62.2359 142.903 62.3529C142.935 62.4819 142.933 62.6129 142.937 62.7469C142.94 62.8489 143.097 62.8789 143.12 62.7719Z" fill="#253529"/>
<path d="M147.687 63.695C146.52 63.73 145.337 63.638 144.177 63.49C143.608 63.417 143.046 63.321 142.492 63.174C142.132 63.078 141.163 62.744 141.156 63.43C141.15 64.048 142.112 64.157 142.553 64.252C143.118 64.374 143.697 64.464 144.274 64.488C145.464 64.538 146.611 64.283 147.704 63.818C147.763 63.793 147.764 63.693 147.687 63.695Z" fill="#253529"/>
<path d="M134.442 61.99C134.276 62.101 134.118 62.231 133.976 62.373C133.833 62.515 133.724 62.692 133.582 62.835C133.431 62.988 133.299 63.159 133.159 63.323C133.019 63.488 132.864 63.638 132.723 63.802C132.165 64.45 131.59 65.085 130.982 65.688C131.227 65.687 131.471 65.687 131.716 65.686C131.689 65.655 131.689 65.634 131.709 65.674C131.694 65.644 131.693 65.616 131.7 65.657C131.69 65.602 131.666 65.517 131.663 65.484C131.656 65.416 131.693 65.286 131.753 65.214C131.835 65.118 131.78 64.973 131.651 64.967C131.031 64.938 130.643 65.6429 130.85 66.1929C130.983 66.5459 131.428 66.721 131.719 66.42C132.336 65.781 132.913 65.111 133.443 64.398C133.565 64.235 133.665 64.057 133.778 63.887C133.897 63.709 134.03 63.532 134.126 63.34C134.328 62.941 134.559 62.584 134.631 62.134C134.648 62.034 134.545 61.921 134.442 61.99Z" fill="#253529"/>
<path d="M130.981 62.5569C131.279 62.9389 131.589 63.3009 131.924 63.6489C132.252 63.9879 132.576 64.3519 132.863 64.7289C133.148 65.1019 133.38 65.5049 133.633 65.8989C133.896 66.3109 134.244 66.7759 134.721 66.9449C135.167 67.1029 135.518 66.4619 135.178 66.1529C135.006 65.9969 134.848 65.9049 134.694 65.7249C134.572 65.5809 134.456 65.3989 134.348 65.2299C134.076 64.8059 133.795 64.3939 133.472 64.0059C132.845 63.2479 132.071 62.5949 131.102 62.3489C130.971 62.3149 130.908 62.4649 130.981 62.5569Z" fill="#253529"/>
<path d="M136.16 64.4659C135.856 64.4619 135.575 64.4079 135.274 64.3729C135.008 64.3429 134.74 64.3429 134.473 64.3219C133.948 64.2809 133.434 64.2839 132.907 64.2999C132.385 64.3169 131.863 64.3389 131.341 64.3639C131.115 64.3749 130.773 64.4499 130.55 64.3979C130.394 64.3609 130.296 64.2429 130.117 64.2649C129.853 64.2979 129.699 64.4489 129.668 64.7159C129.667 64.7299 129.665 64.7429 129.664 64.7569C129.644 64.9359 129.777 65.0909 129.91 65.1849C130.3 65.4569 130.78 65.3779 131.224 65.3529C131.767 65.3239 132.308 65.2929 132.85 65.2549C133.389 65.2169 133.927 65.1829 134.459 65.0799C134.73 65.0269 135.006 65.0009 135.276 64.9449C135.577 64.8819 135.851 64.7889 136.16 64.7549C136.341 64.7339 136.35 64.4679 136.16 64.4659Z" fill="#253529"/>
<path d="M132.619 61.8139C132.443 61.9719 132.376 62.2359 132.31 62.4569C132.23 62.7279 132.133 63.0019 132.087 63.2799C132.001 63.8079 131.925 64.3399 131.927 64.8749C131.928 65.4209 131.98 65.9589 132.075 66.4949C132.175 67.0539 132.313 67.6079 132.682 68.0539C132.876 68.2889 133.23 68.0799 133.241 67.8209C133.263 67.3209 133.11 66.8299 133.013 66.3449C132.913 65.8429 132.846 65.3299 132.813 64.8189C132.782 64.3169 132.751 63.8219 132.784 63.3179C132.799 63.0689 132.782 62.8259 132.809 62.5759C132.833 62.3459 132.893 62.0869 132.816 61.8639C132.785 61.7789 132.686 61.7529 132.619 61.8139Z" fill="#253529"/>
<path d="M161.342 61.2139C160.371 61.8779 159.355 62.4669 158.392 63.1419C157.916 63.4759 157.439 63.8059 156.977 64.1579C156.56 64.4759 155.864 64.8329 155.92 65.4309C155.929 65.5289 155.979 65.5969 156.072 65.6309C156.633 65.8299 157.117 65.2709 157.524 64.9489C157.993 64.5759 158.44 64.1799 158.892 63.7889C159.781 63.0179 160.6 62.1739 161.479 61.3929C161.575 61.3069 161.448 61.1409 161.342 61.2139Z" fill="#253529"/>
<path d="M156.169 61.368C156.633 61.315 156.977 61.664 157.185 62.053C157.308 62.284 157.355 62.575 157.412 62.83C157.473 63.1 157.515 63.375 157.573 63.647C157.69 64.194 157.86 64.72 158.075 65.235C158.286 65.739 158.498 66.436 159.006 66.704C159.247 66.832 159.541 66.671 159.545 66.393C159.55 66.032 159.386 65.789 159.227 65.481C159.087 65.209 158.958 64.933 158.845 64.649C158.618 64.08 158.441 63.495 158.272 62.906C158.12 62.377 157.9 61.782 157.435 61.443C157.053 61.165 156.603 61.051 156.146 61.193C156.052 61.22 156.064 61.38 156.169 61.368Z" fill="#253529"/>
<path d="M158.482 60.496C158.214 61.407 158.097 62.325 158.02 63.272C157.982 63.736 157.957 64.204 157.949 64.671C157.942 65.093 157.822 65.756 158.081 66.115C158.267 66.372 158.609 66.382 158.79 66.112C159.032 65.753 158.909 65.137 158.907 64.721C158.904 64.255 158.897 63.789 158.89 63.322C158.877 62.384 158.862 61.462 158.751 60.531C158.734 60.385 158.529 60.338 158.482 60.496Z" fill="#253529"/>
<path d="M154.876 64.177C155.502 64.218 156.123 64.208 156.748 64.246C157.336 64.281 157.905 64.388 158.471 64.55C159.039 64.712 159.581 64.938 160.122 65.175C160.391 65.294 160.66 65.427 160.936 65.528C161.22 65.631 161.55 65.78 161.854 65.751C162.06 65.732 162.211 65.524 162.096 65.327C161.938 65.062 161.654 64.904 161.402 64.738C161.12 64.553 160.811 64.403 160.504 64.265C159.89 63.99 159.258 63.746 158.607 63.576C157.374 63.255 155.888 63.177 154.829 63.993C154.751 64.053 154.774 64.169 154.876 64.177Z" fill="#253529"/>
<path d="M106.886 85.591C106.769 85.67 106.581 85.754 106.45 85.824C106.52 85.913 106.589 86.003 106.658 86.093C107.461 85.325 108.008 84.345 108.763 83.54C109.653 82.592 110.644 82.819 111.555 83.611C112.398 84.345 113.251 85.255 114.464 85.204C115.639 85.155 116.252 84.241 117.148 83.641C117.548 83.374 118.063 83.159 118.534 83.361C118.98 83.552 119.319 83.928 119.775 84.115C120.937 84.593 121.92 84.148 122.907 83.519C123.368 83.225 123.898 82.823 124.468 82.808C124.958 82.795 125.333 83.049 125.685 83.352C126.604 84.141 127.691 83.879 128.761 83.505C129.375 83.291 129.879 83.101 130.54 83.187C131.433 83.302 132.286 83.663 133.141 83.923C134.002 84.184 134.862 84.326 135.762 84.279C136.768 84.227 137.716 84.074 138.707 84.354C139.432 84.56 139.719 83.463 139.013 83.231C138.161 82.95 137.299 82.993 136.419 83.077C135.497 83.163 134.649 83.175 133.745 82.939C132.353 82.574 130.882 81.82 129.408 82.143C128.459 82.35 127.249 83.252 126.375 82.525C125.528 81.82 124.53 81.525 123.478 81.977C122.426 82.428 121.418 83.65 120.178 83.158C119.765 82.994 119.449 82.662 119.055 82.461C118.563 82.209 118.016 82.194 117.49 82.344C116.97 82.492 116.53 82.798 116.121 83.143C115.683 83.513 115.271 84.009 114.691 84.151C113.429 84.459 112.469 82.926 111.521 82.351C110.456 81.706 109.208 81.851 108.339 82.737C107.453 83.642 107.132 84.885 106.389 85.885C106.287 86.022 106.488 86.216 106.624 86.12C106.808 85.988 106.872 85.891 106.977 85.681C107.004 85.626 106.944 85.55 106.886 85.591Z" fill="#253529"/>
<path d="M109.126 90.8811C109.17 90.8011 109.213 90.7191 109.256 90.6391C109.315 90.3431 109.486 90.2891 109.772 90.4761C109.839 90.5091 109.904 90.5891 109.963 90.6341C110.111 90.7441 110.243 90.8741 110.392 90.9831C110.767 91.2601 111.193 91.4341 111.656 91.4931C112.586 91.6121 113.49 91.2891 114.318 90.8941C114.778 90.6751 115.226 90.4251 115.699 90.2341C116.088 90.0771 116.869 89.7501 117.277 89.9971C117.566 90.1721 117.707 90.6681 117.958 90.9071C118.266 91.1991 118.671 91.3561 119.083 91.4151C120.01 91.5491 120.816 91.1661 121.663 90.8551C122.649 90.4931 123.443 90.6621 124.406 90.9921C125.182 91.2581 126.009 91.5751 126.843 91.4211C127.206 91.3541 127.527 91.1981 127.817 90.9721C127.97 90.8541 128.117 90.6491 128.293 90.5681C128.572 90.4401 128.709 90.6701 128.916 90.8441C129.749 91.5421 130.791 91.3511 131.771 91.1481C133.038 90.8851 134.331 90.7251 135.484 90.1261C135.807 89.9581 135.625 89.5071 135.308 89.4861C134.077 89.4041 132.9 89.7581 131.697 90.0091C131.179 90.1171 130.557 90.3261 130.025 90.1851C129.558 90.0601 129.314 89.5671 128.853 89.4081C127.816 89.0501 127.433 90.2291 126.534 90.3301C125.607 90.4361 124.625 89.8211 123.744 89.6131C122.656 89.3561 121.775 89.6221 120.764 90.0281C120.328 90.2031 119.871 90.3841 119.391 90.3621C118.78 90.3351 118.604 89.9851 118.277 89.5391C116.95 87.7321 114.269 90.0011 112.786 90.4011C112.131 90.5781 111.528 90.5641 110.942 90.2061C110.539 89.9581 110.15 89.7311 109.657 89.7941C109.155 89.8591 108.628 90.5011 109.027 90.9561C109.078 91.0121 109.158 90.9411 109.126 90.8811Z" fill="#253529"/>
<path d="M107.265 100.649C107.722 100.577 108.015 100.257 108.363 99.979C108.828 99.61 109.374 99.312 109.935 99.113C110.956 98.749 112.02 98.723 113.061 99.013C114.155 99.318 115.245 99.844 116.402 99.831C117.505 99.818 118.143 99.234 118.856 98.475C120.116 97.137 122.086 98.925 123.603 98.827C123.989 98.802 124.358 98.686 124.681 98.473C124.949 98.297 125.49 97.488 125.817 97.543C126.098 97.591 126.475 98.27 126.717 98.44C127.16 98.751 127.7 98.846 128.234 98.8C128.788 98.753 129.319 98.586 129.859 98.46C130.582 98.29 131.315 98.183 132.058 98.143C132.668 98.11 133.267 98.165 133.875 98.167C134.198 98.168 134.896 98.138 134.98 97.712C135.174 96.735 132.867 96.892 132.395 96.907C131.102 96.948 129.897 97.24 128.643 97.515C128.061 97.643 127.585 97.669 127.156 97.211C126.829 96.862 126.555 96.494 126.066 96.376C125.62 96.268 125.199 96.42 124.852 96.699C124.505 96.977 124.25 97.443 123.818 97.597C123.095 97.854 122.158 97.351 121.486 97.125C120.719 96.868 119.865 96.65 119.075 96.939C117.914 97.364 117.6 98.783 116.222 98.746C114.977 98.712 113.825 98.058 112.601 97.878C111.456 97.709 110.285 97.895 109.232 98.372C108.462 98.72 107.019 99.545 107.144 100.553C107.15 100.623 107.196 100.66 107.265 100.649Z" fill="#253529"/>
<path d="M105.789 108.547C106.329 109.597 107.596 110.691 108.855 110.441C109.464 110.32 109.916 109.945 110.32 109.494C110.751 109.016 111.165 108.376 111.862 108.294C112.455 108.224 112.556 109.082 113.072 109.309C113.672 109.572 114.244 109.243 114.759 108.949C116.042 108.215 117.55 108.352 118.923 108.764C119.251 108.862 119.517 108.416 119.26 108.181C118.743 107.71 118.266 107.407 117.56 107.3C116.95 107.208 116.335 107.227 115.732 107.354C115.029 107.502 114.512 107.873 113.879 108.164C113.45 108.362 113.435 108.141 113.192 107.839C113.023 107.63 112.831 107.477 112.577 107.382C111.415 106.949 110.451 107.88 109.779 108.693C109.285 109.291 108.747 109.817 107.906 109.62C107.119 109.434 106.564 108.843 105.901 108.434C105.827 108.389 105.753 108.477 105.789 108.547Z" fill="#253529"/>
<path d="M124.564 107.747C125.209 107.791 125.933 107.567 126.541 107.363C126.854 107.257 127.164 107.137 127.473 107.021C127.72 106.928 128.197 106.674 128.457 106.809C128.66 106.915 128.812 107.185 129.016 107.318C129.219 107.451 129.45 107.546 129.687 107.599C130.189 107.71 130.725 107.652 131.215 107.513C131.78 107.352 132.293 107.053 132.845 106.857C133.181 106.737 133.528 106.639 133.887 106.69C134.236 106.74 134.535 106.933 134.869 107.031C136.108 107.397 137.436 106.823 138.454 106.141C138.255 106.142 138.056 106.142 137.856 106.142C137.779 106.047 137.773 106.041 137.839 106.125C137.926 106.253 137.921 106.193 137.821 105.944C137.76 106.174 137.939 106.425 138.184 106.417C138.473 106.409 138.623 106.29 138.791 106.064C138.92 105.89 138.868 105.657 138.789 105.48C138.712 105.31 138.602 105.22 138.449 105.117C138.267 104.996 138.036 105.028 137.851 105.119C137.256 105.415 136.677 105.787 136.011 105.901C135.3 106.022 134.789 105.627 134.118 105.515C132.872 105.31 131.871 106.148 130.726 106.449C130.085 106.618 129.747 106.497 129.235 106.108C128.834 105.805 128.417 105.709 127.92 105.822C127.325 105.957 126.73 106.261 126.177 106.513C125.592 106.78 124.932 107.101 124.49 107.576C124.428 107.641 124.476 107.741 124.564 107.747Z" fill="#253529"/>
<path d="M108.445 116.724C109.361 116.887 110.395 116.562 111.298 116.402C112.326 116.219 113.351 116.015 114.377 115.82C114.422 115.812 114.661 115.798 114.682 115.77C114.711 115.731 114.587 115.549 114.513 115.598C114.421 115.66 114.406 115.997 114.412 116.079C114.435 116.46 114.712 116.735 115.072 116.824C115.491 116.927 115.971 116.876 116.398 116.887C116.856 116.9 117.341 116.985 117.691 116.634C117.848 116.477 117.835 116.228 117.689 116.07C117.372 115.727 116.909 115.786 116.479 115.78C116.226 115.777 115.974 115.773 115.72 115.77C115.677 115.77 115.405 115.737 115.384 115.766C115.44 116.051 115.486 116.123 115.524 115.983C115.535 115.95 115.547 115.916 115.56 115.884C115.704 115.581 115.634 115.171 115.396 114.938C115.115 114.661 114.712 114.675 114.353 114.738C113.356 114.911 112.365 115.138 111.373 115.341C110.847 115.448 110.324 115.566 109.801 115.681C109.307 115.789 108.801 115.881 108.368 116.154C108.159 116.284 108.165 116.674 108.445 116.724Z" fill="#253529"/>
<path d="M122.459 114.47C122.796 114.166 123.347 113.549 123.851 113.844C124.186 114.04 124.182 114.62 124.487 114.893C124.88 115.244 125.41 115.149 125.791 114.839C126.046 114.632 126.231 114.325 126.579 114.278C127.277 114.185 128.018 114.729 128.662 114.922C129.06 115.042 129.484 115.14 129.886 114.984C130.152 114.882 130.568 114.596 130.69 114.33C130.759 114.18 130.681 113.928 130.474 113.954C130.376 113.967 130.271 113.976 130.178 114.011C130.14 114.025 129.94 114.027 130.124 114.061C129.95 114.029 129.763 113.896 129.582 113.852C129.204 113.762 128.839 113.66 128.465 113.552C127.748 113.344 126.878 113.058 126.14 113.318C125.94 113.387 125.767 113.487 125.605 113.62C125.471 113.73 125.255 114.076 125.101 114.112C125.039 114.127 125.199 114.178 125.091 114.094C125.039 114.054 125.008 113.92 124.98 113.858C124.879 113.63 124.768 113.415 124.578 113.247C124.211 112.922 123.663 112.915 123.247 113.132C122.747 113.394 122.468 113.794 122.238 114.298C122.171 114.444 122.335 114.581 122.459 114.47Z" fill="#253529"/>
<path d="M134.733 114.417C134.565 113.807 135.436 113.933 135.755 113.976C136.281 114.046 136.806 114.122 137.336 114.165C137.865 114.208 138.397 114.234 138.927 114.223C139.495 114.211 140.121 114.217 140.671 114.067C140.477 113.736 140.284 113.405 140.09 113.074C139.768 113.386 139.739 113.948 140.092 114.25C140.429 114.538 140.847 114.25 140.789 113.841C140.785 113.946 140.746 114.021 140.672 114.068C141.313 113.867 141.189 112.918 140.511 112.899C140.172 112.889 139.83 112.953 139.492 112.98C139.152 113.007 138.811 113.023 138.47 113.038C137.79 113.067 137.107 113.06 136.427 113.014C136.13 112.994 135.833 112.953 135.537 112.972C135.199 112.992 134.978 113.106 134.725 113.323C134.398 113.605 134.237 114.136 134.521 114.508C134.595 114.607 134.772 114.554 134.733 114.417Z" fill="#253529"/>
<path d="M109.227 127.359C109.669 127.141 109.917 126.779 110.314 126.496C110.725 126.202 111.213 126.008 111.719 125.961C112.695 125.871 113.501 126.666 114.47 126.406C115.173 126.217 115.69 125.644 116.144 125.11C116.412 124.794 116.873 124.03 117.345 124.224C117.769 124.398 117.955 124.811 118.455 124.908C118.907 124.996 119.328 124.818 119.677 124.54C120.032 124.257 120.29 123.835 120.669 123.586C121.087 123.31 121.581 123.443 122.026 123.576C122.996 123.867 123.939 124.314 124.975 124.099C126.062 123.872 126.711 122.915 127.714 122.545C127.948 122.459 128.244 122.381 128.495 122.441C128.766 122.506 128.852 122.705 129.008 122.911C129.379 123.407 129.921 123.585 130.517 123.387C131.166 123.172 131.767 122.685 132.347 122.33C133.054 121.897 133.76 121.464 134.467 121.032C134.151 120.791 133.834 120.549 133.518 120.306C133.354 121.307 134.026 122.014 134.99 122.185C136.232 122.407 137.007 121.685 137.952 121.016C138.561 120.584 139.028 120.472 139.748 120.726C140.445 120.971 141.114 121.214 141.848 121.326C143.192 121.533 144.908 121.598 146.057 120.752C146.408 120.494 146.311 119.897 145.821 119.894C144.65 119.886 143.529 120.209 142.344 120.083C141.745 120.02 141.155 119.868 140.59 119.664C140.036 119.464 139.497 119.231 138.894 119.268C137.891 119.327 137.191 120.015 136.415 120.564C136.085 120.797 135.78 120.97 135.364 120.936C135.235 120.926 134.728 120.854 134.761 120.645C134.846 120.122 134.331 119.602 133.812 119.92C133.206 120.291 132.601 120.662 131.995 121.033C131.726 121.198 131.457 121.363 131.188 121.528C130.981 121.655 130.45 122.117 130.204 122.125C129.923 122.135 129.847 121.832 129.649 121.64C129.498 121.494 129.321 121.389 129.13 121.307C128.65 121.099 128.113 121.109 127.611 121.235C126.524 121.506 125.853 122.516 124.807 122.82C123.816 123.109 122.752 122.377 121.792 122.211C120.684 122.021 119.96 122.457 119.22 123.235C119.109 123.352 118.956 123.578 118.795 123.632C118.584 123.701 118.524 123.568 118.35 123.429C118.011 123.154 117.661 122.914 117.205 122.911C116.483 122.905 115.944 123.439 115.503 123.946C115.141 124.363 114.651 125.21 114.039 125.271C113.739 125.301 113.433 125.097 113.16 125.001C112.904 124.91 112.638 124.855 112.368 124.828C111.83 124.775 111.268 124.846 110.761 125.032C109.879 125.355 108.676 126.156 108.897 127.226C108.931 127.377 109.107 127.418 109.227 127.359Z" fill="#253529"/>
</g>
<defs>
<clipPath id="clip0_98_1252">
<rect width="201" height="157" fill="white"/>
</clipPath>
</defs>
</svg>
