<svg width="45" height="45" viewBox="0 0 45 45" fill="none" xmlns="http://www.w3.org/2000/svg">
<path d="M17.3584 9.99406H24.5586C24.5657 9.99406 24.5731 9.99466 24.5801 9.99602H24.5811C25.236 10.1243 25.5771 10.3519 25.7861 10.6279C25.9815 10.8858 26.1038 11.24 26.1885 11.746L26.2227 11.9726C26.2235 11.9796 26.2236 11.9848 26.2236 11.9882L26.2285 19.9911C26.2285 19.9921 26.2285 19.9931 26.2285 19.9941C26.2208 20.28 26.2962 20.6698 26.417 21.0019C26.4788 21.1719 26.5613 21.3494 26.666 21.5038C26.7647 21.6492 26.9199 21.8279 27.1484 21.9169L27.1641 21.9228L27.1797 21.9277C27.2467 21.9487 27.3276 21.9657 27.418 21.9657C27.5787 21.9657 27.7115 21.9092 27.7988 21.8613C27.8903 21.811 27.9718 21.748 28.0391 21.6904C28.1715 21.5768 28.3029 21.4349 28.4023 21.328L28.4014 21.3271L28.4766 21.2489L28.4756 21.248C30.2979 19.3129 31.5478 17.0056 32.5146 15.0419C33.0077 14.0412 33.4376 12.993 33.8242 12.0214C33.9996 11.5811 34.2251 11.2926 34.4844 11.1113C34.7415 10.9315 35.0733 10.8284 35.5146 10.828L35.5693 10.829H35.5732L42.498 10.8339C42.7194 10.8339 42.9291 10.8396 43.1318 10.8739C43.6275 10.958 44.1169 11.1142 44.3525 11.4989C44.5881 11.8836 44.5054 12.3895 44.3555 12.8681C43.8017 14.6047 42.7587 16.0555 41.6943 17.5282H41.6934L41.5801 17.6855C41.3055 18.0649 41.025 18.4439 40.7432 18.8202L39.8984 19.9394C39.2838 20.7506 38.6438 21.5962 38.0391 22.4413L38.0381 22.4423C37.6149 23.0359 37.2863 23.5852 37.3457 24.1816C37.4046 24.7725 37.8301 25.2589 38.3633 25.7802H38.3643C38.7491 26.156 39.148 26.5334 39.5303 26.8954C40.6105 27.9181 41.7015 28.9529 42.6592 30.1025C43.1204 30.6556 43.6222 31.2928 44.0371 32.0185L44.209 32.3349C44.5551 33.0082 44.5461 33.7287 44.2402 34.2695C43.9972 34.6988 43.5966 34.9492 43.1387 34.9794C43.135 34.9796 43.1322 34.9804 43.1309 34.9804H36.7637L36.7451 34.9814C35.2107 35.0992 33.8694 34.5679 32.6143 33.2909H32.6133C32.0091 32.6767 31.4291 32.0277 30.8594 31.3896C30.5963 31.0949 30.3317 30.7971 30.0635 30.5029L30.0615 30.5019L29.8291 30.2558C29.5797 30.0002 29.2806 29.7239 28.9375 29.4999L28.9355 29.4989L28.7324 29.3798C28.5219 29.2707 28.2923 29.1953 28.0625 29.1952C27.9847 29.1952 27.7927 29.1986 27.5684 29.3271C27.3546 29.4496 27.1587 29.6577 26.9854 29.9726V29.9736C26.4736 30.9049 26.3717 31.971 26.3301 32.8964C26.2888 33.7524 26.1075 34.2125 25.8301 34.4833C25.5846 34.7229 25.1868 34.8909 24.498 34.9579L24.1846 34.9804C23.8165 34.9976 23.4518 35.0058 23.0996 35.0058C19.9941 35.0058 17.3507 34.3452 14.999 32.9999H14.998C12.7595 31.7219 10.7972 29.8942 8.82227 27.2187C5.98732 23.3727 3.49249 18.9282 0.731445 12.79C0.419577 12.0972 0.459694 11.6581 0.638672 11.3759V11.3749C0.817398 11.0933 1.19649 10.8708 1.9541 10.8573H1.95605C2.93494 10.837 3.9382 10.8271 5.02051 10.8271C5.51569 10.8271 6.02299 10.8296 6.5498 10.8339L8.19629 10.8525C9.01567 10.8664 9.66768 11.3175 10.0391 12.2236V12.2245C11.2298 15.1578 12.6077 17.7159 14.2529 20.0409C14.7246 20.7087 15.1799 21.3274 15.8223 21.7675V21.7665C16.1109 21.9653 16.3378 22.0351 16.5156 22.0351H16.5166C16.7297 22.0347 16.8799 21.9246 16.9521 21.8603C17.0315 21.7896 17.0906 21.7086 17.1309 21.6474C17.2124 21.5232 17.2712 21.393 17.2949 21.3368C17.4899 20.8772 17.599 20.3576 17.6533 19.7245C17.8406 17.5366 17.811 15.7115 17.5527 13.9921C17.4703 13.4405 17.276 12.9605 16.9336 12.5888C16.5889 12.2146 16.1322 11.9919 15.5996 11.8905L15.5977 11.8896C15.5096 11.8731 15.3859 11.8485 15.2705 11.7909C15.1597 11.7357 15.0963 11.6708 15.0674 11.5888V11.5878C15.0377 11.5029 15.0462 11.4213 15.0928 11.3202C15.1447 11.2079 15.2273 11.1086 15.3115 11.0107L15.3125 11.0087C15.5968 10.6748 15.864 10.4277 16.1719 10.2607C16.4738 10.097 16.8448 9.99412 17.3584 9.99406Z" fill="#F0FFF1" stroke="black"/>
</svg>
