<svg width="45" height="45" viewBox="0 0 45 45" fill="none" xmlns="http://www.w3.org/2000/svg">
<path d="M42.1826 4.41739C42.9906 4.11676 43.6335 4.24199 44.0117 4.60587C44.3889 4.96879 44.6528 5.71275 44.3955 6.98477L44.3799 7.05997L37.5889 38.8822C37.347 39.9385 36.9428 40.4504 36.5176 40.643C36.0968 40.8334 35.4755 40.792 34.5967 40.307L24.2803 32.7523L23.9424 32.5053L23.6396 32.7943L18.6465 37.5658L18.6396 37.5727C18.355 37.8554 18.1462 38.0585 17.8945 38.2035C17.7693 38.2757 17.6271 38.3354 17.4531 38.3764L18.1416 28.7006L37.166 11.6176C37.4059 11.4046 37.6262 11.1232 37.6387 10.7856C37.654 10.3692 37.3621 10.1158 37.083 10.017C36.8198 9.92385 36.5118 9.93203 36.2178 9.99844C35.9143 10.0671 35.5853 10.2054 35.2607 10.4203L11.7598 25.1244L1.77441 22.019C1.26137 21.8599 0.918865 21.6661 0.719727 21.4799C0.527909 21.3006 0.491432 21.1545 0.500977 21.0463C0.512095 20.9216 0.595942 20.7202 0.884766 20.4672C1.17098 20.2165 1.62205 19.95 2.26953 19.6986L2.26855 19.6977L42.1816 4.41641L42.1826 4.41739Z" fill="#F0FFF1" stroke="black"/>
</svg>
