<svg width="45" height="45" viewBox="0 0 45 45" fill="none" xmlns="http://www.w3.org/2000/svg">
<path d="M12.1045 7.16537H32.8955C38.6309 7.16541 41.4019 7.96849 42.8633 9.70541C43.5982 10.5788 44.0143 11.7067 44.2412 13.181C44.469 14.6616 44.5 16.4453 44.5 18.6048V26.3958C44.5 31.3137 43.7161 33.979 42.0488 35.5746C40.4192 37.1339 37.8454 37.8343 32.8955 37.8343H12.1045C7.02847 37.8343 4.19108 36.8326 2.59082 35.0052C0.97653 33.1617 0.500035 30.3499 0.5 26.3958V18.6048C0.5 16.5508 0.501347 14.827 0.693359 13.3665C0.88447 11.9132 1.25908 10.7726 1.9707 9.8685C3.42638 8.01951 6.23846 7.16537 12.1045 7.16537ZM18.7119 15.4359C18.3769 15.4471 18.0502 15.5451 17.7637 15.7191C17.4772 15.8931 17.2405 16.1379 17.0762 16.43C16.9119 16.722 16.8253 17.0511 16.8252 17.3861V27.223L16.8291 27.349C16.8478 27.6408 16.9322 27.9252 17.0762 28.181C17.2409 28.4735 17.4785 28.719 17.7656 28.8929C18.0528 29.0668 18.3803 29.1637 18.7158 29.1742C19.0512 29.1846 19.3834 29.108 19.6807 28.9525L29.1221 24.0189C29.4383 23.8536 29.703 23.6045 29.8877 23.2992C30.0724 22.9937 30.1704 22.6434 30.1699 22.2865C30.1694 21.9295 30.0703 21.5797 29.8848 21.2747C29.6992 20.9699 29.4339 20.7214 29.1172 20.557L19.6758 15.6546C19.3785 15.5003 19.0466 15.4248 18.7119 15.4359Z" fill="#F0FFF1" stroke="black"/>
</svg>
