<svg width="45" height="45" viewBox="0 0 45 45" fill="none" xmlns="http://www.w3.org/2000/svg">
<g clip-path="url(#clip0_1_7039)">
<path d="M10.7901 23.2085C11.4246 23.0617 12.2796 23.1694 13.3223 23.896L13.5333 24.0493C13.5341 24.0499 13.535 24.0513 13.5362 24.0522C13.5386 24.054 13.542 24.0561 13.546 24.059C13.5541 24.0651 13.5656 24.0739 13.5801 24.0844C13.6092 24.1055 13.651 24.1351 13.7051 24.1723C13.8138 24.247 13.9727 24.3516 14.1788 24.476C14.5908 24.7249 15.1936 25.0543 15.9669 25.3823C17.5132 26.0381 19.7466 26.6919 22.502 26.6919C25.2565 26.6918 27.4896 26.0381 29.0362 25.3823C29.8095 25.0544 30.4121 24.7249 30.8243 24.476C31.0304 24.3516 31.1892 24.247 31.2979 24.1723C31.3523 24.135 31.3948 24.1056 31.4239 24.0844C31.4382 24.074 31.449 24.0651 31.4571 24.059C31.4609 24.0562 31.4645 24.054 31.4669 24.0522C31.4678 24.0515 31.4691 24.0508 31.4698 24.0503C32.6098 23.1897 33.5365 23.0567 34.213 23.2124C34.8172 23.3515 35.2937 23.7368 35.5948 24.1899L35.713 24.3872C35.9688 24.9007 36.0659 25.3066 36.0587 25.645C36.0515 25.9771 35.942 26.2861 35.712 26.6098C35.2241 27.2965 34.2489 27.9792 32.7393 28.9194L32.671 28.9614C30.2759 30.3977 26.972 30.9874 24.7354 31.2124L24.753 31.3921C24.5742 31.4768 24.3859 31.6461 24.3565 31.9799C24.3765 32.0057 24.4018 32.0339 24.4053 32.0376C24.4089 32.0411 24.412 32.0442 24.4122 32.0444C24.4141 32.0463 24.4169 32.0482 24.419 32.0503C24.4235 32.0546 24.4298 32.0614 24.4385 32.0698L24.6055 32.2309L24.6065 32.2299C24.6207 32.2436 24.6357 32.2579 24.6514 32.2729C24.8507 32.4639 25.167 32.7667 25.5626 33.146C26.3536 33.9044 27.4625 34.9693 28.5958 36.0561C30.8224 38.1915 33.1434 40.4162 33.3145 40.5796V40.5805C33.8465 41.1051 34.0077 41.6732 33.9532 42.2016C33.8969 42.7466 33.6053 43.2925 33.1553 43.7221C32.3023 44.5365 31.0424 44.8166 30.0333 44.0434L29.835 43.8745C28.0897 42.1686 25.5333 39.7099 22.8692 37.1469L22.5225 36.813L22.1758 37.1479L15.211 43.8647C14.1767 44.8357 12.8044 44.5679 11.8956 43.6938C11.4466 43.2619 11.1567 42.7165 11.1036 42.1753C11.0586 41.7169 11.1792 41.23 11.5694 40.771L11.754 40.5756L20.6055 32.061L21.3839 31.313L20.3096 31.2036C18.072 30.9757 14.6744 30.4101 12.2471 28.9106C10.7382 27.9756 9.76358 27.2956 9.27838 26.6108C9.04978 26.2881 8.94299 25.9794 8.93756 25.6479C8.93274 25.3499 9.00975 24.9988 9.20612 24.5678L9.29791 24.3784C9.58075 23.8469 10.102 23.3677 10.7901 23.2085ZM25.1124 31.3305C25.113 31.3311 25.1159 31.3331 25.1172 31.3344C25.1178 31.335 25.1186 31.3366 25.1202 31.3383L25.1124 31.3305Z" fill="#F0FFF1" stroke="black"/>
<path d="M22.4974 0.5C28.7617 0.5 33.8441 5.39144 33.8441 11.3965C33.844 17.3744 28.7624 22.2666 22.4974 22.2666C16.2307 22.2664 11.1499 17.3742 11.1498 11.3965C11.1498 5.39164 16.2314 0.500244 22.4974 0.5ZM22.4974 5.27344C19.0325 5.27368 16.178 7.99279 16.1801 11.3965L16.1879 11.7109C16.3587 14.9402 19.1438 17.4929 22.4974 17.4932C25.9594 17.4932 28.8157 14.7731 28.8158 11.3965C28.8158 7.99499 25.9611 5.27344 22.4974 5.27344Z" fill="#F0FFF1" stroke="black"/>
</g>
<defs>
<clipPath id="clip0_1_7039">
<rect width="45" height="45" fill="white"/>
</clipPath>
</defs>
</svg>
