<svg width="74" height="130" viewBox="0 0 74 130" fill="none" xmlns="http://www.w3.org/2000/svg">
<path d="M73.0467 128.816L39.8187 129.377V129.395L39.3187 129.387L38.8187 129.395V129.377L6.28968 128.817C6.28968 128.817 0.0566692 109.756 24.0387 102.93C26.3027 102.284 28.9957 101.741 31.8387 101.346C31.8387 101.346 35.6297 103.537 39.9377 103.94C44.2447 103.538 47.9837 101.346 47.9837 101.346C51.9797 101.906 55.0957 102.737 57.9857 103.768C78.9577 111.193 73.0467 128.816 73.0467 128.816Z" fill="#BF9837"/>
<path d="M52.4593 106.37C44.3813 110.059 27.5293 106.37 27.5293 106.37C30.8443 102.735 31.0643 97.9502 30.4293 94.0202C29.7763 89.9522 28.2113 86.8152 28.2113 86.8152L49.7643 86.4462C48.3663 88.9582 48.0343 91.7372 48.2643 94.3972C48.7963 100.71 52.4593 106.37 52.4593 106.37Z" fill="#CD8B6D"/>
<path d="M13.4417 45.8332C13.4417 45.8332 4.5457 30.8022 0.865698 43.6852C-2.8163 56.5702 6.0797 62.7052 11.9087 61.4762C17.7367 60.2512 13.4417 45.8332 13.4417 45.8332Z" fill="#CD8B6D"/>
<path d="M12.3676 48.2862C12.3676 48.2862 6.23264 38.7762 4.08664 42.6102C1.93864 46.4462 2.55164 51.3522 2.55164 51.3522C2.55164 51.3522 3.77964 45.9852 7.76764 49.0512C7.76764 49.0512 3.93364 57.6412 11.7546 55.1882C11.7546 55.1882 14.9746 52.5812 12.3676 48.2862Z" fill="#B66C50"/>
<path d="M60.421 43.9932C60.421 43.9932 69.316 28.9622 72.997 41.8452C76.677 54.7302 67.781 60.8652 61.954 59.6362C56.126 58.4092 60.421 43.9932 60.421 43.9932Z" fill="#CD8B6D"/>
<path d="M60.5464 46.4461C60.5464 46.4461 66.6814 36.9361 68.8284 40.7701C70.9754 44.6041 70.3624 49.5121 70.3624 49.5121C70.3624 49.5121 69.1354 44.1431 65.1474 47.2111C65.1474 47.2111 68.9814 55.8011 61.1594 53.3481C61.1594 53.3481 57.9384 50.7391 60.5464 46.4461Z" fill="#B66C50"/>
<path d="M62.6386 32.2702C62.4176 43.1122 61.2396 58.0002 60.8986 69.5692C60.3456 88.4522 50.0666 91.5072 35.3436 91.2312C17.5646 90.8992 16.4586 82.9032 15.3456 72.8992C14.5816 66.0532 11.7386 46.4522 10.5606 31.9112C10.0176 25.2122 9.83063 19.5982 10.3486 16.7922C13.1516 1.63421 31.6516 0.63422 31.6516 0.63422C56.6516 -3.36578 59.6516 12.6342 61.4606 18.4582C62.0626 20.3972 62.7756 25.4152 62.6386 32.2702Z" fill="#E8B299"/>
<path d="M62.1513 110.133C61.0713 111.543 58.9513 112.852 56.1713 113.922C55.7203 114.102 55.2513 114.272 54.7713 114.432C51.9013 115.403 48.4703 116.162 44.8003 116.602C44.4903 116.633 44.1813 116.672 43.8703 116.704C40.9003 117.013 37.7903 117.124 34.7203 116.964C34.3803 116.943 34.0503 116.933 33.7103 116.903C29.8313 116.643 26.0303 115.964 22.6603 114.762C22.1303 114.573 21.6103 114.373 21.1103 114.162C15.0203 111.601 10.6103 107.142 10.1503 100.133C8.65029 77.1328 13.4003 58.6328 13.4003 58.6328C13.4003 58.6328 15.3793 60.3128 18.8203 61.9728C19.1903 62.1528 19.5703 62.3318 19.9693 62.4928C22.2993 63.5218 25.1803 64.4638 28.4803 64.9028C28.8903 64.9538 29.2993 65.0028 29.7193 65.0338C30.9803 65.1528 32.2893 65.1918 33.6503 65.1338C37.3403 64.9838 40.5493 64.7338 43.5013 64.2838C43.9603 64.2138 44.4003 64.1428 44.8513 64.0628C47.6413 63.5728 50.2103 62.8828 52.7313 61.8928C53.0113 61.7838 53.2913 61.6718 53.5713 61.5528C56.2113 60.4528 58.8323 59.0118 61.6513 57.1328C61.6513 57.1328 63.1513 60.6328 64.1513 71.1328C65.1513 81.6328 68.1413 102.303 62.1513 110.133Z" fill="#422405"/>
<path d="M22.6612 114.762C22.1312 114.573 21.6112 114.373 21.1112 114.162C20.7612 112.113 20.3612 110.072 19.8002 108.062C18.1302 102.082 16.9702 95.9018 16.8312 89.6808C16.6302 80.8818 16.4802 70.8628 18.8202 61.9718C19.1902 62.1518 19.5702 62.3308 19.9692 62.4918C18.0492 72.0018 17.3402 81.8728 18.0702 91.5018C18.5902 98.3828 20.3202 104.723 21.9802 111.373C22.2712 112.512 22.4912 113.643 22.6612 114.762Z" fill="#5D3416"/>
<path d="M34.7202 116.962C34.3802 116.941 34.0502 116.931 33.7102 116.901C30.7802 99.6614 24.4212 82.2024 28.4812 64.9014C28.8912 64.9524 29.3002 65.0014 29.7202 65.0324C28.2202 73.6614 27.7312 82.4114 29.5402 91.1124C31.3002 99.5824 34.5912 108.222 34.7202 116.962Z" fill="#5D3416"/>
<path d="M46.511 91.7925C46.511 98.8825 45.091 105.832 44.91 112.883C44.89 114.092 44.86 115.342 44.8 116.602C44.49 116.632 44.181 116.671 43.87 116.703C44.05 113.463 44.091 110.203 44.4 107.043C45.01 100.713 45.39 94.4635 45.21 88.1135C45.05 82.1725 44.931 76.1915 44.171 70.2935C43.91 68.2935 43.641 66.2835 43.501 64.2835C43.96 64.2135 44.4 64.1425 44.851 64.0625C45.141 67.1525 45.561 70.2325 45.791 73.3825C46.22 79.5115 46.511 85.6425 46.511 91.7925Z" fill="#5D3416"/>
<path d="M57.2712 108.303C56.8712 110.162 56.5212 112.043 56.1712 113.922C55.7202 114.102 55.2512 114.272 54.7712 114.432C56.3802 106.233 57.8512 98.0218 57.5712 89.6018C57.3512 83.0218 56.1912 76.6228 54.8002 70.2038C54.1912 67.3938 53.6012 64.5928 52.7312 61.8938C53.0112 61.7848 53.2912 61.6728 53.5712 61.5538C54.7712 64.7728 55.5612 68.1628 56.3322 71.6238C57.6512 77.5338 58.7912 83.5338 58.8712 89.6028C58.9612 95.8328 58.5912 102.192 57.2712 108.303Z" fill="#5D3416"/>
<path d="M28.7791 44.759C28.7791 49.757 26.1701 53.81 22.9501 53.81C19.7311 53.81 17.1211 49.757 17.1211 44.759C17.1211 39.761 19.7311 35.71 22.9501 35.71C26.1701 35.711 28.7791 39.761 28.7791 44.759Z" fill="white"/>
<path d="M27.542 45.0544C27.542 48.7754 25.556 51.7924 23.104 51.7924C20.655 51.7924 18.668 48.7744 18.668 45.0544C18.668 41.3344 20.654 38.3184 23.104 38.3184C25.555 38.3184 27.542 41.3344 27.542 45.0544Z" fill="#95BCD1"/>
<path d="M26.5769 45.1344C26.5769 48.0484 25.0649 50.4094 23.2009 50.4094C21.3359 50.4094 19.825 48.0484 19.825 45.1344C19.825 42.2224 21.3359 39.8614 23.2009 39.8614C25.0649 39.8614 26.5769 42.2224 26.5769 45.1344Z" fill="#141E62"/>
<path d="M27.5419 40.2364C27.5419 40.8554 26.5139 41.3574 25.2459 41.3574C23.9789 41.3574 22.9509 40.8554 22.9509 40.2364C22.9509 39.6194 23.9789 39.1194 25.2459 39.1194C26.5129 39.1194 27.5419 39.6194 27.5419 40.2364Z" fill="white"/>
<path d="M19.5065 36.1072C16.8425 38.0092 15.3095 42.6562 16.8585 45.6522C16.9345 45.7972 17.2005 45.7362 17.1805 45.5642C16.8675 42.9002 17.7835 40.0132 19.4985 37.9862C20.5585 36.7322 22.0235 36.2052 23.6175 36.0742C25.3595 35.9332 26.1465 37.7792 27.5165 38.4102C27.8025 38.5432 28.1605 38.3282 28.0645 37.9882C26.9965 34.1292 22.1925 34.1932 19.5065 36.1072Z" fill="#141E62"/>
<path d="M43.8457 43.8383C43.8457 48.8363 46.4547 52.8873 49.6737 52.8873C52.8927 52.8873 55.5017 48.8363 55.5017 43.8383C55.5017 38.8403 52.8927 34.7873 49.6737 34.7873C46.4557 34.7883 43.8457 38.8403 43.8457 43.8383Z" fill="white"/>
<path d="M53.958 44.1335C53.958 47.8545 51.972 50.8715 49.521 50.8715C47.071 50.8715 45.085 47.8535 45.085 44.1335C45.085 40.4125 47.071 37.3975 49.521 37.3975C51.971 37.3975 53.958 40.4135 53.958 44.1335Z" fill="#95BCD1"/>
<path d="M52.993 44.2134C52.993 47.1274 51.483 49.4884 49.618 49.4884C47.753 49.4884 46.2419 47.1274 46.2419 44.2134C46.2419 41.3014 47.753 38.9405 49.618 38.9405C51.483 38.9405 52.993 41.3014 52.993 44.2134Z" fill="#141E62"/>
<path d="M53.9579 39.3155C53.9579 39.9345 52.9309 40.4344 51.6629 40.4344C50.3949 40.4344 49.3679 39.9345 49.3679 39.3155C49.3679 38.6985 50.3949 38.1985 51.6629 38.1985C52.9299 38.1985 53.9579 38.6985 53.9579 39.3155Z" fill="white"/>
<path d="M53.1193 35.1863C55.7833 37.0863 57.3163 41.7353 55.7663 44.7293C55.6903 44.8763 55.4243 44.8153 55.4453 44.6433C55.7553 41.9793 54.8413 39.0923 53.1263 37.0653C52.0663 35.8113 50.6023 35.2823 49.0073 35.1533C47.2663 35.0103 46.4793 36.8583 45.1083 37.4893C44.8233 37.6203 44.4653 37.4073 44.5593 37.0673C45.6273 33.2083 50.4313 33.2723 53.1193 35.1863Z" fill="#141E62"/>
<path d="M60.198 31.2237C58.778 28.0247 54.095 27.4367 51.005 27.4617C48.292 27.4867 43.459 28.8287 42.886 31.9417C42.832 32.2307 43.095 32.4337 43.361 32.3067C46.004 31.0427 47.981 29.8517 51.006 29.7307C54.311 29.5977 56.456 31.4277 59.428 32.2267C60.053 32.3957 60.431 31.7487 60.198 31.2237Z" fill="#67380C"/>
<path d="M29.8286 31.2237C28.4106 28.0247 23.7246 27.4367 20.6366 27.4617C17.9226 27.4867 13.0906 28.8287 12.5166 31.9417C12.4636 32.2307 12.7266 32.4337 12.9926 32.3067C15.6346 31.0427 17.6126 29.8517 20.6376 29.7307C23.9436 29.5977 26.0876 31.4277 29.0596 32.2267C29.6856 32.3957 30.0626 31.7487 29.8286 31.2237Z" fill="#67380C"/>
<path d="M53.6414 66.3936C53.5414 66.6436 51.5113 71.2336 48.1013 75.2626C47.8613 75.5536 47.6113 75.8326 47.3513 76.1146C42.4413 81.4646 35.0214 85.1346 26.4704 74.6636C26.3614 74.5346 26.2614 74.4036 26.1514 74.2636C24.6814 72.4136 23.1814 70.1446 21.6514 67.3846C21.6514 67.3846 41.8914 73.6336 53.6414 66.3936Z" fill="white"/>
<path d="M48.1013 75.2626C47.8613 75.5536 47.6113 75.8326 47.3513 76.1146C44.9213 76.3646 42.4814 76.4326 40.0614 76.3426C35.6304 76.1626 30.8804 75.8526 26.4704 74.6626C26.3614 74.5336 26.2614 74.4026 26.1514 74.2626C31.2414 75.5926 36.8323 75.8736 41.7523 75.7626C43.9314 75.7136 46.0413 75.5536 48.1013 75.2626Z" fill="#CD8B6D"/>
<path d="M39.555 57.8571C40.363 53.0171 39.494 44.4332 38.679 40.9572L37.845 38.4572C38.096 36.4002 36.405 32.9241 34.436 34.7831C32.964 36.1721 34.157 39.9081 34.235 41.7751C34.469 47.4121 33.963 53.5482 33.632 59.2542C32.913 58.6642 32.15 57.5141 30.944 57.6661C30.881 59.5801 35.534 65.8981 37.852 65.4221C40.098 64.9571 43.936 56.1521 39.555 57.8571Z" fill="#CD8B6D"/>
</svg>
