<svg width="71" height="127" viewBox="0 0 71 127" fill="none" xmlns="http://www.w3.org/2000/svg">
<path d="M67.7617 126.244L57.5517 126.397L35.9227 126.734L13.3907 126.377L4.69073 126.243C4.69073 126.243 3.33473 122.33 4.48873 117.648C5.30573 114.351 7.44974 110.689 12.2267 107.708C12.4567 107.565 12.6887 107.429 12.9387 107.284C14.8997 106.16 17.2927 105.141 20.1677 104.296C20.4077 104.228 20.6387 104.16 20.8787 104.104C21.1677 104.017 21.4457 103.95 21.7447 103.873C21.9747 103.815 22.2157 103.758 22.4557 103.7C22.5037 103.69 22.5607 103.671 22.6197 103.662C23.5617 103.44 24.5417 103.239 25.5797 103.057C26.6277 102.865 27.7337 102.692 28.8867 102.547C28.8867 102.547 28.9537 102.576 29.0787 102.643C28.7327 96.414 26.5697 91.04 26.5697 91.04L44.8347 91.761C43.7097 95.636 43.4117 99.086 43.5187 102.028C43.5667 101.99 43.5957 101.97 43.5957 101.97C45.8447 102.259 47.8927 102.633 49.7667 103.075C50.2077 103.181 50.6417 103.286 51.0547 103.392C51.1797 103.43 51.3047 103.459 51.4197 103.489C51.4967 103.517 51.5727 103.537 51.6497 103.555C52.4577 103.787 53.2267 104.017 53.9657 104.276C54.0057 104.287 54.0527 104.305 54.0917 104.315C55.8517 104.921 57.4067 105.593 58.7817 106.343C58.8397 106.372 58.8877 106.401 58.9457 106.43C63.8857 109.102 66.1557 112.467 67.4527 115.668C69.7027 121.216 67.7617 126.244 67.7617 126.244Z" fill="#CD8B6D"/>
<path d="M57.5515 126.399L35.9225 126.736L13.3905 126.379C13.7545 120.554 14.2935 112.623 12.9385 107.287C14.8995 106.163 17.2925 105.144 20.1675 104.299C20.6785 104.154 21.1955 104.01 21.7445 103.875C26.2425 110.758 38.6915 125.197 51.6495 103.558C52.5045 103.798 53.3125 104.049 54.0915 104.318C55.8515 104.924 57.4065 105.596 58.7815 106.346C57.2065 111.653 55.9555 118.958 57.5515 126.399Z" fill="#266823"/>
<path d="M53.9659 104.278C50.8319 109.97 45.9489 115.046 40.2579 116.131C32.0969 117.698 23.1089 112.208 20.8779 104.106C21.1669 104.019 21.4449 103.952 21.7439 103.875C21.9739 103.817 22.2149 103.76 22.4549 103.702C26.4919 112.026 35.8549 118.622 44.6509 112.008C47.8229 109.623 49.7649 106.654 51.4179 103.491C51.4949 103.519 51.5709 103.539 51.6479 103.557C52.4569 103.788 53.2269 104.019 53.9659 104.278Z" fill="#77BDA1"/>
<path d="M12.9211 46.6746C12.9211 46.6746 4.37004 32.2256 0.832043 44.6106C-2.70696 56.9946 5.84406 62.8916 11.4461 61.7136C17.0501 60.5326 12.9211 46.6746 12.9211 46.6746Z" fill="#CD8B6D"/>
<path d="M11.8888 49.0329C11.8888 49.0329 5.99277 39.8909 3.92777 43.5769C1.86377 47.2649 2.45276 51.9809 2.45276 51.9809C2.45276 51.9809 3.63176 46.8209 7.46576 49.7689C7.46576 49.7689 3.77978 58.0259 11.2998 55.6679C11.2998 55.6679 14.3958 53.1619 11.8888 49.0329Z" fill="#B66C50"/>
<path d="M58.082 44.9036C58.082 44.9036 66.632 30.4556 70.171 42.8396C73.709 55.2236 65.157 61.1206 59.556 59.9426C53.952 58.7636 58.082 44.9036 58.082 44.9036Z" fill="#CD8B6D"/>
<path d="M58.2018 48.2252C58.2018 48.2252 64.0978 39.0832 66.1628 42.7692C68.2268 46.4572 67.6388 51.1732 67.6388 51.1732C67.6388 51.1732 66.4588 46.0142 62.6248 48.9622C62.6248 48.9622 66.3108 57.2192 58.7908 54.8612C58.7908 54.8612 55.6948 52.3542 58.2018 48.2252Z" fill="#B66C50"/>
<path d="M13.5106 26.7748C12.6576 27.6408 11.4466 52.1348 12.0356 61.5708C12.6256 71.0068 16.1636 97.5468 37.3956 97.5468C58.6256 97.5468 62.1656 61.2768 57.1526 29.1348C57.1526 29.1348 34.4466 5.54381 13.5106 26.7748Z" fill="#E8B299"/>
<path d="M67.464 24.3836C67.193 20.8656 63.791 16.7226 61.628 15.2126C57.447 12.2996 52.573 11.6946 47.93 12.9536C49.131 11.5216 50.034 9.93562 50.256 7.84962C50.602 4.67762 47.305 1.22563 44.479 0.428628C40.278 -0.763372 36.721 0.668621 33.184 3.02462C29.954 5.16862 28.088 8.59962 25.637 11.4556C27.07 9.14762 28.963 6.98562 29.733 4.41862C30.905 0.467618 25.291 2.13063 23.667 2.71763C17.631 4.91863 11.776 10.9756 9.58399 16.9736C7.92099 21.5306 7.53699 25.9046 8.02699 30.7206C8.03699 30.8066 8.04498 30.8836 8.06498 30.9696C8.12298 31.4696 8.2 31.9596 8.305 32.4496C8.785 34.7956 9.66897 37.0446 10.314 39.3616C10.67 40.6306 10.227 44.1396 11.612 44.8406C13.228 45.6576 13.007 42.4756 13.391 41.6106C14.15 39.8996 15.668 38.6786 16.255 36.8426C16.572 35.8426 16.793 34.9006 16.851 33.9776C17.871 34.5066 19.024 34.8526 20.139 35.0636C20.83 35.1886 21.476 35.1316 22.166 35.0446C22.186 35.0446 22.205 35.0346 22.215 35.0256C22.234 35.1216 22.32 35.3226 22.542 35.7166C23.204 36.9286 24.887 37.4186 26.098 37.7646C29.396 38.7066 32.885 37.9856 34.53 34.8516C34.971 34.0156 35.144 32.9576 35.107 31.8526C37.49 33.6506 40.345 35.0156 42.778 35.2936C47.835 35.8796 47.536 29.4686 47.738 25.4886C48.373 27.0176 48.661 28.7666 49.257 30.2376C50.094 32.2946 51.209 34.2266 52.343 36.1206C53.698 38.3986 55.996 42.2156 58.438 43.5326C61.975 45.4456 63.389 42.3506 63.1 39.3326C64.582 39.4956 66.023 38.2556 66.147 35.9486C66.283 33.5156 64.551 31.0846 63.235 29.2286C63.005 28.9116 65.168 28.7676 65.119 28.7766C66.07 28.5166 66.532 27.7186 66.965 26.9406C67.052 26.7866 67.129 26.6236 67.186 26.4606C67.444 25.8166 67.521 25.1146 67.464 24.3836Z" fill="#4A1D1D"/>
<path d="M67.1844 26.4611C66.3204 27.1241 65.3384 27.7011 64.2344 28.2011C61.1584 29.5751 58.0244 30.3641 55.2944 27.9611C53.9964 26.8271 53.4584 24.6451 53.5644 22.9911C53.8904 18.0591 49.4504 19.3191 46.6344 18.5881C44.1054 17.9251 42.2414 16.7231 41.3664 14.6851C39.9154 18.6931 36.9334 22.4421 32.4834 22.6351C29.5324 22.7701 27.1374 20.5491 26.3024 17.9341C23.2454 24.6341 15.2844 33.9111 8.3064 32.4501C8.2014 31.9591 8.12341 31.4701 8.06641 30.9701C9.54641 31.5851 11.3734 31.4411 13.4584 30.1911C18.7564 27.0281 24.5244 20.9051 26.0894 14.7821C26.3024 13.9741 27.5034 14.3111 27.3304 15.1181C26.4274 19.3961 31.9544 22.9821 35.3564 20.6171C36.6834 19.7611 37.7694 18.6751 38.6154 17.3481C39.6644 15.6081 40.4134 13.8781 40.8264 11.8981C40.9804 11.1581 42.0674 11.3601 42.0964 12.0611C42.4414 21.8761 55.5544 12.5891 54.9684 21.6451C54.4684 29.5471 61.5034 28.8451 66.1004 25.5671C66.5994 25.2121 67.0514 24.8181 67.4654 24.3851C67.5214 25.1151 67.4444 25.8171 67.1844 26.4611Z" fill="#703838"/>
<path d="M20.5211 42.7874C17.9601 44.6144 16.4861 49.0814 17.9751 51.9604C18.0471 52.1014 18.3031 52.0434 18.2851 51.8774C17.9851 49.3164 18.8641 46.5414 20.5131 44.5924C21.5341 43.3864 22.9421 42.8784 24.4741 42.7544C26.1491 42.6174 26.9061 44.3914 28.2221 45.0004C28.4961 45.1264 28.8401 44.9214 28.7501 44.5954C27.7221 40.8854 23.1041 40.9474 20.5211 42.7874Z" fill="#390A0A"/>
<path d="M29.4345 51.1043C29.4345 55.9093 26.9265 59.8033 23.8315 59.8033C20.7375 59.8033 18.2275 55.9093 18.2275 51.1043C18.2275 46.2993 20.7375 42.4033 23.8315 42.4033C26.9265 42.4033 29.4345 46.3003 29.4345 51.1043Z" fill="white"/>
<path d="M28.2449 51.3882C28.2449 54.9652 26.3349 57.8662 23.9789 57.8662C21.6249 57.8662 19.7139 54.9652 19.7139 51.3882C19.7139 47.8112 21.6239 44.9102 23.9789 44.9102C26.3349 44.9102 28.2449 47.8112 28.2449 51.3882Z" fill="#C28432"/>
<path d="M27.5701 51.464C27.5701 54.483 26.0042 56.929 24.0732 56.929C22.1422 56.929 20.5771 54.483 20.5771 51.464C20.5771 48.447 22.1422 46.001 24.0732 46.001C26.0042 46.002 27.5701 48.448 27.5701 51.464Z" fill="#390A0A"/>
<path d="M28.2448 46.7566C28.2448 47.3516 27.2568 47.8326 26.0378 47.8326C24.8208 47.8326 23.8318 47.3516 23.8318 46.7566C23.8318 46.1616 24.8208 45.6826 26.0378 45.6826C27.2568 45.6826 28.2448 46.1616 28.2448 46.7566Z" fill="white"/>
<path d="M50.6149 42.7874C53.1779 44.6144 54.6499 49.0814 53.1609 51.9604C53.0889 52.1014 52.8329 52.0434 52.8519 51.8774C53.1519 49.3164 52.2729 46.5414 50.6239 44.5924C49.6029 43.3864 48.1949 42.8784 46.6629 42.7544C44.9879 42.6174 44.2309 44.3914 42.9149 45.0004C42.6409 45.1264 42.2969 44.9214 42.3869 44.5954C43.4139 40.8854 48.0329 40.9474 50.6149 42.7874Z" fill="#390A0A"/>
<path d="M52.5048 51.1044C52.5048 55.9094 49.9968 59.8034 46.9018 59.8034C43.8078 59.8034 41.2988 55.9094 41.2988 51.1044C41.2988 46.2994 43.8088 42.4034 46.9018 42.4034C49.9968 42.4034 52.5048 46.3004 52.5048 51.1044Z" fill="white"/>
<path d="M51.3162 51.3882C51.3162 54.9652 49.4062 57.8662 47.0502 57.8662C44.6952 57.8662 42.7852 54.9652 42.7852 51.3882C42.7852 47.8112 44.6952 44.9102 47.0502 44.9102C49.4052 44.9102 51.3162 47.8112 51.3162 51.3882Z" fill="#C28432"/>
<path d="M50.6405 51.464C50.6405 54.483 49.0755 56.929 47.1435 56.929C45.2125 56.929 43.6475 54.483 43.6475 51.464C43.6475 48.447 45.2125 46.001 47.1435 46.001C49.0745 46.002 50.6405 48.448 50.6405 51.464Z" fill="#390A0A"/>
<path d="M51.3161 46.7567C51.3161 47.3517 50.3281 47.8327 49.1091 47.8327C47.8921 47.8327 46.9031 47.3517 46.9031 46.7567C46.9031 46.1617 47.8921 45.6827 49.1091 45.6827C50.3271 45.6827 51.3161 46.1617 51.3161 46.7567Z" fill="white"/>
<path d="M36.9914 64.3503C36.3054 63.1453 36.9584 60.8753 36.9544 59.4713C36.9474 57.6013 37.0984 55.7823 37.0984 53.9023C37.0984 52.4063 37.4854 48.9903 36.3464 47.3933C36.2474 45.9343 34.9344 46.0133 34.3004 47.2643C33.2424 49.3523 33.4154 52.0973 33.4154 54.3803C33.4144 56.3833 33.3694 58.3813 33.2684 60.3973C33.2014 61.7303 33.2814 63.7383 32.7224 64.9133C30.9744 63.9463 28.8444 63.1053 30.2094 65.9893C30.8934 67.4343 33.2374 70.6043 35.0374 70.4243C36.9884 70.2293 39.5944 66.9523 40.3074 65.2593C41.4004 62.6663 38.4014 63.4473 36.9914 64.3503Z" fill="#CD8B6D"/>
<path d="M32.1584 38.3387C32.1584 40.4627 29.3014 39.6207 24.7884 39.6207C20.2754 39.6207 15.8164 40.4617 15.8164 38.3387C15.8164 36.2157 20.2754 31.9307 24.7884 31.9307C29.3014 31.9307 32.1584 36.2157 32.1584 38.3387Z" fill="#390A0A"/>
<path d="M56.1924 37.698C56.1924 39.822 53.3344 38.98 48.8224 38.98C44.3084 38.98 39.8494 39.821 39.8494 37.698C39.8494 35.575 44.3084 31.29 48.8224 31.29C53.3334 31.29 56.1924 35.574 56.1924 37.698Z" fill="#390A0A"/>
<path d="M53.3051 66.8555C53.3051 66.8555 52.2851 71.9895 49.6221 76.5545C49.3051 77.1035 48.9601 77.6415 48.5941 78.1595C45.1921 82.9955 39.6731 86.3105 31.1761 80.3515C30.6751 80.0045 30.1651 79.6215 29.6371 79.2075C26.9271 77.0345 23.9271 73.9485 20.6201 69.7375C20.6201 69.7375 44.0181 81.2755 53.3051 66.8555Z" fill="white"/>
<path d="M49.6217 76.5547C49.3047 77.1037 48.9597 77.6417 48.5937 78.1597C45.4117 79.1407 42.1527 79.8517 38.8947 80.3127C36.3467 80.6597 33.7127 80.7167 31.1757 80.3517C30.6747 80.0047 30.1647 79.6217 29.6367 79.2077C31.6457 79.5147 33.6837 79.6397 35.5777 79.5337C40.5187 79.2667 45.0947 78.0647 49.6217 76.5547Z" fill="#CD8B6D"/>
<path d="M23.0949 67.8065C21.9469 67.9905 20.9559 68.8115 20.0549 69.4985C19.1589 70.1835 18.4609 70.9215 17.8269 71.8485C17.6739 72.0725 17.9748 72.3645 18.1968 72.2185C19.1198 71.6155 20.0389 71.0095 20.9569 70.3955C21.8599 69.7935 22.8999 69.2615 23.4859 68.3145C23.6599 68.0315 23.3739 67.7625 23.0949 67.8065Z" fill="#CD8B6D"/>
<path d="M56.0984 66.6291C55.5294 66.0181 54.3834 66.0191 53.6064 65.9981C52.6494 65.9731 51.7624 66.1801 50.8934 66.5661C50.4954 66.7431 50.8404 67.3251 51.2354 67.1501C52.0334 66.7951 53.0464 66.9431 53.8844 67.0431C54.5324 67.1221 55.3164 67.4021 55.9564 67.1691C56.1864 67.0871 56.2724 66.8171 56.0984 66.6291Z" fill="#CD8B6D"/>
</svg>
