<svg width="95" height="132" viewBox="0 0 95 132" fill="none" xmlns="http://www.w3.org/2000/svg">
<path d="M94.464 131.283L76.528 129.934L73.461 129.701L56.545 128.429L54.7 128.284L35.999 126.876L34.116 126.74L15.433 125.333L13.471 125.187L0 124.168C0 124.168 4.523 55.2588 10.996 30.6648C17.47 6.08078 44.315 10.6138 44.315 10.6138C49.924 9.09978 54.914 9.50778 59.339 11.4098C59.727 11.5748 60.114 11.7588 60.503 11.9528C93.717 28.5508 94.464 131.283 94.464 131.283Z" fill="#92561A"/>
<path d="M24.9037 20.0867C21.7397 31.6367 19.2067 43.0017 18.1877 54.9687C17.2957 65.4027 17.0227 75.8747 16.5177 86.3267C16.0127 96.9057 15.6247 107.495 15.4597 118.084C15.4217 120.5 15.4217 122.917 15.4317 125.334L13.4697 125.188C13.5187 110.94 14.4987 96.5857 15.2377 82.6007C15.8197 71.5367 16.0127 60.4627 17.4217 49.4467C18.7017 39.3427 21.4487 29.6767 24.2637 19.9037C24.3807 19.4957 25.0207 19.6697 24.9037 20.0867Z" fill="#B56E2D"/>
<path d="M39.6001 11.3815C32.5331 33.7725 32.4171 57.8325 32.9511 81.0955C33.2141 92.7125 33.3791 104.506 34.5051 116.075C34.8541 119.685 35.4071 123.285 35.9991 126.877L34.1161 126.741C33.4561 122.587 32.9221 118.413 32.6701 114.22C31.9611 102.573 31.4381 90.9265 31.2921 79.2615C31.0001 56.2985 31.6121 33.1795 38.6861 11.1295C38.8711 10.5465 39.7931 10.7995 39.6001 11.3815Z" fill="#B56E2D"/>
<path d="M56.5439 128.051V128.429L54.6989 128.284C54.6899 126.304 54.6619 124.314 54.6319 122.334C54.4289 110.28 54.3409 98.2058 53.6329 86.1608C52.9439 74.2918 51.6719 62.4218 51.6719 50.5138C51.6719 39.0128 53.2749 27.5988 53.3619 16.1078C53.3619 15.6708 54.0409 15.6708 54.0409 16.1078C53.9539 28.2008 52.7309 40.2938 53.1969 52.3868C53.6919 64.9358 55.0599 77.4268 55.6419 89.9758C56.2239 102.642 56.5539 115.365 56.5439 128.051Z" fill="#B56E2D"/>
<path d="M76.5269 129.934L73.4599 129.701C75.1889 115.007 75.033 100.157 72.752 85.0348C70.686 71.3408 67.773 57.7818 65.114 44.2048C63.774 37.3818 62.3669 30.5688 61.3479 23.6868C60.7369 19.6498 59.5619 15.5248 59.3389 11.4098C59.2989 10.6038 59.2899 9.79878 59.3279 8.99278C59.3669 8.33278 60.3869 8.32278 60.3559 8.99278C60.3279 9.99278 60.387 10.9728 60.502 11.9528C60.804 14.5548 61.5219 17.1068 61.9769 19.7078C62.6079 23.3478 63.3559 26.9668 64.1519 30.5788C65.6669 37.4208 67.2679 44.2538 68.7529 51.1158C71.5579 64.0428 74.4599 77.0198 76.1189 90.1608C77.8089 103.476 78.0899 116.637 76.5269 129.934Z" fill="#B56E2D"/>
<path d="M71.2671 118.918L66.3561 119.025L46.9061 119.462V119.481L46.4221 119.471L45.9371 119.481V119.462L33.5901 119.18L22.0311 118.918C22.0311 118.918 17.7711 100.963 34.5801 94.0908C35.4831 93.7218 36.4541 93.3828 37.4821 93.0808C38.5701 92.7608 39.7441 92.4898 40.9861 92.2568C40.9861 92.2568 43.0241 83.4058 40.2291 79.9398C37.4441 76.4758 51.6911 79.5818 51.6911 79.5818C50.3421 84.0168 52.7781 92.2568 52.7781 92.2568C54.9621 92.6638 56.9031 93.2078 58.6211 93.8778C66.5511 96.9358 69.8801 102.409 71.1511 107.465C72.6651 113.493 71.2671 118.918 71.2671 118.918Z" fill="#CD8B6D"/>
<path d="M63.0578 112.523C60.7828 111.277 59.7407 107.98 59.7007 105.605C59.6387 101.924 60.5697 98.6348 62.1747 95.5828C61.1037 94.9588 59.9318 94.3829 58.6218 93.8779C48.4408 117.608 40.3168 101.109 37.4828 93.0818C36.4548 93.3838 35.4837 93.7228 34.5807 94.0918C40.1727 105.885 29.4377 109.126 29.4377 109.126C29.5847 111.407 31.4478 115.425 33.5908 119.181L45.9377 119.463V119.482L46.4228 119.472L46.9068 119.482V119.463L60.5807 119.156C61.4137 116.947 62.2398 114.737 63.0578 112.523Z" fill="#1D6751"/>
<path d="M19.2857 48.0227C18.8947 47.4587 18.3017 47.0157 17.4036 46.6257C16.7176 46.3277 15.9756 46.1377 15.2436 45.9917C13.7926 45.7027 12.0226 45.6807 10.9936 46.9367C10.2816 47.8067 10.0167 49.2347 9.96667 50.3287C9.74267 55.2667 13.9007 57.9907 18.1567 59.1607C18.9617 59.3807 20.3657 60.1957 20.9667 59.2297C21.9907 57.5857 20.5097 49.7907 19.2857 48.0227Z" fill="#CD8B6D"/>
<path d="M19.3003 51.7503C19.3003 51.7503 14.0803 46.9153 13.3713 49.5853C12.6603 52.2563 13.7993 55.1483 13.7993 55.1483C13.7993 55.1483 13.7103 51.6873 16.6163 52.9333C16.6163 52.9333 15.6233 58.7643 20.0033 56.0473C20.0033 56.0473 21.5593 53.9593 19.3003 51.7503Z" fill="#B66C50"/>
<path d="M72.1559 48.0227C72.5469 47.4587 73.1389 47.0157 74.0369 46.6257C74.7229 46.3277 75.4659 46.1377 76.1969 45.9917C77.6489 45.7027 79.4179 45.6807 80.4469 46.9367C81.1599 47.8067 81.4259 49.2347 81.4739 50.3287C81.6979 55.2667 77.5399 57.9907 73.2849 59.1607C72.4799 59.3807 71.0749 60.1957 70.4739 59.2297C69.4509 57.5857 70.9329 49.7907 72.1559 48.0227Z" fill="#CD8B6D"/>
<path d="M72.141 51.7503C72.141 51.7503 77.362 46.9153 78.071 49.5853C78.782 52.2563 77.642 55.1483 77.642 55.1483C77.642 55.1483 77.732 51.6873 74.826 52.9333C74.826 52.9333 75.819 58.7643 71.438 56.0473C71.438 56.0473 69.882 53.9593 72.141 51.7503Z" fill="#B66C50"/>
<path d="M65.83 76.8788C56.852 89.5058 36.918 83.8568 36.918 83.8568C18.42 78.0428 16.857 49.2958 17.226 37.2898C17.313 34.1938 17.537 32.2038 17.633 32.0108C20.467 26.3618 33.725 16.2968 46.314 16.8798C58.902 17.4618 70.82 28.6918 71.48 31.3508C71.858 32.8448 72.286 36.1168 72.498 40.3288C73.061 51.0328 72.266 67.8148 65.83 76.8788Z" fill="#E8B299"/>
<path d="M82.4969 31.8958C79.2649 36.3478 73.4599 39.0218 66.4539 40.4958C65.6289 40.6778 64.7939 40.8398 63.9299 40.9808C58.8439 41.8288 53.2439 42.1218 47.6069 42.0708C46.8879 42.0708 46.1609 42.0598 45.4419 42.0408C40.3659 41.9198 35.3089 41.5358 30.6019 41.0308C29.8059 40.9488 29.0199 40.8598 28.2429 40.7688C24.4679 40.3238 20.9649 39.8188 17.9279 39.3448C17.4709 39.2648 17.0149 39.1938 16.5779 39.1228C10.6179 38.1328 6.79492 37.2758 6.79492 37.2758C14.0739 15.8058 24.9839 6.11677 35.1149 2.25077C35.9789 1.91777 36.8429 1.62577 37.6869 1.38277C39.5689 0.828767 41.4139 0.465765 43.1799 0.253765C43.6939 0.192765 44.1999 0.142765 44.6949 0.101765C46.7809 -0.0592353 48.7519 -0.0192322 50.5469 0.151768C50.8969 0.181768 51.2359 0.222767 51.5759 0.263767C53.4199 0.494767 55.0699 0.848768 56.4579 1.26277C56.8549 1.37377 57.2349 1.49477 57.5839 1.61677C57.6809 1.64677 57.7869 1.68677 57.8849 1.72777C72.4609 7.06577 82.4969 31.8958 82.4969 31.8958Z" fill="#A16929"/>
<path d="M34.3572 4.83486C30.6402 9.22486 27.9422 14.0909 25.6322 19.3999C22.8072 25.8889 20.5752 32.7329 17.9262 39.3439C17.4692 39.2639 17.0132 39.1929 16.5762 39.1219C18.0322 35.2159 19.5652 31.3399 21.0802 27.4839C23.2832 21.8519 25.4372 15.9379 28.6492 10.8289C30.0082 8.65986 32.3372 5.23786 35.1132 2.24886C35.9772 1.91586 36.8412 1.62386 37.6852 1.38086C36.3372 2.60486 35.1832 3.86586 34.3572 4.83486Z" fill="#C98643"/>
<path d="M43.1801 0.252586C43.6941 0.191586 44.2002 0.141586 44.6952 0.100586C43.7342 1.81659 42.9192 3.44159 42.2692 4.69259C39.7542 9.62959 37.0762 14.5556 35.0962 19.7526C32.3592 26.9306 31.1261 33.8536 30.6021 41.0306C29.8061 40.9486 29.0202 40.8596 28.2432 40.7686C28.9142 31.5326 32.1262 22.1766 35.8722 14.3726C38.1132 9.69859 40.3551 4.69259 43.1801 0.252586Z" fill="#C98643"/>
<path d="M47.091 25.8184C46.868 31.3194 47.033 36.7294 47.607 42.0694C46.888 42.0694 46.161 42.0584 45.442 42.0394C44.908 36.6184 44.957 31.1184 45.326 25.8184C45.801 19.0454 46.975 12.2934 48.732 5.73239C49.237 3.84439 49.868 1.98739 50.547 0.150391C50.897 0.180391 51.236 0.22139 51.576 0.26239C50.964 2.17939 50.391 4.10739 49.956 6.08539C48.499 12.5654 47.363 19.1564 47.091 25.8184Z" fill="#C98643"/>
<path d="M66.454 40.4948C65.629 40.6768 64.794 40.8388 63.93 40.9798C61.911 36.5788 60.572 31.7648 59.641 27.7768C58.04 20.9228 56.836 14.0288 56.641 6.95378C56.594 5.09678 56.506 3.18778 56.457 1.26178C56.854 1.37278 57.234 1.49378 57.583 1.61578C57.68 1.64578 57.786 1.68578 57.884 1.72678C57.981 3.51278 58.107 5.26978 58.204 6.95478C58.582 13.4348 59.601 19.7438 61.193 26.0118C62.522 31.2598 64.134 36.1258 66.454 40.4948Z" fill="#C98643"/>
<path d="M18.2872 58.6171C15.4982 56.7171 10.3392 61.3031 8.94521 63.3981C6.08521 67.6971 8.3142 73.8001 13.1382 75.6071C17.8032 77.3551 22.5472 74.7641 24.2712 70.2441C25.8352 66.1441 22.8072 59.4001 18.2872 58.6171ZM23.1022 69.1651C22.5522 72.7481 18.7672 75.1791 15.3572 75.0871C10.3072 74.9511 7.76719 68.8921 9.75319 64.8301C11.1282 62.0151 15.8812 58.8151 18.9212 60.3921C18.9352 60.4001 18.9472 60.3941 18.9612 60.3991C21.5372 62.6651 23.6672 65.4791 23.1022 69.1651Z" fill="white"/>
<path d="M76.1956 58.2938C73.4076 56.3938 68.2486 60.9808 66.8546 63.0748C63.9946 67.3738 66.2226 73.4768 71.0466 75.2848C75.7116 77.0328 80.4566 74.4418 82.1806 69.9218C83.7446 65.8198 80.7176 59.0768 76.1956 58.2938ZM81.0116 68.8418C80.4616 72.4238 76.6766 74.8558 73.2656 74.7638C68.2166 74.6278 65.6756 68.5688 67.6626 64.5068C69.0366 61.6918 73.7886 58.4918 76.8296 60.0688C76.8436 60.0768 76.8556 60.0708 76.8686 60.0758C79.4466 62.3418 81.5766 65.1558 81.0116 68.8418Z" fill="white"/>
<path d="M37.5914 43.2597C35.3564 41.4837 32.6234 41.7867 29.9844 42.1587C27.9104 42.4517 25.0634 43.3457 23.7854 45.2187C21.8194 48.0937 24.3424 50.0997 25.6244 52.5807C25.8364 52.9927 26.2974 52.8307 26.4354 52.4917C26.5504 52.4487 26.6524 52.3577 26.6964 52.2007C26.8684 51.5737 26.8644 51.4887 26.9244 50.7927C26.9344 50.6967 26.9054 50.6217 26.8634 50.5587C27.5764 47.2527 30.6744 45.5597 33.9154 45.3657C37.3074 45.1627 37.5344 48.1557 38.3804 50.6087C38.4024 50.6767 38.4294 50.7397 38.4514 50.8057C38.5354 51.0347 38.6234 51.2627 38.7234 51.4777C39.0674 52.2157 39.0054 52.3367 40.2504 51.0497C42.3144 48.9187 40.1534 45.2947 37.5914 43.2597Z" fill="#390A0A"/>
<path d="M25.9043 50.7187C25.9043 54.4207 28.9503 57.4197 32.7083 57.4197C36.4673 57.4197 39.5133 54.4207 39.5133 50.7187C39.5133 47.0187 36.4673 44.0197 32.7083 44.0197C28.9503 44.0197 25.9043 47.0187 25.9043 50.7187Z" fill="white"/>
<path d="M37.1964 50.9677C37.1964 53.9807 35.2914 56.4237 32.9424 56.4237C30.5924 56.4237 28.6904 53.9797 28.6904 50.9677C28.6904 47.9577 30.5924 45.5127 32.9424 45.5127C35.2914 45.5137 37.1964 47.9577 37.1964 50.9677Z" fill="#ABAACC"/>
<path d="M36.6267 50.9681C36.6267 53.5761 34.9787 55.6951 32.9427 55.6951C30.9087 55.6951 29.2617 53.5771 29.2617 50.9681C29.2617 48.3591 30.9077 46.2441 32.9427 46.2441C34.9777 46.2441 36.6267 48.3601 36.6267 50.9681Z" fill="#390A0A"/>
<path d="M36.1571 47.3001C36.1571 47.8821 35.4581 48.3561 34.5971 48.3561C33.7351 48.3561 33.0361 47.8831 33.0361 47.3001C33.0361 46.7181 33.7341 46.2441 34.5971 46.2441C35.4581 46.2441 36.1571 46.7181 36.1571 47.3001Z" fill="white"/>
<path d="M50.9165 51.0504C52.1615 52.3374 52.1006 52.2164 52.4436 51.4784C52.5446 51.2634 52.6326 51.0354 52.7166 50.8064C52.7386 50.7404 52.7655 50.6774 52.7875 50.6094C53.6335 48.1564 53.8605 45.1634 57.2525 45.3664C60.4935 45.5604 63.5915 47.2534 64.3045 50.5594C64.2625 50.6224 64.2345 50.6974 64.2435 50.7934C64.3035 51.4894 64.2995 51.5744 64.4725 52.2014C64.5155 52.3584 64.6176 52.4494 64.7336 52.4924C64.8716 52.8314 65.3326 52.9924 65.5436 52.5814C66.8256 50.1004 69.3485 48.0934 67.3825 45.2194C66.1045 43.3464 63.2576 42.4524 61.1826 42.1594C58.5446 41.7864 55.8126 41.4834 53.5776 43.2604C51.0146 45.2944 48.8525 48.9184 50.9165 51.0504Z" fill="#390A0A"/>
<path d="M51.9795 50.7184C51.9795 54.4204 55.0245 57.4194 58.7835 57.4194C62.5425 57.4194 65.5885 54.4204 65.5885 50.7184C65.5885 47.0184 62.5425 44.0194 58.7835 44.0194C55.0245 44.0194 51.9795 47.0184 51.9795 50.7184Z" fill="white"/>
<path d="M62.9386 50.9674C62.9386 53.9804 61.0346 56.4234 58.6866 56.4234C56.3356 56.4234 54.4336 53.9794 54.4336 50.9674C54.4336 47.9574 56.3356 45.5124 58.6866 45.5124C61.0346 45.5134 62.9386 47.9574 62.9386 50.9674Z" fill="#ABAACC"/>
<path d="M62.3689 50.9679C62.3689 53.5759 60.7219 55.6949 58.6869 55.6949C56.6519 55.6949 55.0039 53.5769 55.0039 50.9679C55.0039 48.3589 56.6509 46.2439 58.6869 46.2439C60.7219 46.2439 62.3689 48.3599 62.3689 50.9679Z" fill="#390A0A"/>
<path d="M61.9003 47.2999C61.9003 47.8819 61.2013 48.3559 60.3403 48.3559C59.4803 48.3559 58.7803 47.8829 58.7803 47.2999C58.7803 46.7179 59.4793 46.2439 60.3403 46.2439C61.2013 46.2439 61.9003 46.7179 61.9003 47.2999Z" fill="white"/>
<path d="M50.294 60.0493C49.621 59.3613 48.535 59.4493 47.549 59.9243C47.563 58.9903 47.482 57.9433 47 57.2023C46.086 55.7933 44.753 57.4563 44.378 58.3663C44.126 58.9743 44.022 59.6963 44.044 60.4213C42.869 59.8043 41.598 59.7183 41.024 61.0383C40.154 63.0473 43.985 66.6293 45.935 65.9343C47.892 65.2343 52.922 62.7323 50.294 60.0493Z" fill="#CD8B6D"/>
<path d="M57.0833 69.5367C56.2613 69.0127 55.4013 68.6627 54.4833 68.3477C54.0033 68.1837 53.5943 68.8747 53.9823 69.2097C54.2643 69.4537 54.5463 69.6867 54.8313 69.9207C54.1803 70.1967 53.5683 70.4997 52.7763 70.5107C51.6293 70.5287 50.3613 69.9377 49.3403 69.4907C49.2213 69.4387 49.1043 69.3867 48.9863 69.3327C47.7543 68.5667 46.4763 67.9207 45.1773 67.5917C42.5213 66.9187 38.8953 68.9527 37.6103 71.1997C37.5033 71.3887 37.5493 71.5887 37.6693 71.7257C37.5163 71.8637 37.4533 72.0277 37.4793 72.2127C37.4613 72.3297 37.5013 72.4257 37.5773 72.4947C38.9383 75.5357 43.1773 77.1897 46.1773 77.7577C48.8023 78.2547 51.4373 76.9327 53.7013 74.6677C54.6793 73.8577 55.9583 72.3137 56.3933 71.0877C56.9073 71.4337 57.8483 72.0207 58.2603 71.3167C58.7253 70.5207 57.6013 69.8647 57.0833 69.5367Z" fill="#AB0048"/>
<path d="M40.7598 71.7565C40.7598 71.7565 41.8918 69.4905 45.6128 70.7855C49.3338 72.0805 52.8907 72.0805 52.8907 72.0805C52.8907 72.0805 45.4508 77.7405 40.7598 71.7565Z" fill="white"/>
<g opacity="0.4">
<path d="M66.9637 62.2178C66.9637 63.8388 64.7817 65.1508 62.0927 65.1508C59.4027 65.1508 57.2227 63.8388 57.2227 62.2178C57.2227 60.5998 59.4027 59.2878 62.0927 59.2878C64.7817 59.2878 66.9637 60.6008 66.9637 62.2178Z" fill="#DB5D7B"/>
<path d="M35.3736 63.2716C35.3736 64.8926 33.1926 66.2046 30.5036 66.2046C27.8126 66.2046 25.6326 64.8926 25.6326 63.2716C25.6326 61.6536 27.8126 60.3406 30.5036 60.3406C33.1926 60.3406 35.3736 61.6536 35.3736 63.2716Z" fill="#DB5D7B"/>
</g>
<path opacity="0.4" d="M25.5984 58.9705C28.3564 52.5445 31.7794 46.5225 36.4214 41.6995C34.1834 40.4835 31.6904 39.6115 29.1664 39.0615C27.6974 40.2595 26.2494 41.4805 24.8334 42.7415C21.9804 46.7655 18.9564 50.6665 15.8164 54.4765C18.0704 57.1655 21.4104 58.9145 25.0044 59.9635C25.2054 59.6355 25.3924 59.2995 25.5984 58.9705Z" fill="white"/>
<path opacity="0.4" d="M68.4546 46.9748C69.1166 44.1378 69.8276 41.2799 70.6876 38.4719C70.2486 38.4079 69.7976 38.3609 69.3326 38.3429C67.0376 38.2539 64.5216 38.4528 62.0146 38.9508C61.2936 40.1438 60.6186 41.3719 59.9966 42.6379C58.2236 47.0109 56.7136 51.4909 55.1036 55.9309C54.6556 57.5368 54.2416 59.1499 53.8516 60.7589C55.0836 61.1159 56.3626 61.2889 57.6076 61.2379C60.2086 61.1308 63.0006 60.7278 65.6566 59.9498C66.2646 55.5748 67.4606 51.2338 68.4546 46.9748Z" fill="white"/>
<path d="M77.1746 42.5358C75.3406 39.7698 72.6617 38.4698 69.3327 38.3438C61.3357 38.0328 50.6697 41.0908 46.9707 48.8648C46.5157 49.8358 46.2727 50.7859 46.2037 51.6899C45.6407 51.3889 45.0017 51.4268 44.3977 51.6508C44.3207 50.7578 44.0776 49.8268 43.6226 48.8648C39.9246 41.0918 29.2686 38.0338 21.2696 38.3438C17.9316 38.4698 15.2627 39.7708 13.4277 42.5358C11.9247 44.8168 13.8346 51.5628 13.9036 51.3778C16.8246 58.3658 25.6867 60.9378 32.9947 61.2388C38.1097 61.4428 43.8157 57.9198 44.3797 53.0188C44.8457 52.8638 45.3786 52.7378 45.6706 53.0578C45.8446 53.2508 46.0596 53.3008 46.2526 53.2618C46.9706 58.0268 52.5697 61.4438 57.6077 61.2398C64.9167 60.9388 73.7667 58.3668 76.6887 51.3788C76.7667 51.5628 78.6786 44.8168 77.1746 42.5358ZM28.1037 58.8998C16.1737 55.9008 14.6307 48.5148 14.5737 49.0198C13.6907 47.1268 13.6907 45.1858 14.5837 43.2158C15.7287 40.5558 18.8066 39.9838 21.2696 39.7218C23.9496 39.4308 26.6947 39.9738 29.2877 40.6238C34.8007 42.0018 40.6527 45.0298 42.5447 50.7088C45.3107 59.0158 33.0537 60.1418 28.1037 58.8998ZM76.0286 49.0198C75.9697 48.5148 74.4266 55.9008 62.4896 58.8998C57.5506 60.1428 45.2917 59.0168 48.0577 50.7088C49.9407 45.0308 55.7916 42.0018 61.3046 40.6238C63.9067 39.9738 66.6427 39.4308 69.3317 39.7218C71.7967 39.9828 74.8727 40.5558 76.0177 43.2158C76.9117 45.1858 76.9016 47.1268 76.0286 49.0198Z" fill="#390A0A"/>
</svg>
