<svg width="77" height="120" viewBox="0 0 77 120" fill="none" xmlns="http://www.w3.org/2000/svg">
<path d="M67.7804 118.81C67.7804 118.81 38.4994 121.528 10.6924 118.597C10.6924 118.597 10.9934 117.471 11.7024 115.724C11.7604 115.589 11.8184 115.443 11.8864 115.287C12.1384 114.666 12.4584 113.968 12.8194 113.22C13.0314 112.764 13.2744 112.308 13.5364 111.832C13.6034 111.686 13.6914 111.531 13.7694 111.386C13.8464 111.249 13.9144 111.123 14.0014 110.988C14.0504 110.881 14.1194 110.775 14.1864 110.667C14.4284 110.24 14.7014 109.804 14.9824 109.367C15.4874 108.58 16.0494 107.785 16.6614 106.989C16.8944 106.689 17.1374 106.397 17.3794 106.096C17.5734 105.863 17.7774 105.62 17.9814 105.387C18.3504 104.97 18.7384 104.553 19.1464 104.135C19.7194 103.553 20.3304 102.981 20.9804 102.437C21.2434 102.214 21.5144 101.991 21.8064 101.768C21.9424 101.661 22.0774 101.555 22.2234 101.447C22.3884 101.321 22.5534 101.195 22.7274 101.078C23.0774 100.835 23.4364 100.593 23.8054 100.36C25.5914 99.2339 27.5904 98.2929 29.8424 97.6329C31.0944 97.2739 32.4244 96.9919 33.8314 96.8269C34.8594 96.7099 35.9264 96.6419 37.0434 96.6419L40.5954 96.8459C40.5954 96.8459 41.7604 96.6139 43.6144 96.6029C45.2744 96.5939 47.4964 96.7689 49.9234 97.4479C52.3984 98.1369 55.0864 99.3499 57.6484 101.428C58.0264 101.738 58.4054 102.058 58.7744 102.417C58.9584 102.582 59.1434 102.756 59.3174 102.941C59.3654 102.98 59.4054 103.019 59.4524 103.067C59.5704 103.183 59.6854 103.3 59.8024 103.426C60.0064 103.649 60.2094 103.873 60.4134 104.106C60.7234 104.465 61.0344 104.843 61.3354 105.242C61.6074 105.581 61.8594 105.931 62.1114 106.3C62.2964 106.552 62.4704 106.815 62.6464 107.086C62.7814 107.3 62.9174 107.513 63.0444 107.737C63.3744 108.28 63.6944 108.852 64.0044 109.445C64.2864 109.998 64.5674 110.571 64.8304 111.172C64.9174 111.347 64.9854 111.522 65.0624 111.696L65.3154 112.375L65.7904 113.598L66.2464 114.802L66.4704 115.375L66.8194 116.297L67.7804 118.81Z" fill="#AB0048"/>
<path d="M44.9045 101.408C40.8775 104.757 32.4915 101.408 32.4915 101.408C33.1905 100.019 33.6085 98.4479 33.8305 96.8279C33.8595 96.6819 33.8785 96.5359 33.8885 96.3909C34.0445 95.1289 34.0935 93.8579 34.0625 92.6149C34.0535 91.8479 34.0155 91.0919 33.9475 90.3639C33.6365 86.5789 32.8305 83.6289 32.8305 83.6289L43.5655 83.2979C42.8855 85.5399 42.7105 87.9959 42.8085 90.3639C42.8475 91.4609 42.9535 92.5379 43.0895 93.5569C43.2155 94.4789 43.3605 95.3618 43.5255 96.1768C43.5555 96.3228 43.5845 96.4689 43.6135 96.6039C44.2065 99.4479 44.9045 101.408 44.9045 101.408Z" fill="#CD8B6D"/>
<path d="M61.3361 105.242C59.9291 105.727 58.1921 106.329 56.3771 106.92C55.0951 107.348 53.7671 107.774 52.5041 108.163C49.6611 109.046 47.1281 109.735 45.9631 109.823C45.4201 109.862 42.7981 109.969 40.2661 110.086C39.3341 110.124 38.4221 110.164 37.6251 110.192C36.0721 110.26 34.9281 110.309 34.9281 110.309C31.0461 110.192 27.9101 109.901 25.3781 109.513C25.1541 109.485 24.9321 109.446 24.7181 109.407C20.3511 108.698 17.9341 107.708 16.6621 106.99C16.8951 106.69 17.1381 106.398 17.3801 106.097C17.5741 105.864 17.7781 105.621 17.9821 105.388C18.3511 104.971 18.7391 104.554 19.1471 104.136C19.7201 103.554 20.3311 102.982 20.9811 102.438C21.2441 102.215 21.5151 101.992 21.8071 101.769C21.9431 101.662 22.0781 101.556 22.2241 101.448C22.3891 101.322 22.5541 101.196 22.7281 101.079C23.0781 100.836 23.4371 100.594 23.8061 100.361C25.5921 99.2348 27.5911 98.2938 29.8431 97.6338C31.0951 97.2748 32.4251 96.9928 33.8321 96.8278C34.8601 96.7108 35.9271 96.6428 37.0441 96.6428L40.5961 96.8468C40.5961 96.8468 41.7611 96.6148 43.6151 96.6038C45.2751 96.5948 47.4971 96.7698 49.9241 97.4488C52.3991 98.1378 55.0871 99.3508 57.6491 101.429C58.0271 101.739 58.4061 102.059 58.7751 102.418C58.9591 102.583 59.1441 102.757 59.3181 102.942C59.3661 102.981 59.4061 103.02 59.4531 103.068C59.5711 103.184 59.6861 103.301 59.8031 103.427C60.0071 103.65 60.2101 103.874 60.4141 104.107C60.7241 104.466 61.0351 104.844 61.3361 105.242Z" fill="#CD8B6D"/>
<path d="M37.6248 110.192C36.0718 110.26 34.9278 110.309 34.9278 110.309C31.0458 110.192 27.9098 109.901 25.3778 109.513C25.1538 109.485 24.9318 109.446 24.7178 109.407C25.7078 106.873 28.1618 105.088 31.0458 105.088C34.2178 105.087 36.8778 107.252 37.6248 110.192Z" fill="#E8A287"/>
<path d="M52.5026 108.163C49.6596 109.046 47.1266 109.735 45.9616 109.823C45.4186 109.862 42.7966 109.969 40.2646 110.086C41.0516 107.203 43.6806 105.087 46.8156 105.087C49.1936 105.087 51.2896 106.309 52.5026 108.163Z" fill="#E8A287"/>
<path d="M63.8172 54.34C64.2082 53.776 64.8012 53.334 65.6982 52.943C66.3852 52.645 67.1272 52.455 67.8582 52.309C69.3102 52.02 71.0792 51.998 72.1082 53.254C72.8212 54.124 73.0862 55.552 73.1352 56.646C73.3592 61.584 69.2012 64.308 64.9452 65.478C64.1402 65.699 62.7352 66.513 62.1352 65.548C61.1122 63.903 62.5932 56.109 63.8172 54.34Z" fill="#CD8B6D"/>
<path d="M63.8025 58.0681C63.8025 58.0681 69.0235 53.2321 69.7325 55.9031C70.4435 58.5741 69.3035 61.4661 69.3035 61.4661C69.3035 61.4661 69.3925 58.0051 66.4865 59.2521C66.4865 59.2521 67.4805 65.0821 63.0995 62.3661C63.0995 62.3661 61.5435 60.2761 63.8025 58.0681Z" fill="#B66C50"/>
<path d="M13.8589 54.34C13.4679 53.776 12.8749 53.334 11.9779 52.943C11.2919 52.645 10.5499 52.455 9.81789 52.309C8.36589 52.02 6.59689 51.998 5.56789 53.254C4.85589 54.124 4.58989 55.552 4.54089 56.646C4.31689 61.584 8.47489 64.308 12.7309 65.478C13.5359 65.699 14.9399 66.513 15.5419 65.548C16.5639 63.903 15.0819 56.109 13.8589 54.34Z" fill="#CD8B6D"/>
<path d="M13.8735 58.0681C13.8735 58.0681 8.65351 53.2321 7.94451 55.9031C7.23351 58.5741 8.37251 61.4661 8.37251 61.4661C8.37251 61.4661 8.28352 58.0051 11.1895 59.2521C11.1895 59.2521 10.1965 65.0821 14.5765 62.3661C14.5765 62.3661 16.1325 60.2761 13.8735 58.0681Z" fill="#B66C50"/>
<path d="M65.2932 50.2221C65.2002 51.1751 65.0722 52.1341 64.9452 53.1031C64.1202 59.2461 63.1352 65.3841 61.6052 71.4001C58.7252 82.7371 44.6922 88.3151 39.6952 87.9311C13.9352 84.4711 12.5922 66.7861 12.7802 64.8651C13.0852 61.8571 12.5592 58.5941 12.3642 55.5931C12.2612 53.9951 12.0232 52.3541 11.7932 50.7151C11.4192 47.9271 11.0802 45.1061 11.5142 42.3871C11.5302 42.2581 11.5572 42.1311 11.5822 41.9951C12.0572 39.2601 12.9422 36.4291 13.9862 33.8791C17.2582 25.9251 23.8622 17.0181 33.3032 16.8391C35.5132 16.7971 37.7572 17.1801 39.9402 17.8501C43.0932 18.8021 46.1362 20.3241 48.8052 21.9301C54.7462 25.5251 60.6772 29.6111 63.6442 36.1491C65.7272 40.7541 65.7862 45.4031 65.2932 50.2221Z" fill="#FFC29C"/>
<path d="M76.4378 36.1193C76.5158 37.4103 76.4668 38.7493 76.2638 40.0503C76.1768 41.3993 75.8468 42.6033 75.2348 43.5053C74.1488 45.8543 72.2758 47.6693 69.3548 48.1843C68.6938 48.4943 68.0338 48.5143 67.3738 48.3393C65.0638 48.2423 64.0168 47.0683 63.8118 45.5643C63.1618 44.7393 62.5988 43.8563 62.1518 43.0503C61.1918 45.1083 59.2788 46.4283 56.7068 45.1753C54.9308 44.3113 53.2038 41.9333 52.1838 39.5273C51.9998 42.4393 50.4568 45.7383 48.2148 46.3303C44.3728 47.3393 43.4398 41.7783 43.8378 39.0413C42.9448 42.9813 35.9468 51.2993 32.7258 45.4073C30.9978 42.2533 33.6468 37.7793 35.5978 35.4403C35.7628 35.2353 35.9578 34.9933 36.1808 34.7123C36.1808 34.7023 36.1898 34.6923 36.1898 34.6923C36.6458 34.1003 37.2088 33.4013 37.8108 32.7803C37.4028 32.8093 36.9948 32.8003 36.5678 32.7713C35.8698 32.7123 35.1608 32.5963 34.4328 32.4803C31.2108 31.9663 31.6958 33.0523 30.5208 35.9353C29.3658 38.7693 26.5808 43.0983 22.9698 41.0503C22.0578 40.5363 21.4268 39.5163 21.0688 38.3423C20.3788 41.9043 18.6318 45.5533 16.0308 47.4273C15.7688 47.6313 15.4978 47.7963 15.2158 47.9513C15.1688 48.0583 15.1188 48.1553 15.0708 48.2623C13.3718 51.6793 9.63477 54.2893 5.80177 52.8913C0.395771 50.9313 -1.00123 43.2633 2.21977 39.0993C2.39477 38.8863 2.56977 38.6723 2.76377 38.4783C2.68577 38.4393 2.62877 38.4103 2.56077 38.3613H2.55177C-0.419229 36.7893 -0.602228 33.0813 1.00777 30.1023C1.85177 28.5493 4.67677 25.1913 7.11177 25.2783C7.17977 20.7943 9.13077 14.7483 13.9148 16.6313C14.0218 16.4663 14.1088 16.3013 14.2168 16.1363C12.4408 13.4483 13.9058 10.3133 16.4288 8.28433C16.7688 8.01333 17.1288 7.76133 17.4968 7.52733C17.5348 7.50833 17.5748 7.47932 17.6138 7.46032C21.9428 4.83932 26.6398 4.61633 30.2788 6.33433C31.9768 3.42233 34.6458 1.17132 38.5188 0.297323C42.2848 -0.556677 45.7098 0.336325 47.2928 4.18932C47.6228 4.99533 47.9528 6.34333 48.0788 7.67333C49.3118 4.07233 53.5928 3.08332 57.5518 4.61632C61.6178 6.19832 63.0648 9.46933 62.9678 13.4003C64.2778 13.6233 65.5878 14.0603 66.7728 14.6233C67.1898 14.8173 67.5968 15.0413 68.0048 15.2833C68.4308 15.5263 68.8488 15.7883 69.2658 16.0793C72.9158 18.6023 76.0208 22.6203 76.6228 26.9003C76.8758 28.6863 76.5558 30.1613 75.8468 31.3943C75.7788 31.5213 75.7098 31.6273 75.6328 31.7443C75.8378 32.3943 76.0028 33.0543 76.1288 33.7433C76.2818 34.5183 76.3908 35.3143 76.4378 36.1193Z" fill="#4A1D1D"/>
<path d="M8.35471 38.0708C6.48071 38.8278 4.2597 39.5168 2.2207 39.0988C2.3957 38.8858 2.5707 38.6718 2.7647 38.4778C2.6867 38.4388 2.62971 38.4098 2.56171 38.3608C3.73471 38.5938 5.0947 38.3898 6.5687 37.8178C8.8987 36.9148 11.5577 35.4888 12.8397 33.2178C13.5587 31.9558 14.9747 28.4718 12.4607 27.9188C11.4617 27.6948 10.4417 27.6948 9.46171 28.0448C8.30771 28.4528 7.38471 28.8508 6.58871 29.8408C5.83171 30.5978 5.3857 31.4898 5.2497 32.5388C5.8997 33.0238 6.54971 33.5098 7.20071 33.9848C7.50171 33.9268 7.62771 34.2848 7.39471 34.4608C6.49271 35.1398 5.1037 35.3928 4.6387 33.9848C3.8527 31.5878 5.09471 30.2678 6.81171 28.6858C8.64671 26.9968 12.8487 26.0648 14.3827 28.4618C16.7887 32.2188 11.2657 36.8868 8.35471 38.0708Z" fill="#703838"/>
<path d="M23.1745 22.677C17.5735 20.474 15.4775 14.02 16.4275 8.28298C16.7675 8.01198 17.1275 7.75998 17.4955 7.52598C17.5335 7.50698 17.5735 7.47798 17.6125 7.45898C17.2425 8.92398 17.0885 10.429 17.1465 11.855C17.2825 15.107 18.2725 19.047 21.3485 20.794C24.8825 22.774 29.1905 22.114 31.8885 19.076C32.4125 12.728 30.6645 10.904 26.6285 13.602C25.6385 14.359 25.4545 15.281 26.0555 16.368C26.5605 16.553 26.3565 17.242 25.8435 17.164C22.1065 16.611 27.9595 8.76898 32.3175 12C38.9555 16.923 28.8905 24.929 23.1745 22.677Z" fill="#703838"/>
<path d="M69.2657 16.0783C68.9257 18.6013 68.2567 20.8923 67.4127 22.4153C63.9077 28.7143 53.4067 31.1503 47.4477 26.5303C41.5267 21.9403 47.4477 10.3513 53.5617 15.1263C55.5897 16.7083 55.7937 21.5803 53.4357 22.9683C51.6497 24.0163 50.2817 22.7643 50.6887 20.9973C50.8247 20.4253 51.6967 20.5603 51.6967 21.1333C54.7747 16.3583 53.4637 15.0093 47.7957 17.0673C45.9707 19.1533 45.6117 21.3473 46.7087 23.6573C47.9407 25.4433 49.7747 26.3743 51.8617 26.7433C54.5697 27.2283 58.0637 27.6373 60.7137 26.6563C65.6047 24.8313 67.7007 20.2313 68.0027 15.2813C68.4307 15.5253 68.8487 15.7873 69.2657 16.0783Z" fill="#703838"/>
<path d="M76.1274 33.7423C75.7684 33.3153 75.3314 32.9173 74.7684 32.5783C72.7404 31.3453 70.2274 30.9763 67.9744 31.8503C65.6934 32.7243 63.5304 34.7813 63.5864 37.4213C63.6174 38.6533 64.0154 39.9643 65.2174 40.5463C65.8784 40.8673 66.8284 41.2453 67.5864 41.1683C68.9354 41.2073 69.1004 40.4303 68.0714 38.8293C67.6824 39.1783 66.9834 38.8493 67.1584 38.2953C68.2164 34.9463 73.6024 39.6443 69.9834 41.9353C66.2274 44.3233 61.7724 41.1003 62.1704 36.9083C62.6264 32.1143 67.5374 29.5903 71.9044 30.0173C73.1374 30.1433 74.5644 30.6383 75.8454 31.3953C75.7774 31.5223 75.7084 31.6283 75.6314 31.7453C75.8364 32.3933 76.0014 33.0523 76.1274 33.7423Z" fill="#703838"/>
<path d="M41.2755 37.0904C41.0715 36.8384 40.9455 36.4795 41.1585 36.1785C41.2555 36.0325 41.3625 35.8775 41.4695 35.7325C41.7995 35.2755 42.5085 35.4315 42.5365 36.0135C42.5855 37.3525 50.7675 35.7214 46.7005 32.4124C45.8855 31.7234 44.9535 31.3735 43.9055 31.3645C42.1585 31.4225 40.3625 31.7524 38.8095 32.6164C37.7905 33.1894 36.9465 33.9075 36.1885 34.6935C36.6445 34.1015 37.2075 33.4025 37.8095 32.7815C37.4015 32.8105 36.9935 32.8014 36.5665 32.7724C37.3135 32.1024 38.1675 31.5395 39.1975 31.1125C41.5745 30.1225 45.6615 29.0165 47.6995 31.4135C51.0785 35.3825 44.0695 40.6134 41.2755 37.0904Z" fill="#703838"/>
<path d="M16.0312 47.4263C15.6532 45.4273 14.3632 43.5443 11.8782 42.2153C8.38421 40.3413 5.53121 42.9723 5.21121 46.3783C5.00721 48.6203 7.45221 51.0853 9.07321 48.5623C9.27821 48.2423 9.0152 47.8053 8.6462 47.8053C6.7542 47.8443 6.72421 46.8053 7.20021 45.2043C8.43321 41.0113 13.9562 45.1943 14.8292 47.4173C14.9362 47.6993 15.0232 47.9803 15.0722 48.2623L16.0312 47.4263Z" fill="#703838"/>
<g opacity="0.4">
<path d="M57.976 64.6952C57.976 66.1892 55.967 67.3982 53.487 67.3982C51.007 67.3982 48.998 66.1892 48.998 64.6952C48.998 63.2032 51.006 61.9932 53.487 61.9932C55.966 61.9932 57.976 63.2032 57.976 64.6952Z" fill="#DB5D7B"/>
<path d="M27.8891 65.6659C27.8891 67.1599 25.8801 68.3679 23.4001 68.3679C20.9191 68.3679 18.9111 67.1599 18.9111 65.6659C18.9111 64.1739 20.9191 62.9639 23.4001 62.9639C25.8801 62.9639 27.8891 64.1739 27.8891 65.6659Z" fill="#DB5D7B"/>
</g>
<path d="M18.9164 50.0496C20.7104 47.8866 23.1144 46.9416 25.9094 47.0456C30.7744 47.2266 34.0384 52.1226 32.2514 56.6386C32.1374 56.9236 31.6294 56.9196 31.6684 56.5596C32.0364 53.1346 29.3724 49.8636 25.9094 49.8586C24.2264 49.8556 22.7484 50.4216 21.5584 51.5966C20.4154 52.7246 20.6844 54.4096 19.9034 55.6916C19.6004 56.1896 18.8704 56.3176 18.4514 55.8796C16.8494 54.1956 17.5334 51.7166 18.9164 50.0496Z" fill="#390A0A"/>
<path d="M19.667 55.0345C19.667 58.5235 22.538 61.3505 26.08 61.3505C29.623 61.3505 32.494 58.5235 32.494 55.0345C32.494 51.5465 29.623 48.7195 26.08 48.7195C22.538 48.7185 19.667 51.5465 19.667 55.0345Z" fill="white"/>
<path d="M30.3099 55.2695C30.3099 58.1095 28.5139 60.4115 26.3019 60.4115C24.0869 60.4115 22.2939 58.1095 22.2939 55.2695C22.2939 52.4315 24.0869 50.1285 26.3019 50.1285C28.5139 50.1285 30.3099 52.4305 30.3099 55.2695Z" fill="#80422B"/>
<path d="M29.7721 55.27C29.7721 57.728 28.2191 59.724 26.3011 59.724C24.3831 59.724 22.8301 57.728 22.8301 55.27C22.8301 52.811 24.3831 50.817 26.3011 50.817C28.2191 50.817 29.7721 52.811 29.7721 55.27Z" fill="#390A0A"/>
<path d="M29.3296 51.812C29.3296 52.361 28.6706 52.806 27.8596 52.806C27.0476 52.806 26.3896 52.361 26.3896 51.812C26.3896 51.263 27.0476 50.817 27.8596 50.817C28.6716 50.817 29.3296 51.263 29.3296 51.812Z" fill="white"/>
<path d="M58.2877 49.6853C56.4937 47.5223 54.0897 46.5783 51.2947 46.6823C46.4297 46.8633 43.1657 51.7593 44.9537 56.2753C45.0667 56.5603 45.5757 56.5553 45.5367 56.1963C45.1687 52.7713 47.8337 49.5003 51.2957 49.4953C52.9797 49.4923 54.4567 50.0583 55.6477 51.2333C56.7907 52.3603 56.5217 54.0463 57.3027 55.3283C57.6057 55.8263 58.3357 55.9543 58.7547 55.5153C60.3547 53.8313 59.6707 51.3523 58.2877 49.6853Z" fill="#390A0A"/>
<path d="M44.2432 55.0344C44.2432 58.5234 47.1142 61.3504 50.6572 61.3504C54.1992 61.3504 57.0702 58.5234 57.0702 55.0344C57.0702 51.5464 54.1992 48.7194 50.6572 48.7194C47.1142 48.7184 44.2432 51.5464 44.2432 55.0344Z" fill="white"/>
<path d="M54.5736 55.2695C54.5736 58.1095 52.7786 60.4115 50.5656 60.4115C48.3506 60.4115 46.5576 58.1095 46.5576 55.2695C46.5576 52.4315 48.3506 50.1285 50.5656 50.1285C52.7786 50.1285 54.5736 52.4305 54.5736 55.2695Z" fill="#80422B"/>
<path d="M54.0367 55.27C54.0367 57.728 52.4837 59.724 50.5657 59.724C48.6477 59.724 47.0947 57.728 47.0947 55.27C47.0947 52.811 48.6477 50.817 50.5657 50.817C52.4837 50.817 54.0367 52.811 54.0367 55.27Z" fill="#390A0A"/>
<path d="M53.5943 51.812C53.5943 52.361 52.9353 52.806 52.1243 52.806C51.3113 52.806 50.6543 52.361 50.6543 51.812C50.6543 51.263 51.3123 50.817 52.1243 50.817C52.9353 50.817 53.5943 51.263 53.5943 51.812Z" fill="white"/>
<path d="M48.214 74.2098C46.676 72.3808 42.404 67.9538 39.839 70.5708C39.07 71.3568 38.871 70.9798 37.986 70.6458C36.891 70.2308 35.694 70.1838 34.633 70.7188C33.428 71.3258 32.848 72.5248 31.87 73.3908C31.311 73.8858 30.809 74.4598 30.511 75.1428C30.238 75.1938 30.066 75.5168 30.298 75.7478C33.053 78.4818 35.707 80.9018 39.784 80.5658C45.483 80.0948 47.746 74.9438 47.909 74.9468C48.312 74.9548 48.444 74.4838 48.214 74.2098Z" fill="#AB0048"/>
<path d="M33.7141 74.2732C33.7141 74.2732 40.2651 74.2732 44.0261 74.0302C45.7121 73.9212 37.9601 78.5192 33.7141 74.2732Z" fill="white"/>
<path d="M18.792 46.9753C18.792 46.9753 24.252 39.6963 33.714 46.9753C33.714 46.9753 29.711 44.0643 18.792 46.9753Z" fill="#390A0A"/>
<path d="M44.5107 46.9753C44.5107 46.9753 49.9697 39.6963 59.4327 46.9753C59.4327 46.9753 55.4297 44.0643 44.5107 46.9753Z" fill="#390A0A"/>
<path d="M42.7972 60.3862C42.1242 59.6982 41.0372 59.7872 40.0512 60.2612C40.0652 59.3262 39.9832 58.2802 39.5022 57.5392C38.5882 56.1302 37.2562 57.7932 36.8802 58.7032C36.6282 59.3122 36.5242 60.0332 36.5472 60.7582C35.3722 60.1412 34.0992 60.0552 33.5272 61.3752C32.6562 63.3842 36.4882 66.9662 38.4362 66.2702C40.3962 65.5712 45.4242 63.0692 42.7972 60.3862Z" fill="#CD8B6D"/>
<path d="M11.9211 63.0677C11.8821 63.0267 11.8411 62.9857 11.8011 62.9447C11.2771 62.4127 10.4651 63.2267 10.9841 63.7617C13.4411 66.2967 15.1351 69.7197 15.8351 73.1537C16.5441 76.6347 16.8291 80.5247 16.3041 84.0497C16.1541 85.0547 15.9081 86.0417 15.5801 87.0037C15.0851 88.4577 12.5131 94.5597 10.4471 91.4697C10.0021 90.8037 9.34014 89.9097 9.11314 89.1447C8.71914 87.8147 8.46014 86.4567 8.33714 85.0697C8.14514 83.5457 8.07113 82.0547 8.05613 80.5187C8.00913 76.0907 9.07813 71.7627 10.3301 67.5527C10.4341 67.2007 9.91313 67.0707 9.78813 67.4037C7.44913 73.6937 6.13813 79.9267 7.37313 86.6287C7.67713 88.2827 9.57113 96.1517 13.1191 93.5517C17.3241 90.4707 17.5551 84.4767 17.6101 79.6997C17.6781 73.5937 16.2661 67.5147 11.9211 63.0677Z" fill="#7FADC4"/>
<path d="M14.0607 63.8394C14.0607 64.9114 13.1917 65.7804 12.1197 65.7804C11.0477 65.7804 10.1787 64.9114 10.1787 63.8394C10.1787 62.7674 11.0477 61.8984 12.1197 61.8984C13.1917 61.8984 14.0607 62.7664 14.0607 63.8394Z" fill="white"/>
<path d="M64.0254 63.7952C64.0654 63.7542 64.1054 63.7142 64.1464 63.6732C64.6704 63.1412 65.4814 63.9552 64.9634 64.4902C62.5054 67.0252 60.8124 70.4492 60.1124 73.8822C59.4034 77.3632 59.1184 81.2532 59.6434 84.7772C59.7924 85.7822 60.0394 86.7692 60.3674 87.7312C60.8624 89.1852 63.4344 95.2872 65.5004 92.1962C65.9454 91.5312 66.6074 90.6362 66.8354 89.8712C67.2294 88.5412 67.4884 87.1822 67.6114 85.7962C67.8034 84.2722 67.8784 82.7812 67.8934 81.2452C67.9404 76.8172 66.8704 72.4892 65.6184 68.2792C65.5144 67.9272 66.0354 67.7972 66.1604 68.1302C68.4994 74.4202 69.8104 80.6532 68.5754 87.3552C68.2704 89.0082 66.3774 96.8772 62.8294 94.2782C58.6244 91.1972 58.3934 85.2032 58.3384 80.4262C58.2684 74.3202 59.6804 68.2422 64.0254 63.7952Z" fill="#7FADC4"/>
<path d="M65.7424 64.0816C65.7424 65.1536 64.8734 66.0226 63.8014 66.0226C62.7294 66.0226 61.8604 65.1536 61.8604 64.0816C61.8604 63.0096 62.7294 62.1406 63.8014 62.1406C64.8734 62.1406 65.7424 63.0096 65.7424 64.0816Z" fill="white"/>
</svg>
