<svg width="98" height="124" viewBox="0 0 98 124" fill="none" xmlns="http://www.w3.org/2000/svg">
<path d="M93.3827 30.8689C88.9037 22.9959 81.2697 18.1699 73.7037 13.6709C68.9267 10.8259 63.1297 7.36488 57.2477 6.29788C56.9487 6.23988 56.6607 6.19287 56.3527 6.15387H56.3437C56.2087 6.12487 56.0737 6.11489 55.9397 6.09589C55.7567 6.07589 55.5657 6.05687 55.3817 6.03787C55.1987 6.01787 55.0167 6.00987 54.8337 5.99887H54.8237C54.5457 5.97887 54.2767 5.96988 54.0067 5.96088C53.7567 5.96088 53.5167 5.96088 53.2677 5.96988C52.5557 5.99088 51.8547 6.04688 51.1427 6.17288H51.1337C50.9597 6.19188 50.7867 6.21988 50.6137 6.25888C48.9216 6.60488 47.3736 7.13389 45.9216 7.81589C44.3937 7.51889 42.8937 7.37488 41.5677 7.33588C39.4527 7.28888 37.3577 7.41289 35.2997 7.72089C34.5017 7.84589 33.7037 7.99087 32.9157 8.16287C25.0527 9.88387 17.8997 14.1709 12.5467 20.3519C8.96065 24.4959 5.74965 29.6949 4.91365 35.1949C4.71165 36.5789 5.17366 38.7709 6.32666 40.0289C6.07766 40.4819 5.83665 40.9039 5.61565 41.2989C3.09765 45.6639 1.34765 50.2489 0.434651 55.2189C-0.343349 59.4489 -0.123339 63.8129 1.47266 67.8219C2.13666 69.4839 3.46165 71.4739 5.14365 72.8959C5.49065 73.1949 5.86466 73.4739 6.23966 73.7139C7.38366 74.4349 8.64265 74.8659 9.93065 74.7609C11.4787 74.6369 12.7467 74.1459 13.7757 73.4059C15.7477 77.1359 18.9187 81.6639 22.1777 83.1919C22.8037 83.4809 23.4177 83.6639 24.0327 83.7019C25.5707 83.8269 27.0797 83.1259 28.4537 81.1919C30.7427 77.9719 31.0787 78.7989 33.2027 81.3559C34.1937 82.5479 35.6627 82.8939 37.1057 82.9229C38.5577 82.9509 39.9327 82.3549 41.1247 81.4429C41.2307 83.7209 41.9797 85.9899 43.2107 87.6909C45.8837 91.4019 50.7477 90.9979 54.4977 89.5069C54.7277 89.4109 54.9587 89.3159 55.1807 89.2189C55.5657 89.0459 55.9397 88.8439 56.2867 88.6229C59.0077 86.9399 60.7567 84.0089 61.6877 80.9719C63.7837 83.3069 66.7547 84.7789 69.7537 84.0669C71.7727 83.5949 73.3297 82.6439 74.5207 81.3759C76.0597 79.7509 76.9926 77.6079 77.5696 75.2909C78.0306 73.4059 78.2527 71.4159 78.3567 69.4839C80.7037 71.9939 83.8657 73.0499 86.8747 71.6369C87.4987 71.3389 88.1247 70.9349 88.7307 70.4069C88.9797 70.1959 89.2297 69.9559 89.4797 69.6949C93.3727 65.5819 93.1136 58.2949 92.0176 52.9509C93.2096 52.5849 94.1517 51.6909 95.0647 50.3539C95.2567 50.0759 95.4297 49.7869 95.5937 49.4989C96.1987 48.4219 96.6127 47.2979 96.8617 46.1439C97.9767 41.0099 95.8817 35.2709 93.3827 30.8689Z" fill="#8E3F20"/>
<path d="M35.3002 7.71967C31.6092 10.2587 28.1092 13.1217 24.8502 15.8327C17.7172 21.7547 13.0742 28.8007 10.5752 37.7897C7.79722 47.7387 3.51022 62.3797 6.23922 73.7137C5.86422 73.4737 5.49021 73.1937 5.14321 72.8957C4.90321 71.6467 4.75921 70.4357 4.68221 69.3107C4.02921 59.2647 6.44122 48.8447 9.12322 39.2117C11.8142 29.5507 16.1692 21.4187 24.1282 15.1107C26.9352 12.8817 29.8492 10.4117 32.9152 8.16165C33.7042 7.98965 34.5022 7.84467 35.3002 7.71967Z" fill="#B75B3E"/>
<path d="M53.2676 5.96988C47.9606 8.97988 42.7696 14.4019 39.9236 17.2459C33.8866 23.2729 28.3596 30.1559 24.7836 37.9529C18.6116 51.3819 15.9296 70.4539 24.0336 83.7009C23.4186 83.6629 22.8036 83.4799 22.1786 83.1909C19.8036 78.6639 18.5546 73.3759 18.1126 68.5979C17.0736 57.4379 19.1226 45.7679 24.4576 35.8469C29.5426 26.3779 36.4736 18.1199 44.7506 11.2659C46.5676 9.76687 48.7596 7.81488 51.1346 6.17188H51.1436C51.8546 6.04688 52.5556 5.99088 53.2676 5.96988Z" fill="#B75B3E"/>
<path d="M55.7564 82.4038C56.1114 84.4038 56.2954 86.5078 56.2854 88.6238C55.9384 88.8448 55.5644 89.0469 55.1794 89.2198C54.9574 89.3168 54.7264 89.4118 54.4964 89.5078C54.5624 88.3548 54.5624 87.1918 54.4574 85.9988C54.0054 80.7888 52.4194 75.8568 51.4204 70.7438C49.6024 61.3708 48.1034 51.8148 47.0464 42.3279C46.0084 33.0219 45.9504 23.2839 49.4114 14.4109C50.5174 11.5659 51.9784 8.47985 54.0064 5.96185C54.2774 5.97085 54.5454 5.97985 54.8234 5.99985C50.0164 11.8448 48.1324 21.7178 47.8344 27.9938C47.3934 37.5398 49.1034 46.9328 50.4874 56.3438C51.7964 65.1578 54.2284 73.6648 55.7564 82.4038Z" fill="#B75B3E"/>
<path d="M74.7426 54.8149C77.0596 61.4279 78.2036 68.5039 77.5696 75.2909C76.9926 77.6069 76.0596 79.7509 74.5206 81.3759C75.5496 78.3769 76.2036 75.2619 76.2136 71.9649C76.2336 62.7549 72.8686 54.1429 69.2056 45.8269C63.3986 32.6469 56.1036 20.5449 55.3816 6.03888C55.5656 6.05788 55.7566 6.07686 55.9396 6.09686C57.7566 23.7059 68.9746 38.3369 74.7426 54.8149Z" fill="#B75B3E"/>
<path d="M96.8615 46.1443C96.6125 47.2973 96.1995 48.4212 95.5935 49.4992C95.4195 48.5482 95.2285 47.6053 94.9965 46.6833C92.9875 38.5603 88.0275 33.8212 82.5675 27.9472C77.6255 22.6402 71.3295 18.6232 65.5515 14.3062C63.2635 12.6052 60.8985 10.9043 58.8425 8.93225C62.7435 13.9893 66.3485 19.4883 69.9445 24.7173C74.8675 31.8993 79.3755 39.3862 83.0765 47.2882C86.0465 53.6422 89.1035 61.0343 88.8735 68.1963C88.8445 68.9463 88.8065 69.6763 88.7295 70.4073C88.1235 70.9353 87.4975 71.3402 86.8735 71.6372C87.2015 68.3212 87.1045 65.0902 86.3265 61.6982C84.7395 54.7382 81.7885 48.4313 78.5965 42.0963C72.4255 29.8303 64.2065 18.6792 57.0445 7.01825C56.8045 6.73125 56.5725 6.44224 56.3525 6.15424C56.6615 6.19224 56.9495 6.24025 57.2475 6.29825C61.6305 11.5672 68.9165 15.0852 74.3485 19.0352C79.9245 23.0832 85.5475 27.6093 90.0455 32.8593C93.3245 36.6843 95.6795 41.2503 96.8615 46.1443Z" fill="#B75B3E"/>
<path d="M53.8528 95.4779C49.8638 98.7939 41.5588 95.4779 41.5588 95.4779C42.2508 94.1019 42.6638 92.5449 42.8848 90.9409C42.9138 90.7959 42.9328 90.6509 42.9418 90.5069C43.0958 89.2579 43.1448 87.9979 43.1148 86.7689C43.1058 86.0079 43.0678 85.2589 43.0008 84.5379C42.6928 80.7889 41.8948 77.8669 41.8948 77.8669L52.5278 77.5399C51.8548 79.7599 51.6808 82.1929 51.7778 84.5379C51.8158 85.6249 51.9218 86.6919 52.0568 87.7009C52.1808 88.6139 52.3248 89.4889 52.4888 90.2969C52.5178 90.4419 52.5468 90.5849 52.5758 90.7199C53.1628 93.5339 53.8528 95.4779 53.8528 95.4779Z" fill="#CD8B6D"/>
<path d="M18.2567 109.695C18.1117 108.956 24.0527 95.4782 38.9147 92.9502C41.1257 92.5752 43.5287 92.4492 46.1337 92.6332C51.2967 92.9982 55.6987 93.6512 59.4477 94.6322C70.3967 97.4782 75.8287 103.101 78.3377 112.58C81.7027 125.316 22.1017 129.402 18.2567 109.695Z" fill="#CD8B6D"/>
<path d="M78.3378 112.579C75.8288 103.1 70.3978 97.4759 59.4478 94.6309C59.4198 94.6499 59.3998 94.6599 59.3708 94.6789C54.0168 97.9959 43.3358 98.4289 38.9138 92.9499C24.0518 95.4779 18.1108 108.956 18.2558 109.695C22.1018 129.402 81.7028 125.316 78.3378 112.579Z" fill="#B5F4FF"/>
<path d="M29.0206 97.3916C28.9536 97.0026 28.7386 96.7106 28.4546 96.5066C28.4526 96.5006 28.4526 96.4946 28.4506 96.4896C28.2906 95.9446 27.6886 95.7196 27.1976 95.9796C27.0366 96.0636 26.8896 96.1656 26.7536 96.2776C26.7016 96.2956 26.6466 96.3116 26.5976 96.3346C26.3906 96.3576 26.2356 96.4686 26.1206 96.6566C25.5766 97.1986 25.4476 98.0986 25.5896 98.8696C25.6406 99.1406 25.9246 99.4266 26.1956 99.4756C26.2586 99.4876 26.3136 99.4766 26.3756 99.4816C26.5386 99.6466 26.7326 99.7776 26.9876 99.8236C28.2086 100.042 29.2106 98.4786 29.0206 97.3916Z" fill="#69C0C9"/>
<path d="M38.9177 102.534C38.5527 101.852 37.8788 101.446 36.9928 101.885C35.9418 102.406 35.0357 104.229 35.4737 105.363C35.8617 106.368 36.9297 106.684 37.8637 106.192C38.7347 105.732 39.3067 104.664 39.4007 103.718C39.4517 103.217 39.2437 102.812 38.9177 102.534Z" fill="#69C0C9"/>
<path d="M37.4708 94.9339C37.2108 94.2819 36.6568 93.9459 36.0678 93.8679C35.8718 93.7859 35.6698 93.7219 35.4598 93.7039C34.0598 93.5789 33.4438 95.1519 33.6658 96.2849C33.8838 97.3939 35.0068 97.8579 35.9738 97.5109C36.5978 97.4939 37.1578 97.1089 37.3898 96.4429C37.4558 96.2549 37.4788 96.0669 37.4808 95.8809C37.5758 95.5649 37.5918 95.2399 37.4708 94.9339Z" fill="#69C0C9"/>
<path d="M51.3576 102.31C50.9346 102.006 50.4366 101.995 49.9856 102.153C49.8346 102.146 49.6806 102.185 49.5656 102.313C49.5346 102.346 49.5056 102.386 49.4756 102.422C49.4266 102.458 49.3756 102.492 49.3296 102.533C48.8916 102.907 48.7836 103.443 48.8466 103.969C48.8386 104.18 48.8666 104.387 48.9396 104.58C49.0386 104.837 49.1876 105.012 49.3616 105.132C49.3916 105.423 49.4626 105.71 49.6036 105.969C49.7516 106.239 50.1136 106.394 50.4096 106.296C51.9836 105.781 52.8766 103.397 51.3576 102.31Z" fill="#69C0C9"/>
<path d="M46.503 111.105C46.028 110.537 45.223 110.512 44.6 110.814C44.176 111.02 43.856 111.372 43.639 111.785C43.176 112.304 43.048 113.109 43.387 113.8C43.444 113.916 43.522 114.008 43.601 114.102C43.643 114.182 43.678 114.268 43.732 114.343C44.108 114.865 44.761 115.023 45.258 114.726C46.059 114.658 46.55 114.059 46.849 113.308C47.133 112.597 46.989 111.687 46.503 111.105Z" fill="#69C0C9"/>
<path d="M62.9406 99.8279C62.9236 99.7929 62.9006 99.7619 62.8816 99.7259C62.8586 99.5719 62.8186 99.4149 62.7446 99.2529C62.5466 98.8189 62.2026 98.4719 61.7856 98.2439C61.4706 98.0729 61.0756 98.0499 60.7626 98.2439C59.9026 98.7769 59.5616 99.6629 60.0106 100.593C60.3326 101.262 61.1316 101.714 61.8466 101.786C62.3066 101.833 62.7256 101.596 62.9806 101.225C63.2826 100.79 63.1566 100.262 62.9406 99.8279Z" fill="#69C0C9"/>
<path d="M67.4576 96.3261C67.4676 96.1891 67.4606 96.0502 67.4106 95.9022C67.1686 95.1902 66.4426 94.7902 65.7146 94.9432C65.5186 94.9842 65.3376 95.1262 65.1946 95.2582C65.0266 95.4772 64.9936 95.5192 65.0946 95.3812C65.0276 95.4702 64.9596 95.5571 64.8916 95.6451C64.8716 95.6701 64.8676 95.7071 64.8506 95.7351C64.7906 95.8331 64.7436 95.9362 64.7056 96.0492C64.6996 96.0672 64.6936 96.0822 64.6906 96.1002C64.6656 96.1812 64.6316 96.2552 64.6196 96.3412C64.6076 96.4082 64.6116 96.4752 64.6266 96.5382V96.5402C64.5986 97.1312 64.9886 97.6932 65.4606 98.0122C65.8816 98.2962 66.5536 98.3942 66.9826 98.0702C67.5626 97.6302 67.6336 96.9851 67.4576 96.3261Z" fill="#69C0C9"/>
<path d="M75.8017 103.458C75.7837 103.407 75.7526 103.366 75.7306 103.318C75.7326 103.199 75.7306 103.079 75.7166 102.965C75.6506 102.402 75.3176 102.023 74.7336 101.982C73.9866 101.93 73.4266 102.298 73.0916 102.818C73.0556 102.86 73.0287 102.906 73.0077 102.953C72.9957 102.974 72.9856 102.997 72.9746 103.02C72.9726 103.026 72.9676 103.032 72.9666 103.039C72.4846 104.04 72.7737 105.426 74.1417 105.698C75.4617 105.96 76.1977 104.582 75.8017 103.458Z" fill="#69C0C9"/>
<path d="M64.6451 107.167C63.5481 107.083 62.9431 108.29 63.1771 109.255C63.2401 109.515 63.3611 109.737 63.5171 109.917C63.6841 110.475 64.0031 110.952 64.6871 110.932C65.4811 110.909 66.2241 110.094 66.3481 109.343C66.5431 108.159 65.8451 107.261 64.6451 107.167Z" fill="#69C0C9"/>
<path d="M58.1929 113.763C58.2189 113.615 58.2429 113.464 58.2449 113.3C58.2539 112.754 57.7199 112.395 57.2149 112.514C55.8089 112.846 55.4929 114.763 56.3079 115.796C56.5029 116.044 56.8259 116.197 57.1409 116.205C57.5449 116.214 57.9229 115.968 58.1269 115.768C58.7039 115.207 58.6369 114.353 58.1929 113.763Z" fill="#69C0C9"/>
<path d="M33.6663 112.174C33.1393 111.804 32.1483 111.815 31.6953 112.319C31.5353 112.496 31.4283 112.672 31.3423 112.851C31.1203 113.143 30.9553 113.482 30.8603 113.798C30.5563 114.795 31.0483 115.769 32.0013 116.146C32.8633 116.488 33.8153 116.137 34.2333 115.304C34.7363 114.3 34.6413 112.858 33.6663 112.174Z" fill="#69C0C9"/>
<path d="M26.2694 107.97C25.7114 107.24 24.7174 106.969 23.8344 107.144C23.0124 107.305 22.6924 108.148 22.8084 108.885C22.8774 109.327 23.1564 109.718 23.4344 110.061C23.5234 110.268 23.6384 110.464 23.8124 110.634C24.5144 111.318 25.3654 110.771 25.9614 110.281C26.6274 109.738 26.8024 108.668 26.2694 107.97Z" fill="#69C0C9"/>
<path d="M21.5217 105.832C21.6297 105.348 21.4757 104.803 21.2747 104.387C20.9857 103.789 20.1537 103.779 19.7167 104.186C19.2927 104.582 18.9517 105.181 18.8667 105.758C18.7487 106.566 19.0407 107.168 19.6857 107.651C20.0297 107.908 20.5867 107.785 20.8667 107.5C21.1727 107.187 21.5297 106.891 21.6027 106.437C21.6417 106.205 21.6057 106.002 21.5217 105.832Z" fill="#69C0C9"/>
<path d="M50.7489 96.3984C49.8449 95.1994 47.9629 95.4474 47.4359 96.8674C47.1989 97.5074 47.3499 98.2563 47.7349 98.8323C47.7709 98.9343 47.8169 99.0324 47.8889 99.1274C48.1139 99.4214 48.4209 99.5854 48.7519 99.6484C48.7939 99.6634 48.8309 99.6863 48.8729 99.6973C49.2159 99.7903 49.5139 99.7093 49.7539 99.5463C49.8269 99.5173 49.8999 99.4864 49.9709 99.4494C50.9969 98.8994 51.4869 97.3724 50.7489 96.3984Z" fill="#69C0C9"/>
<path d="M78.6495 108.659C78.6275 108.594 78.6045 108.528 78.5825 108.468C78.3545 107.822 77.7235 107.582 77.1125 107.87C75.6725 108.545 75.6975 110.349 76.3155 111.582C76.4435 111.835 76.6355 112.076 76.8475 112.264C77.3255 112.689 77.8005 112.639 78.3445 112.364C78.8965 112.086 79.3445 111.522 79.4665 110.915C79.6275 110.103 79.2985 109.177 78.6495 108.659Z" fill="#69C0C9"/>
<path d="M72.2195 48.3759C72.6065 47.8169 73.1944 47.3789 74.0824 46.9919C74.7624 46.6969 75.4975 46.5089 76.2225 46.3639C77.6615 46.0779 79.4124 46.0559 80.4324 47.2999C81.1384 48.1619 81.4015 49.5759 81.4505 50.6599C81.6725 55.5499 77.5535 58.2489 73.3385 59.4079C72.5415 59.6259 71.1495 60.4329 70.5555 59.4769C69.5405 57.8489 71.0075 50.1279 72.2195 48.3759Z" fill="#CD8B6D"/>
<path d="M72.2048 52.0703C72.2048 52.0703 77.3758 47.2803 78.0778 49.9253C78.7818 52.5703 77.6528 55.4363 77.6528 55.4363C77.6528 55.4363 77.7418 52.0073 74.8628 53.2433C74.8628 53.2433 75.8468 59.0173 71.5088 56.3263C71.5088 56.3263 69.9668 54.2573 72.2048 52.0703Z" fill="#B66C50"/>
<path d="M22.7375 48.3759C22.3505 47.8169 21.7635 47.3789 20.8745 46.9919C20.1945 46.6969 19.4595 46.5089 18.7345 46.3639C17.2965 46.0779 15.5445 46.0559 14.5255 47.2999C13.8195 48.1619 13.5565 49.5759 13.5075 50.6599C13.2865 55.5499 17.4035 58.2489 21.6195 59.4079C22.4165 59.6259 23.8075 60.4329 24.4035 59.4769C25.4165 57.8489 23.9495 50.1279 22.7375 48.3759Z" fill="#CD8B6D"/>
<path d="M22.7524 52.0703C22.7524 52.0703 17.5814 47.2803 16.8794 49.9253C16.1754 52.5703 17.3034 55.4363 17.3034 55.4363C17.3034 55.4363 17.2154 52.0073 20.0934 53.2433C20.0934 53.2433 19.1094 59.0173 23.4484 56.3263C23.4484 56.3263 24.9904 54.2573 22.7524 52.0703Z" fill="#B66C50"/>
<path d="M73.6814 44.2975C73.5894 45.2395 73.4624 46.1905 73.3364 47.1525C72.5204 53.2375 71.5434 59.3145 70.0284 65.2745C67.1744 76.5035 53.2764 82.0275 48.3274 81.6476C22.8124 78.2215 21.4824 60.7045 21.6684 58.8015C21.9704 55.8225 21.4494 52.5885 21.2564 49.6165C21.1554 48.0335 20.9184 46.4095 20.6914 44.7855C20.3204 42.0235 19.9844 39.2295 20.4144 36.5355C20.4304 36.4085 20.4564 36.2825 20.4814 36.1485C20.9514 33.4395 21.8284 30.6345 22.8634 28.1095C26.1044 20.2305 32.6454 11.4085 41.9964 11.2315C44.1864 11.1905 46.4084 11.5695 48.5704 12.2325C51.6934 13.1745 54.7074 14.6825 57.3504 16.2755C63.2354 19.8355 69.1094 23.8825 72.0474 30.3585C74.1114 34.9195 74.1694 39.5255 73.6814 44.2975Z" fill="#FFC29C"/>
<path d="M76.2225 50.2959C75.7525 50.5939 75.2325 50.8429 74.6645 51.0359C74.0305 51.2479 73.3385 51.3819 72.5695 51.4309C69.6275 51.6219 68.1665 48.3169 67.7815 45.9899C67.1575 42.2409 70.7425 38.7709 70.5315 35.2909C68.9265 36.3009 67.1575 37.4339 65.2345 37.0499C65.1295 37.0309 65.0135 37.0019 64.8975 36.9729C64.6205 36.8969 64.3395 36.8099 64.0715 36.7139C61.8415 35.9749 59.7365 34.8109 58.0825 33.0999C57.6975 32.7049 57.2945 32.2919 56.8815 31.8699C57.9095 36.0519 57.7465 40.0889 54.0735 41.2319C53.9975 41.2709 53.9285 41.2899 53.8515 41.3089C53.1025 41.5109 52.3815 41.5789 51.6895 41.5209C47.7105 41.1849 44.8065 36.7729 42.9995 31.9849C42.9315 34.9359 42.4125 37.7339 40.7685 39.6079C40.0085 40.4729 39.1345 40.9719 38.2205 41.1649C37.7685 41.2629 37.3075 41.2809 36.8555 41.2319C35.1925 41.0589 33.5875 39.9539 32.5785 38.2239C30.2705 34.2519 30.1355 29.5629 31.5405 25.2839C27.7145 30.6969 25.0705 37.1769 23.9075 42.8179C23.4555 45.0009 23.1295 48.1259 20.8125 49.1529C20.6675 49.2119 20.5335 49.2589 20.3905 49.2789C19.7365 49.3929 19.0625 49.1159 18.4775 48.6539C17.7655 48.1149 17.1895 47.3169 16.9095 46.6719C9.94948 30.7339 25.5605 12.7679 40.9815 10.4699C41.6535 9.94287 42.5965 9.64386 43.5375 9.48986C43.2975 9.18186 43.0575 8.87588 42.7965 8.58788C41.7595 7.43388 40.4235 6.41487 39.6165 5.06887C39.4425 4.77987 39.7795 4.53887 40.0385 4.64587C42.1625 5.54887 43.4895 7.45286 44.7195 9.36486H44.9225C44.3265 6.26086 44.9605 2.43386 46.5375 0.166861C46.7295 -0.104139 47.2585 -0.0461317 47.2205 0.348868C46.9505 3.23287 46.1435 5.86788 46.1065 8.65588C47.4905 5.57888 50.4415 2.51188 53.4215 2.94488C53.7575 2.99288 53.6615 3.42487 53.4215 3.52087C50.6925 4.61687 48.2785 6.75087 46.9325 9.41387C47.0675 9.42387 47.2005 9.42387 47.3355 9.43487C48.1435 9.48287 48.9895 9.55886 49.8155 9.70486C49.9785 9.69486 50.1325 9.69488 50.2865 9.69488C50.6905 9.68388 51.1035 9.69486 51.5165 9.72286C52.2765 9.75086 53.0355 9.81888 53.7855 9.94488C54.9975 10.1269 56.1885 10.4249 57.3335 10.8389C66.5705 14.1649 74.0505 21.9609 78.0785 30.7569C80.3465 35.7329 81.7895 46.7109 76.2225 50.2959Z" fill="#A6562F"/>
<path d="M77.3483 44.3182C77.1453 46.2682 76.7993 48.3172 76.2223 50.2972C75.7523 50.5952 75.2323 50.8442 74.6643 51.0372C74.9733 50.1422 75.2133 49.2392 75.3863 48.3742C76.7993 41.3572 76.2133 34.2812 71.2913 28.7062C67.4273 24.3422 62.6483 21.2842 58.1883 17.6122C57.4283 16.9882 52.4973 12.4122 52.3233 10.2112C52.0943 10.4702 51.9873 10.8262 52.0263 11.2982C51.8343 12.9032 51.9203 14.4993 52.3043 16.0843C52.9493 18.4203 53.8513 20.4102 55.4573 22.2662C57.5823 24.7172 60.0903 26.7843 62.2253 29.2263C64.1763 31.4653 65.0513 34.2152 65.2343 37.0502C65.1293 37.0312 65.0133 37.0022 64.8973 36.9732C64.6203 36.8972 64.3393 36.8102 64.0713 36.7142C63.9563 35.1482 63.6293 33.6283 62.8213 32.2733C61.6383 30.2943 60.1583 28.6593 58.4853 27.0923C56.0733 24.8333 53.2753 22.3712 52.0933 19.1802C51.4973 17.5842 49.9193 11.9223 51.5163 9.72125C51.7083 9.45225 51.9493 9.24124 52.2463 9.08624C52.1793 9.01924 52.1313 8.93224 52.1123 8.83624C52.0823 8.95124 51.9773 9.04823 51.8333 8.99023C51.6423 8.91323 51.4293 8.87525 51.2283 8.85425C51.1993 8.94125 51.1413 9.01823 51.0263 9.06723C50.9203 9.10423 50.8243 9.14424 50.7273 9.18124C50.5743 9.33524 50.4203 9.49823 50.2863 9.69223C48.7183 11.7672 48.2093 15.9402 47.9313 17.7962C47.3263 21.7762 46.8353 26.0633 47.5853 30.0713C48.5463 35.1563 50.4593 39.1552 54.0743 41.2312C53.9983 41.2702 53.9293 41.2893 53.8523 41.3083C53.1033 41.5103 52.3823 41.5782 51.6903 41.5202C48.5753 38.5002 46.7493 33.3582 46.1923 29.3402C45.4713 24.1872 46.3163 18.6032 47.6043 13.6042C47.8843 12.5172 48.2303 11.0852 48.8553 9.94223C48.6333 10.0282 48.4223 10.1052 48.2023 10.2012C44.4433 13.3922 40.4153 21.2562 39.5593 23.0542C37.7143 26.9282 35.8963 31.2732 36.3863 35.6762C36.6263 37.8482 37.2903 39.5392 38.2223 41.1642C37.7703 41.2622 37.3093 41.2802 36.8573 41.2312C33.4163 35.2522 36.0503 27.1672 39.3093 21.1882C40.0783 19.7752 43.0383 14.4792 46.1723 11.0942C39.2033 14.3342 32.3583 18.8802 27.3503 24.3992C22.5823 29.6392 13.8533 42.6642 20.3913 49.2782C19.7373 49.3922 19.0633 49.1152 18.4783 48.6532C14.9503 43.1262 19.4493 32.5792 22.6783 28.3602C26.0433 23.9862 29.9373 20.0543 34.4933 16.9113C38.2423 14.3353 42.7603 11.1243 47.3353 9.43326C47.7203 9.28826 48.1143 9.16324 48.4983 9.03824C49.2193 8.54724 49.9313 8.25023 50.6043 8.20123C50.9213 8.06623 51.2673 7.99023 51.6623 7.99023C51.9303 7.99023 51.9983 8.29724 51.8543 8.46124C51.9123 8.49024 51.9693 8.51924 52.0273 8.54724C52.0753 8.58724 52.0943 8.63526 52.1143 8.68326C52.1333 8.53826 52.2013 8.40425 52.3543 8.30725C52.3823 8.28825 52.4013 8.27925 52.4303 8.26025C52.7383 8.05725 53.1033 8.27024 53.2083 8.57724C53.2383 8.66324 53.2853 8.74024 53.3153 8.82724H53.3423C53.4103 8.81724 53.5063 8.87523 53.5153 8.95123C53.5443 9.14423 53.5643 9.32625 53.5923 9.50925C53.6513 9.65425 53.7183 9.79824 53.7843 9.94324C57.0623 17.0662 64.8863 20.1602 70.2513 25.6982C75.2993 30.9272 78.1253 36.9152 77.3483 44.3182Z" fill="#D8744C"/>
<path d="M22.5539 58.5336C22.3869 58.3596 22.1499 58.3166 21.9389 58.3746C21.4059 56.6946 19.0839 55.7366 17.4389 55.5986C14.5689 55.3566 13.4849 58.1616 14.5269 60.4676C15.4479 62.5056 17.9079 65.4486 20.4869 64.8286C22.8668 64.2566 24.3619 60.4306 22.5539 58.5336Z" fill="#69C0C9"/>
<path d="M23.6338 62.3133C22.3038 61.4853 20.7878 62.8403 20.2738 64.2333C19.3518 64.0533 18.2648 63.6773 17.4758 64.3583C16.5468 65.1583 16.9038 66.3812 17.5698 67.2002C18.6998 68.5922 22.2899 70.4762 23.7149 68.5962C24.8209 67.1342 25.4818 63.4623 23.6338 62.3133ZM22.6008 67.8953C21.8728 68.7253 19.5058 67.2102 18.9138 66.7342C18.6478 66.5202 17.6538 65.5293 18.4048 65.2633C18.8888 65.0913 19.5388 65.2153 20.0998 65.2373C20.1278 65.8583 20.4498 66.3663 21.2258 66.5123C21.6628 66.5953 22.2168 66.1123 21.8788 65.6623C21.3748 64.9943 21.6798 64.4413 22.2258 63.8893C22.7518 63.3573 23.0938 63.5493 23.2608 64.1753C23.5348 65.2013 23.3258 67.0683 22.6008 67.8953Z" fill="#D6FAFF"/>
<path d="M73.7239 64.8286C76.3019 65.4486 78.7639 62.5056 79.6839 60.4676C80.7259 58.1606 79.6419 55.3566 76.7719 55.5986C75.1269 55.7376 72.8059 56.6956 72.2709 58.3746C72.0609 58.3166 71.8249 58.3596 71.6569 58.5336C69.8489 60.4306 71.3429 64.2566 73.7239 64.8286Z" fill="#69C0C9"/>
<path d="M77.4069 65.3716C77.2669 63.8106 75.2719 63.4166 73.8489 63.8446C73.4389 62.9986 73.0849 61.9056 72.0669 61.6846C70.8699 61.4236 70.1069 62.4456 69.8539 63.4696C69.4219 65.2096 70.0779 69.2106 72.4369 69.2166C74.2699 69.2216 77.5999 67.5406 77.4069 65.3716ZM72.3259 67.9066C71.2239 67.8246 71.0109 65.0216 71.0349 64.2636C71.0469 63.9216 71.2399 62.5326 71.9029 62.9716C72.3329 63.2546 72.6249 63.8486 72.9439 64.3096C72.4649 64.7056 72.2539 65.2696 72.6039 65.9776C72.7989 66.3756 73.5209 66.5286 73.6739 65.9886C73.9049 65.1836 74.5299 65.0936 75.3009 65.1986C76.0419 65.2986 76.0949 65.6866 75.6939 66.1966C75.0399 67.0306 73.4229 67.9886 72.3259 67.9066Z" fill="#D6FAFF"/>
<g opacity="0.4">
<path d="M66.4362 58.633C66.4362 60.113 64.4462 61.31 61.9902 61.31C59.5332 61.31 57.5442 60.113 57.5442 58.633C57.5442 57.156 59.5332 55.958 61.9902 55.958C64.4462 55.958 66.4362 57.156 66.4362 58.633Z" fill="#DB5D7B"/>
<path d="M36.6352 59.595C36.6352 61.074 34.6452 62.271 32.1892 62.271C29.7332 62.271 27.7432 61.075 27.7432 59.595C27.7432 58.117 29.7322 56.919 32.1892 56.919C34.6452 56.919 36.6352 58.117 36.6352 59.595Z" fill="#DB5D7B"/>
</g>
<path d="M50.7006 55.9985C49.5546 56.0045 48.9576 56.9925 48.0966 57.3395C48.0666 55.8695 48.4376 54.4265 48.7126 52.9825C49.0326 51.2975 48.8646 49.6285 48.8236 47.9295C48.8236 47.9065 48.8126 47.8905 48.8096 47.8685C48.7676 47.1335 48.4456 46.4175 47.6616 47.2005C46.9236 47.9375 46.8906 49.2765 46.7706 50.2435C46.5146 52.3105 46.7986 54.3075 46.2926 56.3095C45.6466 55.7455 44.9256 55.0475 44.1246 55.5175C42.9466 56.2065 43.8326 57.6705 44.3996 58.3755C45.0946 59.2385 46.7056 60.9545 47.9806 60.6035C49.6236 60.1525 51.0246 58.3595 51.2646 56.7365C51.3186 56.3705 51.1156 55.9965 50.7006 55.9985Z" fill="#CD8B6D"/>
<path d="M39.7658 42.58C37.6798 40.922 35.1298 41.206 32.6658 41.553C30.7278 41.826 28.0718 42.661 26.8778 44.409C25.0438 47.093 27.3968 48.967 28.5938 51.282C28.7918 51.667 29.2228 51.516 29.3528 51.2C29.4598 51.159 29.5548 51.075 29.5948 50.928C29.7568 50.343 29.7528 50.263 29.8088 49.613C29.8168 49.524 29.7908 49.455 29.7528 49.395C30.4178 46.308 33.3088 44.729 36.3348 44.547C39.5008 44.358 39.7128 47.152 40.5038 49.442C40.5238 49.506 40.5488 49.564 40.5688 49.627C40.6468 49.841 40.7298 50.053 40.8228 50.254C41.1428 50.942 41.0868 51.056 42.2488 49.854C44.1758 47.864 42.1588 44.481 39.7658 42.58Z" fill="#390A0A"/>
<path d="M28.4915 49.0636C28.4915 52.5196 31.3345 55.3196 34.8435 55.3196C38.3525 55.3196 41.1965 52.5196 41.1965 49.0636C41.1965 45.6086 38.3535 42.8096 34.8435 42.8096C31.3345 42.8096 28.4915 45.6086 28.4915 49.0636Z" fill="white"/>
<path d="M39.032 49.2951C39.032 52.1081 37.254 54.3891 35.062 54.3891C32.868 54.3891 31.092 52.1081 31.092 49.2951C31.092 46.4841 32.868 44.2031 35.062 44.2031C37.254 44.2031 39.032 46.4851 39.032 49.2951Z" fill="#2B80B2"/>
<path d="M38.5003 49.2948C38.5003 51.7308 36.9613 53.7068 35.0623 53.7068C33.1623 53.7068 31.6243 51.7298 31.6243 49.2948C31.6243 46.8598 33.1623 44.8848 35.0623 44.8848C36.9613 44.8848 38.5003 46.8608 38.5003 49.2948Z" fill="#390A0A"/>
<path d="M38.0617 45.8698C38.0617 46.4148 37.4087 46.8558 36.6057 46.8558C35.8007 46.8558 35.1497 46.4148 35.1497 45.8698C35.1497 45.3278 35.8007 44.8848 36.6057 44.8848C37.4097 44.8848 38.0617 45.3278 38.0617 45.8698Z" fill="white"/>
<path d="M52.2054 49.854C53.3674 51.056 53.3124 50.943 53.6324 50.254C53.7264 50.053 53.8084 49.841 53.8864 49.627C53.9074 49.564 53.9324 49.506 53.9514 49.442C54.7424 47.152 54.9544 44.358 58.1204 44.547C61.1464 44.729 64.0384 46.308 64.7024 49.395C64.6644 49.455 64.6384 49.524 64.6454 49.613C64.7024 50.262 64.6983 50.343 64.8603 50.928C64.9003 51.075 64.9954 51.159 65.1024 51.2C65.2314 51.516 65.6623 51.667 65.8603 51.282C67.0574 48.967 69.4114 47.093 67.5774 44.409C66.3844 42.661 63.7263 41.826 61.7893 41.553C59.3263 41.206 56.7753 40.922 54.6893 42.58C52.2973 44.481 50.2794 47.864 52.2054 49.854Z" fill="#390A0A"/>
<path d="M52.8323 49.0636C52.8323 52.5196 55.6763 55.3196 59.1863 55.3196C62.6943 55.3196 65.5383 52.5196 65.5383 49.0636C65.5383 45.6086 62.6943 42.8096 59.1863 42.8096C55.6763 42.8096 52.8323 45.6086 52.8323 49.0636Z" fill="white"/>
<path d="M63.0653 49.2951C63.0653 52.1081 61.2873 54.3891 59.0943 54.3891C56.9013 54.3891 55.1243 52.1081 55.1243 49.2951C55.1243 46.4841 56.9003 44.2031 59.0943 44.2031C61.2873 44.2031 63.0653 46.4851 63.0653 49.2951Z" fill="#2B80B2"/>
<path d="M62.5335 49.2948C62.5335 51.7308 60.9945 53.7068 59.0945 53.7068C57.1955 53.7068 55.6565 51.7298 55.6565 49.2948C55.6565 46.8598 57.1945 44.8848 59.0945 44.8848C60.9945 44.8848 62.5335 46.8608 62.5335 49.2948Z" fill="#390A0A"/>
<path d="M62.0948 45.8698C62.0948 46.4148 61.4429 46.8558 60.6389 46.8558C59.8339 46.8558 59.1829 46.4148 59.1829 45.8698C59.1829 45.3278 59.8339 44.8848 60.6389 44.8848C61.4429 44.8848 62.0948 45.3278 62.0948 45.8698Z" fill="white"/>
<path d="M52.8217 64.3662C52.0867 63.8252 51.4087 63.1262 50.6027 62.8512C49.3657 62.4282 48.5257 63.5652 47.9237 64.4962C47.0847 63.5602 45.9587 62.2472 44.8837 62.6812C44.1387 62.9832 43.7847 63.5522 43.1747 64.0022C42.0607 64.8212 40.5337 64.9442 39.3517 65.6932C39.1427 65.8262 42.6537 74.0572 45.1737 75.0882C50.4607 77.2512 53.8027 73.0022 55.2017 68.9452C55.3497 68.5182 55.3837 67.3942 55.6657 67.0872C55.7987 66.9412 55.8647 66.7302 55.8327 66.5222C55.6807 65.5332 54.3917 65.1932 53.6267 64.8522C53.3447 64.7262 53.0797 64.5562 52.8217 64.3662Z" fill="#AB0048"/>
<path d="M43.7307 66.9169C43.7307 66.9169 50.2197 66.4369 51.4217 67.3969C52.6227 68.3589 47.0957 72.2039 43.7307 66.9169Z" fill="white"/>
<path d="M22.3418 41.2028C22.3418 41.2028 32.4358 39.0398 40.6068 38.0788C40.6068 38.0788 36.5208 31.5888 22.3418 41.2028Z" fill="#68210B"/>
<path d="M74.0121 41.2028C74.0121 41.2028 63.9181 39.0398 55.7471 38.0788C55.7471 38.0788 59.8331 31.5888 74.0121 41.2028Z" fill="#68210B"/>
</svg>
