<svg width="72" height="126" viewBox="0 0 72 126" fill="none" xmlns="http://www.w3.org/2000/svg">
<path d="M68.0437 125.47L35.8987 125.965L4.36566 125.47C4.36566 125.47 2.99765 121.52 4.16165 116.793C4.98765 113.464 7.15065 109.766 11.9756 106.757C14.0806 105.457 16.7317 104.273 19.9917 103.312C20.7787 103.088 21.6027 102.875 22.4687 102.671C23.4197 102.448 24.4087 102.244 25.4577 102.06C26.5157 101.866 27.6317 101.691 28.7957 101.545C28.7957 101.545 28.8637 101.575 28.9897 101.643C28.6397 95.3537 26.4567 89.9277 26.4567 89.9277L44.8967 90.6567C43.7607 94.5667 43.4597 98.0517 43.5677 101.022C43.6157 100.983 43.6457 100.963 43.6457 100.963C45.9167 101.254 47.9837 101.633 49.8757 102.079C50.3207 102.186 50.7587 102.293 51.1757 102.399C52.2627 102.691 53.2816 103.001 54.2426 103.331C56.0866 103.962 57.7176 104.68 59.1436 105.467C64.1316 108.164 66.4227 111.561 67.7327 114.793C70.0047 120.394 68.0437 125.47 68.0437 125.47Z" fill="#CD8B6D"/>
<path d="M68.8109 121.247C68.7909 121.742 68.7519 122.199 68.6939 122.616C68.4709 124.363 68.0439 125.47 68.0439 125.47L35.8989 125.965L4.36591 125.47C4.36591 125.47 3.81192 123.868 3.71592 121.471C3.70692 121.326 3.70691 121.179 3.70691 121.024C3.67691 119.773 3.7839 118.317 4.1619 116.794C4.3279 116.144 4.54092 115.484 4.80292 114.814C4.94892 114.464 5.11391 114.106 5.28791 113.756C6.51191 111.329 8.58789 108.874 11.9759 106.758C12.1309 106.661 12.2859 106.574 12.4419 106.477C12.6559 106.351 12.8779 106.224 13.1109 106.099C15.0059 105.06 17.2949 104.109 19.9919 103.313C20.7789 103.089 21.6029 102.876 22.4689 102.672C23.4199 102.449 24.4089 102.245 25.4579 102.061C29.2809 107.497 37.7349 114.843 51.1769 102.401C52.2639 102.693 53.2829 103.003 54.2439 103.333C56.0879 103.964 57.7189 104.682 59.1449 105.469C59.3969 105.605 59.6399 105.739 59.8819 105.886C60.4059 106.197 60.8999 106.507 61.3669 106.837C64.8509 109.264 66.6369 112.088 67.7329 114.795C67.8789 115.155 68.0049 115.513 68.1109 115.863C68.2379 116.221 68.3349 116.581 68.4129 116.93C68.7919 118.501 68.8699 119.977 68.8109 121.247Z" fill="#006986"/>
<path d="M61.3674 106.835C52.3314 111.959 42.1494 115.794 32.4254 114.881C25.1654 114.201 18.1964 111.075 12.4424 106.476C12.6564 106.35 12.8784 106.223 13.1114 106.098C20.0894 111.446 28.8254 114.705 37.3754 113.707C45.5474 112.745 52.8574 109.659 59.8834 105.884C60.4064 106.194 60.9004 106.505 61.3674 106.835Z" fill="white"/>
<path d="M68.413 116.929C58.126 120.016 47.537 121.695 36.531 120.995C27.553 120.423 18.39 119.598 9.82098 116.705C8.12198 116.123 6.453 115.492 4.802 114.812C4.948 114.462 5.11299 114.104 5.28699 113.754C15.721 117.646 26.572 119.693 38.306 120.072C47.905 120.383 57.096 119.354 66.268 116.462C66.888 116.268 67.5 116.064 68.111 115.861C68.238 116.22 68.335 116.579 68.413 116.929Z" fill="white"/>
<path d="M68.8108 121.247L68.6938 122.616C58.3858 123.44 48.0028 123.548 37.8008 123.373C29.2308 123.237 20.5538 123.179 12.0138 122.499C9.24682 122.276 6.45181 121.984 3.71481 121.471C3.70581 121.326 3.70581 121.179 3.70581 121.024C7.87881 121.695 12.1688 121.888 16.2728 121.995C24.6498 122.219 33.0448 122.48 41.4298 122.511C50.6818 122.548 59.7738 122.112 68.8108 121.247Z" fill="white"/>
<path d="M13.045 44.649C13.045 44.649 4.41204 30.061 0.840043 42.565C-2.73296 55.069 5.90005 61.023 11.5571 59.833C17.2141 58.641 13.045 44.649 13.045 44.649Z" fill="#CD8B6D"/>
<path d="M12.0033 47.0296C12.0033 47.0296 6.05031 37.7996 3.96631 41.5206C1.88131 45.2436 2.47729 50.0056 2.47729 50.0056C2.47729 50.0056 3.6673 44.7966 7.5393 47.7726C7.5393 47.7726 3.8173 56.1086 11.4093 53.7286C11.4093 53.7286 14.5343 51.1976 12.0033 47.0296Z" fill="#B66C50"/>
<path d="M58.6399 42.8625C58.6399 42.8625 67.272 28.2755 70.845 40.7785C74.417 53.2815 65.7839 59.2365 60.1269 58.0455C54.4709 56.8555 58.6399 42.8625 58.6399 42.8625Z" fill="#CD8B6D"/>
<path d="M58.7621 46.2152C58.7621 46.2152 64.716 36.9852 66.8 40.7062C68.884 44.4292 68.2891 49.1912 68.2891 49.1912C68.2891 49.1912 67.098 43.9812 63.227 46.9582C63.227 46.9582 66.948 55.2952 59.356 52.9142C59.356 52.9142 56.2301 50.3832 58.7621 46.2152Z" fill="#B66C50"/>
<path d="M13.6405 24.5588C12.7795 25.4328 11.5565 50.1628 12.1515 59.6898C12.7485 69.2168 16.3205 96.0108 37.7565 96.0108C59.1905 96.0108 62.7635 59.3918 57.7025 26.9408C57.7025 26.9408 34.7785 3.12279 13.6405 24.5588Z" fill="#E8B299"/>
<path d="M20.7179 40.7231C18.1309 42.5671 16.6439 47.0771 18.1479 49.9851C18.2209 50.1271 18.4799 50.0691 18.4609 49.9021C18.1579 47.3171 19.0459 44.5151 20.7099 42.5471C21.7399 41.3301 23.1619 40.8161 24.7089 40.6911C26.3989 40.5521 27.1639 42.3441 28.4929 42.9581C28.7699 43.0851 29.117 42.8791 29.026 42.5481C27.988 38.8031 23.3249 38.8651 20.7179 40.7231Z" fill="#390A0A"/>
<path d="M29.7168 49.1211C29.7168 53.9721 27.1848 57.9041 24.0608 57.9041C20.9368 57.9041 18.4038 53.9721 18.4038 49.1211C18.4038 44.2701 20.9368 40.3371 24.0608 40.3371C27.1838 40.3371 29.7168 44.2701 29.7168 49.1211Z" fill="white"/>
<path d="M28.5158 49.4074C28.5158 53.0184 26.5869 55.9474 24.2079 55.9474C21.8309 55.9474 19.9019 53.0184 19.9019 49.4074C19.9019 45.7964 21.8309 42.8674 24.2079 42.8674C26.5879 42.8674 28.5158 45.7964 28.5158 49.4074Z" fill="#3D79CA"/>
<path d="M27.834 49.484C27.834 52.532 26.253 55.003 24.303 55.003C22.354 55.003 20.7729 52.532 20.7729 49.484C20.7729 46.439 22.354 43.968 24.303 43.968C26.253 43.969 27.834 46.439 27.834 49.484Z" fill="#390A0A"/>
<path d="M28.5158 44.7317C28.5158 45.3327 27.5178 45.8177 26.2878 45.8177C25.0578 45.8177 24.0598 45.3327 24.0598 44.7317C24.0598 44.1307 25.0578 43.6467 26.2878 43.6467C27.5178 43.6467 28.5158 44.1297 28.5158 44.7317Z" fill="white"/>
<path d="M51.1021 40.7231C53.6881 42.5671 55.1751 47.0771 53.6721 49.9851C53.5991 50.1271 53.3401 50.0691 53.3591 49.9021C53.6611 47.3171 52.7741 44.5151 51.1091 42.5471C50.0801 41.3301 48.6581 40.8161 47.1111 40.6911C45.4201 40.5521 44.6561 42.3441 43.3261 42.9581C43.0501 43.0851 42.7031 42.8791 42.7941 42.5481C43.8321 38.8031 48.4951 38.8651 51.1021 40.7231Z" fill="#390A0A"/>
<path d="M53.011 49.1211C53.011 53.9721 50.478 57.9041 47.354 57.9041C44.23 57.9041 41.697 53.9721 41.697 49.1211C41.697 44.2701 44.23 40.3371 47.354 40.3371C50.477 40.3371 53.011 44.2701 53.011 49.1211Z" fill="white"/>
<path d="M51.8091 49.4074C51.8091 53.0184 49.88 55.9474 47.502 55.9474C45.125 55.9474 43.1951 53.0184 43.1951 49.4074C43.1951 45.7964 45.125 42.8674 47.502 42.8674C49.881 42.8674 51.8091 45.7964 51.8091 49.4074Z" fill="#3D79CA"/>
<path d="M51.1271 49.484C51.1271 52.532 49.5462 55.003 47.5962 55.003C45.6472 55.003 44.0662 52.532 44.0662 49.484C44.0662 46.439 45.6472 43.968 47.5962 43.968C49.5462 43.969 51.1271 46.439 51.1271 49.484Z" fill="#390A0A"/>
<path d="M51.809 44.7317C51.809 45.3327 50.811 45.8177 49.581 45.8177C48.351 45.8177 47.353 45.3327 47.353 44.7317C47.353 44.1307 48.351 43.6467 49.581 43.6467C50.811 43.6467 51.809 44.1297 51.809 44.7317Z" fill="white"/>
<path d="M16.9734 41.6525C16.9734 41.6525 21.3414 33.1605 30.3194 40.6815C30.3194 40.6815 23.0404 38.0125 16.9734 41.6525Z" fill="#7C2C14"/>
<path d="M41.7234 40.6815C41.7234 40.6815 46.0914 32.1895 55.0694 39.7115C55.0694 39.7115 47.7894 37.0425 41.7234 40.6815Z" fill="#7C2C14"/>
<path d="M61.065 39.2544C61.037 38.8854 60.988 38.5365 60.95 38.2165C60.9 37.8665 60.852 37.5565 60.823 37.2945C60.338 33.0435 65.219 27.5115 62.803 23.3865C62.075 22.1345 60.667 21.7075 59.386 21.2905C54.486 19.6985 56.134 13.8555 56.241 10.1775C56.328 7.53745 55.543 3.04445 52.389 2.24845C52.234 2.20945 52.077 2.17046 51.922 2.14146C51.515 2.06346 51.137 2.02445 50.758 2.01545C49.632 1.97645 48.603 2.22845 47.351 2.69445C46.584 2.98645 41.363 6.76145 40.898 5.61645C38.752 0.384448 34.686 -0.866551 31.065 0.530449C30.435 0.773449 29.814 1.09345 29.222 1.49145C27.338 2.75345 25.708 4.75245 24.747 7.26545C24.562 7.72145 23.961 16.2424 21.467 13.6424C20.342 12.4584 18.896 10.4785 17.128 10.1195C13.159 9.32345 10.732 11.7305 8.52003 14.8175C6.10303 18.1855 4.58002 22.8245 5.46302 26.9685C6.06402 29.7925 6.92803 32.4125 8.10203 35.0525C8.29703 35.4995 8.48104 35.9655 8.65604 36.4405C8.78304 36.7805 8.90803 37.1295 9.02503 37.4785C9.67503 39.3325 10.316 41.2835 11.344 42.8355C11.15 43.2435 11.461 43.8155 12.043 43.6995C15.799 42.9815 17.885 38.4774 18.886 35.1684C19.303 33.8004 20.079 31.3645 20.147 29.2685C21.584 30.3065 23.321 31.1125 24.339 31.4805C27.076 32.4795 30.25 31.3344 31.958 29.2094C34.045 31.5194 37.888 32.5385 40.586 30.7045C41.645 29.9965 42.101 28.7634 42.518 27.6274C42.887 26.6374 42.907 25.3465 43.129 24.3175C44.177 19.3195 51.001 21.3765 52.068 24.5505C52.864 26.9085 51.971 29.9374 52.058 32.3924C52.145 34.4694 52.668 36.7115 53.514 38.5945C54.425 40.6525 56.522 44.5055 59.443 43.6995C61.172 43.2245 61.249 41.0795 61.064 39.2645V39.2544H61.065Z" fill="#A6562F"/>
<path d="M12.3451 36.1391C11.2871 36.8081 10.1421 37.2751 9.02608 37.4781C8.90908 37.1281 8.78406 36.7791 8.65706 36.4401C11.7921 35.4691 15.5281 31.5391 16.2651 29.0741C16.9351 26.8321 17.1201 24.3471 15.8291 22.2611C15.0711 21.0381 12.8011 17.7871 10.7531 20.2031C8.68607 22.4551 9.23807 23.6201 12.4421 23.6971C12.8011 23.2121 13.5491 23.6191 13.2571 24.1821C11.1791 28.2781 7.65708 24.4151 8.71508 21.0761C10.4331 15.6701 15.7021 19.3101 17.2551 22.3861C19.6141 27.0941 16.4981 33.5281 12.3451 36.1391Z" fill="#D8744C"/>
<path d="M31.065 0.530457C30.28 1.83146 29.678 3.17046 29.338 3.90846C27.814 7.22746 27.145 11.0905 27.931 14.7005C28.94 19.3595 32.813 26.1145 38.394 21.9515C39.626 21.1555 40.491 20.0385 40.966 18.6215C42.042 15.1665 39.859 13.4875 34.414 13.5655C33.578 14.4585 31.492 16.6615 33.724 17.6805C34.268 17.9235 33.879 18.7385 33.335 18.6025C30.977 18.0495 31.104 15.8365 32.423 14.0695C34.131 11.7985 36.276 11.0515 39.062 11.7405C41.936 12.4585 43.099 16.4375 42.12 18.9315C41.053 21.6685 39.101 23.3485 36.258 24.0955C27.581 26.3855 25.437 12.9045 26.96 7.24646C27.261 6.13046 28.075 3.76245 29.222 1.49146L31.065 0.530457Z" fill="#D8744C"/>
<path d="M61.0655 39.2546C58.9985 38.8186 57.2235 37.4406 56.4365 35.0136C55.9695 33.5476 56.6205 31.7426 56.8725 30.3346C57.6885 25.7936 55.3015 23.4246 52.7005 20.2416C50.4975 17.5436 48.4205 13.9626 48.4295 10.3516C48.4295 8.36264 49.2155 4.76165 50.7585 2.01465C51.1375 2.02465 51.5155 2.06364 51.9225 2.14064C50.4675 4.50864 49.5555 7.55664 49.5645 8.87564C49.5925 12.3896 50.6905 15.4466 52.7475 18.2706C54.9315 21.2696 57.6095 23.6376 58.3085 27.4226C58.6005 28.9956 57.9105 30.5766 57.6975 32.1016C57.1445 36.0416 58.8125 37.7687 60.9495 38.2157C60.9885 38.5377 61.0375 38.8866 61.0655 39.2546Z" fill="#D8744C"/>
<path d="M58.9777 73.2346C58.9677 73.2246 58.9587 73.2056 58.9497 73.1956C58.6877 72.8566 58.4167 72.5646 58.1257 72.3126C56.3497 70.7416 54.1057 70.6146 51.4967 70.1196C49.7977 69.7996 48.1777 70.3236 46.5657 70.9346C46.2737 70.9436 45.9837 70.9836 45.6637 71.0806C43.3237 71.8176 42.7217 70.2746 40.8887 69.5756C38.1117 68.5176 35.5607 68.1696 32.6977 68.9836C31.1537 69.4206 29.7177 70.6326 28.2417 71.2456C26.4467 71.9826 23.5537 71.3426 21.6527 71.1866C18.6637 70.9346 16.0817 71.2736 13.4907 72.8166C10.1027 74.8266 9.03567 78.6216 9.27767 82.2906C9.30667 82.7556 9.35567 83.2126 9.43367 83.6686C9.42367 83.6786 9.43367 83.6786 9.43367 83.6786C9.58867 84.6786 9.83169 85.6486 10.1517 86.5506C12.1697 92.3256 17.7117 95.6246 23.0587 97.8286C28.9027 100.225 35.5697 101.39 41.6257 100.362C42.1207 100.285 42.6157 100.177 43.1007 100.061H43.1107C48.7307 98.7496 53.6897 95.4016 56.7667 89.2096C59.1237 84.4736 62.2207 77.4856 58.9777 73.2346Z" fill="#8E3F20"/>
<path d="M43.1101 100.061H43.1002C42.6161 100.177 42.1211 100.285 41.6251 100.362C43.8771 97.9257 45.2351 94.5767 44.8371 91.4527C44.2651 86.9097 39.7721 84.9207 35.5981 86.0957C33.6371 86.6587 31.4631 87.4737 30.0281 89.0067C29.2021 89.8797 28.2611 91.0547 28.3961 92.3737C29.4851 95.0927 31.0852 95.8097 33.1822 94.5287V92.3737C32.5712 91.9767 33.1332 91.0057 33.7642 91.3847C38.7232 94.4027 29.0671 99.3537 27.3381 93.2477C25.7271 87.5307 35.7041 83.6017 39.9271 84.7837C47.4591 86.8997 47.0321 94.8287 43.1101 100.061Z" fill="#B75B3E"/>
<path d="M54.8832 91.4705C49.9232 95.8475 47.4082 88.2865 48.8642 84.2695C50.4082 80.0285 53.6302 74.5445 58.1252 72.3125C58.4162 72.5645 58.6882 72.8565 58.9492 73.1955C58.9592 73.2055 58.9682 73.2245 58.9772 73.2345C57.2792 74.0105 55.7752 75.2055 54.5132 76.6705C52.5812 78.9025 50.6402 81.6295 49.9032 84.5515C49.1952 86.5135 49.2532 88.4535 50.0782 90.3845C51.4182 90.4825 52.7472 90.5785 54.0872 90.6755C54.9502 89.7045 55.5332 88.5785 55.8342 87.3185C55.2622 86.2515 54.6792 85.1825 54.0972 84.1155C53.8542 84.4065 53.4562 84.0965 53.5152 83.7765L53.6602 83.0575C53.6892 82.8925 53.8642 82.7175 54.0382 82.6875C58.7652 81.6685 56.8342 89.7425 54.8832 91.4705Z" fill="#B75B3E"/>
<path d="M22.6511 89.2484C21.2731 90.2574 18.4391 91.7134 17.0421 89.8004C15.9841 88.3554 15.6831 86.4444 17.3141 85.3084C17.4601 85.2104 17.6541 85.2304 17.7991 85.3084C17.9731 85.4054 18.1391 85.5014 18.3141 85.5984C18.4991 85.6964 18.4691 86.0064 18.2551 86.0554C15.4591 86.7054 20.7781 90.1024 22.6511 87.7824C24.1841 85.6384 24.1561 83.6774 22.5541 81.9024C21.2441 80.6304 19.6231 79.6304 17.7881 79.2904C14.0131 78.6114 10.7321 80.4564 9.43213 83.6684C9.35413 83.2124 9.30512 82.7554 9.27612 82.2904C10.6921 79.5144 13.2851 77.6114 17.0691 78.3104C21.5651 79.1444 28.5231 84.9384 22.6511 89.2484Z" fill="#B75B3E"/>
<path d="M46.3327 75.6215C46.3327 75.6215 36.6277 88.7245 24.2527 75.6215C24.2527 75.6215 31.7747 73.6805 34.4427 75.6215L35.4137 76.5924C35.4137 76.5924 38.3257 73.6805 46.3327 75.6215Z" fill="#B66C50"/>
<path d="M46.3327 75.6211C46.3327 75.6211 36.6277 88.7241 24.2527 75.6211C24.2527 75.6211 36.6277 80.7171 46.3327 75.6211Z" fill="#CD8B6D"/>
<path d="M45.7996 35.4122C41.8496 36.1462 38.4036 37.3972 34.3096 36.6512C31.9776 36.2262 29.7956 35.6612 27.4076 35.8982C27.2276 35.9162 27.1526 36.2052 27.3606 36.2402C33.9916 37.3622 39.5326 38.6122 45.9396 35.7442C46.1396 35.6542 45.9876 35.3772 45.7996 35.4122Z" fill="#CD8B6D"/>
<path d="M42.5101 33.6768C40.7541 33.4338 38.9911 33.7168 37.2311 33.8128C34.9171 33.9388 32.6401 33.3098 30.3201 33.4178C30.0231 33.4318 30.0311 33.8458 30.3201 33.8728C34.4711 34.2538 38.3491 34.8878 42.5101 34.0998C42.7151 34.0618 42.7241 33.7058 42.5101 33.6768Z" fill="#CD8B6D"/>
<path d="M37.347 62.4948C36.655 61.2778 37.314 58.9858 37.31 57.5678C37.303 55.6798 37.455 53.8428 37.456 51.9458C37.456 50.4348 37.846 46.9878 36.696 45.3738C36.596 43.9008 35.27 43.9798 34.631 45.2428C33.563 47.3508 33.737 50.1218 33.737 52.4278C33.736 54.4498 33.691 56.4668 33.589 58.5028C33.521 59.8488 33.602 61.8748 33.037 63.0618C31.272 62.0858 29.122 61.2368 30.5 64.1488C31.191 65.6078 33.558 68.8078 35.375 68.6258C37.345 68.4298 39.976 65.1208 40.695 63.4108C41.798 60.7948 38.769 61.5828 37.347 62.4948Z" fill="#CD8B6D"/>
</svg>
