<svg width="98" height="120" viewBox="0 0 98 120" fill="none" xmlns="http://www.w3.org/2000/svg">
<path d="M85.8508 42.9024C90.1868 37.9604 91.8588 30.3764 88.4368 24.5124C86.8608 21.8004 82.7748 19.9084 79.3428 20.2524C79.2938 17.2824 77.7658 13.6204 76.4868 12.2264C72.5278 7.9294 63.9238 7.75539 59.2898 11.5914C59.2328 11.4184 59.1748 11.2464 59.1168 11.0814C58.0878 8.13138 54.8968 6.28541 51.7628 6.98641C49.2728 7.53541 46.1968 9.66938 44.2068 12.2934C40.0068 8.18938 32.1438 8.7274 26.2988 11.8134C22.3188 13.9174 20.6178 17.3124 20.6458 21.4934C17.6278 21.3494 14.0028 23.7334 12.5808 27.1564C11.8118 29.0024 10.0338 33.5674 10.1198 36.9804C10.0038 36.9984 9.88884 37.0284 9.77384 37.0664C5.08284 38.6434 2.38984 43.6524 0.804838 48.0534C-1.02116 53.1494 0.371835 58.6964 3.85184 62.6474C5.16884 64.1364 7.35983 64.9054 9.49483 64.9144C8.00383 69.1924 8.73484 73.5864 10.6098 77.6424C12.8008 82.3924 18.2618 85.9104 23.2698 86.7374C24.2588 86.9004 25.3948 87.0254 26.4218 86.9294C26.6438 90.2064 29.7098 93.9274 32.1318 95.0424C33.6418 95.7344 35.1498 95.9354 36.6118 95.7724C38.4378 95.5804 40.1688 94.8114 41.6778 93.6764C42.8598 92.7914 43.8978 91.6964 44.7348 90.4754C44.9748 91.1974 45.2928 91.8784 45.6668 92.5334C45.8878 92.9184 46.1378 93.2924 46.4078 93.6484C48.2048 96.0504 50.9448 97.7624 54.0888 98.1464C56.1448 98.4064 58.2698 98.1664 60.1538 97.3004C60.6648 97.0704 61.1638 96.7904 61.6258 96.4544C61.7698 96.3674 61.9138 96.2624 62.0488 96.1554C63.3368 95.1554 64.0488 94.3294 64.8938 92.9654C66.4998 90.3304 65.7778 89.6194 68.8058 91.5514C74.6608 95.3004 79.6508 92.3214 83.6688 87.7354C83.9768 87.3904 84.2738 87.0444 84.5628 86.6784C84.8038 86.3794 85.0528 86.0434 85.3028 85.6884C87.5428 82.5064 89.8888 77.2864 89.4558 73.1914C93.5128 73.9214 95.6178 67.2694 96.5598 62.8184C96.7328 61.9724 96.8678 61.2044 96.9638 60.5884C96.9818 60.5024 96.9918 60.4254 97.0018 60.3484C98.2708 52.0634 94.1078 44.1334 85.8508 42.9024Z" fill="#4A1D1D"/>
<path d="M61.6268 96.4567C61.1658 96.7927 60.6658 97.0717 60.1548 97.3027C57.7228 95.8317 55.3678 93.9567 52.7438 93.3417C50.6378 92.8427 48.5228 93.1207 46.4088 93.6507C43.7838 94.2947 41.1688 95.3127 38.5928 95.6687C37.9108 95.7657 37.2468 95.8047 36.6128 95.7747C33.0558 95.6597 30.3938 93.6887 29.3548 89.9597C28.2008 85.7487 27.4418 81.4327 22.0198 81.4127C19.6938 81.4027 17.6468 81.4127 15.5988 80.2307C11.4948 77.8457 14.3298 72.0687 15.6758 69.0117C17.1758 65.6187 17.2528 62.9267 16.2718 60.3607C16.2718 60.3497 16.2718 60.3497 16.2718 60.3497C15.5798 58.5037 14.3488 56.7067 12.7148 54.7557C12.3018 54.2557 11.8988 53.7457 11.5128 53.2077C10.5148 51.8047 9.73477 50.2467 9.64877 48.4687C9.33177 42.3647 12.8008 36.9337 17.4068 33.1937C17.7708 32.9057 18.2818 33.3857 17.9248 33.7137C15.1268 36.3667 12.2828 39.6347 11.2538 43.4417C10.4178 46.5467 10.6768 48.9027 11.7818 51.1797C12.3868 52.4497 13.2718 53.6997 14.3778 55.0367C14.5118 55.1997 14.6468 55.3627 14.7818 55.5257C15.0318 55.8427 15.2718 56.1607 15.5118 56.4877C16.5888 57.9287 17.5298 59.4967 18.0308 61.1597C18.5218 62.7647 18.6078 64.4747 17.9918 66.2647C17.0978 68.8887 15.5018 71.3597 14.9348 74.0787C13.6658 80.2217 19.2418 79.8077 23.0968 80.2317C26.4898 80.5967 28.4988 82.4037 29.4988 85.7007C30.3438 88.4607 30.7678 93.2867 34.2858 94.0737C36.8718 94.6607 39.2848 94.3047 41.6788 93.6797C42.9858 93.3427 44.2918 92.9297 45.6198 92.5447C45.6388 92.5447 45.6478 92.5357 45.6678 92.5357C51.3298 90.9007 54.2898 92.4107 59.2028 95.2747C60.0308 95.7547 60.8378 96.1487 61.6268 96.4567Z" fill="#703838"/>
<path d="M96.9638 60.5898C96.8678 61.2058 96.7328 61.9748 96.5598 62.8198C96.0118 63.1368 95.4638 63.4838 94.9148 63.8488C87.2058 69.0008 76.9098 67.2328 73.4488 57.8308C72.0838 54.1198 72.5648 44.7758 68.4418 42.8548C63.1918 40.4128 55.5978 43.8258 49.7828 43.2958C46.3508 42.9878 42.6878 42.6038 39.9478 40.3348C37.0638 37.9328 39.7748 34.4128 39.5438 31.4338C36.4868 33.3568 33.3628 37.6828 34.8728 41.3158C36.2278 44.6028 39.1398 45.6508 41.3328 48.1128C43.5338 50.5928 44.7728 53.3808 44.9568 56.7258C45.3408 63.8288 45.1578 72.8178 53.6948 75.3168C57.4338 76.4128 62.8558 75.6257 66.2488 77.6637C67.9788 78.7107 69.1708 80.1147 70.5638 81.5568C73.2468 84.3258 76.5718 85.7958 80.4478 85.9208C82.0528 85.9688 83.6768 85.8918 85.3008 85.6908C85.0508 86.0458 84.8018 86.3817 84.5608 86.6807C84.2728 87.0457 83.9758 87.3927 83.6668 87.7378C83.0508 87.7768 82.4368 87.7858 81.8208 87.7668C77.0138 87.6328 72.5928 86.5178 69.2848 82.8348C66.3248 79.5188 63.9788 78.5098 59.4708 77.9898C57.4128 77.7498 55.2128 77.6048 53.2698 76.8368C48.8478 75.0967 45.0418 71.5018 44.1088 66.6658C43.0128 60.9658 44.8678 53.6588 40.2248 49.2188C36.8308 45.9688 33.2068 44.1918 33.0348 39.0488C32.8998 35.1538 36.3798 31.1078 39.7058 29.5878C40.1668 29.3768 40.6768 29.5398 40.8398 30.0498C41.2248 31.2618 41.2828 32.2608 40.8498 33.5008C39.5328 37.2598 41.2248 40.4998 45.1958 41.2778C50.3288 42.2868 54.9618 42.0557 60.0958 41.1727C66.5848 40.0477 71.6688 40.9608 72.9568 48.1428C73.6098 51.7948 73.9768 55.9487 75.9268 59.2157V59.2258C76.3498 59.9468 76.8508 60.6007 77.4548 61.2157C77.5128 61.2827 77.5808 61.3498 77.6478 61.4168C80.5118 64.2148 84.7038 66.3678 88.7988 64.9648C91.7598 63.9548 93.8548 62.1288 96.5848 60.7738C96.7138 60.7158 96.8378 60.6488 96.9638 60.5898Z" fill="#703838"/>
<path d="M74.1608 118.94L50.0328 119.479V119.497L49.5528 119.487L49.0728 119.497V119.479L25.3958 118.94C25.3958 118.94 22.5888 107.097 30.5958 99.0411C32.4708 97.1571 34.9418 95.485 38.1718 94.216L39.6518 93.678L39.7958 93.629C41.1328 93.197 42.5848 92.822 44.1708 92.534C44.1708 92.534 46.1888 83.7661 43.4208 80.3351C40.6618 76.9031 54.7738 79.98 54.7738 79.98C53.4378 84.373 55.8508 92.535 55.8508 92.535C56.8698 92.727 57.8408 92.947 58.7538 93.198C59.5428 93.41 60.2818 93.6501 60.9938 93.8991V93.909C63.9448 94.947 66.2718 96.332 68.1168 97.898C68.1268 97.898 68.1268 97.898 68.1268 97.898C77.5258 105.925 74.1608 118.94 74.1608 118.94Z" fill="#CD8B6D"/>
<path d="M74.1608 118.94L50.0328 119.479V119.497L49.5528 119.487L49.0728 119.497V119.479L25.3958 118.94C25.3958 118.94 22.5888 107.097 30.5958 99.041C32.1548 99.32 32.8358 100.609 33.0668 102.176C34.1448 100.916 35.6238 100.041 37.2688 99.955C37.4128 97.975 37.7388 96.023 38.1718 94.216L39.6518 93.678L39.7958 93.629C39.4988 95.821 39.2868 98.032 39.2778 100.243C41.4688 101.06 42.8728 103.387 43.7578 105.656C44.9108 103.309 46.2478 101.358 49.2548 101.215C51.3128 101.118 52.9178 102.974 54.0808 104.752C54.4558 102.541 55.1958 100.868 57.8488 100.041C58.6378 99.791 59.3878 99.936 60.0788 100.281C59.3958 97.917 58.9248 95.4951 58.7518 93.1971C59.5408 93.4091 60.2798 93.649 60.9918 93.898V93.9081C61.5008 95.9461 62.0678 97.966 62.7788 99.974C62.8468 100.166 62.9138 100.358 62.9908 100.55C63.4618 99.339 64.3168 98.358 65.7008 98.031C66.5958 97.82 67.3938 97.791 68.1138 97.896C68.1238 97.896 68.1238 97.896 68.1238 97.896C77.5258 105.925 74.1608 118.94 74.1608 118.94Z" fill="#AC0002"/>
<path d="M77.5612 49.6826C77.9482 49.1236 78.5352 48.6856 79.4242 48.2986C80.1042 48.0036 80.8392 47.8157 81.5642 47.6707C83.0022 47.3847 84.7532 47.3627 85.7732 48.6067C86.4792 49.4677 86.7422 50.8816 86.7912 51.9656C87.0122 56.8556 82.8952 59.5547 78.6792 60.7137C77.8822 60.9317 76.4912 61.7386 75.8962 60.7816C74.8822 59.1546 76.3492 51.4346 77.5612 49.6826Z" fill="#CD8B6D"/>
<path d="M77.5461 53.3761C77.5461 53.3761 82.7161 48.5861 83.4191 51.2311C84.1231 53.8771 82.9951 56.7421 82.9951 56.7421C82.9951 56.7421 83.0831 53.3131 80.2051 54.5491C80.2051 54.5491 81.1881 60.3231 76.8501 57.6321C76.8501 57.6321 75.3081 55.5631 77.5461 53.3761Z" fill="#B66C50"/>
<path d="M20.3882 50.6436C20.0012 50.0856 19.4142 49.6466 18.5252 49.2586C17.8452 48.9646 17.1112 48.7766 16.3852 48.6306C14.9472 48.3446 13.1952 48.3227 12.1762 49.5667C11.4702 50.4277 11.2072 51.8417 11.1582 52.9257C10.9372 57.8167 15.0542 60.5157 19.2702 61.6747C20.0672 61.8927 21.4582 62.6986 22.0532 61.7426C23.0682 60.1156 21.6002 52.3946 20.3882 50.6436Z" fill="#CD8B6D"/>
<path d="M20.4031 54.3366C20.4031 54.3366 15.2331 49.5476 14.5301 52.1936C13.8261 54.8386 14.9541 57.7036 14.9541 57.7036C14.9541 57.7036 14.8661 54.2756 17.7441 55.5106C17.7441 55.5106 16.7611 61.2856 21.0991 58.5946C21.0991 58.5946 22.6411 56.5236 20.4031 54.3366Z" fill="#B66C50"/>
<path d="M70.581 76.8114C61.17 87.9454 40.274 82.9644 40.274 82.9644C20.884 77.8374 19.245 52.4874 19.631 41.9014C19.723 39.1714 19.958 37.4174 20.059 37.2464C23.029 32.2654 36.927 23.3894 50.122 23.9044C63.317 24.4174 75.81 34.3184 76.501 36.6654C76.898 37.9814 77.346 40.8664 77.569 44.5804C78.161 54.0194 77.327 68.8174 70.581 76.8114Z" fill="#E8B299"/>
<path d="M88.5431 21.4364C88.4941 21.1474 88.4461 20.8694 88.3981 20.5894C88.2831 20.0124 88.1581 19.4654 88.0131 18.9264C87.1671 15.7544 84.5341 14.0534 82.0911 14.2444C81.6391 14.2734 81.1881 14.3704 80.7551 14.5334C80.6981 14.0044 80.6111 13.4564 80.4851 12.9184C79.3801 7.8614 75.7081 2.66041 71.1221 1.48841C67.5941 0.59441 62.6921 1.8734 59.4811 4.4874C55.2231 -1.1076 48.3491 -1.71258 43.0341 4.04542C42.8031 4.29542 42.5231 4.72841 42.2261 5.28541C40.8901 3.64241 39.3901 2.34442 38.4191 2.10242C33.0361 0.767424 29.3251 6.12243 28.8151 11.5424C25.2771 10.1014 21.7401 10.1014 17.4721 13.3504C16.1741 14.3404 15.0021 15.5414 13.9541 16.8874C13.3091 17.7244 12.7131 18.6084 12.1841 19.5414V19.5504C9.81012 23.6924 8.57012 28.6354 8.89612 32.9884C9.04012 34.9304 9.45412 36.4974 10.0881 37.7174C10.5121 38.5644 11.0301 39.2374 11.6261 39.7844C15.3761 43.1684 22.0571 41.0444 26.4501 37.3904C27.3921 40.0914 29.2081 42.4374 31.5441 43.2164C34.2161 44.1004 37.0521 43.1394 39.1571 41.3024C40.7821 44.0234 43.6271 46.1384 46.6841 46.2244C50.1251 46.3114 53.2311 43.4574 55.1541 39.9384C57.4891 43.0814 61.2771 45.5134 64.5081 45.8694C68.6401 46.3114 72.0441 41.9954 73.7171 37.2364C76.4941 39.7944 80.4271 41.1104 83.5221 38.7944C86.9931 36.1994 88.5111 31.8154 88.8091 27.3834C88.8481 26.8264 88.8671 26.2794 88.8671 25.7304C88.8791 24.2624 88.7541 22.8014 88.5431 21.4364Z" fill="#6B3434"/>
<path d="M88.5435 21.4365C86.7935 22.0895 85.2655 21.5996 84.1115 19.8786C80.9875 15.2266 76.5845 9.84154 70.1045 12.4185C66.6055 13.8135 63.2895 17.6865 59.3475 17.8115C54.9555 17.9565 51.7835 13.1395 47.5915 13.6005C42.2375 14.1875 39.9975 19.9846 35.0275 21.0796C30.5855 22.0606 27.2115 19.6576 23.0885 18.3686C18.3285 16.8786 14.7725 17.5606 12.1865 19.5426C12.7145 18.6086 13.3115 17.7255 13.9565 16.8885C18.1655 15.1875 22.7415 16.8786 26.7125 18.4556C30.4515 19.9356 33.9505 20.9545 37.4505 18.2635C39.0655 17.0235 40.5365 15.5625 42.1895 14.3795C45.6605 11.9005 48.8705 11.5826 52.6095 13.7646C56.3105 15.9276 59.2425 17.2645 63.2235 14.6595C64.9435 13.5445 66.5975 12.3816 68.4135 11.4296C71.5475 9.79456 76.0165 9.93056 78.9975 11.8916C79.4885 12.2086 79.9885 12.5545 80.4875 12.9195C81.0455 13.3225 81.5935 13.7555 82.0925 14.2455C82.5825 14.7075 83.0255 15.2066 83.3805 15.7646C84.7655 17.9096 85.4095 20.4375 88.3995 20.5905C88.4465 20.8695 88.4945 21.1485 88.5435 21.4365Z" fill="#995252"/>
<path d="M88.8698 25.7325C88.8698 26.2815 88.8498 26.8295 88.8118 27.3855C88.3408 27.2225 87.8228 27.1565 87.2258 27.1945C81.8328 27.5695 77.5848 31.1735 72.8358 33.3275C70.0278 34.5965 66.2598 34.8275 63.6458 32.9425C60.2318 30.4915 57.6568 26.0415 52.9458 26.1745C46.8618 26.3485 41.8238 29.2505 36.3258 31.4525C33.5668 32.5575 29.8268 33.8075 27.1838 31.6635C26.2228 30.8855 25.4438 29.9245 24.4818 29.1645C21.2898 26.6365 17.2338 28.6255 15.2918 31.1435C13.5038 33.4515 12.3708 36.1135 11.7838 38.9695C11.7268 39.2385 11.6778 39.5165 11.6298 39.7855C11.0338 39.2375 10.5158 38.5645 10.0918 37.7185C11.5718 32.9995 14.2638 28.8365 18.3978 26.5775C24.1078 23.4525 26.2138 31.4795 31.1258 30.9995C37.4218 30.3745 43.2578 26.0195 49.5158 24.7125C53.8798 23.7995 57.6668 24.9815 60.7628 28.0675C63.5508 30.8255 66.5208 33.7195 70.8468 32.2105C73.9618 31.1245 76.4608 29.1055 79.4408 27.8085C82.4578 26.4925 85.6288 25.0515 88.8698 25.7325Z" fill="#995252"/>
<path d="M25.7848 65.4059C25.2578 64.1779 23.6998 63.1959 22.4648 62.4539C20.9438 60.7269 19.2768 60.8839 17.0668 60.3209C15.3358 59.8799 13.4058 59.5909 12.0168 60.9169C9.31181 63.4959 11.3798 68.7929 13.9898 70.7059C17.2058 73.0639 21.4838 72.8019 24.2788 69.9289C25.3208 68.8569 26.4358 66.9269 25.7848 65.4059ZM23.7138 67.9889C22.2888 70.6129 19.1098 71.2719 16.4708 70.3979C13.6898 69.4779 11.8878 65.9109 12.3608 63.0929C12.7968 60.5019 18.0708 61.4679 20.8058 62.5599C20.7778 62.6719 20.7738 62.7919 20.8198 62.9169C21.6318 65.1159 25.2188 65.2199 23.7138 67.9889Z" fill="#F9C24E"/>
<path d="M21.0182 69.5586C20.5482 68.2986 19.5522 67.6705 18.4572 66.9645C16.7372 65.8535 15.1102 64.6345 13.5032 63.3665C12.8552 62.8555 11.6862 63.2966 11.9912 64.2476C12.0752 64.5086 12.1782 64.7836 12.2892 65.0626C12.0162 66.9306 13.0762 68.3545 14.6552 69.3435C14.8922 69.4915 15.1572 69.6326 15.4322 69.7696C16.3762 70.6226 17.4572 71.2185 18.6312 71.3065C19.0872 71.3395 19.3942 71.0035 19.4782 70.6135C19.7972 70.6395 20.1202 70.6335 20.4492 70.5595C20.8552 70.4695 21.1682 69.9606 21.0182 69.5586Z" fill="#77BDA1"/>
<path d="M72.7738 69.9286C75.5678 72.8016 79.8448 73.0636 83.0608 70.7056C85.6708 68.7926 87.7408 63.4956 85.0358 60.9166C83.6458 59.5916 81.7168 59.8796 79.9838 60.3206C77.7738 60.8836 76.1078 60.7266 74.5878 62.4536C73.3528 63.1956 71.7938 64.1786 71.2678 65.4056C70.6148 66.9266 71.7298 68.8566 72.7738 69.9286ZM76.2318 62.9166C76.2788 62.7916 76.2748 62.6726 76.2468 62.5596C78.9808 61.4676 84.2548 60.5016 84.6898 63.0926C85.1638 65.9096 83.3598 69.4776 80.5818 70.3976C77.9398 71.2716 74.7628 70.6126 73.3368 67.9886C71.8318 65.2196 75.4208 65.1156 76.2318 62.9166Z" fill="#F9C24E"/>
<path d="M76.0323 69.5586C76.5013 68.2986 77.4983 67.6705 78.5943 66.9645C80.3133 65.8535 81.9413 64.6345 83.5483 63.3665C84.1963 62.8555 85.3653 63.2966 85.0603 64.2476C84.9773 64.5086 84.8733 64.7836 84.7613 65.0626C85.0353 66.9306 83.9743 68.3545 82.3953 69.3435C82.1593 69.4915 81.8933 69.6326 81.6183 69.7696C80.6753 70.6226 79.5943 71.2185 78.4213 71.3065C77.9633 71.3395 77.6583 71.0035 77.5743 70.6135C77.2543 70.6395 76.9313 70.6335 76.6023 70.5595C76.1953 70.4695 75.8823 69.9606 76.0323 69.5586Z" fill="#77BDA1"/>
<g opacity="0.4">
<path d="M67.9315 60.9008C67.9315 62.3798 65.9416 63.5768 63.4855 63.5768C61.0285 63.5768 59.0396 62.3808 59.0396 60.9008C59.0396 59.4228 61.0285 58.2248 63.4855 58.2248C65.9416 58.2258 67.9315 59.4238 67.9315 60.9008Z" fill="#DB5D7B"/>
<path d="M38.1315 61.8618C38.1315 63.3418 36.1415 64.5388 33.6855 64.5388C31.2285 64.5388 29.2395 63.3418 29.2395 61.8618C29.2395 60.3848 31.2285 59.1858 33.6855 59.1858C36.1415 59.1868 38.1315 60.3848 38.1315 61.8618Z" fill="#DB5D7B"/>
</g>
<path d="M29.6085 46.394C31.3855 44.252 33.7665 43.316 36.5345 43.419C41.3535 43.599 44.5865 48.447 42.8155 52.921C42.7035 53.203 42.1995 53.198 42.2385 52.843C42.6025 49.45 39.9645 46.211 36.5345 46.205C34.8675 46.203 33.4035 46.764 32.2245 47.928C31.0925 49.043 31.3585 50.7139 30.5855 51.9829C30.2855 52.4769 29.5625 52.604 29.1475 52.17C27.5615 50.5 28.2385 48.046 29.6085 46.394Z" fill="#390A0A"/>
<path d="M29.9875 51.3313C29.9875 54.7883 32.8315 57.5873 36.3395 57.5873C39.8485 57.5873 42.6926 54.7883 42.6926 51.3313C42.6926 47.8773 39.8485 45.0773 36.3395 45.0773C32.8315 45.0773 29.9875 47.8773 29.9875 51.3313Z" fill="white"/>
<path d="M40.5281 51.5639C40.5281 54.3769 38.7501 56.6579 36.5581 56.6579C34.3641 56.6579 32.5881 54.3769 32.5881 51.5639C32.5881 48.7519 34.3641 46.4719 36.5581 46.4719C38.7501 46.4729 40.5281 48.7529 40.5281 51.5639Z" fill="#80422B"/>
<path d="M39.9961 51.5635C39.9961 53.9985 38.4571 55.9755 36.5581 55.9755C34.6581 55.9755 33.1201 53.9975 33.1201 51.5635C33.1201 49.1275 34.6581 47.1525 36.5581 47.1525C38.4581 47.1525 39.9961 49.1285 39.9961 51.5635Z" fill="#390A0A"/>
<path d="M39.5587 48.1395C39.5587 48.6835 38.9067 49.1245 38.1027 49.1245C37.2977 49.1245 36.6467 48.6835 36.6467 48.1395C36.6467 47.5965 37.2977 47.1535 38.1027 47.1535C38.9057 47.1525 39.5587 47.5965 39.5587 48.1395Z" fill="white"/>
<path d="M68.6057 46.0326C66.8287 43.8906 64.4477 42.9546 61.6797 43.0576C56.8607 43.2376 53.6277 48.0856 55.3987 52.5596C55.5117 52.8416 56.0147 52.8366 55.9757 52.4816C55.6117 49.0886 58.2507 45.8496 61.6797 45.8436C63.3477 45.8406 64.8107 46.4016 65.9897 47.5656C67.1217 48.6816 66.8547 50.3526 67.6287 51.6216C67.9287 52.1156 68.6517 52.2416 69.0667 51.8086C70.6527 50.1396 69.9747 47.6856 68.6057 46.0326Z" fill="#390A0A"/>
<path d="M54.3296 51.3304C54.3296 54.7874 57.1736 57.5863 60.6826 57.5863C64.1906 57.5863 67.0346 54.7874 67.0346 51.3304C67.0346 47.8764 64.1906 45.0764 60.6826 45.0764C57.1736 45.0764 54.3296 47.8764 54.3296 51.3304Z" fill="white"/>
<path d="M64.5616 51.5629C64.5616 54.3759 62.7836 56.6569 60.5916 56.6569C58.3976 56.6569 56.6216 54.3759 56.6216 51.5629C56.6216 48.7509 58.3976 46.4709 60.5916 46.4709C62.7836 46.4719 64.5616 48.7519 64.5616 51.5629Z" fill="#80422B"/>
<path d="M64.0288 51.5626C64.0288 53.9976 62.4908 55.9745 60.5918 55.9745C58.6918 55.9745 57.1538 53.9966 57.1538 51.5626C57.1538 49.1266 58.6918 47.1516 60.5918 47.1516C62.4908 47.1516 64.0288 49.1276 64.0288 51.5626Z" fill="#390A0A"/>
<path d="M63.5912 48.1385C63.5912 48.6825 62.9392 49.1235 62.1352 49.1235C61.3312 49.1235 60.6792 48.6825 60.6792 48.1385C60.6792 47.5955 61.3302 47.1525 62.1352 47.1525C62.9392 47.1515 63.5912 47.5955 63.5912 48.1385Z" fill="white"/>
<path d="M53.2623 56.6328C52.5963 55.9518 51.5193 56.0388 50.5423 56.5098C50.5563 55.5838 50.4753 54.5468 49.9983 53.8138C49.0933 52.4178 47.7733 54.0648 47.4013 54.9658C47.1513 55.5688 47.0483 56.2828 47.0703 57.0008C45.9063 56.3908 44.6453 56.3048 44.0793 57.6118C43.2163 59.6018 47.0123 63.1498 48.9423 62.4608C50.8833 61.7688 55.8643 59.2898 53.2623 56.6328Z" fill="#CD8B6D"/>
<path d="M23.7961 49.1504C23.7961 49.1504 27.6481 24.9474 43.9571 40.4984C43.9571 40.4984 30.4151 33.1504 23.7961 49.1504Z" fill="#390A0A"/>
<path d="M74.3996 49.1504C74.3996 49.1504 70.5475 24.9474 54.2375 40.4984C54.2375 40.4984 67.7806 33.1504 74.3996 49.1504Z" fill="#390A0A"/>
<path d="M60.2897 64.8581C60.2897 64.8581 59.5397 66.5021 58.1557 68.3761C57.8957 68.7411 57.6077 69.1161 57.2807 69.4911C54.1567 73.2211 48.7827 76.8172 42.1297 69.9812L42.1207 69.9722C41.8897 69.7312 41.6487 69.4811 41.4087 69.2121C40.5637 68.2601 39.6977 67.1351 38.8137 65.8181C38.8137 65.8181 54.5217 63.8971 60.2897 64.8581Z" fill="white"/>
<path d="M58.1554 68.3762C57.8954 68.7412 57.6074 69.1161 57.2804 69.4911C52.2534 69.9141 47.1294 70.2512 42.1294 69.9812L42.1205 69.9722C41.8895 69.7312 41.6484 69.4812 41.4084 69.2122C47.0044 69.1462 52.5894 68.4812 58.1554 68.3762Z" fill="#CD8B6D"/>
</svg>
