<svg width="89" height="137" viewBox="0 0 89 137" fill="none" xmlns="http://www.w3.org/2000/svg">
<path d="M84.6106 129.753C84.6106 129.753 19.1306 144.438 12.9406 131.56C12.6906 131.019 16.7006 113.115 29.1506 108.115H29.1606C29.5506 108.115 29.9406 107.189 30.3506 107.039C31.2896 106.67 32.3106 106.062 33.3896 105.783C35.9196 105.152 38.8206 105.643 42.1696 105.612L51.0896 106.115C51.1006 106.115 51.1106 106.115 51.1106 106.115L58.1906 104.779C58.1906 104.779 59.7106 104.412 62.0306 105.113C62.0606 105.113 62.0896 104.868 62.1106 104.868C62.8396 105.098 63.6506 105.238 64.5206 105.588C64.7306 105.688 64.9596 105.711 65.1696 105.801C65.8506 106.092 66.5396 106.398 67.2496 106.757C68.0296 107.167 68.8396 107.62 69.6696 108.14C69.6896 108.152 69.7096 108.169 69.7306 108.179C70.0206 108.359 70.2996 108.535 70.5806 108.727C75.9506 112.415 81.6706 118.784 84.6106 129.753Z" fill="#909C4C"/>
<path d="M69.6702 108.134L48.9402 122.614L29.1602 106.964C29.5502 106.784 29.9402 106.614 30.3502 106.464C31.2892 106.093 32.3102 105.775 33.3892 105.493C35.9192 104.864 38.8202 105.499 42.1692 105.468L51.0891 106.115C51.1001 106.115 51.1102 106.115 51.1102 106.115L58.1902 104.779C58.1902 104.779 59.7102 104.412 62.0302 105.113C62.0602 105.113 62.0892 104.868 62.1102 104.868C62.8392 105.098 63.6502 105.238 64.5202 105.588C64.7302 105.688 64.9592 105.711 65.1692 105.801C65.8502 106.092 66.5392 106.398 67.2492 106.757C68.0302 107.166 68.8402 107.614 69.6702 108.134Z" fill="white"/>
<path d="M67.2506 106.737C59.2766 110.95 48.9436 116.95 48.9436 116.95C48.9436 116.95 34.0666 107.464 33.3906 105.493C35.9206 104.858 38.8216 104.473 42.1716 104.444L58.1896 103.754C58.1896 103.754 62.2266 104.124 67.2506 106.737Z" fill="#CD8B6D"/>
<path d="M40.4873 93.481C40.4873 93.481 42.5583 106.133 40.9483 110.045C40.9483 110.045 49.2303 113.957 54.5213 110.504C54.5213 110.504 52.9113 99.002 53.1413 93.25L40.4873 93.481Z" fill="#CD8B6D"/>
<path d="M22.06 69.478C20.338 66.113 19.554 60.777 15.997 58.628C11.686 56.021 8.40603 61.631 6.69003 64.851C4.95203 68.113 4.22103 73.929 8.84203 75.308C12.393 76.372 20.247 74.148 22.367 71.015L22.06 69.478Z" fill="#CD8B6D"/>
<path d="M18.3344 66.519C18.3344 66.519 12.9284 58.138 11.0354 61.518C9.14139 64.898 9.68338 69.221 9.68338 69.221C9.68338 69.221 10.7644 64.492 14.2794 67.196C14.2794 67.196 10.8994 74.7641 17.7944 72.6041C17.7944 72.6041 20.6324 70.305 18.3344 66.519Z" fill="#B66C50"/>
<path d="M71.8727 69.4776C73.5957 66.1126 74.3787 60.7766 77.9357 58.6266C82.2477 56.0206 85.5267 61.6306 87.2437 64.8506C88.9817 68.1106 89.7117 73.9266 85.0907 75.3096C81.5397 76.3706 73.6867 74.1476 71.5657 71.0126L71.8727 69.4776Z" fill="#CD8B6D"/>
<path d="M75.6001 66.5164C75.6001 66.5164 81.0071 58.1374 82.9001 61.5154C84.7931 64.8954 84.2521 69.2204 84.2521 69.2204C84.2521 69.2204 83.1711 64.4904 79.6561 67.1954C79.6561 67.1954 83.0351 74.7634 76.1411 72.6014C76.1411 72.6014 73.3021 70.3044 75.6001 66.5164Z" fill="#B66C50"/>
<path d="M76.0913 59.1636C75.9913 60.2036 75.8623 61.2436 75.7213 62.2846C74.8313 68.9446 73.7613 75.5836 72.1023 82.1046C68.9823 94.3746 53.7913 100.414 48.3813 100.003C20.4823 96.2526 19.0313 77.1046 19.2323 75.0236C19.5623 71.7636 18.9923 68.2326 18.7823 64.9826C18.6723 63.2526 18.4123 61.4736 18.1723 59.7026C18.0523 58.7926 17.9323 57.8727 17.8323 56.9627C17.6123 54.8427 17.5323 52.7326 17.8623 50.6836C17.8823 50.5426 17.9123 50.4036 17.9313 50.2636C18.4523 47.2926 19.4113 44.2336 20.5413 41.4736C24.0813 32.8536 31.2313 23.2126 41.4613 23.0236C43.8523 22.9736 46.2813 23.3826 48.6413 24.1136C52.0623 25.1436 60.3913 24.2136 63.2823 25.9536C69.7123 29.8436 71.1023 36.8536 74.3123 43.9336C75.3323 46.1936 75.9023 48.4536 76.1713 50.7526C76.5013 53.5146 76.3913 56.3146 76.0913 59.1636Z" fill="#E8B299"/>
<path d="M76.1713 50.7536C74.8013 51.1936 73.0623 50.9936 70.9413 49.8836C68.2413 48.4636 63.8613 39.3436 67.8313 37.6046C64.1403 38.7646 61.1613 40.2136 57.6113 37.6946C54.8903 35.7546 53.1803 32.5846 51.6113 29.7346C49.7203 35.0536 45.5903 39.8746 40.2813 41.8646C37.1313 43.0446 31.1403 44.7046 28.5913 41.7346C29.0623 47.3436 23.5313 56.2846 17.8313 56.9646C17.6113 54.8447 17.5313 52.7346 17.8613 50.6856C17.8813 50.5446 17.9113 50.4056 17.9303 50.2656C18.4513 47.2946 19.4103 44.2356 20.5403 41.4756C24.0803 32.8556 31.2303 23.2146 41.4603 23.0256C43.8513 22.9756 46.2803 23.3846 48.6403 24.1156C52.0613 25.1456 60.3903 24.2156 63.2813 25.9556C69.7113 29.8456 71.1013 36.8556 74.3113 43.9356C75.3313 46.1946 75.9013 48.4536 76.1713 50.7536Z" fill="#CD8B6D"/>
<path d="M48.4168 59.5279C48.4168 59.5279 47.6788 72.4409 45.6488 74.2859C44.9178 74.9519 43.2048 76.0179 43.8158 77.1529C44.3788 78.1999 45.7288 78.5569 46.8368 78.4499C47.3048 78.4029 47.6548 78.302 48.0448 78.0499C48.1978 77.9499 48.5968 77.4109 48.7848 77.4229C48.7848 77.4229 52.1048 77.6069 50.8138 75.7629C49.5228 73.9169 48.9678 74.6559 48.9678 74.6559C48.9678 74.6559 49.3388 56.5759 48.4168 59.5279Z" fill="#CD8B6D"/>
<path d="M63.2274 78.3478C63.2274 78.3478 62.2974 81.3928 60.2094 84.4868C60.0434 84.7348 59.8584 84.9908 59.6654 85.2488C55.7824 90.4868 48.4664 95.1058 36.6224 84.1078C36.4204 83.9238 36.2264 83.7408 36.0234 83.5468C34.8554 82.4238 33.6504 81.1538 32.3984 79.7268C32.3984 79.7268 49.8834 84.5588 63.2274 78.3478Z" fill="white"/>
<path d="M60.2094 84.4868C60.0434 84.7348 59.8584 84.9908 59.6654 85.2488C58.4694 85.3228 57.2724 85.3678 56.0764 85.3878C49.6904 85.4798 42.9174 85.5638 36.6224 84.1088C36.4204 83.9248 36.2264 83.7418 36.0234 83.5478C42.8704 85.1588 50.8404 85.0948 57.7514 84.6788C58.5704 84.6338 59.3904 84.5688 60.2094 84.4868Z" fill="#CD8B6D"/>
<path d="M67.0749 65.0091C67.0749 68.9521 64.2989 72.1501 60.8729 72.1501C57.4479 72.1501 54.6729 68.9531 54.6729 65.0091C54.6729 61.0651 57.4479 57.8701 60.8729 57.8701C64.2989 57.8691 67.0749 61.0651 67.0749 65.0091Z" fill="white"/>
<path d="M65.7574 65.2408C65.7574 68.1768 63.6444 70.5568 61.0364 70.5568C58.4294 70.5568 56.3154 68.1758 56.3154 65.2408C56.3154 62.3068 58.4284 59.9248 61.0364 59.9248C63.6444 59.9248 65.7574 62.3068 65.7574 65.2408Z" fill="#95BCD1"/>
<path d="M64.7309 65.3046C64.7309 67.6016 63.1229 69.4666 61.1389 69.4666C59.1549 69.4666 57.5469 67.6016 57.5469 65.3046C57.5469 63.0056 59.1549 61.1416 61.1389 61.1416C63.1229 61.1416 64.7309 63.0066 64.7309 65.3046Z" fill="#141E62"/>
<path d="M65.757 61.4406C65.757 61.9276 64.664 62.3226 63.315 62.3226C61.967 62.3226 60.874 61.9276 60.874 61.4406C60.874 60.9536 61.968 60.5576 63.315 60.5576C64.664 60.5576 65.757 60.9526 65.757 61.4406Z" fill="white"/>
<path d="M64.8128 58.9081C67.6488 60.4061 69.2798 64.0731 67.6298 66.4381C67.5498 66.5531 67.2668 66.5061 67.2878 66.3701C67.6198 64.2661 66.6458 61.9911 64.8208 60.3921C63.6918 59.4021 62.1338 58.9841 60.4368 58.8811C58.5828 58.7711 57.7468 60.2261 56.2888 60.7241C55.9848 60.8291 55.6038 60.6611 55.7038 60.3921C56.8428 57.3481 61.9548 57.3981 64.8128 58.9081Z" fill="#141E62"/>
<path d="M28.5957 65.0091C28.5957 68.9521 31.3707 72.1501 34.7967 72.1501C38.2217 72.1501 40.9977 68.9531 40.9977 65.0091C40.9977 61.0651 38.2217 57.8701 34.7967 57.8701C31.3707 57.8691 28.5957 61.0651 28.5957 65.0091Z" fill="white"/>
<path d="M39.3531 65.2408C39.3531 68.1768 37.2391 70.5568 34.6321 70.5568C32.0261 70.5568 29.9111 68.1758 29.9111 65.2408C29.9111 62.3068 32.0251 59.9248 34.6321 59.9248C37.2391 59.9248 39.3531 62.3068 39.3531 65.2408Z" fill="#95BCD1"/>
<path d="M38.3276 65.3046C38.3276 67.6016 36.7206 69.4666 34.7356 69.4666C32.7506 69.4666 31.1436 67.6016 31.1436 65.3046C31.1436 63.0056 32.7496 61.1416 34.7356 61.1416C36.7206 61.1426 38.3276 63.0066 38.3276 65.3046Z" fill="#141E62"/>
<path d="M39.3527 61.4406C39.3527 61.9276 38.2597 62.3226 36.9097 62.3226C35.5627 62.3226 34.4697 61.9276 34.4697 61.4406C34.4697 60.9536 35.5637 60.5576 36.9097 60.5576C38.2607 60.5576 39.3527 60.9526 39.3527 61.4406Z" fill="white"/>
<path d="M30.8554 58.9081C28.0204 60.4061 26.3894 64.0731 28.0384 66.4381C28.1184 66.5531 28.4024 66.5061 28.3804 66.3701C28.0494 64.2661 29.0234 61.9911 30.8474 60.3921C31.9764 59.4021 33.5354 58.9841 35.2314 58.8811C37.0864 58.7711 37.9214 60.2261 39.3794 60.7241C39.6834 60.8291 40.0654 60.6611 39.9644 60.3921C38.8264 57.3481 33.7154 57.3981 30.8554 58.9081Z" fill="#141E62"/>
<path d="M35.1784 47.8848C30.7914 47.6818 24.7744 51.0668 24.9074 55.9028C24.9424 57.2228 25.2624 58.9688 26.6924 59.4008C27.4684 59.6338 28.0704 59.1658 28.3524 58.5428C31.1124 56.8988 33.8604 57.2268 36.9654 57.7398C38.4254 57.9808 40.5644 58.0158 41.4304 56.5138C44.2614 51.5968 39.7024 48.0928 35.1784 47.8848Z" fill="#422405"/>
<path d="M53.5015 55.4628C54.3655 56.9668 56.5075 56.9298 57.9665 56.6898C61.0725 56.1758 63.8195 55.8488 66.5785 57.4928C66.8605 58.1158 67.4635 58.5848 68.2385 58.3518C69.6685 57.9178 69.9885 56.1728 70.0245 54.8528C70.1575 50.0168 64.1405 46.6308 59.7535 46.8328C55.2295 47.0418 50.6715 50.5458 53.5015 55.4628Z" fill="#422405"/>
<path d="M82.871 30.4232C82.591 29.0532 82.221 27.7241 81.741 26.4841C81.171 24.9641 80.441 23.5741 79.531 22.3741C75.541 17.1141 69.521 17.2341 63.781 15.7841C70.301 10.6041 63.741 3.15415 58.001 0.884149C54.871 -0.355851 52.161 -0.125858 49.611 0.564142C49.09 0.695142 48.581 0.855146 48.071 1.01515C44.651 2.14415 41.411 3.72414 37.631 3.15514C32.281 2.35514 27.991 -0.634858 22.102 0.355142C21.622 0.435142 21.141 0.535143 20.681 0.644143L19.581 0.955148L19.531 0.965143C12.501 3.14514 7.901 9.03515 5.071 15.8751C4.671 16.8551 4.266 17.8552 3.936 18.8652C0.235997 23.0352 0 29.3652 0 35.2551V35.2851C1 36.5851 0.406001 37.8651 0.686001 39.1051C1.026 40.6251 1.473 42.0841 1.973 43.4051C5.064 51.6451 11.193 54.6151 16.903 53.3441C20.663 53.7751 24.567 52.0441 26.247 48.2941C26.827 46.9841 27.1 45.7651 27.159 44.5841C27.79 43.3151 28.321 41.9241 28.731 40.4141C30.441 41.3741 32.433 41.9141 34.723 41.8641C41.023 41.7141 44.962 37.8741 46.992 32.6842C47.452 32.7532 47.942 32.8031 48.482 32.7931C54.572 32.7431 60.383 32.5731 66.563 31.9931C59.623 37.1031 66.083 42.4031 71.263 44.6631C74.923 46.2531 74.683 44.7932 75.083 48.2532C75.433 51.2432 73.193 54.3831 73.573 57.4031C73.963 60.4831 75.173 63.3631 78.503 61.8231C82.203 60.1031 82.854 51.0631 83.233 47.8231C83.432 46.1231 83.603 44.1831 83.672 42.1231C83.692 41.7031 83.702 41.2731 83.712 40.8431C83.771 37.4231 83.571 33.7831 82.871 30.4232Z" fill="#422405"/>
<path d="M0.721291 39.1043C1.15229 39.7343 1.63129 40.3643 2.16129 40.9743C10.9013 51.1543 21.3513 42.7343 24.8013 32.4543C27.4423 24.6043 21.4713 13.4443 12.6313 19.1243C8.96129 21.4843 7.12129 26.7143 8.63129 30.7653C10.1613 34.8443 13.8413 31.3153 14.7413 29.2253C15.0013 28.5943 14.0913 28.0543 13.8213 28.6853C13.3003 31.0253 11.7413 30.8843 9.15129 28.2853C8.85129 25.4453 10.4203 22.9253 12.2103 20.9153C16.9103 15.6553 22.2713 19.5953 23.8903 24.7453C26.2603 32.2663 20.4013 41.7663 13.4413 44.5753C7.03129 47.1553 2.51029 41.0253 0.0712891 35.2553L0.721291 39.1043Z" fill="#5D3416"/>
<path d="M83.671 42.1236C81.631 41.7246 79.281 41.7536 77.541 40.1736C74.711 37.6136 73.681 34.2645 72.352 30.8035C69.602 23.6235 63.032 19.7935 55.702 23.8145C52.672 25.4845 49.512 28.3336 46.082 29.0936C40.482 30.3436 40.302 26.3836 42.192 22.0336C45.572 14.2836 33.862 14.1036 29.002 13.2836C23.972 12.4336 19.942 11.2735 19.122 5.59454C18.892 3.99354 19.062 2.44455 19.532 0.963547L20.681 0.643555C19.391 4.82455 19.631 9.88355 24.442 11.3546C28.882 12.7046 33.612 12.6446 38.072 13.9236C40.332 14.5646 43.672 15.7435 43.891 18.5735C44.051 20.7935 42.841 22.3435 42.301 24.4435C41.001 29.5335 47.301 27.6835 49.402 26.4225C50.562 25.7235 51.702 24.9835 52.862 24.2825C57.782 21.3325 63.072 19.7625 68.261 23.0325C73.841 26.5525 72.801 34.4525 77.381 38.5725C79.402 40.3925 81.551 40.4625 83.711 40.8425L83.671 42.1236Z" fill="#5D3416"/>
<path d="M81.7413 26.4845C81.6613 26.3435 81.6013 26.2145 81.5413 26.1045C79.8913 22.8835 77.5913 21.7045 74.0713 21.6945C69.7113 21.6845 66.3613 21.2345 63.5103 17.4845C62.4413 16.0745 61.8303 14.4235 60.6403 13.0745C58.8513 11.0245 56.0003 11.6045 53.7713 12.3345C52.5213 12.7445 51.3403 13.2445 50.0613 13.5845C47.2313 14.3245 45.8803 11.5155 46.6703 9.20447C47.5903 6.46447 48.6503 3.76548 49.4903 0.994476C49.5303 0.864476 49.5703 0.724477 49.6103 0.563477C49.0893 0.694477 48.5803 0.854465 48.0703 1.01447C46.9003 5.12347 45.0803 9.71347 44.9693 10.6145C44.7493 12.3945 45.5703 14.7045 47.5893 14.9545C53.1103 15.6145 57.8893 9.87448 61.7303 16.9345C63.6293 20.4345 66.5403 22.3035 70.4403 22.8945C74.7403 23.5435 78.7993 23.5145 81.0703 27.9345C81.5603 28.8835 82.1393 29.7345 82.8703 30.4235L81.7413 26.4845Z" fill="#5D3416"/>
</svg>
