<svg width="90" height="127" viewBox="0 0 90 127" fill="none" xmlns="http://www.w3.org/2000/svg">
<path d="M89.3311 119.809C88.9801 127.16 57.5501 126.329 44.6911 125.689C31.8311 126.33 0.380138 127.16 0.0411379 119.809C-0.388862 110.579 2.62114 103.95 5.84114 102.45C7.33114 101.75 13.6021 100.68 19.8611 99.7505C21.0111 99.5805 22.1611 99.4105 23.2811 99.2605C24.0011 99.1505 24.7111 99.0505 25.3911 98.9605C30.3001 98.2705 34.1801 97.7805 34.1801 97.7805L44.6911 98.9295L55.1901 97.7805C55.1901 97.7805 58.9691 98.2605 63.7991 98.9295C64.5001 99.0305 65.2091 99.1295 65.9491 99.2405C67.1191 99.4105 68.3191 99.5805 69.5291 99.7605C75.7791 100.68 82.0391 101.75 83.5291 102.45C86.7511 103.949 89.7601 110.579 89.3311 119.809Z" fill="#BF9837"/>
<path d="M65.9502 99.2395L54.3202 116.548L43.9812 103.878L29.6512 115.878L23.2812 99.2585C24.0013 99.1485 24.7113 99.0485 25.3913 98.9585C30.3003 98.2685 34.1803 97.7785 34.1803 97.7785L44.6912 98.9275L55.1902 97.7785C55.1902 97.7785 58.9692 98.2585 63.7992 98.9275C64.5012 99.0295 65.2102 99.1295 65.9502 99.2395Z" fill="white"/>
<path d="M29.2451 86.7295C29.2451 86.7295 30.7491 98.9635 30.9641 102.616C30.9641 102.616 45.1361 111.637 56.9451 102.187C56.9451 102.187 57.1591 92.7295 57.1591 86.7295H29.2451Z" fill="#CD8B6D"/>
<path d="M70.1599 47.4873C70.1599 47.4873 81.8489 38.3333 83.5149 49.5883C85.1819 60.8433 69.9919 63.7183 69.9919 63.7183L70.1599 47.4873Z" fill="#CD8B6D"/>
<path d="M70.8345 52.6656C70.8345 52.6656 77.2105 45.4256 78.5355 48.9326C79.8585 52.4346 78.7195 56.4956 78.7195 56.4956C78.7195 56.4956 78.3666 51.8146 74.6166 53.8946C74.6166 53.8946 76.7595 61.6216 70.4755 58.5616C70.4755 58.5616 68.0905 55.9546 70.8345 52.6656Z" fill="#B66C50"/>
<path d="M14.2836 47.4873C14.2836 47.4873 2.59559 38.3333 0.928587 49.5883C-0.738413 60.8433 14.4526 63.7183 14.4526 63.7183L14.2836 47.4873Z" fill="#CD8B6D"/>
<path d="M13.6097 52.6656C13.6097 52.6656 7.23369 45.4256 5.90869 48.9326C4.58469 52.4346 5.72268 56.4956 5.72268 56.4956C5.72268 56.4956 6.07768 51.8146 9.82768 53.8946C9.82768 53.8946 7.68369 61.6216 13.9667 58.5616C13.9667 58.5616 16.3527 55.9546 13.6097 52.6656Z" fill="#B66C50"/>
<path d="M70.4507 70.4297C69.8607 80.2197 58.7007 87.4597 51.4007 90.7007C44.1017 93.9507 38.0217 92.3307 38.0217 92.3307C10.4417 84.2207 11.2517 65.5597 12.4707 60.2907C13.6917 55.0197 12.0107 44.8807 15.2507 32.7207C15.6907 31.0707 16.3207 29.5807 17.0907 28.2417C22.0317 19.6217 32.5217 16.8507 32.5217 16.8507C50.7517 5.08168 63.5107 16.6507 67.7097 26.1617C68.0007 26.8017 68.2507 27.4317 68.4497 28.0517C71.7007 37.7797 71.1207 59.4497 70.4507 70.4297Z" fill="#E8B299"/>
<path d="M67.7106 26.1601C67.2206 27.2691 66.4506 28.2201 65.3206 28.8891C62.7706 30.3991 57.6206 29.2091 57.9306 25.6791C56.3306 36.4591 43.5806 33.0391 44.8706 27.9391C42.6906 31.1491 39.7306 33.2801 35.2406 32.1391C31.2806 31.1391 27.5106 27.2091 29.2706 23.2591C26.8906 25.5891 21.0006 29.3391 17.0896 28.2391C22.0306 19.6191 32.5206 16.8481 32.5206 16.8481C50.7516 5.08007 63.5106 16.6491 67.7106 26.1601Z" fill="#CD8B6D"/>
<path d="M77.818 77.9784C77.818 77.9784 77.818 77.9894 77.818 77.9994V80.4194C77.818 80.4294 77.818 80.4294 77.818 80.4394C77.818 81.2504 77.533 82.1294 77.283 83.1094C76.484 86.2904 73.903 93.1394 69.603 90.0594C70.813 94.0994 67.711 99.2404 64.111 101.849L63.452 102.29C60.331 104.269 56.976 104.25 55.758 99.9704C52.496 102.71 48.514 107.18 43.724 107.43C43.014 107.47 42.114 107.34 41.134 107.09L39.833 106.68C35.983 105.32 31.663 102.35 32.443 99.5104C29.512 105.66 23.673 103.44 19.313 99.0404C19.113 98.8404 18.913 98.6304 18.723 98.4104C14.383 93.7004 11.814 86.9794 15.793 84.9904C12.713 85.3804 10.193 83.8894 8.823 81.5694C8.682 81.3194 8.54299 81.0694 8.43199 80.7994C7.84199 79.4994 7.603 78.0094 7.773 76.4694C8.182 72.8694 11.132 70.3394 13.342 67.8294C10.182 65.8084 6.06299 64.5794 7.19299 60.2284C8.12299 56.6384 13.762 52.5684 16.653 56.0484L15.253 57.9184C17.173 56.1474 20.814 55.7284 23.413 56.6474C23.813 56.7884 24.193 56.9584 24.533 57.1684C26.133 58.1074 26.983 59.7484 26.033 62.0674C27.123 61.7784 29.573 61.2484 31.913 61.1474L32.943 61.1374C35.873 61.1774 38.253 62.1274 36.893 65.4374C39.002 63.6674 40.682 63.8284 42.292 64.4484L42.972 64.7274C44.492 65.4174 46.002 66.3284 47.823 66.2174C48.004 66.2074 49.512 65.2174 51.322 64.1474L51.923 63.7974C55.353 61.8174 59.412 59.9174 57.673 63.8174C57.893 63.4274 58.233 62.9274 58.653 62.3784L59.472 61.3884C62.393 58.0484 67.542 53.9384 69.443 57.7984C75.722 55.1084 81.726 69.2684 73.935 72.3784C75.923 74.2994 76.818 75.9784 77.818 77.9784Z" fill="#422405"/>
<path d="M19.2817 68.1485C19.2817 69.8785 19.3917 72.2495 18.0617 73.6285C15.9607 75.8085 12.9607 76.4385 10.9207 78.9285C10.2207 79.7795 9.49069 80.6585 8.82069 81.5685C8.67969 81.3185 8.54069 81.0685 8.42969 80.7985C9.65969 79.1285 10.9497 77.3085 12.5097 75.9985C15.2807 73.6885 18.1697 72.7085 18.0707 68.1475C18.0307 66.2885 20.4697 59.2885 23.4107 56.6475C23.8107 56.7885 24.1907 56.9585 24.5307 57.1685C21.5717 59.1195 19.2717 66.8295 19.2817 68.1485Z" fill="#5D3416"/>
<path d="M31.9117 61.1487C29.9617 63.4287 28.3917 65.8887 27.9317 69.1087C27.6317 71.1697 28.0327 73.1787 28.4427 75.1887C28.8227 77.0397 29.1717 78.8487 29.2027 80.7497C29.2527 84.2797 26.1127 86.6297 24.0327 88.9297C22.0727 91.0897 19.8627 94.6897 18.7217 98.4097C18.9127 98.6297 19.1127 98.8397 19.3127 99.0397C19.4927 98.2497 19.7427 97.4497 20.0227 96.6487C21.9127 91.3487 26.7427 88.4897 29.3417 83.7587C30.7827 81.1387 29.8317 77.6787 29.2417 74.9687C27.9307 68.9787 29.7617 65.0787 32.9417 61.1387L31.9117 61.1487Z" fill="#5D3416"/>
<path d="M39.8315 106.679C39.2015 100.889 44.2215 95.1593 41.9415 89.6193C39.7315 84.2593 37.0715 80.1593 38.5105 74.0893C39.2905 70.7793 40.9205 67.6393 42.2905 64.4493L42.9705 64.7283C42.6205 65.5083 42.2505 66.2893 41.8915 67.0683C38.5315 74.4383 38.5715 80.5483 42.2715 87.7793C44.2105 91.5793 43.3005 95.1693 42.0415 99.0093C41.1025 101.859 40.7715 104.569 41.1315 107.089L39.8315 106.679Z" fill="#5D3416"/>
<path d="M63.4413 102.29C61.7203 96.4999 65.3003 88.4299 59.5413 84.9789C55.3913 82.4899 52.5623 79.3089 51.9323 74.3589C51.5023 71.0299 51.3423 67.5989 51.3223 64.1489L51.9233 63.7989C51.9723 67.3589 52.1323 70.9189 52.7923 74.2489C53.5833 78.2089 55.3333 81.3579 58.8923 83.4689C60.2523 84.2689 62.1923 85.2799 62.9123 86.7889C64.9823 91.1189 62.5523 97.3579 64.0933 101.848L63.4413 102.29Z" fill="#5D3416"/>
<path d="M77.8179 78.2997V80.4197C77.8179 80.4297 77.8179 80.4297 77.8179 80.4397C76.8179 79.3397 76.7129 78.3997 76.1029 77.8997C73.0639 75.4297 69.1629 76.5307 66.0819 74.4697C61.9919 71.7407 59.5009 67.1797 58.6709 62.3797L59.4809 61.3897C59.7919 63.5307 60.4059 65.6197 61.4159 67.5497C62.6269 69.8597 64.1839 72.3197 66.5739 73.5697C68.8039 74.7297 71.0249 74.4297 73.2649 75.2507C75.0759 75.9097 76.8179 76.6797 77.8179 78.2997Z" fill="#5D3416"/>
<path d="M42.8828 41.6431C42.8828 41.6431 40.8558 39.6171 40.4498 46.9141C40.0438 54.2121 40.4498 61.9161 40.4498 61.9161C40.4498 61.9161 35.5838 59.0771 37.2058 63.1331C38.0818 65.3231 40.1428 66.4411 42.3188 67.0241C44.2158 67.5321 45.6078 66.8881 46.8528 65.6751C47.4288 65.1131 50.4368 62.0641 49.4898 61.1121C49.0358 60.6551 46.3938 61.7481 45.7208 61.9161C45.7208 61.9161 46.5328 40.0201 42.8828 41.6431Z" fill="#CD8B6D"/>
<path d="M51.3036 37.2842C51.3036 37.2842 64.7776 33.9282 67.1026 46.3942C67.1026 46.3942 53.3826 40.6552 50.2246 43.4772L51.3036 37.2842Z" fill="#422405"/>
<path d="M35.8749 37.5677C35.8749 37.5677 22.9989 32.3707 18.9639 44.3917C18.9639 44.3917 33.3489 40.6157 36.0829 43.8497L35.8749 37.5677Z" fill="#422405"/>
<path d="M50.4434 51.5824C50.4434 55.5694 53.7254 58.8024 57.7754 58.8024C61.8244 58.8024 65.1074 55.5704 65.1074 51.5824C65.1074 47.5944 61.8244 44.3634 57.7754 44.3634C53.7254 44.3634 50.4434 47.5944 50.4434 51.5824Z" fill="white"/>
<path d="M62.2519 51.8517C62.2519 55.0977 60.2009 57.7297 57.6699 57.7297C55.1389 57.7297 53.0879 55.0977 53.0879 51.8517C53.0879 48.6067 55.1389 45.9747 57.6699 45.9747C60.2009 45.9747 62.2519 48.6067 62.2519 51.8517Z" fill="#95BCD1"/>
<path d="M60.9248 51.8517C60.9248 54.1577 59.4689 56.0297 57.6689 56.0297C55.8699 56.0297 54.4128 54.1577 54.4128 51.8517C54.4128 49.5447 55.8699 47.6747 57.6689 47.6747C59.4689 47.6747 60.9248 49.5447 60.9248 51.8517Z" fill="#141E62"/>
<path d="M61.1315 47.8988C61.1315 48.5258 60.3795 49.0358 59.4515 49.0358C58.5235 49.0358 57.7715 48.5258 57.7715 47.8988C57.7715 47.2718 58.5235 46.7608 59.4515 46.7608C60.3805 46.7608 61.1315 47.2708 61.1315 47.8988Z" fill="white"/>
<path d="M52.681 46.0064C52.497 46.2934 52.736 46.7244 53.08 46.7034C55.208 46.5804 56.985 45.9764 59.159 46.4514C61.243 46.9064 64.226 48.1014 64.821 50.3994C64.909 50.7414 65.368 50.6354 65.401 50.3204C65.951 44.8944 55.488 41.6284 52.681 46.0064Z" fill="#141E62"/>
<path d="M21.2402 51.5824C21.2402 55.5694 24.5222 58.8024 28.5722 58.8024C32.6212 58.8024 35.9032 55.5704 35.9032 51.5824C35.9032 47.5944 32.6212 44.3634 28.5722 44.3634C24.5222 44.3634 21.2402 47.5944 21.2402 51.5824Z" fill="white"/>
<path d="M33.0478 51.8518C33.0478 55.0978 30.9958 57.7298 28.4658 57.7298C25.9348 57.7298 23.8838 55.0978 23.8838 51.8518C23.8838 48.6068 25.9348 45.9748 28.4658 45.9748C30.9968 45.9748 33.0478 48.6068 33.0478 51.8518Z" fill="#95BCD1"/>
<path d="M31.7217 51.8518C31.7217 54.1578 30.2657 56.0298 28.4657 56.0298C26.6657 56.0298 25.2097 54.1578 25.2097 51.8518C25.2097 49.5448 26.6657 47.6748 28.4657 47.6748C30.2657 47.6748 31.7217 49.5448 31.7217 51.8518Z" fill="#141E62"/>
<path d="M31.9284 47.8989C31.9284 48.5259 31.1754 49.0359 30.2474 49.0359C29.3194 49.0359 28.5674 48.5259 28.5674 47.8989C28.5674 47.2719 29.3194 46.7609 30.2474 46.7609C31.1754 46.7609 31.9284 47.2709 31.9284 47.8989Z" fill="white"/>
<path d="M33.5779 45.1487C33.7619 45.4357 33.5249 45.8667 33.1789 45.8457C31.0519 45.7227 29.2759 45.1177 27.1009 45.5937C25.0159 46.0477 22.0329 47.2427 21.4389 49.5407C21.3499 49.8827 20.8909 49.7777 20.8589 49.4627C20.3079 44.0357 30.7699 40.7697 33.5779 45.1487Z" fill="#141E62"/>
<path d="M25.3411 69.4657C25.4021 69.6287 26.3461 71.9137 27.9361 74.7817C28.1331 75.1347 28.3391 75.4867 28.5541 75.8557C30.8041 79.6767 34.0761 84.1697 37.9071 86.0847C43.9721 89.1167 52.0111 86.1377 58.9761 76.4137C59.0611 76.2837 59.1571 76.1557 59.2431 76.0257C60.5571 74.1537 61.8291 72.0417 63.0401 69.6877C63.0401 69.6877 58.5811 70.6747 48.8501 71.8857C39.2731 73.0907 25.7801 69.5767 25.3411 69.4657Z" fill="white"/>
<path d="M27.9358 74.7821C28.1328 75.1351 28.3388 75.4871 28.5538 75.8561C33.0888 76.8181 37.6838 77.4461 42.1938 77.5991C47.7168 77.7971 53.5568 77.8051 58.9768 76.4141C59.0618 76.2841 59.1578 76.1561 59.2438 76.0261C53.2658 77.5981 46.5398 77.4961 40.5978 76.9631C36.2668 76.5771 32.0918 75.7521 27.9358 74.7821Z" fill="#CD8B6D"/>
<path d="M59.2253 68.6223C61.2783 68.0493 63.6343 69.3173 65.2223 70.5183C65.5033 70.7313 65.2493 71.2073 64.9383 71.0043C64.0973 70.4573 63.1773 70.0723 62.2353 69.7413C61.2523 69.3943 60.2103 69.3593 59.2253 69.0353C59.0273 68.9723 59.0133 68.6813 59.2253 68.6223Z" fill="#B66C50"/>
<path d="M22.625 69.9657C23.039 69.2617 23.856 69.0267 24.575 68.7207C25.362 68.3857 26.17 68.1147 26.971 67.8167C27.382 67.6647 27.639 68.3107 27.265 68.5167C26.553 68.9077 25.84 69.2847 25.104 69.6267C24.402 69.9537 23.686 70.4727 22.884 70.4197C22.662 70.4057 22.502 70.1737 22.625 69.9657Z" fill="#B66C50"/>
<path d="M66.5909 28.5497C64.3209 28.9897 63.1109 26.9597 63.3409 24.9197C63.0499 25.7097 62.7199 26.3397 62.3609 26.8497C62.3609 26.8597 62.3509 26.8597 62.3509 26.8597C61.9509 27.4107 61.5209 27.7997 61.0609 28.0697C58.7199 29.4207 55.7309 27.3307 53.9309 24.6207C54.4599 28.0007 51.8799 32.2507 48.2709 32.2807C45.5819 32.3007 42.9209 29.8307 42.1019 27.1607C41.3119 28.5507 40.1919 29.3097 38.9519 29.5907C38.5819 29.6807 38.1919 29.7207 37.8019 29.7307C33.0729 29.8007 27.5119 24.3007 31.0629 21.5907C29.0229 22.9207 23.4619 27.0007 19.6129 27.6007C19.2219 27.6617 18.8429 27.6807 18.4829 27.6617C16.9429 27.5817 15.8629 26.6507 15.7119 24.3317C15.4829 20.8417 17.8019 18.0017 20.7519 16.5607C20.5019 12.1617 22.2619 6.68074 24.5719 5.24174C27.4709 3.44074 29.4919 5.52073 29.3219 8.60073C29.8919 4.88073 34.4709 -0.0692658 38.2319 0.000734204C39.6919 0.0307342 40.7109 0.410733 41.4309 1.03073C41.7109 1.26973 41.9419 1.55073 42.1419 1.84973C43.3719 3.75973 43.1419 6.79974 43.3519 9.33074C43.7209 9.09974 44.0909 8.89073 44.4709 8.70074C44.8919 8.47974 45.3119 8.29073 45.7409 8.12073C48.0209 7.18073 50.3799 6.81074 52.6899 6.92074C53.0099 6.94074 53.3309 6.96073 53.6399 7.00073C60.3309 7.72073 66.4199 12.5307 68.4589 19.5407C69.1209 21.8097 70.4509 27.7897 66.5909 28.5497Z" fill="#422405"/>
<path d="M36.7714 9.4293C37.0414 10.7093 37.8714 14.2593 35.6614 14.7693C34.0114 15.1603 33.0714 14.3993 31.4514 14.1093C27.6314 13.4393 24.5314 16.7903 22.8714 19.7293C21.9314 21.3893 20.2315 24.6093 19.6115 27.5993C19.2205 27.6603 18.8414 27.6793 18.4814 27.6603C18.7104 26.4303 19.0814 25.2503 19.4114 24.3893C21.1514 19.8093 24.4014 14.4193 29.4814 13.1893C30.5814 12.9193 31.6614 13.3303 32.6704 13.6693C36.0404 14.8293 36.0404 10.6693 35.6604 8.5293C35.3904 7.0183 35.9104 5.2683 36.9694 4.1593C38.1694 2.9093 39.7194 1.8583 41.4294 1.0293C41.7094 1.2683 41.9404 1.5493 42.1404 1.8483C38.6414 3.1193 35.8714 5.1793 36.7714 9.4293Z" fill="#5D3416"/>
<path d="M46.931 20.3591C43.091 22.3391 38.902 24.0801 38.942 29.3191C38.942 29.4101 38.942 29.5001 38.952 29.5901C38.582 29.6801 38.192 29.7201 37.802 29.7301C37.802 27.9911 38.412 26.1611 39.162 24.8101C40.182 22.9911 41.152 21.7411 42.952 20.6701C43.742 20.2101 47.712 19.8191 46.392 17.7101C45.921 16.9601 45.402 16.2101 45.122 15.3591C44.402 13.1601 44.142 10.8701 44.472 8.70012C44.893 8.47912 45.313 8.29012 45.742 8.12012C45.102 11.3991 45.922 14.3901 47.833 18.1091C48.291 19.0201 47.753 19.9301 46.931 20.3591Z" fill="#5D3416"/>
<path d="M62.3609 26.8497C62.3609 26.8597 62.3509 26.8597 62.3509 26.8597C61.9509 27.4107 61.5209 27.7997 61.0609 28.0697C61.0819 27.9397 61.1209 27.7997 61.1609 27.6607C62.3709 23.3497 61.9609 19.4107 57.3909 17.3307C55.7509 16.5907 54.3209 15.9797 53.0009 14.7607C51.0609 12.9607 51.8199 9.44073 52.6899 6.92073C53.0099 6.94073 53.3309 6.96073 53.6399 7.00073C53.3789 7.76073 53.1899 8.53073 53.0809 9.31973C52.1099 16.2997 58.1809 15.2597 61.0809 18.7597C63.1509 21.2697 62.7109 24.1087 62.3609 26.8497Z" fill="#5D3416"/>
</svg>
