<svg width="103" height="132" viewBox="0 0 103 132" fill="none" xmlns="http://www.w3.org/2000/svg">
<path d="M75.8031 123.03C75.5431 123.13 75.2742 123.219 75.0032 123.3C70.1632 124.9 64.6041 125.89 58.2731 126.13C57.6421 126.15 57.0032 126.169 56.3532 126.169C53.4532 126.21 50.3932 126.089 47.1732 125.8C42.9332 125.419 39.0322 124.769 35.4632 123.89C34.8731 123.749 34.3032 123.599 33.7322 123.439C20.5832 119.83 12.0122 112.97 6.80215 104.74C6.42215 104.14 6.06215 103.541 5.72215 102.92C-4.09785 85.4708 0.17215 62.7108 7.67215 51.3008C20.1721 32.3008 18.1721 26.8008 18.1721 26.8008L30.1721 26.3108L31.4012 26.2598L40.1012 25.9008L41.7012 25.8408L55.2122 25.2818L56.4422 25.2308L72.4522 24.5807L74.2312 24.5008L79.1712 24.3018C79.1712 24.3018 85.1712 40.3018 97.6712 62.8018C107.573 80.6198 104.923 112.879 75.8031 123.03Z" fill="#92561A"/>
<path d="M11.3137 79.9278C8.23369 87.7798 6.17368 96.3888 6.80368 104.739C6.42368 104.139 6.06367 103.54 5.72367 102.919C5.49367 97.7798 6.21368 92.5398 7.73368 87.3388C13.8747 66.3098 24.9737 47.3098 30.1737 26.3098L31.4027 26.2588C27.4037 44.8288 18.1737 62.4788 11.3137 79.9278Z" fill="#B5894B"/>
<path d="M35.0742 123.169C35.2042 123.409 35.3352 123.649 35.4652 123.89C34.8752 123.749 34.3052 123.599 33.7342 123.439C29.8352 115.499 28.6042 106.109 28.8442 97.4987C29.2742 81.9387 33.0442 66.9598 36.3342 51.8288C38.2432 43.0888 39.5442 34.5298 40.1042 25.8988L41.7042 25.8387C40.4042 45.5597 33.3942 65.0787 31.0342 84.5887C29.4942 97.3187 28.9242 111.45 35.0742 123.169Z" fill="#B5894B"/>
<path d="M58.2739 126.129C57.6429 126.149 57.0039 126.168 56.3539 126.168C49.3039 112.428 48.6039 94.9075 49.7939 79.9375C50.9739 65.1195 54.7429 50.5585 55.5029 35.7285C55.6829 32.2185 55.5629 28.7385 55.2139 25.2795L56.4439 25.2285C56.6039 26.8475 56.6829 28.4885 56.6729 30.1285C56.5529 44.7985 53.2029 58.9975 51.6839 73.5285C49.8139 91.4585 49.8339 110.799 58.2739 126.129Z" fill="#B5894B"/>
<path d="M76.5241 101.2C75.5341 107.839 74.0841 115.899 75.6831 122.579C75.7231 122.729 75.7531 122.88 75.8031 123.03C75.5431 123.13 75.2741 123.219 75.0031 123.3C74.0631 119.839 73.6931 116.12 73.9131 112.04C74.6131 99.259 78.1331 86.849 78.7731 74.05C79.4431 60.7001 78.5121 47.3 75.2621 34.29C74.4431 31.019 73.4821 27.78 72.4521 24.579L74.2311 24.499C74.9421 27.03 75.6021 29.56 76.2311 32.069C79.0711 43.428 80.6311 55.049 80.4711 66.78C80.3231 78.499 78.2431 89.659 76.5241 101.2Z" fill="#B5894B"/>
<path d="M84.4238 125.091C84.4238 125.091 15.1748 145.337 21.9568 115.2C21.9568 115.2 24.8108 103.788 38.8528 99.3993C40.1418 99.0023 41.5218 98.7863 43.0038 98.5183C45.1028 98.1313 47.3938 97.9773 49.9138 97.9773H53.5958C56.9088 97.9773 60.0818 97.6703 63.4068 98.1573C63.4328 98.1573 63.4698 98.1003 63.4968 98.1123C65.1548 98.3603 66.7648 98.6873 68.3108 99.1933C73.1608 100.748 77.3008 103.649 79.7948 108.479C81.2948 111.397 82.1328 114.571 82.8318 117.756C82.9428 118.273 84.4788 125.074 84.4238 125.091Z" fill="#909C4C"/>
<path d="M63.4969 98.0463C50.0169 136.255 44.5049 109.054 43.0049 98.5193C45.1039 98.1323 47.3949 97.9783 49.9149 97.9783H53.5969C56.9099 97.9783 60.0829 97.6713 63.4079 98.1583C63.4329 98.1583 63.4689 98.0373 63.4969 98.0463Z" fill="#CD8B6D"/>
<path d="M58.3328 102.729C53.9028 106.419 44.6838 102.729 44.6838 102.729C45.7138 100.669 46.1938 98.2386 46.3538 95.7986C46.4538 94.4486 46.4438 93.0876 46.3738 91.7986C46.1128 87.0686 45.0538 83.1676 45.0538 83.1676L56.8638 82.8086C55.9928 85.6486 55.8738 88.8286 56.1038 91.7986C56.2038 93.1986 56.3828 94.5486 56.6038 95.7986C57.2928 99.7986 58.3328 102.729 58.3328 102.729Z" fill="#CD8B6D"/>
<path d="M46.3535 95.9785C46.4535 93.9785 46.4435 92.9785 46.3735 91.9785H56.1025C56.2025 92.9785 56.3815 94.9785 56.6025 95.9785H46.3535Z" fill="#909C4C"/>
<path d="M78.4132 48.3264C78.4132 48.3264 88.6202 43.0474 88.2682 51.8464C87.9152 60.6454 75.9512 60.6454 75.9512 60.6454L78.4132 48.3264Z" fill="#CD8B6D"/>
<path d="M78.1799 52.3591C78.1799 52.3591 84.0709 47.7731 84.5749 50.6291C85.0769 53.4841 83.6269 56.4081 83.6269 56.4081C83.6269 56.4081 84.0299 52.7971 80.8799 53.8401C80.8799 53.8401 81.3979 60.0241 77.0609 56.7931C77.0609 56.7931 75.6219 54.4681 78.1799 52.3591Z" fill="#B66C50"/>
<path d="M24.3687 50.0814C24.3687 50.0814 14.1627 44.8024 14.5137 53.6014C14.8657 62.4004 26.8317 62.4004 26.8317 62.4004L24.3687 50.0814Z" fill="#CD8B6D"/>
<path d="M24.5996 54.1178C24.5996 54.1178 18.7086 49.5298 18.2056 52.3858C17.7026 55.2408 19.1526 58.1627 19.1526 58.1627C19.1526 58.1627 18.7496 54.5538 21.8996 55.5968C21.8996 55.5968 21.3816 61.7808 25.7186 58.5498C25.7186 58.5498 27.1586 56.2228 24.5996 54.1178Z" fill="#B66C50"/>
<path d="M78.6082 48.5645C78.5902 48.8225 78.5632 49.0705 78.5342 49.3285C78.4342 50.3305 78.2962 51.3445 78.1672 52.3555C77.3022 58.8065 76.2612 65.2405 74.6612 71.5525C71.6342 83.4505 56.9092 89.3045 51.6732 88.9005C24.6372 85.2735 23.2292 66.7105 23.4312 64.6975C23.7532 61.5415 23.2022 58.1155 22.9902 54.9685C22.8882 53.2945 22.6322 51.5735 22.3922 49.8535C22.1622 48.1325 21.9502 46.3925 21.8942 44.6815C21.8672 43.4745 21.9122 42.2885 22.0972 41.1115C22.1162 40.9725 22.1432 40.8435 22.1712 40.6975C22.6672 37.8245 23.5962 34.8635 24.6912 32.1835C28.1242 23.8355 35.0532 14.4865 44.9642 14.3045C47.2832 14.2575 49.6402 14.6615 51.9312 15.3615C55.2352 16.3635 58.4272 17.9575 61.2332 19.6505C67.4632 23.4145 73.6862 27.7035 76.8052 34.5685C78.8762 39.1505 79.0402 43.7795 78.6082 48.5645Z" fill="#E8B299"/>
<path d="M83.4446 45.7675C80.4936 42.3185 78.6336 40.0785 73.7546 38.7085C65.8046 36.4685 57.9746 38.1285 49.9156 38.4685C41.4946 38.8275 31.9746 38.9175 24.9156 33.7885C21.4356 31.2575 18.5456 27.9875 16.6046 24.1385C14.8546 20.6675 15.5346 17.3085 16.5946 13.7085C17.0736 12.0875 17.8146 10.5875 18.8146 9.26751C19.0346 8.95851 19.2846 8.6675 19.5546 8.3785C19.8546 8.0285 20.1846 7.6985 20.5336 7.3785C23.2036 4.9685 26.6136 3.29849 30.3136 2.15749C30.6036 2.07749 30.8936 1.98749 31.1936 1.90749C35.5436 0.686494 40.2436 0.167506 44.5536 0.0385059C45.0536 0.0175059 45.5536 0.0075 46.0436 0.0075C46.8136 -0.0025 47.5636 -0.0025 48.2936 0.0075C55.8826 0.1185 63.7826 1.97852 70.3726 5.95852C70.9426 6.30852 71.5026 6.65752 72.0426 7.04852C73.1326 7.78852 74.1826 8.5975 75.1726 9.4685C77.1426 11.1985 78.6936 13.1185 79.9016 15.1775C80.1316 15.5775 80.3626 15.9785 80.5616 16.3885C81.6416 18.4885 82.4126 20.7085 82.9316 23.0075C83.0326 23.4375 83.1216 23.8685 83.2116 24.3085C84.5536 31.3375 83.8936 38.9685 83.4446 45.7675Z" fill="#B5894B"/>
<path d="M83.2137 24.3089C78.5237 25.9979 73.6637 27.2579 68.8437 28.1779C59.5247 29.9589 49.1537 31.6879 39.8947 28.6779C32.3347 26.2289 24.9247 21.4789 21.0847 14.3089C20.2437 12.7479 19.4747 11.0489 18.8147 9.26791C19.0347 8.95891 19.2847 8.66791 19.5547 8.37891C20.5947 11.2379 21.9647 13.8789 23.5947 16.0289C29.4037 23.7089 38.7037 28.3469 48.2947 28.8079C59.9637 29.3679 71.8227 27.0779 82.9337 23.0069C83.0347 23.4379 83.1237 23.8699 83.2137 24.3089Z" fill="#DEA864"/>
<path d="M80.5637 16.3882C80.4737 16.4272 80.3737 16.4782 80.2847 16.5172C72.5047 20.0072 63.1947 20.4782 54.9347 18.4782C45.0347 16.0782 36.1547 10.2382 30.3147 2.1582C30.6047 2.0782 30.8947 1.9882 31.1947 1.9082C37.0857 9.6382 45.8047 15.3282 55.2947 17.1582C63.1047 18.6782 72.6047 19.0882 79.9027 15.1782C80.1337 15.5782 80.3647 15.9782 80.5637 16.3882Z" fill="#DEA864"/>
<path d="M72.0435 7.04883C67.0335 8.78883 61.5135 9.09783 56.7234 7.54883C52.6144 6.21883 48.1944 3.51782 44.5544 0.0388184C45.0544 0.0178184 45.5544 0.0078125 46.0444 0.0078125C49.8744 3.38881 54.3944 5.89882 58.3544 6.63882C62.5734 7.41782 66.6045 7.10783 70.3745 5.95883C70.9445 6.30883 71.5035 6.65883 72.0435 7.04883Z" fill="#DEA864"/>
<path d="M50.5759 48.2161C50.5759 48.2161 49.8379 61.1301 47.8079 62.9741C47.0769 63.6401 45.3649 64.7061 45.9749 65.8411C46.5379 66.8881 47.8889 67.2451 48.9959 67.1381C49.4629 67.0931 49.8139 66.9901 50.2039 66.7381C50.3569 66.6381 50.7549 66.0991 50.9429 66.1111C50.9429 66.1111 54.2639 66.2971 52.9719 64.4511C51.6809 62.6071 51.1279 63.3461 51.1279 63.3461C51.1279 63.3461 51.4979 45.2651 50.5759 48.2161Z" fill="#CD8B6D"/>
<path d="M61.9304 70.9499C61.9304 70.9499 53.0344 88.8928 38.0054 72.0258C38.0054 72.0258 38.0244 72.0339 38.0614 72.0439C38.4754 72.1449 40.9874 72.7258 41.8344 72.0258C42.7544 71.2528 49.6554 67.1119 59.1704 71.7129C59.1704 71.7129 60.5514 71.4089 61.9304 70.9499Z" fill="#A22D40"/>
<path d="M61.93 70.9499C51.865 78.7799 38.962 72.5139 38.061 72.0439C38.475 72.1449 40.987 72.7258 41.834 72.0258C42.754 71.2528 49.655 67.1119 59.17 71.7129C59.17 71.7129 60.551 71.4089 61.93 70.9499Z" fill="#801424"/>
<path d="M43.9191 60.565C47.3772 57.1069 47.3772 51.5003 43.9191 48.0422C40.461 44.5842 34.8544 44.5842 31.3964 48.0422C27.9383 51.5003 27.9383 57.1069 31.3964 60.5649C34.8544 64.023 40.4611 64.023 43.9191 60.565Z" fill="white"/>
<path d="M43.1972 53.0141C43.1972 57.0531 40.7182 60.3281 37.6622 60.3281C34.6052 60.3281 32.1282 57.0531 32.1282 53.0141C32.1282 48.9751 34.6062 45.701 37.6622 45.701C40.7182 45.702 43.1972 48.9751 43.1972 53.0141Z" fill="#95BCD1"/>
<path d="M41.5928 53.0143C41.5928 55.8833 39.8328 58.2112 37.6608 58.2112C35.4878 58.2112 33.7278 55.8833 33.7278 53.0143C33.7278 50.1453 35.4878 47.8173 37.6608 47.8173C39.8328 47.8173 41.5928 50.1453 41.5928 53.0143Z" fill="#141E62"/>
<path d="M41.8434 48.0956C41.8434 48.8746 40.9344 49.5096 39.8144 49.5096C38.6934 49.5096 37.7854 48.8746 37.7854 48.0956C37.7854 47.3146 38.6934 46.6796 39.8144 46.6796C40.9344 46.6796 41.8434 47.3146 41.8434 48.0956Z" fill="white"/>
<path d="M37.5496 43.6067C31.6966 43.0227 27.1936 48.3096 27.1946 53.7706C27.1946 54.3366 27.8906 54.4467 28.1856 54.0387C30.5816 50.7537 31.3406 47.5307 35.7136 46.2747C42.1596 44.4247 45.6816 51.0247 46.0506 56.2257C46.0856 56.7277 46.7806 56.7217 46.8266 56.2257C47.4066 50.0167 44.0816 44.2607 37.5496 43.6067Z" fill="#141E62"/>
<path d="M55.4983 54.3051C55.4983 59.1961 59.4633 63.1601 64.3543 63.1601C69.2443 63.1601 73.2083 59.1951 73.2083 54.3051C73.2083 49.4141 69.2433 45.4501 64.3543 45.4501C59.4623 45.4501 55.4983 49.4141 55.4983 54.3051Z" fill="white"/>
<path d="M69.7606 54.4906C69.7606 58.5296 67.2836 61.8036 64.2256 61.8036C61.1696 61.8036 58.6926 58.5306 58.6926 54.4906C58.6926 50.4516 61.1706 47.1766 64.2256 47.1766C67.2846 47.1756 69.7606 50.4516 69.7606 54.4906Z" fill="#95BCD1"/>
<path d="M68.1592 54.4909C68.1592 57.3579 66.3992 59.6879 64.2252 59.6879C62.0532 59.6879 60.2932 57.3579 60.2932 54.4909C60.2932 51.6199 62.0532 49.2919 64.2252 49.2919C66.3992 49.2919 68.1592 51.6199 68.1592 54.4909Z" fill="#141E62"/>
<path d="M66.3796 50.9851C67.5002 50.9851 68.4086 50.352 68.4086 49.5711C68.4086 48.7902 67.5002 48.1571 66.3796 48.1571C65.259 48.1571 64.3506 48.7902 64.3506 49.5711C64.3506 50.352 65.259 50.9851 66.3796 50.9851Z" fill="white"/>
<path d="M64.1439 44.1626C69.9969 43.5766 74.4989 48.8636 74.4979 54.3266C74.4979 54.8926 73.8029 55.0026 73.5059 54.5946C71.1109 51.3076 70.3529 48.0846 65.9789 46.8306C59.5339 44.9786 56.0109 51.5786 55.6429 56.7796C55.6059 57.2836 54.9129 57.2756 54.8679 56.7796C54.2879 50.5706 57.6119 44.8146 64.1439 44.1626Z" fill="#141E62"/>
<path d="M74.0227 41.3105C72.6027 38.1115 67.9167 37.5215 64.8297 37.5465C62.1147 37.5715 57.2837 38.9155 56.7107 42.0265C56.6557 42.3155 56.9197 42.5185 57.1847 42.3915C59.8287 41.1275 61.8057 39.9365 64.8307 39.8155C68.1357 39.6825 70.2807 41.5125 73.2527 42.3115C73.8777 42.4805 74.2547 41.8335 74.0227 41.3105Z" fill="#92561A"/>
<path d="M43.6543 41.3105C42.2353 38.1115 37.5503 37.5215 34.4613 37.5465C31.7473 37.5715 26.9163 38.9155 26.3423 42.0265C26.2883 42.3155 26.5513 42.5185 26.8173 42.3915C29.4603 41.1275 31.4373 39.9365 34.4623 39.8155C37.7673 39.6825 39.9123 41.5125 42.8853 42.3115C43.5103 42.4805 43.8863 41.8335 43.6543 41.3105Z" fill="#92561A"/>
<path d="M39.3832 64.506C39.3832 65.777 36.6022 66.8069 33.1712 66.8069C29.7402 66.8069 26.9602 65.778 26.9602 64.506C26.9602 63.236 29.7402 62.205 33.1712 62.205C36.6022 62.206 39.3832 63.237 39.3832 64.506Z" fill="#A22D40"/>
<path d="M73.4323 64.506C73.4323 65.777 70.6513 66.8069 67.2203 66.8069C63.7893 66.8069 61.0083 65.778 61.0083 64.506C61.0083 63.236 63.7893 62.205 67.2203 62.205C70.6513 62.206 73.4323 63.237 73.4323 64.506Z" fill="#A22D40"/>
<path d="M43.8403 74.1321C43.8403 74.1321 51.5073 71.4641 56.5063 73.4641C56.5063 73.4641 50.8403 78.4641 43.8403 74.1321Z" fill="white"/>
<path d="M20.5069 58.3203L22.4779 62.3143L26.8839 62.9553L23.6959 66.0623L24.4489 70.4493L20.5069 68.3783L16.5669 70.4493L17.3199 66.0623L14.1309 62.9553L18.5379 62.3143L20.5069 58.3203Z" fill="white"/>
<path d="M79.5059 56.3203L81.4769 60.3143L85.8829 60.9553L82.6949 64.0623L83.4479 68.4493L79.5059 66.3783L75.5659 68.4493L76.3189 64.0623L73.1299 60.9553L77.5369 60.3143L79.5059 56.3203Z" fill="white"/>
</svg>
