<svg width="81" height="122" viewBox="0 0 81 122" fill="none" xmlns="http://www.w3.org/2000/svg">
<path d="M26.5648 9.06878C26.4068 9.14978 26.2518 9.23477 26.0938 9.31277C26.5908 9.07077 26.6938 9.00978 26.5648 9.06878Z" fill="#8E3F20"/>
<path d="M77.1327 74.7923C76.0097 73.2913 74.2677 72.2643 72.7537 71.2093C70.7837 69.8373 67.2587 69.0703 69.1677 64.9023C69.6837 63.7763 70.5686 62.7493 71.2986 61.7583C74.2376 57.7653 74.5096 53.6533 73.0666 48.9533C72.2866 46.4113 71.1686 44.8183 73.8336 42.5593C75.5606 41.0963 76.4917 39.7353 77.2617 37.6343C78.6547 33.8273 74.4846 30.2883 72.0056 28.2713C70.6316 27.1523 69.2477 26.0633 67.8217 25.0083C64.3736 22.4593 63.1627 20.0003 63.4557 15.7503C63.7407 11.6263 62.6766 8.87231 58.7766 7.10831C56.8726 6.24631 54.6706 6.03431 52.6306 5.69731C49.1986 5.13131 46.6656 3.26731 43.6666 1.69531C39.2836 -0.598692 35.4746 1.49831 31.5726 3.67131C29.0296 5.08831 26.5856 6.67031 24.0326 8.07031C22.4586 8.93331 20.7276 9.11631 19.7626 10.7623C18.4406 13.0193 20.1626 14.3993 22.0546 14.6473C22.2906 15.2643 23.0577 15.4183 23.5847 15.1273C24.5397 17.5983 24.7916 22.5053 24.8026 22.7383C24.9736 26.2433 23.1816 29.6653 21.4606 32.5833C18.7356 37.2033 14.8916 41.2453 12.9576 46.3163C11.6296 49.7993 10.7096 54.4803 12.5946 57.9823C13.3476 59.3813 14.2626 60.5973 15.5896 61.5153C16.5666 62.1923 17.5526 62.7663 18.6056 63.3213C22.0486 65.1363 19.7376 69.4093 18.7646 71.5493C17.2186 74.9493 14.3566 79.5803 15.1136 83.4653C16.0036 88.0263 19.3516 89.7333 23.6756 89.7843C24.6386 89.7953 26.1207 89.5043 26.9747 89.4373C29.1657 89.2663 29.7036 91.8963 30.1266 93.3103C30.5666 94.7843 31.1326 95.9313 32.1476 97.0753C34.5046 99.7353 39.0866 98.7343 41.4546 96.7653C43.3756 95.1673 45.0206 93.2973 46.7666 91.5173C50.0466 88.1723 52.3857 95.6903 53.0987 97.1603C54.3307 99.7023 56.9596 103.093 60.2506 102.347C63.8826 101.523 66.1956 98.5153 67.1186 95.0023C67.2726 94.4133 67.2616 93.6773 67.0786 93.0963L66.7166 91.9443C65.8616 90.1783 67.3187 89.1393 71.0897 88.8263C72.0747 89.6303 73.3896 90.4493 74.7366 90.1033C80.6556 88.5823 79.9887 78.6133 77.1327 74.7923Z" fill="#7C2C14"/>
<path d="M45.9725 93.77C45.6085 94.078 45.2045 94.318 44.7825 94.511C44.1855 94.799 43.5425 94.981 42.8685 95.087C41.5515 95.319 40.1385 95.27 38.8305 95.087C38.3015 95.01 37.8015 94.924 37.3205 94.827C35.2345 94.385 33.6785 93.77 33.6785 93.77C33.7835 93.559 33.8895 93.337 33.9865 93.117C34.2845 92.406 34.5245 91.646 34.6975 90.868C34.7455 90.704 34.7845 90.54 34.8125 90.368C34.8895 89.994 34.9565 89.618 35.0045 89.234C35.0335 89.089 35.0525 88.946 35.0615 88.801C35.2155 87.551 35.2645 86.292 35.2345 85.062C35.2255 84.303 35.1875 83.553 35.1205 82.832C34.8125 79.083 34.0145 76.16 34.0145 76.16L44.6475 75.833C43.9745 78.054 43.8005 80.485 43.8975 82.832C43.9355 83.918 44.0415 84.986 44.1765 85.995C44.3005 86.908 44.4445 87.783 44.6085 88.591C44.6375 88.735 44.6665 88.879 44.6955 89.013C44.7615 89.321 44.8205 89.619 44.8875 89.898C45.0415 90.571 45.1965 91.167 45.3395 91.686C45.4255 92.013 45.5115 92.301 45.5795 92.552C45.8205 93.318 45.9725 93.77 45.9725 93.77Z" fill="#CD8B6D"/>
<path d="M10.3765 107.988C10.2715 107.44 13.4725 99.9802 21.1045 95.0872C23.8345 93.3282 27.1225 91.9052 31.0345 91.2422C31.6885 91.1262 32.3615 91.0403 33.0535 90.9823H33.0625C33.5925 90.9253 34.1405 90.8862 34.6975 90.8672C35.0255 90.8472 35.3515 90.8382 35.6875 90.8472H35.6965C36.5235 90.8382 37.3785 90.8673 38.2535 90.9243C39.4935 91.0103 40.6855 91.1162 41.8305 91.2412H41.8405C43.0515 91.3652 44.2155 91.5102 45.3405 91.6832C45.8405 91.7512 46.3205 91.8282 46.8015 91.9142C46.8115 91.9142 46.8115 91.9142 46.8115 91.9142C48.5025 92.2022 50.0895 92.5382 51.5695 92.9232C51.8485 92.9902 52.1175 93.0682 52.3865 93.1442C52.3865 93.1442 52.3965 93.1442 52.3965 93.1542C59.2025 95.0472 63.7975 98.1042 66.8345 102.574C68.4395 104.929 69.6225 107.678 70.4585 110.87C73.8225 123.609 14.2215 127.694 10.3765 107.988Z" fill="#CD8B6D"/>
<path d="M70.4575 110.871C69.6215 107.679 68.4385 104.931 66.8335 102.575C66.3815 102.988 65.8825 103.364 65.3535 103.69C63.5165 101.133 60.8645 98.9016 58.7305 96.9886C56.8755 95.3166 54.5965 94.2786 52.3955 93.1536C52.3955 93.1436 52.3855 93.1436 52.3855 93.1436C52.1155 93.0676 51.8475 92.9906 51.5685 92.9226C50.0895 92.5376 48.5025 92.2016 46.8105 91.9136C48.7815 95.4506 51.1935 98.7196 53.5875 101.978C54.4905 103.209 55.4225 104.516 56.4035 105.805C53.0685 105.805 49.3685 105.227 45.5995 104.314C45.4545 103.459 45.3195 102.604 45.2235 101.738C44.9355 99.3436 44.9455 96.9126 44.7825 94.5086C44.7535 93.9796 44.7155 93.4596 44.6575 92.9316C44.9655 92.8166 45.2825 92.6916 45.5805 92.5476C46.0035 92.3556 46.4075 92.1426 46.8015 91.9126C46.3215 91.8266 45.8405 91.7496 45.3405 91.6816C45.1965 91.1626 45.0425 90.5666 44.8885 89.8936C43.9555 90.4416 42.9935 90.9316 41.8415 91.2396H41.8315C41.7545 91.2576 41.6775 91.2776 41.6005 91.2966C39.4945 91.8156 37.4755 91.6726 35.6975 90.8446H35.6885C35.3805 90.6996 35.1025 90.5476 34.8135 90.3646L33.0635 90.9796H33.0545C33.3045 91.3076 33.5835 91.6046 33.8815 91.8646C30.9015 92.4796 28.5375 95.2576 26.5375 97.5946C24.5385 96.7096 22.7025 95.8536 21.1055 95.0846C13.4735 99.9776 10.2715 107.438 10.3775 107.986C14.2215 127.694 73.8225 123.609 70.4575 110.871ZM27.7275 98.1156C28.6995 97.4226 29.5345 96.5296 30.3615 95.6826C31.4475 94.5866 32.6395 93.7126 33.9865 93.1166C34.3325 92.9526 34.6975 92.8086 35.0715 92.6936C36.0915 93.2516 37.2445 93.5496 38.4555 93.6926C38.0515 94.0296 37.6775 94.4136 37.3205 94.8266C35.9555 96.4226 34.9075 98.5666 34.1775 100.73C31.9195 99.8836 29.7465 98.9886 27.7275 98.1156ZM35.7255 101.297C35.8025 101.057 35.8785 100.826 35.9655 100.585C36.6575 98.6046 37.5805 96.7486 38.8295 95.0856C39.1465 94.6346 39.5025 94.2016 39.8875 93.7776C40.0705 93.7886 40.2615 93.7976 40.4545 93.7976C41.2235 93.7686 42.1565 93.6336 43.1185 93.3936C42.9745 93.9216 42.8965 94.4896 42.8675 95.0846C42.7245 97.3056 43.2245 99.8436 43.3875 101.737C43.4465 102.42 43.5225 103.111 43.6095 103.804C40.9555 103.085 38.3015 102.229 35.7255 101.297ZM59.3745 105.632C57.9605 103.988 56.4415 102.402 55.1355 100.787C53.0305 98.1906 51.0595 95.4986 49.0405 92.8466C50.3945 93.8376 52.0485 94.5386 53.3855 95.3946C57.3455 97.9506 60.2586 101.297 63.2666 104.709C62.0746 105.161 60.7775 105.459 59.3745 105.632Z" fill="#390A0A"/>
<path d="M65.8008 43.0719C65.7088 44.014 65.5818 44.9649 65.4558 45.9259C64.6398 52.0109 63.6628 58.0889 62.1478 64.0479C59.2938 75.2769 45.3958 80.801 40.4468 80.422C14.9318 76.995 13.6018 59.4779 13.7878 57.5759C14.0898 54.5969 13.5688 51.3639 13.3758 48.3909C13.2748 46.8079 13.0378 45.1839 12.8108 43.5599C12.4398 40.7979 12.1038 38.0039 12.5338 35.3099C12.5498 35.1819 12.5758 35.0559 12.6008 34.9229C13.0708 32.2139 13.9478 29.4089 14.9828 26.8839C18.2238 19.0059 24.7648 10.1829 34.1158 10.0059C36.3058 9.96495 38.5278 10.3439 40.6898 11.0069C43.8128 11.9489 46.8268 13.4569 49.4698 15.0499C55.3548 18.6099 61.2288 22.6569 64.1668 29.1329C66.2308 33.6929 66.2888 38.299 65.8008 43.0719Z" fill="#FFC29C"/>
<g opacity="0.4">
<path d="M58.5553 57.4055C58.5553 58.8845 56.5653 60.0825 54.1093 60.0825C51.6523 60.0825 49.6633 58.8855 49.6633 57.4055C49.6633 55.9285 51.6523 54.7305 54.1093 54.7305C56.5653 54.7305 58.5553 55.9285 58.5553 57.4055Z" fill="#DB5D7B"/>
<path d="M28.7543 58.3675C28.7543 59.8465 26.7643 61.0435 24.3083 61.0435C21.8523 61.0435 19.8623 59.8465 19.8623 58.3675C19.8623 56.8895 21.8513 55.6925 24.3083 55.6925C26.7643 55.6925 28.7543 56.8895 28.7543 58.3675Z" fill="#DB5D7B"/>
</g>
<path d="M42.821 54.2915C41.675 54.2975 41.078 55.2855 40.217 55.6325C40.187 54.1635 40.558 52.7195 40.833 51.2765C41.153 49.5915 40.985 47.9225 40.944 46.2235C40.944 46.2005 40.933 46.1835 40.93 46.1615C40.888 45.4265 40.566 44.7105 39.782 45.4935C39.044 46.2315 39.011 47.5705 38.891 48.5365C38.635 50.6035 38.919 52.5995 38.413 54.6025C37.767 54.0395 37.046 53.3405 36.245 53.8105C35.067 54.5005 35.953 55.9635 36.52 56.6685C37.215 57.5325 38.826 59.2475 40.101 58.8965C41.744 58.4455 43.145 56.6525 43.385 55.0295C43.439 54.6625 43.236 54.2895 42.821 54.2915Z" fill="#CD8B6D"/>
<path d="M31.8857 40.873C29.7997 39.215 27.2497 39.499 24.7857 39.846C22.8477 40.119 20.1917 40.954 18.9977 42.702C17.1637 45.386 19.5167 47.26 20.7137 49.576C20.9117 49.96 21.3426 49.81 21.4726 49.493C21.5796 49.452 21.6747 49.368 21.7147 49.221C21.8767 48.636 21.8727 48.556 21.9287 47.907C21.9367 47.818 21.9107 47.749 21.8727 47.689C22.5377 44.603 25.4287 43.023 28.4547 42.841C31.6207 42.652 31.8326 45.445 32.6236 47.736C32.6436 47.799 32.6687 47.858 32.6887 47.92C32.7667 48.134 32.8496 48.346 32.9426 48.547C33.2626 49.236 33.2067 49.349 34.3687 48.147C36.2957 46.156 34.2787 42.773 31.8857 40.873Z" fill="#390A0A"/>
<path d="M20.6113 47.837C20.6113 51.294 23.4543 54.093 26.9633 54.093C30.4723 54.093 33.3163 51.294 33.3163 47.837C33.3163 44.382 30.4733 41.583 26.9633 41.583C23.4543 41.583 20.6113 44.382 20.6113 47.837Z" fill="white"/>
<path d="M31.1519 48.0695C31.1519 50.8825 29.3739 53.1635 27.1819 53.1635C24.9879 53.1635 23.2119 50.8825 23.2119 48.0695C23.2119 45.2585 24.9879 42.9775 27.1819 42.9775C29.3739 42.9775 31.1519 45.2585 31.1519 48.0695Z" fill="#A16929"/>
<path d="M30.6201 48.0692C30.6201 50.5042 29.0811 52.4812 27.1821 52.4812C25.2821 52.4812 23.7441 50.5042 23.7441 48.0692C23.7441 45.6342 25.2821 43.6592 27.1821 43.6592C29.0811 43.6592 30.6201 45.6342 30.6201 48.0692Z" fill="#390A0A"/>
<path d="M30.1815 44.6442C30.1815 45.1892 29.5285 45.6302 28.7255 45.6302C27.9205 45.6302 27.2695 45.1892 27.2695 44.6442C27.2695 44.1012 27.9205 43.6592 28.7255 43.6592C29.5295 43.6592 30.1815 44.1012 30.1815 44.6442Z" fill="white"/>
<path d="M44.3252 48.147C45.4872 49.349 45.4322 49.236 45.7522 48.547C45.8462 48.346 45.9282 48.134 46.0062 47.92C46.0272 47.858 46.0522 47.798 46.0712 47.736C46.8622 45.446 47.0742 42.652 50.2402 42.841C53.2662 43.022 56.1582 44.602 56.8222 47.689C56.7842 47.749 56.7582 47.818 56.7652 47.907C56.8222 48.557 56.8182 48.636 56.9802 49.221C57.0202 49.368 57.1152 49.453 57.2222 49.493C57.3512 49.809 57.7822 49.959 57.9802 49.576C59.1772 47.26 61.5312 45.386 59.6972 42.702C58.5042 40.954 55.8462 40.12 53.9092 39.846C51.4462 39.499 48.8952 39.215 46.8092 40.873C44.4172 42.773 42.3992 46.156 44.3252 48.147Z" fill="#390A0A"/>
<path d="M44.9521 47.837C44.9521 51.294 47.7961 54.093 51.3061 54.093C54.8141 54.093 57.6582 51.294 57.6582 47.837C57.6582 44.382 54.8141 41.583 51.3061 41.583C47.7961 41.583 44.9521 44.382 44.9521 47.837Z" fill="white"/>
<path d="M55.1851 48.0695C55.1851 50.8825 53.4072 53.1635 51.2142 53.1635C49.0212 53.1635 47.2441 50.8825 47.2441 48.0695C47.2441 45.2585 49.0202 42.9775 51.2142 42.9775C53.4072 42.9775 55.1851 45.2585 55.1851 48.0695Z" fill="#A16929"/>
<path d="M54.6534 48.0692C54.6534 50.5042 53.1144 52.4812 51.2144 52.4812C49.3154 52.4812 47.7764 50.5042 47.7764 48.0692C47.7764 45.6342 49.3144 43.6592 51.2144 43.6592C53.1144 43.6592 54.6534 45.6342 54.6534 48.0692Z" fill="#390A0A"/>
<path d="M54.2147 44.6442C54.2147 45.1892 53.5627 45.6302 52.7587 45.6302C51.9537 45.6302 51.3027 45.1892 51.3027 44.6442C51.3027 44.1012 51.9537 43.6592 52.7587 43.6592C53.5627 43.6592 54.2147 44.1012 54.2147 44.6442Z" fill="white"/>
<path d="M30.8168 33.7775C30.9778 34.5695 28.3368 33.6635 25.6338 34.2105C22.9288 34.7565 21.1868 36.5495 21.0268 35.7565C20.8658 34.9645 22.3498 31.8865 25.0528 31.3405C27.7578 30.7935 30.6578 32.9845 30.8168 33.7775Z" fill="#752710"/>
<path d="M58.1971 35.7464C58.0851 36.5464 55.8941 34.8164 53.1631 34.4364C50.4311 34.0554 48.1911 35.1694 48.3031 34.3684C48.4151 33.5674 50.8351 31.1564 53.5671 31.5364C56.2981 31.9174 58.3081 34.9454 58.1971 35.7464Z" fill="#752710"/>
<path d="M40.2432 62.8736C38.1922 63.6586 36.9522 62.1696 35.0612 62.7016C33.6222 63.1076 32.0672 64.0116 30.6872 64.8486C30.5672 64.9206 31.6282 66.3106 31.7142 66.3946C34.2622 68.8246 37.3072 70.6876 40.4652 70.6586C42.4942 70.6396 45.6082 68.2496 47.0912 65.7896C47.3852 65.0666 47.6692 64.3366 47.9852 63.6326C45.2552 62.1326 43.2162 61.7376 40.2432 62.8736Z" fill="#AB0048"/>
<path d="M34.3984 65.5745C34.3984 65.5745 40.9314 64.5035 44.8524 64.7415C44.0274 65.8685 40.1214 69.3805 34.3984 65.5745Z" fill="white"/>
<path d="M64.3396 47.1499C64.7266 46.5909 65.3146 46.1529 66.2026 45.7659C66.8826 45.4709 67.6176 45.2829 68.3426 45.1379C69.7816 44.8509 71.5326 44.8299 72.5526 46.0739C73.2586 46.9359 73.5216 48.3489 73.5706 49.4339C73.7926 54.3239 69.6736 57.0229 65.4586 58.1819C64.6616 58.3999 63.2696 59.2069 62.6756 58.2509C61.6606 56.6219 63.1276 48.9009 64.3396 47.1499Z" fill="#CD8B6D"/>
<path d="M64.3249 50.8434C64.3249 50.8434 69.4959 46.0534 70.1979 48.6994C70.9019 51.3454 69.7729 54.2104 69.7729 54.2104C69.7729 54.2104 69.8619 50.7824 66.9829 52.0164C66.9829 52.0164 67.9669 57.7914 63.6289 55.1004C63.6289 55.1004 62.0869 53.0304 64.3249 50.8434Z" fill="#B66C50"/>
<path d="M14.8577 47.1499C14.4707 46.5909 13.8836 46.1529 12.9946 45.7659C12.3146 45.4709 11.5796 45.2829 10.8546 45.1379C9.41665 44.8509 7.66465 44.8299 6.64565 46.0739C5.93965 46.9359 5.67666 48.3489 5.62766 49.4339C5.40666 54.3239 9.52366 57.0229 13.7397 58.1819C14.5367 58.3999 15.9277 59.2069 16.5237 58.2509C17.5367 56.6219 16.0697 48.9009 14.8577 47.1499Z" fill="#CD8B6D"/>
<path d="M14.8726 50.8434C14.8726 50.8434 9.70156 46.0534 8.99956 48.6994C8.29556 51.3454 9.42355 54.2104 9.42355 54.2104C9.42355 54.2104 9.33556 50.7824 12.2136 52.0164C12.2136 52.0164 11.2296 57.7914 15.5686 55.1004C15.5686 55.1004 17.1106 53.0304 14.8726 50.8434Z" fill="#B66C50"/>
<path d="M16.3399 77.019C16.1139 76.199 15.6759 75.614 15.1829 74.948C13.2219 72.315 14.2119 71.8511 15.6219 69.7561C16.3429 68.6851 16.3709 66.994 15.5509 65.965C14.3719 64.486 12.5389 63.335 13.0919 61.146C13.2399 60.562 14.1149 57.416 15.0239 57.428C15.7469 57.436 15.7089 56.407 15.0239 56.331C13.6649 56.18 12.8899 58.0271 12.4679 59.0281C11.3679 61.6351 10.8909 63.2341 12.9509 65.3601C16.2689 68.7891 10.4099 71.624 13.1479 75.095C16.8799 79.829 13.3619 79.045 13.5719 82.726C13.6489 84.068 13.6509 84.167 14.7539 84.894C15.1749 85.173 15.6199 84.7171 15.5369 84.2921C15.0239 81.6591 17.0629 79.649 16.3399 77.019Z" fill="#77BDA1"/>
<path d="M63.6263 77.987C61.6703 76.288 63.3413 73.996 64.4703 72.426C65.4673 71.04 66.3793 68.97 65.5613 67.264C65.1103 66.324 64.8323 65.678 63.9493 65.056C60.5633 62.673 61.6913 57.031 65.4643 55.754C65.8853 55.611 65.9853 54.884 65.4643 54.798C60.2093 53.931 58.4103 62.013 61.1643 65.402C63.0483 67.72 63.8683 69.737 61.9863 72.296C61.3043 73.223 60.4233 74.555 60.4373 75.783C60.4483 76.697 60.4203 77.643 61.0533 78.387C62.6713 80.29 63.4833 81.122 62.5153 83.957C62.3173 84.539 63.0993 84.93 63.5073 84.534C65.1493 82.939 65.4273 81.919 65.0573 79.671C64.9473 79.005 64.0853 78.387 63.6263 77.987Z" fill="#77BDA1"/>
<path d="M47.7033 7.01166C44.0123 6.65666 41.5703 5.86766 38.7053 3.48366C37.6183 2.56966 36.5983 1.68566 35.2733 1.12866C31.9953 -0.23634 28.7263 -0.456341 25.4483 0.984659C21.5743 2.68566 20.9113 8.25166 17.6533 10.7127C14.3563 13.2127 10.5393 13.3567 7.95426 16.8747C6.04126 19.4997 6.39525 23.5077 7.94425 26.1517C11.7983 32.7657 3.40627 33.0917 1.22427 37.3997C0.0602659 39.6777 -0.727737 42.3397 1.02126 44.5897C2.19426 46.1087 3.47327 47.0127 5.15527 47.9247C9.46127 50.2797 8.77925 53.7897 6.85625 57.1247C6.82825 57.1447 6.79826 57.1727 6.77926 57.1927C3.85826 59.6917 -0.756738 66.1137 4.85726 68.8047C6.07726 69.3907 6.30826 69.5257 7.55926 69.6507C9.21226 69.8137 10.4803 69.3427 8.91425 71.5537C7.69325 73.2847 6.39425 74.7067 7.16425 76.8697C7.23225 77.0527 7.30927 77.2067 7.40527 77.3507C7.73227 77.8217 8.22126 78.0917 8.77026 78.2347C9.18326 78.3597 9.63625 78.3977 10.0673 78.4087C10.9913 78.4367 12.0093 78.0327 12.8743 77.7737C13.9803 77.1867 14.1923 77.6387 13.5183 79.1387C13.0283 79.4947 12.4703 79.7447 11.9033 79.9267C11.3643 79.3597 10.2403 79.5717 10.1623 80.5907C10.1443 80.8017 10.1343 81.0137 10.1153 81.2347C10.0763 81.7827 10.6243 82.3297 11.1723 82.2917C13.8743 82.0997 17.7093 79.8407 16.9593 76.7357C16.6513 75.4567 15.2493 75.1397 14.1623 75.1877C13.2493 75.2357 12.2973 75.6207 11.4223 75.8707C11.3943 75.8797 11.3743 75.8797 11.3453 75.8907C10.6533 75.1697 13.3733 71.7467 13.8163 71.0937C14.7583 69.6807 15.0653 68.6227 14.9883 66.8927C14.9503 65.8927 14.0653 64.4217 13.0763 64.1147C11.9983 63.7777 8.05727 63.6347 10.6533 60.7687C11.7003 59.5967 13.1333 58.7597 14.4603 57.9327C18.0933 55.6647 19.7193 52.3477 17.2763 48.6187C13.0083 42.0917 20.6503 40.8897 23.2943 36.9577C24.8523 36.2167 25.7173 35.1607 24.7753 33.6117C23.7083 31.8817 19.8053 30.4687 20.2183 28.2677C20.8713 24.7587 26.2453 21.5957 28.8603 19.7207C32.2623 17.2897 35.6663 14.6937 40.0103 14.4337C41.2403 14.3677 42.3953 14.4337 43.3663 14.0977C43.5673 14.2427 43.8173 14.3087 44.1153 14.2137C47.0963 13.2527 48.4903 11.2327 48.8643 8.17566C48.9443 7.50266 48.2713 7.06966 47.7033 7.01166Z" fill="#8E3F20"/>
<path d="M37.1291 8.23365C36.0141 8.33865 35.4471 8.00266 34.5631 7.32966C31.6891 5.10966 28.6601 5.51366 26.5361 8.21366C23.9121 11.5597 22.7011 15.2407 21.2101 19.1437C20.4221 21.2207 18.9131 22.4217 16.7881 22.8547C8.86713 24.4597 12.9721 29.7177 13.0481 34.6877C13.0971 37.7737 11.8951 38.8307 9.44313 40.3877C5.75213 42.7247 12.5201 49.9727 13.1451 52.6737C13.7411 55.2697 13.1651 57.1447 11.2221 59.0087C9.60712 60.5567 2.58114 65.8827 8.12714 66.9877C11.2031 67.5937 13.9331 68.8537 11.3861 72.2467C10.0981 73.9477 9.42513 76.0917 8.77113 78.2347C8.22313 78.0907 7.73313 77.8217 7.40613 77.3507C8.34813 74.9767 9.80013 73.1587 10.8571 70.7847C12.2901 67.5647 4.36813 68.7667 4.21413 65.5067C4.12813 63.5747 5.67413 62.6227 7.02113 61.4507C8.18513 60.4317 9.36713 59.3267 10.4151 58.1917C14.2401 54.0387 11.2031 51.6937 9.62714 48.6457C8.45314 46.3677 6.81913 43.4357 7.55013 40.7917C7.65513 40.4267 7.89513 39.9747 8.23213 39.7637C10.6841 38.2057 12.3461 35.4567 11.3651 32.4187C10.2031 28.8247 9.51914 23.9307 14.0861 22.3447C17.4611 21.1617 19.6531 20.2867 20.8151 16.6537C21.2101 15.4137 21.6041 14.1537 22.1901 12.9907C23.3251 10.7417 24.5551 8.21366 26.4191 6.45366C27.9781 4.99366 29.3991 4.13666 31.5631 4.07966C33.9861 4.00266 35.0711 6.90566 37.2341 7.48266C37.6771 7.59866 37.5421 8.19565 37.1291 8.23365Z" fill="#B75B3E"/>
<path d="M77.1871 62.3831C75.9271 62.4411 75.5821 63.9691 76.5711 64.6611C78.1201 65.7381 78.5611 74.1401 73.3231 69.9391C72.0151 68.8821 71.5241 67.7861 71.5141 66.6811C71.9761 65.3641 72.4091 64.0951 72.8891 62.8741C73.5141 61.8451 74.2261 60.8361 74.7061 59.8941C74.8601 59.5971 74.9841 59.2981 75.0811 59.0191C75.1681 58.7691 75.2351 58.5201 75.3111 58.2701C75.4081 58.1451 75.4941 58.0101 75.5891 57.8851C75.9551 57.4051 76.3401 56.9331 76.7811 56.4721C78.3781 54.7901 79.5601 53.0011 80.1741 50.7721C80.8091 48.4551 80.1551 45.6961 79.4531 43.4851C78.4731 40.3701 75.5311 38.2461 75.2441 34.8721C75.0041 31.9301 76.1461 31.3251 74.2821 28.7771C73.1371 27.2101 71.8791 26.1621 70.9181 24.8841C71.0041 21.7411 70.8791 18.6831 69.5141 15.5401C65.0441 5.31214 55.4211 -1.50387 44.1651 0.400133C39.1461 1.25513 35.4731 3.63013 33.0611 6.89813C32.7161 7.37813 32.3801 7.88813 32.0811 8.40713C30.0911 11.8681 29.3121 16.0881 29.6781 20.5001C29.6111 20.6821 29.5531 20.8751 29.4861 21.0671C29.4201 21.2691 29.3611 21.4711 29.2941 21.6821C28.8621 23.1341 28.5541 24.6241 28.4001 26.1611C27.9381 30.9971 31.5331 35.0621 36.2441 35.2361C41.9251 35.4381 47.1831 31.0921 52.3651 29.4011C56.3051 28.1231 58.6321 29.4301 59.9301 31.8231C59.8921 32.2461 59.8441 32.6701 59.8151 33.0831C59.4691 37.1011 59.9501 40.7921 60.7761 44.4071C60.4221 46.0311 59.7011 47.8961 59.0171 49.8281C57.2491 53.5671 55.6331 57.5661 56.6431 61.6901C57.1611 63.8241 59.0751 64.9591 61.0751 65.3721C62.5741 65.6711 64.1031 65.3631 65.5831 65.1031C67.2941 64.7961 68.0821 65.3431 68.4481 66.2571C68.6501 66.7281 68.7361 67.3041 68.7841 67.9101C68.8611 69.0071 68.8131 70.1991 69.0431 71.1111C69.6971 73.6301 71.5141 74.9951 73.5331 75.2741C74.2551 75.3801 74.9951 75.3411 75.7251 75.1691C77.3111 74.8041 78.8101 73.8041 79.7611 72.2081C81.3771 69.5171 81.8881 62.1811 77.1871 62.3831Z" fill="#A6562F"/>
<path d="M75.7257 75.1695C74.9957 75.3415 74.2547 75.3805 73.5337 75.2745C71.3227 73.3625 69.6597 70.3915 68.8227 68.0465C68.8027 67.9985 68.7947 67.9495 68.7847 67.9115C68.5827 67.3355 68.4867 66.7975 68.4487 66.2585C68.3717 64.9795 68.6887 63.7495 69.2367 62.4225C70.5827 59.1545 68.6217 58.5205 65.9967 57.4725C64.0077 56.6645 63.7097 53.7045 64.1137 51.9355C65.3247 46.7245 72.4187 41.3035 69.2177 36.0165C67.6597 33.4405 65.1807 33.7575 63.6137 31.6715C62.2687 29.8925 61.4987 27.9895 60.8177 25.8835C59.4807 21.8075 57.6727 17.5015 52.6067 17.3285C50.1667 17.2415 47.7997 17.5395 45.5327 18.4625C42.2727 19.7895 39.0527 21.6635 35.6017 22.4515C32.9197 23.0675 30.8427 22.7115 29.2947 21.6825C29.3617 21.4715 29.4207 21.2695 29.4867 21.0675C30.1987 21.4905 31.0537 21.7305 32.0637 21.7505C38.0517 21.8465 43.0227 17.4345 48.7807 16.3575C54.4237 15.3005 59.2297 17.6175 61.1327 23.1065C61.9217 25.3745 62.4497 28.1535 63.9217 30.0945C68.3137 35.9005 66.4587 30.7875 68.7747 33.4025C70.5827 35.4495 71.4467 37.8335 71.7267 40.5345C72.0807 43.9765 67.0927 46.8405 66.0927 49.9845C64.9677 53.5035 65.8717 55.4735 69.6007 56.5215C69.8897 56.6085 70.8517 56.7045 71.0827 57.1565C72.4187 59.7325 70.7257 61.5885 70.1697 64.1645C69.5247 67.1805 72.3027 73.2945 75.7257 75.1695Z" fill="#D8744C"/>
<path d="M73.7638 52.2805C73.0238 54.3955 73.9858 56.8175 75.5898 57.8845C75.4938 58.0095 75.4078 58.1445 75.3118 58.2695C75.2358 58.5195 75.1678 58.7695 75.0818 59.0185C74.9848 59.2975 74.8608 59.5965 74.7068 59.8935C74.5048 59.8075 74.3118 59.7115 74.1098 59.5965C68.8428 56.6265 72.9858 49.8585 74.2348 45.5715C75.8118 40.1695 74.3028 37.4575 71.5138 33.1025C69.7268 30.2955 69.9288 26.6235 67.1888 24.5275C64.8528 22.7495 62.6708 20.7505 61.0458 18.2785C59.1228 15.3665 57.6618 10.5405 53.7018 9.89646C48.2028 8.99246 40.4538 15.0595 35.4168 11.7805C33.7918 10.7235 32.7158 9.58846 32.0818 8.40646C32.3808 7.88746 32.7168 7.37746 33.0618 6.89746C33.9178 9.90646 36.7058 11.9635 40.9828 10.8005C43.2728 10.1845 45.5018 9.20446 47.8278 8.72346C50.8858 8.08846 54.6238 7.63747 57.1808 9.91547C60.8538 13.1735 62.1038 18.2295 65.9098 21.5265C67.3908 22.8155 69.1688 23.7575 70.2748 25.4015C71.5998 27.3825 71.3318 30.2275 72.8118 32.3525C75.0038 35.4955 77.3388 38.6195 76.5118 42.7055C75.8688 45.8975 74.8408 49.2045 73.7638 52.2805Z" fill="#D8744C"/>
</svg>
