<svg width="121" height="130" viewBox="0 0 121 130" fill="none" xmlns="http://www.w3.org/2000/svg">
<path d="M120.89 129.209H0C0.212 127.063 1.31 119.63 6.744 110.118C13.208 98.8021 42.004 100.413 42.975 98.8022C43.392 98.1032 43.635 95.2591 43.781 92.2701C43.946 88.3871 43.946 84.2441 43.946 84.2441L60.445 89.1061L76.944 84.2441C76.944 84.2441 76.944 88.3411 77.109 92.2031C77.255 95.2111 77.488 98.0951 77.915 98.8031C78.886 100.414 107.682 98.8031 114.146 110.119C119.58 119.629 120.678 127.063 120.89 129.209Z" fill="#CD8B6D"/>
<path d="M120.89 129.209H0C0.212 127.063 1.31 119.63 6.744 110.118C12.208 100.548 33.648 100.218 40.723 99.3737C42.013 99.2187 42.829 99.0538 42.975 98.8018C42.975 98.8018 60.124 121.124 77.915 98.8018C78.08 99.0828 79.1 99.2677 80.701 99.4427C88.262 100.249 108.808 100.782 114.146 110.119C119.58 119.629 120.678 127.063 120.89 129.209Z" fill="#006986"/>
<path d="M80.7006 99.4417C66.6576 118.911 49.9936 108.245 40.7236 99.3737C42.0136 99.2187 42.8296 99.0538 42.9756 98.8018C42.9756 98.8018 60.1246 121.124 77.9156 98.8018C78.0796 99.0828 79.0996 99.2667 80.7006 99.4417Z" fill="#6EBCCE"/>
<path d="M32.204 50.5646C32.204 50.5646 24.557 37.6436 21.394 48.7196C18.228 59.7936 25.875 65.0676 30.885 64.0136C35.895 62.9586 32.204 50.5646 32.204 50.5646Z" fill="#CD8B6D"/>
<path d="M31.2811 52.6741C31.2811 52.6741 26.0081 44.5001 24.1621 47.7961C22.3171 51.0931 22.8441 55.3111 22.8441 55.3111C22.8441 55.3111 23.8991 50.6971 27.3261 53.3331C27.3261 53.3331 24.0321 60.7161 30.7551 58.6091C30.7551 58.6091 33.5231 56.3661 31.2811 52.6741Z" fill="#B66C50"/>
<path d="M87.1159 50.5646C87.1159 50.5646 94.7629 37.6456 97.9269 48.7196C101.091 59.7946 93.4439 65.0676 88.4339 64.0136C83.4239 62.9586 87.1159 50.5646 87.1159 50.5646Z" fill="#CD8B6D"/>
<path d="M87.2246 53.5343C87.2246 53.5343 92.4976 45.3593 94.3446 48.6553C96.1906 51.9523 95.6626 56.1693 95.6626 56.1693C95.6626 56.1693 94.6076 51.5563 91.1796 54.1923C91.1796 54.1923 94.4746 61.5763 87.7516 59.4673C87.7516 59.4673 84.9826 57.2263 87.2246 53.5343Z" fill="#B66C50"/>
<path d="M87.264 71.6546C86.692 81.1576 75.86 88.1846 68.775 91.3296C61.691 94.4836 55.79 92.9106 55.79 92.9106C29.022 85.0396 29.808 66.9296 30.992 61.8146C32.177 56.6986 30.546 46.8586 33.691 35.0566C34.118 33.4556 34.729 32.0086 35.477 30.7076C40.272 22.3426 50.453 19.6526 50.453 19.6526C68.145 8.22963 80.53 19.4596 84.605 28.6896C84.887 29.3116 85.13 29.9216 85.323 30.5246C88.477 39.9676 87.915 60.9996 87.264 71.6546Z" fill="#E8B299"/>
<path d="M31.6534 23.0956C31.3294 24.0656 30.2624 43.7526 31.2814 52.6736L40.7104 27.9486L31.6534 23.0956Z" fill="#92561A"/>
<path d="M82.7684 25.0406C82.7684 25.0406 72.8974 29.0296 56.0294 32.7756C54.3114 33.1536 52.5254 33.5326 50.6624 33.9106C48.1194 34.4156 45.4504 34.9096 42.6554 35.3866C31.5714 37.2596 26.5154 34.0086 24.3114 29.8246C24.1274 29.4846 23.9624 29.1356 23.8264 28.7856C21.7604 23.7586 23.2444 17.9156 23.2444 17.9156C23.8264 19.1486 25.1074 19.2656 26.9424 18.6146C27.2624 18.5086 27.6124 18.3716 27.9704 18.2066C34.5994 15.2856 46.8664 5.06562 59.4744 0.775617C61.2114 0.183617 62.8324 -0.0493964 64.3554 0.00860358C65.1614 0.0376036 65.9384 0.144612 66.6854 0.339612C69.1704 0.950612 71.3254 2.36762 73.1794 4.22162C73.4514 4.50262 73.7124 4.78461 73.9744 5.0756C75.5764 6.8716 76.9264 8.99661 78.0524 11.1606C78.3724 11.7716 78.6724 12.3936 78.9544 13.0046C81.6234 18.8096 82.7684 24.4776 82.7684 25.0406Z" fill="#A16929"/>
<path d="M73.9744 5.07561C71.5484 7.82261 69.0744 10.5306 66.3744 13.1026C58.9114 20.2066 50.2544 26.3696 40.1804 29.0776C35.1524 30.4166 29.3394 31.2516 24.3114 29.8246C24.1274 29.4846 23.9624 29.1356 23.8264 28.7856C24.2534 28.9116 24.6904 29.0186 25.1574 29.1156C34.1444 30.9596 44.1984 27.6886 51.9054 23.0976C60.1844 18.1576 67.0744 11.6166 73.1794 4.22061C73.4514 4.50361 73.7124 4.78461 73.9744 5.07561Z" fill="#C98643"/>
<path d="M66.6854 0.339615C62.1244 7.84161 56.1364 14.4606 49.1964 18.7506C43.5574 22.2346 37.2484 23.5356 30.8434 21.4096C29.0964 20.8276 27.8354 19.8466 26.9424 18.6146C27.2624 18.5086 27.6124 18.3716 27.9704 18.2066C28.5234 18.8286 29.2224 19.3516 30.0764 19.7406C33.3384 21.2356 37.2484 21.6236 40.7634 20.7696C46.8484 19.2946 52.1374 15.2276 56.3794 10.7246C59.5334 7.38661 62.1154 3.78561 64.3564 0.00961304C65.1624 0.038613 65.9394 0.145615 66.6854 0.339615Z" fill="#C98643"/>
<path d="M78.9541 13.0052C74.4401 18.2942 69.3641 23.1092 64.3371 27.0202C61.6971 29.0672 58.9411 31.0772 56.0291 32.7752C54.3111 33.1532 52.5251 33.5322 50.6621 33.9102C56.2141 31.4842 61.2321 27.9611 65.7741 23.9521C70.2101 20.0311 74.3351 15.7612 78.0521 11.1602C78.3721 11.7722 78.6711 12.3942 78.9541 13.0052Z" fill="#C98643"/>
<path d="M90.684 33.8523C90.608 34.5923 90.523 35.3323 90.437 36.0533C89.814 41.0723 88.883 45.5163 88.288 48.0773C88.132 48.7423 88.001 49.2803 87.906 49.6713L87.907 49.6813C87.793 50.1413 87.723 50.3953 87.723 50.3953L87.541 49.1383C87.53 49.0803 87.528 49.0223 87.516 48.9653C87.105 45.8113 85.561 41.7483 83.577 37.6013C78.874 27.6783 71.737 17.2223 71.737 17.2223C70.39 12.2513 73.966 9.99325 76.88 8.99525C77.408 8.80525 77.919 8.67425 78.372 8.56425C79.453 8.30925 80.217 8.23926 80.217 8.23926C80.761 8.24326 81.277 8.27627 81.774 8.35027C82.35 8.44027 82.887 8.56126 83.396 8.74026C91.121 11.2943 91.732 23.3553 90.684 33.8523Z" fill="#92561A"/>
<path d="M88.2881 48.0782C88.1321 48.7432 88.0011 49.2812 87.9061 49.6722C87.7741 49.4332 87.6411 49.2042 87.5161 48.9652C85.5491 45.3512 84.2431 41.4473 83.7301 38.4902C83.6821 38.1903 83.6251 37.9002 83.5771 37.6012C81.9371 27.5212 81.9441 17.2872 76.8801 8.99625C77.4081 8.80625 77.9191 8.67525 78.3721 8.56525C79.0771 9.76825 79.6021 10.8112 79.8511 11.3862C81.7881 15.8852 82.7401 20.6633 83.3361 25.5013C84.1511 32.2263 84.2401 39.3592 87.0511 45.6382C87.4151 46.4432 87.8271 47.2652 88.2881 48.0782Z" fill="#B56E2D"/>
<path d="M90.6844 33.8526C90.6084 34.5926 90.5234 35.3326 90.4374 36.0536C86.0204 29.0156 83.7174 16.8276 81.7744 8.34961C82.3504 8.43961 82.8874 8.56061 83.3964 8.73961C84.7354 13.7596 85.4424 19.1086 86.8504 23.8256C87.8384 27.0996 88.8964 30.7686 90.6844 33.8526Z" fill="#B56E2D"/>
<path d="M42.8293 41.4922C39.7873 43.3382 38.0383 47.8502 39.8063 50.7592C39.8923 50.9012 40.1963 50.8432 40.1743 50.6762C39.8193 48.0892 40.8623 45.2862 42.8203 43.3172C44.0313 42.0992 45.7033 41.5852 47.5233 41.4602C49.5113 41.3222 50.4103 43.1142 51.9743 43.7292C52.3003 43.8562 52.7083 43.6492 52.6003 43.3192C51.3803 39.5712 45.8963 39.6332 42.8293 41.4922Z" fill="#390A0A"/>
<path d="M53.4142 49.8945C53.4142 54.7485 50.4352 58.6805 46.7602 58.6805C43.0872 58.6805 40.1072 54.7475 40.1072 49.8945C40.1072 45.0415 43.0872 41.1055 46.7602 41.1055C50.4352 41.1055 53.4142 45.0415 53.4142 49.8945Z" fill="white"/>
<path d="M52.0018 50.1817C52.0018 53.7947 49.7328 56.7257 46.9358 56.7257C44.1398 56.7257 41.8718 53.7947 41.8718 50.1817C41.8718 46.5687 44.1398 43.6377 46.9358 43.6377C49.7328 43.6377 52.0018 46.5687 52.0018 50.1817Z" fill="#3D79CA"/>
<path d="M51.1993 50.2583C51.1993 53.3073 49.3403 55.7783 47.0463 55.7783C44.7543 55.7783 42.8953 53.3073 42.8953 50.2583C42.8953 47.2113 44.7543 44.7393 47.0463 44.7393C49.3403 44.7393 51.1993 47.2113 51.1993 50.2583Z" fill="#390A0A"/>
<path d="M52.0015 45.502C52.0015 46.103 50.8275 46.589 49.3795 46.589C47.9335 46.589 46.7595 46.104 46.7595 45.502C46.7595 44.901 47.9335 44.417 49.3795 44.417C50.8275 44.418 52.0015 44.901 52.0015 45.502Z" fill="white"/>
<path d="M76.6261 41.4922C79.6681 43.3382 81.4181 47.8502 79.6491 50.7592C79.5631 50.9012 79.2591 50.8432 79.2811 50.6762C79.6361 48.0892 78.5931 45.2862 76.6351 43.3172C75.4241 42.0992 73.7521 41.5852 71.9321 41.4602C69.9441 41.3222 69.0451 43.1142 67.4811 43.7292C67.1551 43.8562 66.7471 43.6492 66.8551 43.3192C68.0751 39.5712 73.5591 39.6332 76.6261 41.4922Z" fill="#390A0A"/>
<path d="M78.8712 49.8945C78.8712 54.7485 75.8922 58.6805 72.2172 58.6805C68.5442 58.6805 65.5642 54.7475 65.5642 49.8945C65.5642 45.0415 68.5442 41.1055 72.2172 41.1055C75.8922 41.1055 78.8712 45.0415 78.8712 49.8945Z" fill="white"/>
<path d="M77.4579 50.1817C77.4579 53.7947 75.1889 56.7257 72.3919 56.7257C69.5959 56.7257 67.3279 53.7947 67.3279 50.1817C67.3279 46.5687 69.5959 43.6377 72.3919 43.6377C75.1889 43.6377 77.4579 46.5687 77.4579 50.1817Z" fill="#3D79CA"/>
<path d="M76.6553 50.2583C76.6553 53.3073 74.7953 55.7783 72.5023 55.7783C70.2103 55.7783 68.3513 53.3073 68.3513 50.2583C68.3513 47.2113 70.2103 44.7393 72.5023 44.7393C74.7953 44.7393 76.6553 47.2113 76.6553 50.2583Z" fill="#390A0A"/>
<path d="M77.4576 45.502C77.4576 46.103 76.2836 46.589 74.8356 46.589C73.3886 46.589 72.2156 46.104 72.2156 45.502C72.2156 44.901 73.3886 44.417 74.8356 44.417C76.2836 44.418 77.4576 44.901 77.4576 45.502Z" fill="white"/>
<path d="M59.5383 45.6558C59.5383 45.6558 57.5713 43.6898 57.1773 50.7718C56.7833 57.8548 57.1773 65.3319 57.1773 65.3319C57.1773 65.3319 52.4543 62.5768 54.0293 66.5128C54.8793 68.6399 56.8793 69.7239 58.9913 70.2889C60.8333 70.7809 62.1833 70.1578 63.3923 68.9798C63.9513 68.4338 66.8713 65.4749 65.9513 64.5519C65.5103 64.1089 62.9473 65.1678 62.2933 65.3308C62.2933 65.3328 63.0803 44.0818 59.5383 45.6558Z" fill="#CD8B6D"/>
<path d="M71.3599 74.4816C71.3599 74.4816 62.0849 90.3786 49.2869 75.0846C49.2869 75.0846 56.7439 72.5626 59.4749 74.8066L60.4769 75.9386C60.4769 75.9386 63.2919 72.3846 71.3599 74.4816Z" fill="#B66C50"/>
<path d="M71.3599 74.4816C71.3599 74.4816 62.0849 90.3786 49.2869 75.0846C49.2869 75.0846 61.8229 80.8266 71.3599 74.4816Z" fill="#CD8B6D"/>
<path d="M55.5919 37.4922C55.5919 40.0832 51.1019 38.6242 45.5639 38.6242C40.0249 38.6242 35.5349 40.0822 35.5349 37.4922C35.5349 34.9022 40.0249 29.2432 45.5639 29.2432C51.1019 29.2422 55.5919 34.9012 55.5919 37.4922Z" fill="#6D3A12"/>
<path d="M82.768 37.4922C82.768 40.0832 78.277 38.6242 72.739 38.6242C67.2 38.6242 62.71 40.0822 62.71 37.4922C62.71 34.9022 67.2 29.2432 72.739 29.2432C78.277 29.2422 82.768 34.9012 82.768 37.4922Z" fill="#6D3A12"/>
</svg>
