<svg width="87" height="119" viewBox="0 0 87 119" fill="none" xmlns="http://www.w3.org/2000/svg">
<path d="M73.4557 117.015C73.4557 117.015 43.2857 119.815 14.6367 116.794C14.6367 116.794 16.8657 108.454 23.3467 101.895C24.4467 100.775 25.6767 99.7052 27.0357 98.7452C29.1457 97.2562 31.5757 96.0162 34.3657 95.1952C35.6557 94.8252 37.0257 94.5352 38.4757 94.3652C39.5357 94.2452 40.6357 94.1762 41.7857 94.1762L45.4457 94.3852C45.4457 94.3852 46.6457 94.1462 48.5557 94.1352C50.2657 94.1252 52.5557 94.3052 55.0557 95.0062C57.6057 95.7152 60.3747 96.9652 63.0157 99.1062C63.5957 99.5762 64.1757 100.096 64.7357 100.667C64.7857 100.706 64.8257 100.746 64.8757 100.796C67.0357 102.986 69.0357 105.876 70.6557 109.687L73.4557 117.015Z" fill="#909C4C"/>
<path d="M55.6357 101.714C57.3957 103.645 55.2757 107.954 53.2447 108.864C50.2047 110.244 47.4847 107.874 45.8747 105.544C44.5247 106.494 43.9657 108.804 42.5847 110.034C40.6947 111.694 38.0447 111.794 35.8647 110.574C32.3857 108.624 33.1147 104.194 35.3947 101.723C32.0747 101.814 25.9147 106.184 23.3447 101.894C24.4447 100.774 25.6747 99.7042 27.0337 98.7442C29.1437 97.2552 31.5737 96.0152 34.3637 95.1942C35.6537 94.8242 37.0237 94.5342 38.4737 94.3642C39.5337 94.2442 40.6337 94.1752 41.7837 94.1752L45.4437 94.3842C45.4437 94.3842 46.6437 94.1452 48.5537 94.1342C50.2637 94.1242 52.5537 94.3042 55.0537 95.0052C57.6037 95.7142 60.3727 96.9642 63.0137 99.1052C63.5937 99.5752 64.1737 100.095 64.7337 100.666C62.4257 103.124 57.9357 104.145 55.6357 101.714Z" fill="white"/>
<path d="M49.8857 99.0848C45.7357 102.534 37.0957 99.0848 37.0957 99.0848C37.8157 97.6538 38.2447 96.0338 38.4757 94.3638C38.5047 94.2138 38.5257 94.0638 38.5357 93.9148C39.3157 87.6138 37.4457 80.7648 37.4457 80.7648L48.5057 80.4248C47.1867 84.7548 47.7167 89.9048 48.4667 93.6948C48.4957 93.8448 48.5267 93.9948 48.5567 94.1338C49.1657 97.0648 49.8857 99.0848 49.8857 99.0848Z" fill="#CD8B6D"/>
<path d="M55.0552 95.0052C43.5952 114.095 36.2042 99.6142 34.3652 95.1942C35.6552 94.8242 37.0252 94.5342 38.4752 94.3642C38.5042 94.2142 38.5252 94.0642 38.5352 93.9152L48.4662 93.6942C48.4952 93.8442 48.5262 93.9942 48.5562 94.1332C50.2652 94.1242 52.5552 94.3042 55.0552 95.0052Z" fill="#CD8B6D"/>
<path d="M18.0176 48.091C18.0176 48.091 9.52659 40.661 7.79559 49.133C6.06659 57.604 17.4746 60.413 17.4746 60.413L18.0176 48.091Z" fill="#CD8B6D"/>
<path d="M17.2235 51.0883C17.2235 51.0883 12.6845 45.3303 11.5355 47.9353C10.3855 50.5393 11.0815 53.6663 11.0815 53.6663C11.0815 53.6663 11.5445 50.1293 14.3035 51.8633C14.3035 51.8633 12.3585 57.6383 17.2515 55.5753C17.2515 55.5753 19.1695 53.6983 17.2235 51.0883Z" fill="#B66C50"/>
<path d="M68.0305 48.091C68.0305 48.091 76.5215 40.661 78.2525 49.133C79.9825 57.604 68.5735 60.413 68.5735 60.413L68.0305 48.091Z" fill="#CD8B6D"/>
<path d="M68.8246 51.0883C68.8246 51.0883 73.3636 45.3303 74.5136 47.9353C75.6626 50.5393 74.9666 53.6663 74.9666 53.6663C74.9666 53.6663 74.5036 50.1293 71.7446 51.8633C71.7446 51.8633 73.6906 57.6383 68.7966 55.5753C68.7966 55.5753 66.8786 53.6983 68.8246 51.0883Z" fill="#B66C50"/>
<path d="M70.8922 46.3452C70.7962 47.3262 70.6652 48.3152 70.5342 49.3142C69.6842 55.6442 68.6692 61.9673 67.0932 68.1673C64.1252 79.8493 49.6672 85.5942 44.5192 85.1992C17.9772 81.6352 16.5932 63.4132 16.7872 61.4332C17.1012 58.3332 16.5592 54.9712 16.3582 51.8792C16.2522 50.2332 16.0062 48.5422 15.7702 46.8532C15.3842 43.9802 15.0352 41.0742 15.4822 38.2722C15.4992 38.1392 15.5262 38.0082 15.5522 37.8692C16.0412 35.0512 16.9532 32.1343 18.0302 29.5072C21.4012 21.3123 28.2062 12.1342 37.9332 11.9492C40.2102 11.9062 42.5222 12.3012 44.7722 12.9912C48.0212 13.9712 51.1562 15.5402 53.9062 17.1952C60.0272 20.8992 66.1392 25.1092 69.1952 31.8452C71.3392 36.5902 71.4002 41.3802 70.8922 46.3452Z" fill="#E8B299"/>
<path d="M27.7943 20.7849L25.9753 24.0649C13.9453 40.1239 -2.64373 24.1449 0.356272 12.0949V12.0849C0.356272 11.2139 0.876274 10.3639 1.32527 9.54387C1.93527 8.43487 2.73028 7.39488 3.78028 6.45388C4.04128 6.20388 4.30827 5.97388 4.60827 5.74388C5.26827 5.24388 6.00127 4.76487 6.82127 4.33487C6.84227 4.32387 6.84827 4.31388 6.86827 4.31388C7.67927 3.89388 8.57627 3.53388 9.54628 3.26388C14.9773 1.70388 22.4473 2.50388 25.8273 6.70288C29.1263 10.8039 28.0253 16.0849 27.7943 20.7849Z" fill="#92561A"/>
<path d="M19.6852 25.7649C12.7452 29.7439 5.8462 24.2849 2.4852 18.1549C1.7862 16.8839 1.3562 14.5749 0.356201 12.0949V12.0849C0.356201 11.2139 0.876203 10.3639 1.3252 9.54387C1.4052 10.9439 1.6002 12.2239 1.8202 12.9249C2.5202 15.2549 3.6482 17.4849 5.1182 19.4349C8.9082 24.4449 13.2222 26.1949 19.4012 25.0949C19.8012 25.0249 20.0652 25.5439 19.6852 25.7649Z" fill="#B5894B"/>
<path d="M23.7349 18.1051C15.7349 22.6051 7.29488 13.7051 3.75488 6.45512C4.01588 6.20512 4.29488 5.97512 4.59588 5.74512C6.08488 8.58612 8.05588 11.2851 10.4759 13.2951C14.6649 16.7661 18.3159 17.0661 23.4959 17.2151C23.9549 17.2351 24.1649 17.8651 23.7349 18.1051Z" fill="#B5894B"/>
<path d="M25.9852 15.6339C22.6552 13.7139 20.2652 10.5249 17.1052 8.33487C13.8342 6.06387 10.5252 4.91487 6.86523 4.31387C7.67623 3.89387 8.57523 3.53387 9.54523 3.26387C16.2662 4.72287 22.4852 9.72287 26.6062 14.8339C26.9552 15.2649 26.5152 15.9349 25.9852 15.6339Z" fill="#B5894B"/>
<path d="M86.8053 16.9152C86.6643 20.4252 85.5843 23.8452 83.4353 26.4352C78.3853 32.5052 64.0553 33.2943 61.0443 24.5352L60.5743 23.1252C52.2443 12.2252 66.0743 -3.17475 77.3043 0.575247C77.9843 0.795247 78.6543 1.09625 79.3143 1.47425C80.4643 2.12425 81.5643 3.00524 82.5833 4.14524C82.9933 4.60524 83.3843 5.09525 83.7333 5.62425C84.1633 6.23425 84.5433 6.89525 84.8733 7.58525C85.7933 9.45424 86.4033 11.5442 86.6533 13.6942C86.8053 14.7552 86.8453 15.8352 86.8053 16.9152Z" fill="#92561A"/>
<path d="M79.3157 1.47422C78.8857 1.59522 78.4557 1.74522 78.0257 1.91522C73.5457 3.76522 67.6657 7.82421 66.3257 12.7842C66.2057 13.2232 65.5957 13.0342 65.6657 12.6042C66.4267 7.57421 71.9157 3.54322 76.0457 1.18422C76.4457 0.954216 76.8657 0.754219 77.3067 0.574219C77.9857 0.794219 78.6557 1.09522 79.3157 1.47422Z" fill="#B5894B"/>
<path d="M84.8752 7.58524C82.8062 9.39524 80.4552 11.0342 78.4662 12.6652C75.5052 15.0952 72.4862 17.0442 68.9662 18.5742C68.4552 18.8032 67.9952 18.0442 68.5262 17.8142C72.5262 15.9942 75.6662 12.8742 78.8762 9.95424C80.3762 8.59524 81.9672 6.89424 83.7362 5.62424C84.1652 6.23524 84.5442 6.89524 84.8752 7.58524Z" fill="#B5894B"/>
<path d="M86.8058 16.9153C81.9858 21.6853 74.9058 24.7443 68.7448 24.7143C68.4448 24.7143 68.3548 24.2243 68.6758 24.1853C73.1148 23.5253 77.8858 20.8353 81.5758 18.2753C83.5658 16.8843 85.2168 15.4453 86.6558 13.6953C86.8058 14.7553 86.8458 15.8353 86.8058 16.9153Z" fill="#B5894B"/>
<path d="M75.0756 42.3657C74.9756 42.8047 69.9856 43.0757 62.8156 43.2247C62.2256 43.2457 61.6256 43.2557 61.0046 43.2757C57.4656 43.3367 53.4846 43.3757 49.3646 43.3957C49.1356 41.0857 48.7546 38.7857 48.6146 36.7247C48.3946 33.5257 47.8146 30.1057 47.9246 26.9057C47.1636 29.3047 47.0946 32.1957 46.7836 34.6957C46.4136 37.6157 45.9646 40.5157 45.4436 43.4057C44.7636 43.4057 44.0836 43.4167 43.3936 43.4057C42.6936 43.4167 41.9936 43.4167 41.2926 43.4167C39.4926 43.4167 37.7026 43.4167 35.9336 43.4057C35.4836 43.4167 35.0336 43.4167 34.5826 43.4057C31.0826 43.4057 27.7136 43.3847 24.6836 43.3657C24.7136 41.3657 24.8326 39.3757 24.9036 37.5157C25.0036 34.9547 24.5536 31.2657 25.7636 28.9157C22.9126 32.9447 21.5426 38.3247 20.4836 43.3457C19.2836 43.3357 18.1736 43.3247 17.1736 43.3247C16.6126 43.3147 16.0826 43.3147 15.5936 43.3037C12.6836 43.2837 10.9336 43.2647 10.9336 43.2647C11.0826 34.1947 12.3136 22.7237 17.7236 15.1147C20.9936 10.5057 26.0736 6.73468 31.3326 4.71468C34.1436 3.64568 37.2136 2.84569 40.2826 2.50569C41.4326 2.36469 42.5826 2.30469 43.7226 2.30469C45.2126 2.30469 46.6616 2.42569 48.0726 2.69569C56.2026 4.20569 63.5326 5.39569 68.9326 12.8157C71.8756 16.8557 77.0756 33.3657 75.0756 42.3657Z" fill="#B5894B"/>
<path d="M62.8155 43.2247C62.2255 43.2457 61.6255 43.2557 61.0045 43.2757C60.7845 36.8047 60.7255 30.3157 58.9445 24.0257C56.5345 15.5547 51.0045 7.75569 43.3245 3.37569C42.3645 6.48569 42.3145 11.1767 42.1945 13.4857C41.9845 17.3367 41.7445 21.2147 41.7155 25.0867C41.6755 31.2857 42.6945 37.3257 43.3955 43.4057C42.6955 43.4167 41.9955 43.4167 41.2945 43.4167C39.8955 35.5257 40.4045 26.9267 40.7445 19.2667C40.9545 14.7257 41.3745 10.2767 41.8945 5.76669C42.0145 4.70569 42.1145 3.61668 42.4345 2.63568C36.7745 8.69668 35.7935 18.6257 35.6045 26.5067C35.4845 31.3567 35.3745 36.3057 35.7145 41.1467C35.7645 41.9067 35.8335 42.6567 35.9345 43.4067C35.4845 43.4177 35.0345 43.4177 34.5835 43.4067C34.5235 42.6467 34.4935 41.8857 34.4645 41.1467C34.2345 35.1357 33.9245 28.7667 34.7245 22.7867C35.6635 15.7467 36.5835 8.17769 41.5145 2.84769C33.7645 6.93769 26.7535 14.3867 23.0835 21.4767C19.3635 28.6877 18.0235 35.8277 17.1745 43.3277C16.6135 43.3177 16.0835 43.3177 15.5945 43.3067C16.2935 34.3867 19.2745 25.2167 23.8945 18.1077C26.9645 13.3977 30.8545 9.52769 35.3335 6.14769C36.8635 4.99769 38.5145 3.66869 40.2835 2.50769C41.4335 2.36669 42.5835 2.30669 43.7235 2.30669C43.6935 2.36769 43.6625 2.43769 43.6335 2.50769C50.6835 5.27769 56.8835 13.3977 59.2135 20.3767C61.5155 27.2757 62.7355 35.4357 62.8155 43.2247Z" fill="#DEA864"/>
<path d="M56.7065 64.4042C55.8105 64.1392 54.9535 64.1612 54.0385 64.2682C53.6275 64.3162 53.4405 64.9912 53.9315 65.0622C54.4125 65.1302 54.8935 65.2592 55.3675 65.4022C54.4135 67.3612 51.1665 66.9702 51.1665 66.9702C41.6845 64.6712 36.2255 66.9702 33.6395 67.5442C32.2485 67.8552 31.4515 67.8282 31.0015 67.7412C31.4665 67.5122 31.8855 67.2352 32.1605 66.8262C32.2875 66.6372 32.1165 66.4102 31.9155 66.3992C30.7045 66.3362 29.5285 67.4902 28.5965 68.1332C28.2655 68.3622 28.5645 68.8972 28.9165 68.6802C29.4425 68.3542 30.1235 68.1362 30.7515 67.8582C46.1205 85.7562 55.5125 68.2072 55.8885 65.5612C55.9625 65.5842 56.0375 65.6092 56.1115 65.6302C56.7565 65.8332 57.4885 66.4182 58.1745 66.2302C58.3455 66.1822 58.5005 66.0062 58.4855 65.8212C58.4155 64.9712 57.4245 64.6162 56.7065 64.4042Z" fill="#A22D40"/>
<path d="M35.9375 69.8429C35.9375 69.8429 41.1085 68.4059 45.9935 68.9819C45.9935 68.9819 49.7285 69.5549 51.1655 68.9819C51.1655 68.9819 43.1205 77.0249 35.9375 69.8429Z" fill="white"/>
<path d="M38.3952 41.824C34.1092 39.989 21.9012 39.136 21.0362 45.608C20.9362 46.355 21.9462 46.406 22.2912 45.948C24.4452 43.077 27.5212 42.853 30.8992 42.919C33.1942 42.963 36.0522 43.746 38.2552 42.894C38.6642 42.737 38.9162 42.047 38.3952 41.824Z" fill="#92561A"/>
<path d="M48.4847 41.824C52.7707 39.989 64.9787 39.136 65.8437 45.608C65.9437 46.355 64.9337 46.406 64.5887 45.948C62.4347 43.077 59.3587 42.853 55.9807 42.919C53.6857 42.963 50.8287 43.746 48.6247 42.894C48.2167 42.737 47.9637 42.047 48.4847 41.824Z" fill="#92561A"/>
<path d="M50.2048 51.3037C50.2048 54.8987 53.1628 57.8117 56.8128 57.8117C60.4618 57.8117 63.4198 54.8987 63.4198 51.3037C63.4198 47.7097 60.4618 44.7967 56.8128 44.7967C53.1628 44.7967 50.2048 47.7107 50.2048 51.3037Z" fill="white"/>
<path d="M60.8479 51.5457C60.8479 54.4717 58.9979 56.8437 56.7179 56.8437C54.4359 56.8437 52.5879 54.4717 52.5879 51.5457C52.5879 48.6207 54.4359 46.2487 56.7179 46.2487C58.9989 46.2487 60.8479 48.6217 60.8479 51.5457Z" fill="#95BCD1"/>
<path d="M59.6532 51.5459C59.6532 53.6239 58.3402 55.3119 56.7182 55.3119C55.0962 55.3119 53.7832 53.6239 53.7832 51.5459C53.7832 49.4669 55.0962 47.7809 56.7182 47.7809C58.3392 47.7819 59.6532 49.4669 59.6532 51.5459Z" fill="#141E62"/>
<path d="M59.8386 47.9836C59.8386 48.5486 59.1596 49.0076 58.3236 49.0076C57.4866 49.0076 56.8086 48.5486 56.8086 47.9836C56.8086 47.4186 57.4866 46.9586 58.3236 46.9586C59.1606 46.9576 59.8386 47.4186 59.8386 47.9836Z" fill="white"/>
<path d="M52.2205 46.2783C52.0545 46.5373 52.2695 46.9243 52.5805 46.9073C54.4975 46.7963 56.1005 46.2513 58.0595 46.6793C59.9375 47.0893 62.6265 48.1663 63.1615 50.2383C63.2415 50.5473 63.6555 50.4513 63.6855 50.1673C64.1815 45.2763 54.7505 42.3313 52.2205 46.2783Z" fill="#141E62"/>
<path d="M23.8826 51.3027C23.8826 54.8977 26.8406 57.8107 30.4896 57.8107C34.1396 57.8107 37.0976 54.8977 37.0976 51.3027C37.0976 47.7087 34.1396 44.7957 30.4896 44.7957C26.8406 44.7957 23.8826 47.7097 23.8826 51.3027Z" fill="white"/>
<path d="M34.5256 51.5447C34.5256 54.4707 32.6766 56.8427 30.3966 56.8427C28.1146 56.8427 26.2656 54.4707 26.2656 51.5447C26.2656 48.6197 28.1146 46.2477 30.3966 46.2477C32.6766 46.2477 34.5256 48.6207 34.5256 51.5447Z" fill="#95BCD1"/>
<path d="M33.3319 51.5449C33.3319 53.6229 32.0189 55.3109 30.3969 55.3109C28.7739 55.3109 27.4609 53.6229 27.4609 51.5449C27.4609 49.4659 28.7739 47.7799 30.3969 47.7799C32.0179 47.7809 33.3319 49.4659 33.3319 51.5449Z" fill="#141E62"/>
<path d="M33.5173 47.9827C33.5173 48.5477 32.8383 49.0067 32.0023 49.0067C31.1653 49.0067 30.4873 48.5477 30.4873 47.9827C30.4873 47.4177 31.1653 46.9577 32.0023 46.9577C32.8383 46.9567 33.5173 47.4177 33.5173 47.9827Z" fill="white"/>
<path d="M35.0022 45.504C35.1682 45.763 34.9542 46.15 34.6422 46.132C32.7252 46.022 31.1232 45.477 29.1632 45.904C27.2842 46.313 24.5952 47.391 24.0592 49.463C23.9802 49.771 23.5652 49.677 23.5372 49.392C23.0412 44.502 32.4722 41.557 35.0022 45.504Z" fill="#141E62"/>
<path d="M45.2341 58.734C44.9441 58.236 44.8391 57.734 44.6251 57.102C44.3921 56.418 44.6451 48.689 42.6051 49.779C41.5301 50.353 41.9731 53.696 41.9121 54.736C41.8461 55.863 41.5701 56.788 41.2241 57.715C41.1221 57.989 40.4271 58.358 40.2041 58.573C39.8881 58.883 39.5811 59.213 39.3911 59.618C38.9501 60.555 39.0341 61.505 40.2541 61.343C40.3561 62.045 40.7631 62.643 41.7441 62.828C43.3091 63.125 43.9621 61.412 44.3241 60.191C43.9051 61.605 47.8541 61.826 45.5851 59.219C45.4421 59.054 45.3291 58.894 45.2341 58.734Z" fill="#CD8B6D"/>
<path d="M32.7547 59.4792C32.7547 60.6002 30.3027 61.5072 27.2787 61.5072C24.2537 61.5072 21.8027 60.6002 21.8027 59.4792C21.8027 58.3592 24.2537 57.4512 27.2787 57.4512C30.3027 57.4512 32.7547 58.3592 32.7547 59.4792Z" fill="#A22D40"/>
<path d="M65.2047 58.6686C65.2047 59.7896 62.7527 60.6966 59.7287 60.6966C56.7037 60.6966 54.2527 59.7896 54.2527 58.6686C54.2527 57.5486 56.7027 56.6406 59.7287 56.6406C62.7517 56.6406 65.2047 57.5486 65.2047 58.6686Z" fill="#A22D40"/>
</svg>
