<svg width="79" height="138" viewBox="0 0 79 138" fill="none" xmlns="http://www.w3.org/2000/svg">
<path d="M74.2103 130.319C74.2103 130.319 12.3893 144.412 6.55434 132.252C5.00634 129.031 10.9003 119.958 12.6113 117.699C15.8893 113.343 19.9073 110.853 24.3783 109.44C25.3393 109.133 26.3193 108.873 27.3193 108.662C31.0773 107.846 35.0873 107.624 39.2013 107.538C43.4693 107.461 47.9483 107.258 52.2363 107.883C53.6113 108.086 54.9753 108.373 56.3023 108.787C57.9743 109.287 59.5893 109.978 61.1283 110.931C68.0683 115.208 72.1443 122.61 74.2103 130.319Z" fill="#B5F4FF"/>
<path d="M56.3019 108.787C41.4979 133.29 29.433 118.323 24.377 109.44C25.338 109.133 26.3179 108.873 27.3179 108.662C31.0759 107.846 35.086 107.624 39.2 107.538C43.468 107.461 47.947 107.258 52.235 107.883C53.611 108.086 54.9749 108.373 56.3019 108.787Z" fill="#390A0A"/>
<path d="M32.1904 96.0774C32.1904 96.0774 34.1454 108.021 32.6254 111.713C32.6254 111.713 40.4434 115.406 45.4384 112.148C45.4384 112.148 43.9184 101.29 44.1364 95.8604L32.1904 96.0774Z" fill="#CD8B6D"/>
<path d="M52.2363 107.883C44.1713 127.965 33.2313 117.131 27.3193 108.662C31.0773 107.846 35.0873 107.624 39.2013 107.538C43.4683 107.461 47.9473 107.258 52.2363 107.883Z" fill="#CD8B6D"/>
<path d="M15.7737 63.002C14.1477 59.824 13.4087 54.787 10.0487 52.76C5.98073 50.298 2.88472 55.593 1.26372 58.634C-0.377277 61.712 -1.06526 67.202 3.29574 68.505C6.64774 69.509 14.0627 67.409 16.0627 64.452L15.7737 63.002Z" fill="#CD8B6D"/>
<path d="M12.2544 60.2081C12.2544 60.2081 7.15144 52.2961 5.36444 55.4851C3.57745 58.6771 4.08942 62.7571 4.08942 62.7571C4.08942 62.7571 5.11043 58.2941 8.42743 60.8451C8.42743 60.8451 5.23743 67.9901 11.7454 65.9501C11.7454 65.9501 14.4244 63.7801 12.2544 60.2081Z" fill="#B66C50"/>
<path d="M62.7946 63.002C64.4206 59.824 65.1597 54.787 68.5197 52.758C72.5887 50.298 75.6837 55.593 77.3047 58.634C78.9457 61.71 79.6347 67.201 75.2737 68.507C71.9217 69.507 64.5066 67.409 62.5046 64.45L62.7946 63.002Z" fill="#CD8B6D"/>
<path d="M66.3137 60.206C66.3137 60.206 71.4177 52.296 73.2047 55.484C74.9907 58.675 74.4797 62.757 74.4797 62.757C74.4797 62.757 73.4587 58.292 70.1417 60.845C70.1417 60.845 73.3317 67.99 66.8247 65.949C66.8247 65.949 64.1437 63.78 66.3137 60.206Z" fill="#B66C50"/>
<path d="M66.1652 56.291C66.0692 57.388 65.9442 58.4829 65.8102 59.5789C65.2612 64.1539 64.6482 68.721 63.8502 73.249C63.4262 75.671 62.9462 78.084 62.3972 80.477C59.4572 93.417 45.1142 99.78 40.0082 99.347C13.6682 95.396 12.3032 75.2079 12.4872 73.0179C12.4872 72.9889 12.4872 72.9689 12.4972 72.9409C12.7942 69.5179 12.2672 65.827 12.0632 62.424C11.9582 60.6069 11.7182 58.723 11.4872 56.858C11.3722 55.896 11.2652 54.935 11.1702 53.974C10.9592 51.734 10.8822 49.513 11.1992 47.351C11.2192 47.208 11.2472 47.053 11.2652 46.909C11.7562 43.775 12.6612 40.555 13.7272 37.641C17.0732 28.548 21.9652 16.109 31.6262 15.916C33.8752 15.858 38.0272 18.568 40.2482 19.339C43.4782 20.425 51.3422 19.443 54.0722 21.279C60.1372 25.375 61.4552 32.767 64.4822 40.237C65.4442 42.621 65.9822 44.995 66.2422 47.426C66.5502 50.332 66.4442 53.282 66.1652 56.291Z" fill="#E8B299"/>
<path d="M67.9236 52.8396C67.7406 53.5616 66.7336 53.3696 66.6846 52.6766C66.4166 48.1786 64.3966 44.3136 62.0506 40.5446C61.4646 39.5836 60.8586 38.6326 60.2436 37.6806C58.8586 35.5176 57.4936 33.3356 56.4456 31.0566C55.9456 29.9906 55.4176 28.9526 54.8696 27.9236C54.2356 26.7316 53.5916 25.5486 52.9946 24.3656C52.4276 23.2416 51.8986 22.1066 51.4566 20.9436C51.9186 24.6446 52.6406 28.2306 52.1586 32.0076C52.1096 32.4206 51.7446 32.8646 51.2746 32.6806C47.8336 31.4026 45.6216 27.7586 43.9386 24.6936C43.2666 23.4526 42.5266 22.1456 41.8626 20.7906C42.4206 24.6356 43.5926 28.6346 43.4216 32.4886C43.2956 35.1716 42.7576 35.5546 41.6806 35.3146C41.1816 35.2096 40.5466 34.9686 39.7856 34.7666C39.3926 34.6616 38.9506 34.5656 38.4786 34.5066C38.1616 34.4696 37.9126 34.2766 37.9026 33.9306C37.7766 29.4516 36.7016 25.1836 35.8066 20.8376C35.9986 25.6826 36.1916 30.5276 36.2196 35.3716C36.2196 35.7086 35.9306 35.9976 35.5946 35.9976C32.0376 35.9576 30.7786 32.9106 30.3656 29.7866C30.3456 29.6906 30.3356 29.6036 30.3256 29.5086C29.9416 31.1046 29.4716 32.8536 28.7496 34.3826C28.1836 35.5656 27.4616 36.6126 26.5206 37.3336C23.9916 39.2756 22.5406 36.5556 22.2226 34.2856C22.0506 33.0366 21.6746 30.7386 21.4536 28.3446C21.0796 30.1716 20.6856 31.9796 20.0506 33.6716C18.5796 37.5446 16.7906 41.2936 15.0626 45.0626C14.6966 45.8506 14.3316 46.6496 13.9746 47.4476C13.0326 49.5516 12.1296 51.6756 11.3306 53.8396C11.2066 54.1566 10.9566 54.3876 10.6006 54.3876C10.4366 54.3976 10.2836 54.3976 10.1196 54.3976C9.75462 54.3976 9.51464 54.1576 9.38964 53.8396C9.33164 53.6856 9.28462 53.5136 9.23662 53.3496C9.04462 53.3786 8.84163 53.3216 8.66963 53.1666C5.59363 50.3886 6.31462 44.5436 6.47862 40.8616C6.77562 34.2486 7.07463 27.5286 9.54463 21.2706C11.4576 16.4346 14.8026 10.4646 19.3686 6.79262C19.7236 6.49462 20.0986 6.21562 20.4736 5.95662C21.6176 5.16862 22.8286 4.52361 24.0976 4.07161C26.0396 2.29361 28.4716 1.1406 31.1636 0.534596C31.5366 0.447596 31.9126 0.380611 32.2976 0.312611C34.9796 -0.128389 37.8826 -0.0913874 40.8046 0.351613C41.1996 0.409613 41.6026 0.476622 42.0066 0.542622C45.1306 1.12962 48.2456 2.14762 51.1116 3.49462C51.5036 3.67662 51.8896 3.8606 52.2636 4.0526C54.9076 5.3986 57.2916 7.0226 59.2236 8.8106C59.6956 9.2526 60.1356 9.70561 60.5496 10.1566C61.3196 11.0036 61.9826 11.8786 62.5296 12.7816C66.8176 19.8756 68.7006 33.3626 68.2396 43.0346C68.6746 46.3226 68.7606 49.6476 67.9236 52.8396Z" fill="#A16929"/>
<path d="M17.2733 22.117C15.7943 29.904 14.7263 37.363 15.0633 45.063C14.6973 45.851 14.3323 46.65 13.9753 47.448C12.4763 39.103 14.6493 29.884 16.2453 21.838C17.2353 16.85 17.9283 11.668 19.3693 6.79401C19.7243 6.49601 20.0993 6.21701 20.4743 5.95801C18.9073 11.196 18.2823 16.82 17.2733 22.117Z" fill="#C98643"/>
<path d="M30.4336 15.2046C30.0866 20.0596 30.2706 24.9236 30.3676 29.7876C30.3476 29.6916 30.3376 29.6046 30.3276 29.5096C29.9436 31.1056 29.4736 32.8546 28.7516 34.3836C28.1176 26.8466 28.5026 19.0496 29.3766 11.6766C29.8106 8.03464 30.2316 4.19961 31.1656 0.535614C31.5386 0.448614 31.9146 0.381629 32.2996 0.313629C31.0686 5.21763 30.7616 10.5326 30.4336 15.2046Z" fill="#C98643"/>
<path d="M41.6803 35.3146C41.1813 35.2096 40.5463 34.9686 39.7853 34.7666C38.6803 28.7486 40.0163 22.1166 40.1333 16.1646C40.2293 10.8776 40.2383 5.58156 40.8053 0.351562C41.2003 0.409562 41.6033 0.476572 42.0073 0.542572C41.6523 5.72557 41.7673 10.9056 41.5943 16.1636C41.3723 22.7516 41.0463 28.9026 41.6803 35.3146Z" fill="#C98643"/>
<path d="M52.9943 24.3661C53.0233 20.8181 52.9663 17.2811 52.6193 13.7441C52.2933 10.3611 51.5433 6.92907 51.1113 3.49707C51.5033 3.67907 51.8893 3.86308 52.2633 4.05508C52.9753 8.56308 54.1764 13.1101 54.4554 17.4361C54.6664 20.8871 54.8293 24.4061 54.8683 27.9241C54.2363 26.7311 53.5913 25.5491 52.9943 24.3661Z" fill="#C98643"/>
<path d="M62.0506 40.5446C61.4646 39.5836 60.8586 38.6326 60.2436 37.6806C60.4446 34.2776 60.4166 30.8356 60.1276 27.2796C59.6286 21.1466 59.3196 14.9736 59.2246 8.81262C59.6966 9.25462 60.1366 9.70763 60.5506 10.1586C60.9456 16.8966 61.4546 23.6166 61.8676 30.3656C62.0706 33.6136 62.2236 37.0836 62.0506 40.5446Z" fill="#C98643"/>
<path d="M20.827 44.9067C17.459 46.9497 15.521 51.9477 17.479 55.1697C17.575 55.3277 17.911 55.2637 17.886 55.0777C17.491 52.2127 18.649 49.1077 20.815 46.9277C22.159 45.5797 24.01 45.0097 26.026 44.8717C28.228 44.7177 29.223 46.7027 30.955 47.3837C31.316 47.5257 31.768 47.2957 31.649 46.9297C30.3 42.7787 24.224 42.8467 20.827 44.9067Z" fill="#390A0A"/>
<path d="M32.5515 54.2125C32.5515 59.5885 29.2525 63.9445 25.1835 63.9445C21.1135 63.9445 17.8135 59.5875 17.8135 54.2125C17.8135 48.8375 21.1135 44.4785 25.1835 44.4785C29.2525 44.4775 32.5515 48.8375 32.5515 54.2125Z" fill="white"/>
<path d="M30.9875 54.5292C30.9875 58.5302 28.4756 61.7762 25.3776 61.7762C22.2806 61.7762 19.7686 58.5302 19.7686 54.5292C19.7686 50.5282 22.2816 47.2822 25.3776 47.2822C28.4756 47.2822 30.9875 50.5282 30.9875 54.5292Z" fill="#8C9334"/>
<path d="M30.0974 54.6149C30.0974 57.9929 28.0394 60.7289 25.4974 60.7289C22.9584 60.7289 20.8984 57.9929 20.8984 54.6149C20.8984 51.2399 22.9584 48.5029 25.4974 48.5029C28.0394 48.5029 30.0974 51.2399 30.0974 54.6149Z" fill="#390A0A"/>
<path d="M30.9876 49.3465C30.9876 50.0115 29.6876 50.5505 28.0856 50.5505C26.4836 50.5505 25.1846 50.0115 25.1846 49.3465C25.1846 48.6805 26.4846 48.1455 28.0856 48.1455C29.6876 48.1455 30.9876 48.6815 30.9876 49.3465Z" fill="white"/>
<path d="M55.4276 44.9067C58.7966 46.9497 60.7336 51.9477 58.7766 55.1697C58.6796 55.3277 58.3426 55.2637 58.3676 55.0777C58.7626 52.2127 57.6066 49.1077 55.4386 46.9277C54.0946 45.5797 52.2446 45.0097 50.2296 44.8717C48.0266 44.7177 47.0316 46.7027 45.2986 47.3837C44.9386 47.5257 44.4866 47.2957 44.6056 46.9297C45.9556 42.7787 52.0306 42.8467 55.4276 44.9067Z" fill="#390A0A"/>
<path d="M57.912 54.2127C57.912 59.5887 54.6131 63.9447 50.5441 63.9447C46.4751 63.9447 43.1741 59.5877 43.1741 54.2127C43.1741 48.8377 46.4751 44.4787 50.5441 44.4787C54.6131 44.4787 57.912 48.8377 57.912 54.2127Z" fill="white"/>
<path d="M56.3489 54.5294C56.3489 58.5304 53.8359 61.7764 50.7389 61.7764C47.6419 61.7764 45.1289 58.5304 45.1289 54.5294C45.1289 50.5284 47.6429 47.2824 50.7389 47.2824C53.8359 47.2824 56.3489 50.5284 56.3489 54.5294Z" fill="#8C9334"/>
<path d="M55.4578 54.6151C55.4578 57.9931 53.3988 60.7291 50.8578 60.7291C48.3208 60.7291 46.2598 57.9931 46.2598 54.6151C46.2598 51.2401 48.3198 48.5031 50.8578 48.5031C53.3998 48.5031 55.4578 51.2401 55.4578 54.6151Z" fill="#390A0A"/>
<path d="M56.3489 49.3467C56.3489 50.0117 55.0479 50.5507 53.4459 50.5507C51.8439 50.5507 50.5449 50.0117 50.5449 49.3467C50.5449 48.6807 51.8449 48.1457 53.4459 48.1457C55.0479 48.1457 56.3489 48.6817 56.3489 49.3467Z" fill="white"/>
<path d="M13.1575 42.9399C12.6835 43.2039 23.5975 28.6569 36.3415 40.9289C36.3415 40.9289 19.7085 39.2859 13.1575 42.9399Z" fill="#6D3A12"/>
<path d="M40.5335 42.4675C40.0585 42.7315 50.9735 28.1855 63.7175 40.4575C63.7175 40.4575 47.0845 38.8145 40.5335 42.4675Z" fill="#6D3A12"/>
<path d="M47.5679 67.2949C46.1059 66.3829 43.3519 66.0939 41.6849 67.0969C41.6809 66.3199 41.6669 65.5479 41.6039 64.7689C41.4919 63.3439 41.7589 60.2819 40.2719 59.4119C38.5589 58.4079 37.1709 61.2859 36.9009 62.4949C36.5519 64.0649 36.6849 65.7999 36.9219 67.4779C36.5899 67.2089 36.2249 67.0559 35.8179 66.8789C34.7299 66.4049 33.5649 65.8069 32.3219 66.2569C30.4579 66.9369 30.5179 67.9879 32.0709 69.1709C34.7389 71.2029 37.3909 73.0399 40.9259 72.4239C43.6879 71.9429 46.4879 70.8319 47.8049 68.1999C47.9699 67.8709 47.8879 67.4959 47.5679 67.2949Z" fill="#CD8B6D"/>
<path d="M25.9834 76.7084C25.9834 76.7084 43.7674 89.2054 57.2264 70.9404L25.9834 76.7084Z" fill="white"/>
<path d="M27.293 73.3463C26.225 73.7373 25.544 74.7233 24.877 75.5983C24.094 76.6253 23.484 77.7473 23.08 78.9733C22.883 79.5713 23.703 79.8173 24.026 79.3723C24.681 78.4743 25.333 77.5743 25.988 76.6763C26.635 75.7913 27.54 75.0083 27.902 73.9553C28.022 73.6143 27.641 73.2203 27.293 73.3463Z" fill="#B66C50"/>
<path d="M59.0236 71.6934C58.6156 71.1214 57.9226 70.9544 57.2746 70.7444C56.4496 70.4784 55.6636 70.4924 54.8226 70.5724C54.4416 70.6084 54.2836 71.2334 54.7246 71.2964C55.3826 71.3884 56.0786 71.6324 56.7016 71.8704C57.3546 72.1224 58.0766 72.5154 58.7776 72.3004C59.0126 72.2274 59.1846 71.9194 59.0236 71.6934Z" fill="#B66C50"/>
<path opacity="0.5" d="M59.0025 34.1658C54.7025 42.4688 51.0145 51.0658 48.1565 59.9318C47.5625 62.0018 47.0115 64.0828 46.4785 66.1688C48.3115 67.7298 50.4575 68.9068 52.8005 69.5978C53.0305 68.6228 53.2805 67.6558 53.5455 66.6938C56.1105 56.3278 58.2205 44.5508 63.9855 35.3839C62.4205 34.7369 60.7465 34.3198 59.0025 34.1658Z" fill="#F7ECD4"/>
<path opacity="0.5" d="M31.3315 37.1758C29.5735 35.9518 27.6005 35.0398 25.4705 34.5438C18.9855 44.0058 13.7705 54.2518 9.11548 64.7698C11.1825 66.9858 13.7915 68.6468 16.7145 69.5468C19.7775 58.1048 24.8345 47.1188 31.3315 37.1758Z" fill="#F7ECD4"/>
<path d="M57.5415 34.0908C48.4285 34.0908 40.9404 41.3878 40.1714 50.6358C39.7854 50.5968 39.3934 50.7508 39.0464 50.9998C38.4414 41.5808 30.8945 34.0908 21.6565 34.0908C12.0245 34.0908 4.18945 42.2148 4.18945 52.1928C4.18945 62.1808 12.0245 70.3028 21.6565 70.3028C31.0015 70.3028 38.6335 62.6528 39.0755 53.0768C39.1805 53.2028 39.2865 53.3258 39.4015 53.4428C39.6415 53.6638 39.9115 53.6918 40.1515 53.6148C40.8535 62.9388 48.3805 70.3028 57.5415 70.3028C67.1735 70.3028 75.0085 62.1808 75.0085 52.1928C75.0085 42.2148 67.1735 34.0908 57.5415 34.0908ZM21.6565 68.3808C13.0915 68.3808 6.11246 61.1238 6.11246 52.1928C6.11246 43.2728 13.0915 36.0138 21.6565 36.0138C30.2215 36.0138 37.2005 43.2728 37.2005 52.1928C37.2005 61.1238 30.2225 68.3808 21.6565 68.3808ZM57.5415 68.3808C48.9765 68.3808 42.0074 61.1238 42.0074 52.1928C42.0074 43.2728 48.9775 36.0138 57.5415 36.0138C66.1165 36.0138 73.0865 43.2728 73.0865 52.1928C73.0865 61.1238 66.1165 68.3808 57.5415 68.3808Z" fill="#664401"/>
</svg>
