<svg width="86" height="134" viewBox="0 0 86 134" fill="none" xmlns="http://www.w3.org/2000/svg">
<path d="M70.2954 132.422C70.2954 132.422 38.0854 135.412 7.48535 132.192C7.48535 132.192 10.5854 120.573 20.0154 113.452C20.2544 113.272 20.4954 113.093 20.7354 112.923C24.7854 110.054 29.9654 108.032 36.4754 108.032L40.3844 108.262C40.3844 108.262 50.4544 106.252 59.1444 113.303C59.6444 113.702 60.1343 114.143 60.6243 114.612C60.7943 114.772 60.9543 114.932 61.1243 115.102C63.4343 117.442 65.5734 120.532 67.3044 124.602L70.2954 132.422Z" fill="#909C4C"/>
<path d="M45.1263 113.283C40.6953 116.974 31.4763 113.283 31.4763 113.283C32.5663 111.094 33.0453 108.494 33.1753 105.914C33.2663 104.254 33.2053 102.604 33.0663 101.074C32.7263 96.9425 31.8453 93.7235 31.8453 93.7235L43.6563 93.3525C42.9563 95.6625 42.7363 98.1926 42.8163 100.644C42.8453 102.154 42.9863 103.634 43.1863 105.023C43.8443 109.683 45.1263 113.283 45.1263 113.283Z" fill="#CD8B6D"/>
<path d="M60.6256 114.612C39.7356 122.762 25.0956 116.372 20.0166 113.452C20.2556 113.272 20.4966 113.093 20.7366 112.923C24.7866 110.054 29.9666 108.032 36.4766 108.032L40.3856 108.262C40.3856 108.262 50.4556 106.252 59.1456 113.303C59.6446 113.702 60.1346 114.143 60.6256 114.612Z" fill="#CD8B6D"/>
<path d="M33.1754 105.913C33.2664 104.253 33.2054 102.603 33.0664 101.073C35.8264 100.973 39.7664 100.823 42.8164 100.643C42.8454 102.153 42.9864 103.633 43.1864 105.022C40.2654 105.404 36.1854 105.853 33.1754 105.913Z" fill="#A22D40"/>
<path d="M72.5459 94.1828C72.5239 94.1828 72.5039 94.1828 72.4829 94.1788L60.4829 92.6788C60.3479 92.6628 60.2269 92.5928 60.1449 92.4838C60.0649 92.3768 60.0299 92.2398 60.0509 92.1068L63.5509 69.6068C63.5939 69.3348 63.8479 69.1478 64.1209 69.1888C64.3939 69.2318 64.5809 69.4878 64.5389 69.7608L61.1169 91.7508L71.9149 93.1008L67.0549 69.2828C66.9999 69.0128 67.1739 68.7498 67.4449 68.6928C67.7149 68.6378 67.9789 68.8118 68.0349 69.0838L73.0349 93.5838C73.0669 93.7418 73.0219 93.9058 72.9119 94.0228C72.8169 94.1258 72.6829 94.1828 72.5459 94.1828Z" fill="#B5894B"/>
<path d="M11.1037 58.8347C11.1037 58.8347 2.03766 50.9017 0.190656 59.9487C-1.65634 68.9917 10.5247 71.9917 10.5247 71.9917L11.1037 58.8347Z" fill="#CD8B6D"/>
<path d="M10.2567 62.0347C10.2567 62.0347 5.40974 55.8877 4.18274 58.6687C2.95574 61.4487 3.69874 64.7887 3.69874 64.7887C3.69874 64.7887 4.19274 61.0117 7.13774 62.8627C7.13774 62.8627 5.06073 69.0287 10.2857 66.8257C10.2857 66.8257 12.3347 64.8217 10.2567 62.0347Z" fill="#B66C50"/>
<path d="M64.5 58.8347C64.5 58.8347 73.566 50.9017 75.414 59.9487C77.26 68.9917 65.08 71.9917 65.08 71.9917L64.5 58.8347Z" fill="#CD8B6D"/>
<path d="M65.3473 62.0347C65.3473 62.0347 70.1943 55.8877 71.4223 58.6687C72.6493 61.4487 71.9053 64.7887 71.9053 64.7887C71.9053 64.7887 71.4113 61.0117 68.4653 62.8627C68.4653 62.8627 70.5423 69.0287 65.3173 66.8257C65.3173 66.8257 63.2713 64.8217 65.3473 62.0347Z" fill="#B66C50"/>
<path d="M67.5564 56.9707C67.4524 58.0187 67.3134 59.0747 67.1734 60.1397C66.2664 66.8997 65.1814 73.6497 63.4984 80.2687C60.3294 92.7417 44.8934 98.8737 39.3964 98.4547C11.0584 94.6477 9.58138 75.1927 9.78838 73.0797C10.1244 69.7707 9.54537 66.1817 9.33037 62.8807C9.21737 61.1227 8.95538 59.3177 8.70238 57.5137C8.29138 54.4457 7.91738 51.3427 8.39438 48.3517C8.41338 48.2097 8.44138 48.0707 8.46938 47.9207C8.99138 44.9107 9.96537 41.7967 11.1144 38.9917C14.7154 30.2417 21.9794 20.4427 32.3654 20.2467C34.7974 20.1997 37.2644 20.6217 39.6674 21.3587C43.1364 22.4057 46.4824 24.0797 49.4184 25.8467C55.9534 29.8017 62.4784 34.2967 65.7414 41.4887C68.0334 46.5547 68.0984 51.6697 67.5564 56.9707Z" fill="#E8B299"/>
<path d="M57.4126 23.6032C51.8906 23.6032 36.9366 21.3022 30.9556 23.3732C24.9746 25.4432 15.0816 29.3542 12.7806 33.4962C10.4806 37.6382 9.09961 53.9722 9.09961 53.9722C9.09961 53.9722 17.1516 47.7602 20.8326 42.9292C20.8326 42.9292 25.6636 43.6192 40.6166 38.7882C40.6166 38.7882 50.5096 35.5662 51.1996 41.7782C51.8896 47.9902 67.1006 55.0682 70.3076 48.1922C73.5166 41.3182 62.9336 23.6032 57.4126 23.6032Z" fill="#CD8B6D"/>
<path d="M17.1513 44.5379C15.8533 47.2249 12.7063 50.0959 10.6913 53.0779C10.3973 53.5109 10.1293 53.9429 9.89931 54.3759C9.22832 55.5989 8.82332 56.8519 8.86932 58.1109L7.30532 55.3419L6.79832 54.4299C6.11732 53.5189 5.43732 52.5609 4.79232 51.5769C1.52532 46.5979 -0.856684 40.7359 2.18832 34.8749C3.80732 31.7449 6.96331 28.8549 10.2503 27.6869C12.2463 26.9779 15.0443 26.8959 16.7003 25.7529C16.8293 26.3889 17.0143 27.0149 17.2343 27.6309C17.3363 27.9059 17.4373 28.1739 17.5473 28.4489C17.8153 29.1309 18.1083 29.8109 18.3943 30.4929L18.7623 31.4399C19.0663 32.2589 19.3153 33.0869 19.4523 33.9609C20.0313 37.6809 18.7533 41.2249 17.1513 44.5379Z" fill="#B5894B"/>
<path d="M7.14832 38.0219C3.56932 44.3799 5.44631 49.3599 7.30431 55.3419L6.79732 54.4299C6.11632 53.5189 5.43631 52.5609 4.79131 51.5769C3.56831 47.2429 3.54932 42.5209 5.72132 38.5929C8.41732 33.6969 12.7713 30.6689 17.2343 27.6319C17.3363 27.9069 17.4373 28.1749 17.5473 28.4499C13.6453 31.1399 9.36632 34.0749 7.14832 38.0219Z" fill="#DEA864"/>
<path d="M10.6909 53.0781C10.3969 53.5111 10.1289 53.9431 9.89891 54.3761C8.23391 50.2071 8.57492 43.7561 9.85292 40.5351C11.5749 36.2191 14.4729 32.6771 18.3929 30.4951L18.7609 31.4421C11.6109 36.0801 8.50191 44.8501 10.6909 53.0781Z" fill="#DEA864"/>
<path d="M84.8404 55.9083C84.3364 57.4073 83.6804 58.7093 83.0114 59.5493C82.9794 59.5913 82.9554 59.6203 82.9224 59.6613C79.9354 63.2043 73.4894 65.4913 69.5854 61.9053C65.6704 58.3003 68.6034 53.0603 68.1744 48.3963C62.0554 50.1123 51.6214 57.7993 50.2424 47.1643C49.2984 39.8713 52.9844 34.0593 41.6834 36.2123C33.5404 37.7663 20.0864 46.9943 14.8984 35.7053C13.3244 32.2653 13.2604 28.2373 14.1624 24.5853C14.2174 24.3293 14.2844 24.0913 14.3504 23.8443C14.6134 22.9353 14.8074 21.9973 15.0124 21.0613C15.3364 19.6093 15.6994 18.1623 16.4184 16.8543C16.8364 16.0963 17.8724 14.4573 18.8574 14.4163C19.5214 14.3903 20.1394 14.7133 20.7804 14.7273C21.0394 14.7373 21.3024 14.6893 21.5654 14.5583C21.6704 14.5003 21.7754 14.4343 21.8684 14.3603C22.4664 13.8793 22.1864 13.0323 22.4264 12.3393C23.1524 10.1413 23.6554 7.9873 24.6554 6.1793V6.16832C24.6554 6.06332 25.2824 5.95931 25.3824 5.85531C25.9764 5.26431 26.3964 4.74032 26.8604 4.22832C26.9264 4.15532 27.1014 4.07331 27.1694 4.01031C28.4644 2.62931 30.1624 1.51732 32.1594 0.821318C35.1764 -0.225682 38.4474 -0.32569 41.1544 0.83531C41.1744 0.84331 41.2054 0.849306 41.2254 0.856306C41.8294 1.12631 42.4354 1.4503 42.9764 1.8453C42.9864 1.8523 42.9894 1.85231 42.9994 1.86131C44.5154 2.94631 45.7824 4.55131 46.5914 6.74031C57.1224 4.49331 61.6594 5.69831 63.1584 17.4583C72.5804 15.6373 76.9274 26.5153 76.7884 34.5643C76.7554 36.0563 75.3864 39.7593 74.4634 43.3853C74.2954 44.0513 74.1444 44.7153 74.0194 45.3593C73.2034 49.5393 73.4874 53.0333 77.8324 52.1233C76.0454 46.8823 80.4434 40.6403 84.7714 46.5143C86.3414 48.6363 85.9274 52.6993 84.8404 55.9083Z" fill="#B5894B"/>
<path d="M84.8403 55.9086C84.3363 57.4076 83.6803 58.7096 83.0113 59.5496C80.6413 61.2586 77.8583 62.1416 75.2823 60.7356C70.8053 58.2836 69.0183 53.2096 68.9193 48.3426C68.8823 46.8846 69.0323 44.9346 68.3513 43.5906C67.1453 41.2396 64.0563 43.0726 62.5423 43.5506C61.0733 44.0056 59.7683 44.3316 58.3493 43.6246C56.8713 42.8756 56.6523 40.1706 56.8453 38.8616C57.5333 33.9186 62.9223 23.8126 53.7423 23.2296C44.7303 22.6556 37.3493 30.1706 29.1303 32.6516C24.0033 34.2056 17.2723 32.1256 14.9623 26.9326C14.6173 26.1456 14.3493 25.3696 14.1633 24.5836C14.2183 24.3276 14.2853 24.0896 14.3513 23.8426C14.6143 22.9336 14.8083 21.9956 15.0133 21.0596C14.9303 26.5656 17.2063 31.6136 24.0443 32.0246C31.3313 32.4696 36.9703 27.1686 43.3053 24.4656C47.0393 22.8786 52.7683 20.2996 56.7193 22.8616C60.5633 25.3626 61.3303 29.0566 59.7853 33.2576C59.3673 34.3676 56.0453 43.6486 60.5933 42.6486C61.6693 42.4036 62.6263 42.0126 63.6603 41.6426C64.7573 41.2556 66.2213 40.6636 67.3983 41.0356C70.3593 41.9666 70.2533 45.6256 70.3083 48.1906C70.4723 55.8086 77.3453 64.7676 84.4213 56.4166C84.5623 56.2536 84.7013 56.0806 84.8403 55.9086Z" fill="#DEA864"/>
<path d="M74.5165 30.1437C73.6105 32.9907 71.4715 36.2287 71.9765 39.2847C72.3145 41.3947 73.2765 42.7537 74.4635 43.3847C74.2955 44.0507 74.1445 44.7147 74.0195 45.3587C70.3915 44.2417 70.1755 38.0347 70.9645 35.0527C71.2775 33.8437 71.8825 32.7517 72.3205 31.5847C73.1165 30.2857 72.7195 29.1057 71.1325 28.0267C70.8365 28.2817 70.4995 28.4377 70.1385 28.5137C68.6525 28.7207 67.0205 28.7767 65.9015 27.5817C63.8405 25.3787 63.4985 22.2047 61.6075 19.8707C58.8925 16.4997 54.9175 13.6337 50.4195 13.4627C45.1135 13.2667 40.3505 16.0477 36.9785 20.0487C34.8635 22.5717 32.7875 24.5277 29.6135 25.5637C25.6715 26.8607 22.1805 23.6727 21.4365 20.0327C21.0825 18.2937 20.8435 16.5147 20.7815 14.7257C21.0405 14.7357 21.3035 14.6877 21.5665 14.5567C21.6715 14.4987 21.7765 14.4327 21.8695 14.3587C21.8835 15.7537 22.0125 17.1477 22.2995 18.5127C23.8665 25.9997 30.6265 25.6037 34.9475 20.4437C36.5325 18.5707 38.3255 16.5727 40.4015 15.2267C47.7615 10.4357 57.4315 11.5397 62.6875 19.0807C63.9695 20.9217 64.6585 22.8397 65.7015 24.7897C67.5315 28.1937 70.0315 26.3957 72.7105 25.8387C75.0915 25.3417 74.8905 28.9747 74.5165 30.1437Z" fill="#DEA864"/>
<path d="M41.8639 7.60051C39.4349 10.8145 33.8699 13.7945 29.7199 12.5665C26.3439 11.5625 25.4019 8.92351 25.7839 5.85451C26.3759 5.26351 26.5969 4.73951 27.0599 4.22751C27.1269 4.15451 27.2019 4.07251 27.2679 4.00951C26.9209 5.34251 26.7859 6.65451 26.9449 7.87651C27.5489 12.4465 32.9249 11.5715 36.0039 10.1665C37.4779 9.4985 39.1049 8.70251 40.1079 7.36351C40.8609 6.35651 42.3549 2.53952 41.2389 0.853516C41.8409 1.12352 42.4409 1.44751 42.9829 1.84251C42.9939 1.84951 42.9939 1.84951 43.0039 1.85851C43.3589 3.85851 42.8779 6.26151 41.8639 7.60051Z" fill="#DEA864"/>
<path d="M13.5455 94.1828C13.5255 94.1828 13.5045 94.1828 13.4835 94.1788L1.48352 92.6788C1.34852 92.6628 1.22752 92.5928 1.14552 92.4838C1.06452 92.3768 1.03052 92.2398 1.05052 92.1068L4.55052 69.6068C4.59352 69.3348 4.84852 69.1478 5.12152 69.1888C5.39452 69.2318 5.58153 69.4878 5.53853 69.7608L2.11752 91.7508L12.9155 93.1008L8.05553 69.2828C7.99953 69.0128 8.17453 68.7498 8.44553 68.6928C8.71553 68.6378 8.97952 68.8118 9.03552 69.0838L14.0355 93.5838C14.0675 93.7418 14.0215 93.9058 13.9125 94.0228C13.8165 94.1258 13.6835 94.1828 13.5455 94.1828Z" fill="#B5894B"/>
<path d="M16.1663 60.6982C16.1663 65.5892 20.1303 69.5552 25.0213 69.5552C29.9123 69.5552 33.8763 65.5882 33.8763 60.6982C33.8763 55.8082 29.9123 51.8442 25.0213 51.8442C20.1303 51.8442 16.1663 55.8072 16.1663 60.6982Z" fill="white"/>
<path d="M30.4286 60.8828C30.4286 64.9218 27.9506 68.1958 24.8936 68.1958C21.8366 68.1958 19.3606 64.9228 19.3606 60.8828C19.3606 56.8448 21.8376 53.5688 24.8936 53.5688C27.9516 53.5688 30.4286 56.8448 30.4286 60.8828Z" fill="#95BCD1"/>
<path d="M28.8262 60.883C28.8262 63.752 27.0672 66.08 24.8932 66.08C22.7212 66.08 20.9612 63.752 20.9612 60.883C20.9612 58.012 22.7212 55.685 24.8932 55.685C27.0672 55.685 28.8262 58.013 28.8262 60.883Z" fill="#141E62"/>
<path d="M27.0476 57.3782C28.1681 57.3782 29.0766 56.7451 29.0766 55.9642C29.0766 55.1833 28.1681 54.5502 27.0476 54.5502C25.927 54.5502 25.0186 55.1833 25.0186 55.9642C25.0186 56.7451 25.927 57.3782 27.0476 57.3782Z" fill="white"/>
<path d="M22.6757 50.9903C16.6727 52.5373 13.9007 60.3793 17.0117 65.5083C17.1577 65.7463 17.5797 65.6623 17.5617 65.3583C17.4297 63.2003 16.6817 61.2743 17.1617 59.0603C17.6907 56.6123 19.2937 54.6133 21.3397 53.2603C23.8707 51.5873 27.6967 51.7673 30.0067 53.6793C31.5037 54.9193 32.3077 57.2203 33.3977 58.8073C33.5237 58.9903 33.8478 58.9393 33.8388 58.6883C33.6068 52.4793 28.4087 49.5113 22.6757 50.9903Z" fill="#141E62"/>
<path d="M43.7737 60.6983C43.7737 65.5893 47.7377 69.5553 52.6287 69.5553C57.5187 69.5553 61.4827 65.5883 61.4827 60.6983C61.4827 55.8083 57.5187 51.8443 52.6287 51.8443C47.7377 51.8443 43.7737 55.8073 43.7737 60.6983Z" fill="white"/>
<path d="M58.036 60.8829C58.036 64.9219 55.559 68.1959 52.501 68.1959C49.445 68.1959 46.968 64.9229 46.968 60.8829C46.968 56.8449 49.446 53.5689 52.501 53.5689C55.559 53.5689 58.036 56.8449 58.036 60.8829Z" fill="#95BCD1"/>
<path d="M56.4336 60.8831C56.4336 63.7521 54.6736 66.0801 52.4996 66.0801C50.3276 66.0801 48.5676 63.7521 48.5676 60.8831C48.5676 58.0121 50.3276 55.6851 52.4996 55.6851C54.6746 55.6851 56.4336 58.0131 56.4336 60.8831Z" fill="#141E62"/>
<path d="M56.684 55.9644C56.684 56.7444 55.774 57.3784 54.655 57.3784C53.534 57.3784 52.626 56.7444 52.626 55.9644C52.626 55.1834 53.534 54.5504 54.655 54.5504C55.774 54.5504 56.684 55.1824 56.684 55.9644Z" fill="white"/>
<path d="M55.9167 51.1403C50.2907 49.4853 43.8547 54.4493 43.2857 59.9523C43.2607 60.2023 43.6197 60.2143 43.6947 60.0093C45.5647 54.8643 49.7047 51.5753 55.4227 52.9333C58.1327 53.5783 60.4367 56.1803 60.7677 58.9043C61.0007 60.8203 60.3277 62.8643 60.1727 64.7843C60.1527 65.0363 60.4807 65.0633 60.6027 64.8993C64.5687 59.5103 62.3867 53.0433 55.9167 51.1403Z" fill="#141E62"/>
<path d="M26.3801 80.6841C26.3801 80.6841 27.0461 81.6821 32.0461 79.3501C37.0461 77.0161 40.3801 78.6841 40.3801 78.6841C40.3801 78.6841 42.3791 77.3501 46.7121 79.0161C51.0461 80.6841 51.3791 80.0161 51.3791 80.0161C51.3791 80.0161 40.0461 99.6841 26.3801 80.6841Z" fill="#A22D40"/>
<path d="M32.0461 82.3498L46.0471 81.3498C46.0471 81.3498 40.3801 90.6838 32.0461 82.3498Z" fill="white"/>
<path d="M34.384 72.4036C34.384 72.4036 36.53 75.4716 38.985 76.0856C41.439 76.6966 43.893 71.7906 42.973 72.4036C42.052 73.0146 39.905 52.4646 34.384 72.4036Z" fill="#CD8B6D"/>
<path d="M17.3801 48.3493L31.3801 47.6833C23.0471 43.3503 17.3801 48.3493 17.3801 48.3493Z" fill="#92561A"/>
<path d="M46.3792 48.3493L60.3791 47.6833C52.0461 43.3503 46.3792 48.3493 46.3792 48.3493Z" fill="#92561A"/>
<path d="M28.8397 71.9953C28.8397 73.1903 26.2217 74.1593 22.9927 74.1593C19.7627 74.1593 17.1467 73.1903 17.1467 71.9953C17.1467 70.7983 19.7627 69.8293 22.9927 69.8293C26.2207 69.8283 28.8397 70.7973 28.8397 71.9953Z" fill="#A22D40"/>
<path d="M61.4833 71.9933C61.4833 73.1903 58.8653 74.1593 55.6363 74.1593C52.4083 74.1593 49.7903 73.1903 49.7903 71.9933C49.7903 70.7983 52.4073 69.8293 55.6363 69.8293C58.8653 69.8283 61.4833 70.7973 61.4833 71.9933Z" fill="#A22D40"/>
</svg>
