<svg width="74" height="134" viewBox="0 0 74 134" fill="none" xmlns="http://www.w3.org/2000/svg">
<path d="M29.0068 96.4004C29.0068 96.4004 34.4358 109.853 29.7808 119.195C29.7808 119.195 36.3738 130.033 49.5578 119.195C49.5578 119.195 44.1298 110.599 48.0068 97.1484L29.0068 96.4004Z" fill="#CD8B6D"/>
<path d="M71.8632 133.021L38.7402 133.527L6.24819 133.021C6.24819 133.021 4.83519 128.953 6.04019 124.076C6.88819 120.652 9.11719 116.842 14.0882 113.742C16.2602 112.396 18.9882 111.183 22.3482 110.189C23.1582 109.959 24.0072 109.738 24.9002 109.527C26.8702 109.066 29.0372 108.672 31.4212 108.367C31.4212 108.367 35.0972 110.338 39.3572 110.703C43.6282 110.338 46.7212 107.769 46.7212 107.769C49.0592 108.072 51.1942 108.458 53.1452 108.919C54.7642 109.296 56.2652 109.728 57.6362 110.208C59.5412 110.86 61.2182 111.597 62.6892 112.407C67.8342 115.186 70.1922 118.69 71.5452 122.022C73.8822 127.795 71.8632 133.021 71.8632 133.021Z" fill="#BF9837"/>
<path d="M31.0775 104.318L26.9365 108.92C26.9365 108.92 35.9085 119.274 36.1385 118.352C36.3685 117.432 39.3595 110.704 39.3595 110.704L31.0775 104.318Z" fill="white"/>
<path d="M47.1812 104.318L51.3222 108.92C51.3222 108.92 42.3502 119.274 42.1202 118.352C41.8902 117.432 38.8992 110.704 38.8992 110.704L47.1812 104.318Z" fill="white"/>
<path d="M13.4417 51.2486C13.4417 51.2486 4.5457 36.2175 0.865703 49.1025C-2.8163 61.9855 6.0797 68.1205 11.9077 66.8935C17.7367 65.6645 13.4417 51.2486 13.4417 51.2486Z" fill="#CD8B6D"/>
<path d="M12.3677 53.7011C12.3677 53.7011 6.23366 44.1911 4.08666 48.0251C1.93966 51.8611 2.55267 56.7671 2.55267 56.7671C2.55267 56.7671 3.77966 51.4001 7.76766 54.4661C7.76766 54.4661 3.93366 63.0561 11.7557 60.6031C11.7557 60.6031 14.9757 57.9961 12.3677 53.7011Z" fill="#B66C50"/>
<path d="M60.4207 49.4068C60.4207 49.4068 69.3157 34.3778 72.9967 47.2608C76.6777 60.1438 67.7807 66.2788 61.9537 65.0518C56.1247 63.8248 60.4207 49.4068 60.4207 49.4068Z" fill="#CD8B6D"/>
<path d="M60.5457 51.8622C60.5457 51.8622 66.6807 42.3522 68.8277 46.1862C70.9757 50.0222 70.3617 54.9282 70.3617 54.9282C70.3617 54.9282 69.1347 49.5612 65.1467 52.6272C65.1467 52.6272 68.9807 61.2172 61.1587 58.7642C61.1587 58.7642 57.9377 56.1572 60.5457 51.8622Z" fill="#B66C50"/>
<path d="M14.0546 29.5475C13.1666 30.4475 11.9076 55.9285 12.5206 65.7445C13.1346 75.5605 16.8156 103.168 38.9026 103.168C60.9876 103.168 64.6696 65.4385 59.4546 32.0025C59.4546 32.0025 35.8346 7.46145 14.0546 29.5475Z" fill="#E8B299"/>
<path d="M68.2607 38.8075C68.2817 40.1175 67.5617 41.5474 66.5317 42.8874C66.3217 43.1684 66.0917 43.4485 65.8517 43.7175C64.4717 45.2875 62.7817 46.6565 61.5617 47.4285C56.9117 41.2685 52.6517 35.4675 51.1617 27.8175C48.4817 33.4585 39.8217 27.7975 36.1417 26.9675C31.7507 25.9675 26.8007 31.1565 21.8007 32.6565C21.2907 32.8065 20.7907 32.9284 20.2817 32.9864C19.9317 33.0374 19.5817 33.0565 19.2317 33.0565C18.6517 33.0565 18.2107 37.4375 18.1217 37.9375C17.6827 40.6365 17.0417 43.2875 15.7417 45.7165C15.1217 46.8665 12.2317 49.7365 12.5617 51.0565C11.7607 47.9275 8.63071 45.8664 6.82171 43.4564C6.14171 42.5564 5.55071 41.4855 5.08171 40.3274C4.96171 40.0164 4.84171 39.6965 4.74171 39.3665C3.85171 36.6365 3.72171 33.5564 4.89171 31.0464C6.41171 27.7864 10.0507 28.0565 12.2507 25.3865C14.3917 22.7775 14.0307 19.2265 15.8207 16.3065C18.0807 12.6265 19.6407 11.4175 23.6407 11.4665C28.0407 11.5275 28.5407 11.4865 30.2997 7.64645C32.4197 2.98645 37.8107 -0.742538 43.3107 0.126462C45.8307 0.526462 47.2707 1.57545 48.0807 3.01745C48.3007 3.41545 48.4717 3.85746 48.6107 4.31646C49.4607 7.17746 49.0947 10.9765 49.2647 14.1465C49.2857 14.5875 49.7387 14.9765 49.7387 15.3375V15.3475C49.7387 16.0565 49.6247 16.5975 49.8247 17.0175C51.2747 20.1075 55.0277 16.4064 59.0277 17.3574C60.2567 17.6464 60.9947 18.2264 61.5347 19.0074C61.7647 19.3274 61.8827 19.6775 62.0217 20.0565C63.0427 22.8965 61.7767 27.1675 61.9267 29.7265C62.0567 32.0975 61.7177 31.2775 63.5677 33.0565C65.2687 34.6975 68.2217 35.8575 68.2607 38.8075Z" fill="#92561A"/>
<path d="M48.6117 4.31647C44.1417 4.04647 40.0317 7.30646 37.8717 11.8375C36.5627 14.5775 35.9917 17.4855 33.9817 19.8375C31.3317 22.9375 27.8007 17.7675 24.7717 19.7765C20.3917 22.6965 18.2417 27.5065 15.5907 31.8665C13.8117 34.7865 9.53073 41.1365 5.08073 40.3275C4.96073 40.0165 4.84072 39.6965 4.74072 39.3665C5.48072 39.4855 6.35072 39.3764 7.37072 39.0074C12.1107 37.2674 14.5207 32.2675 16.8707 28.1165C18.6207 25.0265 20.8917 20.5965 24.3517 19.0565C27.0507 17.8575 33.3117 20.2264 34.5717 17.5464C37.4817 11.3664 39.5317 4.69646 47.1917 3.11646C47.4917 3.05646 47.7917 3.02645 48.0817 3.01645C48.3007 3.41645 48.4717 3.85747 48.6117 4.31647Z" fill="#B5894B"/>
<path d="M49.4617 17.0175C48.4217 18.6175 47.5517 20.3765 46.8217 22.2875C45.9117 24.6565 43.1317 25.8165 40.7317 25.7265C34.2607 25.4865 25.3917 26.1775 21.8407 32.5785C21.8307 32.6075 21.8117 32.6275 21.8007 32.6565C21.2907 32.8065 20.7907 32.9284 20.2817 32.9865C22.0507 29.6685 24.6717 26.9864 28.6417 25.9474C32.1917 25.0174 35.6207 24.3475 39.2917 24.4865C45.0317 24.7164 45.5417 20.4065 48.0917 16.6275C48.3817 16.1975 48.6927 15.7684 49.0117 15.3484C49.1117 16.0574 49.2607 16.5985 49.4617 17.0175Z" fill="#B5894B"/>
<path d="M66.5316 42.8878C66.3216 43.1688 66.0916 43.4488 65.8516 43.7178C62.0906 40.6978 58.8916 35.6478 57.3216 32.6688C55.7606 29.6978 54.4316 24.9188 56.8416 21.9288C58.2416 20.1988 59.4416 19.4578 61.4726 19.0088C61.7026 19.3288 61.8526 19.6788 61.9926 20.0578C59.3626 20.3288 56.9026 20.4878 56.8226 26.1988C56.7616 30.7888 60.7026 37.1088 63.8726 40.4998C64.7316 41.4188 65.6116 42.2268 66.5316 42.8878Z" fill="#B5894B"/>
<path d="M67.5814 75.3877C66.5514 77.0887 64.3314 77.8587 62.8814 79.2687C62.6314 79.4987 62.4024 79.7587 62.2114 80.0477C62.1024 80.2077 62.0014 80.3677 61.9114 80.5377C60.6214 82.8167 60.6414 85.9987 60.9614 88.4677C61.6914 94.0477 65.3614 101.189 57.1514 101.388C50.6414 101.548 52.5614 102.208 50.3114 108.058C49.7014 109.648 49.0504 110.988 47.9714 111.808C47.6304 112.079 47.2504 112.288 46.8114 112.439C46.3314 112.609 45.7904 112.699 45.1614 112.718C42.4014 112.788 42.3214 111.3 40.3014 110.23C37.0414 108.531 35.3014 112.912 31.8814 112.912H30.7724C30.4924 112.912 30.1924 112.611 29.8814 112.49C23.4324 110.07 25.5314 102.97 23.5014 98.1797C20.6824 98.8907 14.7414 99.3837 10.9414 97.6137L10.9314 97.5717C10.5714 97.4017 10.2314 97.2147 9.91138 97.0147C8.69138 96.1947 7.82138 95.0467 7.55138 93.4667C6.94238 89.9467 14.6614 86.1817 12.1824 83.1227C10.9114 81.5617 6.66239 83.3997 4.96139 82.4097C2.24139 80.8097 3.35239 77.5787 4.46139 75.0587C6.33139 70.8087 13.0114 66.8167 12.2324 61.7167C12.5224 63.6167 14.5824 63.9977 15.8624 65.0277C16.1624 65.2777 16.4324 65.5567 16.6724 65.8677C16.9434 66.2077 17.1834 66.5667 17.4124 66.9377C17.8224 67.6077 18.1924 68.3067 18.6324 68.9177C19.1624 69.6677 20.0024 70.2677 20.7424 70.7967C21.6724 71.4467 22.7024 72.0077 23.7724 72.4667L24.9824 72.9467C25.1714 73.0077 25.3724 73.0777 25.5624 73.1357C28.4324 74.0357 31.0724 70.7667 33.9024 71.7667C37.5224 73.0557 35.6314 76.1557 39.9024 72.7157C40.3124 72.3857 40.7024 72.0767 41.0724 71.8057C41.6324 71.3757 42.1824 71.0167 42.7824 70.6867C43.0324 70.5457 43.2924 70.4167 43.5624 70.2957C44.7324 69.7757 45.0224 70.6667 46.3124 69.7357C48.0514 68.4757 48.0624 64.9567 50.4614 65.1267C50.7224 65.1367 51.0014 65.1967 51.3124 65.3067C51.3624 65.3277 51.4024 65.3377 51.4524 65.3577C54.1124 66.4187 52.5324 70.4577 54.9024 71.7577C60.6824 74.9177 57.6824 58.2777 60.5724 58.0467C63.9224 57.7767 62.3224 63.9277 62.9824 65.7367C64.3314 69.4287 70.1514 71.1567 67.5814 75.3877Z" fill="#92561A"/>
<path d="M14.1011 92.1691C13.1511 93.8971 11.9811 95.6981 10.9311 97.5671C10.5711 97.3971 10.2311 97.2081 9.91113 97.0081C10.7711 95.5881 11.6811 94.2581 12.3211 93.1081C14.3611 89.4281 18.4411 85.1181 15.4111 80.5791C14.2221 78.7781 11.7221 77.8081 10.7011 76.0581C9.22213 73.5291 12.2711 70.0991 13.8811 68.4391C14.7611 67.5291 15.6821 66.6381 16.6711 65.8691C16.9421 66.2091 17.1821 66.5681 17.4111 66.9391C13.2611 69.8181 9.52113 74.4881 13.9111 77.5891C15.9321 79.0191 16.8611 81.7881 17.6821 84.0191C18.7011 86.7981 15.2601 90.0671 14.1011 92.1691Z" fill="#B5894B"/>
<path d="M31.7915 112.91H30.7715C30.4415 111.91 30.0315 110.578 29.4605 109.568C28.2715 107.439 27.1415 105.588 27.0705 103.138C27.0005 100.488 29.1105 98.1434 29.7505 95.7024C31.1905 90.1734 26.2715 89.9904 23.5805 87.3204C19.8105 83.5904 20.6505 77.0844 23.7705 72.4844L24.9805 72.9564C21.6205 77.6164 20.2305 84.2924 25.1905 87.0014C27.4905 88.2614 30.8605 89.6204 31.1405 92.6984C31.5805 97.3584 26.3905 101.738 28.9705 106.359C30.1915 108.529 31.0715 110.91 31.7915 112.91Z" fill="#B5894B"/>
<path d="M47.9713 111.807C46.2813 108.797 45.7413 105.537 47.8403 101.367C48.9603 99.1565 53.8113 95.3285 53.2503 92.4675C52.4803 88.5785 47.1813 87.5475 44.9313 84.5475C41.6513 80.1785 41.7103 75.4065 42.7813 70.6885C42.1813 71.0185 41.6313 71.3775 41.0713 71.8075C40.7113 74.2485 40.8913 76.7875 41.4213 79.2975C42.7613 85.7075 46.7813 87.3385 51.4113 90.9385C53.3513 92.4585 47.8013 99.3875 46.9323 100.838C45.7723 102.787 45.2513 104.906 45.1313 107.147C45.0313 109.098 45.7413 110.838 46.8123 112.438L47.9713 111.807Z" fill="#B5894B"/>
<path d="M62.8814 79.268C62.6314 79.498 62.4024 79.758 62.2114 80.047C62.1024 80.207 62.0014 80.367 61.9114 80.537C60.4514 78.027 57.9324 76.557 55.2414 74.976C51.7604 72.937 50.4314 69.117 50.4614 65.126C50.7224 65.136 51.0014 65.196 51.3124 65.306C51.3624 65.327 51.4024 65.337 51.4524 65.357C51.4524 65.476 51.4734 65.607 51.4824 65.726C51.7524 68.146 52.3524 70.947 54.1524 72.736C55.8324 74.406 57.7224 74.677 59.6424 75.828C61.2114 76.778 62.2114 77.858 62.8814 79.268Z" fill="#B5894B"/>
<path d="M38.4809 68.6359C37.7669 67.3819 38.4469 65.0209 38.4429 63.5599C38.4349 61.6149 38.5909 59.7219 38.5919 57.7669C38.5919 56.2099 38.9929 52.6579 37.8099 50.9959C37.7069 49.4779 36.3399 49.5599 35.6809 50.8609C34.5799 53.0329 34.7609 55.8879 34.7609 58.2629C34.7599 60.3469 34.7129 62.4249 34.6079 64.5229C34.5379 65.9099 34.6209 67.9979 34.0399 69.2199C32.2219 68.2139 30.0059 67.3389 31.4259 70.3389C32.1379 71.8429 34.5759 75.1399 36.4489 74.9519C38.4789 74.7489 41.1889 71.3409 41.9309 69.5789C43.0669 66.8839 39.9469 67.6959 38.4809 68.6359Z" fill="#CD8B6D"/>
<path d="M30.5386 38.9692C29.0886 37.6062 26.8116 37.8752 25.0556 38.3262C22.6106 38.9512 16.3646 41.0682 18.4096 44.6852C18.4396 44.7382 18.4796 44.7672 18.5146 44.8082C18.4546 45.0312 18.7196 45.2732 18.9616 45.1462C19.0116 45.1212 19.0666 45.1012 19.1186 45.0782C19.3066 45.0642 19.4846 44.9822 19.6306 44.8532C21.2856 44.2532 23.3906 44.3122 25.0416 44.4102C27.2906 44.5412 29.1026 45.9902 31.3876 45.8672C31.7756 45.8472 32.0366 45.5742 32.0636 45.1912C32.2166 42.9532 32.2906 40.6112 30.5386 38.9692Z" fill="#92561A"/>
<path d="M42.1575 44.4264C42.1825 44.8094 42.4465 45.0804 42.8345 45.1024C45.1175 45.2234 46.9305 43.7764 49.1785 43.6454C50.8305 43.5474 52.9355 43.4895 54.5905 44.0885C54.7365 44.2175 54.9136 44.2974 55.1026 44.3114C55.1536 44.3364 55.2095 44.3544 55.2596 44.3794C55.5015 44.5084 55.7665 44.2665 55.7065 44.0415C55.7415 44.0005 55.7816 43.9735 55.8116 43.9205C57.8566 40.3035 51.6095 38.1864 49.1635 37.5594C47.4075 37.1104 45.1325 36.8404 43.6815 38.2024C41.9295 39.8454 42.0045 42.1874 42.1575 44.4264Z" fill="#92561A"/>
<path d="M30.6199 54.8557C30.6199 59.8537 28.0109 63.9047 24.7919 63.9047C21.5729 63.9047 18.9629 59.8537 18.9629 54.8557C18.9629 49.8577 21.5729 45.8047 24.7919 45.8047C28.0099 45.8057 30.6199 49.8577 30.6199 54.8557Z" fill="white"/>
<path d="M29.3828 55.1511C29.3828 58.8721 27.3958 61.8891 24.9448 61.8891C22.4958 61.8891 20.5078 58.8711 20.5078 55.1511C20.5078 51.4311 22.4948 48.4131 24.9448 48.4131C27.3948 48.4131 29.3828 51.4311 29.3828 55.1511Z" fill="#95BCD1"/>
<path d="M28.4168 55.2311C28.4168 58.1451 26.9058 60.5061 25.0408 60.5061C23.1778 60.5061 21.6658 58.1451 21.6658 55.2311C21.6658 52.3191 23.1778 49.9581 25.0408 49.9581C26.9058 49.9581 28.4168 52.3191 28.4168 55.2311Z" fill="#141E62"/>
<path d="M29.3827 50.3329C29.3827 50.9519 28.3547 51.4519 27.0867 51.4519C25.8197 51.4519 24.7917 50.9519 24.7917 50.3329C24.7917 49.7139 25.8197 49.2159 27.0867 49.2159C28.3537 49.2159 29.3827 49.7139 29.3827 50.3329Z" fill="white"/>
<path d="M21.3465 46.2039C18.6815 48.1039 17.1495 52.7509 18.6985 55.7469C18.7735 55.8929 19.0405 55.8329 19.0205 55.6609C18.7085 52.9969 19.6235 50.1099 21.3375 48.0829C22.3995 46.8289 23.8635 46.2999 25.4575 46.1709C27.1995 46.0279 27.9865 47.8739 29.3565 48.5069C29.6415 48.6379 29.9995 48.4249 29.9055 48.0849C28.8385 44.2259 24.0335 44.2899 21.3465 46.2039Z" fill="#141E62"/>
<path d="M54.5467 53.9358C54.5467 58.9338 51.9376 62.9848 48.7186 62.9848C45.4996 62.9848 42.8896 58.9338 42.8896 53.9358C42.8896 48.9358 45.4996 44.8848 48.7186 44.8848C51.9366 44.8858 54.5467 48.9358 54.5467 53.9358Z" fill="white"/>
<path d="M53.3076 54.2292C53.3076 57.9522 51.3216 60.9672 48.8706 60.9672C46.4206 60.9672 44.4336 57.9512 44.4336 54.2292C44.4336 50.5102 46.4196 47.4932 48.8706 47.4932C51.3216 47.4932 53.3076 50.5112 53.3076 54.2292Z" fill="#95BCD1"/>
<path d="M52.3426 54.3112C52.3426 57.2232 50.8316 59.5862 48.9676 59.5862C47.1026 59.5862 45.5916 57.2232 45.5916 54.3112C45.5916 51.3992 47.1026 49.0382 48.9676 49.0382C50.8326 49.0382 52.3426 51.3992 52.3426 54.3112Z" fill="#141E62"/>
<path d="M53.3075 49.413C53.3075 50.03 52.2805 50.532 51.0125 50.532C49.7455 50.532 48.7175 50.03 48.7175 49.413C48.7175 48.794 49.7455 48.296 51.0125 48.296C52.2805 48.296 53.3075 48.794 53.3075 49.413Z" fill="white"/>
<path d="M52.4203 46.2039C55.0853 48.1039 56.6173 52.7509 55.0683 55.7469C54.9933 55.8929 54.7263 55.8329 54.7473 55.6609C55.0583 52.9969 54.1433 50.1099 52.4293 48.0829C51.3673 46.8289 49.9033 46.2999 48.3093 46.1709C46.5673 46.0279 45.7813 47.8739 44.4113 48.5069C44.1263 48.6379 43.7673 48.4249 43.8623 48.0849C44.9293 44.2259 49.7333 44.2899 52.4203 46.2039Z" fill="#141E62"/>
<path d="M48.4105 73.1035C48.4105 73.1035 47.9325 75.9475 46.8925 79.2495C46.8375 79.4335 46.7825 79.6084 46.7175 79.7924C45.2635 84.2845 42.8065 89.3625 39.2075 89.3625C35.5905 89.3625 31.8735 86.0675 29.3145 83.1885C29.1405 82.9955 28.9735 82.8015 28.8175 82.6185C27.0965 80.6125 26.0195 78.9365 26.0195 78.9365C26.0195 78.9365 41.9685 81.6975 48.4105 73.1035Z" fill="white"/>
<path d="M46.8926 79.2509C46.8376 79.4349 46.7826 79.6099 46.7176 79.7939C44.0026 81.4699 40.8456 82.2329 37.6896 82.7299C34.9286 83.1709 32.0856 82.9899 29.3156 83.1909C29.1416 82.9979 28.9746 82.8039 28.8186 82.6209C31.2126 82.2789 33.9446 82.6849 36.2456 82.3259C40.0086 81.7269 43.4316 80.8149 46.8926 79.2509Z" fill="#CD8B6D"/>
<path opacity="0.7" d="M54.6743 63.678C56.6003 59.262 58.7503 54.946 61.0143 50.686C59.1173 49.965 56.8413 49.52 54.3533 49.458C52.1203 53.95 49.7063 58.353 47.2793 62.747C49.1643 63.354 51.3643 63.704 53.7423 63.704C54.0573 63.703 54.3643 63.689 54.6743 63.678Z" fill="#F6E1FB"/>
<path opacity="0.7" d="M22.9876 56.9084C24.1716 54.9844 25.3756 53.0725 26.5826 51.1625C24.8116 50.6485 22.7846 50.3595 20.6136 50.3595C20.1856 50.3595 19.7646 50.3735 19.3486 50.3945C16.9866 54.5745 14.3156 58.5855 12.3936 62.9885C14.0966 63.7795 16.1866 64.3185 18.5016 64.5275C19.8516 61.9285 21.4366 59.4284 22.9876 56.9084Z" fill="#F6E1FB"/>
<path d="M53.7476 49.4395C46.5876 49.4395 40.9786 52.5724 40.9786 56.5724C40.9786 56.7244 41.0016 56.8735 41.0176 57.0235C38.6926 55.5685 35.5696 55.3825 33.3486 57.0585C32.9576 53.2715 27.5156 50.3595 20.6186 50.3595C13.4586 50.3595 7.84961 53.4925 7.84961 57.4925C7.84961 61.4905 13.4586 64.6255 20.6186 64.6255C27.3636 64.6255 32.7276 61.8425 33.3266 58.1785C36.0556 56.4485 38.6736 56.4945 41.2876 58.5635C41.3636 58.6245 41.4446 58.6555 41.5236 58.6725C43.0946 61.6155 47.9026 63.7035 53.7476 63.7035C60.9076 63.7035 66.5166 60.5704 66.5166 56.5724C66.5156 52.5724 60.9076 49.4395 53.7476 49.4395ZM20.6186 63.7035C14.0856 63.7035 8.76961 60.9165 8.76961 57.4925C8.76961 54.0665 14.0846 51.2794 20.6186 51.2794C27.1506 51.2794 32.4666 54.0665 32.4666 57.4925C32.4666 60.9165 27.1506 63.7035 20.6186 63.7035ZM53.7476 62.7834C47.2146 62.7834 41.8986 59.9964 41.8986 56.5724C41.8986 53.1464 47.2136 50.3595 53.7476 50.3595C60.2796 50.3595 65.5956 53.1464 65.5956 56.5724C65.5946 59.9964 60.2796 62.7834 53.7476 62.7834Z" fill="#422405"/>
</svg>
