<svg width="114" height="124" viewBox="0 0 114 124" fill="none" xmlns="http://www.w3.org/2000/svg">
<path d="M113.815 123.109H0C0.2 121.089 1.23299 114.09 6.34999 105.136C12.436 94.4814 39.546 95.9984 40.46 94.4814C40.853 93.8244 41.082 91.1464 41.219 88.3334C41.375 84.6784 41.375 80.7754 41.375 80.7754L56.908 85.3544L72.442 80.7754C72.442 80.7754 72.442 84.6324 72.597 88.2684C72.735 91.1014 72.955 93.8154 73.356 94.4814C74.27 95.9994 101.38 94.4814 107.466 105.136C112.583 114.09 113.615 121.089 113.815 123.109Z" fill="#CD8B6D"/>
<path d="M113.815 123.109H0C0.2 121.089 1.23299 114.09 6.34999 105.136C9.26499 100.029 17.004 97.7164 24.378 96.5294C30.025 95.6244 35.453 95.3684 38.34 95.0204C39.555 94.8744 40.323 94.7204 40.46 94.4814C40.46 94.4814 56.605 115.498 73.355 94.4814C73.511 94.7464 74.47 94.9204 75.978 95.0854C78.416 95.3414 82.291 95.5694 86.532 96.1084C94.673 97.1594 104.167 99.3614 107.466 105.136C112.583 114.09 113.615 121.089 113.815 123.109Z" fill="#390A0A"/>
<path d="M40.4421 92.043C40.4421 92.956 50.3311 102.094 57.4731 103.312L47.5841 115.496C47.5841 115.496 37.4211 101.79 34.6741 95.089L40.4421 92.043Z" fill="#ADC0E0"/>
<path d="M73.6787 92.043C73.6787 92.956 63.7897 102.094 56.6477 103.312L66.5367 115.496C66.5367 115.496 76.6997 101.79 79.4467 95.089L73.6787 92.043Z" fill="#ADC0E0"/>
<path d="M30.418 123.109H0C0.2 121.089 1.23299 114.09 6.34999 105.136C9.26499 100.029 17.004 97.7164 24.378 96.5294C27.814 105.172 30.08 114.227 30.418 123.109Z" fill="#ADC0E0"/>
<path d="M113.815 123.109H85.1703C84.0003 118.102 83.6613 112.959 84.0363 108.48C84.3743 104.423 85.2333 100.248 86.5313 96.1084C94.6723 97.1594 104.166 99.3614 107.465 105.136C112.583 114.09 113.615 121.089 113.815 123.109Z" fill="#ADC0E0"/>
<path d="M82.1537 68.924C81.8617 73.776 78.7277 77.943 74.8527 81.214C71.5917 83.974 67.7987 86.094 64.7477 87.445C58.0767 90.415 52.5207 88.934 52.5207 88.934C46.6817 87.216 42.2407 84.987 38.8687 82.511C27.6847 74.287 28.3157 63.358 29.1747 59.657C29.4497 58.461 29.5677 56.998 29.6227 55.299C29.8047 50.136 29.4857 42.827 31.7157 34.466C32.1177 32.958 32.6927 31.596 33.3967 30.372C37.9107 22.496 47.4957 19.965 47.4957 19.965C64.1527 9.20996 75.8127 19.782 79.6507 28.472C79.9167 29.057 80.1437 29.633 80.3267 30.199C82.0087 35.234 82.5657 43.759 82.6207 52.028C82.6657 58.371 82.4197 64.567 82.1537 68.924Z" fill="#E8B299"/>
<path opacity="0.4" d="M38.8697 82.5128C27.6857 74.2888 28.3167 63.3598 29.1757 59.6588C29.4507 58.4628 29.5687 56.9998 29.6237 55.3008C35.5457 59.5408 39.0997 63.9898 39.7937 72.5518C40.0667 75.8978 39.8757 79.3508 38.8697 82.5128Z" fill="#CD8B6D"/>
<path opacity="0.4" d="M82.1533 68.9243C81.8613 73.7763 78.7273 77.9433 74.8523 81.2143C73.5453 76.5173 73.2623 71.1263 73.6573 67.9843C74.1133 64.2833 77.8043 55.2643 82.6203 52.0293C82.6653 58.3713 82.4193 64.5673 82.1533 68.9243Z" fill="#CD8B6D"/>
<path d="M29.9551 49.069C29.9551 49.069 22.7561 36.904 19.7771 47.33C16.7971 57.756 23.9961 62.722 28.7131 61.729C33.4301 60.736 29.9551 49.069 29.9551 49.069Z" fill="#CD8B6D"/>
<path d="M29.0862 51.054C29.0862 51.054 24.1222 43.358 22.3832 46.461C20.6462 49.565 21.1422 53.537 21.1422 53.537C21.1422 53.537 22.1352 49.192 25.3632 51.674C25.3632 51.674 22.2592 58.626 28.5902 56.64C28.5902 56.64 31.1962 54.529 29.0862 51.054Z" fill="#B66C50"/>
<path d="M81.6532 49.068C81.6532 49.068 88.8512 36.904 91.8312 47.33C94.8102 57.756 87.6102 62.722 82.8952 61.729C78.1762 60.736 81.6532 49.068 81.6532 49.068Z" fill="#CD8B6D"/>
<path d="M81.7553 51.8655C81.7553 51.8655 86.7203 44.1685 88.4573 47.2715C90.1953 50.3765 89.6983 54.3465 89.6983 54.3465C89.6983 54.3465 88.7063 50.0035 85.4773 52.4855C85.4773 52.4855 88.5803 59.4365 82.2493 57.4515C82.2493 57.4515 79.6443 55.3405 81.7553 51.8655Z" fill="#B66C50"/>
<path d="M89.3551 27.596C88.2861 21.949 84.5491 16.393 79.6151 15.105C79.1671 14.986 78.7191 14.904 78.2621 14.868C76.1331 14.658 73.8111 15.252 71.4171 16.951C70.6961 17.463 70.2211 17.581 69.9281 17.427C69.4891 17.235 69.4161 16.476 69.4891 15.553C69.4891 15.553 69.4891 15.553 69.4891 15.544C69.5991 14.155 70.0201 12.383 70.0381 11.515C70.0841 9.13903 69.9921 6.96504 68.9961 4.76204C67.4711 1.39004 64.6751 0.0650267 61.0731 0.00202673C57.2721 -0.0709733 53.6171 1.83803 50.7301 4.11403C48.2351 6.07803 44.0141 11.14 40.5331 7.76902C38.7691 6.06903 37.3521 4.10403 35.4431 2.53303C28.7091 -3.01297 21.3991 4.00402 18.6031 10.09C18.1641 11.049 17.8171 12.054 17.5521 13.087C16.9941 15.298 16.8121 17.637 16.9041 19.967C16.9041 19.976 16.9041 19.986 16.9041 19.986C16.9401 21.192 17.0591 22.416 17.2331 23.605C17.1231 23.623 17.0231 23.641 16.9131 23.668C13.5781 24.591 13.5141 30.64 13.6971 33.208C13.9701 36.982 15.9081 40.39 18.5761 42.437C18.8501 42.657 19.1241 42.849 19.4171 43.031C21.4461 44.31 23.8031 44.822 26.1331 44.191C27.4301 46.868 29.7331 48.943 32.6671 48.458C35.6911 47.965 35.2801 42.245 35.3071 40.27C35.3441 38.361 35.6001 35.821 35.3621 33.472C37.3541 34.002 39.6761 33.692 41.1101 32.385C42.8921 30.777 45.5321 27.487 46.5011 24.317C49.3251 27.186 53.9211 28.347 56.8171 26.309C57.4211 29.625 59.7871 32.915 62.7481 33.573C65.8181 34.249 68.0841 31.609 69.6201 28.52C69.7011 31.956 70.4691 35.346 73.5401 36.305C75.6041 36.963 77.2031 36.04 78.3831 34.542C78.5471 40.116 80.0361 47.015 84.9431 45.068C90.0221 43.039 90.1401 31.717 89.3551 27.596Z" fill="#A16929"/>
<path d="M34.5388 21.2733C32.4748 27.3583 22.8338 33.2893 18.8688 25.5493C17.9638 23.7853 17.3148 21.9123 16.9048 19.9853C16.9048 19.9853 16.9048 19.9763 16.9048 19.9663C16.8128 17.6363 16.9948 15.2973 17.5528 13.0863C17.5168 15.0323 17.6628 16.9793 18.0008 18.8883C19.0608 24.7453 23.5928 32.0923 30.0808 25.7413C32.6478 23.2383 34.5668 19.3273 34.6848 15.6633C34.8048 12.0993 32.6388 7.51329 28.7278 10.3453C25.3298 12.8033 20.9698 19.3463 25.1918 22.9363C25.5298 23.2193 25.0998 23.7583 24.7348 23.5303C19.3898 20.2773 24.2138 11.7423 28.1438 9.34829C30.4638 7.94129 32.6928 7.76829 34.5938 9.86929C37.2798 12.8303 35.6268 18.0663 34.5388 21.2733Z" fill="#C98643"/>
<path d="M69.9276 17.4263C68.3836 19.6553 66.0636 21.4643 62.6926 22.5983C55.8296 24.9193 43.4386 23.0633 44.3986 13.4603C45.2386 5.19133 59.2746 5.40132 60.4996 13.3323C60.7646 15.0413 60.3896 19.1903 57.5386 18.4043C55.0526 17.7283 57.6566 14.2373 58.5166 13.5523C58.7906 13.3323 59.1646 13.5983 59.0006 13.9183C58.4056 15.0053 58.4986 14.9143 59.3016 13.6623C58.6906 12.6933 58.0776 11.7343 57.4656 10.7653C56.0666 9.39432 54.3676 8.63733 52.3756 8.49033C47.9626 8.63633 42.9086 13.2143 46.4826 17.8743C49.5996 21.9313 55.3366 23.4483 60.1886 22.1503C64.8216 20.9173 67.7546 18.5693 69.4906 15.5533C69.4166 16.4763 69.4896 17.2343 69.9276 17.4263Z" fill="#C98643"/>
<path d="M79.2861 33.902C74.6991 29.315 74.8631 20.506 78.2631 14.868C78.7201 14.905 79.1671 14.987 79.6161 15.105C78.4001 16.987 77.587 19.117 77.239 21.328C76.665 24.974 76.9111 31.828 80.9391 33.691C84.7601 35.464 86.0391 32.704 86.4041 30.337C86.9991 28.902 86.5781 27.806 85.1431 27.048C85.3811 27.395 85.609 27.742 85.847 28.081C86.112 28.428 85.7551 29.068 85.3271 28.757C81.0131 25.678 85.7461 22.26 87.2641 25.915C89.2731 30.758 84.6961 39.311 79.2861 33.902Z" fill="#C98643"/>
<path d="M33.1594 36.148C33.1864 39.803 29.8884 44.162 26.2424 40.973C24.6534 39.593 25.0544 35.327 27.5314 37.236C27.7774 37.418 27.7314 37.857 27.3664 37.857C24.7074 37.839 28.5904 45.24 31.4234 39.246C32.1534 37.71 32.5384 35.472 31.4144 33.992C28.0794 29.597 23.2454 35.802 21.8654 38.068C20.8704 39.703 20.0654 41.348 19.4164 43.029C19.1234 42.847 18.8494 42.655 18.5754 42.435C19.8274 38.853 21.8104 35.591 24.8984 33.005C28.0514 30.365 33.1234 31.498 33.1594 36.148Z" fill="#C98643"/>
<path d="M39.9595 40.528C37.0945 42.265 35.4475 46.513 37.1125 49.253C37.1935 49.386 37.4795 49.332 37.4585 49.174C37.1235 46.739 38.1055 44.1 39.9495 42.246C41.0905 41.1 42.6645 40.616 44.3765 40.498C46.2495 40.368 47.0955 42.055 48.5675 42.634C48.8735 42.753 49.2585 42.559 49.1565 42.248C48.0095 38.719 42.8455 38.778 39.9595 40.528Z" fill="#390A0A"/>
<path d="M49.925 48.4391C49.925 53.0081 47.121 56.7111 43.661 56.7111C40.202 56.7111 37.397 53.0071 37.397 48.4391C37.397 43.8691 40.202 40.1641 43.661 40.1641C47.12 40.1641 49.925 43.8691 49.925 48.4391Z" fill="white"/>
<path d="M48.5939 48.7081C48.5939 52.1091 46.4579 54.8681 43.8249 54.8681C41.1929 54.8681 39.0569 52.1091 39.0569 48.7081C39.0569 45.3061 41.1929 42.5471 43.8249 42.5471C46.4589 42.5481 48.5939 45.3061 48.5939 48.7081Z" fill="#7FADC4"/>
<path d="M47.8378 48.7811C47.8378 51.6521 46.0878 53.9781 43.9288 53.9781C41.7708 53.9781 40.0198 51.6521 40.0198 48.7811C40.0198 45.9121 41.7708 43.5861 43.9288 43.5861C46.0878 43.5861 47.8378 45.9121 47.8378 48.7811Z" fill="#390A0A"/>
<path d="M48.5944 44.3034C48.5944 44.8684 47.4894 45.3264 46.1274 45.3264C44.7664 45.3264 43.6614 44.8674 43.6614 44.3034C43.6614 43.7364 44.7664 43.2824 46.1274 43.2824C47.4894 43.2824 48.5944 43.7374 48.5944 44.3034Z" fill="white"/>
<path d="M71.7779 40.528C74.6409 42.265 76.2879 46.513 74.6249 49.253C74.5429 49.386 74.2569 49.332 74.2769 49.174C74.6119 46.739 73.6299 44.1 71.7879 42.246C70.6459 41.1 69.0729 40.616 67.3579 40.498C65.4859 40.368 64.6399 42.055 63.1679 42.634C62.8619 42.753 62.4789 42.559 62.5779 42.248C63.7259 38.719 68.8899 38.778 71.7779 40.528Z" fill="#390A0A"/>
<path d="M73.8898 48.439C73.8898 53.008 71.0848 56.711 67.6258 56.711C64.1668 56.711 61.3608 53.007 61.3608 48.439C61.3608 43.869 64.1668 40.164 67.6258 40.164C71.0858 40.164 73.8898 43.869 73.8898 48.439Z" fill="white"/>
<path d="M72.5607 48.708C72.5607 52.109 70.4237 54.868 67.7907 54.868C65.1587 54.868 63.0217 52.109 63.0217 48.708C63.0217 45.306 65.1587 42.547 67.7907 42.547C70.4247 42.548 72.5607 45.306 72.5607 48.708Z" fill="#7FADC4"/>
<path d="M71.8039 48.781C71.8039 51.652 70.0539 53.978 67.8929 53.978C65.7359 53.978 63.9849 51.652 63.9849 48.781C63.9849 45.912 65.7359 43.586 67.8929 43.586C70.0539 43.586 71.8039 45.912 71.8039 48.781Z" fill="#390A0A"/>
<path d="M72.5612 44.3033C72.5612 44.8683 71.4552 45.3263 70.0932 45.3263C68.7312 45.3263 67.6262 44.8673 67.6262 44.3033C67.6262 43.7363 68.7302 43.2823 70.0932 43.2823C71.4552 43.2823 72.5612 43.7373 72.5612 44.3033Z" fill="white"/>
<path d="M64.6751 59.123C63.1861 58.194 60.3811 57.899 58.6841 58.92C58.6801 58.128 58.6671 57.343 58.6031 56.548C58.4881 55.098 58.7601 51.979 57.2451 51.092C55.5011 50.071 54.0871 53.002 53.8131 54.233C53.4581 55.832 53.5921 57.598 53.8331 59.308C53.4961 59.034 53.1241 58.878 52.7091 58.698C51.6021 58.216 50.4151 57.605 49.1501 58.065C47.2501 58.756 47.3121 59.827 48.8941 61.032C51.6121 63.102 54.3111 64.972 57.9131 64.345C60.7251 63.855 63.5751 62.724 64.9181 60.044C65.0851 59.709 65.0021 59.326 64.6751 59.123Z" fill="#CD8B6D"/>
<path d="M31.9322 40.8735C31.8512 41.9685 36.5002 32.3455 51.1212 37.8285L50.8162 33.5635C50.8162 33.5635 33.1512 24.1215 31.9322 40.8735Z" fill="#6D3A12"/>
<path d="M81.2751 40.8735C81.3531 41.9685 76.7062 32.3455 62.0872 37.8285L62.3911 33.5635C62.3911 33.5635 80.0561 24.1215 81.2751 40.8735Z" fill="#6D3A12"/>
<path d="M69.4533 67.4547C69.4533 67.4547 57.0253 85.3367 43.7583 67.9937C43.7583 67.9937 55.3353 67.6367 56.6043 69.4367C56.6043 69.4367 63.7603 64.9227 69.4533 67.4547Z" fill="#B66C50"/>
<path d="M69.4533 67.4551C69.4533 67.4551 57.0253 85.3371 43.7583 67.9941C43.7583 67.9941 55.8003 74.8471 69.4533 67.4551Z" fill="#CD8B6D"/>
<path d="M48.9868 70.1142C48.9868 70.1142 60.2568 72.2452 65.1308 69.2002C65.1308 69.2002 58.7338 77.7272 48.9868 70.1142Z" fill="white"/>
<path d="M69.5394 66.4874C68.8074 65.7194 68.0003 65.2704 66.9583 65.1864C66.6163 65.1604 66.4533 65.7114 66.7773 65.8524C68.4883 66.5824 69.1284 68.7034 70.7564 69.4764C71.0244 69.6034 71.2744 69.3974 71.2284 69.1144C71.0584 68.0504 70.2564 67.2384 69.5394 66.4874Z" fill="#B66C50"/>
<path d="M45.6377 66.2484C43.9477 66.3304 42.8777 67.8804 42.2407 69.2994C42.0727 69.6724 42.4137 70.0444 42.7977 69.8564C43.4017 69.5594 43.7867 69.0684 44.2057 68.5554C44.6657 67.9914 45.2247 67.5004 45.8967 67.2074C46.3727 66.9994 46.1267 66.2244 45.6377 66.2484Z" fill="#B66C50"/>
<path d="M58.4912 83.9088C57.7702 83.3608 56.1422 82.8098 55.6912 83.9978C55.2442 85.1768 56.7122 85.4728 57.5722 85.2378C57.7812 85.1808 57.7582 84.9038 57.5722 84.8388C57.2292 84.7178 56.8642 84.6338 56.5302 84.4918C56.8382 84.0748 57.1842 84.0028 57.5682 84.2748C57.7512 84.3648 57.9272 84.4688 58.0942 84.5878C58.9712 85.1548 59.2522 86.2018 58.5302 87.0358C57.5532 88.1648 55.5452 86.7648 54.9492 85.9098C53.5052 83.8348 54.9902 78.4948 58.0572 79.2008C58.3962 79.2798 58.5052 78.8158 58.1962 78.6918C53.4382 76.7748 51.8182 87.4098 57.2502 88.0358C58.1882 88.1438 59.1552 87.8018 59.5122 86.8518C60.0002 85.5518 59.5442 84.7098 58.4912 83.9088Z" fill="#CD8B6D"/>
<path d="M53.4905 64.8337C52.6535 64.3567 51.2925 64.7127 50.3905 64.7747C49.7815 64.8157 49.1705 64.8157 48.5615 64.8427C48.3375 64.8537 48.1125 64.8467 47.8895 64.8587C47.8445 64.8617 47.7985 64.8597 47.7525 64.8557C47.5315 64.6977 47.1915 64.7077 47.0415 64.9927C46.3975 66.2067 48.7265 66.3537 49.4275 66.3657C50.4715 66.3837 53.0565 66.6277 53.6595 65.4787C53.7785 65.2527 53.7215 64.9637 53.4905 64.8337Z" fill="#A16929"/>
<path d="M64.8288 63.3247C64.0158 63.3087 63.2868 63.7336 62.5288 63.9786C61.6378 64.2666 60.7128 64.4697 59.8068 64.7037C59.0908 64.8877 59.4128 65.8747 60.1018 65.7767C61.6438 65.5607 64.2978 65.4367 65.1668 63.9157C65.3168 63.6527 65.1268 63.3307 64.8288 63.3247Z" fill="#A16929"/>
</svg>
