<svg width="120" height="134" viewBox="0 0 120 134" fill="none" xmlns="http://www.w3.org/2000/svg">
<path d="M117.16 75.1165C115.398 77.2745 112.09 80.1305 109.347 77.5655C111.845 81.2315 110.394 86.4525 107.322 89.7975C107.03 90.1175 106.728 90.4185 106.408 90.6925C104.967 91.9735 103.26 92.8505 101.48 93.0385C98.9924 93.3125 96.5504 92.3605 94.0354 92.5505C91.8774 92.7105 90.2664 92.0035 89.1264 90.0715C91.7744 94.5555 85.0934 98.5425 77.5084 99.8525L76.2544 100.05C68.8004 101.021 60.9324 99.3425 60.4414 93.0005C60.5444 94.3205 58.6504 96.4495 57.8224 97.3075C56.5314 98.6455 54.9864 99.6925 53.3184 100.503C49.9824 102.124 45.4964 103.292 41.2364 103.169C40.8324 103.159 40.4174 103.132 40.0114 103.095C37.1184 102.839 34.3964 101.935 32.2844 100.116C29.5144 97.7305 29.9384 93.0105 31.3424 89.9475C30.8234 91.0785 27.4224 91.0315 26.4894 90.9555C24.4444 90.7955 22.3804 90.2115 20.4584 89.5045C18.3104 88.7235 16.0584 87.7425 14.1734 86.3485C14.0234 86.2355 13.8714 86.1125 13.7214 85.9985C12.7984 85.2545 11.9684 84.4065 11.3084 83.4165C9.24542 80.3075 8.99941 75.3595 10.7814 72.0235C1.50041 70.1215 -2.61857 59.4725 1.74443 51.5655C3.32843 48.6825 6.65441 45.7425 10.2164 47.6735C2.55541 43.5185 10.3484 35.7535 14.8624 32.9445C17.6804 31.2025 22.4114 28.8175 25.6714 30.9005C25.0504 30.5035 30.0154 24.3035 30.4784 23.7755C31.2414 22.9095 32.0424 22.0805 32.8994 21.3075C33.8324 20.4685 34.8224 19.7045 35.8864 19.0925L35.8964 19.0825C37.5734 18.0935 39.4024 17.4245 41.4474 17.2825C41.8614 17.2445 46.1214 17.7075 46.0924 17.7545C48.0054 14.3245 51.9354 11.3565 55.4124 12.5155C55.8464 12.6565 56.2784 12.8735 56.6934 13.1565C57.5504 13.7315 58.3514 14.6075 59.0584 15.8515C59.6054 15.1545 60.1794 14.5025 60.8014 13.9185C61.1964 13.5325 61.6024 13.1745 62.0274 12.8545C65.2674 10.3295 69.2634 9.49153 73.3344 12.0445C73.5614 12.1855 73.7684 12.3175 73.9664 12.4585C74.6084 12.9015 75.1354 13.3155 75.5874 13.7205C75.5874 13.7205 75.5964 13.7205 75.5964 13.7315C78.4514 16.2475 78.2634 17.8495 83.7094 17.0095C87.1314 16.4915 90.5314 15.8605 94.0004 15.8315C99.7854 15.7755 105.788 17.8955 107.682 23.8975C108.483 26.4325 108.352 29.2215 107.258 31.6525C106.477 33.3965 104.375 36.6755 102.509 37.4105C102.877 37.7495 103.206 38.0895 103.498 38.4295C103.734 38.7115 103.988 39.0875 104.242 39.5315C108.388 42.6215 110.707 49.2745 110.603 54.2395C118.093 58.1455 123.144 67.7565 117.16 75.1165Z" fill="#92561A"/>
<path d="M31.9857 46.2907C33.0507 49.1647 34.8316 52.8297 34.3026 56.0047C33.8776 58.5027 32.6436 59.9907 30.0616 60.3037C22.7886 61.1687 18.4156 65.5047 16.3706 72.5067C15.1366 76.7647 14.4197 81.5147 14.1757 86.3487C14.0257 86.2357 13.8736 86.1127 13.7236 85.9987C13.8176 80.9577 14.1097 75.6807 15.8907 70.9497C17.5317 66.5967 19.8297 62.4697 24.2017 60.4907C25.7197 59.8027 27.3686 59.5007 29.0086 59.3027C34.2576 58.6527 33.4186 53.8947 32.1376 50.1527C28.6516 39.9957 26.0776 30.5437 32.9006 21.3087C33.8336 20.4697 34.8236 19.7057 35.8876 19.0937C33.4756 21.8557 31.4586 24.9077 30.4966 28.0827C28.6496 34.2097 29.7887 40.4107 31.9857 46.2907Z" fill="#B5894B"/>
<path d="M60.9124 66.7395C61.4024 76.2375 54.6653 81.7025 48.5313 87.8295C44.6763 91.6825 39.8423 97.2145 41.2363 103.17C40.8323 103.16 40.4174 103.133 40.0114 103.096C39.7774 101.739 39.8333 100.268 40.2283 98.7126C43.1773 87.2246 58.0194 82.6835 59.6404 70.8665C61.5814 56.6375 45.7503 46.9785 45.6943 32.6565C45.6663 24.4855 49.6323 17.6535 55.4103 12.5185C55.8443 12.6595 56.2763 12.8765 56.6913 13.1595C49.4163 19.5865 44.5154 27.9915 47.7574 38.6305C49.5754 44.6335 52.9404 49.5055 56.1444 54.7915C58.3034 58.3625 60.6964 62.4425 60.9124 66.7395Z" fill="#B5894B"/>
<path d="M77.5089 99.8523C73.4089 94.8383 71.7319 87.4123 73.6449 80.5813C76.5089 70.3583 86.4139 62.0833 83.2009 50.8143C80.6759 41.9933 69.5269 37.4233 64.2979 30.2993C60.5279 25.1633 60.3029 18.8783 62.0269 12.8573C61.6019 13.1773 61.1969 13.5363 60.8009 13.9213C59.9429 17.7943 59.8589 21.7523 60.8189 25.4373C63.9579 37.4233 79.3169 40.7503 82.6719 52.4623C84.9719 60.5103 77.6589 68.7844 74.5029 75.6904C71.9579 81.2584 70.8459 86.9793 72.5619 92.9263C73.3339 95.6193 74.6069 98.0333 76.2549 100.049L77.5089 99.8523Z" fill="#B5894B"/>
<path d="M107.324 89.7979C107.032 90.1179 106.73 90.4188 106.41 90.6928C104.177 88.9608 102.33 86.9629 101.274 85.2458C94.1118 73.5998 100.642 60.6328 100.558 48.1758C100.52 42.3238 99.6708 35.9349 96.0348 31.1189C92.0388 25.8239 86.6588 24.4288 81.1368 21.4418C77.7638 19.6128 74.3618 16.8338 73.9848 12.6868C73.9758 12.6118 73.9758 12.5368 73.9658 12.4618C74.6078 12.9048 75.1348 13.3188 75.5868 13.7238C75.5868 13.7238 75.5958 13.7238 75.5958 13.7348C76.1998 15.9108 77.4908 17.8338 79.7048 19.1998C83.1628 21.3198 87.2048 22.2998 90.6068 24.4758C96.8728 28.4718 100.134 34.4838 101.349 41.7108C103.045 51.8598 99.1068 61.4158 99.0688 71.4698C99.0408 77.9148 100.737 84.3408 105.883 88.6578C106.325 89.0348 106.805 89.4118 107.324 89.7979Z" fill="#B5894B"/>
<path d="M86.1298 127.412C86.1298 127.412 35.6768 140.693 30.9128 128.566C30.7128 128.048 34.0048 110.271 44.3208 105.49C45.0478 105.144 45.8368 104.84 46.6668 104.58C48.6158 103.982 50.8508 104.598 53.4328 104.572L60.2998 105.185C60.3098 105.185 60.3178 105.185 60.3178 105.185L65.7738 103.919C65.7738 103.919 66.9438 103.562 68.7368 104.228C68.7548 104.228 68.7798 103.983 68.7968 103.993C69.3598 104.21 69.9838 104.344 70.6508 104.674C70.8148 104.76 70.9888 104.781 71.1528 104.871C71.6728 105.146 72.2098 105.427 72.7558 105.772C73.3708 106.161 74.0118 106.596 74.6708 107.106C74.8868 107.28 75.1028 107.446 75.3188 107.628C79.4598 111.092 83.8678 117.087 86.1298 127.412Z" fill="#909C4C"/>
<path d="M75.3203 107.619C58.4493 136.617 47.5523 114.019 44.3223 105.488C45.0493 105.142 45.8382 104.838 46.6682 104.578C48.6172 103.98 50.8523 104.596 53.4343 104.57L60.3013 105.183C60.3113 105.183 60.3192 105.183 60.3192 105.183C63.2462 105.183 66.1733 105.183 68.7383 106.183H68.7982C69.3612 106.183 69.9853 105.437 70.6523 105.775C70.8163 105.861 70.9903 105.332 71.1543 105.42C71.6743 105.695 72.2113 105.702 72.7573 106.056C73.3723 106.447 74.0133 106.742 74.6723 107.246C74.8873 107.418 75.1033 107.438 75.3203 107.619Z" fill="white"/>
<path d="M72.7557 105.749C72.3307 111.032 66.9698 116.437 62.1028 117.841C56.2118 119.529 50.6007 114.861 48.5127 109.724C48.0017 108.468 47.1887 106.433 46.6667 104.579C48.6157 103.981 50.8507 103.618 53.4327 103.593L65.7747 102.943C65.7747 102.943 68.8837 103.289 72.7557 105.749Z" fill="#CD8B6D"/>
<path d="M52.1318 92.3322C52.1318 92.3322 54.0828 104.24 52.5678 107.922C52.5678 107.922 60.3628 111.604 65.3418 108.354C65.3418 108.354 63.8258 97.5282 64.0418 92.1162L52.1318 92.3322Z" fill="#CD8B6D"/>
<path d="M83.2198 59.5753C83.2198 59.5753 93.2898 54.3643 92.9428 63.0463C92.5948 71.7283 80.7888 71.7283 80.7888 71.7283L83.2198 59.5753Z" fill="#CD8B6D"/>
<path d="M82.991 63.5533C82.991 63.5533 88.8019 59.0283 89.2999 61.8463C89.7949 64.6623 88.3649 67.5473 88.3649 67.5473C88.3649 67.5473 88.7629 63.9843 85.6539 65.0143C85.6539 65.0143 86.1649 71.1163 81.8839 67.9283C81.8839 67.9283 80.464 65.6333 82.991 63.5533Z" fill="#B66C50"/>
<path d="M33.5968 59.5759C33.5968 59.5759 23.5258 54.3649 23.8718 63.0489C24.2198 71.7289 36.0268 71.7289 36.0268 71.7289L33.5968 59.5759Z" fill="#CD8B6D"/>
<path d="M33.8263 63.5558C33.8263 63.5558 28.0133 59.0288 27.5163 61.8468C27.0203 64.6628 28.4513 67.5478 28.4513 67.5478C28.4513 67.5478 28.0533 63.9848 31.1623 65.0148C31.1623 65.0148 30.6503 71.1168 34.9293 67.9288C34.9293 67.9288 36.3503 65.6338 33.8263 63.5558Z" fill="#B66C50"/>
<path d="M84.4653 79.6458C83.7813 84.5328 80.0633 88.1258 76.3033 90.8798C72.3443 93.7778 68.1043 97.2078 63.2133 98.2798C59.9813 98.9888 57.6003 97.9458 54.5223 97.3328C24.5813 91.3798 30.8813 68.4438 32.2823 64.4108C33.6893 60.3858 36.1393 39.5528 36.6633 36.0488C36.7343 35.5988 36.8373 35.1078 36.9643 34.6108C37.8333 31.2728 39.8183 27.2888 39.8183 27.2888C40.6173 26.4898 41.5263 25.8028 42.5213 25.2338C45.8413 23.2808 50.0973 22.5128 54.3893 22.3938C54.4133 22.4018 54.4373 22.3938 54.4523 22.3938C58.6753 22.2828 62.9203 22.8058 66.3603 23.4688C68.6283 23.9108 70.5423 24.4098 71.8543 24.8368C72.9773 25.1998 73.9973 26.2358 74.9303 27.7238C76.0923 29.5738 77.1123 32.1338 78.0043 34.9498C80.1953 41.8528 81.6273 50.3508 82.5353 54.0838C84.1173 60.5598 85.5163 72.1198 84.4653 79.6458Z" fill="#E8B299"/>
<path d="M95.5654 57.6945C87.0654 67.5655 77.9854 53.4855 81.8454 44.7755C76.9554 47.4355 67.7854 49.7455 66.9464 41.7955C66.8254 40.7055 68.3364 39.5665 68.2654 38.4955C68.1964 37.3655 67.2554 36.6765 67.1654 35.7755C67.0744 34.9255 66.8854 34.2055 66.7254 33.5045C64.4854 35.9655 58.8664 37.2755 56.1554 33.7545C56.5264 38.9355 52.7554 45.1455 48.0054 46.7655C45.8454 47.5045 41.6654 46.5755 40.8654 44.9055C36.8754 50.2055 27.4454 53.4505 23.1754 47.6515C22.4044 46.6005 21.9044 45.1855 21.6254 44.1855H22.0574V43.5655C22.0574 43.1755 22.0574 42.7755 21.5864 42.3745C21.4564 42.2445 21.0574 42.1355 21.0574 42.0155V41.9955C21.0574 41.8255 21.2064 41.6455 21.2064 41.4755L21.0574 41.4355V41.4255C21.0574 34.9145 24.3304 26.5955 28.9714 22.9655C27.0714 18.9255 32.0134 11.8555 37.7244 6.80554C37.7444 6.79454 37.7794 6.79454 37.7794 6.79454C38.3294 6.31554 38.8924 5.84554 39.4534 5.41454C42.7324 2.80554 46.1204 0.994542 48.4994 0.904542C53.1594 0.715542 56.5774 3.12953 58.5774 6.34953C61.9584 2.74053 66.7664 0.184541 71.3864 0.184541H71.3964C71.9564 0.184541 72.4964 -0.0494619 73.0374 0.00953812C74.9774 0.169538 76.8474 0.67654 78.5174 1.82654C85.1674 6.42654 89.0874 21.4755 83.9574 28.2355C86.1774 29.1855 88.3264 31.1845 90.2774 32.1845C90.2774 32.1845 90.2774 32.1845 90.2874 32.1845C90.3264 32.1845 90.3674 32.1795 90.4064 32.2695C90.6974 32.9105 90.9764 32.6465 91.2564 32.9065C91.2864 32.9355 91.3254 32.9105 91.3574 32.9505C98.3754 39.5305 102.175 50.0155 95.5654 57.6945Z" fill="#B5894B"/>
<path d="M21.616 43.6048C26.166 47.5848 34.765 42.4948 37.515 38.4848C39.946 34.9248 40.744 29.4148 37.485 26.1548C34.645 23.3148 29.905 26.7848 27.916 28.9258C26.315 30.6458 24.516 36.2158 28.256 36.9858C30.566 37.4668 34.256 35.7558 33.086 32.9358C32.886 32.4658 32.107 32.4658 32.116 33.0658C32.286 38.2948 26.706 33.3258 28.376 30.5358C29.126 29.2858 30.396 28.3658 31.626 27.6558C33.756 26.4268 35.776 25.7058 37.575 28.4158C39.186 30.8358 37.975 34.4368 36.905 36.7668C35.135 40.6068 30.905 43.0458 26.836 43.5668C24.325 43.8868 22.546 42.9968 21.366 41.4268L21.616 43.6048Z" fill="#DEA864"/>
<path d="M63.4467 23.9441C57.6867 33.7641 40.4567 28.5031 36.8157 19.4841C35.0867 15.2041 35.9057 10.7841 37.8057 6.80408C37.8157 6.79308 37.8157 6.79308 37.8157 6.79308C38.3667 6.31408 38.9167 5.84409 39.4757 5.41309C38.2057 7.55409 37.2557 9.86308 36.9157 12.3331C35.8247 20.0941 41.9157 26.5431 49.5057 27.6441C53.6657 28.2441 58.7057 27.7141 61.5267 24.1141C65.2657 19.3541 62.0057 14.1541 57.3367 11.8141C55.3967 10.8341 52.6767 9.54308 50.4057 9.77408C48.1967 10.0031 42.5957 12.2041 44.7867 15.6441C45.5067 16.7741 50.3957 21.9541 50.6667 17.7341C50.7167 16.9441 51.8467 16.9441 51.8957 17.7341C52.3357 24.7241 38.0957 16.5141 44.7157 10.7151C52.4757 3.93509 69.3057 13.9351 63.4467 23.9441Z" fill="#DEA864"/>
<path d="M78.0855 25.8149C74.5355 25.7939 70.8055 22.0349 69.7055 18.9049C68.0555 14.2449 67.9655 8.93487 69.5155 4.22587C69.9555 2.88587 70.5655 1.18487 71.3855 0.184866H71.3955C71.9555 0.184866 72.4955 -0.0451319 73.0365 0.0148681C72.9165 0.194868 72.7965 0.293864 72.6765 0.494864C71.7455 2.11386 70.9855 3.80387 70.5965 5.64487C69.7865 9.42387 69.4265 13.7609 70.7455 17.4909C71.7665 20.3709 73.8865 23.3769 77.1065 24.0869C81.6265 25.0769 81.8565 20.2809 81.6455 17.7599C81.4955 15.8699 81.3565 13.0179 79.6865 11.7179C78.9465 11.1379 74.5455 16.3659 78.3855 17.6869C78.7255 17.8059 78.8055 18.3849 78.3855 18.4549C73.4855 19.2749 76.1655 8.08386 79.8155 10.2249C84.6655 13.0649 85.0655 25.8349 78.0855 25.8149Z" fill="#DEA864"/>
<path d="M95.1449 51.8549C94.3149 53.4849 91.5949 54.704 89.8659 53.845C87.6659 52.735 86.7059 50.125 86.2249 47.8549C85.1159 42.6449 85.4459 35.3749 90.4049 32.0439C90.6959 32.6849 90.9749 32.5339 91.2549 32.7939C91.2849 32.8239 91.3239 32.855 91.3559 32.895C91.2449 32.995 91.1259 33.105 91.0149 33.215C88.7949 35.435 86.8659 38.774 86.8949 42.024C86.9159 44.574 87.1859 47.324 88.1859 49.694C88.9649 51.554 90.6749 53.863 92.9249 52.134C94.4449 50.764 94.9939 49.1139 94.5649 47.1629C94.4749 45.6229 93.6859 45.2029 92.1959 45.8929C91.9359 46.6219 90.8759 46.332 91.0359 45.573C91.4659 43.453 92.7859 42.653 94.5559 44.073C96.7849 45.865 96.2449 49.705 95.1449 51.8549Z" fill="#DEA864"/>
<path d="M62.8306 58.7288C62.8306 63.3328 66.5636 67.0628 71.1666 67.0628C75.7696 67.0628 79.5005 63.3328 79.5005 58.7288C79.5005 54.1258 75.7686 50.3948 71.1666 50.3948C66.5636 50.3938 62.8306 54.1248 62.8306 58.7288Z" fill="white"/>
<path d="M77.4012 58.9028C77.4012 62.7038 74.6182 65.7858 71.1862 65.7858C67.7532 65.7858 64.9712 62.7038 64.9712 58.9028C64.9712 55.1018 67.7532 52.0198 71.1862 52.0198C74.6172 52.0188 77.4012 55.1018 77.4012 58.9028Z" fill="#95BCD1"/>
<path d="M75.6023 58.9028C75.6023 61.6018 73.6252 63.7948 71.1862 63.7948C68.7472 63.7948 66.7703 61.6018 66.7703 58.9028C66.7703 56.2018 68.7472 54.0098 71.1862 54.0098C73.6252 54.0098 75.6023 56.2018 75.6023 58.9028Z" fill="#141E62"/>
<path d="M75.8807 54.2717C75.8807 55.0057 74.8607 55.6037 73.6037 55.6037C72.3437 55.6037 71.3247 55.0057 71.3247 54.2717C71.3247 53.5377 72.3447 52.9407 73.6037 52.9407C74.8617 52.9407 75.8807 53.5377 75.8807 54.2717Z" fill="white"/>
<path d="M74.618 49.0958C78.768 50.3068 82.981 56.8458 79.616 60.6788C79.325 61.0108 78.649 60.7648 78.703 60.3018C79.155 56.4188 78.301 53.3608 74.739 51.2438C72.237 49.7578 68.582 50.5518 66.425 52.2918C65.247 53.2438 64.633 54.6888 63.425 55.6398C63.239 55.7848 62.902 55.7158 62.917 55.4288C63.214 49.8698 70.064 47.7668 74.618 49.0958Z" fill="#141E62"/>
<path d="M36.8484 58.7285C36.8484 63.3325 40.5784 67.0625 45.1824 67.0625C49.7844 67.0625 53.5164 63.3325 53.5164 58.7285C53.5164 54.1255 49.7844 50.3945 45.1824 50.3945C40.5784 50.3935 36.8484 54.1245 36.8484 58.7285Z" fill="white"/>
<path d="M50.8751 58.9025C50.8751 62.7035 48.2141 65.7855 44.9311 65.7855C41.6481 65.7855 38.9871 62.7035 38.9871 58.9025C38.9871 55.1015 41.6481 52.0195 44.9311 52.0195C48.2141 52.0195 50.8751 55.1015 50.8751 58.9025Z" fill="#95BCD1"/>
<path d="M49.1548 58.9028C49.1548 61.6018 47.2648 63.7948 44.9308 63.7948C42.5978 63.7948 40.7068 61.6018 40.7068 58.9028C40.7068 56.2018 42.5978 54.0098 44.9308 54.0098C47.2648 54.0098 49.1548 56.2018 49.1548 58.9028Z" fill="#141E62"/>
<path d="M49.422 54.2715C49.422 55.0055 48.446 55.6035 47.242 55.6035C46.039 55.6035 45.062 55.0055 45.062 54.2715C45.062 53.5375 46.039 52.9405 47.242 52.9405C48.447 52.9405 49.422 53.5375 49.422 54.2715Z" fill="white"/>
<path d="M41.4186 49.0958C37.2696 50.3068 33.0556 56.8458 36.4226 60.6788C36.7136 61.0108 37.3897 60.7648 37.3347 60.3018C36.8827 56.4188 37.7377 53.3608 41.2997 51.2438C43.8017 49.7578 47.4577 50.5518 49.6126 52.2918C50.7936 53.2438 51.4057 54.6888 52.6147 55.6398C52.7997 55.7848 53.1377 55.7158 53.1227 55.4288C52.8257 49.8698 45.9756 47.7668 41.4186 49.0958Z" fill="#141E62"/>
<path d="M47.7396 67.0447C47.7396 68.2417 45.1226 69.2107 41.8936 69.2107C38.6636 69.2107 36.0466 68.2417 36.0466 67.0447C36.0466 65.8497 38.6626 64.8787 41.8936 64.8787C45.1216 64.8787 47.7396 65.8497 47.7396 67.0447Z" fill="#A22D40"/>
<path d="M82.3842 66.1797C82.3842 67.3767 79.7662 68.3457 76.5372 68.3457C73.3092 68.3457 70.6912 67.3767 70.6912 66.1797C70.6912 64.9847 73.3082 64.0137 76.5372 64.0137C79.7662 64.0137 82.3842 64.9847 82.3842 66.1797Z" fill="#A22D40"/>
<path d="M54.45 65.5279C54.45 65.5279 56.4699 68.4169 58.7809 68.9929C61.0899 69.5689 63.4 64.9519 62.534 65.5279C61.667 66.1039 59.646 46.7629 54.45 65.5279Z" fill="#CD8B6D"/>
<path d="M73.2979 71.0339C72.3979 70.7679 71.537 70.7879 70.616 70.8969C70.204 70.9439 70.0159 71.6219 70.5089 71.6939C70.9929 71.7619 71.476 71.8929 71.952 72.0359C70.279 74.4009 67.7289 73.6119 67.7289 73.6119C58.2019 71.3009 52.7149 73.6119 50.1169 74.1899C48.7189 74.5009 47.9189 74.4749 47.4659 74.3869C47.9339 74.1569 48.3549 73.8789 48.6319 73.4669C48.7589 73.2779 48.5869 73.0489 48.3859 73.0389C47.1689 72.9759 45.9879 74.1349 45.0499 74.7809C44.7159 75.0099 45.0169 75.5489 45.3709 75.3299C45.8999 75.0039 46.5849 74.7849 47.2159 74.5039C62.6589 92.4899 72.0979 74.8539 72.4759 72.1949C72.5499 72.2199 72.6259 72.2439 72.6999 72.2649C73.3479 72.4699 74.0839 73.0559 74.7729 72.8669C74.9449 72.8199 75.101 72.6439 75.086 72.4569C75.017 71.6019 74.0209 71.2439 73.2979 71.0339Z" fill="#A22D40"/>
<path d="M52.4275 76.4987C52.4275 76.4987 57.6235 75.0557 62.5325 75.6337C62.5325 75.6337 66.2855 76.2097 67.7285 75.6337C67.7285 75.6337 59.6455 83.7147 52.4275 76.4987Z" fill="white"/>
<path d="M81.5437 48.4501C81.7877 48.8241 72.9897 39.2461 65.0867 45.0941C65.0867 45.0941 71.6907 33.4001 81.5437 48.4501Z" fill="#92561A"/>
<path d="M36.66 48.315C36.416 48.689 45.213 39.1131 53.117 44.9601C53.117 44.9601 46.512 33.267 36.66 48.315Z" fill="#92561A"/>
<path d="M31.049 79.172C30.238 80.018 28.895 80.047 28.047 79.235L24.507 75.838C23.66 75.028 23.633 73.682 24.444 72.838L27.839 69.297C28.652 68.449 29.995 68.422 30.841 69.234L34.382 72.629C35.228 73.442 35.255 74.785 34.445 75.631L31.049 79.172Z" fill="white"/>
<path d="M89.049 78.172C88.238 79.018 86.895 79.047 86.047 78.235L82.507 74.838C81.66 74.028 81.633 72.682 82.444 71.838L85.839 68.297C86.652 67.449 87.995 67.422 88.841 68.234L92.382 71.629C93.228 72.442 93.255 73.785 92.445 74.631L89.049 78.172Z" fill="white"/>
</svg>
