<svg width="80" height="135" viewBox="0 0 80 135" fill="none" xmlns="http://www.w3.org/2000/svg">
<path d="M76.4932 127.78C76.4932 127.78 14.0862 142.194 8.18721 129.92C7.94821 129.404 11.7702 111.993 23.6362 107.993H23.6462C24.0182 107.993 24.3892 106.692 24.7792 106.55C25.6752 106.198 26.6482 105.41 27.6752 105.144C30.0862 104.542 32.8522 105.277 36.0442 105.248L44.5442 105.994C44.5562 105.994 44.5652 105.994 44.5652 105.994L51.3122 104.35C51.3122 104.35 52.7602 103.814 54.9722 104.482C55.0002 104.482 55.0292 104.155 55.0482 104.155C55.7432 104.375 56.5152 104.462 57.3452 104.795C57.5442 104.89 57.7642 104.889 57.9632 104.975C58.6132 105.252 59.2692 105.532 59.9452 105.874C60.6902 106.265 61.4622 106.691 62.2532 107.186C62.2722 107.197 62.2902 107.211 62.3102 107.22C62.5862 107.392 62.8542 107.558 63.1212 107.741C68.2392 111.258 73.6902 117.326 76.4932 127.78Z" fill="#AC0002"/>
<path d="M62.2545 107.176L42.4985 120.976L23.6465 106.061C24.0185 105.89 24.3895 105.728 24.7795 105.585C25.6755 105.231 26.6485 104.928 27.6755 104.659C30.0865 104.06 32.8525 105.036 36.0445 105.006L44.5445 105.993C44.5565 105.993 44.5655 105.993 44.5655 105.993L51.3125 104.349C51.3125 104.349 52.7605 103.813 54.9725 104.481C55.0005 104.481 55.0295 104.154 55.0485 104.154C55.7435 104.374 56.5155 104.461 57.3455 104.794C57.5445 104.889 57.7645 104.888 57.9635 104.974C58.6135 105.251 59.2695 105.531 59.9455 105.873C60.6925 106.266 61.4635 106.681 62.2545 107.176Z" fill="white"/>
<path d="M59.9467 105.845C52.3467 109.861 42.4997 115.579 42.4997 115.579C42.4997 115.579 28.3207 106.538 27.6777 104.66C30.0887 104.055 32.8527 103.689 36.0467 103.661L51.3127 103.004C51.3127 103.004 55.1577 103.354 59.9467 105.845Z" fill="#CD8B6D"/>
<path d="M34.4421 93.2122C34.4421 93.2122 36.4151 105.27 34.8801 108.998C34.8801 108.998 42.7761 112.727 47.8181 109.436C47.8181 109.436 46.2831 98.4752 46.5031 92.9922L34.4421 93.2122Z" fill="#CD8B6D"/>
<path d="M15.9252 61.7571C14.2832 58.5501 13.5372 53.4641 10.1462 51.4171C6.03822 48.9321 2.91221 54.2781 1.27621 57.3481C-0.380789 60.4561 -1.07578 65.9991 3.32722 67.3141C6.71322 68.3281 14.1992 66.2081 16.2192 63.2221L15.9252 61.7571Z" fill="#CD8B6D"/>
<path d="M12.3735 58.9367C12.3735 58.9367 7.22155 50.9487 5.41855 54.1697C3.61455 57.3917 4.12955 61.5107 4.12955 61.5107C4.12955 61.5107 5.16054 57.0047 8.50954 59.5807C8.50954 59.5807 5.28755 66.7937 11.8595 64.7347C11.8595 64.7347 14.5645 62.5437 12.3735 58.9367Z" fill="#B66C50"/>
<path d="M63.3992 61.7572C65.0412 58.5502 65.7882 53.4641 69.1782 51.4151C73.2882 48.9321 76.4122 54.2782 78.0482 57.3482C79.7042 60.4542 80.4012 65.9981 75.9972 67.3161C72.6132 68.3261 65.1272 66.2081 63.1062 63.2211L63.3992 61.7572Z" fill="#CD8B6D"/>
<path d="M66.9515 58.9349C66.9515 58.9349 72.1045 50.9489 73.9075 54.1679C75.7125 57.3899 75.1965 61.5109 75.1965 61.5109C75.1965 61.5109 74.1655 57.0029 70.8165 59.5809C70.8165 59.5809 74.0365 66.7939 67.4665 64.7329C67.4665 64.7329 64.7625 62.5439 66.9515 58.9349Z" fill="#B66C50"/>
<path d="M68.3722 55.9533C68.2772 57.0613 68.1522 58.1673 68.0192 59.2753C67.1702 66.3643 66.1502 73.4313 64.5702 80.3733C61.5952 93.4333 47.1192 99.8613 41.9632 99.4253C15.3742 95.4343 13.9922 75.0513 14.1812 72.8373C14.4952 69.3673 13.9532 65.6083 13.7522 62.1493C13.6462 60.3073 13.3992 58.4133 13.1702 56.5293C13.0562 55.5613 12.9402 54.5823 12.8462 53.6123C12.6372 51.3543 12.5612 49.1093 12.8742 46.9283C12.8932 46.7783 12.9232 46.6293 12.9402 46.4813C13.4372 43.3183 14.3522 40.0613 15.4292 37.1233C18.8042 27.9483 23.7492 15.3893 33.4982 15.1873C35.7772 15.1343 39.9602 17.8663 42.2082 18.6443C45.4682 19.7413 53.4072 18.7503 56.1622 20.6033C62.2902 24.7433 63.6152 32.2063 66.6752 39.7433C67.6482 42.1483 68.1902 44.5543 68.4472 47.0013C68.7632 49.9403 68.6572 52.9193 68.3722 55.9533Z" fill="#E8B299"/>
<path d="M26.0502 9.75421C22.0412 8.33421 19.2152 7.42121 15.6192 10.1322C11.6972 13.0902 9.07517 17.8152 7.91917 22.4982C6.49717 28.2552 8.00018 34.7642 9.41818 40.3612C10.4302 44.3592 8.85718 49.7112 11.4502 53.1812C11.8222 53.6792 12.4852 53.6002 12.7142 53.0162C15.4472 46.0372 15.9712 37.8012 17.5912 30.4762C18.5182 26.2842 18.7562 21.7822 20.7132 17.9002C21.9662 15.4142 24.1062 13.7122 25.0542 11.0682C25.0752 11.0092 25.0712 10.9582 25.0772 10.9052C25.2862 10.9722 25.4922 11.0382 25.6822 11.0892C26.5542 11.3282 26.8822 10.0492 26.0502 9.75421Z" fill="#8E3F20"/>
<path d="M71.7663 46.7429C71.4143 50.7079 68.0493 54.2909 64.2083 50.8799C62.5873 49.4309 62.6153 48.1259 63.3023 46.1149C64.7403 41.9019 65.2843 37.8699 63.1293 33.9819C59.2513 39.9199 51.8753 44.0749 47.1863 36.6789C44.9753 33.1909 42.4113 36.3929 40.3993 37.6889C39.4083 38.3279 38.0073 38.0229 36.9593 37.7469C34.5763 37.1179 33.5473 34.0869 33.2613 31.9619C32.9673 29.8179 32.9963 27.6919 32.8893 25.5379C32.7563 22.9169 32.8133 18.9339 29.0863 18.2189C26.8853 17.7999 24.5123 19.0769 25.5793 21.5929C26.5803 23.9469 26.8953 26.8059 23.8263 27.6739C17.1373 29.5509 17.1153 36.1839 16.2783 41.9979C15.9353 44.3709 15.6303 46.7919 15.1453 49.1649C14.6103 50.0699 13.8963 50.8619 12.9823 51.4329C12.4383 51.7759 11.9433 51.9279 11.5033 51.9379C11.5033 51.9089 11.4943 51.8799 11.4943 51.8619C11.1413 48.2499 11.1513 44.5039 11.3613 40.8919C11.3993 40.2149 11.4463 39.5379 11.5033 38.8619C11.7803 35.2209 12.2843 31.5039 13.2003 27.9119C14.0113 24.6809 15.1643 21.5549 16.8043 18.6959C17.5563 17.3709 18.4133 16.1989 19.3573 15.1599C19.6533 14.8359 19.9483 14.5309 20.2633 14.2349C20.5783 13.9299 20.9103 13.6339 21.2453 13.3579C21.7113 12.1759 22.4643 11.1289 23.3893 10.1659C23.3793 10.0129 23.3703 9.86086 23.3703 9.70786C23.0463 8.95586 22.6083 8.24986 21.8913 7.50686C20.8543 6.41086 19.9483 5.34386 19.3373 3.95186C19.1483 3.50486 19.7753 3.10386 20.0043 3.55186C20.7183 4.98186 22.2523 6.26786 23.4353 7.66886C23.4443 7.43086 23.4533 7.20286 23.4533 6.97286C23.4633 5.43886 23.3583 3.94286 23.0913 2.42787C23.0153 2.00887 23.6453 1.66486 23.8343 2.11286C24.6533 4.01886 24.9863 6.59186 24.7883 8.90886C24.8453 8.86986 24.9013 8.82186 24.9583 8.78386C24.8733 7.51686 24.9493 6.22986 25.0833 5.16286C25.3303 3.20886 25.8173 1.19786 27.5613 0.0638629C27.9523 -0.193137 28.3993 0.387863 28.0563 0.701863C26.1043 2.50286 26.0263 5.19086 26.2843 7.84086C28.7713 6.20086 31.6793 5.01986 34.1563 4.22886C34.4803 4.12386 34.7953 4.02786 35.1003 3.94286C35.1383 3.93286 35.1663 3.92387 35.2043 3.91387C37.5873 3.21887 40.3223 2.58886 43.1243 2.26586C43.5153 2.21886 43.9143 2.17986 44.3073 2.15086C48.2333 1.82686 52.1993 2.16986 55.4293 3.84786C57.5253 4.93386 59.3353 6.39187 60.9003 8.12687C61.4043 8.66987 61.8813 9.25086 62.3293 9.85186C63.9693 12.0439 65.2843 14.5699 66.2953 17.2569C66.5233 17.8479 66.7333 18.4389 66.9323 19.0489C68.0683 22.5659 68.7443 26.2919 69.0193 29.9139C71.2503 35.2489 72.2703 41.0919 71.7663 46.7429Z" fill="#A6562F"/>
<path d="M66.9328 19.0471C64.7128 22.2111 63.2548 25.4801 60.1868 28.1491C57.4608 30.5221 48.4457 34.6111 47.2147 28.3391C46.3107 23.7551 49.9117 19.3141 43.3167 17.3221C40.3427 16.4351 36.3887 15.4061 34.9857 12.2611C33.8237 9.66813 33.6127 6.87514 34.1567 4.22614C34.4807 4.12114 34.7957 4.02513 35.1007 3.94013C35.1387 3.93013 35.1667 3.92113 35.2047 3.91113C34.9277 5.14013 34.8327 6.38913 34.9467 7.59913C35.5477 13.9471 40.2187 14.4711 45.1167 16.4051C48.1197 17.5961 49.6628 19.4261 48.9668 22.7911C48.2338 26.3561 49.7197 31.6351 54.4567 29.7191C56.5717 28.8621 58.5178 27.7081 60.1568 26.0981C62.6628 23.6291 63.9967 20.7231 65.8857 17.8341C66.0187 17.6341 66.1508 17.4431 66.2948 17.2521C66.5238 17.8461 66.7338 18.4371 66.9328 19.0471Z" fill="#D8744C"/>
<path d="M62.3292 9.84941C60.4902 13.3084 55.7722 15.7294 51.9132 14.0154C47.7112 12.1474 43.8402 7.20941 43.1252 2.26441C43.5162 2.21741 43.9152 2.17841 44.3082 2.14941C45.0332 6.04741 47.7962 9.95541 50.7592 11.8234C53.2572 13.3954 56.5062 13.9104 58.8222 11.6134C59.9562 10.4984 60.6042 9.35442 60.9002 8.12542C61.4052 8.66842 61.8822 9.24941 62.3292 9.84941Z" fill="#D8744C"/>
<path d="M17.2414 25.1464C12.5134 29.0054 13.8664 33.6564 11.6094 38.6414C11.5694 38.7174 11.5414 38.7944 11.5034 38.8604C11.7804 35.2194 12.2844 31.5024 13.2004 27.9104C13.3164 27.6814 13.4484 27.4624 13.5914 27.2524C15.9454 23.8114 21.2244 22.0204 19.8834 16.9494C19.7204 16.3484 19.5494 15.7584 19.3584 15.1584C19.6544 14.8344 19.9494 14.5294 20.2644 14.2334C21.4814 18.1984 21.6064 21.5914 17.2414 25.1464Z" fill="#D8744C"/>
<path d="M23.9408 44.4599C20.5408 46.5229 18.5838 51.5689 20.5608 54.8219C20.6578 54.9809 20.9968 54.9158 20.9728 54.7288C20.5748 51.8358 21.7428 48.7019 23.9298 46.4999C25.2878 45.1379 27.1568 44.5628 29.1898 44.4238C31.4138 44.2688 32.4188 46.2739 34.1678 46.9609C34.5318 47.1029 34.9868 46.8719 34.8668 46.5019C33.5038 42.3109 27.3698 42.3809 23.9408 44.4599Z" fill="#390A0A"/>
<path d="M35.7765 53.8544C35.7765 59.2814 32.4455 63.6794 28.3375 63.6794C24.2275 63.6794 20.8975 59.2814 20.8975 53.8544C20.8975 48.4264 24.2285 44.0254 28.3375 44.0254C32.4465 44.0264 35.7765 48.4274 35.7765 53.8544Z" fill="white"/>
<path d="M34.1971 54.1754C34.1971 58.2154 31.6601 61.4914 28.5331 61.4914C25.4071 61.4914 22.8691 58.2154 22.8691 54.1754C22.8691 50.1344 25.4071 46.8574 28.5331 46.8574C31.6601 46.8574 34.1971 50.1344 34.1971 54.1754Z" fill="#7FADC4"/>
<path d="M33.2987 54.2618C33.2987 57.6718 31.2207 60.4348 28.6557 60.4348C26.0917 60.4348 24.0117 57.6708 24.0117 54.2618C24.0117 50.8548 26.0917 48.0908 28.6557 48.0908C31.2207 48.0908 33.2987 50.8548 33.2987 54.2618Z" fill="#390A0A"/>
<path d="M34.1972 48.9424C34.1972 49.6134 32.8852 50.1574 31.2662 50.1574C29.6492 50.1574 28.3372 49.6144 28.3372 48.9424C28.3372 48.2704 29.6492 47.7294 31.2662 47.7294C32.8852 47.7294 34.1972 48.2704 34.1972 48.9424Z" fill="white"/>
<path d="M58.875 44.4599C62.275 46.5229 64.232 51.5689 62.255 54.8219C62.158 54.9809 61.819 54.9158 61.843 54.7288C62.241 51.8358 61.073 48.7019 58.886 46.4999C57.529 45.1379 55.66 44.5628 53.626 44.4238C51.402 44.2688 50.398 46.2739 48.648 46.9609C48.285 47.1029 47.83 46.8719 47.949 46.5019C49.312 42.3109 55.446 42.3809 58.875 44.4599Z" fill="#390A0A"/>
<path d="M61.3829 53.8544C61.3829 59.2814 58.0519 63.6794 53.9449 63.6794C49.8359 63.6794 46.5029 59.2814 46.5029 53.8544C46.5029 48.4264 49.8359 44.0254 53.9449 44.0254C58.0519 44.0264 61.3829 48.4274 61.3829 53.8544Z" fill="white"/>
<path d="M59.8036 54.1754C59.8036 58.2154 57.2676 61.4914 54.1396 61.4914C51.0136 61.4914 48.4756 58.2154 48.4756 54.1754C48.4756 50.1344 51.0136 46.8574 54.1396 46.8574C57.2676 46.8574 59.8036 50.1344 59.8036 54.1754Z" fill="#7FADC4"/>
<path d="M58.9052 54.2618C58.9052 57.6718 56.8272 60.4348 54.2602 60.4348C51.6992 60.4348 49.6172 57.6708 49.6172 54.2618C49.6172 50.8548 51.6992 48.0908 54.2602 48.0908C56.8262 48.0908 58.9052 50.8548 58.9052 54.2618Z" fill="#390A0A"/>
<path d="M59.8036 48.9424C59.8036 49.6134 58.4926 50.1574 56.8726 50.1574C55.2556 50.1574 53.9436 49.6144 53.9436 48.9424C53.9436 48.2704 55.2546 47.7294 56.8726 47.7294C58.4916 47.7294 59.8036 48.2704 59.8036 48.9424Z" fill="white"/>
<path d="M48.8164 67.7038C47.3404 66.7828 44.5584 66.4908 42.8764 67.5028C42.8724 66.7178 42.8584 65.9388 42.7964 65.1518C42.6834 63.7138 42.9514 60.6218 41.4504 59.7428C39.7224 58.7298 38.3194 61.6358 38.0484 62.8568C37.6954 64.4418 37.8284 66.1918 38.0674 67.8878C37.7334 67.6168 37.3644 67.4618 36.9554 67.2838C35.8554 66.8068 34.6784 66.2008 33.4254 66.6568C31.5434 67.3418 31.6034 68.4038 33.1714 69.5978C35.8644 71.6508 38.5434 73.5038 42.1124 72.8828C44.8994 72.3968 47.7254 71.2758 49.0564 68.6188C49.2224 68.2848 49.1384 67.9058 48.8164 67.7038Z" fill="#CD8B6D"/>
<path d="M23.9592 79.9946C23.9592 79.9946 48.2622 98.5796 57.7932 75.2296L23.9592 79.9946Z" fill="#CD8B6D"/>
<path d="M59.2436 75.5116C59.0316 74.6576 57.2696 74.5196 56.5726 74.3816C56.0366 74.2756 55.4966 74.1816 54.9706 74.0296C54.7426 73.9646 54.5346 73.8486 54.3106 73.7876C54.2996 73.7856 54.2936 73.7845 54.2826 73.7825C54.1936 73.6915 54.2096 73.6005 54.2646 73.4875C54.4496 73.1075 53.9366 72.8065 53.6996 73.1575C53.1356 73.9905 53.9386 74.7136 54.6596 75.1266L24.4116 79.3876C24.9616 78.7226 25.6556 78.0456 26.4206 77.8916C26.7696 77.8216 26.6426 77.3566 26.3426 77.3206C26.1746 77.3006 26.0756 77.1486 25.8916 77.1616C25.5656 77.1856 25.2676 77.2366 24.9586 77.3466C24.4126 77.5396 23.9846 77.9676 23.6046 78.3916C23.1786 78.8676 22.8196 79.4026 22.4086 79.8916C22.0316 80.3426 21.5326 80.7116 21.2366 81.2236C21.0816 81.4916 21.2826 81.8036 21.5776 81.8176C22.6446 81.8666 23.3736 80.7436 23.9376 79.9886C24.0306 79.8656 24.1306 79.7346 24.2356 79.6026C28.3396 80.0476 48.3386 81.8455 56.1916 75.7525C56.4916 75.8445 56.7906 75.9306 57.0976 76.0016C57.5996 76.1196 58.4976 76.4936 58.9706 76.1846C59.2006 76.0356 59.3126 75.7836 59.2436 75.5116Z" fill="#B66C50"/>
<path d="M14.3735 42.4726C13.8945 42.7386 24.9135 28.0526 37.7805 40.4426C37.7805 40.4426 20.9875 38.7836 14.3735 42.4726Z" fill="#752710"/>
<path d="M42.0111 41.9965C41.5331 42.2635 52.5531 27.5765 65.4181 39.9665C65.4181 39.9665 48.6241 38.3075 42.0111 41.9965Z" fill="#752710"/>
</svg>
