<svg width="69" height="131" viewBox="0 0 69 131" fill="none" xmlns="http://www.w3.org/2000/svg">
<path d="M40.3722 101.92C36.3452 105.269 27.9602 101.92 27.9602 101.92C28.6592 100.531 29.0772 98.9596 29.2992 97.3386C29.3282 97.1936 29.3472 97.0466 29.3572 96.9026C29.5132 95.6406 29.5622 94.3686 29.5322 93.1276C29.5222 92.3596 29.4852 91.6035 29.4162 90.8755C29.1052 87.0905 28.2992 84.1406 28.2992 84.1406L39.0342 83.8105C38.3542 86.0515 38.1792 88.5085 38.2772 90.8755C38.3162 91.9725 38.4222 93.0495 38.5592 94.0685C38.6852 94.9905 38.8302 95.8745 38.9952 96.6885C39.0252 96.8355 39.0542 96.9795 39.0832 97.1155C39.6742 99.9585 40.3722 101.92 40.3722 101.92Z" fill="#CD8B6D"/>
<path d="M4.43318 116.274C4.30718 115.624 8.89717 105.083 20.1362 100.774C20.1362 100.774 20.1362 100.774 20.1462 100.774C21.7282 100.163 23.4362 99.6768 25.2912 99.3668C27.5232 98.9888 29.9502 98.8618 32.5802 99.0468C37.7922 99.4158 42.2372 100.075 46.0222 101.066C48.6042 101.735 50.8842 102.561 52.8932 103.561C59.4852 106.802 63.1532 111.859 65.0932 119.186C68.4902 132.046 8.31518 136.17 4.43318 116.274Z" fill="#CD8B6D"/>
<path d="M4.4331 116.274C4.3171 115.663 8.33409 106.374 18.0891 101.658C18.7491 101.338 19.4281 101.046 20.1361 100.774C20.1361 100.774 20.1361 100.774 20.1461 100.774C27.7851 105.345 44.3031 112.577 52.8921 103.56C54.2511 104.229 55.4841 104.977 56.6001 105.801C60.9191 108.985 63.5491 113.371 65.0921 119.185C68.4901 132.046 8.3151 136.17 4.4331 116.274Z" fill="#ADC0E0"/>
<path d="M56.5999 105.801C49.5249 115.7 28.5709 107.072 18.0889 101.657C18.7489 101.337 19.4279 101.045 20.1359 100.773C20.1359 100.773 20.1359 100.773 20.1459 100.773C27.7849 105.344 44.3029 112.576 52.8919 103.559C54.2519 104.228 55.4839 104.977 56.5999 105.801Z" fill="white"/>
<path d="M55.206 59.8775C47.029 56.4555 36.929 58.4575 28.338 58.4235C22.832 58.4025 17.292 57.9995 11.793 57.7265C9.29397 57.6025 8.12497 58.2465 7.41597 60.5295C7.33797 60.7785 7.44196 61.0205 7.61796 61.1885C6.10896 66.8575 4.79196 74.0395 8.59396 78.8775C13.132 84.6505 19.493 86.2705 26.439 83.8825C26.547 83.8455 26.63 83.7795 26.701 83.7055C29.982 84.1605 33.333 84.7715 36.437 85.7105C38.221 86.2515 39.97 86.9375 41.514 86.3955C41.622 86.4795 41.764 86.5145 41.941 86.4485C48.889 83.8455 57.667 82.5815 60.384 74.5285C62.263 68.9555 61.145 62.3625 55.206 59.8775Z" fill="#4A1D1D"/>
<path d="M59.2859 54.8498C59.6769 54.2868 60.2689 53.8438 61.1669 53.4538C61.8539 53.1558 62.5959 52.9658 63.3269 52.8188C64.7789 52.5298 66.5479 52.5078 67.5769 53.7638C68.2899 54.6338 68.5549 56.0618 68.6039 57.1568C68.8279 62.0938 64.6699 64.8188 60.4149 65.9888C59.6099 66.2088 58.2049 67.0238 57.6039 66.0578C56.5809 64.4128 58.0619 56.6178 59.2859 54.8498Z" fill="#CD8B6D"/>
<path d="M59.27 58.5778C59.27 58.5778 64.491 53.7428 65.2 56.4138C65.911 59.0848 64.771 61.9768 64.771 61.9768C64.771 61.9768 64.86 58.5148 61.955 59.7618C61.955 59.7618 62.948 65.5928 58.567 62.8748C58.567 62.8748 57.01 60.7868 59.27 58.5778Z" fill="#B66C50"/>
<path d="M9.32665 54.8498C8.93665 54.2868 8.34266 53.8438 7.44566 53.4538C6.75966 53.1558 6.01765 52.9658 5.28565 52.8188C3.83365 52.5298 2.06566 52.5078 1.03666 53.7638C0.323661 54.6338 0.0576608 56.0618 0.00866076 57.1568C-0.215339 62.0938 3.94266 64.8188 8.19866 65.9888C9.00366 66.2088 10.4087 67.0238 11.0097 66.0578C12.0317 64.4128 10.5497 56.6178 9.32665 54.8498Z" fill="#CD8B6D"/>
<path d="M9.34129 58.578C9.34129 58.578 4.12129 53.743 3.41229 56.414C2.70129 59.085 3.84029 61.9769 3.84029 61.9769C3.84029 61.9769 3.7513 58.5149 6.6573 59.7619C6.6573 59.7619 5.6643 65.593 10.0453 62.875C10.0453 62.875 11.6013 60.787 9.34129 58.578Z" fill="#B66C50"/>
<path d="M60.761 50.7328C60.668 51.6848 60.54 52.6438 60.413 53.6138C59.588 59.7568 58.603 65.8929 57.072 71.9099C54.192 83.2478 40.16 88.8248 35.163 88.4418C9.40297 84.9818 8.05897 67.2959 8.24697 65.3759C8.55197 62.3679 8.02596 59.1029 7.83096 56.1019C7.72896 54.5039 7.48997 52.8649 7.26097 51.2249C6.88597 48.4359 6.54697 45.6158 6.98097 42.8958C6.99697 42.7668 7.02397 42.6399 7.04897 42.5049C7.52397 39.7699 8.40897 36.9378 9.45297 34.3878C12.725 26.4338 19.329 17.5269 28.77 17.3479C30.98 17.3059 33.224 17.6888 35.407 18.3588C38.561 19.3098 41.603 20.8329 44.272 22.4399C50.213 26.0339 56.144 30.1208 59.111 36.6588C61.195 41.2638 61.255 45.9138 60.761 50.7328Z" fill="#FFC29C"/>
<path d="M12.616 13.4631C11.112 14.6471 9.80095 15.8991 8.67595 17.2291C7.59795 18.4811 6.67697 19.7911 5.91897 21.1501C3.28997 25.7701 2.32896 30.9331 2.52196 36.2711C2.52196 36.2711 2.52196 36.2711 2.52196 36.2811L2.65896 38.3961C3.03796 42.6761 4.11496 47.0051 5.62896 51.1981V51.2071C5.89996 51.9551 6.18197 52.6921 6.47297 53.4291C6.50197 53.5071 6.54096 53.5651 6.58996 53.6231V53.6331C7.04496 54.3621 8.16196 54.1571 8.25796 53.1871C8.72396 48.0731 9.11296 44.2671 12.645 40.2311C15.325 37.1731 18.613 34.5821 21.525 31.7391C24.097 29.2151 26.291 26.5171 27.961 23.5181C28.107 23.2661 28.242 23.0141 28.378 22.7621C29.212 21.1601 29.902 19.4721 30.425 17.6761C30.979 16.6671 31.649 15.7831 32.397 14.8611C32.892 14.8221 33.357 14.4731 33.357 13.8811C33.212 1.72908 17.643 9.51308 12.616 13.4631Z" fill="#603030"/>
<path d="M28.3779 22.7615C28.2419 23.0135 28.1069 23.2654 27.9609 23.5174C21.3509 22.9354 14.4219 30.9615 11.4899 36.0765C8.21091 41.7835 7.6169 47.3645 6.5899 53.6235C6.5409 53.5645 6.50192 53.5075 6.47292 53.4295C6.18192 52.6925 5.89991 51.9545 5.62891 51.2075V51.1984C5.67591 44.1914 8.68591 36.6985 13.1209 31.5745C16.7119 27.4205 22.2439 20.5785 28.3779 22.7615Z" fill="#774545"/>
<path d="M2.52148 36.2812C2.52148 36.2712 2.52148 36.2712 2.52148 36.2712C3.47348 34.6112 4.55048 33.0302 5.81248 31.5352C11.6265 24.6532 21.0505 15.2972 30.6395 15.0752C30.9785 15.0752 30.9695 15.5702 30.6395 15.5982C22.0205 16.3652 12.9275 24.8382 7.60748 31.2342C5.88048 33.3112 4.14348 35.7572 2.65848 38.3972L2.52148 36.2812Z" fill="#774545"/>
<path d="M30.8819 14.4817C26.6309 14.3947 21.8849 12.8797 17.7209 14.3167C13.5869 15.7527 9.71393 17.8587 6.38493 20.7317C6.22993 20.8687 6.07395 21.0037 5.91895 21.1497C6.67695 19.7907 7.59893 18.4807 8.67593 17.2287C8.82093 17.1217 8.96695 17.0347 9.11295 16.9377C12.0339 15.0837 15.7119 12.8707 19.2449 12.5207C23.2829 12.1237 27.0089 13.1617 30.9789 13.7837C31.3769 13.8407 31.2799 14.4817 30.8819 14.4817Z" fill="#774545"/>
<path d="M68.179 39.6581C68.102 34.8251 66.036 30.7101 64.026 26.1381L63.114 23.9741C62.882 23.4201 62.668 22.8571 62.453 22.2851C61.24 19.0041 60.338 15.6751 59.105 12.5021V12.4921L58.126 10.2011C57.126 8.06513 55.893 6.02813 54.214 4.15413C50.555 0.0781336 45.789 -0.737872 41.102 0.582128C40.714 0.699128 40.336 0.815125 39.948 0.961125C38.977 1.30113 38.016 1.73813 37.075 2.25213C36.425 2.61113 35.784 2.99912 35.173 3.42612C34.784 3.67912 34.406 3.94012 34.038 4.23212C32.213 5.57112 30.504 7.10512 28.836 8.56012L28.146 9.15212C26.477 10.4911 24.41 11.5881 22.652 12.9181L22.216 13.2581C21.575 13.7721 20.993 14.3161 20.498 14.9271C20.013 14.2671 18.926 14.0441 18.47 14.9751C16.101 19.8181 19.159 25.2821 21.663 29.5241C25.284 35.6771 30.214 37.7251 37.104 39.3561C41.306 40.3551 45.13 41.7821 48.789 44.0441C50.458 45.0831 52.079 46.2371 53.709 47.3341C54.875 48.1101 55.933 49.0131 56.883 50.0231C57.514 50.6341 58.106 52.4011 58.922 53.0121C61.611 55.0321 63.657 53.3811 65.094 50.9451C65.298 50.6051 65.483 50.2561 65.666 49.8971C66.521 48.1601 67.112 46.2581 67.462 45.0341C67.821 43.7721 68.034 42.5691 68.132 41.4141C68.179 40.8131 68.2 40.2311 68.179 39.6581Z" fill="#4A1D1D"/>
<path d="M22.6511 12.9191C28.1071 25.2541 43.5951 30.0401 54.7961 37.0571C59.1831 39.8041 63.4731 43.3171 65.1991 48.3831C65.3741 48.8881 65.5301 49.3921 65.6651 49.8971C65.4811 50.2561 65.2971 50.6051 65.0931 50.9451C64.4131 48.1781 63.1911 45.5781 61.1051 43.3171C56.3771 38.1831 49.7101 35.1841 43.6051 31.9901C34.7831 27.3801 26.0391 21.9941 22.2151 13.2591L22.6511 12.9191Z" fill="#703838"/>
<path d="M28.1445 9.15451C28.9015 10.3485 29.7165 11.4745 30.5025 12.5215C34.5495 17.9275 40.4505 21.4215 46.1865 24.7515C54.3685 29.4975 62.8405 34.1855 68.1305 41.4155C68.1785 40.8135 68.1985 40.2315 68.1785 39.6585C64.1135 34.6515 58.2705 30.7785 52.7575 27.4985C46.4685 23.7515 39.8295 20.5105 34.4045 15.5115C32.2005 13.4835 30.3275 11.1345 28.8345 8.5625L28.1445 9.15451Z" fill="#703838"/>
<path d="M64.0258 26.1378C62.6078 25.1378 60.9679 24.2838 59.0469 23.5558C53.7579 21.5468 47.7209 20.0918 43.2179 16.4908C39.5989 13.5978 35.9869 9.11376 34.0369 4.23276C34.4059 3.94076 34.7839 3.67976 35.1719 3.42676C36.1429 5.74576 37.4429 7.91976 38.8209 9.77376C43.0229 15.4218 48.5079 18.1888 55.0289 20.4878C57.9889 21.5268 60.7079 22.6238 63.1139 23.9728L64.0258 26.1378Z" fill="#703838"/>
<path d="M59.1053 12.493C53.0493 11.745 46.9053 8.97999 42.7993 5.11699C41.9753 4.33999 40.8783 2.76798 39.9463 0.962982C40.3353 0.816982 40.7133 0.700984 41.1003 0.583984C43.2163 3.66098 46.2153 6.42699 48.0013 7.32999C51.3403 9.01899 54.6973 9.69799 58.1243 10.203L59.1053 12.493Z" fill="#703838"/>
<g opacity="0.4">
<path d="M53.4448 65.2069C53.4448 66.6999 51.4358 67.9089 48.9568 67.9089C46.4768 67.9089 44.4678 66.6999 44.4678 65.2069C44.4678 63.7149 46.4768 62.5049 48.9568 62.5049C51.4358 62.5049 53.4448 63.7149 53.4448 65.2069Z" fill="#DB5D7B"/>
<path d="M23.3579 66.1766C23.3579 67.6706 21.3489 68.8786 18.8689 68.8786C16.3889 68.8786 14.3799 67.6706 14.3799 66.1766C14.3799 64.6856 16.3879 63.4756 18.8689 63.4756C21.3489 63.4756 23.3579 64.6856 23.3579 66.1766Z" fill="#DB5D7B"/>
</g>
<path d="M37.191 62.061C36.033 62.067 35.431 63.065 34.562 63.415C34.532 61.932 34.907 60.475 35.184 59.018C35.507 57.317 35.338 55.632 35.296 53.916C35.296 53.893 35.285 53.877 35.282 53.853C35.239 53.111 34.914 52.388 34.123 53.178C33.378 53.923 33.344 55.275 33.224 56.251C32.965 58.338 33.252 60.352 32.742 62.375C32.09 61.807 31.362 61.102 30.553 61.575C29.364 62.272 30.259 63.75 30.831 64.462C31.532 65.334 33.159 67.065 34.446 66.711C36.105 66.255 37.519 64.445 37.761 62.807C37.814 62.437 37.609 62.06 37.191 62.061Z" fill="#CD8B6D"/>
<path d="M26.1501 48.5135C24.0441 46.8395 21.4691 47.1255 18.9821 47.4765C17.0261 47.7525 14.3431 48.5955 13.1391 50.3595C11.2871 53.0695 13.6631 54.9615 14.8721 57.2985C15.0721 57.6865 15.5071 57.5345 15.6381 57.2155C15.7461 57.1745 15.8421 57.0895 15.8831 56.9405C16.0461 56.3505 16.0421 56.2695 16.0991 55.6145C16.1071 55.5235 16.0811 55.4545 16.0421 55.3935C16.7131 52.2775 19.6321 50.6825 22.6881 50.4995C25.8841 50.3085 26.0981 53.1285 26.8961 55.4415C26.9161 55.5045 26.9421 55.5645 26.9621 55.6275C27.0411 55.8445 27.1241 56.0585 27.2191 56.2615C27.5421 56.9565 27.4861 57.0705 28.6591 55.8575C30.6031 53.8485 28.5661 50.4315 26.1501 48.5135Z" fill="#390A0A"/>
<path d="M15.1357 55.5442C15.1357 59.0332 18.0067 61.8612 21.5487 61.8612C25.0907 61.8612 27.9617 59.0342 27.9617 55.5442C27.9617 52.0562 25.0907 49.2302 21.5487 49.2302C18.0067 49.2302 15.1357 52.0562 15.1357 55.5442Z" fill="white"/>
<path d="M25.7787 55.7792C25.7787 58.6182 23.9837 60.9222 21.7707 60.9222C19.5557 60.9222 17.7627 58.6182 17.7627 55.7792C17.7627 52.9412 19.5557 50.6372 21.7707 50.6372C23.9827 50.6382 25.7787 52.9412 25.7787 55.7792Z" fill="#2B80B2"/>
<path d="M25.2406 55.7797C25.2406 58.2377 23.6876 60.2337 21.7696 60.2337C19.8516 60.2337 18.2986 58.2377 18.2986 55.7797C18.2986 53.3207 19.8506 51.3267 21.7696 51.3267C23.6876 51.3267 25.2406 53.3207 25.2406 55.7797Z" fill="#390A0A"/>
<path d="M23.3294 53.3167C24.1412 53.3167 24.7994 52.8712 24.7994 52.3217C24.7994 51.7721 24.1412 51.3267 23.3294 51.3267C22.5175 51.3267 21.8594 51.7721 21.8594 52.3217C21.8594 52.8712 22.5175 53.3167 23.3294 53.3167Z" fill="white"/>
<path d="M38.7111 55.8565C39.8851 57.0695 39.8271 56.9565 40.1501 56.2605C40.2451 56.0575 40.3291 55.8435 40.4071 55.6265C40.4281 55.5635 40.4541 55.5045 40.4731 55.4405C41.2711 53.1275 41.4861 50.3075 44.6821 50.4985C47.7381 50.6815 50.6571 52.2765 51.3281 55.3925C51.2891 55.4535 51.2631 55.5225 51.2711 55.6135C51.3281 56.2685 51.3241 56.3495 51.4871 56.9395C51.5281 57.0885 51.6241 57.1735 51.7311 57.2145C51.8621 57.5335 52.2971 57.6855 52.4981 57.2975C53.7061 54.9595 56.0821 53.0685 54.2301 50.3585C53.0251 48.5935 50.3431 47.7515 48.3861 47.4755C45.9001 47.1245 43.3241 46.8385 41.2181 48.5125C38.8021 50.4315 36.7661 53.8485 38.7111 55.8565Z" fill="#390A0A"/>
<path d="M39.7122 55.5442C39.7122 59.0332 42.5831 61.8612 46.1261 61.8612C49.6681 61.8612 52.5382 59.0342 52.5382 55.5442C52.5382 52.0562 49.6681 49.2302 46.1261 49.2302C42.5841 49.2302 39.7122 52.0562 39.7122 55.5442Z" fill="white"/>
<path d="M50.0436 55.7795C50.0436 58.6185 48.2486 60.9225 46.0346 60.9225C43.8196 60.9225 42.0266 58.6185 42.0266 55.7795C42.0266 52.9415 43.8196 50.6375 46.0346 50.6375C48.2486 50.6385 50.0436 52.9415 50.0436 55.7795Z" fill="#2B80B2"/>
<path d="M49.5055 55.7799C49.5055 58.2379 47.9515 60.2339 46.0335 60.2339C44.1155 60.2339 42.5625 58.2379 42.5625 55.7799C42.5625 53.3209 44.1155 51.3269 46.0335 51.3269C47.9525 51.3269 49.5055 53.3209 49.5055 55.7799Z" fill="#390A0A"/>
<path d="M47.5933 53.3169C48.4052 53.3169 49.0633 52.8714 49.0633 52.3219C49.0633 51.7724 48.4052 51.3269 47.5933 51.3269C46.7814 51.3269 46.1233 51.7724 46.1233 52.3219C46.1233 52.8714 46.7814 53.3169 47.5933 53.3169Z" fill="white"/>
<path d="M45.8862 68.8818C45.8862 68.8818 44.9833 72.3858 43.1393 75.7248C43.0523 75.9098 42.9452 76.0838 42.8392 76.2688C39.7902 81.4988 34.4242 85.8278 26.6602 74.8518C26.6112 74.7838 26.5733 74.7148 26.5143 74.6478C25.5723 73.2888 24.5922 71.7078 23.5732 69.8628C24.0592 70.0178 36.6082 74.1128 45.8862 68.8818Z" fill="white"/>
<path d="M43.1396 75.7245C43.0526 75.9095 42.9456 76.0835 42.8396 76.2685C40.9556 76.4615 39.0726 76.5384 37.1906 76.4814C33.5996 76.3844 30.1536 75.4525 26.6606 74.8515C26.6116 74.7835 26.5736 74.7145 26.5146 74.6475C29.4856 75.2005 32.4066 76.0255 35.4726 76.0925C38.0646 76.1505 40.6066 76.0155 43.1396 75.7245Z" fill="#CD8B6D"/>
<path d="M9.95194 52.3045C9.95194 52.3045 8.76695 39.2195 27.8279 45.8985C27.8279 45.8985 28.3899 43.3465 28.2699 42.6285C28.1509 41.9105 7.37394 36.7455 9.95194 52.3045Z" fill="#390A0A"/>
<path d="M58.3372 52.3045C58.3372 52.3045 59.5222 39.2195 40.4622 45.8985C40.4622 45.8985 39.9012 43.3465 40.0192 42.6285C40.1382 41.9105 60.9162 36.7455 58.3372 52.3045Z" fill="#390A0A"/>
<path d="M6.59473 64.5664L10.1287 89.0924L12.4637 90.5784L8.57973 65.6554L6.59473 64.5664Z" fill="#24B6BC"/>
<path d="M60.4827 63.6211L59.2697 88.3701L57.0867 90.0681L58.6107 64.8911L60.4827 63.6211Z" fill="#24B6BC"/>
</svg>
