<svg width="92" height="128" viewBox="0 0 92 128" fill="none" xmlns="http://www.w3.org/2000/svg">
<path d="M82.3469 92.9214L80.9469 93.6714C75.4879 96.2714 67.3779 96.7614 55.7269 94.2614C55.2469 94.1604 54.7669 93.9894 54.2769 93.8784C53.8569 93.7784 53.4269 94.5174 52.9979 93.5174H37.9079C33.3069 95.5174 29.2179 95.3784 25.5969 95.6694C25.0169 95.7184 24.4469 95.7804 23.8979 95.8104C18.3069 96.0904 13.9079 95.3954 10.4879 93.8954C10.0569 93.7064 9.63688 93.5134 9.22688 93.2944C-6.14312 85.1034 0.897875 58.9774 7.40788 36.9074C8.23788 34.0944 9.18886 31.2974 10.4399 28.6404C11.2499 26.9194 12.1889 25.3674 12.7789 23.5434C13.8239 20.3134 14.7439 17.3864 16.7869 14.6144C19.2579 11.2614 22.3979 8.11543 25.9609 5.93143C30.0369 3.43343 34.5529 1.33143 39.2879 0.518425C46.7089 -0.756575 54.5159 0.383428 61.4449 3.24343C63.3599 4.03443 65.2199 5.00943 66.9569 6.14043C67.4179 6.44043 67.8669 6.74143 68.3179 7.07143C74.1499 11.2424 78.7339 17.3214 80.5389 24.3174C81.2749 27.1724 81.2619 30.1904 82.2469 32.9834C85.4569 42.0854 87.9469 51.6474 89.5759 61.1574C90.8449 68.5744 92.3979 77.4464 89.2379 84.6014C87.9209 87.5834 85.2009 91.2244 82.3469 92.9214Z" fill="#67380C"/>
<path d="M32.7065 2.51674H32.6965C29.3065 6.51674 27.1575 12.1187 25.0265 17.0597C20.8665 26.6887 17.7975 36.8197 15.1765 46.9707C11.2465 62.1807 8.8065 77.6967 9.2265 93.2857C9.6365 93.5057 10.0565 93.7137 10.4875 93.9037C10.2665 89.3527 10.1765 84.7977 10.3975 80.1777C10.8465 70.2777 12.7665 60.4607 15.1065 50.8487C17.2965 41.8797 19.9665 33.0187 23.1965 24.3597C25.9465 16.9897 28.9975 8.25974 34.4075 2.07074C34.5775 1.86974 34.7575 1.61873 34.9365 1.42773L32.7065 2.51674Z" fill="#5D3416"/>
<path d="M45.6065 0.368164C43.3865 3.74916 41.5365 7.41016 39.8865 10.4802C34.6265 20.2802 30.4064 30.6262 28.2164 41.5552C25.9364 52.9862 25.1864 64.6732 25.0964 76.3132C25.0464 82.8832 24.9964 89.3372 25.5964 95.7262C25.0164 95.7772 24.4464 95.8092 23.8974 95.8392C23.2564 88.7102 23.6474 81.3392 23.7764 74.4902C24.0064 62.1892 24.8775 49.7402 27.9465 37.7912C30.8775 26.3512 35.5475 15.4292 41.6275 5.31816C42.5075 3.84816 43.4465 2.51616 44.4775 0.516163H44.7384C45.0264 0.516163 45.3175 0.418164 45.6065 0.368164Z" fill="#5D3416"/>
<path d="M57.0072 56.0409C56.9672 67.0199 56.8572 78.0199 56.0572 88.9709C55.9272 90.7209 55.8282 92.4809 55.7272 94.2609C55.2472 94.1599 54.7672 94.0509 54.2772 93.9409C55.3472 80.7109 55.7572 67.4409 55.7872 54.1009C55.8082 43.8009 55.3082 33.6109 54.3282 23.3609C53.8482 18.3109 53.3882 13.2609 52.9372 8.20094C52.7172 5.70094 52.4082 3.21094 52.4082 0.710938C52.8072 0.771938 53.2072 0.821937 53.5972 0.891937C55.8982 19.1009 57.0872 37.7699 57.0072 56.0409Z" fill="#5D3416"/>
<path d="M82.5068 84.8714C82.4768 87.5604 82.4268 90.2404 82.3468 92.9214L80.9468 93.6714C81.0168 91.9504 81.0678 90.2314 81.0968 88.5014C81.2668 78.0814 81.1968 67.5814 79.8868 57.2214C78.4068 45.5814 75.4768 34.0414 72.2058 22.7814C70.6768 17.5214 68.7368 12.3824 67.2268 7.12143C67.1368 6.79143 67.0468 6.47243 66.9558 6.14243C67.4168 6.44243 67.8658 6.74343 68.3068 7.06243C68.3068 7.06243 68.3178 7.06243 68.3178 7.07343C69.7868 11.6024 71.4668 16.0624 72.8278 20.6424C76.0168 31.3424 79.1478 42.3324 80.7068 53.4024C82.1768 63.8314 82.6268 74.3514 82.5068 84.8714Z" fill="#5D3416"/>
<path d="M40.6434 86.6161C40.6434 86.6161 43.9634 98.7921 40.2744 106.172C40.2744 106.172 49.4984 109.861 53.9264 106.172C53.9264 106.172 49.8664 94.733 52.4504 86.248L40.6434 86.6161Z" fill="#CD8B6D"/>
<path d="M53.2573 99.3047C53.2573 99.3047 49.9443 102.232 46.4073 102.641C42.8683 102.232 40.0943 99.3047 40.0943 99.3047C13.0553 103.95 18.8833 126.776 18.8833 126.776L45.5193 127.337V127.355L46.0193 127.346L46.5193 127.355V127.337L73.8083 126.775C73.8083 126.775 80.2963 103.95 53.2573 99.3047Z" fill="#909C4C"/>
<path d="M41.6632 97.6367L34.4082 100.141C34.4082 100.141 40.9492 116.35 46.4282 102.546C46.4282 102.546 43.3302 100.705 41.6632 97.6367Z" fill="white"/>
<path d="M51.6673 97.6367L58.9073 100.641C58.9073 100.641 52.3823 116.35 46.9033 102.546C46.9033 102.546 49.9993 100.705 51.6673 97.6367Z" fill="white"/>
<path d="M47.9596 109.211C47.9596 109.932 47.3765 110.516 46.6555 110.516C45.9355 110.516 45.3516 109.932 45.3516 109.211C45.3516 108.491 45.9355 107.908 46.6555 107.908C47.3765 107.908 47.9596 108.491 47.9596 109.211Z" fill="white"/>
<path d="M47.9596 117.492C47.9596 118.214 47.3765 118.797 46.6555 118.797C45.9355 118.797 45.3516 118.214 45.3516 117.492C45.3516 116.772 45.9355 116.188 46.6555 116.188C47.3765 116.188 47.9596 116.772 47.9596 117.492Z" fill="white"/>
<path d="M73.4717 54.5698C73.4717 54.5698 84.1717 49.0348 83.8027 58.2588C83.4347 67.4828 70.8887 67.4828 70.8887 67.4828L73.4717 54.5698Z" fill="#CD8B6D"/>
<path d="M73.2278 58.8001C73.2278 58.8001 79.4037 53.9901 79.9317 56.9851C80.4577 59.9781 78.9388 63.0431 78.9388 63.0431C78.9388 63.0431 79.3617 59.2581 76.0577 60.3521C76.0577 60.3521 76.6007 66.8351 72.0537 63.4481C72.0537 63.4461 70.5448 61.0081 73.2278 58.8001Z" fill="#B66C50"/>
<path d="M18.687 55.4898C18.687 55.4898 7.98799 49.9548 8.35699 59.1788C8.72499 68.4028 21.27 68.4028 21.27 68.4028L18.687 55.4898Z" fill="#CD8B6D"/>
<path d="M18.6279 58.8002C18.6279 58.8002 12.4539 53.9902 11.9259 56.9852C11.3999 59.9782 12.9189 63.0432 12.9189 63.0432C12.9189 63.0432 12.4949 59.2582 15.7999 60.3522C15.7999 60.3522 15.2549 66.8352 19.8039 63.4482C19.8039 63.4462 21.3119 61.0082 18.6279 58.8002Z" fill="#B66C50"/>
<path d="M20.812 69.1131C20.812 70.0031 20.0911 70.7231 19.2021 70.7231C18.3121 70.7231 17.592 70.0021 17.592 69.1131C17.592 68.2251 18.3131 67.5031 19.2021 67.5031C20.0911 67.5031 20.812 68.2261 20.812 69.1131Z" fill="#95BCD1"/>
<path d="M75.107 67.2731C75.107 68.1621 74.386 68.8831 73.498 68.8831C72.608 68.8831 71.887 68.1611 71.887 67.2731C71.887 66.3831 72.609 65.6631 73.498 65.6631C74.386 65.6631 75.107 66.3841 75.107 67.2731Z" fill="#95BCD1"/>
<path d="M67.017 83.4621C57.767 96.4721 37.227 90.6511 37.227 90.6511C18.167 84.6611 16.557 55.0421 16.937 42.6721C17.027 39.4821 17.257 37.4321 17.357 37.2321C20.277 31.4131 33.937 21.0421 46.908 21.6421C59.878 22.2431 72.158 33.8121 72.838 36.5521C73.228 38.0921 73.668 41.4621 73.888 45.8021C74.467 56.8321 73.648 74.1221 67.017 83.4621Z" fill="#E8B299"/>
<path d="M73.8866 45.8021C58.3566 48.1611 46.0766 25.6421 46.0766 25.6421C40.3556 37.8921 23.0765 41.6921 16.9355 42.6721C17.0255 39.4821 17.2556 37.4321 17.3556 37.2321C20.2756 31.4131 33.9356 21.0421 46.9066 21.6421C59.8766 22.2431 72.1565 33.8121 72.8365 36.5521C73.2265 38.0921 73.6666 41.4621 73.8866 45.8021Z" fill="#CD8B6D"/>
<path d="M78.908 42.6408C77.207 43.0108 75.588 43.2208 74.037 43.2808C73.998 43.2918 73.947 43.2918 73.908 43.2918C73.078 43.3208 72.277 43.3208 71.498 43.2708C65.898 42.9708 61.328 40.8408 57.697 38.0608C57.017 37.5408 56.3779 37.0108 55.7669 36.4508C55.7569 36.4408 55.757 36.4408 55.757 36.4408C49.297 30.6008 46.407 23.1408 46.407 23.1408C41.887 33.1808 33.096 37.5508 25.456 39.4108C24.696 39.5918 23.9459 39.7118 23.2169 39.8418C23.1869 39.8518 23.157 39.7888 23.127 39.7988C20.196 40.3588 17.547 40.5178 15.507 40.5178H14.187C12.447 40.5178 11.408 40.5298 11.408 40.5298C11.408 40.5298 12.908 35.5808 24.908 15.5918C29.828 7.4018 34.238 5.9468 37.727 7.0568C38.167 7.1878 38.5869 7.3758 38.9879 7.5848C40.4669 8.3448 41.7379 9.5398 42.7769 10.7698C42.9469 10.9688 43.1169 11.1708 43.2769 11.3818C44.9569 13.5398 45.908 15.6418 45.908 15.6418C47.178 12.0408 48.658 9.6418 50.248 8.1918L50.818 7.6498C52.617 6.2908 54.527 5.5178 56.4669 6.5178H57.847C65.117 10.5178 72.097 23.0808 72.408 26.8308C72.908 32.8298 78.908 42.6408 78.908 42.6408Z" fill="#92561A"/>
<path d="M15.5069 40.5172C15.7269 40.5172 15.9369 40.1792 16.1479 39.9902C20.4079 36.0602 24.3069 31.6512 27.5269 26.8202C29.8379 23.3412 33.8669 10.7862 38.9879 7.58622L37.7269 7.07422C34.8569 9.40422 32.5869 14.4082 31.5069 16.5992C29.3569 20.9292 27.4459 25.0282 24.6069 28.9882C22.0069 32.6182 18.4269 37.5182 14.3179 40.5182L15.5069 40.5172Z" fill="#BA824B"/>
<path d="M43.2765 11.3815C42.1365 13.2215 40.9465 15.0305 40.0875 17.0405C38.3575 21.0615 36.5575 25.1105 34.2865 28.8705C31.9275 32.7805 29.1275 36.6815 25.4565 39.4105C24.6965 39.5915 23.9465 39.7115 23.2175 39.8415C28.2675 36.0915 32.0475 31.5015 35.0075 25.7615C36.5685 22.7415 38.0175 19.7315 39.3875 16.6315C40.3075 14.5405 41.5875 12.6815 42.7775 10.7715C42.9465 10.9715 43.1165 11.1715 43.2765 11.3815Z" fill="#BA824B"/>
<path d="M57.6971 38.0608C56.5171 34.3718 55.777 30.4708 55.187 26.3218C54.318 20.1718 54.0371 13.1808 50.8181 7.7108L50.248 8.1908C54.027 15.3218 53.6281 25.0208 54.9781 32.6908C55.1981 33.9308 55.4481 35.1808 55.7581 36.4408C55.7581 36.4408 55.758 36.4408 55.768 36.4508L57.6971 38.0608Z" fill="#BA824B"/>
<path d="M74.0373 43.2811C73.9983 43.2921 73.9473 43.2921 73.9083 43.2921C73.0783 43.3211 72.2773 43.3211 71.4983 43.2711C69.4083 40.8411 67.7073 38.0511 66.4683 35.5211C64.2393 30.9411 62.7582 26.1621 61.3582 21.2811C60.0482 16.7311 58.7493 11.1811 56.5983 6.6411C56.5583 6.5511 56.5183 6.4091 56.4783 6.3291C56.9383 6.4381 57.3883 6.5171 57.8383 6.5171H57.8483C61.4983 13.5171 62.5982 22.1501 65.1982 28.8301C67.3792 34.4591 70.0283 39.5211 73.9093 43.1411C73.9473 43.1811 73.9883 43.2521 74.0373 43.2811Z" fill="#BA824B"/>
<path d="M36.6444 58.7372C36.3414 58.5482 36.1794 57.5722 36.0224 57.2422C35.6054 56.3652 35.1564 55.8562 34.4574 55.1862C33.4144 54.1872 32.1314 53.8342 30.7524 53.6692C27.7624 53.3102 23.4475 56.0192 21.0765 57.5742C20.6215 57.8732 20.6544 58.6302 21.2334 58.7732C23.3684 59.3032 25.2574 58.1882 27.1214 57.2502C28.6544 56.4782 30.1484 55.8632 31.8794 56.3012C33.7424 56.7742 34.2964 58.5552 35.4014 59.8242C35.7364 60.2082 36.4264 60.0952 36.6604 59.6622C36.7124 59.5662 36.7635 59.4722 36.8135 59.3772C36.9365 59.1482 36.8674 58.8762 36.6444 58.7372Z" fill="#343A80"/>
<path d="M71.4144 57.3462C69.9324 54.7202 64.3364 54.1062 61.6994 53.8972C59.5734 53.7292 54.5874 55.2652 56.5294 58.3632C56.6664 58.5792 57.0354 58.6822 57.2174 58.4522C58.0184 57.4332 58.1154 56.4772 59.5594 56.1402C61.0654 55.7882 62.6944 56.1142 64.1704 56.4382C66.3014 56.9072 68.8554 58.5352 71.0634 58.2082C71.4494 58.1492 71.5824 57.6442 71.4144 57.3462Z" fill="#343A80"/>
<path d="M34.3391 66.5892C34.3391 67.8602 31.558 68.8902 28.126 68.8902C24.696 68.8902 21.915 67.8612 21.915 66.5892C21.915 65.3182 24.696 64.2882 28.126 64.2882C31.558 64.2882 34.3391 65.3182 34.3391 66.5892Z" fill="#A22D40"/>
<path d="M71.1496 65.6682C71.1496 66.9392 68.3676 67.9692 64.9376 67.9692C61.5056 67.9692 58.7246 66.9402 58.7246 65.6682C58.7246 64.3972 61.5056 63.3682 64.9376 63.3682C68.3676 63.3682 71.1496 64.3972 71.1496 65.6682Z" fill="#A22D40"/>
<path d="M50.1026 62.9092C49.9526 61.3412 48.5946 59.0932 47.3406 58.1892C46.3636 57.4852 45.4636 57.7402 44.7016 58.5872C42.0756 61.5182 41.7676 65.4102 45.0976 67.9552C45.5066 68.2682 46.0586 68.6352 46.6086 68.5522C48.5346 68.2692 50.2626 64.5962 50.1026 62.9092Z" fill="#CD8B6D"/>
<path d="M59.9673 73.5212C59.7973 73.8012 59.6273 74.0822 59.4273 74.3722C55.8983 79.7122 47.8673 86.2812 35.1873 75.1022C34.9973 74.9322 34.7973 74.7622 34.6073 74.5822C33.3573 73.4412 32.0683 72.1322 30.7383 70.6422C30.7383 70.6422 60.0783 70.3122 61.4083 69.6422C61.7673 69.4622 61.2873 71.2812 59.9673 73.5212Z" fill="white"/>
<path d="M59.9674 73.5215C59.7974 73.8015 59.6274 74.0825 59.4274 74.3725C56.3874 74.8215 53.3274 75.1225 50.2774 75.3325C45.1974 75.6725 40.2074 75.3825 35.1874 75.1025C34.9974 74.9325 34.7974 74.7625 34.6074 74.5825C39.2174 74.7625 43.8184 75.1115 48.4374 74.7925C52.3184 74.5315 56.1484 74.0825 59.9674 73.5215Z" fill="#B66C50"/>
<path d="M37.5825 45.2468C32.1445 37.7128 20.9205 40.9918 18.8125 49.4768C18.6425 50.1588 19.5735 50.5548 19.9415 49.9528C21.8015 46.9018 24.6775 43.5888 28.4845 43.4318C31.5315 43.3058 33.8605 45.7898 36.7005 46.3938C37.3045 46.5228 38.0175 45.8488 37.5825 45.2468Z" fill="#92561A"/>
<path d="M71.4725 46.4852C70.4435 42.3262 64.7225 40.8092 60.9905 41.0002C57.6305 41.1712 52.7445 43.7812 52.8305 47.6422C52.8425 48.1752 53.6585 48.4862 53.9065 47.9342C55.2775 44.8982 58.7615 43.3432 61.9225 43.2102C65.6315 43.0542 67.5694 45.8052 70.6124 47.1482C71.0704 47.3492 71.6055 47.0232 71.4725 46.4852Z" fill="#92561A"/>
<path opacity="0.7" d="M64.3511 63.5978C66.2771 59.1808 68.4271 54.8658 70.6911 50.6058C68.7931 49.8838 66.5181 49.4398 64.0291 49.3768C61.7961 53.8688 59.3821 58.2708 56.9551 62.6648C58.8411 63.2728 61.0411 63.6228 63.4181 63.6228C63.7341 63.6238 64.0401 63.6098 64.3511 63.5978Z" fill="#F6E1FB"/>
<path opacity="0.7" d="M32.6643 56.8292C33.8483 54.9042 35.0513 52.9932 36.2593 51.0822C34.4883 50.5692 32.4613 50.2802 30.2893 50.2802C29.8623 50.2802 29.4413 50.2932 29.0253 50.3142C26.6633 54.4942 23.9923 58.5052 22.0703 62.9092C23.7733 63.6992 25.8633 64.2392 28.1783 64.4482C29.5273 61.8482 31.1133 59.3482 32.6643 56.8292Z" fill="#F6E1FB"/>
<path d="M63.4234 49.3602C56.2634 49.3602 50.6534 52.4932 50.6534 56.4922C50.6534 56.6442 50.6764 56.7932 50.6934 56.9432C48.3684 55.4892 45.2454 55.3022 43.0244 56.9792C42.6334 53.1912 37.1914 50.2802 30.2944 50.2802C23.1344 50.2802 17.5244 53.4132 17.5244 57.4132C17.5244 61.4112 23.1334 64.5452 30.2944 64.5452C37.0394 64.5452 42.4034 61.7632 43.0024 58.0982C45.7304 56.3692 48.3494 56.4152 50.9634 58.4842C51.0384 58.5452 51.1204 58.5762 51.1994 58.5932C52.7704 61.5362 57.5784 63.6242 63.4234 63.6242C70.5834 63.6242 76.1914 60.4912 76.1914 56.4922C76.1914 52.4932 70.5834 49.3602 63.4234 49.3602ZM30.2944 63.6242C23.7614 63.6242 18.4444 60.8372 18.4444 57.4132C18.4444 53.9872 23.7604 51.2002 30.2944 51.2002C36.8264 51.2002 42.1424 53.9872 42.1424 57.4132C42.1424 60.8372 36.8274 63.6242 30.2944 63.6242ZM63.4234 62.7042C56.8904 62.7042 51.5744 59.9172 51.5744 56.4922C51.5744 53.0672 56.8894 50.2802 63.4234 50.2802C69.9554 50.2802 75.2714 53.0672 75.2714 56.4922C75.2714 59.9172 69.9554 62.7042 63.4234 62.7042Z" fill="white"/>
</svg>
