<svg width="70" height="117" viewBox="0 0 70 117" fill="none" xmlns="http://www.w3.org/2000/svg">
<path d="M49.9241 73.6129C48.7201 72.8559 47.5461 72.2829 46.3631 71.8759C46.3521 71.8759 46.3521 71.8659 46.3521 71.8659C45.9741 71.7399 45.5861 71.6239 45.2071 71.5259C45.2071 71.5259 45.2071 71.5259 45.2071 71.5159C42.9451 70.9239 40.6461 70.9049 38.1801 71.3619C38.1221 71.3709 38.0741 71.3808 38.0151 71.3898C37.7921 71.3698 37.5591 71.3509 37.3361 71.3229C36.5991 71.2639 35.8711 71.1859 35.1711 71.0419C32.9391 70.6039 30.8541 70.1188 28.9501 68.9638H28.9401C28.8141 68.8968 28.6781 68.8189 28.5511 68.7319C28.5231 68.6829 28.4731 68.6549 28.4261 68.6259C28.3861 68.5969 28.3481 68.5769 28.2991 68.5659C28.1921 68.4899 28.0751 68.4208 27.9691 68.3338C27.9691 68.3428 27.9591 68.3429 27.9591 68.3529C27.9101 68.3339 27.8721 68.3139 27.8231 68.3049C27.6201 68.2559 27.4151 68.3628 27.3091 68.5368C27.0761 68.5568 26.8521 68.5759 26.6191 68.6249C23.6491 69.1189 20.7281 71.4879 18.5251 73.3029C15.7891 75.5539 13.5661 77.9999 14.4981 81.7069C15.0701 84.0169 16.7591 85.8429 18.9811 87.2679C19.5151 87.6179 20.0871 87.9478 20.6801 88.2478C22.7761 89.3158 25.1621 90.1209 27.5111 90.7329C28.0551 90.8779 28.6001 91.0039 29.1331 91.1209C31.7731 91.7229 34.2581 92.0719 36.0631 92.2759C37.8381 92.4699 39.7701 92.5569 41.7211 92.4309C42.2361 92.4019 42.7411 92.3628 43.2541 92.3038C44.9431 92.1108 46.6031 91.7508 48.1261 91.1788V91.1679C48.1461 91.1679 48.1661 91.1578 48.1851 91.1488L48.2331 91.1289C48.8161 90.9059 49.3801 90.6439 49.9031 90.3529C52.6211 88.8779 54.6391 86.4809 55.1631 82.7919C55.6901 79.1359 52.8451 75.4479 49.9241 73.6129Z" fill="#92561A"/>
<path d="M20.6824 88.2489C20.0894 87.9479 19.5174 87.6179 18.9834 87.2689C19.2164 80.9019 22.7014 74.0499 26.6214 68.6259C26.8544 68.5769 27.0784 68.5579 27.3114 68.5379C27.4164 68.3629 27.6224 68.2569 27.8254 68.3059C23.4194 74.2829 20.3234 81.2509 20.6824 88.2489Z" fill="#B56E2D"/>
<path d="M28.9414 68.9635C25.6034 76.3885 26.5534 83.9195 29.1354 91.1215C28.6024 91.0045 28.0574 90.8785 27.5134 90.7335C25.0104 83.5415 24.9714 75.6015 28.4274 68.6245C28.5044 68.4495 28.5924 68.2745 28.6794 68.1095C28.8634 67.7595 29.3673 68.0705 29.2023 68.4205C29.1153 68.6045 29.0274 68.7895 28.9504 68.9635H28.9414Z" fill="#B56E2D"/>
<path d="M43.256 92.3042C42.742 92.3632 42.2379 92.4022 41.7229 92.4312C42.1199 88.5102 41.7619 84.5602 40.3929 80.4352C39.3749 77.3582 38.1519 74.3882 37.3359 71.3222C37.5589 71.3502 37.792 71.3702 38.015 71.3892C38.074 71.3792 38.1219 71.3692 38.1799 71.3612C39.6649 76.3492 42.1689 81.1432 42.9949 86.3272C43.3049 88.2582 43.403 90.2872 43.256 92.3042Z" fill="#B56E2D"/>
<path d="M49.905 90.3534L48.235 91.1294L48.187 91.1494L48.1281 91.1784V91.1674C49.1381 87.5484 49.517 83.8694 48.478 79.8314C47.73 76.8714 46.731 74.0964 45.207 71.5234C45.586 71.6214 45.9741 71.7374 46.3521 71.8634C46.3521 71.8634 46.352 71.8734 46.363 71.8734C47.033 72.8444 47.663 73.8134 48.119 74.7954C49.255 77.2594 49.992 80.0744 50.216 82.7824C50.409 85.2674 50.352 87.8604 49.905 90.3534Z" fill="#B56E2D"/>
<path d="M40.373 93.7028C36.346 97.0518 27.96 93.7028 27.96 93.7028C28.659 92.3148 29.077 90.7428 29.3 89.1228C29.329 88.9768 29.3479 88.8308 29.3579 88.6848C29.5129 87.4238 29.563 86.1518 29.533 84.9108C29.523 84.1428 29.4849 83.3868 29.4169 82.6588C29.1059 78.8728 28.3009 75.9238 28.3009 75.9238L39.0349 75.5928C38.3549 77.8348 38.181 80.2908 38.278 82.6588C38.317 83.7548 38.423 84.8328 38.559 85.8508C38.685 86.7738 38.8299 87.6568 38.9949 88.4718C39.0249 88.6168 39.0539 88.7628 39.0829 88.8988C39.6749 91.7418 40.373 93.7028 40.373 93.7028Z" fill="#CD8B6D"/>
<path d="M62.1539 116.793H7.40494C4.97894 113.444 3.66794 109.349 5.40494 105.632C5.40494 105.632 8.60796 99.4198 13.179 96.7898C13.8 96.4208 14.4419 96.1298 15.1109 95.9258C18.3239 94.9468 24.34 93.8108 28.873 93.0148C32.222 92.4328 34.765 92.0438 34.765 92.0438C34.765 92.0438 36.687 92.1508 39.549 92.5288C43.791 93.0828 50.0989 94.2468 55.3019 96.5468C59.6109 98.4398 63.1629 101.129 64.1239 104.904C65.3749 109.825 64.1919 113.794 62.1539 116.793Z" fill="#CD8B6D"/>
<path d="M55.301 96.5478C54.417 96.1588 53.486 95.7418 52.545 95.3148C51.972 95.0618 51.389 94.7998 50.807 94.5388C48.507 93.5288 46.149 92.5298 43.975 91.7828C43.508 91.6178 43.042 91.4628 42.597 91.3358C41.432 90.9778 40.345 90.7148 39.374 90.5888C39.18 92.2098 39.267 95.7328 37.694 96.7608C36.501 97.5478 34.928 97.6638 33.492 97.3728C32.9 97.2458 32.328 97.0528 31.813 96.8098C31.696 96.7508 31.581 96.6928 31.472 96.6348C29.958 95.8098 29.639 92.2858 29.182 90.8308C27.455 91.1318 25.475 91.8018 23.505 92.5578C22.933 92.7818 22.359 93.0148 21.786 93.2478C20.253 93.8888 18.767 94.5288 17.476 95.0518C16.981 95.2568 16.516 95.4408 16.079 95.5968C15.729 95.7228 15.409 95.8388 15.108 95.9258C14.439 96.1298 13.798 96.4208 13.176 96.7898C15.02 101.662 17.039 106.341 18.193 111.474C18.543 113.028 18.65 114.92 18.892 116.793H51.541C51.463 116.366 51.385 115.959 51.337 115.58C50.755 111.135 52.569 106.068 53.608 101.769C53.845 100.807 54.729 98.6908 55.301 96.5478Z" fill="#ADC0E0"/>
<path d="M23.525 116.793H21.653C21.4 114.096 21.099 111.416 20.449 108.855C19.295 104.332 17.576 99.9825 16.082 95.5965C16.518 95.4405 16.983 95.2565 17.479 95.0515C18.081 96.2845 18.664 97.5285 19.13 98.7985C20.255 101.944 21.226 105.175 22.011 108.427C22.68 111.203 23.146 113.998 23.525 116.793Z" fill="#6C8BB7"/>
<path d="M30.6001 116.792H28.6111C28.1071 114.055 27.4951 111.348 26.7381 108.668C25.2541 103.516 23.3991 98.4104 21.7881 93.2474C22.3611 93.0144 22.9351 92.7804 23.5071 92.5574C23.6041 92.8594 23.7001 93.1604 23.7871 93.4504C25.3411 98.3614 27.2431 103.194 28.6111 108.153C29.4071 111.027 30.0571 113.899 30.6001 116.792Z" fill="#6C8BB7"/>
<path d="M36.2105 116.792H34.7255C34.3955 114.113 33.9585 111.444 33.5025 108.775C32.8135 104.805 32.3565 100.797 31.8135 96.8084C32.3285 97.0504 32.9005 97.2444 33.4925 97.3714C33.9305 100.476 34.2885 103.583 34.8705 106.592C35.4925 109.861 35.8225 113.327 36.2105 116.792Z" fill="#6C8BB7"/>
<path d="M43.9752 91.7818C43.9462 92.7908 43.9161 93.7908 43.8581 94.7408C43.6641 98.1578 43.3932 101.585 43.4032 105.009C43.4122 108.911 43.2572 112.862 43.3432 116.792H41.4611C41.4611 112.871 41.4512 108.931 41.4892 105.009C41.5482 100.457 42.0232 95.8478 42.5962 91.3338C43.0422 91.4618 43.5082 91.6168 43.9752 91.7818Z" fill="#6C8BB7"/>
<path d="M52.5451 95.3138C51.4781 99.8078 50.6611 104.35 50.1091 108.98C49.7981 111.581 49.4591 114.192 49.1971 116.793H46.8281C47.2451 113.959 47.7801 111.184 48.1481 108.708C48.8371 104.011 49.5751 99.1968 50.8071 94.5378C51.3891 94.7998 51.9721 95.0608 52.5451 95.3138Z" fill="#6C8BB7"/>
<path d="M59.2846 46.6342C59.6756 46.0712 60.2676 45.6272 61.1666 45.2372C61.8526 44.9402 62.5946 44.7502 63.3256 44.6032C64.7776 44.3142 66.5466 44.2922 67.5756 45.5482C68.2886 46.4182 68.5536 47.8452 68.6026 48.9402C68.8276 53.8782 64.6696 56.6022 60.4136 57.7732C59.6086 57.9932 58.2046 58.8082 57.6026 57.8422C56.5796 56.1972 58.0616 48.4022 59.2846 46.6342Z" fill="#CD8B6D"/>
<path d="M59.27 50.3622C59.27 50.3622 64.491 45.5262 65.2 48.1972C65.911 50.8682 64.772 53.7612 64.772 53.7612C64.772 53.7612 64.861 50.2992 61.955 51.5452C61.955 51.5452 62.948 57.3762 58.567 54.6592C58.567 54.6592 57.011 52.5702 59.27 50.3622Z" fill="#B66C50"/>
<path d="M9.32665 46.6342C8.93665 46.0712 8.34367 45.6272 7.44567 45.2372C6.75867 44.9402 6.01667 44.7502 5.28567 44.6032C3.83367 44.3142 2.06467 44.2922 1.03567 45.5482C0.322669 46.4182 0.0576608 47.8452 0.00866076 48.9402C-0.215339 53.8782 3.94266 56.6022 8.19866 57.7732C9.00366 57.9932 10.4077 58.8082 11.0087 57.8422C12.0317 56.1972 10.5497 48.4022 9.32665 46.6342Z" fill="#CD8B6D"/>
<path d="M9.34214 50.3622C9.34214 50.3622 4.12115 45.5262 3.41215 48.1972C2.70115 50.8682 3.84113 53.7612 3.84113 53.7612C3.84113 53.7612 3.75214 50.2992 6.65714 51.5452C6.65714 51.5452 5.66414 57.3762 10.0451 54.6592C10.0451 54.6592 11.6021 52.5702 9.34214 50.3622Z" fill="#B66C50"/>
<path d="M60.761 42.5159C60.668 43.4669 60.5399 44.4269 60.4129 45.3969C59.5889 51.5409 58.603 57.6769 57.073 63.6939C54.192 75.0319 40.16 80.6079 35.164 80.2249C9.40296 76.7659 8.05997 59.0789 8.24797 57.1599C8.55297 54.1509 8.02696 50.8869 7.83196 47.8859C7.72896 46.2879 7.48995 44.6489 7.26195 43.0089C6.88695 40.2199 6.54795 37.3999 6.98195 34.6789C6.99895 34.5499 7.02497 34.4229 7.04997 34.2889C7.52497 31.5539 8.40997 28.7219 9.45497 26.1719C12.727 18.2179 19.331 9.3109 28.771 9.1319C30.982 9.0909 33.225 9.47388 35.409 10.1429C38.562 11.0939 41.604 12.6169 44.273 14.2239C50.214 17.8179 56.146 21.9049 59.112 28.4429C61.196 33.0479 61.254 37.6979 60.761 42.5159Z" fill="#FFC29C"/>
<path d="M63.2544 55.7188C62.5854 54.5178 61.1764 54.8238 60.3644 55.6158C59.9434 56.0268 59.6204 56.5718 59.4074 57.1598C59.0794 56.2418 58.4404 55.3348 57.5204 55.3098C55.7294 55.2648 54.9514 56.9038 55.0434 58.4938C55.1574 60.4838 56.7514 61.8887 57.7914 63.4227C58.4804 64.4397 59.3104 64.8577 60.2814 63.9317C61.3014 62.9597 61.9674 62.0618 62.6654 60.8648C63.4404 59.5368 64.0664 57.1768 63.2544 55.7188Z" fill="#AB0048"/>
<path d="M11.5738 55.7188C10.9038 54.5178 9.49577 54.8238 8.68377 55.6158C8.26277 56.0268 7.93977 56.5718 7.72677 57.1598C7.39877 56.2418 6.75974 55.3348 5.83974 55.3098C4.04774 55.2648 3.27075 56.9038 3.36275 58.4938C3.47675 60.4838 5.07074 61.8887 6.11074 63.4227C6.79974 64.4397 7.62876 64.8577 8.60076 63.9317C9.62076 62.9597 10.2868 62.0618 10.9848 60.8648C11.7588 59.5368 12.3838 57.1768 11.5738 55.7188Z" fill="#AB0048"/>
<path d="M40.1982 14.8162C40.0242 13.5842 39.0922 12.2152 38.5092 11.4592C37.8112 10.5562 36.9662 9.77019 35.9952 9.16719C35.4232 8.80919 34.7442 8.6632 34.1022 8.4402C34.0632 8.2172 33.9572 7.99518 33.7442 7.83918C33.2982 7.50918 32.8412 7.20717 32.3852 6.94517C31.9392 6.67417 31.4832 6.44019 31.0272 6.23619C22.7102 2.49119 13.1502 8.08119 8.05421 14.9432C4.86021 19.2232 2.25921 24.7452 1.70521 30.0922C0.988212 36.8862 3.64622 42.2632 5.87022 48.4642C6.06322 49.0182 6.50022 49.3862 7.10222 49.4062H7.34422C8.15922 49.4342 8.82822 48.5712 8.58522 47.7852C8.38322 47.1152 8.36221 46.4652 8.49821 45.8242C8.59621 45.3592 8.76122 44.9112 9.00322 44.4662C9.46922 43.5832 10.1782 42.7382 11.0232 41.9432C13.3232 39.7792 16.5552 38.0312 18.2352 37.0122C22.6312 34.3542 27.3782 32.2672 31.6362 29.3832C35.6842 26.6472 39.2552 21.7552 39.4592 16.7082C39.5182 16.6692 39.5752 16.6412 39.6242 16.5922C39.9832 16.2812 40.1682 15.8832 40.2062 15.4462C40.2382 15.2432 40.2272 15.0302 40.1982 14.8162Z" fill="#92561A"/>
<path d="M8.58588 47.7862C8.82888 48.5722 8.15988 49.4352 7.34488 49.4072H7.17987C2.04587 42.2242 3.67687 31.0052 7.24787 23.5222C11.9449 13.6902 20.0399 6.89619 31.0259 6.23619C31.3749 6.21719 31.7339 6.2082 32.0929 6.1982C32.5289 6.1882 32.6169 6.71318 32.3839 6.94518C32.3169 7.02318 32.2189 7.07119 32.0929 7.07119C21.3209 7.40119 12.4979 14.3802 8.25589 24.1142C4.98489 31.6362 4.22887 39.1482 7.07187 46.1452C5.96587 40.6232 7.42189 33.1992 8.78989 29.9962C13.7009 18.4762 22.1929 11.2452 35.0039 11.2352C35.3239 11.2352 35.3239 11.7202 35.0039 11.7392C25.1729 12.1772 16.5249 17.5142 12.0019 26.3372C9.25689 31.6942 6.47887 39.8762 8.49787 45.8252C8.36387 46.4662 8.38388 47.1162 8.58588 47.7862Z" fill="#B56E2D"/>
<path d="M40.3439 15.4372C40.2949 15.4372 40.2559 15.4372 40.2069 15.4472C34.8019 15.7772 29.0459 20.1052 24.9609 23.4162C22.0089 25.8222 19.1659 28.4432 16.7979 31.4422C14.3809 34.5092 11.9549 38.0892 11.0239 41.9432C10.1789 42.7392 9.46991 43.5842 9.00391 44.4662C9.46991 40.3512 11.7219 35.8762 13.6629 33.1402C19.3109 25.1812 29.7729 14.9522 40.1969 14.8162H40.3429C40.7509 14.8162 40.7409 15.4182 40.3439 15.4372Z" fill="#B56E2D"/>
<path d="M65.5103 18.6792C63.7143 15.3302 60.8133 12.1962 57.8823 9.57517L57.8423 9.54718C55.9893 7.88718 54.1353 6.45118 52.5443 5.30518C52.2813 5.12018 52.0193 4.93718 51.7573 4.76218C43.7123 -0.585823 33.1423 -1.10083 24.0773 1.58817C21.8643 2.25817 11.9643 5.35416 11.5863 8.93616C11.5473 9.21716 11.5753 9.50816 11.6733 9.79916C11.8093 10.1882 11.9943 10.5172 12.2173 10.7992C12.3043 10.9052 12.4023 11.0122 12.4993 11.0992C12.8573 11.4402 13.2843 11.6922 13.7603 11.8862C13.7703 11.8862 13.7703 11.8862 13.7703 11.8862C14.6433 12.2542 15.6543 12.4302 16.6043 12.6232C19.6423 13.2542 22.2923 15.2642 24.7673 17.2332L26.3103 18.4752C26.3193 18.4752 26.3193 18.4752 26.3193 18.4752C26.5823 18.6882 26.8433 18.8922 27.1053 19.0862C30.2413 21.4832 31.7353 25.1512 34.0643 28.2102C36.2963 31.1402 39.1023 33.5852 42.2563 35.4982C45.1483 37.2452 48.3223 38.5562 51.6793 39.0112C53.9913 39.3312 57.7263 43.1562 59.8033 44.7772C60.4913 45.3102 60.9963 45.6022 61.2103 45.4572C61.3473 45.3692 61.5123 45.2422 61.6953 45.0882C62.4143 44.4862 63.3843 43.4772 63.6653 42.7392C64.0053 42.3502 64.3363 41.9532 64.6553 41.5462C65.0833 40.9922 65.4813 40.4102 65.8393 39.8282C66.5003 38.7892 67.0623 37.7022 67.5193 36.5852C67.8213 35.8582 68.0833 35.1102 68.2953 34.3552C69.7903 29.1032 69.0913 23.3952 65.5103 18.6792Z" fill="#A16929"/>
<path d="M68.2953 34.3545C68.0823 35.1105 67.8203 35.8575 67.5193 36.5845C66.7523 33.4215 65.6173 30.3645 63.7443 27.5205C59.9493 21.7555 54.5053 17.4945 48.3123 14.5255C41.2953 11.1485 33.9183 8.75951 26.0473 8.73151C21.1363 8.71151 16.7013 9.7305 12.2173 10.7985C11.9943 10.5165 11.8093 10.1875 11.6733 9.7985C11.5753 9.5075 11.5473 9.21652 11.5863 8.93552C17.6613 5.65452 23.1453 3.47051 30.3373 2.75251C37.3453 2.06351 45.1383 1.90751 51.7573 4.76151L57.8423 9.54651C56.1443 8.25551 54.3003 7.15853 52.2913 6.28553C45.4203 3.29653 37.7033 2.98452 30.3373 3.84852C23.3113 4.67352 17.9153 6.77052 11.7403 9.68152C13.5163 9.10852 15.3233 8.5835 17.2243 8.2735C21.2623 7.6325 25.3863 7.34252 29.4633 7.75052C37.2563 8.52652 44.8173 10.8555 51.6203 14.7965C59.5903 19.4075 65.3543 26.2605 68.2953 34.3545Z" fill="#C6813C"/>
<path d="M57.8718 9.56592C57.8618 9.55892 57.8518 9.5519 57.8418 9.5459L57.8818 9.5759C57.8818 9.5659 57.8818 9.56592 57.8718 9.56592Z" fill="#C6813C"/>
<path d="M65.8393 39.8285C65.4823 40.4105 65.0833 40.9925 64.6553 41.5465C61.3753 32.4135 54.9113 24.3185 46.6423 19.4175C39.6153 15.2535 32.1713 12.8375 23.9903 12.4305C20.8363 12.2755 17.2153 11.7495 13.7693 11.8865C13.7693 11.8865 13.7693 11.8865 13.7593 11.8865C13.2833 11.6925 12.8573 11.4405 12.4983 11.0995C16.8463 10.4695 21.6503 10.9445 25.6293 11.2845C33.8693 11.9835 41.7313 14.2355 48.6413 18.9045C55.8043 23.7455 62.4143 31.3155 65.8393 39.8285Z" fill="#C6813C"/>
<path d="M24.7676 17.2333C27.9216 17.1733 31.0846 17.4473 34.3276 18.5623C40.0836 20.5423 45.4886 23.9203 49.8266 28.2103C54.7086 33.0333 58.8336 38.7783 61.6966 45.0873C61.5126 45.2413 61.3476 45.3683 61.2116 45.4563C60.9976 45.6023 60.4926 45.3103 59.8046 44.7763C57.0866 39.0103 53.5536 33.6633 48.8096 29.2383C43.8006 24.5703 37.6086 20.3273 30.7856 19.0083C29.2796 18.7073 27.7966 18.5523 26.3196 18.4753C26.3196 18.4753 26.3196 18.4753 26.3106 18.4753L24.7676 17.2333Z" fill="#C6813C"/>
<g opacity="0.4">
<path d="M53.4458 56.9892C53.4458 58.4832 51.4358 59.6912 48.9568 59.6912C46.4768 59.6912 44.4678 58.4832 44.4678 56.9892C44.4678 55.4982 46.4768 54.2882 48.9568 54.2882C51.4358 54.2882 53.4458 55.4982 53.4458 56.9892Z" fill="#DB5D7B"/>
<path d="M23.3578 57.9599C23.3578 59.4539 21.3488 60.6619 18.8698 60.6619C16.3898 60.6619 14.3809 59.4539 14.3809 57.9599C14.3809 56.4679 16.3898 55.2589 18.8698 55.2589C21.3488 55.2589 23.3578 56.4679 23.3578 57.9599Z" fill="#DB5D7B"/>
</g>
<path d="M44.2368 64.1582C42.5968 63.6742 41.3148 63.1212 39.7038 62.5572C37.6948 61.8482 35.5798 63.0912 33.5598 62.6932C30.9198 62.1692 27.5628 62.8092 25.1068 64.0232C25.0198 63.9842 24.9218 64.0132 24.8548 64.1002C24.8438 64.1202 24.8258 64.1492 24.8058 64.1682C24.7468 64.1962 24.6898 64.2262 24.6318 64.2552C24.5448 64.3042 24.5638 64.4302 24.6418 64.4692C24.6208 64.5952 24.6698 64.7212 24.7568 64.8092C28.3768 68.6322 31.7348 74.2722 37.8588 72.3212C39.7908 71.7002 44.6438 64.2752 44.2368 64.1582Z" fill="#AB0048"/>
<path d="M44.2367 64.1582C35.9867 69.7592 24.8547 64.1002 24.8547 64.1002C24.9217 64.0132 25.0197 63.9842 25.1067 64.0232C27.5627 62.8092 30.9207 62.1692 33.5597 62.6932C35.5797 63.0912 37.6947 61.8482 39.7037 62.5572C41.3147 63.1212 42.5967 63.6742 44.2367 64.1582Z" fill="#84003C"/>
<path d="M36.8244 55.9378C36.8244 57.6848 35.4384 58.4099 34.1334 58.4099C32.8284 58.4099 31.7334 57.4658 31.7334 55.7198C31.7334 53.9728 32.8654 51.4288 34.1714 51.4288C35.4744 51.4288 36.8244 54.1898 36.8244 55.9378Z" fill="#CD8B6D"/>
<path opacity="0.4" d="M21.604 34.2338C19.034 34.1048 16.8771 35.5268 15.2521 37.3798C13.0801 39.8598 12.992 42.3149 13.177 45.4559C13.207 45.9709 13.999 46.1338 14.116 45.5828C14.158 45.3798 14.189 45.1768 14.219 44.9758C14.27 44.9878 14.3181 45.0009 14.3821 45.0089C15.0191 45.0769 15.022 44.1808 14.521 43.9808C15.424 44.3428 15.3231 44.1378 16.1231 43.2948C17.2721 42.0878 18.357 41.2369 20.077 41.0469C22.142 40.8169 26.5151 41.3669 26.6441 43.9999C26.6691 44.5009 27.0121 44.7819 27.4851 44.8409C27.4891 44.8409 27.4931 44.8418 27.4971 44.8418C28.0071 44.9108 28.379 44.7219 28.569 44.2319C30.641 38.8889 26.92 34.4998 21.604 34.2338Z" fill="#ADC0E0"/>
<path opacity="0.4" d="M46.2298 34.5043C43.4708 34.6213 41.3548 36.6963 40.1698 39.0223C39.3688 40.5953 38.8658 43.2063 40.2918 44.5393C40.6328 44.8563 41.2008 44.4493 40.9468 44.0343L40.9458 44.0323C40.9588 44.0253 40.9708 44.0303 40.9828 44.0203C43.0128 42.5023 44.5148 41.1963 47.2008 40.8393C49.6078 40.5193 52.7508 42.3023 53.4558 44.7523C53.7758 45.8663 55.3468 45.5913 55.4138 44.4863C55.7418 39.1253 51.7428 34.2703 46.2298 34.5043Z" fill="#ADC0E0"/>
<path d="M14.3848 42.3436C16.1798 40.1816 18.5828 39.2366 21.3778 39.3406C26.2428 39.5216 29.5067 44.4166 27.7197 48.9336C27.6057 49.2186 27.0977 49.2136 27.1367 48.8546C27.5047 45.4286 24.8398 42.1596 21.3778 42.1536C19.6938 42.1506 18.2167 42.7166 17.0257 43.8916C15.8827 45.0186 16.1518 46.7046 15.3718 47.9866C15.0678 48.4856 14.3388 48.6126 13.9198 48.1746C12.3188 46.4886 13.0018 44.0106 14.3848 42.3436Z" fill="#390A0A"/>
<path d="M15.1357 47.3286C15.1357 50.8176 18.0067 53.6436 21.5487 53.6436C25.0917 53.6436 27.9617 50.8176 27.9617 47.3286C27.9617 43.8406 25.0917 41.0136 21.5487 41.0136C18.0067 41.0146 15.1357 43.8406 15.1357 47.3286Z" fill="white"/>
<path d="M25.7787 47.5626C25.7787 50.4026 23.9837 52.7056 21.7707 52.7056C19.5557 52.7056 17.7617 50.4026 17.7617 47.5626C17.7617 44.7246 19.5557 42.4216 21.7707 42.4216C23.9837 42.4226 25.7787 44.7246 25.7787 47.5626Z" fill="#80422B"/>
<path d="M25.2418 47.5621C25.2418 50.0211 23.6878 52.0172 21.7708 52.0172C19.8518 52.0172 18.2998 50.0211 18.2998 47.5621C18.2998 45.1041 19.8518 43.1091 21.7708 43.1091C23.6878 43.1091 25.2418 45.1041 25.2418 47.5621Z" fill="#390A0A"/>
<path d="M24.7994 44.1051C24.7994 44.6541 24.1404 45.1001 23.3284 45.1001C22.5164 45.1001 21.8584 44.6541 21.8584 44.1051C21.8584 43.5571 22.5164 43.1091 23.3284 43.1091C24.1404 43.1091 24.7994 43.5571 24.7994 44.1051Z" fill="white"/>
<path d="M53.7568 41.9796C51.9628 39.8166 49.5588 38.8716 46.7638 38.9756C41.8988 39.1566 38.6348 44.0516 40.4218 48.5686C40.5358 48.8536 41.0438 48.8486 41.0048 48.4896C40.6368 45.0646 43.3018 41.7946 46.7638 41.7896C48.4478 41.7866 49.9248 42.3526 51.1158 43.5276C52.2588 44.6546 51.9898 46.3406 52.7698 47.6216C53.0738 48.1206 53.8028 48.2486 54.2218 47.8096C55.8248 46.1256 55.1398 43.6466 53.7568 41.9796Z" fill="#390A0A"/>
<path d="M39.7117 47.3286C39.7117 50.8176 42.5827 53.6436 46.1257 53.6436C49.6677 53.6436 52.5387 50.8176 52.5387 47.3286C52.5387 43.8406 49.6677 41.0136 46.1257 41.0136C42.5827 41.0146 39.7117 43.8406 39.7117 47.3286Z" fill="white"/>
<path d="M50.0421 47.5628C50.0421 50.4028 48.2471 52.7058 46.0341 52.7058C43.8191 52.7058 42.0251 50.4028 42.0251 47.5628C42.0251 44.7248 43.8191 42.4218 46.0341 42.4218C48.2471 42.4228 50.0421 44.7248 50.0421 47.5628Z" fill="#80422B"/>
<path d="M49.5052 47.5623C49.5052 50.0213 47.9512 52.0174 46.0342 52.0174C44.1152 52.0174 42.5632 50.0213 42.5632 47.5623C42.5632 45.1043 44.1152 43.1093 46.0342 43.1093C47.9522 43.1093 49.5052 45.1043 49.5052 47.5623Z" fill="#390A0A"/>
<path d="M49.0638 44.1053C49.0638 44.6543 48.4048 45.1003 47.5928 45.1003C46.7818 45.1003 46.1228 44.6543 46.1228 44.1053C46.1228 43.5573 46.7808 43.1093 47.5928 43.1093C48.4048 43.1093 49.0638 43.5573 49.0638 44.1053Z" fill="white"/>
<path d="M14.2607 38.8652C14.2607 38.8652 19.7207 22.4872 29.1827 38.8652C29.1827 38.8652 25.1797 32.3142 14.2607 38.8652Z" fill="#390A0A"/>
<path d="M39.9805 38.8652C39.9805 38.8652 45.4395 22.4872 54.9025 38.8652C54.9025 38.8652 50.8995 32.3142 39.9805 38.8652Z" fill="#390A0A"/>
</svg>
