<svg width="72" height="120" viewBox="0 0 72 120" fill="none" xmlns="http://www.w3.org/2000/svg">
<path d="M67.3393 119.045L57.0303 119.106L35.1913 119.246L12.4453 118.68L3.66329 118.464C3.66329 118.464 2.33228 114.5 3.53928 109.784C4.39528 106.464 6.59228 102.785 11.4443 99.821C11.6783 99.676 11.9123 99.5439 12.1653 99.4009C14.1553 98.2839 16.5823 97.2759 19.4913 96.4479C19.7343 96.3839 19.9683 96.3179 20.2123 96.2629C20.5043 96.1769 20.7853 96.112 21.0883 96.037C21.3213 95.979 21.5643 95.925 21.8073 95.868C21.8563 95.859 21.9143 95.8399 21.9733 95.8319C22.9263 95.6179 23.9183 95.4219 24.9673 95.2469C26.0273 95.0619 27.1443 94.8969 28.3103 94.7629C28.3103 94.7629 28.3783 94.793 28.5033 94.864C28.4383 93.397 28.2683 91.9689 28.0463 90.6559C27.3293 86.3199 26.0773 83.127 26.0773 83.127L44.5103 84.0229C43.5793 87.0899 43.1843 89.9119 43.1033 92.4149C43.0683 93.0939 43.0723 93.7439 43.0853 94.3749C43.1343 94.3369 43.1633 94.317 43.1633 94.317C45.4323 94.628 47.4973 95.0269 49.3853 95.4899C49.8303 95.6009 50.2663 95.7139 50.6823 95.8229C50.8083 95.8629 50.9333 95.8929 51.0503 95.9229C51.1273 95.9539 51.2043 95.974 51.2823 95.993C52.0953 96.234 52.8693 96.4729 53.6143 96.743C53.6533 96.752 53.7013 96.773 53.7403 96.782C55.5113 97.41 57.0773 98.103 58.4573 98.873C58.5163 98.902 58.5633 98.933 58.6223 98.963C63.5853 101.705 65.8453 105.123 67.1263 108.367C69.3473 113.987 67.3393 119.045 67.3393 119.045Z" fill="#CD8B6D"/>
<path d="M37.315 89.7973C15.887 89.6023 12.56 62.7743 12.044 53.2363C11.837 49.3343 12.042 42.9203 12.381 36.6333C12.871 27.6023 13.65 18.8243 13.86 18.1273C20.218 -3.13869 41.294 -2.46069 48.301 3.91231C57.283 12.0803 57.89 20.9083 57.89 20.9083C58.667 26.1763 59.21 31.5573 59.491 36.8693C60.93 64.3113 55.279 89.9623 37.315 89.7973Z" fill="#E8B299"/>
<path d="M13.078 38.2117C13.078 38.2117 4.57799 23.5437 0.891986 36.0167C-2.79601 48.4867 5.78398 54.5197 11.45 53.3807C17.118 52.2407 13.078 38.2117 13.078 38.2117Z" fill="#CD8B6D"/>
<path d="M12.0133 40.5827C12.0133 40.5827 6.14528 31.2977 4.02728 34.9997C1.90828 38.7037 2.46027 43.4717 2.46027 43.4717C2.46027 43.4717 3.69828 38.2747 7.54128 41.2837C7.54128 41.2837 3.74428 49.5867 11.3583 47.2757C11.3583 47.2757 14.5073 44.7737 12.0133 40.5827Z" fill="#B66C50"/>
<path d="M58.6867 36.8407C58.6867 36.8407 67.4527 22.3337 70.9107 34.8687C74.3677 47.4047 65.6797 53.2787 60.0357 52.0377C54.3907 50.7947 58.6867 36.8407 58.6867 36.8407Z" fill="#CD8B6D"/>
<path d="M58.7776 40.1947C58.7776 40.1947 64.8166 31.0197 66.8656 34.7597C68.9156 38.5007 68.2766 43.2577 68.2766 43.2577C68.2766 43.2577 67.1336 38.0377 63.2366 40.9787C63.2366 40.9787 66.8806 49.3487 59.3106 46.8987C59.3106 46.8987 56.2086 44.3397 58.7776 40.1947Z" fill="#B66C50"/>
<path opacity="0.3" d="M57.8911 20.9093C57.8911 20.9093 57.2841 12.0813 48.3021 3.91329C41.2941 -2.45971 20.2191 -3.13772 13.8611 18.1283C13.6521 18.8253 12.8731 27.6033 12.3821 36.6343C16.2281 32.1273 16.8521 25.3773 19.0111 19.7293C20.6151 24.7613 26.1651 27.9573 31.4921 28.3163C37.7771 28.7523 43.4981 22.8843 45.9381 17.1613C48.3301 24.2103 54.5611 41.1833 59.4911 36.8713C59.2111 31.5583 58.6681 26.1773 57.8911 20.9093Z" fill="#4A1D1D"/>
<path d="M20.7854 34.3543C18.1824 36.1753 16.6554 40.6704 18.1314 43.5924C18.2024 43.7364 18.4614 43.6793 18.4444 43.5123C18.1654 40.9233 19.0784 38.1304 20.7604 36.1784C21.8014 34.9704 23.2284 34.4703 24.7764 34.3583C26.4684 34.2363 27.2154 36.0344 28.5404 36.6614C28.8154 36.7914 29.1634 36.5874 29.0774 36.2564C28.0744 32.5014 23.4114 32.5213 20.7854 34.3543Z" fill="#390A0A"/>
<path d="M29.7081 42.834C29.6641 47.685 27.0961 51.594 23.9721 51.564C20.8481 51.536 18.3501 47.581 18.3951 42.731C18.4381 37.88 21.0091 33.969 24.1331 33.998C27.2561 34.026 29.7521 37.984 29.7081 42.834Z" fill="white"/>
<path d="M28.5042 43.109C28.4722 46.72 26.5162 49.63 24.1392 49.609C21.7622 49.588 19.8602 46.642 19.8932 43.031C19.9262 39.42 21.8812 36.509 24.2582 36.531C26.6362 36.552 28.5382 39.498 28.5042 43.109Z" fill="#C28432"/>
<path d="M27.8221 43.1795C27.7931 46.2275 26.1901 48.6835 24.2401 48.6645C22.2911 48.6475 20.7321 46.1625 20.7611 43.1145C20.7881 40.0685 22.3931 37.6136 24.3411 37.6306C26.2911 37.6506 27.8491 40.1335 27.8221 43.1795Z" fill="#390A0A"/>
<path d="M28.5483 38.433C28.5423 39.034 27.5393 39.51 26.3093 39.498C25.0803 39.487 24.0863 38.992 24.0923 38.392C24.0963 37.79 25.0993 37.317 26.3293 37.329C27.5593 37.34 28.5533 37.832 28.5483 38.433Z" fill="white"/>
<path d="M51.1701 34.6343C53.7381 36.5013 55.1851 41.0242 53.6551 43.9182C53.5811 44.0602 53.3231 43.9983 53.3421 43.8323C53.6681 41.2493 52.8071 38.4393 51.1611 36.4573C50.1421 35.2303 48.7241 34.7032 47.1801 34.5642C45.4911 34.4102 44.7101 36.1942 43.3741 36.7962C43.0961 36.9222 42.7511 36.7113 42.8451 36.3823C43.9161 32.6463 48.5791 32.7513 51.1701 34.6343Z" fill="#390A0A"/>
<path d="M53.0001 43.0479C52.9561 47.8979 50.3871 51.8059 47.2641 51.7769C44.1401 51.7489 41.6431 47.7948 41.6871 42.9428C41.7311 38.0918 44.3001 34.1829 47.4241 34.2119C50.5481 34.2409 53.0441 38.1969 53.0001 43.0479Z" fill="white"/>
<path d="M51.797 43.3228C51.763 46.9328 49.808 49.8448 47.429 49.8228C45.052 49.8008 43.151 46.8538 43.184 43.2428C43.217 39.6328 45.172 36.7218 47.55 36.7428C49.928 36.7648 51.83 39.7118 51.797 43.3228Z" fill="#C28432"/>
<path d="M51.1131 43.3924C51.0861 46.4414 49.4831 48.8964 47.5331 48.8784C45.5841 48.8594 44.0251 46.3764 44.0521 43.3274C44.0801 40.2814 45.6841 37.8254 47.6331 37.8454C49.5831 37.8624 51.1411 40.3474 51.1131 43.3924Z" fill="#390A0A"/>
<path d="M51.8391 38.6458C51.8341 39.2468 50.8321 39.7218 49.6021 39.7108C48.3721 39.6988 47.3781 39.2059 47.3841 38.6049C47.3901 38.0039 48.3921 37.5299 49.6211 37.5399C50.8521 37.5519 51.8451 38.0458 51.8391 38.6458Z" fill="white"/>
<path d="M57.6695 40.8943C57.1645 40.9583 56.6955 41.2743 56.6995 41.8373C56.7505 44.7103 56.0565 47.3923 54.8125 49.7773C54.5745 50.2323 54.3185 50.6744 54.0425 51.1104C52.4275 53.6774 50.1655 55.8593 47.5495 57.5353C47.2175 57.7543 46.8755 57.9654 46.5335 58.1664C43.2565 60.0374 39.5285 61.1393 35.8395 61.2513C35.6155 61.2583 35.3935 61.2663 35.1695 61.2643L34.9955 61.2623C31.7355 61.2143 28.7575 59.9354 26.1635 58.0764C25.9025 57.8994 25.6525 57.7033 25.4025 57.5163C23.9465 56.3763 22.6295 55.0733 21.4485 53.7243C20.3715 52.4913 19.1625 51.0233 18.0115 49.4313C17.9635 49.3713 17.9265 49.3043 17.8775 49.2453C16.2255 46.9343 14.7315 44.4403 13.8445 41.7293C12.7075 41.6183 11.6555 41.9323 10.7645 43.2603C10.3855 43.8253 10.0765 44.4333 9.79746 45.0583C9.66046 47.9293 9.56546 50.7973 9.21046 53.5533C8.13546 61.7543 7.34146 68.9093 11.5635 76.3443C11.6685 76.5393 11.7835 76.7253 11.8975 76.9103C12.3185 77.6223 12.7495 78.3073 13.2095 78.9503C16.0445 83.0333 19.5025 85.9583 23.4555 87.7693C24.1605 88.0953 24.8965 88.3943 25.6415 88.6543C28.9795 89.8003 32.6245 90.2323 36.4995 89.9663C36.9265 89.9423 37.3535 89.8963 37.7905 89.8623C38.9955 89.7273 40.2195 89.5343 41.4655 89.2843C43.8195 88.8023 45.9505 88.0853 47.8805 87.1693C48.4855 86.8843 49.0705 86.5794 49.6355 86.2444C54.7785 83.2814 58.2665 78.7333 60.3645 73.1413C60.8225 71.9323 61.2125 70.6753 61.5445 69.3673C62.0985 67.2083 62.4685 64.9214 62.6845 62.5544C62.9765 59.2594 63.4615 40.1803 57.6695 40.8943Z" fill="#4A1D1D"/>
<path d="M13.2083 78.9519C12.7483 78.3089 12.3173 77.6239 11.8963 76.9119C11.3233 67.4139 14.0113 57.9849 17.8763 49.2459C17.9243 49.3059 17.9623 49.3729 18.0103 49.4319C14.0523 58.8689 12.6403 68.8439 13.2083 78.9519Z" fill="#703838"/>
<path d="M23.6365 77.4473C23.7925 81.5233 24.5365 85.1603 25.6395 88.6563C24.8945 88.3963 24.1595 88.0973 23.4535 87.7713C21.2615 78.0463 22.8725 67.4523 25.4005 57.5173C25.6505 57.7043 25.9005 57.9003 26.1615 58.0773C24.6385 64.4393 23.3765 70.8633 23.6365 77.4473Z" fill="#703838"/>
<path d="M37.7905 89.8638C37.3535 89.8978 36.9265 89.9438 36.4995 89.9678C36.2545 85.8788 35.9725 81.8008 35.8065 77.7138C35.5755 72.2178 34.9845 66.7678 34.9955 61.2628L35.1695 61.2648C35.3935 61.2668 35.6155 61.2588 35.8395 61.2518C35.9425 62.7968 36.0735 64.3028 36.1385 65.6718C36.3585 70.2838 36.8025 74.8788 37.0905 79.4818C37.3005 82.9398 37.5695 86.4068 37.7905 89.8638Z" fill="#703838"/>
<path d="M49.6345 86.2449C49.0695 86.5799 48.4844 86.885 47.8794 87.17C48.2664 83.127 48.7494 79.0829 48.6594 75.1719C48.5274 69.4539 47.4334 63.8149 46.5334 58.1669C46.8754 57.9659 47.2174 57.7549 47.5494 57.5359C48.6604 63.3879 49.9264 69.214 49.9884 75.183C50.0234 78.883 49.8535 82.5679 49.6345 86.2449Z" fill="#703838"/>
<path d="M61.543 69.3681C61.211 70.6771 60.821 71.9331 60.363 73.1421C59.991 70.2471 59.445 67.3291 58.677 64.3811C57.552 60.0811 56.11 55.4001 54.042 51.1111C54.318 50.6751 54.574 50.2331 54.812 49.7781C57.333 54.2761 59.023 59.4841 60.224 63.9691C60.693 65.7401 61.143 67.5501 61.543 69.3681Z" fill="#703838"/>
<path d="M23.4658 66.1278C23.4658 66.1278 26.0808 63.2388 30.6038 63.9268C35.1268 64.6148 46.4528 64.3968 50.0218 63.1348C50.0218 63.1348 39.5578 75.3318 23.4658 66.1278Z" fill="#B66C50"/>
<path d="M23.4658 66.1278C23.4658 66.1278 29.6178 65.5358 36.7258 66.5708C43.8348 67.6068 50.0218 63.1348 50.0218 63.1348C50.0218 63.1348 38.1878 83.7318 23.4658 66.1278Z" fill="#CD8B6D"/>
<path d="M29.6261 25.4723C28.2301 24.1373 26.0181 24.3773 24.3101 24.8003C21.9321 25.3853 15.8511 27.3843 17.8031 30.9123C17.8321 30.9653 17.8701 30.9933 17.9041 31.0323C17.8451 31.2493 18.0991 31.4853 18.3361 31.3643C18.3831 31.3413 18.4381 31.3223 18.4891 31.3003C18.6711 31.2883 18.8451 31.2113 18.9881 31.0863C20.6001 30.5193 22.6421 30.5953 24.2431 30.7053C26.4251 30.8513 28.1701 32.2743 30.3891 32.1743C30.7671 32.1593 31.0221 31.8973 31.0511 31.5253C31.2211 29.3543 31.3121 27.0833 29.6261 25.4723Z" fill="#4A1D1D"/>
<path d="M40.8471 31.6153C40.8691 31.9873 41.1221 32.2533 41.4981 32.2773C43.7121 32.4163 45.4841 31.0263 47.6671 30.9203C49.2721 30.8403 51.3161 30.8013 52.9151 31.3983C53.0551 31.5253 53.2281 31.6043 53.4101 31.6193C53.4591 31.6453 53.5151 31.6623 53.5631 31.6863C53.7971 31.8133 54.0561 31.5813 54.0001 31.3623C54.0341 31.3233 54.0741 31.2973 54.1031 31.2473C56.1201 27.7543 50.0761 25.6433 47.7081 25.0153C46.0071 24.5633 43.8021 24.2813 42.3811 25.5893C40.6671 27.1693 40.7181 29.4413 40.8471 31.6153Z" fill="#4A1D1D"/>
<path d="M37.215 56.2776C36.533 55.0536 37.214 52.7686 37.223 51.3506C37.233 49.4626 37.401 47.6266 37.418 45.7296C37.432 44.2186 37.854 40.7746 36.72 39.1506C36.633 37.6766 35.307 37.7446 34.654 39.0016C33.567 41.1006 33.718 43.8736 33.696 46.1786C33.676 48.2006 33.613 50.2156 33.492 52.2516C33.41 53.5966 33.473 55.6236 32.899 56.8056C31.143 55.8136 29 54.9446 30.352 57.8686C31.029 59.3336 33.367 62.5556 35.185 62.3896C37.156 62.2116 39.818 58.9276 40.553 57.2246C41.681 54.6176 38.646 55.3796 37.215 56.2776Z" fill="#CD8B6D"/>
<path d="M67.3393 119.045L57.0303 119.106L35.1913 119.246L12.4453 118.68L3.66329 118.464C3.66329 118.464 2.33228 114.5 3.53928 109.784C4.39528 106.464 6.59228 102.785 11.4443 99.8213C11.6783 99.6763 11.9123 99.5442 12.1653 99.4012C14.1553 98.2842 16.5823 97.2762 19.4913 96.4482C19.7343 96.3842 19.9683 96.3182 20.2123 96.2632C20.5043 96.1772 20.7853 96.1123 21.0883 96.0373C21.3213 95.9793 21.5643 95.9253 21.8073 95.8683C21.8563 95.8593 21.9143 95.8402 21.9733 95.8322C22.9263 95.6182 23.9183 95.4223 24.9673 95.2473C26.0273 95.0623 27.1443 94.8972 28.3103 94.7632C28.3103 94.7632 28.3783 94.7933 28.5033 94.8643C28.4383 93.3973 28.2683 91.9692 28.0463 90.6562C31.4333 91.7153 37.4093 93.1593 43.1043 92.4153C43.0693 93.0943 43.0733 93.7442 43.0863 94.3752C43.1353 94.3372 43.1643 94.3173 43.1643 94.3173C45.4333 94.6283 47.4983 95.0272 49.3863 95.4902C49.8313 95.6012 50.2673 95.7142 50.6833 95.8232C50.8093 95.8632 50.9343 95.8932 51.0513 95.9232C51.1283 95.9542 51.2053 95.9743 51.2833 95.9933C52.0963 96.2343 52.8703 96.4733 53.6153 96.7433C53.6543 96.7523 53.7023 96.7733 53.7413 96.7823C55.5123 97.4103 57.0783 98.1033 58.4583 98.8733C58.5173 98.9023 58.5643 98.9333 58.6233 98.9633C63.5863 101.705 65.8463 105.123 67.1273 108.367C69.3473 113.987 67.3393 119.045 67.3393 119.045Z" fill="#390A0A"/>
</svg>
