<svg width="120" height="129" viewBox="0 0 120 129" fill="none" xmlns="http://www.w3.org/2000/svg">
<path d="M119.738 128.067H0C0.21 125.943 1.297 118.579 6.68 109.159C13.082 97.9503 41.604 99.5463 42.565 97.9503C42.978 97.2583 43.218 94.4413 43.363 91.4803C43.526 87.6343 43.526 83.5303 43.526 83.5303L59.868 88.3463L76.21 83.5303C76.21 83.5303 76.21 87.5883 76.374 91.4133C76.519 94.3943 76.75 97.2483 77.172 97.9503C78.134 99.5463 106.655 97.9503 113.057 109.159C118.44 118.578 119.528 125.943 119.738 128.067Z" fill="#CD8B6D"/>
<path d="M119.738 128.067H0C0.173 126.29 0.971002 120.83 4.392 113.561C4.536 113.244 4.689 112.926 4.843 112.61C5.391 111.495 6.007 110.341 6.679 109.159C7.323 108.025 8.198 107.024 9.255 106.131C9.572 105.863 9.899 105.613 10.245 105.361C13.129 103.304 17.013 101.93 21.098 100.988C21.493 100.901 21.896 100.805 22.29 100.728C22.318 100.718 22.357 100.718 22.386 100.708C23.886 100.391 25.396 100.131 26.875 99.9103C27.337 99.8523 27.779 99.7853 28.23 99.7273C28.652 99.6693 29.066 99.6223 29.481 99.5733C36.363 98.7373 42.141 98.6513 42.563 97.9493C42.976 97.2573 43.216 94.4403 43.361 91.4793C48.244 93.3823 64.528 98.7563 76.372 91.4123C76.439 92.8253 76.526 94.2203 76.651 95.3543C76.775 96.6233 76.948 97.5843 77.17 97.9493C77.247 98.0843 77.516 98.1893 77.929 98.2853C79.698 98.6883 84.235 98.8723 89.532 99.4873C89.955 99.5363 90.379 99.5843 90.81 99.6403C90.974 99.6603 91.147 99.6803 91.31 99.6993C91.781 99.7663 92.251 99.8333 92.732 99.9003C95.298 100.275 97.942 100.765 100.462 101.449C100.913 101.563 101.355 101.689 101.797 101.823C101.931 101.862 102.067 101.91 102.201 101.948C102.902 102.17 103.595 102.399 104.258 102.66C108.123 104.13 111.363 106.197 113.054 109.158C118.44 118.578 119.528 125.943 119.738 128.067Z" fill="#F88502"/>
<path d="M29.4826 99.5744C29.3566 100.162 29.2116 100.748 29.0486 101.324C28.3856 103.622 27.4526 105.919 25.1946 107.024C23.5116 107.852 22.6366 105.88 22.2826 104.592C21.9456 103.391 21.5126 102.189 21.0996 100.988C21.4946 100.901 21.8976 100.805 22.2916 100.728C22.5796 101.583 22.8396 102.457 23.0596 103.332C23.2426 104.062 23.6556 106.985 25.1076 105.929C25.9816 105.294 26.6256 104.419 27.0596 103.439C27.5976 102.248 27.9336 100.997 28.2316 99.7284C28.6546 99.6704 29.0686 99.6224 29.4826 99.5744Z" fill="#4E1D19"/>
<path d="M42.43 106.544C40.912 105.554 39.46 105.582 37.731 105.679C36.48 105.746 34.27 106.151 32.876 105.582C32.799 105.43 32.731 105.265 32.645 105.121C32.491 104.833 32.174 104.9 32.011 105.093C31.925 105.083 31.829 105.102 31.78 105.189C31.357 105.967 31.77 106.42 32.521 106.679C33.953 109.986 34.799 113.802 37.798 116.042C37.991 116.187 38.318 116.129 38.471 115.956C40.201 114.081 41.268 111.687 42.652 109.562C43.277 108.602 43.555 107.265 42.43 106.544ZM41.758 108.583C41.325 109.485 40.652 110.274 40.162 111.149C39.48 112.388 38.884 113.676 37.999 114.782C35.721 112.879 34.711 109.687 33.5 106.9C34.99 107.111 36.893 106.966 37.306 106.937C38.317 106.881 42.796 106.467 41.758 108.583Z" fill="#4E1D19"/>
<path d="M61.3966 106.909C61.2426 106.61 60.7716 106.466 60.4936 106.668C57.4466 108.918 57.5516 112.858 55.4376 115.733C55.2156 116.031 55.6776 116.319 55.9176 116.108C55.9276 116.098 55.9366 116.088 55.9456 116.088C56.0706 116.367 56.5416 116.395 56.7156 116.108C57.0226 115.637 59.2816 115.368 59.9446 115.233C61.2516 114.964 62.5696 114.82 63.8766 114.57C64.1656 114.522 64.3186 114.233 64.3386 113.965C64.5696 111.407 62.5216 109.043 61.3966 106.909ZM58.5516 114.484C58.1866 114.571 57.5516 114.668 56.9946 114.868C58.4086 112.773 58.7916 109.985 60.6476 108.245C61.6086 109.85 62.9746 111.62 63.0696 113.466C61.5596 113.773 60.0506 114.118 58.5516 114.484Z" fill="#4E1D19"/>
<path d="M77.9315 98.2857C77.5175 98.1897 77.2495 98.0847 77.1725 97.9497C76.9505 97.5847 76.7775 96.6237 76.6535 95.3547C75.5865 96.4887 75.0005 98.0357 74.2025 99.3427C73.2025 100.988 71.9815 102.457 71.1065 104.179C71.0205 104.342 71.0595 104.563 71.2325 104.659C73.0485 105.669 74.9715 107.475 77.1725 107.389C77.3945 107.379 77.5575 107.253 77.6255 107.042C78.5655 104.103 78.2575 101.229 77.9315 98.2857ZM77.0765 103.516C76.9415 104.449 76.8455 105.401 76.7595 106.333C76.7015 106.881 73.9325 105.285 73.6545 105.121C72.6345 104.516 71.1365 104.391 72.5015 102.882C73.1155 102.208 73.9135 101.691 74.4335 100.93C75.2595 99.7187 75.9715 98.4697 76.6825 97.2097C76.8455 99.3157 77.3735 101.364 77.0765 103.516Z" fill="#4E1D19"/>
<path d="M92.7346 99.9014C92.2536 99.8344 91.7836 99.7674 91.3126 99.7004C92.2936 102.602 94.1676 107.063 91.7646 107.073C90.4676 107.073 89.1116 106.198 87.9776 105.659C87.5926 105.486 87.2076 105.313 86.8046 105.179C86.2276 104.969 86.8136 104.468 87.0936 104.064C88.1696 102.507 89.4486 101.007 90.8126 99.6424C90.3806 99.5854 89.9576 99.5384 89.5346 99.4894C87.9596 101.142 86.7086 103.084 85.8726 105.238C85.8146 105.391 85.9296 105.546 86.0646 105.593C88.0256 106.236 92.7166 110.139 93.8706 106.506C94.4746 104.602 93.6196 102.074 92.7346 99.9014Z" fill="#4E1D19"/>
<path d="M83.2856 114.004C83.3436 112.715 83.3826 111.495 82.9116 110.275C82.7766 109.92 82.4976 109.785 82.1326 109.832C78.3456 110.353 75.2306 113.957 72.7216 116.571C72.4136 116.898 72.8086 117.426 73.2116 117.196C73.2886 117.148 73.3746 117.091 73.4516 117.042C74.2406 117.851 75.8926 117.937 76.8636 118.07C78.5276 118.311 80.1996 118.302 81.8726 118.474C82.8916 118.571 83.7656 118.138 83.6506 117.023C83.5356 115.975 83.2276 115.1 83.2856 114.004ZM80.7866 117.205C78.6336 117.157 76.5866 116.888 74.5476 116.292C76.9326 114.456 78.8366 111.889 81.8636 111.178C82.2386 112.726 81.7976 114.274 82.1036 115.839C82.2006 116.32 82.4016 116.782 82.4506 117.263C82.4496 117.244 81.0076 117.205 80.7866 117.205Z" fill="#4E1D19"/>
<path d="M49.15 116.563C49.012 116.369 48.752 116.201 48.502 116.3C45.944 117.309 43.415 120.258 42.619 122.867C42.542 123.12 42.905 123.36 43.084 123.138C44.574 121.273 46.175 118.715 48.408 117.609C48.752 118.344 48.925 119.291 49.146 119.999C49.61 121.486 50.053 122.988 50.374 124.513C50.505 125.134 50.652 125.234 50.207 125.249C49.37 125.276 48.411 124.811 47.665 124.494C46.434 123.971 45.161 123.343 44.081 122.547C43.647 122.227 43.182 122.902 43.525 123.266C44.359 124.148 50.729 127.667 51.355 125.553C51.719 124.325 50.863 122.266 50.573 121.096C50.231 119.726 49.985 117.744 49.15 116.563Z" fill="#4E1D19"/>
<path d="M55.043 101.911C53.321 100.988 51.833 99.7187 50.16 98.6997C48.958 97.9677 47.333 97.9117 45.882 97.6327C45.872 97.6227 45.862 97.6227 45.843 97.6227C45.535 97.5647 45.237 97.4987 44.959 97.4017C44.257 97.1807 43.998 98.2277 44.661 98.4887C44.815 98.5457 44.969 98.5937 45.132 98.6517C44.42 101.179 45.353 105.237 47.276 106.678C49.794 108.562 53.745 104.525 55.167 102.852C55.408 102.575 55.408 102.113 55.043 101.911ZM47.843 105.708C46.66 105.132 46.401 102.861 46.209 101.747C46.035 100.796 45.978 99.8447 46.026 98.8927C47.43 99.1907 48.882 99.3057 50.112 100.066C51.391 100.844 52.545 101.796 53.823 102.575C52.371 104.208 49.871 106.698 47.843 105.708Z" fill="#4E1D19"/>
<path d="M25.4249 117.389C24.1959 115.389 23.0029 113.524 21.9559 111.409C21.8019 111.092 21.3889 111.044 21.0999 111.187C18.2739 112.552 15.7939 115.523 14.3999 118.283C14.2659 118.552 14.5149 118.841 14.7549 118.792C14.8229 118.841 14.9089 118.878 15.0049 118.869C17.3409 118.657 19.1089 119.629 21.3779 119.907C22.4739 120.042 24.7999 120.494 25.7419 119.561C26.3769 118.917 25.8009 117.984 25.4249 117.389ZM23.8489 118.791C21.7529 118.877 19.8509 118.311 17.8699 117.706C17.2359 117.503 16.5619 117.407 15.9479 117.513C17.4949 115.696 19.1189 113.764 21.1489 112.601C21.7439 113.822 22.3309 115.052 23.0609 116.205C23.4559 116.831 23.9359 117.407 24.3489 118.013C24.9259 118.877 24.8199 118.744 23.8489 118.791Z" fill="#4E1D19"/>
<path d="M10.2456 105.362C9.8996 105.613 9.5726 105.863 9.2556 106.132C9.8326 107.669 10.1306 109.352 10.1686 110.746C10.2456 113.476 7.4586 113.141 4.8426 112.611C4.6886 112.927 4.5346 113.245 4.3916 113.562C7.1596 114.332 10.3326 114.889 11.1976 111.995C11.7456 110.179 11.2456 107.564 10.2456 105.362Z" fill="#4E1D19"/>
<path d="M106.808 106.995C106.636 105.63 105.28 104.265 104.559 103.15C104.453 102.986 104.356 102.823 104.26 102.66C103.597 102.399 102.905 102.17 102.203 101.948C103.193 103.535 104.386 105.053 105.27 106.419C106.577 108.438 103.385 109.303 102.242 109.629C100.175 110.215 100.982 107.956 101.088 106.946C101.262 105.226 101.568 103.535 101.799 101.823C101.357 101.689 100.915 101.563 100.464 101.449C99.8292 104.274 99.6072 107.294 99.6272 110.119C99.6272 110.388 99.8102 110.647 100.079 110.716C102.3 111.263 107.221 110.09 106.808 106.995Z" fill="#4E1D19"/>
<path d="M98.5325 114.407C97.3205 114.283 96.0325 114.542 94.8695 114.897C93.2645 115.398 91.1495 115.706 89.3235 115.772C88.7465 115.398 88.1115 115.137 87.4285 115.081C86.9485 115.042 86.7465 115.783 87.1785 115.993C87.3415 116.07 87.5055 116.156 87.6585 116.244C87.6585 116.417 87.7445 116.591 87.9575 116.618C88.0905 116.638 88.2255 116.647 88.3505 116.657C89.6095 117.493 90.5335 118.551 91.4275 119.906C92.1575 121.003 92.7535 122.222 93.8985 122.953C96.4065 124.558 97.8485 119.935 98.7425 118.647C99.4635 117.609 100.859 114.649 98.5325 114.407ZM97.1375 118.782C96.6375 119.522 95.7045 123.194 93.8985 121.407C93.0425 120.57 92.4655 119.262 91.7635 118.292C91.3785 117.763 90.9465 117.216 90.4475 116.715C90.7355 116.688 91.0145 116.658 91.3125 116.611C92.5335 116.419 94.0525 116.506 95.1875 116.053C96.1105 115.688 97.1875 115.591 98.1675 115.591C99.4745 115.58 97.3685 118.455 97.1375 118.782Z" fill="#4E1D19"/>
<path d="M26.877 99.9103C26.8 100.217 26.732 100.506 26.666 100.765C26.301 102.313 25.839 103.918 24.754 105.12C24.514 105.39 24.1 105.351 23.849 105.12C22.878 104.226 22.36 102.41 22.388 100.708C23.888 100.391 25.397 100.131 26.877 99.9103Z" fill="white"/>
<path d="M39.041 108.241C37.957 108.11 36.987 107.688 35.967 108.219C35.95 108.176 35.931 108.132 35.915 108.091C35.714 107.615 34.979 107.779 35.117 108.311C35.467 109.652 36.03 111.011 37.17 111.865C37.306 111.967 37.571 111.966 37.707 111.865C38.117 111.563 38.399 111.219 38.594 110.745C38.782 110.288 38.875 109.62 39.344 109.362C39.919 109.044 39.589 108.306 39.041 108.241Z" fill="white"/>
<path d="M50.3991 101.173C49.6161 100.439 48.1771 100.353 47.2441 100.846C47.0431 100.728 46.7451 100.779 46.6901 101.051C46.6621 101.187 46.6661 101.328 46.6691 101.469C46.5801 101.692 46.5561 101.941 46.6301 102.189C46.7271 102.518 46.9541 102.783 47.2271 103.006C47.7611 103.764 48.5921 104.354 49.4061 104.401C50.9081 104.487 51.3131 102.031 50.3991 101.173ZM49.2741 103.265H49.2721C49.2911 103.201 49.3241 103.148 49.3251 103.074C49.3271 102.689 49.3311 102.288 49.1561 101.938C49.2601 101.969 49.3651 102.004 49.4471 102.052C49.5921 102.134 49.6941 102.279 49.7021 102.483C49.7121 102.763 49.6611 103.348 49.2741 103.265Z" fill="white"/>
<path d="M61.2877 111.589C61.0757 111.335 60.9047 111.048 60.7557 110.753C60.7427 110.73 60.7177 110.718 60.7017 110.696C60.9287 110.214 60.3847 109.629 59.8957 109.944C58.8677 110.611 58.5777 111.714 58.3037 112.841C58.2157 113.209 58.4867 113.668 58.9067 113.632C59.1777 113.609 59.4397 113.638 59.6577 113.438C59.7327 113.369 59.8297 113.32 59.9127 113.259C60.1037 113.244 60.2897 113.159 60.3737 112.983C60.3777 112.973 60.3777 112.963 60.3827 112.954C60.5867 112.848 60.7967 112.751 61.0017 112.672C61.4747 112.489 61.6187 111.983 61.2877 111.589Z" fill="white"/>
<path d="M74.9468 101.227C74.9938 100.901 74.6178 100.644 74.3598 100.901C73.4878 101.77 72.7728 102.664 72.4268 103.876C72.3188 104.255 72.6188 104.634 73.0068 104.636C73.7548 104.643 74.5028 104.65 75.2498 104.656C75.5898 104.658 75.8668 104.372 75.8698 104.036C75.8758 103.289 75.8868 102.542 75.8968 101.794C75.9028 101.283 75.3378 101.029 74.9468 101.227Z" fill="white"/>
<path d="M80.3733 112.635C80.2033 112.402 79.9793 112.289 79.7353 112.289C79.6773 112.112 79.4573 111.988 79.2483 112.081C78.0343 112.621 77.0833 113.519 76.5993 114.772C76.5103 115.003 76.6533 115.333 76.8723 115.442C77.8143 115.904 78.9463 115.886 79.8953 115.46C81.1053 114.916 81.0673 113.583 80.3733 112.635Z" fill="white"/>
<path d="M90.8996 101.771C90.8666 101.361 90.3986 100.986 90.0066 101.273C89.1896 101.872 88.8626 102.795 88.2076 103.536C87.8116 103.984 88.0626 104.741 88.7076 104.741C89.4756 104.739 89.9296 105.03 90.3676 105.658C90.7376 106.188 91.6276 106.027 91.6276 105.317C91.6276 104.356 91.6276 103.394 91.6316 102.433C91.6306 102.022 91.2706 101.747 90.8996 101.771Z" fill="white"/>
<path d="M103.469 104.676C103.474 104.183 102.849 103.828 102.451 104.113C102.266 103.913 101.882 103.909 101.789 104.252C101.406 105.654 101.203 106.869 102.021 108.152C102.194 108.421 102.637 108.54 102.867 108.261C103.709 107.242 103.456 105.899 103.469 104.676Z" fill="white"/>
<path d="M8.25671 107.503C7.54171 107.271 6.81771 107.843 6.37671 108.342C5.78571 109.009 5.37571 109.864 5.35271 110.765C5.35071 110.853 5.37171 110.938 5.40571 111.017C5.38571 111.083 5.36471 111.151 5.34671 111.215C5.19171 111.777 5.70471 112.192 6.22671 112.096C6.60371 112.027 6.94971 111.721 7.08171 111.355C7.88171 111.187 8.47371 110.609 8.80471 109.77C9.08671 109.052 9.17571 107.804 8.25671 107.503Z" fill="white"/>
<path d="M21.0678 115.495C21.1128 115.317 21.1458 115.129 21.1608 114.93C21.2028 114.357 20.5398 114.105 20.0998 114.321C20.0138 114.363 19.9408 114.416 19.8638 114.466C19.8318 114.459 19.8068 114.445 19.7738 114.441C18.3378 114.242 17.4228 115.513 17.5528 116.854C17.5888 117.208 17.8268 117.516 18.2128 117.513C18.7778 117.507 19.2888 117.386 19.7248 117.168C19.7888 117.245 19.8388 117.326 19.9058 117.403C20.0448 117.566 20.3668 117.502 20.4308 117.294C20.6018 117.298 20.7518 117.235 20.8558 117.087C21.2028 116.595 21.2498 116 21.0678 115.495Z" fill="white"/>
<path d="M47.4267 119.096C47.1017 118.953 46.7017 118.985 46.4807 119.282C46.3567 119.321 46.2397 119.378 46.1507 119.474C45.5147 120.156 45.5797 121.109 45.5977 121.978C45.6047 122.31 45.8277 122.63 46.1397 122.744C46.1417 122.748 46.1417 122.752 46.1437 122.757C46.4327 123.384 47.2177 123.196 47.6607 122.885C48.1917 122.513 48.6287 121.905 48.7217 121.254C48.8607 120.272 48.3157 119.488 47.4267 119.096Z" fill="white"/>
<path d="M95.6628 116.906C95.3258 116.633 94.9358 116.511 94.5328 116.484C94.3168 116.136 93.8038 115.941 93.4398 116.176C93.2648 116.288 93.1048 116.421 92.9468 116.555C92.4208 116.244 91.6168 116.608 91.8098 117.376C91.8558 117.559 91.9208 117.733 91.9958 117.904C92.0088 118.03 92.0388 118.154 92.1018 118.262C92.1738 118.386 92.2668 118.476 92.3678 118.544C92.9098 119.31 93.7228 119.906 94.5718 120.232C94.9368 120.372 95.3328 120.136 95.5298 119.841C96.0768 119.021 96.6088 117.678 95.6628 116.906Z" fill="white"/>
<path d="M31.5334 50.173C31.5334 50.173 23.9594 37.375 20.8264 48.345C17.6904 59.314 25.2644 64.536 30.2274 63.492C35.1884 62.448 31.5334 50.173 31.5334 50.173Z" fill="#CD8B6D"/>
<path d="M30.6174 52.2614C30.6174 52.2614 25.3954 44.1645 23.5664 47.4285C21.7384 50.6945 22.2604 54.8725 22.2604 54.8725C22.2604 54.8725 23.3054 50.3025 26.6994 52.9135C26.6994 52.9135 23.4364 60.2265 30.0954 58.1385C30.0954 58.1385 32.8384 55.9184 30.6174 52.2614Z" fill="#B66C50"/>
<path d="M85.921 50.1718C85.921 50.1718 93.495 37.3758 96.629 48.3448C99.762 59.3138 92.188 64.5358 87.227 63.4908C82.264 62.4478 85.921 50.1718 85.921 50.1718Z" fill="#CD8B6D"/>
<path d="M86.0275 53.114C86.0275 53.114 91.2505 45.017 93.0795 48.281C94.9075 51.547 94.3855 55.724 94.3855 55.724C94.3855 55.724 93.3405 51.154 89.9455 53.765C89.9455 53.765 93.2095 61.079 86.5505 58.99C86.5505 58.99 83.8075 56.77 86.0275 53.114Z" fill="#B66C50"/>
<path d="M86.067 71.0605C85.5 80.4725 74.772 87.4325 67.754 90.5475C60.738 93.6715 54.893 92.1125 54.893 92.1125C28.38 84.3175 29.159 66.3795 30.331 61.3135C31.504 56.2465 29.889 46.4995 33.004 34.8105C33.427 33.2235 34.033 31.7905 34.773 30.5035C39.522 22.2175 49.607 19.5536 49.607 19.5536C67.131 8.23955 79.397 19.3625 83.434 28.5045C83.714 29.1205 83.954 29.7245 84.145 30.3215C87.269 39.6755 86.711 60.5065 86.067 71.0605Z" fill="#E8B299"/>
<path d="M90.9765 34.042C90.8235 33.023 90.2465 31.417 89.4485 30.389C90.6035 28.553 90.7565 25.035 90.4585 23.621C90.3995 23.323 90.3235 23.025 90.2365 22.737C90.0915 22.17 89.9095 21.612 89.6885 21.064C87.4975 15.517 82.2104 11.086 76.2204 10.73C74.4334 10.625 70.8085 12.229 69.5775 10.432C68.5885 8.99004 68.0395 6.98104 67.1265 5.45304C65.2145 2.26104 61.9835 0.839041 58.4655 0.195041C53.5525 -0.708959 47.8245 1.57905 45.6425 6.03005C44.9885 4.52105 43.8255 3.20405 42.4025 2.93505C38.0955 2.14705 34.3945 4.80005 31.2895 7.53005C26.4355 11.789 22.2155 22.872 26.3105 29.14C25.2145 29.938 24.3015 31.899 23.9355 33.024C23.0805 35.677 23.4165 38.407 24.4165 40.955C24.5995 41.416 24.8005 41.869 25.0215 42.31C26.3475 44.992 28.3275 47.4141 30.2995 49.25C30.3955 49.3461 30.5105 49.395 30.6165 49.423C30.6165 49.443 30.6075 49.463 30.6075 49.481C30.5675 49.952 31.3475 50.058 31.4335 49.597C32.0865 46.107 34.5865 43.358 35.6435 39.993C36.7015 36.6 37.3165 33.255 38.0375 29.822C40.0755 32.254 43.5645 31.937 46.4485 30.486C50.5335 28.429 52.2545 22.046 52.3315 17.499C54.6485 19.566 57.5605 21.623 60.7335 21.45C62.5885 21.354 63.9535 20.671 65.2225 19.71C64.0115 22.709 63.9055 25.872 66.3845 28.544C69.9335 32.37 74.2965 29.352 76.8355 26.112C77.3445 27.958 78.3735 29.611 80.1805 30.592C81.7285 31.429 84.0645 31.919 84.3335 34.062C84.5445 35.725 83.4585 38.465 83.2755 40.224C83.0065 42.781 84.6895 52.327 89.0635 49.318C92.8125 46.722 91.5245 37.551 90.9765 34.042Z" fill="#7C2C14"/>
<path d="M33.608 12.1527C33.675 12.9007 33.721 13.6497 33.747 14.3997C33.693 14.2207 33.64 14.0437 33.589 13.8677C33.555 13.7457 33.246 8.17372 33.608 12.1527ZM89.688 21.0647C88.449 21.1997 86.949 20.4877 85.18 18.9597C85.171 18.5267 84.718 18.2767 84.344 18.4787C83.652 18.7957 83.017 19.1807 82.421 19.6417C80.546 21.4297 78.71 20.4977 76.923 16.8257C77.22 16.2967 76.51 15.7297 76.067 16.1717C74.616 17.6517 73.289 19.1617 71.617 20.4207C67.329 20.0557 65.388 18.4207 65.81 15.5177C65.85 13.9897 66.417 12.3847 66.857 10.9227C66.983 10.5087 66.473 10.0867 66.099 10.3457C63.493 12.5277 60.513 11.9227 57.158 8.51872C56.985 7.35572 56.861 6.19271 56.793 5.01971C56.755 4.61571 56.207 4.25071 55.889 4.64471C54.477 6.43271 49.285 13.7767 46.593 9.81672C46.343 9.45072 45.853 9.53771 45.699 9.93171C44.306 13.5557 41.989 24.5627 35.932 18.5737C35.394 18.0357 34.971 17.3917 34.635 16.6997C34.539 14.2287 34.308 11.7587 34.019 9.34572C33.991 9.03872 33.549 8.82671 33.375 9.17271C32.29 11.2877 32.587 14.3157 33.769 16.7767C33.75 18.1997 33.692 19.6227 33.596 21.0357C33.365 24.4967 32.73 27.8797 31.741 31.1967C31.174 33.0997 27.991 41.3187 24.416 40.9537C24.599 41.4147 24.8 41.8677 25.021 42.3087C29.799 41.1737 32 34.1857 33.22 30.0717C34.355 26.2647 34.72 22.2847 34.672 18.2957C36.277 20.5167 38.729 21.7757 41.507 20.4207C44.323 19.0457 45.227 14.3647 46.073 11.7407C46.544 10.2797 45.976 11.5377 47.418 11.6347C49.139 11.7597 50.667 11.2977 52.195 10.5197C52.916 10.1447 55.829 7.27971 55.829 6.28071C55.954 7.85771 56.04 10.0397 57.31 11.2027C58.973 12.7217 60.357 13.1927 62.597 13.0487C65.347 12.8657 65.73 10.3667 65.01 14.1347C64.569 16.4617 64.924 21.4497 68.057 22.1327C71.027 22.7777 73.373 20.6617 75.353 18.5377C75.363 19.7007 75.93 20.7487 77.065 21.7097C78.88 23.2387 81.468 21.6037 82.957 20.5757C84.938 19.2017 83.995 22.6807 85.976 23.3827C87.495 23.9107 88.965 23.5467 90.234 22.7387C90.092 22.1697 89.91 21.6127 89.688 21.0647Z" fill="#B75B3E"/>
<path d="M42.0565 41.4017C39.0435 43.5517 37.3106 48.8047 39.0616 52.1927C39.1466 52.3577 39.4486 52.2897 39.4256 52.0957C39.0736 49.0837 40.1075 45.8207 42.0465 43.5277C43.2465 42.1097 44.9026 41.5107 46.7046 41.3647C48.6746 41.2037 49.5635 43.2907 51.1125 44.0067C51.4355 44.1547 51.8396 43.9147 51.7336 43.5297C50.5266 39.1657 45.0945 39.2387 42.0565 41.4017Z" fill="#390A0A"/>
<path d="M52.5406 51.1854C52.5406 56.8364 49.5896 61.4154 45.9506 61.4154C42.3116 61.4154 39.3606 56.8364 39.3606 51.1854C39.3606 45.5344 42.3116 40.9514 45.9506 40.9514C49.5906 40.9514 52.5406 45.5334 52.5406 51.1854Z" fill="white"/>
<path d="M51.1426 51.5186C51.1426 55.7256 48.8946 59.1366 46.1246 59.1366C43.3546 59.1366 41.1086 55.7246 41.1086 51.5186C41.1086 47.3116 43.3556 43.8996 46.1246 43.8996C48.8946 43.8996 51.1426 47.3116 51.1426 51.5186Z" fill="#3D79CA"/>
<path d="M50.3464 51.6098C50.3464 55.1598 48.5054 58.0368 46.2324 58.0368C43.9624 58.0368 42.1204 55.1608 42.1204 51.6098C42.1204 48.0608 43.9624 45.1828 46.2324 45.1828C48.5054 45.1828 50.3464 48.0608 50.3464 51.6098Z" fill="#390A0A"/>
<path d="M51.1427 46.0706C51.1427 46.7706 49.9797 47.3366 48.5457 47.3366C47.1137 47.3366 45.9507 46.7706 45.9507 46.0706C45.9507 45.3706 47.1137 44.8066 48.5457 44.8066C49.9787 44.8066 51.1427 45.3706 51.1427 46.0706Z" fill="white"/>
<path d="M75.5314 41.4017C78.5454 43.5517 80.2774 48.8047 78.5264 52.1927C78.4404 52.3577 78.1394 52.2897 78.1624 52.0957C78.5144 49.0837 77.4814 45.8207 75.5414 43.5277C74.3414 42.1097 72.6854 41.5107 70.8834 41.3647C68.9134 41.2037 68.0234 43.2907 66.4744 44.0067C66.1514 44.1547 65.7474 43.9147 65.8534 43.5297C67.0614 39.1657 72.4934 39.2387 75.5314 41.4017Z" fill="#390A0A"/>
<path d="M77.7545 51.1854C77.7545 56.8364 74.8035 61.4154 71.1645 61.4154C67.5255 61.4154 64.5745 56.8364 64.5745 51.1854C64.5745 45.5344 67.5255 40.9514 71.1645 40.9514C74.8035 40.9514 77.7545 45.5334 77.7545 51.1854Z" fill="white"/>
<path d="M76.3555 51.5186C76.3555 55.7256 74.1085 59.1366 71.3375 59.1366C68.5675 59.1366 66.3215 55.7246 66.3215 51.5186C66.3215 47.3116 68.5675 43.8996 71.3375 43.8996C74.1085 43.8996 76.3555 47.3116 76.3555 51.5186Z" fill="#3D79CA"/>
<path d="M75.5592 51.6098C75.5592 55.1598 73.7173 58.0368 71.4453 58.0368C69.1753 58.0368 67.3333 55.1608 67.3333 51.6098C67.3333 48.0608 69.1753 45.1828 71.4453 45.1828C73.7173 45.1828 75.5592 48.0608 75.5592 51.6098Z" fill="#390A0A"/>
<path d="M76.3556 46.0706C76.3556 46.7706 75.1926 47.3366 73.7586 47.3366C72.3266 47.3366 71.1636 46.7706 71.1636 46.0706C71.1636 45.3706 72.3266 44.8066 73.7586 44.8066C75.1926 44.8066 76.3556 45.3706 76.3556 46.0706Z" fill="white"/>
<path d="M58.6067 45.3107C58.6067 45.3107 56.6576 43.3637 56.2686 50.3777C55.8776 57.3947 56.2686 64.7997 56.2686 64.7997C56.2686 64.7997 51.5907 62.0707 53.1497 65.9687C53.9917 68.0757 55.9727 69.1497 58.0647 69.7087C59.8887 70.1967 61.2267 69.5787 62.4237 68.4137C62.9777 67.8727 65.8686 64.9417 64.9586 64.0267C64.5226 63.5877 61.9826 64.6367 61.3356 64.7987C61.3356 64.7987 62.1147 43.7517 58.6067 45.3107Z" fill="#CD8B6D"/>
<path d="M88.7466 77.8287C88.6796 79.5487 88.4486 81.2217 87.9586 82.7217C86.4676 87.3267 83.9006 88.8737 81.0646 86.5767C80.9206 91.6807 80.4406 98.7467 75.0276 99.9487C71.7496 100.678 69.0096 99.5067 67.1936 97.2087C66.4726 101.871 65.2136 107.457 60.4836 108.619C53.8206 110.255 52.8396 100.007 50.5436 95.6797C48.2366 98.8237 45.3036 102.379 41.3346 99.6797C35.7966 95.9007 38.9006 89.0467 38.9206 83.7877C36.4116 84.1047 33.5476 85.1337 31.5366 83.0197C29.6336 81.0207 28.7206 78.7907 28.2216 76.0877C27.5586 72.5227 28.3656 67.6487 30.3166 64.2347C30.6146 64.5237 30.9326 64.7827 31.2496 65.0227C31.4506 65.1767 31.6626 65.3317 31.8846 65.4647C36.5176 68.4917 42.7656 67.5217 48.0726 64.2057C50.0916 69.9057 55.4936 72.0297 61.4726 71.0307C65.9436 70.2807 68.0106 69.0027 68.9616 64.4827C71.6056 65.5027 74.7486 65.8107 77.1526 65.7717C80.7476 65.7047 84.5156 64.6957 87.5046 62.7537C87.5236 62.7427 87.5326 62.7337 87.5526 62.7237C87.7356 63.7337 87.8696 64.7527 87.9756 65.7517C88.0616 66.5017 88.1296 67.2427 88.1866 67.9637C88.2156 68.1937 88.2346 68.4357 88.2526 68.6647C88.5066 71.4467 88.8716 74.7237 88.7466 77.8287Z" fill="#8E3F20"/>
<path d="M87.9781 65.7547C87.8521 64.7557 87.6991 63.7557 87.5071 62.7567C87.5261 62.7457 87.5351 62.7367 87.5551 62.7267C87.7371 63.7367 87.8711 64.7557 87.9781 65.7547Z" fill="#D8744C"/>
<path d="M88.7465 77.8287C85.9485 83.5017 80.9405 78.0117 78.1145 73.5807C78.4215 77.4437 77.6345 81.3957 77.2305 85.2607C76.9225 88.2107 76.7295 92.2387 73.8175 93.8447C69.6645 96.1517 67.4345 84.8757 66.5115 79.6657C65.1945 85.6057 65.2915 91.7967 63.9355 97.7577C63.6085 99.1987 63.0215 103.65 60.5225 103.111C55.8025 102.102 56.7065 89.9407 56.6965 86.6817C56.6865 85.0377 56.7055 83.3937 56.7355 81.7417C56.7445 81.5677 56.7545 81.4157 56.7635 81.2797C56.6485 81.6347 56.4275 82.1257 56.0515 82.7307C55.2935 83.9417 54.6095 85.1827 53.9185 86.4317C52.5045 89.0287 50.0535 94.3437 46.7665 95.2457C43.5265 96.1407 44.1795 89.5457 44.3155 88.2867C44.7475 84.3647 45.3345 80.5957 45.0555 76.6447C44.9785 75.5197 44.9405 74.4917 44.9885 73.4727C42.8445 76.4817 39.6825 78.7497 35.8465 77.6827C30.8585 76.2987 30.0215 69.6947 31.2525 65.0227C31.4535 65.1767 31.6655 65.3317 31.8875 65.4647C31.2625 68.2237 31.4835 71.1937 33.0985 73.6357C34.7315 76.1067 37.4615 77.9717 40.4135 76.1457C43.0285 74.5307 44.7295 72.2427 45.9125 69.4547C46.1815 68.8587 47.2195 69.3017 46.9695 69.8967C46.9505 69.9447 46.9305 69.9927 46.9115 70.0417C45.1145 73.9437 46.6145 78.7897 46.0665 82.9327C45.8835 84.3457 44.4505 96.9487 48.1035 93.0557C51.7755 89.1527 53.3905 83.9127 56.9185 79.9337C57.2455 79.5787 57.8515 79.8657 57.8515 80.3187C57.7935 86.3647 57.2355 92.8917 58.8035 98.7847C59.4175 101.112 61.4165 103.371 62.4265 99.3627C63.0415 96.9397 63.4155 94.5847 63.7425 92.0947C64.4265 87.0097 64.5985 81.9247 66.0695 76.9737C66.2225 76.4647 66.9835 76.4357 67.1265 76.9737C67.9245 80.0597 67.7415 83.2417 68.8965 86.2887C69.3375 87.4707 69.8095 88.7117 70.4245 89.8267C70.8475 90.6717 71.3575 91.4507 71.9715 92.1717C73.0865 91.4597 74.1925 90.7487 75.3085 90.0267C76.7595 84.3657 77.9795 75.7997 76.2695 70.2247C76.0385 69.4647 77.1445 69.2137 77.4325 69.9077C78.6835 72.8867 80.5655 76.9817 83.7295 78.3577C88.4005 80.3857 88.4685 74.5497 88.4005 71.9937C88.3725 70.7237 88.3045 69.3687 88.1895 67.9667C88.2185 68.1967 88.2375 68.4387 88.2555 68.6677C88.5065 71.4467 88.8715 74.7237 88.7465 77.8287Z" fill="#D8744C"/>
<path d="M74.6022 66.5567C74.5162 66.8647 72.6312 72.8147 69.1812 77.6507C68.9212 78.0157 68.6522 78.3718 68.3832 78.7178C64.4042 83.7158 58.6162 86.8398 51.2622 79.6488C51.0132 79.4198 50.7722 79.1687 50.5212 78.9097C48.5122 76.7847 46.3972 73.8918 44.1672 70.0658C44.1672 70.0658 59.8562 84.4747 74.6022 66.5567Z" fill="white"/>
<path d="M69.1807 77.6505C68.9207 78.0155 68.6518 78.3715 68.3828 78.7175C63.7588 79.2935 59.0668 79.5045 54.2998 79.5435C53.4918 79.5525 52.4347 79.6105 51.2617 79.6475C51.0127 79.4185 50.7718 79.1675 50.5208 78.9085C53.5208 78.9085 56.5587 78.6005 58.2497 78.5625C61.9597 78.4955 65.5947 78.1685 69.1807 77.6505Z" fill="#B66C50"/>
<path d="M55.0625 37.2237C55.0625 39.7897 50.6145 38.3457 45.1295 38.3457C39.6435 38.3457 35.1965 39.7907 35.1965 37.2237C35.1965 34.6577 39.6435 29.0527 45.1295 29.0527C50.6155 29.0537 55.0625 34.6577 55.0625 37.2237Z" fill="#591506"/>
<path d="M81.9795 37.2237C81.9795 39.7897 77.5315 38.3457 72.0465 38.3457C66.5605 38.3457 62.1135 39.7907 62.1135 37.2237C62.1135 34.6577 66.5605 29.0527 72.0465 29.0527C77.5315 29.0537 81.9795 34.6577 81.9795 37.2237Z" fill="#591506"/>
</svg>
