<svg width="85" height="114" viewBox="0 0 85 114" fill="none" xmlns="http://www.w3.org/2000/svg">
<path d="M73.2533 112.011C73.2533 112.011 44.9723 114.636 18.1143 111.805C18.1143 111.805 18.4053 110.718 19.0903 109.031C19.1473 108.9 19.2032 108.759 19.2682 108.609C19.5122 108.01 19.8223 107.335 20.1693 106.612C20.3743 106.172 20.6093 105.732 20.8613 105.272C20.9273 105.131 21.0113 104.981 21.0863 104.841C21.1613 104.709 21.2273 104.587 21.3123 104.457C21.3593 104.353 21.4243 104.251 21.4903 104.147C21.7243 103.734 21.9873 103.313 22.2583 102.892C22.9333 101.851 23.7013 100.783 24.5723 99.732C24.7613 99.507 24.9573 99.272 25.1543 99.047C25.5113 98.644 25.8843 98.241 26.2793 97.838C26.8323 97.276 27.4233 96.723 28.0513 96.197C28.3043 95.982 28.5673 95.766 28.8483 95.551C28.9803 95.448 29.1113 95.345 29.2513 95.242C29.4103 95.12 29.5693 94.998 29.7383 94.886C30.0753 94.652 30.4233 94.418 30.7783 94.192C32.5033 93.105 34.4353 92.195 36.6093 91.558C37.8183 91.211 39.1022 90.939 40.4622 90.78C41.4552 90.668 42.4863 90.602 43.5653 90.602L46.9963 90.799C46.9963 90.799 48.1203 90.574 49.9123 90.565C51.5153 90.556 53.6613 90.724 56.0043 91.381C58.3953 92.046 60.9912 93.218 63.4662 95.225C63.8322 95.524 64.1973 95.834 64.5533 96.181C64.7323 96.34 64.9102 96.509 65.0782 96.688C65.1252 96.725 65.1633 96.763 65.2103 96.81C65.3223 96.922 65.4353 97.035 65.5473 97.157C65.7433 97.372 65.9403 97.588 66.1383 97.814C66.7013 98.46 67.2533 99.163 67.7793 99.932C67.9583 100.176 68.1263 100.429 68.2953 100.691C68.4253 100.898 68.5573 101.104 68.6793 101.32C68.9983 101.844 69.3083 102.398 69.6073 102.969C69.8793 103.503 70.1513 104.056 70.4053 104.637C70.4883 104.806 70.5552 104.975 70.6302 105.143L70.8743 105.8L71.3333 106.981L71.7733 108.143L71.9893 108.696L72.3263 109.587L73.2533 112.011Z" fill="#ADC0E0"/>
<path d="M28.0527 96.197C34.7277 99.366 43.7637 99.038 50.6537 98.766C55.5087 98.569 60.5997 98.12 65.5497 97.154C65.4377 97.032 65.3247 96.92 65.2127 96.807C65.1657 96.76 65.1277 96.723 65.0807 96.685C64.9117 96.506 64.7337 96.337 64.5557 96.178C52.6597 98.504 40.3527 99.393 28.8507 95.55L28.0527 96.197Z" fill="#006986"/>
<path d="M24.5742 99.731C31.0802 102.637 38.8602 103.733 45.5732 103.997C53.2312 104.297 61.1242 103.265 68.6792 101.316C68.5572 101.1 68.4252 100.894 68.2952 100.687C61.9572 102.121 55.4712 103.059 49.0962 103.256C41.4942 103.499 32.6082 102.225 25.1562 99.046L24.5742 99.731Z" fill="#006986"/>
<path d="M21.3132 104.456C31.0702 107.062 41.6822 107.381 51.6652 107.493C57.9462 107.568 64.7522 107.708 71.3332 106.977L70.8742 105.796C64.5262 106.49 58.1342 106.724 51.6652 106.658C41.8892 106.556 31.1922 106.443 21.4912 104.146L21.3132 104.456Z" fill="#006986"/>
<path d="M72.3258 109.583C66.2148 110.521 60.0178 110.924 54.2148 111.205C46.3688 111.57 38.5618 111.214 30.7428 110.418C26.9188 110.023 22.9528 109.724 19.0908 109.03C19.1478 108.899 19.2038 108.758 19.2688 108.608C24.2478 109.339 29.4498 109.452 34.2878 109.753C40.9338 110.165 47.5518 110.521 54.2158 110.09C60.1698 109.705 66.0088 109.096 71.7748 108.14L71.9908 108.693L72.3258 109.583Z" fill="#006986"/>
<path d="M51.1589 95.203C47.2699 98.437 39.1709 95.203 39.1709 95.203C39.8459 93.862 40.2479 92.344 40.4639 90.778C40.4919 90.637 40.5109 90.497 40.5209 90.356C40.6709 89.138 40.7179 87.91 40.6899 86.71C40.6799 85.97 40.6429 85.238 40.5779 84.535C40.2769 80.88 39.4999 78.03 39.4999 78.03L49.8679 77.711C49.2109 79.877 49.0419 82.249 49.1359 84.535C49.1729 85.594 49.2769 86.635 49.4079 87.619C49.5289 88.51 49.6709 89.362 49.8299 90.15C49.8579 90.291 49.8869 90.431 49.9149 90.562C50.4839 93.309 51.1589 95.203 51.1589 95.203Z" fill="#CD8B6D"/>
<path d="M55.6391 91.3804C44.8971 109.275 37.9691 95.7014 36.2441 91.5574C37.4531 91.2094 38.7371 90.9384 40.0971 90.7794C40.1241 90.6384 40.1441 90.4984 40.1531 90.3584L49.4631 90.1514C49.4901 90.2934 49.5191 90.4314 49.5471 90.5634C51.1501 90.5544 53.2951 90.7224 55.6391 91.3804Z" fill="#CD8B6D"/>
<path d="M49.4071 87.62L40.6891 86.71C40.6791 85.97 40.6421 85.238 40.5771 84.535H49.1351C49.1711 85.595 49.2751 86.635 49.4071 87.62Z" fill="#006986"/>
<path d="M46.9136 87.5069C46.9136 88.4569 46.1436 89.2259 45.1956 89.2259C44.2456 89.2259 43.4766 88.4559 43.4766 87.5069C43.4766 86.5579 44.2456 85.7889 45.1956 85.7889C46.1436 85.7889 46.9136 86.5579 46.9136 87.5069Z" fill="#CAF3DD"/>
<path d="M77.4297 88.5953C76.5297 90.5823 74.7957 91.8293 72.7707 92.5793C72.2277 92.7853 71.6557 92.9533 71.0737 93.0853C69.5847 93.4413 68.0187 93.5923 66.5937 93.6013C65.3467 93.6103 64.1557 93.4973 63.0327 93.2733C62.1227 93.1033 61.2417 92.8603 60.4077 92.5323C55.1777 90.5923 51.3717 86.1013 48.9907 80.4953C42.2687 64.6163 47.8077 50.9213 54.3887 36.1103L58.1297 30.1303L58.4847 29.5583L63.4817 21.5613L64.6637 19.6683L68.4497 13.6123C69.5097 18.5143 70.1747 23.5023 72.8087 27.9823C75.9407 33.3163 80.5237 37.9093 83.1287 43.5893C88.7917 55.9163 78.9107 67.1363 77.8047 79.2383C77.5147 82.4363 78.7887 85.5863 77.4297 88.5953Z" fill="#92561A"/>
<path d="M63.0083 65.7136C60.3183 74.4406 57.2623 83.6836 63.0363 91.9896C63.3353 92.4206 63.6443 92.8426 63.9923 93.2736C63.0833 93.1036 62.2013 92.8606 61.3673 92.5326C59.4923 89.6826 58.2453 86.4396 57.9543 83.0266C57.2243 74.2056 61.3673 65.7416 63.4853 57.3416C66.0163 47.2176 65.5103 38.3496 59.0893 30.1296C58.8833 29.8666 58.6673 29.5956 58.4513 29.3326C58.2543 29.0886 58.5633 28.7606 58.8073 28.9766C59.0223 29.1736 59.2373 29.3706 59.4443 29.5586C69.7853 39.4756 66.8783 53.1896 63.0083 65.7136Z" fill="#B56E2D"/>
<path d="M79.1318 62.5533C76.3848 70.1933 69.0738 79.6233 71.5958 88.0603C72.1388 89.8883 72.8618 91.3783 73.7328 92.5783C73.1888 92.7843 72.6178 92.9523 72.0358 93.0843C68.9428 88.4443 68.9148 82.1353 71.1268 76.6803C75.9548 64.8033 83.3148 54.1073 75.8518 41.4893C72.3278 35.5463 65.3258 28.9003 64.4448 21.5603C64.2948 20.2573 64.3318 18.9263 64.6218 17.5763C64.7158 17.1643 65.2698 17.3043 65.3078 17.6703C65.3828 18.3553 65.4938 19.0203 65.6258 19.6673C67.4538 28.4783 74.2128 34.0283 78.0928 42.0233C81.4198 48.9053 81.7288 55.3173 79.1318 62.5533Z" fill="#B56E2D"/>
<path d="M69.0589 48.8054C69.4369 48.2614 70.0089 47.8334 70.8759 47.4564C71.5389 47.1684 72.2559 46.9844 72.9629 46.8444C74.3649 46.5654 76.0729 46.5444 77.0669 47.7574C77.7569 48.5974 78.0109 49.9773 78.0589 51.0333C78.2749 55.8023 74.2609 58.4334 70.1489 59.5634C69.3719 59.7764 68.0139 60.5633 67.4339 59.6303C66.4479 58.0413 67.8779 50.5134 69.0589 48.8054Z" fill="#CD8B6D"/>
<path d="M69.0446 52.4062C69.0446 52.4062 74.0866 47.7352 74.7726 50.3152C75.4576 52.8942 74.3576 55.6882 74.3576 55.6882C74.3576 55.6882 74.4436 52.3452 71.6366 53.5492C71.6366 53.5492 72.5956 59.1812 68.3656 56.5562C68.3656 56.5562 66.8626 54.5382 69.0446 52.4062Z" fill="#B66C50"/>
<path d="M70.4854 45.7645C70.3964 46.6845 70.2724 47.6115 70.1494 48.5475C69.3524 54.4815 68.4004 60.4095 66.9224 66.2195C64.1414 77.1705 50.5884 82.5565 45.7634 82.1865C20.8814 78.8455 19.5844 61.7635 19.7664 59.9085C20.0614 57.0025 19.5524 53.8505 19.3644 50.9525C19.2654 49.4085 19.0354 47.8245 18.8134 46.2405C18.4524 43.5475 18.1244 40.8235 18.5424 38.1965C18.5584 38.0725 18.5834 37.9495 18.6084 37.8185C19.0674 35.1765 19.9224 32.4425 20.9304 29.9795C24.0914 22.2975 30.4704 13.6935 39.5884 13.5205C41.7234 13.4805 43.8904 13.8505 45.9994 14.4975C49.0444 15.4165 51.9824 16.8865 54.5604 18.4385C60.2974 21.9105 66.0274 25.8565 68.8924 32.1715C70.9054 36.6205 70.9614 41.1105 70.4854 45.7645Z" fill="#FFC29C"/>
<path d="M74.5663 18.065C74.5663 18.167 74.5473 18.262 74.5383 18.365C74.4543 19.152 74.3143 19.931 74.1363 20.708L74.1173 20.811C73.9673 21.458 73.7883 22.095 73.5823 22.732C72.5793 25.854 70.9203 28.769 68.7833 31.075C66.1303 33.925 61.7903 35.959 58.0413 36.699C52.6323 37.777 47.0073 37.496 41.4573 37.683C41.4483 37.683 41.4383 37.692 41.4293 37.692C39.8263 37.739 38.2153 37.833 36.6303 38.011C36.6213 38.011 36.6123 38.02 36.6023 38.02C36.5933 38.02 36.5933 38.02 36.5933 38.02C36.2833 38.048 35.9843 38.085 35.6743 38.123C35.0463 38.208 34.4283 38.311 33.8083 38.442C28.3913 39.492 23.4693 42.098 21.7913 47.497C21.7253 47.712 21.6603 47.938 21.6043 48.163C21.4723 48.698 21.3603 49.26 21.2943 49.851C21.2753 49.973 21.2673 50.104 21.2573 50.226V50.235C20.7043 55.878 22.9913 61.512 25.2883 66.536C27.8663 72.151 32.5053 77.12 34.0333 83.166C34.5393 85.144 34.4933 86.878 34.0513 88.388C33.8353 89.128 33.5183 89.803 33.1243 90.431C32.1113 92.043 30.5463 93.309 28.7173 94.246C28.1643 94.536 27.5743 94.799 26.9653 95.034C25.3713 95.634 23.6373 96.046 21.9313 96.262C20.2993 96.478 18.6883 96.525 17.2063 96.403C17.1963 96.403 17.1963 96.403 17.1963 96.403C15.8753 96.309 14.6663 96.084 13.6533 95.747C3.48332 92.353 -2.45969 85.473 0.980314 71.102C1.23231 70.043 1.56032 69.068 1.95532 68.14C2.64732 66.519 3.53031 65.056 4.52331 63.65C5.19831 62.684 5.91931 61.747 6.66031 60.791C7.01631 60.341 7.37331 59.891 7.73831 59.432C8.29131 58.71 8.86433 57.979 9.42633 57.211C10.1953 56.161 10.8983 54.98 11.3953 53.724L11.4053 53.715C11.7983 52.749 12.0603 51.728 12.1453 50.696C12.2293 49.796 12.1633 48.887 11.9193 47.977C11.7223 47.255 11.5643 46.505 11.4423 45.746C11.3943 45.503 11.3563 45.268 11.3193 45.015V45.006C11.1313 43.684 11.0193 42.335 10.9543 41.022V41.012C10.9263 40.506 10.8973 39.999 10.8793 39.503C10.8613 38.922 10.8413 38.332 10.8323 37.741V37.732C10.7943 33.026 11.3953 28.105 12.8483 23.53L12.8573 23.521C13.1383 22.611 13.4583 21.711 13.8233 20.839L13.8333 20.83C14.4513 19.273 15.1923 17.783 16.0543 16.368C18.2473 12.759 21.4453 10.246 25.5313 9.103C28.1383 8.372 30.8653 8.156 33.5543 8.09C34.0333 8.081 34.5013 8.09 34.9793 8.137H34.9893L35.1673 8.156L35.8723 8.221C37.8203 8.437 39.7613 8.84 41.7203 8.615C44.3553 8.315 46.8013 6.89 49.0313 5.55C52.9033 3.234 58.4433 0.009 63.4023 0H63.4293C64.0023 0 64.5733 0.0469988 65.1263 0.140999H65.1543C67.2073 0.487999 69.1013 1.51 70.6563 3.535C70.7133 3.6 70.7603 3.675 70.8063 3.742L71.3403 4.529C72.4653 6.301 73.3473 8.541 73.9083 10.49C73.9743 10.687 74.0303 10.866 74.0773 11.053C74.1993 11.512 74.3123 11.981 74.3873 12.45L74.3953 12.469C74.7253 14.296 74.7813 16.181 74.5663 18.065Z" fill="#A16929"/>
<path d="M65.155 0.140976C63.364 3.47798 60.899 6.54397 57.507 7.86597C48.038 11.54 37.792 12 28.718 16.837C19.176 21.927 15.744 32.023 10.955 41.012C10.927 40.506 10.898 39.999 10.88 39.503C10.862 38.922 10.842 38.332 10.833 37.741V37.732C11.433 36.57 11.995 35.398 12.558 34.198C15.547 27.767 19.569 21.121 25.84 17.427C33.245 13.059 40.839 11.268 49.049 9.05598C53.99 7.72498 59.257 6.43098 62.248 1.91298C62.661 1.29398 63.036 0.647977 63.401 0.000976562H63.428L65.125 0.141979H65.155V0.140976Z" fill="#C98643"/>
<path d="M74.397 12.4692C74.304 12.5912 74.211 12.7132 74.117 12.8342C68.511 20.0992 59.502 23.3522 50.86 25.2542C44.935 26.5582 37.924 27.1852 32.665 30.4102C26.975 33.8872 24.098 39.4002 20.019 44.4342C17.544 47.4902 14.657 50.8082 11.405 53.7142C11.798 52.7482 12.06 51.7272 12.145 50.6952C15.294 47.8362 18.153 44.6022 20.796 40.9652C23.327 37.4772 25.69 33.3812 29.272 30.8602C32.862 28.3192 36.545 26.9232 40.801 25.9202C51 23.5392 62.427 22.3022 70.32 14.6622C71.633 13.3962 72.861 12.0002 73.91 10.4902L74.389 12.4502L74.397 12.4692Z" fill="#C98643"/>
<path d="M74.5662 18.0654C74.5662 18.1674 74.5472 18.2624 74.5382 18.3654C74.4542 19.1524 74.3142 19.9314 74.1362 20.7084L74.1172 20.8114C73.9672 21.4584 73.7882 22.0954 73.5822 22.7324C72.9732 23.7074 72.2512 24.6354 71.3982 25.5264C67.9292 29.1444 63.6082 31.9754 58.8662 33.6344C52.6692 35.7904 46.5752 35.1154 40.3042 36.4844C38.1022 36.9634 35.9082 37.6004 33.8072 38.4444C29.7782 40.0284 26.0652 42.3624 23.1972 45.7184C22.7002 46.2994 22.2312 46.8994 21.7912 47.4994C13.6742 58.5894 15.2952 72.6874 25.2882 82.6044C27.7912 85.0804 30.7712 87.1424 34.0522 88.3894C33.8362 89.1294 33.5192 89.8044 33.1252 90.4324C32.6742 90.2644 32.2142 90.0854 31.7662 89.8794C21.2472 85.1924 12.6532 71.7774 14.2922 60.1064C16.1572 46.9264 26.6762 36.6624 39.7422 34.4414C48.0482 33.0254 56.1382 34.1134 63.7872 29.6044C67.7622 27.2614 71.6612 24.0454 73.7612 19.8184C74.0512 19.2364 74.3232 18.6554 74.5662 18.0654Z" fill="#C98643"/>
<path d="M21.9311 96.2634C20.2991 96.4794 18.6881 96.5264 17.2061 96.4044C17.1961 96.4044 17.1961 96.4044 17.1961 96.4044C13.6261 93.6014 10.4001 90.0764 8.00009 86.3454C4.76809 81.3114 2.89207 75.8564 2.15207 69.9134C2.08607 69.3504 2.01008 68.7594 1.95508 68.1414C2.64708 66.5204 3.53007 65.0574 4.52307 63.6514C4.32607 65.1794 4.26906 66.7354 4.46606 68.3954C5.11206 73.7854 6.32308 79.1754 9.28308 83.8154C12.4921 88.8384 16.7561 93.7044 21.9311 96.2634Z" fill="#C98643"/>
<path d="M28.7174 94.2466C28.1644 94.5366 27.5744 94.7996 26.9654 95.0346C21.7434 93.5156 17.1034 89.9536 13.8894 85.0136C9.11737 77.6826 7.66338 69.2836 6.66138 60.7906C7.01738 60.3406 7.37438 59.8906 7.73938 59.4316C8.51738 66.1906 9.11738 72.9866 12.0324 79.2486C14.2624 84.0476 17.4884 88.7066 22.0444 91.5836C24.2564 92.9816 26.4684 93.8156 28.7174 94.2466Z" fill="#C98643"/>
<path d="M70.8073 3.742C67.9403 8.073 63.0373 11.335 58.2923 13.294C50.6063 16.462 41.9733 16.078 34.3423 19.396C28.2213 22.048 23.4873 27.261 19.7653 32.632C17.1213 36.428 15.2293 40.581 12.1923 44.115C11.9203 44.434 11.6293 44.734 11.3203 45.006V45.015C11.3573 45.268 11.3953 45.503 11.4433 45.746C12.2583 45.025 13.0533 44.274 13.7863 43.431C16.4573 40.319 18.1903 36.428 20.4323 33.017C26.3753 23.943 34.5023 19.209 45.0203 17.287C53.1753 15.806 60.9283 14.175 67.5183 8.86C68.9613 7.697 70.2743 6.207 71.3423 4.529L70.8073 3.742Z" fill="#C98643"/>
<path d="M35.8724 8.22172C31.0524 10.5277 25.8684 12.1977 21.4264 15.1307C17.9104 17.4557 15.2304 20.3427 12.8584 23.5207C13.1394 22.6107 13.4594 21.7107 13.8244 20.8387L13.8344 20.8297C15.6614 18.7477 17.7044 16.9017 19.9364 15.4387C24.5944 12.3827 29.9484 10.5367 34.9814 8.13672H34.9914L35.1694 8.15572L35.8724 8.22172Z" fill="#C98643"/>
<path d="M68.863 63.0744C68.865 63.1244 68.863 63.1734 68.866 63.2234C68.912 64.0884 68.827 65.1554 69.227 65.9374C69.297 66.0734 69.526 66.0794 69.593 65.9374C69.937 65.2234 69.765 64.3794 69.741 63.6044C69.737 63.4574 69.741 63.3084 69.737 63.1604C70.297 63.1594 70.97 63.0404 70.999 62.4324C71.004 62.3284 70.939 62.2224 70.851 62.1734C70.535 61.9954 70.13 62.1294 69.747 62.2074C69.759 61.8684 69.776 61.5274 69.822 61.1914C70.085 61.1074 70.322 60.9534 70.485 60.7374C71.05 59.9884 70.431 59.0474 69.799 58.5724C69.61 58.4314 69.374 58.4924 69.205 58.6314C68.874 58.5944 68.535 58.7024 68.293 59.0024C67.766 59.6564 67.928 60.5154 68.568 61.0094C68.673 61.0914 68.794 61.1464 68.92 61.1884C68.879 61.5234 68.856 61.8594 68.849 62.1974C68.411 62.1194 67.981 61.9864 67.536 61.9564C67.329 61.9424 67.212 62.2314 67.365 62.3694C67.788 62.7454 68.311 62.9654 68.863 63.0744Z" fill="white"/>
<path d="M71.6284 63.3034C70.7594 63.9984 70.4444 65.2434 69.6524 66.0394C69.0594 66.6334 67.4734 63.6964 67.0134 63.3054C66.8084 63.1314 66.5444 63.2994 66.5844 63.5534C66.7804 64.7964 68.0234 67.1804 69.5234 67.1804C70.8214 67.1804 72.1114 64.7604 72.3144 63.7024C72.3974 63.2824 71.9524 63.0454 71.6284 63.3034Z" fill="white"/>
<g opacity="0.4">
<path d="M63.4191 59.7438C63.4191 61.1858 61.4781 62.3538 59.0841 62.3538C56.6881 62.3538 54.7471 61.1868 54.7471 59.7438C54.7471 58.3028 56.6871 57.1348 59.0841 57.1348C61.4781 57.1348 63.4191 58.3028 63.4191 59.7438Z" fill="#DB5D7B"/>
<path d="M35.297 60.6803C35.297 62.1233 33.356 63.2903 30.961 63.2903C28.566 63.2903 26.625 62.1233 26.625 60.6803C26.625 59.2393 28.566 58.0713 30.961 58.0713C33.356 58.0713 35.297 59.2403 35.297 60.6803Z" fill="#DB5D7B"/>
</g>
<path d="M46.3786 64.6924C43.6186 65.4654 41.9506 63.9994 39.4066 64.5234C37.4706 64.9234 35.3806 65.8134 33.5216 66.6374C33.3596 66.7084 34.7866 68.0784 34.9046 68.1614C38.3316 70.5534 42.4276 72.3904 46.6756 72.3614C49.4056 72.3434 53.5936 69.9874 55.5886 67.5664C55.9836 66.8544 56.3656 66.1344 56.7896 65.4414C53.1196 63.9624 50.3766 63.5744 46.3786 64.6924Z" fill="#AB0048"/>
<path d="M38.5137 67.3534C38.5137 67.3534 47.3027 66.2984 52.5757 66.5334C52.5757 66.5334 47.4187 71.6894 38.5137 67.3534Z" fill="white"/>
<path d="M48.7851 58.4242C48.7851 60.5942 47.0651 61.4952 45.4431 61.4952C43.8231 61.4952 42.4641 60.3232 42.4641 58.1532C42.4641 55.9832 43.8681 52.8242 45.4881 52.8242C47.1101 52.8242 48.7851 56.2542 48.7851 58.4242Z" fill="#CD8B6D"/>
<path d="M26.0592 45.5979C27.7912 43.5089 30.1132 42.5959 32.8132 42.6969C37.5122 42.8709 40.6651 47.5999 38.9371 51.9619C38.8291 52.2369 38.3382 52.2329 38.3742 51.8859C38.7292 48.5779 36.1561 45.4189 32.8121 45.4139C31.1861 45.4109 29.7582 45.9579 28.6082 47.0919C27.5052 48.1809 27.7651 49.8089 27.0101 51.0469C26.7171 51.5279 26.0121 51.6519 25.6091 51.2279C24.0621 49.6019 24.7222 47.2079 26.0592 45.5979Z" fill="#390A0A"/>
<path d="M26.4192 50.4124C26.4192 53.7824 29.1922 56.5134 32.6132 56.5134C36.0342 56.5134 38.8062 53.7824 38.8062 50.4124C38.8062 47.0434 36.0332 44.3124 32.6132 44.3124C29.1932 44.3124 26.4192 47.0434 26.4192 50.4124Z" fill="white"/>
<path d="M36.6983 50.6398C36.6983 53.3828 34.9643 55.6058 32.8273 55.6058C30.6863 55.6058 28.9563 53.3828 28.9563 50.6398C28.9563 47.8978 30.6863 45.6738 32.8273 45.6738C34.9633 45.6738 36.6983 47.8978 36.6983 50.6398Z" fill="#77BDA1"/>
<path d="M36.1779 50.6398C36.1779 53.0138 34.6779 54.9408 32.8259 54.9408C30.9729 54.9408 29.4729 53.0128 29.4729 50.6398C29.4729 48.2648 30.9729 46.3388 32.8259 46.3388C34.6779 46.3388 36.1779 48.2648 36.1779 50.6398Z" fill="#390A0A"/>
<path d="M35.7513 47.2998C35.7513 47.8298 35.1154 48.2598 34.3324 48.2598C33.5474 48.2598 32.9124 47.8298 32.9124 47.2998C32.9124 46.7698 33.5474 46.3388 34.3324 46.3388C35.1164 46.3388 35.7513 46.7698 35.7513 47.2998Z" fill="white"/>
<path d="M64.0848 45.2462C62.3528 43.1572 60.0298 42.2452 57.3318 42.3452C52.6318 42.5202 49.4788 47.2482 51.2068 51.6102C51.3158 51.8852 51.8068 51.8812 51.7698 51.5342C51.4148 48.2262 53.9888 45.0672 57.3328 45.0622C58.9588 45.0602 60.3857 45.6062 61.5367 46.7402C62.6387 47.8292 62.3798 49.4572 63.1348 50.6952C63.4278 51.1762 64.1327 51.3002 64.5357 50.8762C66.0827 49.2502 65.4218 46.8562 64.0848 45.2462Z" fill="#390A0A"/>
<path d="M50.1562 50.4132C50.1562 53.7832 52.9283 56.5142 56.3503 56.5142C59.7712 56.5142 62.5443 53.7832 62.5443 50.4132C62.5443 47.0442 59.7712 44.3132 56.3503 44.3132C52.9273 44.3132 50.1562 47.0442 50.1562 50.4132Z" fill="white"/>
<path d="M60.1326 50.6406C60.1326 53.3836 58.3996 55.6066 56.2616 55.6066C54.1216 55.6066 52.3906 53.3836 52.3906 50.6406C52.3906 47.8986 54.1216 45.6746 56.2616 45.6746C58.3996 45.6746 60.1326 47.8986 60.1326 50.6406Z" fill="#77BDA1"/>
<path d="M59.6142 50.6406C59.6142 53.0146 58.1142 54.9416 56.2612 54.9416C54.4082 54.9416 52.9082 53.0136 52.9082 50.6406C52.9082 48.2656 54.4082 46.3396 56.2612 46.3396C58.1142 46.3396 59.6142 48.2656 59.6142 50.6406Z" fill="#390A0A"/>
<path d="M59.1877 47.3006C59.1877 47.8306 58.5506 48.2606 57.7686 48.2606C56.9836 48.2606 56.3477 47.8306 56.3477 47.3006C56.3477 46.7706 56.9836 46.3396 57.7686 46.3396C58.5506 46.3396 59.1877 46.7706 59.1877 47.3006Z" fill="white"/>
<path d="M51.0127 42.8642C51.0127 42.8642 51.7167 37.1222 57.3397 36.3022C62.9647 35.4822 67.8867 43.9192 67.8867 43.9192C67.8867 43.9192 56.4037 33.9582 51.0127 42.8642Z" fill="#6D3A12"/>
<path d="M40.7021 42.8642C40.7021 42.8642 40.0001 37.1222 34.3751 36.3022C28.7511 35.4822 23.8301 43.9192 23.8301 43.9192C23.8301 43.9192 35.3131 33.9582 40.7021 42.8642Z" fill="#6D3A12"/>
</svg>
