<svg width="89" height="112" viewBox="0 0 89 112" fill="none" xmlns="http://www.w3.org/2000/svg">
<path d="M87.8215 69.2614C87.3555 62.9134 85.8425 56.7114 84.6385 50.4714C83.2695 43.3574 81.6875 36.1744 79.4555 29.2744C76.7755 21.0154 71.2635 10.8534 62.7135 7.87338C62.2475 7.69938 61.7715 7.56338 61.2865 7.44738C61.0245 7.37938 60.7625 7.32136 60.4895 7.27236C59.4905 7.08736 58.4905 6.91338 57.4915 6.70938C57.0645 6.46638 56.5795 6.36938 56.0745 6.36938C55.8115 6.36938 55.5595 6.39737 55.2785 6.43637H55.2685C53.5605 6.69937 51.6585 7.71738 50.2985 7.99938C49.6195 8.13438 48.4255 8.38738 46.9885 8.61938L45.9025 8.79537C42.5535 9.25037 38.3715 9.49239 36.1775 8.20239C36.3625 8.06639 36.4005 7.74639 36.1575 7.55139C35.9735 7.40639 35.7795 7.27138 35.5845 7.15438C35.3235 6.97838 35.0525 6.82339 34.7785 6.69839C34.7695 6.68839 34.7595 6.67837 34.7505 6.67837C34.7415 6.66837 34.7215 6.65737 34.7015 6.65737C33.4415 6.06637 32.1305 5.91039 30.8095 6.09439C30.4515 6.13339 30.0915 6.20137 29.7325 6.29837C24.4435 7.68637 19.1925 13.8684 16.4935 17.5274C9.39948 27.1454 8.57348 41.1314 7.31248 52.6994C6.55448 59.6694 4.20649 66.0154 1.65449 72.4604C0.489492 75.4014 -1.33451 79.0414 1.52749 81.4864C3.12949 82.8544 5.42948 83.7274 7.42848 84.6494L8.69148 85.2604C11.4075 86.6784 13.9705 88.3964 16.6985 89.8134C17.1155 90.0264 17.5425 90.2414 17.9695 90.4444L19.2995 91.0654C22.9485 92.7154 26.7625 93.9484 30.6535 94.8404C31.3815 95.0054 32.1195 95.1704 32.8575 95.3064C33.3915 95.4134 33.9255 95.5104 34.4585 95.6074C42.4565 96.9964 50.6965 96.5294 58.6075 94.6754C59.2955 94.5204 59.9755 94.3454 60.6455 94.1714H60.6545C63.8775 93.3074 67.0315 92.2304 70.0895 90.9484C72.4765 89.9594 74.7965 88.8424 77.0195 87.5604C77.7275 87.1624 78.4365 86.7364 79.1245 86.2884C80.5415 85.3954 81.9105 84.4164 83.2395 83.3574C84.9965 81.9504 87.1995 80.0474 88.3355 78.0574C89.2775 76.4144 87.9585 71.2014 87.8215 69.2614Z" fill="#8E3F20"/>
<path d="M29.7344 6.30176L30.6084 6.42773C29.8804 7.64173 29.2874 8.70876 28.8794 9.50476C24.2594 18.4718 22.0574 28.4598 19.6304 38.1848C16.8354 49.3268 14.3984 60.5368 11.8474 71.7368C10.8464 76.1238 9.89541 80.7237 8.69341 85.2647L7.43042 84.6537C7.71242 83.7137 7.97441 82.7717 8.22641 81.8207C9.77841 75.8997 11.0794 69.9217 12.4194 63.9427C15.2244 51.4327 18.1354 38.9307 21.5124 26.5567C23.5034 19.2967 25.9204 12.5618 29.7344 6.30176Z" fill="#B75B3E"/>
<path d="M34.7804 6.69976C34.7424 6.80576 34.7024 6.91277 34.6744 7.01977L30.6084 6.42678C30.6754 6.32078 30.7424 6.21376 30.8114 6.09676C32.1314 5.91176 33.4424 6.06878 34.7034 6.65978C34.7234 6.65978 34.7434 6.67078 34.7524 6.68078C34.7624 6.68078 34.7714 6.69076 34.7804 6.69976Z" fill="#B75B3E"/>
<path d="M35.5864 7.1554C34.3634 10.4834 33.2774 13.8604 32.3264 17.2774C29.7834 26.4304 27.7944 35.7574 26.1244 45.1134C24.4064 54.7694 22.8824 64.4664 21.2914 74.1524C20.3984 79.5294 19.6604 84.9344 19.3504 90.3804C19.3394 90.6134 19.3204 90.8354 19.3024 91.0694L17.9724 90.4484C18.0304 89.8174 18.0894 89.1864 18.1374 88.5654C18.5454 83.6054 19.1954 78.7134 20.0304 73.8034C21.8754 62.9324 23.6114 52.0324 25.7074 41.2024C27.7174 30.8074 29.9594 20.2474 33.5304 10.2614C33.8884 9.24138 34.2774 8.15639 34.6754 7.02039L35.5864 7.1554Z" fill="#B75B3E"/>
<path d="M45.9046 8.79611C39.8296 22.1101 36.3246 37.0091 33.6176 50.9651C31.6086 61.3301 30.8616 71.9191 30.8026 82.4601C30.7836 85.8771 30.4536 90.4091 30.6566 94.8441C31.3846 95.0091 32.1226 95.1741 32.8606 95.3101C32.8316 94.6501 32.7936 94.0101 32.7626 93.3881C32.5106 88.5261 32.4626 83.6341 32.5196 78.7721C32.6466 68.3581 33.7636 57.9741 35.8196 47.7631C37.5866 39.0861 39.5556 30.4681 42.2556 22.0241C43.6436 17.6561 45.1676 13.0661 46.9906 8.62109L45.9046 8.79611Z" fill="#B75B3E"/>
<path d="M60.6462 94.1751C59.9762 94.3491 59.2962 94.5241 58.6082 94.6791C57.9672 92.1651 57.4622 89.7691 56.9872 87.7691C54.7452 78.3451 53.3282 68.7371 52.9112 59.0501C52.4452 47.9571 52.2612 36.6991 52.9782 25.6151C53.3962 19.3261 53.8812 12.7351 55.2692 6.43613H55.2792C55.5602 6.39713 55.8122 6.36914 56.0752 6.36914C54.7452 13.3081 54.5212 20.7321 54.2602 27.4781C53.9022 36.7861 53.9982 46.1311 54.3572 55.4391C54.7462 65.5521 55.9302 75.6461 58.3942 85.4781C59.1122 88.3411 59.8212 91.2731 60.6462 94.1751Z" fill="#B75B3E"/>
<path d="M79.1251 86.2932C78.4361 86.7402 77.7271 87.1662 77.0201 87.5652C71.0801 77.4332 67.9941 65.0483 66.3141 54.2473C64.7911 44.4153 63.5101 34.5062 62.7051 24.5872C62.2581 19.1122 61.5201 13.2313 61.2881 7.44727C61.7721 7.56327 62.2491 7.69926 62.7151 7.87326C62.7921 8.71926 62.8691 9.56326 62.9181 10.4083C63.2001 15.1343 63.4811 19.8713 63.9571 24.5872C64.9761 34.8652 66.2281 45.2023 68.1871 55.3433C69.8191 63.8173 72.0321 72.3662 75.7681 80.1812C76.7871 82.3132 77.9121 84.3322 79.1251 86.2932Z" fill="#B75B3E"/>
<path d="M69.794 46.31C70.185 45.747 70.778 45.303 71.676 44.913C72.362 44.616 73.104 44.426 73.836 44.279C75.288 43.99 77.057 43.9679 78.086 45.2239C78.798 46.0939 79.064 47.521 79.113 48.616C79.337 53.554 75.179 56.2779 70.923 57.4489C70.118 57.6689 68.714 58.4839 68.113 57.5179C67.089 55.8729 68.57 48.078 69.794 46.31Z" fill="#CD8B6D"/>
<path d="M69.7791 50.038C69.7791 50.038 74.9991 45.202 75.7081 47.873C76.4191 50.544 75.2801 53.437 75.2801 53.437C75.2801 53.437 75.3691 49.975 72.4631 51.221C72.4631 51.221 73.4561 57.052 69.0761 54.335C69.0761 54.335 67.5201 52.246 69.7791 50.038Z" fill="#B66C50"/>
<path d="M17.894 46.31C17.503 45.747 16.91 45.303 16.013 44.913C15.327 44.616 14.585 44.426 13.853 44.279C12.401 43.99 10.632 43.9679 9.60304 45.2239C8.89104 46.0939 8.62505 47.521 8.57605 48.616C8.35205 53.554 12.509 56.2779 16.766 57.4489C17.571 57.6689 18.976 58.4839 19.576 57.5179C20.6 55.8729 19.118 48.078 17.894 46.31Z" fill="#CD8B6D"/>
<path d="M17.9096 50.038C17.9096 50.038 12.6886 45.202 11.9806 47.873C11.2696 50.544 12.4086 53.437 12.4086 53.437C12.4086 53.437 12.3196 49.975 15.2256 51.221C15.2256 51.221 14.2327 57.052 18.6127 54.335C18.6127 54.335 20.1686 52.246 17.9096 50.038Z" fill="#B66C50"/>
<path d="M73.7579 110.78C73.7579 110.78 44.4769 113.498 16.6699 110.566C16.6699 110.566 16.9709 109.44 17.6799 107.693C17.7379 107.558 17.7959 107.412 17.8639 107.257C18.1159 106.636 18.4359 105.938 18.7969 105.19C19.0089 104.735 19.2519 104.279 19.5139 103.803C19.5809 103.656 19.6699 103.501 19.7469 103.356C19.8239 103.22 19.8919 103.094 19.9789 102.959C20.0279 102.852 20.0969 102.745 20.1639 102.639C20.4069 102.211 20.6789 101.775 20.9599 101.338C21.4649 100.552 22.0269 99.7556 22.6389 98.9596C22.8719 98.6586 23.1149 98.3666 23.3569 98.0676C23.5509 97.8346 23.7549 97.5906 23.9589 97.3586C24.3279 96.9416 24.7159 96.5246 25.1239 96.1066C25.6959 95.5246 26.3079 94.9526 26.9579 94.4076C27.2199 94.1846 27.4919 93.9616 27.7829 93.7386C27.9189 93.6316 28.0539 93.5256 28.1999 93.4186C28.3649 93.2926 28.5299 93.1666 28.7039 93.0506C29.0539 92.8076 29.4129 92.5656 29.7819 92.3316C31.5679 91.2056 33.5669 90.2646 35.8189 89.6046C37.0709 89.2456 38.4009 88.9636 39.8079 88.7986C40.8359 88.6816 41.9039 88.6136 43.0199 88.6136L46.5729 88.8166C46.5729 88.8166 47.7379 88.5836 49.5919 88.5746C51.2509 88.5646 53.4739 88.7396 55.9009 89.4186C58.3759 90.1086 61.0639 91.3206 63.6259 93.3996C64.0039 93.7096 64.3819 94.0296 64.7519 94.3886C64.9359 94.5536 65.1199 94.7276 65.2949 94.9126C65.3439 94.9516 65.3829 94.9896 65.4309 95.0386C65.5479 95.1546 65.6639 95.2716 65.7809 95.3976C65.9849 95.6206 66.1879 95.8436 66.3919 96.0766C66.7019 96.4356 67.0139 96.8146 67.3139 97.2126C67.5859 97.5526 67.8389 97.9016 68.0899 98.2706C68.2749 98.5226 68.4489 98.7856 68.6249 99.0566C68.7599 99.2706 68.8949 99.4846 69.0219 99.7076C69.3519 100.251 69.6719 100.823 69.9819 101.416C70.2639 101.968 70.5459 102.542 70.8079 103.143C70.8949 103.318 70.9629 103.493 71.0399 103.668L71.2929 104.348L71.7679 105.571L72.2239 106.774L72.4479 107.346L72.7969 108.269L73.7579 110.78Z" fill="#7FADC4"/>
<path d="M50.882 93.3776C46.855 96.7266 38.469 93.3776 38.469 93.3776C39.168 91.9896 39.586 90.4176 39.808 88.7976C39.837 88.6516 39.856 88.5066 39.866 88.3596C40.022 87.0986 40.071 85.8266 40.041 84.5856C40.031 83.9356 40.003 83.2946 39.944 82.6726C39.944 82.5566 39.934 82.4496 39.925 82.3336C39.614 78.5476 38.808 75.5976 38.808 75.5976L49.542 75.2676C48.893 77.4326 48.697 79.7906 48.774 82.0716C48.774 82.1596 48.785 82.2466 48.785 82.3346C48.824 83.4306 48.931 84.5086 49.066 85.5266C49.192 86.4496 49.337 87.3326 49.502 88.1476C49.532 88.2926 49.561 88.4386 49.59 88.5746C50.184 91.4176 50.882 93.3776 50.882 93.3776Z" fill="#CD8B6D"/>
<path d="M50.8819 93.3773C50.7569 93.4843 50.6199 93.5913 50.4749 93.6783C50.1939 93.8723 49.8929 94.0373 49.5729 94.1743C49.0299 94.4263 48.4469 94.5913 47.8459 94.6973C47.5749 94.7463 47.3019 94.7853 47.0319 94.8033C46.2449 94.8903 45.4389 94.8813 44.6529 94.8033C44.3719 94.7853 44.0999 94.7553 43.8279 94.7253C42.7509 94.5903 41.7319 94.3683 40.8789 94.1443C40.6929 94.0953 40.5189 94.0473 40.3539 93.9983C39.2089 93.6683 38.4719 93.3773 38.4719 93.3773C39.1709 91.9893 39.5889 90.4173 39.8109 88.7973C39.8399 88.6513 39.8589 88.5063 39.8689 88.3593C40.0249 87.0983 40.0739 85.8263 40.0439 84.5853C40.0339 83.9353 40.0059 83.2943 39.9469 82.6723C40.5189 82.7403 41.1699 82.8093 41.8689 82.8483C42.1019 82.8573 42.3449 82.8663 42.5969 82.8763C42.9659 82.8863 43.3439 82.8963 43.7319 82.8763L44.3729 82.8563C44.8289 82.8363 45.2939 82.7973 45.7609 82.7403L46.1099 82.6923C46.6259 82.6243 47.1389 82.5273 47.6439 82.3903C47.8579 82.3513 48.0709 82.2933 48.2849 82.2253C48.4499 82.1763 48.6149 82.1283 48.7789 82.0703C48.7789 82.1583 48.7899 82.2453 48.7899 82.3333C48.8289 83.4293 48.9359 84.5073 49.0709 85.5253C49.1969 86.4483 49.3419 87.3313 49.5069 88.1463C49.5369 88.2913 49.5659 88.4373 49.5949 88.5733C50.1839 91.4173 50.8819 93.3773 50.8819 93.3773Z" fill="#B1DAFF"/>
<path d="M42.594 82.8766C42.38 86.6816 41.604 90.3116 40.877 94.1456C40.691 94.0966 40.5171 94.0486 40.3521 93.9996C40.6541 91.5446 41.363 89.1576 41.565 86.6826C41.672 85.4016 41.77 84.1196 41.866 82.8496C42.1 82.8566 42.342 82.8666 42.594 82.8766Z" fill="#91C3E8"/>
<path d="M43.7289 82.8763C43.7679 83.4783 43.7969 84.0503 43.7679 84.5353C43.5929 87.9233 43.5639 91.3403 43.8259 94.7253C44.0979 94.7553 44.3699 94.7853 44.6509 94.8033C44.6909 92.5623 44.5349 90.3193 44.5159 88.0773C44.4959 86.7473 44.3409 84.7583 44.3699 82.8553L43.7289 82.8763Z" fill="#91C3E8"/>
<path d="M47.845 94.6973C47.574 94.7463 47.301 94.7853 47.031 94.8033C46.35 92.7953 45.914 90.5523 45.943 88.5633C45.963 86.6613 45.778 84.6813 45.759 82.7403L46.108 82.6923C46.127 86.7003 47.127 90.8053 47.845 94.6973Z" fill="#91C3E8"/>
<path d="M50.4749 93.6786C50.1939 93.8726 49.8929 94.0376 49.5729 94.1746C47.4189 90.6116 47.5059 86.5066 47.6409 82.3916L48.2819 82.2266C48.3109 84.3716 48.3799 86.4966 48.8849 88.6326C49.3009 90.3586 49.8439 92.0286 50.4749 93.6786Z" fill="#91C3E8"/>
<path d="M71.2698 42.1917C71.1768 43.1427 71.0488 44.1027 70.9218 45.0727C70.0978 51.2167 69.1118 57.3527 67.5818 63.3697C64.7008 74.7077 50.6698 80.2837 45.6728 79.9007C19.9128 76.4417 18.5688 58.7547 18.7568 56.8357C19.0618 53.8267 18.5358 50.5627 18.3408 47.5617C18.2388 45.9637 17.9998 44.3247 17.7708 42.6847C17.3968 39.8957 17.0568 37.0757 17.4908 34.3547C17.5068 34.2257 17.5328 34.0987 17.5588 33.9647C18.0338 31.2297 18.9188 28.3977 19.9628 25.8477C23.2348 17.8937 29.8398 8.98668 39.2798 8.80768C41.4898 8.76668 43.7338 9.14966 45.9168 9.81866C49.0698 10.7697 52.1128 12.2927 54.7818 13.8997C60.7218 17.4937 66.6538 21.5807 69.6208 28.1187C71.7038 32.7237 71.7628 37.3737 71.2698 42.1917Z" fill="#FFC29C"/>
<path d="M18.1978 24.933C20.7908 22.075 24.0188 19.656 27.3508 17.726C35.0538 13.268 44.2748 10.04 53.3028 10.656C60.3238 11.135 66.0188 18.906 70.9918 22.81C71.4768 17.472 68.5018 9.60796 65.5868 6.72996C59.8408 1.05896 52.3168 -0.0540323 44.5438 0.00196768C35.9048 0.0659677 26.8838 2.82197 21.7918 10.187C18.4048 15.084 17.0258 20.622 17.0758 26.288C17.4228 25.828 17.7958 25.377 18.1978 24.933Z" fill="#7FADC4"/>
<path d="M72.0501 44.0739C71.8081 43.9579 71.5741 43.7729 71.3521 43.5699C71.2161 44.0249 71.0611 44.4719 70.8561 44.8889C70.5661 45.5299 69.4781 45.5299 69.1881 44.8889C68.9351 44.3449 68.7032 43.802 68.4892 43.249C68.0722 42.172 67.7322 41.0749 67.4312 39.9579C67.2942 40.9579 67.0512 41.929 66.6732 42.831C66.6642 42.851 66.6532 42.8799 66.6442 42.8989C66.4022 43.4519 65.6732 43.384 65.2862 43.073C64.4512 42.394 63.7822 41.424 63.2281 40.288C63.1411 40.599 62.8991 40.851 62.6071 40.978C62.3361 41.093 62.0252 41.0829 61.7542 40.9099C61.6772 40.8599 61.6082 40.8119 61.5402 40.7549C58.2112 38.3569 57.2311 31.981 56.1921 28.4C55.9681 27.633 55.7462 26.8659 55.5322 26.0999C55.5032 26.9239 55.4832 27.7589 55.4452 28.5839C55.2902 31.7469 55.7072 38.667 52.7172 40.823C52.4362 41.025 52.1632 41.1799 51.8932 41.2769C51.5232 41.4139 51.1652 41.443 50.8352 41.4039C47.7682 40.958 46.3812 33.3789 46.0992 31.5829C45.4302 27.4779 45.2251 23.2939 44.9931 19.1409C44.3231 21.7119 43.6351 24.2749 43.1781 26.8279C42.4501 30.8549 42.7892 38.1439 39.7332 41.2889C39.2872 41.7549 38.6552 41.6579 38.1992 41.2889C38.0922 41.2019 37.9952 41.113 37.8992 41.017C37.0842 40.289 36.4622 39.3369 35.9772 38.2499C34.8512 35.7559 34.4821 32.5729 34.4821 29.7199C34.2591 30.6219 34.0452 31.5339 33.8322 32.4369C33.5412 33.6599 33.1142 38.9199 31.4732 41.1039C31.4732 41.1129 31.4732 41.1129 31.4732 41.1129C31.1342 41.5699 30.7362 41.8899 30.2702 42.0069C29.8142 42.1239 29.2991 42.0369 28.7171 41.6959C25.3201 39.6969 26.1752 31.8749 26.7372 27.8769C25.7952 30.6029 24.8932 33.35 23.9702 36.077C23.6012 37.184 22.5832 38.3189 21.6702 38.4739C21.1562 38.5719 20.6812 38.338 20.3602 37.62C20.3212 37.785 20.2731 37.9399 20.2341 38.1049C20.2141 38.1829 20.1952 38.2599 20.1862 38.3379C19.7012 40.5499 19.5262 42.7439 18.1582 44.6179C17.8282 45.0629 17.1471 45.2769 16.7301 44.8019C13.0231 40.6669 15.0322 30.5729 16.5752 26.0019C18.5072 20.2659 21.4481 13.657 26.1651 9.35695C28.8721 5.24195 31.1831 3.79493 35.3941 3.01793C35.8892 2.92093 36.4232 2.84395 36.9762 2.76595C37.1802 2.73795 37.3932 2.70794 37.6062 2.67894C38.4802 2.57294 39.3732 2.47494 40.2662 2.39894C40.6552 2.35894 41.0532 2.33095 41.4512 2.30095C42.0722 2.26195 42.7022 2.22293 43.3242 2.21193C43.5952 2.19293 43.8672 2.18395 44.1392 2.19295C45.4892 2.15495 46.8372 2.19295 48.1772 2.29995C48.5162 2.31995 48.8562 2.34795 49.1952 2.38695C50.6512 2.54195 52.0962 2.79395 53.5142 3.16295L54.1151 3.33693H54.1262C54.7282 3.49193 55.3102 3.68693 55.9022 3.90093C56.0562 3.95993 56.2032 4.01795 56.3582 4.07595C56.8242 4.25095 57.2692 4.44494 57.7082 4.64894C67.5012 9.15194 71.5081 19.1389 73.3821 29.4359C73.5831 30.5349 76.3791 46.1809 72.0501 44.0739Z" fill="#A6562F"/>
<path d="M36.9748 2.76843C35.5768 4.10843 34.3148 5.56445 33.2668 6.83545C30.1508 10.6194 27.2298 14.9785 25.1918 19.4525C22.3088 25.7615 21.3478 32.0204 21.6678 38.4744C21.1538 38.5724 20.6788 38.3385 20.3578 37.6205C20.3188 37.7855 20.2708 37.9404 20.2318 38.1054C20.2118 38.1834 20.1928 38.2604 20.1838 38.3384C19.8138 31.1654 21.8138 23.4984 25.0268 17.7234C27.7238 12.8704 30.6358 7.82545 34.5858 3.86545C34.8478 3.60245 35.1198 3.32144 35.3918 3.01944C35.8878 2.92344 36.4208 2.84643 36.9748 2.76843Z" fill="#D8744C"/>
<path d="M41.4488 2.30359C38.5268 6.65959 36.0998 11.7556 35.3918 13.4256C31.6558 22.2476 31.5198 31.7006 31.4698 41.1056C31.4698 41.1146 31.4698 41.1146 31.4698 41.1146C31.1308 41.5716 30.7328 41.8916 30.2668 42.0086C29.4218 36.2826 30.5188 29.9446 31.2078 24.4136C31.9168 18.7456 33.8188 13.3676 36.6828 8.42758C37.3618 7.24358 38.6428 4.86659 40.2638 2.40259C40.6528 2.36059 41.0508 2.33259 41.4488 2.30359Z" fill="#D8744C"/>
<path d="M37.8967 41.0182C36.6537 34.2432 36.8967 27.3242 38.2747 20.4432C39.4397 14.6482 41.1287 7.8832 44.1367 2.1962C43.8647 2.1862 43.5927 2.19621 43.3217 2.21521C40.3807 7.82621 38.7307 14.3772 37.2937 20.1702C36.0037 25.3742 35.2367 32.0702 35.9747 38.2522L37.8967 41.0182Z" fill="#D8744C"/>
<path d="M51.8921 41.2786C51.5221 41.4156 51.1641 41.4446 50.8341 41.4056C50.1541 35.7666 49.9511 29.9726 49.4841 24.5476C49.0091 19.0546 48.5731 13.5416 48.1931 8.0376C48.0581 6.0876 48.0881 4.18559 48.1751 2.30359C48.5141 2.32359 48.8541 2.35159 49.1931 2.39059C49.3291 9.19459 49.8341 15.9486 50.4361 22.8106C50.9791 28.8956 51.3001 35.1166 51.8921 41.2786Z" fill="#D8744C"/>
<path d="M68.4877 43.2502C68.0707 42.1732 67.7307 41.0762 67.4297 39.9592C67.2927 40.9592 67.0497 41.9302 66.6717 42.8322C66.5747 37.0482 65.9147 31.2732 64.5177 25.1972C63.0907 19.0342 61.1797 13.1912 58.2677 7.54318C57.6657 6.36918 57.0147 5.21419 56.3557 4.07819C56.8217 4.25319 57.2667 4.44718 57.7057 4.65118C58.7817 6.43618 59.8027 8.2602 60.6947 10.1922C63.3437 15.9192 65.2077 21.8672 66.4097 28.0702C67.3337 32.8172 68.2167 38.0272 68.4877 43.2502Z" fill="#D8744C"/>
<path d="M62.6057 40.9799C62.3347 41.0949 62.0237 41.0849 61.7527 40.9119C61.6757 40.8619 61.6067 40.8139 61.5387 40.7569C61.0827 35.2039 60.0727 29.6529 58.7727 24.6649C56.9667 17.7339 55.6577 10.2129 53.5117 3.16687L54.1127 3.34085H54.1237C54.8717 5.79785 55.5117 8.29085 56.2097 10.7068C57.8307 16.3078 59.5497 21.9769 60.7727 27.6729C61.6937 32.0109 62.4317 36.5139 62.6057 40.9799Z" fill="#D8744C"/>
<g opacity="0.4">
<path d="M63.9548 56.6649C63.9548 58.1589 61.9448 59.3669 59.4658 59.3669C56.9858 59.3669 54.9778 58.1589 54.9778 56.6649C54.9778 55.1739 56.9858 53.9639 59.4658 53.9639C61.9448 53.9639 63.9548 55.1739 63.9548 56.6649Z" fill="#DB5D7B"/>
<path d="M33.8679 57.6356C33.8679 59.1296 31.8589 60.3376 29.3789 60.3376C26.8989 60.3376 24.8899 59.1296 24.8899 57.6356C24.8899 56.1436 26.8979 54.9346 29.3789 54.9346C31.8579 54.9346 33.8679 56.1436 33.8679 57.6356Z" fill="#DB5D7B"/>
</g>
<path d="M47.3241 52.8332C47.3991 52.1042 47.0581 51.1792 46.7901 50.6372C46.3751 49.7992 45.8501 48.3682 44.7021 48.3682C43.5981 48.3682 42.7061 49.6762 42.1801 50.4972C41.5251 51.5172 40.8931 52.8762 41.0351 54.1102C41.0481 54.2312 41.1281 54.3222 41.2211 54.3862C41.7881 55.6472 42.6241 57.3752 44.2791 57.2252C45.8631 57.0802 46.5161 54.8812 47.3761 53.8322C47.6421 53.5082 47.5991 53.0692 47.3241 52.8332Z" fill="#CD8B6D"/>
<path d="M22.2222 46.1038C24.5922 44.7558 24.3512 43.4249 26.1042 41.4939C27.6272 39.8169 30.7672 38.7569 32.9522 38.8639C36.7762 39.0549 41.6352 43.8469 38.7732 47.6329C38.7002 47.7309 38.5582 47.6969 38.5462 47.5709C38.2792 44.6259 37.3422 42.1169 34.3042 41.1139C31.3882 40.1519 29.1602 41.6109 27.6492 43.9769C26.4912 45.7899 24.6812 48.6468 22.2222 47.5818C21.6172 47.3198 21.7112 46.3928 22.2222 46.1038Z" fill="#390A0A"/>
<path d="M25.6438 47.0035C25.6438 50.4925 28.5148 53.3185 32.0568 53.3185C35.5998 53.3185 38.4708 50.4925 38.4708 47.0035C38.4708 43.5155 35.5998 40.6885 32.0568 40.6885C28.5158 40.6895 25.6438 43.5155 25.6438 47.0035Z" fill="white"/>
<path d="M36.2877 47.2375C36.2877 50.0775 34.4927 52.3805 32.2797 52.3805C30.0647 52.3805 28.2717 50.0775 28.2717 47.2375C28.2717 44.3995 30.0647 42.0965 32.2797 42.0965C34.4917 42.0975 36.2877 44.3995 36.2877 47.2375Z" fill="#ADC0E0"/>
<path d="M35.7496 47.2379C35.7496 49.6969 34.1966 51.693 32.2786 51.693C30.3596 51.693 28.8076 49.6969 28.8076 47.2379C28.8076 44.7799 30.3596 42.7849 32.2786 42.7849C34.1966 42.7849 35.7496 44.7799 35.7496 47.2379Z" fill="#390A0A"/>
<path d="M35.3084 43.7809C35.3084 44.3299 34.6494 44.7759 33.8384 44.7759C33.0264 44.7759 32.3684 44.3299 32.3684 43.7809C32.3684 43.2329 33.0264 42.7849 33.8384 42.7849C34.6494 42.7849 35.3084 43.2329 35.3084 43.7809Z" fill="white"/>
<path d="M66.8675 46.1038C64.4985 44.7558 64.7386 43.4249 62.9856 41.4939C61.4626 39.8169 58.3225 38.7569 56.1375 38.8639C52.3125 39.0549 47.4535 43.8469 50.3165 47.6329C50.3885 47.7309 50.5315 47.6969 50.5425 47.5709C50.8095 44.6259 51.7475 42.1169 54.7855 41.1139C57.7005 40.1519 59.9295 41.6109 61.4405 43.9769C62.5985 45.7899 64.4085 48.6468 66.8675 47.5818C67.4735 47.3198 67.3785 46.3928 66.8675 46.1038Z" fill="#390A0A"/>
<path d="M50.2219 47.0035C50.2219 50.4925 53.0929 53.3185 56.6359 53.3185C60.1779 53.3185 63.0489 50.4925 63.0489 47.0035C63.0489 43.5155 60.1779 40.6885 56.6359 40.6885C53.0929 40.6895 50.2219 43.5155 50.2219 47.0035Z" fill="white"/>
<path d="M60.5524 47.2377C60.5524 50.0777 58.7574 52.3807 56.5444 52.3807C54.3294 52.3807 52.5364 50.0777 52.5364 47.2377C52.5364 44.3997 54.3294 42.0967 56.5444 42.0967C58.7574 42.0977 60.5524 44.3997 60.5524 47.2377Z" fill="#ADC0E0"/>
<path d="M60.0153 47.2382C60.0153 49.6972 58.4613 51.6932 56.5443 51.6932C54.6263 51.6932 53.0732 49.6972 53.0732 47.2382C53.0732 44.7802 54.6263 42.7852 56.5443 42.7852C58.4613 42.7852 60.0153 44.7802 60.0153 47.2382Z" fill="#390A0A"/>
<path d="M59.5731 43.7812C59.5731 44.3302 58.9141 44.7762 58.1031 44.7762C57.2911 44.7762 56.6321 44.3302 56.6321 43.7812C56.6321 43.2332 57.2901 42.7852 58.1031 42.7852C58.9141 42.7852 59.5731 43.2332 59.5731 43.7812Z" fill="white"/>
<path d="M21.7375 42.2209C21.7375 42.2209 26.5905 29.1179 41.1485 39.0669L40.9055 35.9129C40.9055 35.9129 25.8625 27.1779 21.7375 42.2209Z" fill="#68210B"/>
<path d="M68.8094 42.2209C68.8094 42.2209 63.9564 29.1179 49.3984 39.0669L49.6414 35.9129C49.6414 35.9129 64.6844 27.1779 68.8094 42.2209Z" fill="#68210B"/>
<path d="M57.6875 58.2419C56.8275 57.9529 55.9965 57.9449 55.1055 58.0159C54.7045 58.0479 54.5005 58.697 54.9725 58.784C55.4375 58.867 55.8995 59.0079 56.3545 59.1639C55.3595 61.0309 52.2234 60.5379 52.2234 60.5379C43.1064 57.9779 37.7315 60.0179 35.2035 60.4839C33.8435 60.7379 33.0725 60.6829 32.6385 60.5849C33.0965 60.3799 33.5135 60.1249 33.7945 59.7359C33.9245 59.5569 33.7664 59.3319 33.5714 59.3149C32.3984 59.2119 31.2175 60.2899 30.2915 60.8809C29.9625 61.0909 30.2335 61.62 30.5825 61.422C31.1045 61.125 31.7725 60.9369 32.3915 60.6889C46.6755 78.5849 56.3955 61.889 56.8515 59.336C56.9225 59.361 56.9955 59.3869 57.0655 59.4099C57.6845 59.6289 58.3735 60.2229 59.0455 60.0639C59.2135 60.0239 59.3694 59.8579 59.3614 59.6779C59.3264 58.8509 58.3775 58.4719 57.6875 58.2419Z" fill="#A22D40"/>
<path d="M37.3547 62.7962C37.3547 62.7962 42.4197 61.5802 47.1377 62.3112C47.1377 62.3112 50.7397 62.9952 52.1537 62.4902C52.1537 62.4902 44.0717 70.0102 37.3547 62.7962Z" fill="white"/>
<path d="M19.796 58.8423C19.796 59.9813 18.98 60.9053 17.976 60.9053C16.971 60.9053 16.156 59.9813 16.156 58.8423C16.156 57.7023 16.971 56.7793 17.976 56.7793C18.98 56.7793 19.796 57.7023 19.796 58.8423Z" fill="#CAF3DD"/>
<path d="M71.3555 58.8423C71.3555 59.9813 70.5406 60.9053 69.5356 60.9053C68.5306 60.9053 67.7166 59.9813 67.7166 58.8423C67.7166 57.7023 68.5306 56.7793 69.5356 56.7793C70.5406 56.7793 71.3555 57.7023 71.3555 58.8423Z" fill="#CAF3DD"/>
</svg>
