<svg width="72" height="126" viewBox="0 0 72 126" fill="none" xmlns="http://www.w3.org/2000/svg">
<path d="M60.2151 33.923C60.0031 44.345 58.8701 58.658 58.5421 69.778C58.0111 87.93 48.1291 90.866 33.9771 90.602C16.8861 90.283 15.8231 82.596 14.7531 72.979C14.0191 66.398 11.2851 47.555 10.1531 33.577C9.63106 27.137 9.45106 21.741 9.94906 19.043C12.6431 4.471 30.4271 3.51 30.4271 3.51C54.4601 -0.334999 57.3431 15.046 59.0821 20.644C59.6611 22.509 60.3461 27.333 60.2151 33.923Z" fill="#E8B299"/>
<path d="M70.5875 125.127L38.6435 125.665V125.685L38.1635 125.676L37.6825 125.685V125.665L6.41248 125.127C6.41248 125.127 1.00847 108.612 20.1975 101.335C21.2165 100.941 22.3115 100.576 23.4755 100.249C25.6475 99.624 28.2425 99.105 30.9725 98.72C30.9725 98.72 34.6165 100.825 38.7595 101.21C42.8925 100.826 46.4875 98.72 46.4875 98.72C50.3325 99.258 53.3315 100.056 56.1105 101.047C57.5525 101.556 58.8595 102.114 60.0425 102.719C75.4895 110.515 70.5875 125.127 70.5875 125.127Z" fill="#BF9837"/>
<path d="M60.0415 102.719C49.8615 119.378 29.9335 108.497 20.1965 101.335C21.2155 100.941 22.3105 100.576 23.4745 100.249C25.6465 99.624 28.2415 99.105 30.9715 98.72C30.9715 98.72 34.6155 100.825 38.7585 101.21C42.8915 100.826 46.4865 98.72 46.4865 98.72C50.3315 99.258 53.3305 100.056 56.1095 101.047C57.5515 101.556 58.8585 102.114 60.0415 102.719Z" fill="#ADC0E0"/>
<path d="M29.1294 101.274C33.5264 107.201 43.0704 104.777 48.2444 99.903C47.5574 98.069 46.9514 95.901 46.7614 93.646C46.5394 91.089 46.8594 88.417 48.2034 86.003L27.4844 86.358C27.4844 86.358 28.9884 89.373 29.6164 93.284C30.0194 95.774 30.0574 98.621 29.1294 101.274Z" fill="#CD8B6D"/>
<path d="M12.9214 46.96C12.9214 46.96 4.37038 32.511 0.832382 44.895C-2.70762 57.281 5.84438 63.178 11.4474 61.998C17.0504 60.82 12.9214 46.96 12.9214 46.96Z" fill="#CD8B6D"/>
<path d="M11.8897 49.3189C11.8897 49.3189 5.99271 40.1769 3.92871 43.8629C1.86371 47.5509 2.45272 52.2669 2.45272 52.2669C2.45272 52.2669 3.63372 47.1069 7.46672 50.0549C7.46672 50.0549 3.78072 58.3119 11.2997 55.9539C11.2997 55.9539 14.3957 53.4469 11.8897 49.3189Z" fill="#B66C50"/>
<path d="M58.0827 45.192C58.0827 45.192 66.6328 30.742 70.1728 43.127C73.7098 55.513 65.1588 61.411 59.5568 60.229C53.9538 59.05 58.0827 45.192 58.0827 45.192Z" fill="#CD8B6D"/>
<path d="M58.2031 47.5504C58.2031 47.5504 64.1011 38.4084 66.1651 42.0944C68.2291 45.7804 67.6401 50.4984 67.6401 50.4984C67.6401 50.4984 66.4611 45.3364 62.6271 48.2864C62.6271 48.2864 66.3131 56.5434 58.7931 54.1854C58.7931 54.1854 55.6961 51.6774 58.2031 47.5504Z" fill="#B66C50"/>
<path d="M51.5665 64.8027C51.4695 65.0427 49.5185 69.4557 46.2405 73.3287C46.0095 73.6087 45.7695 73.8767 45.5195 74.1477C40.7995 79.2897 33.6665 82.8177 25.4465 72.7527C25.3415 72.6287 25.2455 72.5027 25.1395 72.3677C23.7265 70.5897 22.2845 68.4077 20.8135 65.7557C20.8135 65.7557 40.2715 71.7627 51.5665 64.8027Z" fill="white"/>
<path d="M46.2404 73.3292C46.0094 73.6092 45.7694 73.8772 45.5194 74.1482C43.1844 74.3882 40.8374 74.4542 38.5114 74.3682C34.2524 74.1952 29.6864 73.8962 25.4464 72.7532C25.3414 72.6292 25.2454 72.5032 25.1394 72.3682C30.0324 73.6472 35.4074 73.9172 40.1364 73.8102C42.2324 73.7632 44.2594 73.6082 46.2404 73.3292Z" fill="#CD8B6D"/>
<path d="M38.0244 58.519C38.8004 53.867 37.9664 45.615 37.1824 42.273L36.3804 39.87C36.6214 37.893 34.9964 34.551 33.1034 36.338C31.6884 37.673 32.8344 41.265 32.9104 43.06C33.1354 48.478 32.6484 54.378 32.3304 59.862C31.6384 59.295 30.9054 58.189 29.7464 58.336C29.6864 60.176 34.1584 66.249 36.3874 65.791C38.5464 65.344 42.2354 56.88 38.0244 58.519Z" fill="#CD8B6D"/>
<path d="M20.5974 36.6487C18.0354 38.4757 16.5624 42.9427 18.0514 45.8227C18.1234 45.9637 18.3804 45.9047 18.3614 45.7397C18.0624 43.1787 18.9414 40.4037 20.5894 38.4547C21.6104 37.2487 23.0174 36.7407 24.5504 36.6167C26.2254 36.4797 26.9824 38.2537 28.2984 38.8627C28.5724 38.9887 28.9164 38.7837 28.8254 38.4567C27.7984 34.7467 23.1794 34.8087 20.5974 36.6487Z" fill="#390A0A"/>
<path d="M29.5107 44.9666C29.5107 49.7716 27.0027 53.6646 23.9077 53.6646C20.8137 53.6646 18.3047 49.7706 18.3047 44.9666C18.3047 40.1616 20.8137 36.2656 23.9077 36.2656C27.0027 36.2656 29.5107 40.1616 29.5107 44.9666Z" fill="white"/>
<path d="M28.322 45.2495C28.322 48.8265 26.412 51.7275 24.056 51.7275C21.702 51.7275 19.791 48.8265 19.791 45.2495C19.791 41.6725 21.702 38.7715 24.056 38.7715C26.412 38.7715 28.322 41.6725 28.322 45.2495Z" fill="#7FADC4"/>
<path d="M27.6463 45.3263C27.6463 48.3453 26.0803 50.7913 24.1483 50.7913C22.2183 50.7913 20.6523 48.3453 20.6523 45.3263C20.6523 42.3093 22.2183 39.8633 24.1483 39.8633C26.0803 39.8633 27.6463 42.3103 27.6463 45.3263Z" fill="#390A0A"/>
<path d="M28.3219 40.6179C28.3219 41.2129 27.3339 41.6939 26.1149 41.6939C24.8969 41.6939 23.9089 41.2129 23.9089 40.6179C23.9089 40.0229 24.8969 39.5439 26.1149 39.5439C27.3339 39.5439 28.3219 40.0229 28.3219 40.6179Z" fill="white"/>
<path d="M50.6919 36.6487C53.2539 38.4757 54.7269 42.9427 53.2379 45.8227C53.1659 45.9637 52.9089 45.9047 52.9279 45.7397C53.2279 43.1787 52.3489 40.4037 50.6999 38.4547C49.6789 37.2487 48.2709 36.7407 46.7389 36.6167C45.0639 36.4797 44.3069 38.2537 42.9899 38.8627C42.7159 38.9887 42.3729 38.7837 42.4629 38.4567C43.4899 34.7467 48.1089 34.8087 50.6919 36.6487Z" fill="#390A0A"/>
<path d="M52.582 44.9667C52.582 49.7717 50.074 53.6647 46.98 53.6647C43.886 53.6647 41.376 49.7707 41.376 44.9667C41.376 40.1617 43.885 36.2657 46.98 36.2657C50.073 36.2657 52.582 40.1617 52.582 44.9667Z" fill="white"/>
<path d="M51.3923 45.2496C51.3923 48.8266 49.4813 51.7276 47.1263 51.7276C44.7723 51.7276 42.8613 48.8266 42.8613 45.2496C42.8613 41.6726 44.7723 38.7716 47.1263 38.7716C49.4823 38.7716 51.3923 41.6726 51.3923 45.2496Z" fill="#7FADC4"/>
<path d="M50.7167 45.3264C50.7167 48.3454 49.1507 50.7914 47.2187 50.7914C45.2887 50.7914 43.7227 48.3454 43.7227 45.3264C43.7227 42.3094 45.2887 39.8634 47.2187 39.8634C49.1517 39.8634 50.7167 42.3104 50.7167 45.3264Z" fill="#390A0A"/>
<path d="M51.3923 40.618C51.3923 41.213 50.4032 41.694 49.1852 41.694C47.9672 41.694 46.9792 41.213 46.9792 40.618C46.9792 40.023 47.9672 39.544 49.1852 39.544C50.4032 39.544 51.3923 40.023 51.3923 40.618Z" fill="white"/>
<path d="M12.6875 37.0086C12.6875 37.0086 13.3285 25.4726 27.7485 30.9206C27.7485 30.9206 14.6105 33.1636 12.6875 37.0086Z" fill="#4A1D1D"/>
<path d="M59.4721 36.368C59.4721 36.368 58.8302 24.832 44.4102 30.28C44.4102 30.28 57.5491 32.523 59.4721 36.368Z" fill="#4A1D1D"/>
<path d="M66.1214 72.08C66.1214 72.09 66.1214 72.09 66.1214 72.09C66.1614 73.74 66.0114 75.38 65.7014 76.99C65.7014 77 65.7114 77 65.7014 77.01C65.1814 79.85 64.2014 82.62 62.9514 85.27C62.6114 86.01 62.2414 86.73 61.8614 87.45C61.7814 87.6 61.7014 87.74 61.6114 87.89C59.9314 90.9 57.6614 93.3 55.2514 95.56C54.5514 96.22 53.8314 96.87 53.1114 97.51C51.4014 99.04 49.6914 100.57 48.1114 102.25C47.9614 102.41 47.7514 102.61 47.4914 102.84C46.9314 103.35 46.1514 104 45.2814 104.7C43.6314 106.03 41.6914 107.53 40.4314 108.5H40.4214C39.9114 108.88 39.5314 109.18 39.3114 109.35C39.1814 109.45 39.1114 109.5 39.1114 109.5C39.1114 109.5 37.9614 107.26 35.7514 104.85L35.7414 104.84C35.3014 104.34 34.7914 103.84 34.2514 103.35C33.5314 102.7 32.7314 102.07 31.8614 101.5C29.6214 100.04 27.6914 99.01 25.8214 98.05C25.6214 97.95 25.4114 97.84 25.2114 97.74C22.8214 96.51 20.4914 95.33 17.7014 93.38C17.3314 93.13 16.9414 92.85 16.5514 92.56C16.4214 92.47 16.2914 92.37 16.1714 92.27C13.8514 90.51 11.8814 88.5 10.3714 86.27C10.1314 85.92 9.90141 85.56 9.69141 85.2C7.15141 80.96 6.2014 75.99 7.4214 70.49C8.6614 64.9 10.1014 57.14 12.3614 52C12.3614 52 13.4314 55.13 14.7714 58.8C14.9314 59.26 15.1014 59.73 15.2814 60.2C16.1914 62.72 17.1814 65.34 17.9814 67.28C18.2414 67.89 18.4714 68.44 18.6814 68.89C18.8414 69.23 18.9814 69.52 19.1114 69.75C20.0714 71.49 21.3514 73.27 22.8614 74.93C23.1114 75.22 23.3814 75.5 23.6414 75.77C25.6914 77.85 28.1014 79.68 30.6914 80.9C31.0014 81.05 31.3214 81.19 31.6314 81.32C34.0314 82.3 36.5614 82.74 39.1014 82.39C39.4014 82.35 39.7014 82.29 40.0014 82.23C41.7614 81.85 43.5214 81.07 45.2214 79.81C45.3314 79.73 45.4414 79.65 45.5514 79.56C45.7214 79.43 45.8814 79.29 46.0514 79.16C47.5814 77.86 49.0814 76.12 50.5014 74.09C50.7514 73.71 51.0114 73.33 51.2614 72.94C52.5814 70.9 53.8114 68.62 54.9014 66.23C55.0714 65.86 55.2314 65.49 55.3914 65.11C56.2114 63.21 56.9314 61.26 57.5214 59.32C57.6214 59 57.7114 58.68 57.8014 58.37V58.36C58.6514 55.42 59.2014 52.57 59.3614 50C60.8614 54.25 61.4814 56.07 62.3014 58.01C63.8014 61.55 65.2714 65.31 65.8714 69.19C66.0314 70.15 66.1114 71.12 66.1214 72.08Z" fill="#4A1D1D"/>
<path d="M12.9214 69.1597C10.8114 74.8397 8.99136 79.7697 10.6314 85.9297C10.6814 86.1197 10.5314 86.2597 10.3714 86.2697C10.2814 86.2897 10.1814 86.2497 10.1214 86.1397C9.96136 85.8297 9.81136 85.5097 9.69136 85.1997C7.63136 80.2797 9.35136 75.4197 11.1814 70.4997C12.5914 66.7097 13.4814 62.6597 14.7714 58.7997C14.9314 59.2597 15.1014 59.7297 15.2814 60.1997C14.5114 63.2097 13.9614 66.3497 12.9214 69.1597Z" fill="#703838"/>
<path d="M17.7018 93.3802C17.3318 93.1302 16.9418 92.8502 16.5518 92.5602C16.4218 92.4701 16.2918 92.3702 16.1718 92.2702C14.8718 88.5902 15.1818 84.4402 15.7418 80.5802C16.3518 76.4002 16.7718 71.5902 17.9818 67.2802C18.2418 67.8902 18.4718 68.4402 18.6818 68.8902C18.0218 72.3202 17.6818 75.9901 17.2418 79.0401C16.5318 84.0701 16.4218 88.5702 17.7018 93.3802Z" fill="#703838"/>
<path d="M25.8217 97.9396C25.8317 97.9796 25.8317 98.0196 25.8217 98.0496C25.7717 98.2196 25.5317 98.2796 25.4217 98.1096C25.3517 97.9896 25.2717 97.8696 25.2117 97.7396C21.5117 91.3096 21.2417 82.3396 22.8617 74.9296C23.1117 75.2196 23.3817 75.4996 23.6417 75.7696C23.1917 83.2696 24.0317 90.5496 25.8217 97.9396Z" fill="#703838"/>
<path d="M35.7415 104.84C35.3015 104.34 34.7915 103.84 34.2515 103.35C32.7115 98.7103 30.7215 94.4903 30.5015 89.2503C30.3915 86.4203 30.3515 83.6303 30.6915 80.9003C31.0015 81.0503 31.3215 81.1903 31.6315 81.3203C31.0915 85.6903 31.2715 90.3703 32.1515 94.1803C32.9815 97.7603 35.1315 101.19 35.7415 104.84Z" fill="#703838"/>
<path d="M40.4309 108.5H40.4209C39.9109 108.88 39.5309 109.18 39.3109 109.35C39.5909 104.01 38.8909 98.5304 39.0909 93.2404C39.2209 89.6704 39.0109 86.0104 39.1009 82.3904C39.4009 82.3504 39.7009 82.2903 40.0009 82.2303C40.0209 87.0603 40.4609 91.9604 40.3409 96.7504C40.2409 100.93 40.7109 104.68 40.4309 108.5Z" fill="#703838"/>
<path d="M47.4914 102.84C46.9314 103.35 46.1514 104 45.2814 104.7C46.1314 100.6 46.5914 96.63 46.3014 92.1C46.0314 88.01 45.9014 83.86 45.2214 79.81C45.3314 79.73 45.4414 79.65 45.5514 79.56C45.7214 79.43 45.8814 79.29 46.0514 79.16C47.3414 84.45 47.8014 90 47.8614 95.41C47.8914 97.79 47.8714 100.36 47.4914 102.84Z" fill="#703838"/>
<path d="M55.2517 95.5603C54.5517 96.2203 53.8317 96.8703 53.1117 97.5103C53.5517 92.8403 53.6717 88.3903 52.7517 83.5203C52.1517 80.3203 51.4117 77.1803 50.5017 74.0903C50.7517 73.7103 51.0117 73.3303 51.2617 72.9403C53.9217 80.0103 56.1317 88.2403 55.2517 95.5603Z" fill="#703838"/>
<path d="M62.9514 85.27C62.6114 86.01 62.2414 86.73 61.8614 87.45C61.7814 87.6 61.7014 87.74 61.6114 87.89C61.4014 83.84 60.6514 79.75 59.3514 76.08C58.1414 72.67 56.4414 69.49 54.9014 66.23C55.0714 65.86 55.2314 65.49 55.3914 65.11C58.6214 71.41 62.2214 78.25 62.9514 85.27Z" fill="#703838"/>
<path d="M66.1215 72.08C66.1215 72.09 66.1215 72.09 66.1215 72.09C66.1615 73.74 66.0115 75.38 65.7015 76.99C64.9615 73.15 64.0015 69.49 61.9015 65.91C60.5715 63.62 59.0415 61.48 57.5215 59.32C57.6215 59 57.7115 58.68 57.8015 58.37C60.9215 62.7 64.3215 67.14 66.1215 72.08Z" fill="#703838"/>
<path d="M56.6116 12.25L51.3616 13C55.4676 17.755 57.5806 24.555 58.3676 30.757C58.8776 34.775 58.5346 39.949 59.9176 43.676C62.1606 39.788 62.9226 34.123 63.3616 29.694C64.0656 22.588 61.5066 17.428 56.6116 12.25Z" fill="#4A1D1D"/>
<path d="M28.6115 4.5C27.0815 6.53 26.2215 9.07 24.8615 11.2C23.2315 13.75 21.2615 16 19.5415 18.5C16.9415 22.29 14.9915 26.43 13.8515 30.82C13.7315 31.29 13.6215 31.78 13.5215 32.26C13.5115 32.27 13.5115 32.27 13.5115 32.28C13.1015 34.17 12.8115 36.13 12.5215 38.01C12.5115 38.02 12.5115 38.02 12.5215 38.02C12.4715 38.35 12.4215 38.67 12.3715 39C12.0415 41.21 12.4315 44.42 11.6015 46.41C11.5915 45.05 11.0515 43.42 10.4015 41.77C9.72147 40.01 8.92147 38.23 8.53147 36.75C8.39147 36.23 8.26147 35.69 8.13147 35.15C7.10147 30.84 6.41147 25.97 7.29147 21.75C8.94147 13.9 14.8215 5.92 22.3615 2.75L28.6115 4.5Z" fill="#4A1D1D"/>
<path d="M23.8714 5.25951C15.3814 14.2695 5.19141 28.6495 11.1214 41.5995C11.2414 41.8495 10.9814 42.2095 10.7114 42.0095C10.6014 41.9395 10.5014 41.8595 10.4014 41.7695C9.72141 40.0095 8.92141 38.2295 8.53141 36.7495C8.39141 36.2295 8.26141 35.6895 8.13141 35.1495C8.08141 31.3295 9.10141 27.0395 9.79141 24.7095C11.8714 17.6595 17.3114 8.93951 23.4214 4.67951C23.7814 4.42951 24.1514 4.96951 23.8714 5.25951Z" fill="#703838"/>
<path d="M24.9111 9.30008C20.7511 13.6801 16.7311 18.8901 14.8011 24.7001C13.9211 27.3701 13.5411 29.8201 13.5211 32.2601C13.5111 32.2701 13.5111 32.2701 13.5111 32.2801C13.1011 34.1701 12.8111 36.1301 12.5211 38.0101C9.25106 27.6401 17.4011 15.6501 24.3111 8.70008C24.7011 8.31008 25.2811 8.90008 24.9111 9.30008Z" fill="#703838"/>
<path d="M68.1116 20.75C65.1116 24.75 57.8016 25.91 54.2916 26.45C50.0916 27.1 45.5516 26.01 41.6216 24.69C36.0616 22.84 30.6716 19.3 27.1516 14.51C24.6516 11.1 20.9216 5.04 20.6116 0.75L22.4116 0.57L23.3016 0.48L27.0616 0.0999985L28.1116 0H28.3016C31.5516 0 34.7216 0.0500002 37.7916 0.34C38.2816 0.39 38.7716 0.44 39.2516 0.5C46.0816 1.34 52.3116 3.58 57.3716 9.5C57.9016 10.12 58.4316 10.75 58.9416 11.4C59.3016 11.87 59.6516 12.34 59.9916 12.82C60.7916 13.95 61.5216 15.14 62.0916 16.38C62.2616 16.74 62.4216 17.11 62.5616 17.49C62.6116 17.61 62.6616 17.72 62.7116 17.83C62.9116 18.21 63.1816 18.55 63.5116 18.85C63.7316 19.06 63.9816 19.25 64.2616 19.42C65.2616 20.05 66.5916 20.47 68.1116 20.75Z" fill="#4A1D1D"/>
<path d="M64.2616 19.4205C58.0416 24.1405 50.7116 25.8705 42.5616 22.1305C36.9516 19.5505 32.5516 15.9905 28.7016 11.1705C26.1216 7.94047 24.5016 4.10047 22.4116 0.570469L23.3016 0.480469C24.5116 2.44047 25.5316 4.53047 26.8416 6.60047C29.9016 11.4205 33.7716 15.9705 38.7716 18.8805C43.9016 21.8805 50.5816 24.6005 56.5916 22.6305C59.2016 21.7805 61.4316 20.4305 63.5116 18.8505C63.7316 19.0605 63.9816 19.2505 64.2616 19.4205Z" fill="#703838"/>
<path d="M62.712 17.83C57.872 21.13 51.792 22.55 46.392 19.53C41.382 16.73 37.872 11.99 33.972 7.89C31.532 5.33 29.172 2.82 27.062 0.0999985L28.112 0H28.302C32.542 5.47 37.802 10.54 42.622 14.99C46.842 18.89 52.402 20.99 58.012 18.65C59.492 18.04 60.832 17.25 62.092 16.38C62.262 16.74 62.422 17.11 62.562 17.49C62.612 17.61 62.662 17.72 62.712 17.83Z" fill="#703838"/>
<path d="M59.9915 12.82C56.9215 14.81 52.8715 15.21 49.5515 13.16C46.0915 11.03 43.0115 8.22 40.5615 4.97C39.4815 3.53 38.6215 1.94 37.7915 0.339996C38.2815 0.389996 38.7715 0.439996 39.2515 0.499996C40.5815 2.67 42.0015 4.8 43.9215 6.68C46.5315 9.23 50.5215 13.33 54.6115 12.91C56.2915 12.74 57.6915 12.19 58.9415 11.4C59.3015 11.87 59.6515 12.34 59.9915 12.82Z" fill="#703838"/>
</svg>
